<?xml version="1.0" encoding="UTF-8" standalone="no"?>
<!DOCTYPE svg PUBLIC "-//W3C//DTD SVG 1.1//EN"
 "http://www.w3.org/Graphics/SVG/1.1/DTD/svg11.dtd">
<!-- Generated by graphviz version 2.38.0 (20140413.2041)
 -->
<!-- Title: Config.h Pages: 1 -->
<svg width="472pt" height="140pt"
 viewBox="0.00 0.00 471.50 140.00" xmlns="http://www.w3.org/2000/svg" xmlns:xlink="http://www.w3.org/1999/xlink">
<g id="graph0" class="graph" transform="scale(1 1) rotate(0) translate(4 136)">
<title>Config.h</title>
<!-- Node4 -->
<g id="node1" class="node"><title>Node4</title>
<polygon fill="#bfbfbf" stroke="black" points="106.5,-112.5 106.5,-131.5 159.5,-131.5 159.5,-112.5 106.5,-112.5"/>
<text text-anchor="middle" x="133" y="-119.5" font-family="Helvetica,sans-Serif" font-size="10.00">Config.h</text>
</g>
<!-- Node5 -->
<g id="node2" class="node"><title>Node5</title>
<g id="a_node2"><a xlink:href="_f_s_m_8h.html" target="_top" xlink:title="The FSM is the finish state machine mechanism. ">
<polygon fill="none" stroke="black" points="161,-56.5 161,-75.5 207,-75.5 207,-56.5 161,-56.5"/>
<text text-anchor="middle" x="184" y="-63.5" font-family="Helvetica,sans-Serif" font-size="10.00">FSM.h</text>
</a>
</g>
</g>
<!-- Node4&#45;&gt;Node5 -->
<g id="edge1" class="edge"><title>Node4&#45;&gt;Node5</title>
<path fill="none" stroke="midnightblue" d="M148.378,-104.718C157.367,-95.1997 168.359,-83.5608 175.735,-75.7511"/>
<polygon fill="midnightblue" stroke="midnightblue" points="145.743,-102.41 141.422,-112.083 150.832,-107.216 145.743,-102.41"/>
</g>
<!-- Node6 -->
<g id="node3" class="node"><title>Node6</title>
<g id="a_node3"><a xlink:href="_config_8cpp.html" target="_top" xlink:title="This file define the Config class. ">
<polygon fill="none" stroke="black" points="0,-0.5 0,-19.5 64,-19.5 64,-0.5 0,-0.5"/>
<text text-anchor="middle" x="32" y="-7.5" font-family="Helvetica,sans-Serif" font-size="10.00">Config.cpp</text>
</a>
</g>
</g>
<!-- Node4&#45;&gt;Node6 -->
<g id="edge8" class="edge"><title>Node4&#45;&gt;Node6</title>
<path fill="none" stroke="midnightblue" d="M118.214,-104.897C96.501,-81.2486 56.7443,-37.9493 39.8885,-19.5914"/>
<polygon fill="midnightblue" stroke="midnightblue" points="115.733,-107.37 125.075,-112.368 120.889,-102.635 115.733,-107.37"/>
</g>
<!-- Node5&#45;&gt;Node6 -->
<g id="edge2" class="edge"><title>Node5&#45;&gt;Node6</title>
<path fill="none" stroke="midnightblue" d="M151.35,-53.4005C122.727,-43.2321 81.7812,-28.6854 56.0573,-19.5467"/>
<polygon fill="midnightblue" stroke="midnightblue" points="150.32,-56.7489 160.914,-56.7986 152.663,-50.1528 150.32,-56.7489"/>
</g>
<!-- Node7 -->
<g id="node4" class="node"><title>Node7</title>
<g id="a_node4"><a xlink:href="_f_s_m_8cpp.html" target="_top" xlink:title="Brief description of file. ">
<polygon fill="none" stroke="black" points="82,-0.5 82,-19.5 138,-19.5 138,-0.5 82,-0.5"/>
<text text-anchor="middle" x="110" y="-7.5" font-family="Helvetica,sans-Serif" font-size="10.00">FSM.cpp</text>
</a>
</g>
</g>
<!-- Node5&#45;&gt;Node7 -->
<g id="edge3" class="edge"><title>Node5&#45;&gt;Node7</title>
<path fill="none" stroke="midnightblue" d="M163.966,-50.3804C150.591,-40.6204 133.441,-28.1057 122.106,-19.8339"/>
<polygon fill="midnightblue" stroke="midnightblue" points="161.97,-53.2565 172.111,-56.324 166.096,-47.602 161.97,-53.2565"/>
</g>
<!-- Node8 -->
<g id="node5" class="node"><title>Node8</title>
<g id="a_node5"><a xlink:href="main_8cpp.html" target="_top" xlink:title="main.cpp">
<polygon fill="none" stroke="black" points="156,-0.5 156,-19.5 212,-19.5 212,-0.5 156,-0.5"/>
<text text-anchor="middle" x="184" y="-7.5" font-family="Helvetica,sans-Serif" font-size="10.00">main.cpp</text>
</a>
</g>
</g>
<!-- Node5&#45;&gt;Node8 -->
<g id="edge4" class="edge"><title>Node5&#45;&gt;Node8</title>
<path fill="none" stroke="midnightblue" d="M184,-45.8045C184,-36.9102 184,-26.7798 184,-19.7511"/>
<polygon fill="midnightblue" stroke="midnightblue" points="180.5,-46.083 184,-56.083 187.5,-46.083 180.5,-46.083"/>
</g>
<!-- Node9 -->
<g id="node6" class="node"><title>Node9</title>
<g id="a_node6"><a xlink:href="_measure_8cpp.html" target="_top" xlink:title="Brief description of file. ">
<polygon fill="none" stroke="black" points="230.5,-0.5 230.5,-19.5 303.5,-19.5 303.5,-0.5 230.5,-0.5"/>
<text text-anchor="middle" x="267" y="-7.5" font-family="Helvetica,sans-Serif" font-size="10.00">Measure.cpp</text>
</a>
</g>
</g>
<!-- Node5&#45;&gt;Node9 -->
<g id="edge5" class="edge"><title>Node5&#45;&gt;Node9</title>
<path fill="none" stroke="midnightblue" d="M206.099,-50.6221C221.262,-40.7574 240.883,-27.9919 253.698,-19.6545"/>
<polygon fill="midnightblue" stroke="midnightblue" points="203.809,-47.9367 197.335,-56.324 207.626,-53.8042 203.809,-47.9367"/>
</g>
<!-- Node10 -->
<g id="node7" class="node"><title>Node10</title>
<g id="a_node7"><a xlink:href="_output_8cpp.html" target="_top" xlink:title="Brief description of file. ">
<polygon fill="none" stroke="black" points="321.5,-0.5 321.5,-19.5 386.5,-19.5 386.5,-0.5 321.5,-0.5"/>
<text text-anchor="middle" x="354" y="-7.5" font-family="Helvetica,sans-Serif" font-size="10.00">Output.cpp</text>
</a>
</g>
</g>
<!-- Node5&#45;&gt;Node10 -->
<g id="edge6" class="edge"><title>Node5&#45;&gt;Node10</title>
<path fill="none" stroke="midnightblue" d="M217.095,-54.4876C249.185,-44.2943 297.268,-29.0209 327.081,-19.5509"/>
<polygon fill="midnightblue" stroke="midnightblue" points="215.752,-51.2415 207.281,-57.6048 217.872,-57.913 215.752,-51.2415"/>
</g>
<!-- Node11 -->
<g id="node8" class="node"><title>Node11</title>
<g id="a_node8"><a xlink:href="_usart_8cpp.html" target="_top" xlink:title="Brief description of file. ">
<polygon fill="none" stroke="black" points="404.5,-0.5 404.5,-19.5 463.5,-19.5 463.5,-0.5 404.5,-0.5"/>
<text text-anchor="middle" x="434" y="-7.5" font-family="Helvetica,sans-Serif" font-size="10.00">Usart.cpp</text>
</a>
</g>
</g>
<!-- Node5&#45;&gt;Node11 -->
<g id="edge7" class="edge"><title>Node5&#45;&gt;Node11</title>
<path fill="none" stroke="midnightblue" d="M217.152,-58.2132C258.922,-49.6049 332.882,-34.1714 396,-20 398.646,-19.4059 401.393,-18.7778 404.145,-18.1407"/>
<polygon fill="midnightblue" stroke="midnightblue" points="216.342,-54.8065 207.253,-60.2498 217.753,-61.6629 216.342,-54.8065"/>
</g>
</g>
</svg>
