<?xml version="1.0" encoding="UTF-8" standalone="no"?>
<!DOCTYPE svg PUBLIC "-//W3C//DTD SVG 1.1//EN"
 "http://www.w3.org/Graphics/SVG/1.1/DTD/svg11.dtd">
<!-- Generated by graphviz version 2.38.0 (20140413.2041)
 -->
<!-- Title: Config.cpp Pages: 1 -->
<svg width="798pt" height="196pt"
 viewBox="0.00 0.00 798.00 196.00" xmlns="http://www.w3.org/2000/svg" xmlns:xlink="http://www.w3.org/1999/xlink">
<g id="graph0" class="graph" transform="scale(1 1) rotate(0) translate(4 192)">
<title>Config.cpp</title>
<!-- Node0 -->
<g id="node1" class="node"><title>Node0</title>
<polygon fill="#bfbfbf" stroke="black" points="222.5,-168.5 222.5,-187.5 286.5,-187.5 286.5,-168.5 222.5,-168.5"/>
<text text-anchor="middle" x="254.5" y="-175.5" font-family="Helvetica,sans-Serif" font-size="10.00">Config.cpp</text>
</g>
<!-- Node1 -->
<g id="node2" class="node"><title>Node1</title>
<polygon fill="none" stroke="#bfbfbf" points="0,-112.5 0,-131.5 49,-131.5 49,-112.5 0,-112.5"/>
<text text-anchor="middle" x="24.5" y="-119.5" font-family="Helvetica,sans-Serif" font-size="10.00">string.h</text>
</g>
<!-- Node0&#45;&gt;Node1 -->
<g id="edge1" class="edge"><title>Node0&#45;&gt;Node1</title>
<path fill="none" stroke="midnightblue" d="M222.167,-169.921C185.148,-161.74 122.454,-147.656 59.1144,-132.09"/>
<polygon fill="midnightblue" stroke="midnightblue" points="59.9055,-128.68 49.3581,-129.682 58.2278,-135.476 59.9055,-128.68"/>
</g>
<!-- Node2 -->
<g id="node3" class="node"><title>Node2</title>
<polygon fill="none" stroke="#bfbfbf" points="67.5,-112.5 67.5,-131.5 115.5,-131.5 115.5,-112.5 67.5,-112.5"/>
<text text-anchor="middle" x="91.5" y="-119.5" font-family="Helvetica,sans-Serif" font-size="10.00">stdlib.h</text>
</g>
<!-- Node0&#45;&gt;Node2 -->
<g id="edge2" class="edge"><title>Node0&#45;&gt;Node2</title>
<path fill="none" stroke="midnightblue" d="M228.672,-168.444C200.767,-159.199 156.181,-144.428 125.457,-134.25"/>
<polygon fill="midnightblue" stroke="midnightblue" points="126.206,-130.811 115.613,-130.988 124.005,-137.456 126.206,-130.811"/>
</g>
<!-- Node3 -->
<g id="node4" class="node"><title>Node3</title>
<polygon fill="none" stroke="#bfbfbf" points="133.5,-112.5 133.5,-131.5 207.5,-131.5 207.5,-112.5 133.5,-112.5"/>
<text text-anchor="middle" x="170.5" y="-119.5" font-family="Helvetica,sans-Serif" font-size="10.00">avr/eeprom.h</text>
</g>
<!-- Node0&#45;&gt;Node3 -->
<g id="edge3" class="edge"><title>Node0&#45;&gt;Node3</title>
<path fill="none" stroke="midnightblue" d="M241.004,-168.324C227.9,-159.9 207.788,-146.971 192.393,-137.074"/>
<polygon fill="midnightblue" stroke="midnightblue" points="194.267,-134.118 183.963,-131.655 190.482,-140.006 194.267,-134.118"/>
</g>
<!-- Node4 -->
<g id="node5" class="node"><title>Node4</title>
<g id="a_node5"><a xlink:href="main_8h.html" target="_top" xlink:title="../lib/main.h">
<polygon fill="none" stroke="black" points="203.5,-0.5 203.5,-19.5 271.5,-19.5 271.5,-0.5 203.5,-0.5"/>
<text text-anchor="middle" x="237.5" y="-7.5" font-family="Helvetica,sans-Serif" font-size="10.00">../lib/main.h</text>
</a>
</g>
</g>
<!-- Node0&#45;&gt;Node4 -->
<g id="edge4" class="edge"><title>Node0&#45;&gt;Node4</title>
<path fill="none" stroke="midnightblue" d="M253.586,-168.075C250.91,-141.945 243.052,-65.2106 239.402,-29.577"/>
<polygon fill="midnightblue" stroke="midnightblue" points="242.878,-29.1595 238.377,-19.5681 235.915,-29.8727 242.878,-29.1595"/>
</g>
<!-- Node5 -->
<g id="node6" class="node"><title>Node5</title>
<g id="a_node6"><a xlink:href="_usart_8h.html" target="_top" xlink:title="Brief description of file. ">
<polygon fill="none" stroke="black" points="719,-56.5 719,-75.5 790,-75.5 790,-56.5 719,-56.5"/>
<text text-anchor="middle" x="754.5" y="-63.5" font-family="Helvetica,sans-Serif" font-size="10.00">../lib/Usart.h</text>
</a>
</g>
</g>
<!-- Node0&#45;&gt;Node5 -->
<g id="edge5" class="edge"><title>Node0&#45;&gt;Node5</title>
<path fill="none" stroke="midnightblue" d="M286.807,-172.556C336.77,-165.445 435.671,-150.418 518.5,-132 589.614,-116.187 671.309,-92.4065 717.528,-78.4188"/>
<polygon fill="midnightblue" stroke="midnightblue" points="718.561,-81.7628 727.111,-75.5049 716.525,-75.0656 718.561,-81.7628"/>
</g>
<!-- Node6 -->
<g id="node7" class="node"><title>Node6</title>
<g id="a_node7"><a xlink:href="_date_time_8h.html" target="_top" xlink:title="../lib/DateTime.h">
<polygon fill="none" stroke="black" points="292,-0.5 292,-19.5 381,-19.5 381,-0.5 292,-0.5"/>
<text text-anchor="middle" x="336.5" y="-7.5" font-family="Helvetica,sans-Serif" font-size="10.00">../lib/DateTime.h</text>
</a>
</g>
</g>
<!-- Node0&#45;&gt;Node6 -->
<g id="edge6" class="edge"><title>Node0&#45;&gt;Node6</title>
<path fill="none" stroke="midnightblue" d="M255.811,-168.214C259.206,-147.438 269.662,-94.1663 292.5,-56 299.201,-44.8015 309.227,-34.2571 318.016,-26.1942"/>
<polygon fill="midnightblue" stroke="midnightblue" points="320.396,-28.7625 325.61,-19.5394 315.783,-23.498 320.396,-28.7625"/>
</g>
<!-- Node7 -->
<g id="node8" class="node"><title>Node7</title>
<g id="a_node8"><a xlink:href="_f_s_m_8h.html" target="_top" xlink:title="The FSM is the finish state machine mechanism. ">
<polygon fill="none" stroke="black" points="441.5,-112.5 441.5,-131.5 509.5,-131.5 509.5,-112.5 441.5,-112.5"/>
<text text-anchor="middle" x="475.5" y="-119.5" font-family="Helvetica,sans-Serif" font-size="10.00">../lib/FSM.h</text>
</a>
</g>
</g>
<!-- Node0&#45;&gt;Node7 -->
<g id="edge7" class="edge"><title>Node0&#45;&gt;Node7</title>
<path fill="none" stroke="midnightblue" d="M286.635,-169.148C324.761,-159.832 388.528,-144.251 431.288,-133.803"/>
<polygon fill="midnightblue" stroke="midnightblue" points="432.26,-137.169 441.143,-131.395 430.598,-130.369 432.26,-137.169"/>
</g>
<!-- Node8 -->
<g id="node9" class="node"><title>Node8</title>
<g id="a_node9"><a xlink:href="_config_8h.html" target="_top" xlink:title="This file declare the Config class. ">
<polygon fill="none" stroke="black" points="302,-56.5 302,-75.5 377,-75.5 377,-56.5 302,-56.5"/>
<text text-anchor="middle" x="339.5" y="-63.5" font-family="Helvetica,sans-Serif" font-size="10.00">../lib/Config.h</text>
</a>
</g>
</g>
<!-- Node0&#45;&gt;Node8 -->
<g id="edge20" class="edge"><title>Node0&#45;&gt;Node8</title>
<path fill="none" stroke="midnightblue" d="M261.17,-168.368C275.259,-150.135 308.262,-107.426 326.615,-83.6752"/>
<polygon fill="midnightblue" stroke="midnightblue" points="329.516,-85.6444 332.861,-75.5914 323.977,-81.3642 329.516,-85.6444"/>
</g>
<!-- Node7&#45;&gt;Node5 -->
<g id="edge8" class="edge"><title>Node7&#45;&gt;Node5</title>
<path fill="none" stroke="midnightblue" d="M509.774,-114.576C553.681,-106.317 632.393,-91.4076 709.133,-76.2534"/>
<polygon fill="midnightblue" stroke="midnightblue" points="709.836,-79.6824 718.966,-74.3082 708.477,-72.8155 709.836,-79.6824"/>
</g>
<!-- Node7&#45;&gt;Node8 -->
<g id="edge9" class="edge"><title>Node7&#45;&gt;Node8</title>
<path fill="none" stroke="midnightblue" d="M453.95,-112.444C431.469,-103.517 396.012,-89.4387 370.52,-79.3168"/>
<polygon fill="midnightblue" stroke="midnightblue" points="371.535,-75.9539 360.949,-75.5164 368.951,-82.4598 371.535,-75.9539"/>
</g>
<!-- Node9 -->
<g id="node10" class="node"><title>Node9</title>
<g id="a_node10"><a xlink:href="_state_8h.html" target="_top" xlink:title="Brief description of file. ">
<polygon fill="none" stroke="black" points="440.5,-0.5 440.5,-19.5 510.5,-19.5 510.5,-0.5 440.5,-0.5"/>
<text text-anchor="middle" x="475.5" y="-7.5" font-family="Helvetica,sans-Serif" font-size="10.00">../lib/State.h</text>
</a>
</g>
</g>
<!-- Node7&#45;&gt;Node9 -->
<g id="edge19" class="edge"><title>Node7&#45;&gt;Node9</title>
<path fill="none" stroke="midnightblue" d="M459.766,-112.236C447.611,-104.481 431.688,-91.9292 424.5,-76 415.708,-56.5165 434.434,-37.6903 451.62,-25.3583"/>
<polygon fill="midnightblue" stroke="midnightblue" points="453.954,-28.0072 460.313,-19.5324 450.057,-22.1923 453.954,-28.0072"/>
</g>
<!-- Node10 -->
<g id="node11" class="node"><title>Node10</title>
<g id="a_node11"><a xlink:href="_measure_8h.html" target="_top" xlink:title="../lib/Measure.h">
<polygon fill="none" stroke="black" points="433.5,-56.5 433.5,-75.5 517.5,-75.5 517.5,-56.5 433.5,-56.5"/>
<text text-anchor="middle" x="475.5" y="-63.5" font-family="Helvetica,sans-Serif" font-size="10.00">../lib/Measure.h</text>
</a>
</g>
</g>
<!-- Node7&#45;&gt;Node10 -->
<g id="edge13" class="edge"><title>Node7&#45;&gt;Node10</title>
<path fill="none" stroke="midnightblue" d="M475.5,-112.083C475.5,-105.006 475.5,-94.8611 475.5,-85.9865"/>
<polygon fill="midnightblue" stroke="midnightblue" points="479,-85.751 475.5,-75.7511 472,-85.7511 479,-85.751"/>
</g>
<!-- Node11 -->
<g id="node12" class="node"><title>Node11</title>
<g id="a_node12"><a xlink:href="_output_8h.html" target="_top" xlink:title="../lib/Output.h">
<polygon fill="none" stroke="black" points="535.5,-56.5 535.5,-75.5 611.5,-75.5 611.5,-56.5 535.5,-56.5"/>
<text text-anchor="middle" x="573.5" y="-63.5" font-family="Helvetica,sans-Serif" font-size="10.00">../lib/Output.h</text>
</a>
</g>
</g>
<!-- Node7&#45;&gt;Node11 -->
<g id="edge15" class="edge"><title>Node7&#45;&gt;Node11</title>
<path fill="none" stroke="midnightblue" d="M491.245,-112.324C506.819,-103.743 530.877,-90.486 548.959,-80.5224"/>
<polygon fill="midnightblue" stroke="midnightblue" points="550.724,-83.546 557.794,-75.6545 547.346,-77.4152 550.724,-83.546"/>
</g>
<!-- Node12 -->
<g id="node13" class="node"><title>Node12</title>
<g id="a_node13"><a xlink:href="_sleep_8h.html" target="_top" xlink:title="../lib/Sleep.h">
<polygon fill="none" stroke="black" points="630,-56.5 630,-75.5 701,-75.5 701,-56.5 630,-56.5"/>
<text text-anchor="middle" x="665.5" y="-63.5" font-family="Helvetica,sans-Serif" font-size="10.00">../lib/Sleep.h</text>
</a>
</g>
</g>
<!-- Node7&#45;&gt;Node12 -->
<g id="edge17" class="edge"><title>Node7&#45;&gt;Node12</title>
<path fill="none" stroke="midnightblue" d="M505.606,-112.444C538.126,-103.201 590.079,-88.4356 625.891,-78.2572"/>
<polygon fill="midnightblue" stroke="midnightblue" points="626.873,-81.617 635.535,-75.5164 624.959,-74.8837 626.873,-81.617"/>
</g>
<!-- Node8&#45;&gt;Node4 -->
<g id="edge10" class="edge"><title>Node8&#45;&gt;Node4</title>
<path fill="none" stroke="midnightblue" d="M323.112,-56.324C306.829,-47.7034 281.633,-34.3643 262.784,-24.3855"/>
<polygon fill="midnightblue" stroke="midnightblue" points="264.323,-21.2402 253.847,-19.6545 261.048,-27.4267 264.323,-21.2402"/>
</g>
<!-- Node8&#45;&gt;Node6 -->
<g id="edge11" class="edge"><title>Node8&#45;&gt;Node6</title>
<path fill="none" stroke="midnightblue" d="M339.005,-56.083C338.611,-49.0059 338.048,-38.8611 337.555,-29.9865"/>
<polygon fill="midnightblue" stroke="midnightblue" points="341.036,-29.5415 336.986,-19.7511 334.046,-29.9299 341.036,-29.5415"/>
</g>
<!-- Node8&#45;&gt;Node9 -->
<g id="edge12" class="edge"><title>Node8&#45;&gt;Node9</title>
<path fill="none" stroke="midnightblue" d="M361.05,-56.4435C383.531,-47.5171 418.988,-33.4387 444.48,-23.3168"/>
<polygon fill="midnightblue" stroke="midnightblue" points="446.049,-26.4598 454.051,-19.5164 443.465,-19.9539 446.049,-26.4598"/>
</g>
<!-- Node10&#45;&gt;Node9 -->
<g id="edge14" class="edge"><title>Node10&#45;&gt;Node9</title>
<path fill="none" stroke="midnightblue" d="M475.5,-56.083C475.5,-49.0059 475.5,-38.8611 475.5,-29.9865"/>
<polygon fill="midnightblue" stroke="midnightblue" points="479,-29.751 475.5,-19.7511 472,-29.7511 479,-29.751"/>
</g>
<!-- Node11&#45;&gt;Node9 -->
<g id="edge16" class="edge"><title>Node11&#45;&gt;Node9</title>
<path fill="none" stroke="midnightblue" d="M557.755,-56.324C542.181,-47.7428 518.123,-34.486 500.041,-24.5224"/>
<polygon fill="midnightblue" stroke="midnightblue" points="501.654,-21.4152 491.206,-19.6545 498.276,-27.546 501.654,-21.4152"/>
</g>
<!-- Node12&#45;&gt;Node9 -->
<g id="edge18" class="edge"><title>Node12&#45;&gt;Node9</title>
<path fill="none" stroke="midnightblue" d="M635.394,-56.4435C602.874,-47.2011 550.921,-32.4356 515.109,-22.2572"/>
<polygon fill="midnightblue" stroke="midnightblue" points="516.041,-18.8837 505.465,-19.5164 514.127,-25.617 516.041,-18.8837"/>
</g>
</g>
</svg>
