<?xml version="1.0" encoding="UTF-8" standalone="no"?>
<!DOCTYPE svg PUBLIC "-//W3C//DTD SVG 1.1//EN"
 "http://www.w3.org/Graphics/SVG/1.1/DTD/svg11.dtd">
<!-- Generated by graphviz version 2.38.0 (20140413.2041)
 -->
<!-- Title: DateTime.h Pages: 1 -->
<!--zoomable 196 -->
<svg id="main" version="1.1" xmlns="http://www.w3.org/2000/svg" xmlns:xlink="http://www.w3.org/1999/xlink" xml:space="preserve" onload="init(evt)">
<style type="text/css"><![CDATA[
.edge:hover path { stroke: red; }
.edge:hover polygon { stroke: red; fill: red; }
]]></style>
<script type="text/javascript"><![CDATA[
var edges = document.getElementsByTagName('g');
if (edges && edges.length) {
  for (var i=0;i<edges.length;i++) {
    if (edges[i].id.substr(0,4)=='edge') {
      edges[i].setAttribute('class','edge');
    }
  }
}
]]></script>
        <defs>
                <circle id="rim" cx="0" cy="0" r="7"/>
                <circle id="rim2" cx="0" cy="0" r="3.5"/>
                <g id="zoomPlus">
                        <use xlink:href="#rim" fill="#404040">
                                <set attributeName="fill" to="#808080" begin="zoomplus.mouseover" end="zoomplus.mouseout"/>
                        </use>
                        <path d="M-4,0h8M0,-4v8" fill="none" stroke="white" stroke-width="1.5" pointer-events="none"/>
                </g>
                <g id="zoomMin">
                        <use xlink:href="#rim" fill="#404040">
                                <set attributeName="fill" to="#808080" begin="zoomminus.mouseover" end="zoomminus.mouseout"/>
                        </use>
                        <path d="M-4,0h8" fill="none" stroke="white" stroke-width="1.5" pointer-events="none"/>
                </g>
                <g id="dirArrow">
                        <path fill="none" stroke="white" stroke-width="1.5" d="M0,-3.0v7 M-2.5,-0.5L0,-3.0L2.5,-0.5"/>
                </g>
               <g id="resetDef">
                       <use xlink:href="#rim2" fill="#404040">
                               <set attributeName="fill" to="#808080" begin="reset.mouseover" end="reset.mouseout"/>
                       </use>
               </g>
        </defs>

<script type="text/javascript">
var viewWidth = 1097;
var viewHeight = 196;
var sectionId = 'dynsection-0';
</script>
<script xlink:href="svgpan.js"/>
<svg id="graph" class="graph">
<g id="viewport">
<title>DateTime.h</title>
<!-- Node1 -->
<g id="node1" class="node"><title>Node1</title>
<polygon fill="#bfbfbf" stroke="black" points="948.5,-168.5 948.5,-187.5 1016.5,-187.5 1016.5,-168.5 948.5,-168.5"/>
<text text-anchor="middle" x="982.5" y="-175.5" font-family="Helvetica,sans-Serif" font-size="10.00">DateTime.h</text>
</g>
<!-- Node2 -->
<g id="node2" class="node"><title>Node2</title>
<g id="a_node2"><a xlink:href="st___config_8h.html" target="_top" xlink:title="st_Config.h">
<polygon fill="none" stroke="black" points="887,-112.5 887,-131.5 954,-131.5 954,-112.5 887,-112.5"/>
<text text-anchor="middle" x="920.5" y="-119.5" font-family="Helvetica,sans-Serif" font-size="10.00">st_Config.h</text>
</a>
</g>
</g>
<!-- Node1&#45;&gt;Node2 -->
<g id="edge1" class="edge"><title>Node1&#45;&gt;Node2</title>
<path fill="none" stroke="midnightblue" d="M964.746,-161.537C953.692,-151.909 939.869,-139.869 930.643,-131.834"/>
<polygon fill="midnightblue" stroke="midnightblue" points="962.699,-164.395 972.539,-168.324 967.297,-159.117 962.699,-164.395"/>
</g>
<!-- Node10 -->
<g id="node10" class="node"><title>Node10</title>
<g id="a_node10"><a xlink:href="st___config_8cpp.html" target="_top" xlink:title="st_Config.cpp">
<polygon fill="none" stroke="black" points="944,-0.5 944,-19.5 1021,-19.5 1021,-0.5 944,-0.5"/>
<text text-anchor="middle" x="982.5" y="-7.5" font-family="Helvetica,sans-Serif" font-size="10.00">st_Config.cpp</text>
</a>
</g>
</g>
<!-- Node1&#45;&gt;Node10 -->
<g id="edge17" class="edge"><title>Node1&#45;&gt;Node10</title>
<path fill="none" stroke="midnightblue" d="M982.5,-157.93C982.5,-121.92 982.5,-45.2312 982.5,-19.5681"/>
<polygon fill="midnightblue" stroke="midnightblue" points="979,-158.075 982.5,-168.075 986,-158.075 979,-158.075"/>
</g>
<!-- Node16 -->
<g id="node16" class="node"><title>Node16</title>
<g id="a_node16"><a xlink:href="_date_time_8cpp.html" target="_top" xlink:title="DateTime.cpp">
<polygon fill="none" stroke="black" points="1010.5,-112.5 1010.5,-131.5 1088.5,-131.5 1088.5,-112.5 1010.5,-112.5"/>
<text text-anchor="middle" x="1049.5" y="-119.5" font-family="Helvetica,sans-Serif" font-size="10.00">DateTime.cpp</text>
</a>
</g>
</g>
<!-- Node1&#45;&gt;Node16 -->
<g id="edge16" class="edge"><title>Node1&#45;&gt;Node16</title>
<path fill="none" stroke="midnightblue" d="M1001.33,-161.82C1013.34,-152.145 1028.47,-139.948 1038.54,-131.834"/>
<polygon fill="midnightblue" stroke="midnightblue" points="998.854,-159.324 993.265,-168.324 1003.25,-164.774 998.854,-159.324"/>
</g>
<!-- Node3 -->
<g id="node3" class="node"><title>Node3</title>
<g id="a_node3"><a xlink:href="_f_s_m_8h.html" target="_top" xlink:title="The FSM is the finish state machine mechanism. ">
<polygon fill="none" stroke="black" points="517.5,-56.5 517.5,-75.5 563.5,-75.5 563.5,-56.5 517.5,-56.5"/>
<text text-anchor="middle" x="540.5" y="-63.5" font-family="Helvetica,sans-Serif" font-size="10.00">FSM.h</text>
</a>
</g>
</g>
<!-- Node2&#45;&gt;Node3 -->
<g id="edge2" class="edge"><title>Node2&#45;&gt;Node3</title>
<path fill="none" stroke="midnightblue" d="M876.416,-114.735C795.364,-103.218 625.324,-79.054 563.552,-70.2758"/>
<polygon fill="midnightblue" stroke="midnightblue" points="876.385,-118.266 886.778,-116.208 877.369,-111.336 876.385,-118.266"/>
</g>
<!-- Node2&#45;&gt;Node10 -->
<g id="edge15" class="edge"><title>Node2&#45;&gt;Node10</title>
<path fill="none" stroke="midnightblue" d="M930.285,-103.64C943.754,-79.7436 967.491,-37.6286 977.658,-19.5914"/>
<polygon fill="midnightblue" stroke="midnightblue" points="927.226,-101.938 925.365,-112.368 933.324,-105.376 927.226,-101.938"/>
</g>
<!-- Node4 -->
<g id="node4" class="node"><title>Node4</title>
<g id="a_node4"><a xlink:href="_anemometer_8cpp.html" target="_top" xlink:title="Brief description of file. ">
<polygon fill="none" stroke="black" points="0,-0.5 0,-19.5 91,-19.5 91,-0.5 0,-0.5"/>
<text text-anchor="middle" x="45.5" y="-7.5" font-family="Helvetica,sans-Serif" font-size="10.00">Anemometer.cpp</text>
</a>
</g>
</g>
<!-- Node3&#45;&gt;Node4 -->
<g id="edge3" class="edge"><title>Node3&#45;&gt;Node4</title>
<path fill="none" stroke="midnightblue" d="M506.999,-62.2679C433.33,-56.1079 251.768,-40.0932 100.5,-20 97.4308,-19.5923 94.2695,-19.1459 91.0871,-18.6769"/>
<polygon fill="midnightblue" stroke="midnightblue" points="506.813,-65.7644 517.069,-63.1045 507.393,-58.7884 506.813,-65.7644"/>
</g>
<!-- Node5 -->
<g id="node5" class="node"><title>Node5</title>
<g id="a_node5"><a xlink:href="_f_s_m_8cpp.html" target="_top" xlink:title="Brief description of file. ">
<polygon fill="none" stroke="black" points="109.5,-0.5 109.5,-19.5 165.5,-19.5 165.5,-0.5 109.5,-0.5"/>
<text text-anchor="middle" x="137.5" y="-7.5" font-family="Helvetica,sans-Serif" font-size="10.00">FSM.cpp</text>
</a>
</g>
</g>
<!-- Node3&#45;&gt;Node5 -->
<g id="edge4" class="edge"><title>Node3&#45;&gt;Node5</title>
<path fill="none" stroke="midnightblue" d="M507.24,-62.2164C442.719,-56.5286 296.205,-42.206 174.5,-20 171.638,-19.4779 168.668,-18.8694 165.709,-18.2196"/>
<polygon fill="midnightblue" stroke="midnightblue" points="506.969,-65.7059 517.235,-63.0859 507.576,-58.7323 506.969,-65.7059"/>
</g>
<!-- Node6 -->
<g id="node6" class="node"><title>Node6</title>
<g id="a_node6"><a xlink:href="main_8cpp.html" target="_top" xlink:title="This is the main file, is the firmware&#39;s body. ">
<polygon fill="none" stroke="black" points="183.5,-0.5 183.5,-19.5 239.5,-19.5 239.5,-0.5 183.5,-0.5"/>
<text text-anchor="middle" x="211.5" y="-7.5" font-family="Helvetica,sans-Serif" font-size="10.00">main.cpp</text>
</a>
</g>
</g>
<!-- Node3&#45;&gt;Node6 -->
<g id="edge5" class="edge"><title>Node3&#45;&gt;Node6</title>
<path fill="none" stroke="midnightblue" d="M507.194,-60.8129C452.809,-53.7644 341.658,-38.473 248.5,-20 245.647,-19.4342 242.681,-18.797 239.726,-18.1297"/>
<polygon fill="midnightblue" stroke="midnightblue" points="506.927,-64.3073 517.292,-62.1112 507.82,-57.3645 506.927,-64.3073"/>
</g>
<!-- Node7 -->
<g id="node7" class="node"><title>Node7</title>
<g id="a_node7"><a xlink:href="_power_8cpp.html" target="_top" xlink:title="Power.cpp">
<polygon fill="none" stroke="black" points="258,-0.5 258,-19.5 321,-19.5 321,-0.5 258,-0.5"/>
<text text-anchor="middle" x="289.5" y="-7.5" font-family="Helvetica,sans-Serif" font-size="10.00">Power.cpp</text>
</a>
</g>
</g>
<!-- Node3&#45;&gt;Node7 -->
<g id="edge6" class="edge"><title>Node3&#45;&gt;Node7</title>
<path fill="none" stroke="midnightblue" d="M507.701,-58.0246C466.368,-49.222 393.149,-33.5884 330.5,-20 327.509,-19.3512 324.395,-18.6731 321.281,-17.9926"/>
<polygon fill="midnightblue" stroke="midnightblue" points="506.987,-61.451 517.497,-60.11 508.445,-54.6044 506.987,-61.451"/>
</g>
<!-- Node8 -->
<g id="node8" class="node"><title>Node8</title>
<g id="a_node8"><a xlink:href="_r_t_c_8cpp.html" target="_top" xlink:title="Brief description of file. ">
<polygon fill="none" stroke="black" points="339.5,-0.5 339.5,-19.5 395.5,-19.5 395.5,-0.5 339.5,-0.5"/>
<text text-anchor="middle" x="367.5" y="-7.5" font-family="Helvetica,sans-Serif" font-size="10.00">RTC.cpp</text>
</a>
</g>
</g>
<!-- Node3&#45;&gt;Node8 -->
<g id="edge7" class="edge"><title>Node3&#45;&gt;Node8</title>
<path fill="none" stroke="midnightblue" d="M507.205,-54.6073C474.594,-44.4282 425.488,-29.1001 395.02,-19.59"/>
<polygon fill="midnightblue" stroke="midnightblue" points="506.58,-58.0787 517.168,-57.7173 508.666,-51.3966 506.58,-58.0787"/>
</g>
<!-- Node9 -->
<g id="node9" class="node"><title>Node9</title>
<g id="a_node9"><a xlink:href="_sensor_8cpp.html" target="_top" xlink:title="Brief description of file. ">
<polygon fill="none" stroke="black" points="413.5,-0.5 413.5,-19.5 479.5,-19.5 479.5,-0.5 413.5,-0.5"/>
<text text-anchor="middle" x="446.5" y="-7.5" font-family="Helvetica,sans-Serif" font-size="10.00">Sensor.cpp</text>
</a>
</g>
</g>
<!-- Node3&#45;&gt;Node9 -->
<g id="edge8" class="edge"><title>Node3&#45;&gt;Node9</title>
<path fill="none" stroke="midnightblue" d="M516.438,-51.1774C499.141,-41.2407 476.352,-28.1492 461.565,-19.6545"/>
<polygon fill="midnightblue" stroke="midnightblue" points="514.983,-54.3775 525.397,-56.324 518.47,-48.3078 514.983,-54.3775"/>
</g>
<!-- Node3&#45;&gt;Node10 -->
<g id="edge9" class="edge"><title>Node3&#45;&gt;Node10</title>
<path fill="none" stroke="midnightblue" d="M573.774,-62.0116C641.749,-55.7277 801.379,-40.0559 934.5,-20 937.518,-19.5453 940.637,-19.0405 943.768,-18.5087"/>
<polygon fill="midnightblue" stroke="midnightblue" points="573.307,-58.5396 563.669,-62.9387 573.947,-65.5103 573.307,-58.5396"/>
</g>
<!-- Node11 -->
<g id="node11" class="node"><title>Node11</title>
<g id="a_node11"><a xlink:href="st___measure_8cpp.html" target="_top" xlink:title="st_Measure.cpp">
<polygon fill="none" stroke="black" points="497.5,-0.5 497.5,-19.5 583.5,-19.5 583.5,-0.5 497.5,-0.5"/>
<text text-anchor="middle" x="540.5" y="-7.5" font-family="Helvetica,sans-Serif" font-size="10.00">st_Measure.cpp</text>
</a>
</g>
</g>
<!-- Node3&#45;&gt;Node11 -->
<g id="edge10" class="edge"><title>Node3&#45;&gt;Node11</title>
<path fill="none" stroke="midnightblue" d="M540.5,-45.8045C540.5,-36.9102 540.5,-26.7798 540.5,-19.7511"/>
<polygon fill="midnightblue" stroke="midnightblue" points="537,-46.083 540.5,-56.083 544,-46.083 537,-46.083"/>
</g>
<!-- Node12 -->
<g id="node12" class="node"><title>Node12</title>
<g id="a_node12"><a xlink:href="st___output_8cpp.html" target="_top" xlink:title="st_Output.cpp">
<polygon fill="none" stroke="black" points="601.5,-0.5 601.5,-19.5 679.5,-19.5 679.5,-0.5 601.5,-0.5"/>
<text text-anchor="middle" x="640.5" y="-7.5" font-family="Helvetica,sans-Serif" font-size="10.00">st_Output.cpp</text>
</a>
</g>
</g>
<!-- Node3&#45;&gt;Node12 -->
<g id="edge11" class="edge"><title>Node3&#45;&gt;Node12</title>
<path fill="none" stroke="midnightblue" d="M565.588,-51.4526C584.049,-41.4835 608.597,-28.2279 624.473,-19.6545"/>
<polygon fill="midnightblue" stroke="midnightblue" points="563.703,-48.4928 556.567,-56.324 567.029,-54.6521 563.703,-48.4928"/>
</g>
<!-- Node13 -->
<g id="node13" class="node"><title>Node13</title>
<g id="a_node13"><a xlink:href="st___sleep_8cpp.html" target="_top" xlink:title="st_Sleep.cpp">
<polygon fill="none" stroke="black" points="697.5,-0.5 697.5,-19.5 771.5,-19.5 771.5,-0.5 697.5,-0.5"/>
<text text-anchor="middle" x="734.5" y="-7.5" font-family="Helvetica,sans-Serif" font-size="10.00">st_Sleep.cpp</text>
</a>
</g>
</g>
<!-- Node3&#45;&gt;Node13 -->
<g id="edge12" class="edge"><title>Node3&#45;&gt;Node13</title>
<path fill="none" stroke="midnightblue" d="M573.182,-55.903C609.661,-45.7491 668.232,-29.4457 703.86,-19.5285"/>
<polygon fill="midnightblue" stroke="midnightblue" points="572.211,-52.54 563.516,-58.5934 574.089,-59.2836 572.211,-52.54"/>
</g>
<!-- Node14 -->
<g id="node14" class="node"><title>Node14</title>
<g id="a_node14"><a xlink:href="_state_8cpp.html" target="_top" xlink:title="Brief description of file. ">
<polygon fill="none" stroke="black" points="790,-0.5 790,-19.5 849,-19.5 849,-0.5 790,-0.5"/>
<text text-anchor="middle" x="819.5" y="-7.5" font-family="Helvetica,sans-Serif" font-size="10.00">State.cpp</text>
</a>
</g>
</g>
<!-- Node3&#45;&gt;Node14 -->
<g id="edge13" class="edge"><title>Node3&#45;&gt;Node14</title>
<path fill="none" stroke="midnightblue" d="M573.821,-59.2025C620.246,-51.0228 706.971,-35.3707 780.5,-20 783.493,-19.3744 786.609,-18.698 789.718,-18.0067"/>
<polygon fill="midnightblue" stroke="midnightblue" points="572.975,-55.7974 563.731,-60.9743 574.186,-62.6919 572.975,-55.7974"/>
</g>
<!-- Node15 -->
<g id="node15" class="node"><title>Node15</title>
<g id="a_node15"><a xlink:href="_usart_8cpp.html" target="_top" xlink:title="This is the uart library for the atmega1284p. ">
<polygon fill="none" stroke="black" points="867,-0.5 867,-19.5 926,-19.5 926,-0.5 867,-0.5"/>
<text text-anchor="middle" x="896.5" y="-7.5" font-family="Helvetica,sans-Serif" font-size="10.00">Usart.cpp</text>
</a>
</g>
</g>
<!-- Node3&#45;&gt;Node15 -->
<g id="edge14" class="edge"><title>Node3&#45;&gt;Node15</title>
<path fill="none" stroke="midnightblue" d="M573.71,-61.2371C631.592,-54.4671 754.606,-39.1391 857.5,-20 860.506,-19.4409 863.631,-18.8081 866.745,-18.1435"/>
<polygon fill="midnightblue" stroke="midnightblue" points="573.21,-57.7716 563.68,-62.4006 574.017,-64.7249 573.21,-57.7716"/>
</g>
</g>
</svg>
        <g id="navigator" transform="translate(0 0)" fill="#404254">
                <rect fill="#f2f5e9" fill-opacity="0.5" stroke="#606060" stroke-width=".5" x="0" y="0" width="60" height="60"/>
                <use id="zoomplus" xlink:href="#zoomPlus" x="17" y="9" onmousedown="handleZoom(evt,'in')"/>
                <use id="zoomminus" xlink:href="#zoomMin" x="42" y="9" onmousedown="handleZoom(evt,'out')"/>
                <use id="reset" xlink:href="#resetDef" x="30" y="36" onmousedown="handleReset()"/>
                <g id="arrowUp" xlink:href="#dirArrow" transform="translate(30 24)" onmousedown="handlePan(0,-1)">
                  <use xlink:href="#rim" fill="#404040">
                        <set attributeName="fill" to="#808080" begin="arrowUp.mouseover" end="arrowUp.mouseout"/>
                  </use>
                  <path fill="none" stroke="white" stroke-width="1.5" d="M0,-3.0v7 M-2.5,-0.5L0,-3.0L2.5,-0.5"/>
                </g>
                <g id="arrowRight" xlink:href="#dirArrow" transform="rotate(90) translate(36 -43)" onmousedown="handlePan(1,0)">
                  <use xlink:href="#rim" fill="#404040">
                        <set attributeName="fill" to="#808080" begin="arrowRight.mouseover" end="arrowRight.mouseout"/>
                  </use>
                  <path fill="none" stroke="white" stroke-width="1.5" d="M0,-3.0v7 M-2.5,-0.5L0,-3.0L2.5,-0.5"/>
                </g>
                <g id="arrowDown" xlink:href="#dirArrow" transform="rotate(180) translate(-30 -48)" onmousedown="handlePan(0,1)">
                  <use xlink:href="#rim" fill="#404040">
                        <set attributeName="fill" to="#808080" begin="arrowDown.mouseover" end="arrowDown.mouseout"/>
                  </use>
                  <path fill="none" stroke="white" stroke-width="1.5" d="M0,-3.0v7 M-2.5,-0.5L0,-3.0L2.5,-0.5"/>
                </g>
                <g id="arrowLeft" xlink:href="#dirArrow" transform="rotate(270) translate(-36 17)" onmousedown="handlePan(-1,0)">
                  <use xlink:href="#rim" fill="#404040">
                        <set attributeName="fill" to="#808080" begin="arrowLeft.mouseover" end="arrowLeft.mouseout"/>
                  </use>
                  <path fill="none" stroke="white" stroke-width="1.5" d="M0,-3.0v7 M-2.5,-0.5L0,-3.0L2.5,-0.5"/>
                </g>
        </g>
        <svg viewBox="0 0 15 15" width="100%" height="30px" preserveAspectRatio="xMaxYMin meet">
         <g id="arrow_out" transform="scale(0.3 0.3)">
          <a xlink:href="_date_time_8h__dep__incl_org.svg" target="_base">
           <rect id="button" ry="5" rx="5" y="6" x="6" height="38" width="38"
                fill="#f2f5e9" fill-opacity="0.5" stroke="#606060" stroke-width="1.0"/>
           <path id="arrow"
             d="M 11.500037,31.436501 C 11.940474,20.09759 22.043105,11.32322 32.158766,21.979434 L 37.068811,17.246167 C 37.068811,17.246167 37.088388,32 37.088388,32 L 22.160133,31.978069 C 22.160133,31.978069 26.997745,27.140456 26.997745,27.140456 C 18.528582,18.264221 13.291696,25.230495 11.500037,31.436501 z"
             style="fill:#404040;"/>
          </a>
         </g>
        </svg>
</svg>
