<?xml version="1.0" encoding="UTF-8" standalone="no"?>
<!DOCTYPE svg PUBLIC "-//W3C//DTD SVG 1.1//EN"
 "http://www.w3.org/Graphics/SVG/1.1/DTD/svg11.dtd">
<!-- Generated by graphviz version 2.38.0 (20140413.2041)
 -->
<!-- Title: FSM.h Pages: 1 -->
<svg width="496pt" height="140pt"
 viewBox="0.00 0.00 496.00 140.00" xmlns="http://www.w3.org/2000/svg" xmlns:xlink="http://www.w3.org/1999/xlink">
<g id="graph0" class="graph" transform="scale(1 1) rotate(0) translate(4 136)">
<title>FSM.h</title>
<!-- Node0 -->
<g id="node1" class="node"><title>Node0</title>
<polygon fill="#bfbfbf" stroke="black" points="204.5,-112.5 204.5,-131.5 250.5,-131.5 250.5,-112.5 204.5,-112.5"/>
<text text-anchor="middle" x="227.5" y="-119.5" font-family="Helvetica,sans-Serif" font-size="10.00">FSM.h</text>
</g>
<!-- Node1 -->
<g id="node2" class="node"><title>Node1</title>
<g id="a_node2"><a xlink:href="_usart_8h.html" target="_top" xlink:title="Brief description of file. ">
<polygon fill="none" stroke="black" points="0,-56.5 0,-75.5 71,-75.5 71,-56.5 0,-56.5"/>
<text text-anchor="middle" x="35.5" y="-63.5" font-family="Helvetica,sans-Serif" font-size="10.00">../lib/Usart.h</text>
</a>
</g>
</g>
<!-- Node0&#45;&gt;Node1 -->
<g id="edge1" class="edge"><title>Node0&#45;&gt;Node1</title>
<path fill="none" stroke="midnightblue" d="M204.34,-114.486C172.57,-105.551 114.98,-89.3538 75.9941,-78.389"/>
<polygon fill="midnightblue" stroke="midnightblue" points="76.5941,-74.922 66.0199,-75.5837 74.6988,-81.6605 76.5941,-74.922"/>
</g>
<!-- Node2 -->
<g id="node3" class="node"><title>Node2</title>
<g id="a_node3"><a xlink:href="_config_8h.html" target="_top" xlink:title="This file declare the Config class. ">
<polygon fill="none" stroke="black" points="89,-56.5 89,-75.5 164,-75.5 164,-56.5 89,-56.5"/>
<text text-anchor="middle" x="126.5" y="-63.5" font-family="Helvetica,sans-Serif" font-size="10.00">../lib/Config.h</text>
</a>
</g>
</g>
<!-- Node0&#45;&gt;Node2 -->
<g id="edge2" class="edge"><title>Node0&#45;&gt;Node2</title>
<path fill="none" stroke="midnightblue" d="M211.273,-112.324C195.149,-103.703 170.2,-90.3643 151.536,-80.3855"/>
<polygon fill="midnightblue" stroke="midnightblue" points="153.156,-77.283 142.687,-75.6545 149.856,-83.456 153.156,-77.283"/>
</g>
<!-- Node5 -->
<g id="node6" class="node"><title>Node5</title>
<g id="a_node6"><a xlink:href="_state_8h.html" target="_top" xlink:title="Brief description of file. ">
<polygon fill="none" stroke="black" points="227.5,-0.5 227.5,-19.5 297.5,-19.5 297.5,-0.5 227.5,-0.5"/>
<text text-anchor="middle" x="262.5" y="-7.5" font-family="Helvetica,sans-Serif" font-size="10.00">../lib/State.h</text>
</a>
</g>
</g>
<!-- Node0&#45;&gt;Node5 -->
<g id="edge12" class="edge"><title>Node0&#45;&gt;Node5</title>
<path fill="none" stroke="midnightblue" d="M221.832,-112.257C214.301,-99.4562 202.896,-75.0673 211.5,-56 217.116,-43.5553 228.063,-33.1723 238.379,-25.5273"/>
<polygon fill="midnightblue" stroke="midnightblue" points="240.506,-28.3123 246.766,-19.7643 236.542,-22.5431 240.506,-28.3123"/>
</g>
<!-- Node6 -->
<g id="node7" class="node"><title>Node6</title>
<g id="a_node7"><a xlink:href="_measure_8h.html" target="_top" xlink:title="../lib/Measure.h">
<polygon fill="none" stroke="black" points="220.5,-56.5 220.5,-75.5 304.5,-75.5 304.5,-56.5 220.5,-56.5"/>
<text text-anchor="middle" x="262.5" y="-63.5" font-family="Helvetica,sans-Serif" font-size="10.00">../lib/Measure.h</text>
</a>
</g>
</g>
<!-- Node0&#45;&gt;Node6 -->
<g id="edge6" class="edge"><title>Node0&#45;&gt;Node6</title>
<path fill="none" stroke="midnightblue" d="M233.28,-112.083C238.172,-104.534 245.327,-93.4948 251.333,-84.2298"/>
<polygon fill="midnightblue" stroke="midnightblue" points="254.326,-86.0463 256.828,-75.7511 248.452,-82.239 254.326,-86.0463"/>
</g>
<!-- Node7 -->
<g id="node8" class="node"><title>Node7</title>
<g id="a_node8"><a xlink:href="_output_8h.html" target="_top" xlink:title="../lib/Output.h">
<polygon fill="none" stroke="black" points="322.5,-56.5 322.5,-75.5 398.5,-75.5 398.5,-56.5 322.5,-56.5"/>
<text text-anchor="middle" x="360.5" y="-63.5" font-family="Helvetica,sans-Serif" font-size="10.00">../lib/Output.h</text>
</a>
</g>
</g>
<!-- Node0&#45;&gt;Node7 -->
<g id="edge8" class="edge"><title>Node0&#45;&gt;Node7</title>
<path fill="none" stroke="midnightblue" d="M248.574,-112.444C270.56,-103.517 305.234,-89.4387 330.164,-79.3168"/>
<polygon fill="midnightblue" stroke="midnightblue" points="331.576,-82.5213 339.524,-75.5164 328.942,-76.0355 331.576,-82.5213"/>
</g>
<!-- Node8 -->
<g id="node9" class="node"><title>Node8</title>
<g id="a_node9"><a xlink:href="_sleep_8h.html" target="_top" xlink:title="../lib/Sleep.h">
<polygon fill="none" stroke="black" points="417,-56.5 417,-75.5 488,-75.5 488,-56.5 417,-56.5"/>
<text text-anchor="middle" x="452.5" y="-63.5" font-family="Helvetica,sans-Serif" font-size="10.00">../lib/Sleep.h</text>
</a>
</g>
</g>
<!-- Node0&#45;&gt;Node8 -->
<g id="edge10" class="edge"><title>Node0&#45;&gt;Node8</title>
<path fill="none" stroke="midnightblue" d="M250.731,-115.424C287.448,-106.613 359.568,-89.3036 406.892,-77.9459"/>
<polygon fill="midnightblue" stroke="midnightblue" points="407.978,-81.2848 416.885,-75.5476 406.344,-74.4781 407.978,-81.2848"/>
</g>
<!-- Node3 -->
<g id="node4" class="node"><title>Node3</title>
<g id="a_node4"><a xlink:href="main_8h.html" target="_top" xlink:title="The main.h file regroup global constant declaration. ">
<polygon fill="none" stroke="black" points="14.5,-0.5 14.5,-19.5 82.5,-19.5 82.5,-0.5 14.5,-0.5"/>
<text text-anchor="middle" x="48.5" y="-7.5" font-family="Helvetica,sans-Serif" font-size="10.00">../lib/main.h</text>
</a>
</g>
</g>
<!-- Node2&#45;&gt;Node3 -->
<g id="edge3" class="edge"><title>Node2&#45;&gt;Node3</title>
<path fill="none" stroke="midnightblue" d="M113.968,-56.324C101.914,-47.979 83.4732,-35.2122 69.2313,-25.3524"/>
<polygon fill="midnightblue" stroke="midnightblue" points="71.2151,-22.469 61.0009,-19.6545 67.2306,-28.2243 71.2151,-22.469"/>
</g>
<!-- Node4 -->
<g id="node5" class="node"><title>Node4</title>
<g id="a_node5"><a xlink:href="_date_time_8h.html" target="_top" xlink:title="../lib/DateTime.h">
<polygon fill="none" stroke="black" points="101,-0.5 101,-19.5 190,-19.5 190,-0.5 101,-0.5"/>
<text text-anchor="middle" x="145.5" y="-7.5" font-family="Helvetica,sans-Serif" font-size="10.00">../lib/DateTime.h</text>
</a>
</g>
</g>
<!-- Node2&#45;&gt;Node4 -->
<g id="edge4" class="edge"><title>Node2&#45;&gt;Node4</title>
<path fill="none" stroke="midnightblue" d="M129.637,-56.083C132.183,-48.8486 135.856,-38.4087 139.027,-29.3968"/>
<polygon fill="midnightblue" stroke="midnightblue" points="142.403,-30.3459 142.421,-19.7511 135.8,-28.0225 142.403,-30.3459"/>
</g>
<!-- Node2&#45;&gt;Node5 -->
<g id="edge5" class="edge"><title>Node2&#45;&gt;Node5</title>
<path fill="none" stroke="midnightblue" d="M148.05,-56.4435C170.531,-47.5171 205.988,-33.4387 231.48,-23.3168"/>
<polygon fill="midnightblue" stroke="midnightblue" points="233.049,-26.4598 241.051,-19.5164 230.465,-19.9539 233.049,-26.4598"/>
</g>
<!-- Node6&#45;&gt;Node5 -->
<g id="edge7" class="edge"><title>Node6&#45;&gt;Node5</title>
<path fill="none" stroke="midnightblue" d="M262.5,-56.083C262.5,-49.0059 262.5,-38.8611 262.5,-29.9865"/>
<polygon fill="midnightblue" stroke="midnightblue" points="266,-29.751 262.5,-19.7511 259,-29.7511 266,-29.751"/>
</g>
<!-- Node7&#45;&gt;Node5 -->
<g id="edge9" class="edge"><title>Node7&#45;&gt;Node5</title>
<path fill="none" stroke="midnightblue" d="M344.755,-56.324C329.181,-47.7428 305.123,-34.486 287.041,-24.5224"/>
<polygon fill="midnightblue" stroke="midnightblue" points="288.654,-21.4152 278.206,-19.6545 285.276,-27.546 288.654,-21.4152"/>
</g>
<!-- Node8&#45;&gt;Node5 -->
<g id="edge11" class="edge"><title>Node8&#45;&gt;Node5</title>
<path fill="none" stroke="midnightblue" d="M422.394,-56.4435C389.874,-47.2011 337.921,-32.4356 302.109,-22.2572"/>
<polygon fill="midnightblue" stroke="midnightblue" points="303.041,-18.8837 292.465,-19.5164 301.127,-25.617 303.041,-18.8837"/>
</g>
</g>
</svg>
