<?xml version="1.0" encoding="UTF-8" standalone="no"?>
<!DOCTYPE svg PUBLIC "-//W3C//DTD SVG 1.1//EN"
 "http://www.w3.org/Graphics/SVG/1.1/DTD/svg11.dtd">
<!-- Generated by graphviz version 2.38.0 (20140413.2041)
 -->
<!-- Title: FSM.cpp Pages: 1 -->
<!--zoomable 252 -->
<svg id="main" version="1.1" xmlns="http://www.w3.org/2000/svg" xmlns:xlink="http://www.w3.org/1999/xlink" xml:space="preserve" onload="init(evt)">
<style type="text/css"><![CDATA[
.edge:hover path { stroke: red; }
.edge:hover polygon { stroke: red; fill: red; }
]]></style>
<script type="text/javascript"><![CDATA[
var edges = document.getElementsByTagName('g');
if (edges && edges.length) {
  for (var i=0;i<edges.length;i++) {
    if (edges[i].id.substr(0,4)=='edge') {
      edges[i].setAttribute('class','edge');
    }
  }
}
]]></script>
        <defs>
                <circle id="rim" cx="0" cy="0" r="7"/>
                <circle id="rim2" cx="0" cy="0" r="3.5"/>
                <g id="zoomPlus">
                        <use xlink:href="#rim" fill="#404040">
                                <set attributeName="fill" to="#808080" begin="zoomplus.mouseover" end="zoomplus.mouseout"/>
                        </use>
                        <path d="M-4,0h8M0,-4v8" fill="none" stroke="white" stroke-width="1.5" pointer-events="none"/>
                </g>
                <g id="zoomMin">
                        <use xlink:href="#rim" fill="#404040">
                                <set attributeName="fill" to="#808080" begin="zoomminus.mouseover" end="zoomminus.mouseout"/>
                        </use>
                        <path d="M-4,0h8" fill="none" stroke="white" stroke-width="1.5" pointer-events="none"/>
                </g>
                <g id="dirArrow">
                        <path fill="none" stroke="white" stroke-width="1.5" d="M0,-3.0v7 M-2.5,-0.5L0,-3.0L2.5,-0.5"/>
                </g>
               <g id="resetDef">
                       <use xlink:href="#rim2" fill="#404040">
                               <set attributeName="fill" to="#808080" begin="reset.mouseover" end="reset.mouseout"/>
                       </use>
               </g>
        </defs>

<script type="text/javascript">
var viewWidth = 1311;
var viewHeight = 252;
var sectionId = 'dynsection-0';
</script>
<script xlink:href="svgpan.js"/>
<svg id="graph" class="graph">
<g id="viewport">
<title>FSM.cpp</title>
<!-- Node0 -->
<g id="node1" class="node"><title>Node0</title>
<polygon fill="#bfbfbf" stroke="black" points="229.5,-224.5 229.5,-243.5 285.5,-243.5 285.5,-224.5 229.5,-224.5"/>
<text text-anchor="middle" x="257.5" y="-231.5" font-family="Helvetica,sans-Serif" font-size="10.00">FSM.cpp</text>
</g>
<!-- Node1 -->
<g id="node2" class="node"><title>Node1</title>
<polygon fill="none" stroke="#bfbfbf" points="0,-168.5 0,-187.5 49,-187.5 49,-168.5 0,-168.5"/>
<text text-anchor="middle" x="24.5" y="-175.5" font-family="Helvetica,sans-Serif" font-size="10.00">avr/io.h</text>
</g>
<!-- Node0&#45;&gt;Node1 -->
<g id="edge1" class="edge"><title>Node0&#45;&gt;Node1</title>
<path fill="none" stroke="midnightblue" d="M229.253,-227.063C192.25,-219.195 125.134,-204.613 59.0707,-188.318"/>
<polygon fill="midnightblue" stroke="midnightblue" points="59.8836,-184.913 49.335,-185.902 58.1975,-191.707 59.8836,-184.913"/>
</g>
<!-- Node2 -->
<g id="node3" class="node"><title>Node2</title>
<polygon fill="none" stroke="#bfbfbf" points="67,-168.5 67,-187.5 144,-187.5 144,-168.5 67,-168.5"/>
<text text-anchor="middle" x="105.5" y="-175.5" font-family="Helvetica,sans-Serif" font-size="10.00">avr/interrupt.h</text>
</g>
<!-- Node0&#45;&gt;Node2 -->
<g id="edge2" class="edge"><title>Node0&#45;&gt;Node2</title>
<path fill="none" stroke="midnightblue" d="M233.415,-224.444C207.955,-215.399 167.606,-201.064 139.041,-190.916"/>
<polygon fill="midnightblue" stroke="midnightblue" points="140.067,-187.566 129.472,-187.516 137.723,-194.162 140.067,-187.566"/>
</g>
<!-- Node3 -->
<g id="node4" class="node"><title>Node3</title>
<polygon fill="none" stroke="#bfbfbf" points="162.5,-168.5 162.5,-187.5 210.5,-187.5 210.5,-168.5 162.5,-168.5"/>
<text text-anchor="middle" x="186.5" y="-175.5" font-family="Helvetica,sans-Serif" font-size="10.00">stdlib.h</text>
</g>
<!-- Node0&#45;&gt;Node3 -->
<g id="edge3" class="edge"><title>Node0&#45;&gt;Node3</title>
<path fill="none" stroke="midnightblue" d="M246.093,-224.324C235.391,-216.185 219.159,-203.839 206.337,-194.087"/>
<polygon fill="midnightblue" stroke="midnightblue" points="208.193,-191.102 198.115,-187.834 203.956,-196.673 208.193,-191.102"/>
</g>
<!-- Node4 -->
<g id="node5" class="node"><title>Node4</title>
<g id="a_node5"><a xlink:href="main_8h.html" target="_top" xlink:title="The main.h file regroup global constant declaration. ">
<polygon fill="none" stroke="black" points="460.5,-0.5 460.5,-19.5 528.5,-19.5 528.5,-0.5 460.5,-0.5"/>
<text text-anchor="middle" x="494.5" y="-7.5" font-family="Helvetica,sans-Serif" font-size="10.00">../lib/main.h</text>
</a>
</g>
</g>
<!-- Node0&#45;&gt;Node4 -->
<g id="edge4" class="edge"><title>Node0&#45;&gt;Node4</title>
<path fill="none" stroke="midnightblue" d="M256.079,-224.361C253.008,-202.488 248.218,-144.369 277.5,-112 323.826,-60.7895 401.448,-33.5049 450.214,-20.663"/>
<polygon fill="midnightblue" stroke="midnightblue" points="451.329,-23.991 460.16,-18.1384 449.607,-17.2062 451.329,-23.991"/>
</g>
<!-- Node5 -->
<g id="node6" class="node"><title>Node5</title>
<g id="a_node6"><a xlink:href="_f_s_m_8h.html" target="_top" xlink:title="The FSM is the finish state machine mechanism. ">
<polygon fill="none" stroke="black" points="719.5,-168.5 719.5,-187.5 787.5,-187.5 787.5,-168.5 719.5,-168.5"/>
<text text-anchor="middle" x="753.5" y="-175.5" font-family="Helvetica,sans-Serif" font-size="10.00">../lib/FSM.h</text>
</a>
</g>
</g>
<!-- Node0&#45;&gt;Node5 -->
<g id="edge5" class="edge"><title>Node0&#45;&gt;Node5</title>
<path fill="none" stroke="midnightblue" d="M285.588,-229.942C367.926,-220.978 609.178,-194.712 709.231,-183.82"/>
<polygon fill="midnightblue" stroke="midnightblue" points="709.748,-187.284 719.31,-182.722 708.99,-180.325 709.748,-187.284"/>
</g>
<!-- Node6 -->
<g id="node7" class="node"><title>Node6</title>
<g id="a_node7"><a xlink:href="_usart_8h.html" target="_top" xlink:title="This is the uart library for the atmega1284p. ">
<polygon fill="none" stroke="black" points="305,-112.5 305,-131.5 376,-131.5 376,-112.5 305,-112.5"/>
<text text-anchor="middle" x="340.5" y="-119.5" font-family="Helvetica,sans-Serif" font-size="10.00">../lib/Usart.h</text>
</a>
</g>
</g>
<!-- Node0&#45;&gt;Node6 -->
<g id="edge29" class="edge"><title>Node0&#45;&gt;Node6</title>
<path fill="none" stroke="midnightblue" d="M264.013,-224.368C277.771,-206.135 309.997,-163.426 327.918,-139.675"/>
<polygon fill="midnightblue" stroke="midnightblue" points="330.788,-141.682 334.017,-131.591 325.2,-137.466 330.788,-141.682"/>
</g>
<!-- Node10 -->
<g id="node11" class="node"><title>Node10</title>
<g id="a_node11"><a xlink:href="_sensor_8h.html" target="_top" xlink:title="This class is the base class of sensor. ">
<polygon fill="none" stroke="black" points="405,-56.5 405,-75.5 482,-75.5 482,-56.5 405,-56.5"/>
<text text-anchor="middle" x="443.5" y="-63.5" font-family="Helvetica,sans-Serif" font-size="10.00">../lib/Sensor.h</text>
</a>
</g>
</g>
<!-- Node0&#45;&gt;Node10 -->
<g id="edge27" class="edge"><title>Node0&#45;&gt;Node10</title>
<path fill="none" stroke="midnightblue" d="M257.606,-224.289C258.358,-202.25 263.437,-143.771 295.5,-112 321.751,-85.9878 362.543,-74.9381 394.659,-70.2812"/>
<polygon fill="midnightblue" stroke="midnightblue" points="395.28,-73.7302 404.752,-68.9829 394.387,-66.7874 395.28,-73.7302"/>
</g>
<!-- Node13 -->
<g id="node14" class="node"><title>Node13</title>
<g id="a_node14"><a xlink:href="_state_8h.html" target="_top" xlink:title="Brief description of file. ">
<polygon fill="none" stroke="black" points="1045.5,-56.5 1045.5,-75.5 1115.5,-75.5 1115.5,-56.5 1045.5,-56.5"/>
<text text-anchor="middle" x="1080.5" y="-63.5" font-family="Helvetica,sans-Serif" font-size="10.00">../lib/State.h</text>
</a>
</g>
</g>
<!-- Node0&#45;&gt;Node13 -->
<g id="edge28" class="edge"><title>Node0&#45;&gt;Node13</title>
<path fill="none" stroke="midnightblue" d="M285.736,-232.471C444.705,-229.208 1223.41,-209.33 1292.5,-132 1341.06,-77.6437 1201.82,-68.136 1126.01,-66.87"/>
<polygon fill="midnightblue" stroke="midnightblue" points="1125.8,-63.3673 1115.76,-66.7422 1125.72,-70.3667 1125.8,-63.3673"/>
</g>
<!-- Node5&#45;&gt;Node6 -->
<g id="edge6" class="edge"><title>Node5&#45;&gt;Node6</title>
<path fill="none" stroke="midnightblue" d="M719.386,-173.701C655.92,-167.374 515.213,-152.466 386.362,-132.026"/>
<polygon fill="midnightblue" stroke="midnightblue" points="386.745,-128.543 376.317,-130.418 385.638,-135.455 386.745,-128.543"/>
</g>
<!-- Node7 -->
<g id="node8" class="node"><title>Node7</title>
<g id="a_node8"><a xlink:href="_t_w_i_8h.html" target="_top" xlink:title="Brief description of file. ">
<polygon fill="none" stroke="black" points="768,-112.5 768,-131.5 833,-131.5 833,-112.5 768,-112.5"/>
<text text-anchor="middle" x="800.5" y="-119.5" font-family="Helvetica,sans-Serif" font-size="10.00">../lib/TWI.h</text>
</a>
</g>
</g>
<!-- Node5&#45;&gt;Node7 -->
<g id="edge7" class="edge"><title>Node5&#45;&gt;Node7</title>
<path fill="none" stroke="midnightblue" d="M761.261,-168.083C768.037,-160.298 778.043,-148.801 786.255,-139.367"/>
<polygon fill="midnightblue" stroke="midnightblue" points="788.958,-141.592 792.883,-131.751 783.678,-136.996 788.958,-141.592"/>
</g>
<!-- Node8 -->
<g id="node9" class="node"><title>Node8</title>
<g id="a_node9"><a xlink:href="_r_t_c_8h.html" target="_top" xlink:title="The RTC class regroup methods and parameters to use the Real Time Clock : pcf8563. ">
<polygon fill="none" stroke="black" points="851.5,-112.5 851.5,-131.5 919.5,-131.5 919.5,-112.5 851.5,-112.5"/>
<text text-anchor="middle" x="885.5" y="-119.5" font-family="Helvetica,sans-Serif" font-size="10.00">../lib/RTC.h</text>
</a>
</g>
</g>
<!-- Node5&#45;&gt;Node8 -->
<g id="edge8" class="edge"><title>Node5&#45;&gt;Node8</title>
<path fill="none" stroke="midnightblue" d="M774.416,-168.444C796.236,-159.517 830.65,-145.439 855.392,-135.317"/>
<polygon fill="midnightblue" stroke="midnightblue" points="856.752,-138.542 864.682,-131.516 854.101,-132.063 856.752,-138.542"/>
</g>
<!-- Node9 -->
<g id="node10" class="node"><title>Node9</title>
<g id="a_node10"><a xlink:href="_windvane_8h.html" target="_top" xlink:title="Brief description of file. ">
<polygon fill="none" stroke="black" points="394.5,-112.5 394.5,-131.5 484.5,-131.5 484.5,-112.5 394.5,-112.5"/>
<text text-anchor="middle" x="439.5" y="-119.5" font-family="Helvetica,sans-Serif" font-size="10.00">../lib/Windvane.h</text>
</a>
</g>
</g>
<!-- Node5&#45;&gt;Node9 -->
<g id="edge9" class="edge"><title>Node5&#45;&gt;Node9</title>
<path fill="none" stroke="midnightblue" d="M719.299,-171.118C665.209,-161.816 559.42,-143.623 494.548,-132.467"/>
<polygon fill="midnightblue" stroke="midnightblue" points="494.951,-128.985 484.502,-130.739 493.764,-135.884 494.951,-128.985"/>
</g>
<!-- Node11 -->
<g id="node12" class="node"><title>Node11</title>
<g id="a_node12"><a xlink:href="_anemometer_8h.html" target="_top" xlink:title="Brief description of file. ">
<polygon fill="none" stroke="black" points="502.5,-112.5 502.5,-131.5 604.5,-131.5 604.5,-112.5 502.5,-112.5"/>
<text text-anchor="middle" x="553.5" y="-119.5" font-family="Helvetica,sans-Serif" font-size="10.00">../lib/Anemometer.h</text>
</a>
</g>
</g>
<!-- Node5&#45;&gt;Node11 -->
<g id="edge12" class="edge"><title>Node5&#45;&gt;Node11</title>
<path fill="none" stroke="midnightblue" d="M721.809,-168.444C687.432,-159.162 632.423,-144.309 594.711,-134.127"/>
<polygon fill="midnightblue" stroke="midnightblue" points="595.609,-130.744 585.042,-131.516 593.784,-137.502 595.609,-130.744"/>
</g>
<!-- Node12 -->
<g id="node13" class="node"><title>Node12</title>
<g id="a_node13"><a xlink:href="_power_8h.html" target="_top" xlink:title="../lib/Power.h">
<polygon fill="none" stroke="black" points="508.5,-56.5 508.5,-75.5 582.5,-75.5 582.5,-56.5 508.5,-56.5"/>
<text text-anchor="middle" x="545.5" y="-63.5" font-family="Helvetica,sans-Serif" font-size="10.00">../lib/Power.h</text>
</a>
</g>
</g>
<!-- Node5&#45;&gt;Node12 -->
<g id="edge14" class="edge"><title>Node5&#45;&gt;Node12</title>
<path fill="none" stroke="midnightblue" d="M731.611,-168.345C710.68,-159.836 678.414,-146.107 651.5,-132 621.187,-116.112 587.766,-94.9733 566.712,-81.1811"/>
<polygon fill="midnightblue" stroke="midnightblue" points="568.502,-78.1689 558.228,-75.5816 564.646,-84.0111 568.502,-78.1689"/>
</g>
<!-- Node5&#45;&gt;Node13 -->
<g id="edge16" class="edge"><title>Node5&#45;&gt;Node13</title>
<path fill="none" stroke="midnightblue" d="M787.778,-170.651C823.6,-163.449 881.084,-150.286 928.5,-132 946.307,-125.133 949.154,-119.96 966.5,-112 993.117,-99.786 1024.06,-87.6982 1046.99,-79.1313"/>
<polygon fill="midnightblue" stroke="midnightblue" points="1048.44,-82.3263 1056.61,-75.5703 1046.01,-75.7623 1048.44,-82.3263"/>
</g>
<!-- Node14 -->
<g id="node15" class="node"><title>Node14</title>
<g id="a_node15"><a xlink:href="st___config_8h.html" target="_top" xlink:title="../lib/st_Config.h">
<polygon fill="none" stroke="black" points="661,-112.5 661,-131.5 750,-131.5 750,-112.5 661,-112.5"/>
<text text-anchor="middle" x="705.5" y="-119.5" font-family="Helvetica,sans-Serif" font-size="10.00">../lib/st_Config.h</text>
</a>
</g>
</g>
<!-- Node5&#45;&gt;Node14 -->
<g id="edge17" class="edge"><title>Node5&#45;&gt;Node14</title>
<path fill="none" stroke="midnightblue" d="M745.574,-168.083C738.654,-160.298 728.435,-148.801 720.048,-139.367"/>
<polygon fill="midnightblue" stroke="midnightblue" points="722.538,-136.9 713.279,-131.751 717.306,-141.55 722.538,-136.9"/>
</g>
<!-- Node16 -->
<g id="node17" class="node"><title>Node16</title>
<g id="a_node17"><a xlink:href="st___measure_8h.html" target="_top" xlink:title="../lib/st_Measure.h">
<polygon fill="none" stroke="black" points="975.5,-112.5 975.5,-131.5 1073.5,-131.5 1073.5,-112.5 975.5,-112.5"/>
<text text-anchor="middle" x="1024.5" y="-119.5" font-family="Helvetica,sans-Serif" font-size="10.00">../lib/st_Measure.h</text>
</a>
</g>
</g>
<!-- Node5&#45;&gt;Node16 -->
<g id="edge21" class="edge"><title>Node5&#45;&gt;Node16</title>
<path fill="none" stroke="midnightblue" d="M787.548,-170.216C833.853,-160.989 917.142,-144.392 971.618,-133.537"/>
<polygon fill="midnightblue" stroke="midnightblue" points="972.316,-136.967 981.439,-131.58 970.948,-130.102 972.316,-136.967"/>
</g>
<!-- Node17 -->
<g id="node18" class="node"><title>Node17</title>
<g id="a_node18"><a xlink:href="st___output_8h.html" target="_top" xlink:title="../lib/st_Output.h">
<polygon fill="none" stroke="black" points="1092,-112.5 1092,-131.5 1181,-131.5 1181,-112.5 1092,-112.5"/>
<text text-anchor="middle" x="1136.5" y="-119.5" font-family="Helvetica,sans-Serif" font-size="10.00">../lib/st_Output.h</text>
</a>
</g>
</g>
<!-- Node5&#45;&gt;Node17 -->
<g id="edge23" class="edge"><title>Node5&#45;&gt;Node17</title>
<path fill="none" stroke="midnightblue" d="M787.648,-172.663C845.771,-165.21 967.886,-149.236 1081.79,-132.069"/>
<polygon fill="midnightblue" stroke="midnightblue" points="1082.36,-135.523 1091.73,-130.566 1081.32,-128.601 1082.36,-135.523"/>
</g>
<!-- Node18 -->
<g id="node19" class="node"><title>Node18</title>
<g id="a_node19"><a xlink:href="st___sleep_8h.html" target="_top" xlink:title="../lib/st_Sleep.h">
<polygon fill="none" stroke="black" points="1199,-112.5 1199,-131.5 1284,-131.5 1284,-112.5 1199,-112.5"/>
<text text-anchor="middle" x="1241.5" y="-119.5" font-family="Helvetica,sans-Serif" font-size="10.00">../lib/st_Sleep.h</text>
</a>
</g>
</g>
<!-- Node5&#45;&gt;Node18 -->
<g id="edge25" class="edge"><title>Node5&#45;&gt;Node18</title>
<path fill="none" stroke="midnightblue" d="M787.515,-174.288C859.47,-168.381 1032.59,-153.263 1188.71,-132.014"/>
<polygon fill="midnightblue" stroke="midnightblue" points="1189.54,-135.433 1198.97,-130.605 1188.59,-128.498 1189.54,-135.433"/>
</g>
<!-- Node9&#45;&gt;Node10 -->
<g id="edge10" class="edge"><title>Node9&#45;&gt;Node10</title>
<path fill="none" stroke="midnightblue" d="M440.161,-112.083C440.685,-105.006 441.436,-94.8611 442.094,-85.9865"/>
<polygon fill="midnightblue" stroke="midnightblue" points="445.603,-85.9823 442.852,-75.7511 438.623,-85.4652 445.603,-85.9823"/>
</g>
<!-- Node10&#45;&gt;Node4 -->
<g id="edge11" class="edge"><title>Node10&#45;&gt;Node4</title>
<path fill="none" stroke="midnightblue" d="M451.922,-56.083C459.348,-48.2195 470.352,-36.5688 479.312,-27.0813"/>
<polygon fill="midnightblue" stroke="midnightblue" points="481.913,-29.4244 486.235,-19.7511 476.824,-24.618 481.913,-29.4244"/>
</g>
<!-- Node11&#45;&gt;Node10 -->
<g id="edge13" class="edge"><title>Node11&#45;&gt;Node10</title>
<path fill="none" stroke="midnightblue" d="M535.827,-112.324C518.106,-103.625 490.597,-90.1202 470.212,-80.113"/>
<polygon fill="midnightblue" stroke="midnightblue" points="471.649,-76.9195 461.13,-75.6545 468.564,-83.2031 471.649,-76.9195"/>
</g>
<!-- Node12&#45;&gt;Node4 -->
<g id="edge15" class="edge"><title>Node12&#45;&gt;Node4</title>
<path fill="none" stroke="midnightblue" d="M537.078,-56.083C529.652,-48.2195 518.648,-36.5688 509.688,-27.0813"/>
<polygon fill="midnightblue" stroke="midnightblue" points="512.176,-24.618 502.765,-19.7511 507.087,-29.4244 512.176,-24.618"/>
</g>
<!-- Node14&#45;&gt;Node4 -->
<g id="edge18" class="edge"><title>Node14&#45;&gt;Node4</title>
<path fill="none" stroke="midnightblue" d="M691.316,-112.4C669.961,-99.5709 628.147,-74.9063 591.5,-56 569.059,-44.4229 543.081,-32.4444 523.66,-23.7594"/>
<polygon fill="midnightblue" stroke="midnightblue" points="524.987,-20.5188 514.427,-19.6572 522.145,-26.9159 524.987,-20.5188"/>
</g>
<!-- Node14&#45;&gt;Node13 -->
<g id="edge20" class="edge"><title>Node14&#45;&gt;Node13</title>
<path fill="none" stroke="midnightblue" d="M750.018,-113.343C752.887,-112.88 755.733,-112.428 758.5,-112 856.844,-96.7815 972.45,-81.1819 1034.9,-72.9438"/>
<polygon fill="midnightblue" stroke="midnightblue" points="1035.73,-76.3644 1045.19,-71.5895 1034.82,-69.4243 1035.73,-76.3644"/>
</g>
<!-- Node15 -->
<g id="node16" class="node"><title>Node15</title>
<g id="a_node16"><a xlink:href="_date_time_8h.html" target="_top" xlink:title="This file declare the DateTime class. ">
<polygon fill="none" stroke="black" points="661,-56.5 661,-75.5 750,-75.5 750,-56.5 661,-56.5"/>
<text text-anchor="middle" x="705.5" y="-63.5" font-family="Helvetica,sans-Serif" font-size="10.00">../lib/DateTime.h</text>
</a>
</g>
</g>
<!-- Node14&#45;&gt;Node15 -->
<g id="edge19" class="edge"><title>Node14&#45;&gt;Node15</title>
<path fill="none" stroke="midnightblue" d="M705.5,-112.083C705.5,-105.006 705.5,-94.8611 705.5,-85.9865"/>
<polygon fill="midnightblue" stroke="midnightblue" points="709,-85.751 705.5,-75.7511 702,-85.7511 709,-85.751"/>
</g>
<!-- Node16&#45;&gt;Node13 -->
<g id="edge22" class="edge"><title>Node16&#45;&gt;Node13</title>
<path fill="none" stroke="midnightblue" d="M1033.5,-112.324C1041.69,-104.42 1054.01,-92.5482 1063.97,-82.9377"/>
<polygon fill="midnightblue" stroke="midnightblue" points="1066.57,-85.2947 1071.34,-75.8339 1061.71,-80.2558 1066.57,-85.2947"/>
</g>
<!-- Node17&#45;&gt;Node13 -->
<g id="edge24" class="edge"><title>Node17&#45;&gt;Node13</title>
<path fill="none" stroke="midnightblue" d="M1127.5,-112.324C1119.31,-104.42 1106.99,-92.5482 1097.03,-82.9377"/>
<polygon fill="midnightblue" stroke="midnightblue" points="1099.29,-80.2558 1089.66,-75.8339 1094.43,-85.2947 1099.29,-80.2558"/>
</g>
<!-- Node18&#45;&gt;Node13 -->
<g id="edge26" class="edge"><title>Node18&#45;&gt;Node13</title>
<path fill="none" stroke="midnightblue" d="M1215.99,-112.444C1188.9,-103.359 1145.91,-88.9388 1115.63,-78.7831"/>
<polygon fill="midnightblue" stroke="midnightblue" points="1116.49,-75.3781 1105.89,-75.5164 1114.26,-82.0148 1116.49,-75.3781"/>
</g>
</g>
</svg>
        <g id="navigator" transform="translate(0 0)" fill="#404254">
                <rect fill="#f2f5e9" fill-opacity="0.5" stroke="#606060" stroke-width=".5" x="0" y="0" width="60" height="60"/>
                <use id="zoomplus" xlink:href="#zoomPlus" x="17" y="9" onmousedown="handleZoom(evt,'in')"/>
                <use id="zoomminus" xlink:href="#zoomMin" x="42" y="9" onmousedown="handleZoom(evt,'out')"/>
                <use id="reset" xlink:href="#resetDef" x="30" y="36" onmousedown="handleReset()"/>
                <g id="arrowUp" xlink:href="#dirArrow" transform="translate(30 24)" onmousedown="handlePan(0,-1)">
                  <use xlink:href="#rim" fill="#404040">
                        <set attributeName="fill" to="#808080" begin="arrowUp.mouseover" end="arrowUp.mouseout"/>
                  </use>
                  <path fill="none" stroke="white" stroke-width="1.5" d="M0,-3.0v7 M-2.5,-0.5L0,-3.0L2.5,-0.5"/>
                </g>
                <g id="arrowRight" xlink:href="#dirArrow" transform="rotate(90) translate(36 -43)" onmousedown="handlePan(1,0)">
                  <use xlink:href="#rim" fill="#404040">
                        <set attributeName="fill" to="#808080" begin="arrowRight.mouseover" end="arrowRight.mouseout"/>
                  </use>
                  <path fill="none" stroke="white" stroke-width="1.5" d="M0,-3.0v7 M-2.5,-0.5L0,-3.0L2.5,-0.5"/>
                </g>
                <g id="arrowDown" xlink:href="#dirArrow" transform="rotate(180) translate(-30 -48)" onmousedown="handlePan(0,1)">
                  <use xlink:href="#rim" fill="#404040">
                        <set attributeName="fill" to="#808080" begin="arrowDown.mouseover" end="arrowDown.mouseout"/>
                  </use>
                  <path fill="none" stroke="white" stroke-width="1.5" d="M0,-3.0v7 M-2.5,-0.5L0,-3.0L2.5,-0.5"/>
                </g>
                <g id="arrowLeft" xlink:href="#dirArrow" transform="rotate(270) translate(-36 17)" onmousedown="handlePan(-1,0)">
                  <use xlink:href="#rim" fill="#404040">
                        <set attributeName="fill" to="#808080" begin="arrowLeft.mouseover" end="arrowLeft.mouseout"/>
                  </use>
                  <path fill="none" stroke="white" stroke-width="1.5" d="M0,-3.0v7 M-2.5,-0.5L0,-3.0L2.5,-0.5"/>
                </g>
        </g>
        <svg viewBox="0 0 15 15" width="100%" height="30px" preserveAspectRatio="xMaxYMin meet">
         <g id="arrow_out" transform="scale(0.3 0.3)">
          <a xlink:href="_f_s_m_8cpp__incl_org.svg" target="_base">
           <rect id="button" ry="5" rx="5" y="6" x="6" height="38" width="38"
                fill="#f2f5e9" fill-opacity="0.5" stroke="#606060" stroke-width="1.0"/>
           <path id="arrow"
             d="M 11.500037,31.436501 C 11.940474,20.09759 22.043105,11.32322 32.158766,21.979434 L 37.068811,17.246167 C 37.068811,17.246167 37.088388,32 37.088388,32 L 22.160133,31.978069 C 22.160133,31.978069 26.997745,27.140456 26.997745,27.140456 C 18.528582,18.264221 13.291696,25.230495 11.500037,31.436501 z"
             style="fill:#404040;"/>
          </a>
         </g>
        </svg>
</svg>
