<?xml version="1.0" encoding="UTF-8" standalone="no"?>
<!DOCTYPE svg PUBLIC "-//W3C//DTD SVG 1.1//EN"
 "http://www.w3.org/Graphics/SVG/1.1/DTD/svg11.dtd">
<!-- Generated by graphviz version 2.38.0 (20140413.2041)
 -->
<!-- Title: Measure.cpp Pages: 1 -->
<!--zoomable 196 -->
<svg id="main" version="1.1" xmlns="http://www.w3.org/2000/svg" xmlns:xlink="http://www.w3.org/1999/xlink" xml:space="preserve" onload="init(evt)">
<style type="text/css"><![CDATA[
.edge:hover path { stroke: red; }
.edge:hover polygon { stroke: red; fill: red; }
]]></style>
<script type="text/javascript"><![CDATA[
var edges = document.getElementsByTagName('g');
if (edges && edges.length) {
  for (var i=0;i<edges.length;i++) {
    if (edges[i].id.substr(0,4)=='edge') {
      edges[i].setAttribute('class','edge');
    }
  }
}
]]></script>
        <defs>
                <circle id="rim" cx="0" cy="0" r="7"/>
                <circle id="rim2" cx="0" cy="0" r="3.5"/>
                <g id="zoomPlus">
                        <use xlink:href="#rim" fill="#404040">
                                <set attributeName="fill" to="#808080" begin="zoomplus.mouseover" end="zoomplus.mouseout"/>
                        </use>
                        <path d="M-4,0h8M0,-4v8" fill="none" stroke="white" stroke-width="1.5" pointer-events="none"/>
                </g>
                <g id="zoomMin">
                        <use xlink:href="#rim" fill="#404040">
                                <set attributeName="fill" to="#808080" begin="zoomminus.mouseover" end="zoomminus.mouseout"/>
                        </use>
                        <path d="M-4,0h8" fill="none" stroke="white" stroke-width="1.5" pointer-events="none"/>
                </g>
                <g id="dirArrow">
                        <path fill="none" stroke="white" stroke-width="1.5" d="M0,-3.0v7 M-2.5,-0.5L0,-3.0L2.5,-0.5"/>
                </g>
               <g id="resetDef">
                       <use xlink:href="#rim2" fill="#404040">
                               <set attributeName="fill" to="#808080" begin="reset.mouseover" end="reset.mouseout"/>
                       </use>
               </g>
        </defs>

<script type="text/javascript">
var viewWidth = 603;
var viewHeight = 196;
var sectionId = 'dynsection-0';
</script>
<script xlink:href="svgpan.js"/>
<svg id="graph" class="graph">
<g id="viewport">
<title>Measure.cpp</title>
<!-- Node0 -->
<g id="node1" class="node"><title>Node0</title>
<polygon fill="#bfbfbf" stroke="black" points="151,-168.5 151,-187.5 224,-187.5 224,-168.5 151,-168.5"/>
<text text-anchor="middle" x="187.5" y="-175.5" font-family="Helvetica,sans-Serif" font-size="10.00">Measure.cpp</text>
</g>
<!-- Node1 -->
<g id="node2" class="node"><title>Node1</title>
<polygon fill="none" stroke="#bfbfbf" points="0,-112.5 0,-131.5 49,-131.5 49,-112.5 0,-112.5"/>
<text text-anchor="middle" x="24.5" y="-119.5" font-family="Helvetica,sans-Serif" font-size="10.00">avr/io.h</text>
</g>
<!-- Node0&#45;&gt;Node1 -->
<g id="edge1" class="edge"><title>Node0&#45;&gt;Node1</title>
<path fill="none" stroke="midnightblue" d="M161.672,-168.444C133.928,-159.252 89.6961,-144.599 58.9911,-134.426"/>
<polygon fill="midnightblue" stroke="midnightblue" points="59.7334,-130.985 49.14,-131.163 57.5319,-137.63 59.7334,-130.985"/>
</g>
<!-- Node2 -->
<g id="node3" class="node"><title>Node2</title>
<g id="a_node3"><a xlink:href="main_8h.html" target="_top" xlink:title="The main.h file regroup global constant declaration. ">
<polygon fill="none" stroke="black" points="72.5,-0.5 72.5,-19.5 140.5,-19.5 140.5,-0.5 72.5,-0.5"/>
<text text-anchor="middle" x="106.5" y="-7.5" font-family="Helvetica,sans-Serif" font-size="10.00">../lib/main.h</text>
</a>
</g>
</g>
<!-- Node0&#45;&gt;Node2 -->
<g id="edge2" class="edge"><title>Node0&#45;&gt;Node2</title>
<path fill="none" stroke="midnightblue" d="M175.349,-168.424C154.472,-152.848 112.493,-117.643 96.5,-76 90.6861,-60.8616 94.4016,-42.5132 98.862,-29.1764"/>
<polygon fill="midnightblue" stroke="midnightblue" points="102.177,-30.304 102.431,-19.7122 95.6276,-27.8339 102.177,-30.304"/>
</g>
<!-- Node3 -->
<g id="node4" class="node"><title>Node3</title>
<g id="a_node4"><a xlink:href="_f_s_m_8h.html" target="_top" xlink:title="The FSM is the finish state machine mechanism. ">
<polygon fill="none" stroke="black" points="264.5,-112.5 264.5,-131.5 332.5,-131.5 332.5,-112.5 264.5,-112.5"/>
<text text-anchor="middle" x="298.5" y="-119.5" font-family="Helvetica,sans-Serif" font-size="10.00">../lib/FSM.h</text>
</a>
</g>
</g>
<!-- Node0&#45;&gt;Node3 -->
<g id="edge3" class="edge"><title>Node0&#45;&gt;Node3</title>
<path fill="none" stroke="midnightblue" d="M205.334,-168.324C223.216,-159.625 250.975,-146.12 271.546,-136.113"/>
<polygon fill="midnightblue" stroke="midnightblue" points="273.249,-139.177 280.71,-131.655 270.187,-132.882 273.249,-139.177"/>
</g>
<!-- Node8 -->
<g id="node9" class="node"><title>Node8</title>
<g id="a_node9"><a xlink:href="_measure_8h.html" target="_top" xlink:title="../lib/Measure.h">
<polygon fill="none" stroke="black" points="510.5,-56.5 510.5,-75.5 594.5,-75.5 594.5,-56.5 510.5,-56.5"/>
<text text-anchor="middle" x="552.5" y="-63.5" font-family="Helvetica,sans-Serif" font-size="10.00">../lib/Measure.h</text>
</a>
</g>
</g>
<!-- Node0&#45;&gt;Node8 -->
<g id="edge16" class="edge"><title>Node0&#45;&gt;Node8</title>
<path fill="none" stroke="midnightblue" d="M217.348,-168.417C248.401,-159.456 298.414,-144.931 341.5,-132 402.55,-113.678 473.316,-91.7329 515.417,-78.6022"/>
<polygon fill="midnightblue" stroke="midnightblue" points="516.722,-81.8616 525.225,-75.541 514.636,-75.1795 516.722,-81.8616"/>
</g>
<!-- Node4 -->
<g id="node5" class="node"><title>Node4</title>
<g id="a_node5"><a xlink:href="_usart_8h.html" target="_top" xlink:title="Brief description of file. ">
<polygon fill="none" stroke="black" points="106,-56.5 106,-75.5 177,-75.5 177,-56.5 106,-56.5"/>
<text text-anchor="middle" x="141.5" y="-63.5" font-family="Helvetica,sans-Serif" font-size="10.00">../lib/Usart.h</text>
</a>
</g>
</g>
<!-- Node3&#45;&gt;Node4 -->
<g id="edge4" class="edge"><title>Node3&#45;&gt;Node4</title>
<path fill="none" stroke="midnightblue" d="M273.623,-112.444C247.211,-103.359 205.285,-88.9388 175.758,-78.7831"/>
<polygon fill="midnightblue" stroke="midnightblue" points="176.855,-75.4593 166.261,-75.5164 174.579,-82.0787 176.855,-75.4593"/>
</g>
<!-- Node5 -->
<g id="node6" class="node"><title>Node5</title>
<g id="a_node6"><a xlink:href="_config_8h.html" target="_top" xlink:title="This file declare the Config class. ">
<polygon fill="none" stroke="black" points="195,-56.5 195,-75.5 270,-75.5 270,-56.5 195,-56.5"/>
<text text-anchor="middle" x="232.5" y="-63.5" font-family="Helvetica,sans-Serif" font-size="10.00">../lib/Config.h</text>
</a>
</g>
</g>
<!-- Node3&#45;&gt;Node5 -->
<g id="edge5" class="edge"><title>Node3&#45;&gt;Node5</title>
<path fill="none" stroke="midnightblue" d="M287.896,-112.324C278.044,-104.263 263.149,-92.0765 251.285,-82.3695"/>
<polygon fill="midnightblue" stroke="midnightblue" points="253.253,-79.4575 243.297,-75.8339 248.82,-84.8752 253.253,-79.4575"/>
</g>
<!-- Node7 -->
<g id="node8" class="node"><title>Node7</title>
<g id="a_node8"><a xlink:href="_state_8h.html" target="_top" xlink:title="Brief description of file. ">
<polygon fill="none" stroke="black" points="329.5,-0.5 329.5,-19.5 399.5,-19.5 399.5,-0.5 329.5,-0.5"/>
<text text-anchor="middle" x="364.5" y="-7.5" font-family="Helvetica,sans-Serif" font-size="10.00">../lib/State.h</text>
</a>
</g>
</g>
<!-- Node3&#45;&gt;Node7 -->
<g id="edge15" class="edge"><title>Node3&#45;&gt;Node7</title>
<path fill="none" stroke="midnightblue" d="M299.561,-112.431C301.476,-99.4266 306.393,-74.2893 317.5,-56 324.484,-44.4992 335.144,-33.9589 344.547,-25.975"/>
<polygon fill="midnightblue" stroke="midnightblue" points="346.786,-28.6655 352.362,-19.657 342.385,-23.2217 346.786,-28.6655"/>
</g>
<!-- Node3&#45;&gt;Node8 -->
<g id="edge9" class="edge"><title>Node3&#45;&gt;Node8</title>
<path fill="none" stroke="midnightblue" d="M332.756,-113.717C376.335,-104.452 451.95,-88.3767 502.109,-77.713"/>
<polygon fill="midnightblue" stroke="midnightblue" points="503.042,-81.0931 512.095,-75.59 501.586,-74.2461 503.042,-81.0931"/>
</g>
<!-- Node9 -->
<g id="node10" class="node"><title>Node9</title>
<g id="a_node10"><a xlink:href="_output_8h.html" target="_top" xlink:title="../lib/Output.h">
<polygon fill="none" stroke="black" points="326.5,-56.5 326.5,-75.5 402.5,-75.5 402.5,-56.5 326.5,-56.5"/>
<text text-anchor="middle" x="364.5" y="-63.5" font-family="Helvetica,sans-Serif" font-size="10.00">../lib/Output.h</text>
</a>
</g>
</g>
<!-- Node3&#45;&gt;Node9 -->
<g id="edge11" class="edge"><title>Node3&#45;&gt;Node9</title>
<path fill="none" stroke="midnightblue" d="M309.104,-112.324C318.956,-104.263 333.851,-92.0765 345.715,-82.3695"/>
<polygon fill="midnightblue" stroke="midnightblue" points="348.18,-84.8752 353.703,-75.8339 343.747,-79.4575 348.18,-84.8752"/>
</g>
<!-- Node10 -->
<g id="node11" class="node"><title>Node10</title>
<g id="a_node11"><a xlink:href="_sleep_8h.html" target="_top" xlink:title="../lib/Sleep.h">
<polygon fill="none" stroke="black" points="421,-56.5 421,-75.5 492,-75.5 492,-56.5 421,-56.5"/>
<text text-anchor="middle" x="456.5" y="-63.5" font-family="Helvetica,sans-Serif" font-size="10.00">../lib/Sleep.h</text>
</a>
</g>
</g>
<!-- Node3&#45;&gt;Node10 -->
<g id="edge13" class="edge"><title>Node3&#45;&gt;Node10</title>
<path fill="none" stroke="midnightblue" d="M323.536,-112.444C350.116,-103.359 392.309,-88.9388 422.023,-78.7831"/>
<polygon fill="midnightblue" stroke="midnightblue" points="423.251,-82.0625 431.582,-75.5164 420.987,-75.4386 423.251,-82.0625"/>
</g>
<!-- Node5&#45;&gt;Node2 -->
<g id="edge6" class="edge"><title>Node5&#45;&gt;Node2</title>
<path fill="none" stroke="midnightblue" d="M212.535,-56.4435C191.891,-47.5961 159.437,-33.6875 135.868,-23.5865"/>
<polygon fill="midnightblue" stroke="midnightblue" points="136.942,-20.2387 126.372,-19.5164 134.184,-26.6727 136.942,-20.2387"/>
</g>
<!-- Node6 -->
<g id="node7" class="node"><title>Node6</title>
<g id="a_node7"><a xlink:href="_date_time_8h.html" target="_top" xlink:title="../lib/DateTime.h">
<polygon fill="none" stroke="black" points="188,-0.5 188,-19.5 277,-19.5 277,-0.5 188,-0.5"/>
<text text-anchor="middle" x="232.5" y="-7.5" font-family="Helvetica,sans-Serif" font-size="10.00">../lib/DateTime.h</text>
</a>
</g>
</g>
<!-- Node5&#45;&gt;Node6 -->
<g id="edge7" class="edge"><title>Node5&#45;&gt;Node6</title>
<path fill="none" stroke="midnightblue" d="M232.5,-56.083C232.5,-49.0059 232.5,-38.8611 232.5,-29.9865"/>
<polygon fill="midnightblue" stroke="midnightblue" points="236,-29.751 232.5,-19.7511 229,-29.7511 236,-29.751"/>
</g>
<!-- Node5&#45;&gt;Node7 -->
<g id="edge8" class="edge"><title>Node5&#45;&gt;Node7</title>
<path fill="none" stroke="midnightblue" d="M253.416,-56.4435C275.236,-47.5171 309.65,-33.4387 334.392,-23.3168"/>
<polygon fill="midnightblue" stroke="midnightblue" points="335.752,-26.5422 343.682,-19.5164 333.101,-20.0634 335.752,-26.5422"/>
</g>
<!-- Node8&#45;&gt;Node7 -->
<g id="edge10" class="edge"><title>Node8&#45;&gt;Node7</title>
<path fill="none" stroke="midnightblue" d="M522.711,-56.4435C490.671,-47.2406 439.567,-32.5617 404.147,-22.3879"/>
<polygon fill="midnightblue" stroke="midnightblue" points="404.727,-18.9132 394.15,-19.5164 402.795,-25.6412 404.727,-18.9132"/>
</g>
<!-- Node9&#45;&gt;Node7 -->
<g id="edge12" class="edge"><title>Node9&#45;&gt;Node7</title>
<path fill="none" stroke="midnightblue" d="M364.5,-56.083C364.5,-49.0059 364.5,-38.8611 364.5,-29.9865"/>
<polygon fill="midnightblue" stroke="midnightblue" points="368,-29.751 364.5,-19.7511 361,-29.7511 368,-29.751"/>
</g>
<!-- Node10&#45;&gt;Node7 -->
<g id="edge14" class="edge"><title>Node10&#45;&gt;Node7</title>
<path fill="none" stroke="midnightblue" d="M441.719,-56.324C427.233,-47.8215 404.927,-34.7288 388.007,-24.7975"/>
<polygon fill="midnightblue" stroke="midnightblue" points="389.641,-21.6981 379.245,-19.6545 386.097,-27.735 389.641,-21.6981"/>
</g>
</g>
</svg>
        <g id="navigator" transform="translate(0 0)" fill="#404254">
                <rect fill="#f2f5e9" fill-opacity="0.5" stroke="#606060" stroke-width=".5" x="0" y="0" width="60" height="60"/>
                <use id="zoomplus" xlink:href="#zoomPlus" x="17" y="9" onmousedown="handleZoom(evt,'in')"/>
                <use id="zoomminus" xlink:href="#zoomMin" x="42" y="9" onmousedown="handleZoom(evt,'out')"/>
                <use id="reset" xlink:href="#resetDef" x="30" y="36" onmousedown="handleReset()"/>
                <g id="arrowUp" xlink:href="#dirArrow" transform="translate(30 24)" onmousedown="handlePan(0,-1)">
                  <use xlink:href="#rim" fill="#404040">
                        <set attributeName="fill" to="#808080" begin="arrowUp.mouseover" end="arrowUp.mouseout"/>
                  </use>
                  <path fill="none" stroke="white" stroke-width="1.5" d="M0,-3.0v7 M-2.5,-0.5L0,-3.0L2.5,-0.5"/>
                </g>
                <g id="arrowRight" xlink:href="#dirArrow" transform="rotate(90) translate(36 -43)" onmousedown="handlePan(1,0)">
                  <use xlink:href="#rim" fill="#404040">
                        <set attributeName="fill" to="#808080" begin="arrowRight.mouseover" end="arrowRight.mouseout"/>
                  </use>
                  <path fill="none" stroke="white" stroke-width="1.5" d="M0,-3.0v7 M-2.5,-0.5L0,-3.0L2.5,-0.5"/>
                </g>
                <g id="arrowDown" xlink:href="#dirArrow" transform="rotate(180) translate(-30 -48)" onmousedown="handlePan(0,1)">
                  <use xlink:href="#rim" fill="#404040">
                        <set attributeName="fill" to="#808080" begin="arrowDown.mouseover" end="arrowDown.mouseout"/>
                  </use>
                  <path fill="none" stroke="white" stroke-width="1.5" d="M0,-3.0v7 M-2.5,-0.5L0,-3.0L2.5,-0.5"/>
                </g>
                <g id="arrowLeft" xlink:href="#dirArrow" transform="rotate(270) translate(-36 17)" onmousedown="handlePan(-1,0)">
                  <use xlink:href="#rim" fill="#404040">
                        <set attributeName="fill" to="#808080" begin="arrowLeft.mouseover" end="arrowLeft.mouseout"/>
                  </use>
                  <path fill="none" stroke="white" stroke-width="1.5" d="M0,-3.0v7 M-2.5,-0.5L0,-3.0L2.5,-0.5"/>
                </g>
        </g>
        <svg viewBox="0 0 15 15" width="100%" height="30px" preserveAspectRatio="xMaxYMin meet">
         <g id="arrow_out" transform="scale(0.3 0.3)">
          <a xlink:href="_measure_8cpp__incl_org.svg" target="_base">
           <rect id="button" ry="5" rx="5" y="6" x="6" height="38" width="38"
                fill="#f2f5e9" fill-opacity="0.5" stroke="#606060" stroke-width="1.0"/>
           <path id="arrow"
             d="M 11.500037,31.436501 C 11.940474,20.09759 22.043105,11.32322 32.158766,21.979434 L 37.068811,17.246167 C 37.068811,17.246167 37.088388,32 37.088388,32 L 22.160133,31.978069 C 22.160133,31.978069 26.997745,27.140456 26.997745,27.140456 C 18.528582,18.264221 13.291696,25.230495 11.500037,31.436501 z"
             style="fill:#404040;"/>
          </a>
         </g>
        </svg>
</svg>
