<?xml version="1.0" encoding="UTF-8" standalone="no"?>
<!DOCTYPE svg PUBLIC "-//W3C//DTD SVG 1.1//EN"
 "http://www.w3.org/Graphics/SVG/1.1/DTD/svg11.dtd">
<!-- Generated by graphviz version 2.38.0 (20140413.2041)
 -->
<!-- Title: Output.cpp Pages: 1 -->
<svg width="530pt" height="196pt"
 viewBox="0.00 0.00 530.00 196.00" xmlns="http://www.w3.org/2000/svg" xmlns:xlink="http://www.w3.org/1999/xlink">
<g id="graph0" class="graph" transform="scale(1 1) rotate(0) translate(4 192)">
<title>Output.cpp</title>
<!-- Node0 -->
<g id="node1" class="node"><title>Node0</title>
<polygon fill="#bfbfbf" stroke="black" points="138.5,-168.5 138.5,-187.5 203.5,-187.5 203.5,-168.5 138.5,-168.5"/>
<text text-anchor="middle" x="171" y="-175.5" font-family="Helvetica,sans-Serif" font-size="10.00">Output.cpp</text>
</g>
<!-- Node1 -->
<g id="node2" class="node"><title>Node1</title>
<g id="a_node2"><a xlink:href="main_8h.html" target="_top" xlink:title="The main.h file regroup global constant declaration. ">
<polygon fill="none" stroke="black" points="0,-0.5 0,-19.5 68,-19.5 68,-0.5 0,-0.5"/>
<text text-anchor="middle" x="34" y="-7.5" font-family="Helvetica,sans-Serif" font-size="10.00">../lib/main.h</text>
</a>
</g>
</g>
<!-- Node0&#45;&gt;Node1 -->
<g id="edge1" class="edge"><title>Node0&#45;&gt;Node1</title>
<path fill="none" stroke="midnightblue" d="M146.108,-168.397C111.396,-154.886 49.8105,-125.049 24,-76 16.2889,-61.3461 20.5245,-42.4339 25.6453,-28.7915"/>
<polygon fill="midnightblue" stroke="midnightblue" points="28.8844,-30.1179 29.5507,-19.5441 22.4359,-27.3946 28.8844,-30.1179"/>
</g>
<!-- Node2 -->
<g id="node3" class="node"><title>Node2</title>
<g id="a_node3"><a xlink:href="_f_s_m_8h.html" target="_top" xlink:title="The FSM is the finish state machine mechanism. ">
<polygon fill="none" stroke="black" points="192,-112.5 192,-131.5 260,-131.5 260,-112.5 192,-112.5"/>
<text text-anchor="middle" x="226" y="-119.5" font-family="Helvetica,sans-Serif" font-size="10.00">../lib/FSM.h</text>
</a>
</g>
</g>
<!-- Node0&#45;&gt;Node2 -->
<g id="edge2" class="edge"><title>Node0&#45;&gt;Node2</title>
<path fill="none" stroke="midnightblue" d="M180.082,-168.083C188.171,-160.141 200.195,-148.335 209.91,-138.797"/>
<polygon fill="midnightblue" stroke="midnightblue" points="212.403,-141.254 217.087,-131.751 207.499,-136.26 212.403,-141.254"/>
</g>
<!-- Node3 -->
<g id="node4" class="node"><title>Node3</title>
<g id="a_node4"><a xlink:href="_usart_8h.html" target="_top" xlink:title="This is the uart library for the atmega1284p. ">
<polygon fill="none" stroke="black" points="33.5,-56.5 33.5,-75.5 104.5,-75.5 104.5,-56.5 33.5,-56.5"/>
<text text-anchor="middle" x="69" y="-63.5" font-family="Helvetica,sans-Serif" font-size="10.00">../lib/Usart.h</text>
</a>
</g>
</g>
<!-- Node0&#45;&gt;Node3 -->
<g id="edge15" class="edge"><title>Node0&#45;&gt;Node3</title>
<path fill="none" stroke="midnightblue" d="M162.996,-168.368C145.94,-149.974 105.786,-106.671 83.8845,-83.0519"/>
<polygon fill="midnightblue" stroke="midnightblue" points="86.3325,-80.5443 76.9666,-75.5914 81.1996,-85.3039 86.3325,-80.5443"/>
</g>
<!-- Node8 -->
<g id="node9" class="node"><title>Node8</title>
<g id="a_node9"><a xlink:href="_output_8h.html" target="_top" xlink:title="The class Output inherits from the class State. ">
<polygon fill="none" stroke="black" points="446,-56.5 446,-75.5 522,-75.5 522,-56.5 446,-56.5"/>
<text text-anchor="middle" x="484" y="-63.5" font-family="Helvetica,sans-Serif" font-size="10.00">../lib/Output.h</text>
</a>
</g>
</g>
<!-- Node0&#45;&gt;Node8 -->
<g id="edge16" class="edge"><title>Node0&#45;&gt;Node8</title>
<path fill="none" stroke="midnightblue" d="M195.3,-168.46C250.654,-149.006 386.244,-101.355 449.921,-78.9768"/>
<polygon fill="midnightblue" stroke="midnightblue" points="451.226,-82.2281 459.5,-75.6104 448.905,-75.624 451.226,-82.2281"/>
</g>
<!-- Node2&#45;&gt;Node3 -->
<g id="edge3" class="edge"><title>Node2&#45;&gt;Node3</title>
<path fill="none" stroke="midnightblue" d="M201.123,-112.444C174.711,-103.359 132.785,-88.9388 103.258,-78.7831"/>
<polygon fill="midnightblue" stroke="midnightblue" points="104.355,-75.4593 93.7607,-75.5164 102.079,-82.0787 104.355,-75.4593"/>
</g>
<!-- Node4 -->
<g id="node5" class="node"><title>Node4</title>
<g id="a_node5"><a xlink:href="_config_8h.html" target="_top" xlink:title="This file declare the Config class. ">
<polygon fill="none" stroke="black" points="122.5,-56.5 122.5,-75.5 197.5,-75.5 197.5,-56.5 122.5,-56.5"/>
<text text-anchor="middle" x="160" y="-63.5" font-family="Helvetica,sans-Serif" font-size="10.00">../lib/Config.h</text>
</a>
</g>
</g>
<!-- Node2&#45;&gt;Node4 -->
<g id="edge4" class="edge"><title>Node2&#45;&gt;Node4</title>
<path fill="none" stroke="midnightblue" d="M215.396,-112.324C205.544,-104.263 190.649,-92.0765 178.785,-82.3695"/>
<polygon fill="midnightblue" stroke="midnightblue" points="180.753,-79.4575 170.797,-75.8339 176.32,-84.8752 180.753,-79.4575"/>
</g>
<!-- Node6 -->
<g id="node7" class="node"><title>Node6</title>
<g id="a_node7"><a xlink:href="_state_8h.html" target="_top" xlink:title="Brief description of file. ">
<polygon fill="none" stroke="black" points="261,-0.5 261,-19.5 331,-19.5 331,-0.5 261,-0.5"/>
<text text-anchor="middle" x="296" y="-7.5" font-family="Helvetica,sans-Serif" font-size="10.00">../lib/State.h</text>
</a>
</g>
</g>
<!-- Node2&#45;&gt;Node6 -->
<g id="edge14" class="edge"><title>Node2&#45;&gt;Node6</title>
<path fill="none" stroke="midnightblue" d="M226.968,-112.373C228.762,-99.2938 233.523,-74.0596 245,-56 252.521,-44.1653 264.038,-33.6273 274.226,-25.7295"/>
<polygon fill="midnightblue" stroke="midnightblue" points="276.376,-28.4929 282.354,-19.7458 272.226,-22.8557 276.376,-28.4929"/>
</g>
<!-- Node7 -->
<g id="node8" class="node"><title>Node7</title>
<g id="a_node8"><a xlink:href="_measure_8h.html" target="_top" xlink:title="The class Measure inherits from the class State. ">
<polygon fill="none" stroke="black" points="254,-56.5 254,-75.5 338,-75.5 338,-56.5 254,-56.5"/>
<text text-anchor="middle" x="296" y="-63.5" font-family="Helvetica,sans-Serif" font-size="10.00">../lib/Measure.h</text>
</a>
</g>
</g>
<!-- Node2&#45;&gt;Node7 -->
<g id="edge8" class="edge"><title>Node2&#45;&gt;Node7</title>
<path fill="none" stroke="midnightblue" d="M237.247,-112.324C247.797,-104.185 263.801,-91.8395 276.442,-82.0874"/>
<polygon fill="midnightblue" stroke="midnightblue" points="278.769,-84.7132 284.549,-75.8339 274.493,-79.1707 278.769,-84.7132"/>
</g>
<!-- Node2&#45;&gt;Node8 -->
<g id="edge10" class="edge"><title>Node2&#45;&gt;Node8</title>
<path fill="none" stroke="midnightblue" d="M260.26,-113.829C305.366,-104.389 384.911,-87.7395 435.996,-77.0473"/>
<polygon fill="midnightblue" stroke="midnightblue" points="436.744,-80.4667 445.815,-74.9922 435.31,-73.6151 436.744,-80.4667"/>
</g>
<!-- Node9 -->
<g id="node10" class="node"><title>Node9</title>
<g id="a_node10"><a xlink:href="_sleep_8h.html" target="_top" xlink:title="../lib/Sleep.h">
<polygon fill="none" stroke="black" points="356.5,-56.5 356.5,-75.5 427.5,-75.5 427.5,-56.5 356.5,-56.5"/>
<text text-anchor="middle" x="392" y="-63.5" font-family="Helvetica,sans-Serif" font-size="10.00">../lib/Sleep.h</text>
</a>
</g>
</g>
<!-- Node2&#45;&gt;Node9 -->
<g id="edge12" class="edge"><title>Node2&#45;&gt;Node9</title>
<path fill="none" stroke="midnightblue" d="M252.303,-112.444C280.351,-103.32 324.944,-88.8133 356.184,-78.6509"/>
<polygon fill="midnightblue" stroke="midnightblue" points="357.393,-81.9383 365.82,-75.5164 355.228,-75.2816 357.393,-81.9383"/>
</g>
<!-- Node4&#45;&gt;Node1 -->
<g id="edge5" class="edge"><title>Node4&#45;&gt;Node1</title>
<path fill="none" stroke="midnightblue" d="M140.035,-56.4435C119.391,-47.5961 86.9375,-33.6875 63.3684,-23.5865"/>
<polygon fill="midnightblue" stroke="midnightblue" points="64.4419,-20.2387 53.8717,-19.5164 61.6844,-26.6727 64.4419,-20.2387"/>
</g>
<!-- Node5 -->
<g id="node6" class="node"><title>Node5</title>
<g id="a_node6"><a xlink:href="_date_time_8h.html" target="_top" xlink:title="This file declare the DateTime class. ">
<polygon fill="none" stroke="black" points="115.5,-0.5 115.5,-19.5 204.5,-19.5 204.5,-0.5 115.5,-0.5"/>
<text text-anchor="middle" x="160" y="-7.5" font-family="Helvetica,sans-Serif" font-size="10.00">../lib/DateTime.h</text>
</a>
</g>
</g>
<!-- Node4&#45;&gt;Node5 -->
<g id="edge6" class="edge"><title>Node4&#45;&gt;Node5</title>
<path fill="none" stroke="midnightblue" d="M160,-56.083C160,-49.0059 160,-38.8611 160,-29.9865"/>
<polygon fill="midnightblue" stroke="midnightblue" points="163.5,-29.751 160,-19.7511 156.5,-29.7511 163.5,-29.751"/>
</g>
<!-- Node4&#45;&gt;Node6 -->
<g id="edge7" class="edge"><title>Node4&#45;&gt;Node6</title>
<path fill="none" stroke="midnightblue" d="M181.55,-56.4435C204.031,-47.5171 239.488,-33.4387 264.98,-23.3168"/>
<polygon fill="midnightblue" stroke="midnightblue" points="266.549,-26.4598 274.551,-19.5164 263.965,-19.9539 266.549,-26.4598"/>
</g>
<!-- Node7&#45;&gt;Node6 -->
<g id="edge9" class="edge"><title>Node7&#45;&gt;Node6</title>
<path fill="none" stroke="midnightblue" d="M296,-56.083C296,-49.0059 296,-38.8611 296,-29.9865"/>
<polygon fill="midnightblue" stroke="midnightblue" points="299.5,-29.751 296,-19.7511 292.5,-29.7511 299.5,-29.751"/>
</g>
<!-- Node8&#45;&gt;Node6 -->
<g id="edge11" class="edge"><title>Node8&#45;&gt;Node6</title>
<path fill="none" stroke="midnightblue" d="M454.211,-56.4435C422.171,-47.2406 371.067,-32.5617 335.647,-22.3879"/>
<polygon fill="midnightblue" stroke="midnightblue" points="336.227,-18.9132 325.65,-19.5164 334.295,-25.6412 336.227,-18.9132"/>
</g>
<!-- Node9&#45;&gt;Node6 -->
<g id="edge13" class="edge"><title>Node9&#45;&gt;Node6</title>
<path fill="none" stroke="midnightblue" d="M376.576,-56.324C361.46,-47.8215 338.185,-34.7288 320.529,-24.7975"/>
<polygon fill="midnightblue" stroke="midnightblue" points="321.817,-21.5066 311.386,-19.6545 318.386,-27.6077 321.817,-21.5066"/>
</g>
</g>
</svg>
