<?xml version="1.0" encoding="UTF-8" standalone="no"?>
<!DOCTYPE svg PUBLIC "-//W3C//DTD SVG 1.1//EN"
 "http://www.w3.org/Graphics/SVG/1.1/DTD/svg11.dtd">
<!-- Generated by graphviz version 2.38.0 (20140413.2041)
 -->
<!-- Title: Output.h Pages: 1 -->
<svg width="472pt" height="140pt"
 viewBox="0.00 0.00 471.50 140.00" xmlns="http://www.w3.org/2000/svg" xmlns:xlink="http://www.w3.org/1999/xlink">
<g id="graph0" class="graph" transform="scale(1 1) rotate(0) translate(4 136)">
<title>Output.h</title>
<!-- Node2 -->
<g id="node1" class="node"><title>Node2</title>
<polygon fill="#bfbfbf" stroke="black" points="293,-112.5 293,-131.5 347,-131.5 347,-112.5 293,-112.5"/>
<text text-anchor="middle" x="320" y="-119.5" font-family="Helvetica,sans-Serif" font-size="10.00">Output.h</text>
</g>
<!-- Node3 -->
<g id="node2" class="node"><title>Node3</title>
<g id="a_node2"><a xlink:href="_f_s_m_8h.html" target="_top" xlink:title="The FSM is the finish state machine mechanism. ">
<polygon fill="none" stroke="black" points="244,-56.5 244,-75.5 290,-75.5 290,-56.5 244,-56.5"/>
<text text-anchor="middle" x="267" y="-63.5" font-family="Helvetica,sans-Serif" font-size="10.00">FSM.h</text>
</a>
</g>
</g>
<!-- Node2&#45;&gt;Node3 -->
<g id="edge1" class="edge"><title>Node2&#45;&gt;Node3</title>
<path fill="none" stroke="midnightblue" d="M304.019,-104.718C294.678,-95.1997 283.254,-83.5608 275.589,-75.7511"/>
<polygon fill="midnightblue" stroke="midnightblue" points="301.746,-107.398 311.248,-112.083 306.741,-102.494 301.746,-107.398"/>
</g>
<!-- Node8 -->
<g id="node7" class="node"><title>Node8</title>
<g id="a_node7"><a xlink:href="_output_8cpp.html" target="_top" xlink:title="The class Output inherits from the class State. ">
<polygon fill="none" stroke="black" points="398.5,-0.5 398.5,-19.5 463.5,-19.5 463.5,-0.5 398.5,-0.5"/>
<text text-anchor="middle" x="431" y="-7.5" font-family="Helvetica,sans-Serif" font-size="10.00">Output.cpp</text>
</a>
</g>
</g>
<!-- Node2&#45;&gt;Node8 -->
<g id="edge8" class="edge"><title>Node2&#45;&gt;Node8</title>
<path fill="none" stroke="midnightblue" d="M335.938,-105.205C359.731,-81.6272 403.725,-38.0294 422.33,-19.5914"/>
<polygon fill="midnightblue" stroke="midnightblue" points="333.349,-102.843 328.71,-112.368 338.277,-107.816 333.349,-102.843"/>
</g>
<!-- Node4 -->
<g id="node3" class="node"><title>Node4</title>
<g id="a_node3"><a xlink:href="_config_8cpp.html" target="_top" xlink:title="This file define the Config class. ">
<polygon fill="none" stroke="black" points="0,-0.5 0,-19.5 64,-19.5 64,-0.5 0,-0.5"/>
<text text-anchor="middle" x="32" y="-7.5" font-family="Helvetica,sans-Serif" font-size="10.00">Config.cpp</text>
</a>
</g>
</g>
<!-- Node3&#45;&gt;Node4 -->
<g id="edge2" class="edge"><title>Node3&#45;&gt;Node4</title>
<path fill="none" stroke="midnightblue" d="M233.746,-57.3586C188.683,-47.0038 108.756,-28.6374 64.2291,-18.4058"/>
<polygon fill="midnightblue" stroke="midnightblue" points="233.078,-60.7964 243.608,-59.6249 234.646,-53.9742 233.078,-60.7964"/>
</g>
<!-- Node5 -->
<g id="node4" class="node"><title>Node5</title>
<g id="a_node4"><a xlink:href="_f_s_m_8cpp.html" target="_top" xlink:title="Brief description of file. ">
<polygon fill="none" stroke="black" points="82,-0.5 82,-19.5 138,-19.5 138,-0.5 82,-0.5"/>
<text text-anchor="middle" x="110" y="-7.5" font-family="Helvetica,sans-Serif" font-size="10.00">FSM.cpp</text>
</a>
</g>
</g>
<!-- Node3&#45;&gt;Node5 -->
<g id="edge3" class="edge"><title>Node3&#45;&gt;Node5</title>
<path fill="none" stroke="midnightblue" d="M234.347,-53.7689C204.73,-43.5822 161.708,-28.785 134.818,-19.536"/>
<polygon fill="midnightblue" stroke="midnightblue" points="233.239,-57.0893 243.834,-57.0321 235.516,-50.4699 233.239,-57.0893"/>
</g>
<!-- Node6 -->
<g id="node5" class="node"><title>Node6</title>
<g id="a_node5"><a xlink:href="main_8cpp.html" target="_top" xlink:title="This is the main file, is the firmware&#39;s body. ">
<polygon fill="none" stroke="black" points="156,-0.5 156,-19.5 212,-19.5 212,-0.5 156,-0.5"/>
<text text-anchor="middle" x="184" y="-7.5" font-family="Helvetica,sans-Serif" font-size="10.00">main.cpp</text>
</a>
</g>
</g>
<!-- Node3&#45;&gt;Node6 -->
<g id="edge4" class="edge"><title>Node3&#45;&gt;Node6</title>
<path fill="none" stroke="midnightblue" d="M244.901,-50.6221C229.738,-40.7574 210.117,-27.9919 197.302,-19.6545"/>
<polygon fill="midnightblue" stroke="midnightblue" points="243.374,-53.8042 253.665,-56.324 247.191,-47.9367 243.374,-53.8042"/>
</g>
<!-- Node7 -->
<g id="node6" class="node"><title>Node7</title>
<g id="a_node6"><a xlink:href="_measure_8cpp.html" target="_top" xlink:title="The class Measure inherits from the class State. ">
<polygon fill="none" stroke="black" points="230.5,-0.5 230.5,-19.5 303.5,-19.5 303.5,-0.5 230.5,-0.5"/>
<text text-anchor="middle" x="267" y="-7.5" font-family="Helvetica,sans-Serif" font-size="10.00">Measure.cpp</text>
</a>
</g>
</g>
<!-- Node3&#45;&gt;Node7 -->
<g id="edge5" class="edge"><title>Node3&#45;&gt;Node7</title>
<path fill="none" stroke="midnightblue" d="M267,-45.8045C267,-36.9102 267,-26.7798 267,-19.7511"/>
<polygon fill="midnightblue" stroke="midnightblue" points="263.5,-46.083 267,-56.083 270.5,-46.083 263.5,-46.083"/>
</g>
<!-- Node3&#45;&gt;Node8 -->
<g id="edge6" class="edge"><title>Node3&#45;&gt;Node8</title>
<path fill="none" stroke="midnightblue" d="M300.031,-54.1239C330.964,-43.9386 376.568,-28.9226 404.992,-19.5637"/>
<polygon fill="midnightblue" stroke="midnightblue" points="298.553,-50.9257 290.149,-57.3776 300.742,-57.5745 298.553,-50.9257"/>
</g>
<!-- Node9 -->
<g id="node8" class="node"><title>Node9</title>
<g id="a_node8"><a xlink:href="_usart_8cpp.html" target="_top" xlink:title="This is the uart library for the atmega1284p. ">
<polygon fill="none" stroke="black" points="321.5,-0.5 321.5,-19.5 380.5,-19.5 380.5,-0.5 321.5,-0.5"/>
<text text-anchor="middle" x="351" y="-7.5" font-family="Helvetica,sans-Serif" font-size="10.00">Usart.cpp</text>
</a>
</g>
</g>
<!-- Node3&#45;&gt;Node9 -->
<g id="edge7" class="edge"><title>Node3&#45;&gt;Node9</title>
<path fill="none" stroke="midnightblue" d="M288.932,-50.9005C304.335,-40.9986 324.446,-28.0705 337.537,-19.6545"/>
<polygon fill="midnightblue" stroke="midnightblue" points="287.015,-47.9722 280.496,-56.324 290.801,-53.8605 287.015,-47.9722"/>
</g>
</g>
</svg>
