<?xml version="1.0" encoding="UTF-8" standalone="no"?>
<!DOCTYPE svg PUBLIC "-//W3C//DTD SVG 1.1//EN"
 "http://www.w3.org/Graphics/SVG/1.1/DTD/svg11.dtd">
<!-- Generated by graphviz version 2.38.0 (20140413.2041)
 -->
<!-- Title: Power.h Pages: 1 -->
<svg width="1124pt" height="140pt"
 viewBox="0.00 0.00 1124.00 140.00" xmlns="http://www.w3.org/2000/svg" xmlns:xlink="http://www.w3.org/1999/xlink">
<g id="graph0" class="graph" transform="scale(1 1) rotate(0) translate(4 136)">
<title>Power.h</title>
<!-- Node2 -->
<g id="node1" class="node"><title>Node2</title>
<polygon fill="#bfbfbf" stroke="black" points="464,-112.5 464,-131.5 517,-131.5 517,-112.5 464,-112.5"/>
<text text-anchor="middle" x="490.5" y="-119.5" font-family="Helvetica,sans-Serif" font-size="10.00">Power.h</text>
</g>
<!-- Node3 -->
<g id="node2" class="node"><title>Node3</title>
<g id="a_node2"><a xlink:href="_f_s_m_8h.html" target="_top" xlink:title="The FSM is the finish state machine mechanism. ">
<polygon fill="none" stroke="black" points="467.5,-56.5 467.5,-75.5 513.5,-75.5 513.5,-56.5 467.5,-56.5"/>
<text text-anchor="middle" x="490.5" y="-63.5" font-family="Helvetica,sans-Serif" font-size="10.00">FSM.h</text>
</a>
</g>
</g>
<!-- Node2&#45;&gt;Node3 -->
<g id="edge1" class="edge"><title>Node2&#45;&gt;Node3</title>
<path fill="none" stroke="midnightblue" d="M490.5,-101.805C490.5,-92.9102 490.5,-82.7798 490.5,-75.7511"/>
<polygon fill="midnightblue" stroke="midnightblue" points="487,-102.083 490.5,-112.083 494,-102.083 487,-102.083"/>
</g>
<!-- Node7 -->
<g id="node6" class="node"><title>Node7</title>
<g id="a_node6"><a xlink:href="_power_8cpp.html" target="_top" xlink:title="Power.cpp">
<polygon fill="none" stroke="black" points="0,-0.5 0,-19.5 63,-19.5 63,-0.5 0,-0.5"/>
<text text-anchor="middle" x="31.5" y="-7.5" font-family="Helvetica,sans-Serif" font-size="10.00">Power.cpp</text>
</a>
</g>
</g>
<!-- Node2&#45;&gt;Node7 -->
<g id="edge16" class="edge"><title>Node2&#45;&gt;Node7</title>
<path fill="none" stroke="midnightblue" d="M454.082,-112.272C366.511,-91.2859 145.32,-38.2772 63.0037,-18.5499"/>
<polygon fill="midnightblue" stroke="midnightblue" points="453.298,-115.684 463.838,-114.61 454.929,-108.876 453.298,-115.684"/>
</g>
<!-- Node16 -->
<g id="node15" class="node"><title>Node16</title>
<g id="a_node15"><a xlink:href="power_d_c_8h.html" target="_top" xlink:title="Brief description of file. ">
<polygon fill="none" stroke="black" points="810.5,-56.5 810.5,-75.5 876.5,-75.5 876.5,-56.5 810.5,-56.5"/>
<text text-anchor="middle" x="843.5" y="-63.5" font-family="Helvetica,sans-Serif" font-size="10.00">powerDC.h</text>
</a>
</g>
</g>
<!-- Node2&#45;&gt;Node16 -->
<g id="edge14" class="edge"><title>Node2&#45;&gt;Node16</title>
<path fill="none" stroke="midnightblue" d="M526.992,-115.418C595.88,-104.88 744.093,-82.2067 810.334,-72.0735"/>
<polygon fill="midnightblue" stroke="midnightblue" points="526.388,-111.969 517.032,-116.941 527.447,-118.889 526.388,-111.969"/>
</g>
<!-- Node4 -->
<g id="node3" class="node"><title>Node4</title>
<g id="a_node3"><a xlink:href="_anemometer_8cpp.html" target="_top" xlink:title="Brief description of file. ">
<polygon fill="none" stroke="black" points="81,-0.5 81,-19.5 172,-19.5 172,-0.5 81,-0.5"/>
<text text-anchor="middle" x="126.5" y="-7.5" font-family="Helvetica,sans-Serif" font-size="10.00">Anemometer.cpp</text>
</a>
</g>
</g>
<!-- Node3&#45;&gt;Node4 -->
<g id="edge2" class="edge"><title>Node3&#45;&gt;Node4</title>
<path fill="none" stroke="midnightblue" d="M457.047,-60.3247C400.322,-52.353 281.659,-35.4868 181.5,-20 178.44,-19.5269 175.286,-19.0314 172.109,-18.5266"/>
<polygon fill="midnightblue" stroke="midnightblue" points="456.832,-63.8288 467.221,-61.7525 457.805,-56.8967 456.832,-63.8288"/>
</g>
<!-- Node5 -->
<g id="node4" class="node"><title>Node5</title>
<g id="a_node4"><a xlink:href="_f_s_m_8cpp.html" target="_top" xlink:title="Brief description of file. ">
<polygon fill="none" stroke="black" points="190.5,-0.5 190.5,-19.5 246.5,-19.5 246.5,-0.5 190.5,-0.5"/>
<text text-anchor="middle" x="218.5" y="-7.5" font-family="Helvetica,sans-Serif" font-size="10.00">FSM.cpp</text>
</a>
</g>
</g>
<!-- Node3&#45;&gt;Node5 -->
<g id="edge3" class="edge"><title>Node3&#45;&gt;Node5</title>
<path fill="none" stroke="midnightblue" d="M457.496,-59.2111C411.929,-51.098 327.242,-35.5843 255.5,-20 252.657,-19.3825 249.699,-18.7114 246.749,-18.0234"/>
<polygon fill="midnightblue" stroke="midnightblue" points="456.95,-62.6688 467.407,-60.9689 458.172,-55.7764 456.95,-62.6688"/>
</g>
<!-- Node6 -->
<g id="node5" class="node"><title>Node6</title>
<g id="a_node5"><a xlink:href="main_8cpp.html" target="_top" xlink:title="This is the main file, is the firmware&#39;s body. ">
<polygon fill="none" stroke="black" points="264.5,-0.5 264.5,-19.5 320.5,-19.5 320.5,-0.5 264.5,-0.5"/>
<text text-anchor="middle" x="292.5" y="-7.5" font-family="Helvetica,sans-Serif" font-size="10.00">main.cpp</text>
</a>
</g>
</g>
<!-- Node3&#45;&gt;Node6 -->
<g id="edge4" class="edge"><title>Node3&#45;&gt;Node6</title>
<path fill="none" stroke="midnightblue" d="M457.263,-55.9353C418.916,-45.4772 356.536,-28.4644 320.539,-18.6469"/>
<polygon fill="midnightblue" stroke="midnightblue" points="456.831,-59.4453 467.399,-58.6998 458.673,-52.6919 456.831,-59.4453"/>
</g>
<!-- Node3&#45;&gt;Node7 -->
<g id="edge5" class="edge"><title>Node3&#45;&gt;Node7</title>
<path fill="none" stroke="midnightblue" d="M457.049,-62.7131C385.805,-57.5565 213.956,-43.5967 71.5,-20 68.8315,-19.558 66.0739,-19.0489 63.3123,-18.5024"/>
<polygon fill="midnightblue" stroke="midnightblue" points="456.985,-66.2173 467.208,-63.4378 457.483,-59.235 456.985,-66.2173"/>
</g>
<!-- Node8 -->
<g id="node7" class="node"><title>Node8</title>
<g id="a_node7"><a xlink:href="_r_t_c_8cpp.html" target="_top" xlink:title="Brief description of file. ">
<polygon fill="none" stroke="black" points="338.5,-0.5 338.5,-19.5 394.5,-19.5 394.5,-0.5 338.5,-0.5"/>
<text text-anchor="middle" x="366.5" y="-7.5" font-family="Helvetica,sans-Serif" font-size="10.00">RTC.cpp</text>
</a>
</g>
</g>
<!-- Node3&#45;&gt;Node8 -->
<g id="edge6" class="edge"><title>Node3&#45;&gt;Node8</title>
<path fill="none" stroke="midnightblue" d="M461.493,-52.3678C438.271,-42.2553 406.337,-28.3486 386.056,-19.5164"/>
<polygon fill="midnightblue" stroke="midnightblue" points="460.286,-55.6597 470.852,-56.4435 463.081,-49.2419 460.286,-55.6597"/>
</g>
<!-- Node9 -->
<g id="node8" class="node"><title>Node9</title>
<g id="a_node8"><a xlink:href="_sensor_8cpp.html" target="_top" xlink:title="Brief description of file. ">
<polygon fill="none" stroke="black" points="412.5,-0.5 412.5,-19.5 478.5,-19.5 478.5,-0.5 412.5,-0.5"/>
<text text-anchor="middle" x="445.5" y="-7.5" font-family="Helvetica,sans-Serif" font-size="10.00">Sensor.cpp</text>
</a>
</g>
</g>
<!-- Node3&#45;&gt;Node9 -->
<g id="edge7" class="edge"><title>Node3&#45;&gt;Node9</title>
<path fill="none" stroke="midnightblue" d="M476.453,-48.144C468.613,-38.7357 459.171,-27.4046 452.793,-19.7511"/>
<polygon fill="midnightblue" stroke="midnightblue" points="473.979,-50.6414 483.069,-56.083 479.356,-46.1601 473.979,-50.6414"/>
</g>
<!-- Node10 -->
<g id="node9" class="node"><title>Node10</title>
<g id="a_node9"><a xlink:href="st___config_8cpp.html" target="_top" xlink:title="st_Config.cpp">
<polygon fill="none" stroke="black" points="497,-0.5 497,-19.5 574,-19.5 574,-0.5 497,-0.5"/>
<text text-anchor="middle" x="535.5" y="-7.5" font-family="Helvetica,sans-Serif" font-size="10.00">st_Config.cpp</text>
</a>
</g>
</g>
<!-- Node3&#45;&gt;Node10 -->
<g id="edge8" class="edge"><title>Node3&#45;&gt;Node10</title>
<path fill="none" stroke="midnightblue" d="M504.547,-48.144C512.387,-38.7357 521.829,-27.4046 528.207,-19.7511"/>
<polygon fill="midnightblue" stroke="midnightblue" points="501.644,-46.1601 497.931,-56.083 507.021,-50.6414 501.644,-46.1601"/>
</g>
<!-- Node11 -->
<g id="node10" class="node"><title>Node11</title>
<g id="a_node10"><a xlink:href="st___measure_8cpp.html" target="_top" xlink:title="st_Measure.cpp">
<polygon fill="none" stroke="black" points="592.5,-0.5 592.5,-19.5 678.5,-19.5 678.5,-0.5 592.5,-0.5"/>
<text text-anchor="middle" x="635.5" y="-7.5" font-family="Helvetica,sans-Serif" font-size="10.00">st_Measure.cpp</text>
</a>
</g>
</g>
<!-- Node3&#45;&gt;Node11 -->
<g id="edge9" class="edge"><title>Node3&#45;&gt;Node11</title>
<path fill="none" stroke="midnightblue" d="M522.975,-52.9058C550.236,-42.7536 588.492,-28.5063 612.632,-19.5164"/>
<polygon fill="midnightblue" stroke="midnightblue" points="521.625,-49.6736 513.476,-56.4435 524.068,-56.2334 521.625,-49.6736"/>
</g>
<!-- Node12 -->
<g id="node11" class="node"><title>Node12</title>
<g id="a_node11"><a xlink:href="st___output_8cpp.html" target="_top" xlink:title="st_Output.cpp">
<polygon fill="none" stroke="black" points="696.5,-0.5 696.5,-19.5 774.5,-19.5 774.5,-0.5 696.5,-0.5"/>
<text text-anchor="middle" x="735.5" y="-7.5" font-family="Helvetica,sans-Serif" font-size="10.00">st_Output.cpp</text>
</a>
</g>
</g>
<!-- Node3&#45;&gt;Node12 -->
<g id="edge10" class="edge"><title>Node3&#45;&gt;Node12</title>
<path fill="none" stroke="midnightblue" d="M523.377,-57.7536C568.346,-47.8422 648.896,-30.0882 696.746,-19.5418"/>
<polygon fill="midnightblue" stroke="midnightblue" points="522.561,-54.3494 513.549,-59.9198 524.068,-61.1853 522.561,-54.3494"/>
</g>
<!-- Node13 -->
<g id="node12" class="node"><title>Node13</title>
<g id="a_node12"><a xlink:href="st___sleep_8cpp.html" target="_top" xlink:title="st_Sleep.cpp">
<polygon fill="none" stroke="black" points="792.5,-0.5 792.5,-19.5 866.5,-19.5 866.5,-0.5 792.5,-0.5"/>
<text text-anchor="middle" x="829.5" y="-7.5" font-family="Helvetica,sans-Serif" font-size="10.00">st_Sleep.cpp</text>
</a>
</g>
</g>
<!-- Node3&#45;&gt;Node13 -->
<g id="edge11" class="edge"><title>Node3&#45;&gt;Node13</title>
<path fill="none" stroke="midnightblue" d="M523.83,-60.3331C578.273,-52.6084 689.629,-36.3844 783.5,-20 786.386,-19.4963 789.37,-18.9563 792.367,-18.4001"/>
<polygon fill="midnightblue" stroke="midnightblue" points="523.134,-56.8966 513.722,-61.7622 524.114,-63.8277 523.134,-56.8966"/>
</g>
<!-- Node14 -->
<g id="node13" class="node"><title>Node14</title>
<g id="a_node13"><a xlink:href="_state_8cpp.html" target="_top" xlink:title="Brief description of file. ">
<polygon fill="none" stroke="black" points="885,-0.5 885,-19.5 944,-19.5 944,-0.5 885,-0.5"/>
<text text-anchor="middle" x="914.5" y="-7.5" font-family="Helvetica,sans-Serif" font-size="10.00">State.cpp</text>
</a>
</g>
</g>
<!-- Node3&#45;&gt;Node14 -->
<g id="edge12" class="edge"><title>Node3&#45;&gt;Node14</title>
<path fill="none" stroke="midnightblue" d="M523.984,-62.3399C591.036,-56.7374 746.424,-42.3663 875.5,-20 878.513,-19.478 881.642,-18.8695 884.758,-18.2198"/>
<polygon fill="midnightblue" stroke="midnightblue" points="523.306,-58.8839 513.627,-63.1939 523.881,-65.8602 523.306,-58.8839"/>
</g>
<!-- Node15 -->
<g id="node14" class="node"><title>Node15</title>
<g id="a_node14"><a xlink:href="_usart_8cpp.html" target="_top" xlink:title="This is the uart library for the atmega1284p. ">
<polygon fill="none" stroke="black" points="962,-0.5 962,-19.5 1021,-19.5 1021,-0.5 962,-0.5"/>
<text text-anchor="middle" x="991.5" y="-7.5" font-family="Helvetica,sans-Serif" font-size="10.00">Usart.cpp</text>
</a>
</g>
</g>
<!-- Node3&#45;&gt;Node15 -->
<g id="edge13" class="edge"><title>Node3&#45;&gt;Node15</title>
<path fill="none" stroke="midnightblue" d="M524.22,-63.2942C600.897,-59.0731 794.04,-46.5067 953.5,-20 956.175,-19.5553 958.942,-19.0299 961.707,-18.4597"/>
<polygon fill="midnightblue" stroke="midnightblue" points="523.567,-59.8242 513.77,-63.8571 523.944,-66.8141 523.567,-59.8242"/>
</g>
<!-- Node17 -->
<g id="node16" class="node"><title>Node17</title>
<g id="a_node16"><a xlink:href="power_d_c_8cpp.html" target="_top" xlink:title="Brief description of file. ">
<polygon fill="none" stroke="black" points="1039,-0.5 1039,-19.5 1116,-19.5 1116,-0.5 1039,-0.5"/>
<text text-anchor="middle" x="1077.5" y="-7.5" font-family="Helvetica,sans-Serif" font-size="10.00">powerDC.cpp</text>
</a>
</g>
</g>
<!-- Node16&#45;&gt;Node17 -->
<g id="edge15" class="edge"><title>Node16&#45;&gt;Node17</title>
<path fill="none" stroke="midnightblue" d="M886.381,-55.1045C930.496,-44.9239 998.513,-29.2278 1040.39,-19.5637"/>
<polygon fill="midnightblue" stroke="midnightblue" points="885.487,-51.7186 876.53,-57.3776 887.061,-58.5393 885.487,-51.7186"/>
</g>
</g>
</svg>
