<?xml version="1.0" encoding="UTF-8" standalone="no"?>
<!DOCTYPE svg PUBLIC "-//W3C//DTD SVG 1.1//EN"
 "http://www.w3.org/Graphics/SVG/1.1/DTD/svg11.dtd">
<!-- Generated by graphviz version 2.38.0 (20140413.2041)
 -->
<!-- Title: Power.h Pages: 1 -->
<svg width="1029pt" height="140pt"
 viewBox="0.00 0.00 1029.00 140.00" xmlns="http://www.w3.org/2000/svg" xmlns:xlink="http://www.w3.org/1999/xlink">
<g id="graph0" class="graph" transform="scale(1 1) rotate(0) translate(4 136)">
<title>Power.h</title>
<!-- Node2 -->
<g id="node1" class="node"><title>Node2</title>
<polygon fill="#bfbfbf" stroke="black" points="303,-112.5 303,-131.5 356,-131.5 356,-112.5 303,-112.5"/>
<text text-anchor="middle" x="329.5" y="-119.5" font-family="Helvetica,sans-Serif" font-size="10.00">Power.h</text>
</g>
<!-- Node3 -->
<g id="node2" class="node"><title>Node3</title>
<g id="a_node2"><a xlink:href="_f_s_m_8h.html" target="_top" xlink:title="The FSM is the finish state machine mechanism. ">
<polygon fill="none" stroke="black" points="422.5,-56.5 422.5,-75.5 468.5,-75.5 468.5,-56.5 422.5,-56.5"/>
<text text-anchor="middle" x="445.5" y="-63.5" font-family="Helvetica,sans-Serif" font-size="10.00">FSM.h</text>
</a>
</g>
</g>
<!-- Node2&#45;&gt;Node3 -->
<g id="edge1" class="edge"><title>Node2&#45;&gt;Node3</title>
<path fill="none" stroke="midnightblue" d="M357.22,-108.096C378.892,-98.0073 408.402,-84.2697 427.205,-75.5164"/>
<polygon fill="midnightblue" stroke="midnightblue" points="355.469,-105.05 347.881,-112.444 358.423,-111.396 355.469,-105.05"/>
</g>
<!-- Node7 -->
<g id="node6" class="node"><title>Node7</title>
<g id="a_node6"><a xlink:href="_power_8cpp.html" target="_top" xlink:title="Power.cpp">
<polygon fill="none" stroke="black" points="0,-0.5 0,-19.5 63,-19.5 63,-0.5 0,-0.5"/>
<text text-anchor="middle" x="31.5" y="-7.5" font-family="Helvetica,sans-Serif" font-size="10.00">Power.cpp</text>
</a>
</g>
</g>
<!-- Node2&#45;&gt;Node7 -->
<g id="edge14" class="edge"><title>Node2&#45;&gt;Node7</title>
<path fill="none" stroke="midnightblue" d="M296.625,-108.865C235.875,-86.4404 107.44,-39.0315 54.7749,-19.5914"/>
<polygon fill="midnightblue" stroke="midnightblue" points="295.523,-112.189 306.116,-112.368 297.947,-105.622 295.523,-112.189"/>
</g>
<!-- Node4 -->
<g id="node3" class="node"><title>Node4</title>
<g id="a_node3"><a xlink:href="_anemometer_8cpp.html" target="_top" xlink:title="Brief description of file. ">
<polygon fill="none" stroke="black" points="81,-0.5 81,-19.5 172,-19.5 172,-0.5 81,-0.5"/>
<text text-anchor="middle" x="126.5" y="-7.5" font-family="Helvetica,sans-Serif" font-size="10.00">Anemometer.cpp</text>
</a>
</g>
</g>
<!-- Node3&#45;&gt;Node4 -->
<g id="edge2" class="edge"><title>Node3&#45;&gt;Node4</title>
<path fill="none" stroke="midnightblue" d="M412.32,-59.3834C354.96,-49.6734 237.172,-29.7344 172.14,-18.7259"/>
<polygon fill="midnightblue" stroke="midnightblue" points="411.857,-62.8547 422.301,-61.073 413.026,-55.9529 411.857,-62.8547"/>
</g>
<!-- Node5 -->
<g id="node4" class="node"><title>Node5</title>
<g id="a_node4"><a xlink:href="_f_s_m_8cpp.html" target="_top" xlink:title="Brief description of file. ">
<polygon fill="none" stroke="black" points="190.5,-0.5 190.5,-19.5 246.5,-19.5 246.5,-0.5 190.5,-0.5"/>
<text text-anchor="middle" x="218.5" y="-7.5" font-family="Helvetica,sans-Serif" font-size="10.00">FSM.cpp</text>
</a>
</g>
</g>
<!-- Node3&#45;&gt;Node5 -->
<g id="edge3" class="edge"><title>Node3&#45;&gt;Node5</title>
<path fill="none" stroke="midnightblue" d="M412.409,-57.2267C374.489,-48.3041 310.487,-33.199 255.5,-20 252.672,-19.3211 249.722,-18.6096 246.777,-17.8969"/>
<polygon fill="midnightblue" stroke="midnightblue" points="411.848,-60.6902 422.384,-59.5727 413.451,-53.8761 411.848,-60.6902"/>
</g>
<!-- Node6 -->
<g id="node5" class="node"><title>Node6</title>
<g id="a_node5"><a xlink:href="main_8cpp.html" target="_top" xlink:title="This is the main file, is the firmware&#39;s body. ">
<polygon fill="none" stroke="black" points="264.5,-0.5 264.5,-19.5 320.5,-19.5 320.5,-0.5 264.5,-0.5"/>
<text text-anchor="middle" x="292.5" y="-7.5" font-family="Helvetica,sans-Serif" font-size="10.00">main.cpp</text>
</a>
</g>
</g>
<!-- Node3&#45;&gt;Node6 -->
<g id="edge4" class="edge"><title>Node3&#45;&gt;Node6</title>
<path fill="none" stroke="midnightblue" d="M412.635,-53.4005C383.824,-43.2321 342.609,-28.6854 316.716,-19.5467"/>
<polygon fill="midnightblue" stroke="midnightblue" points="411.668,-56.7708 422.263,-56.7986 413.998,-50.1698 411.668,-56.7708"/>
</g>
<!-- Node3&#45;&gt;Node7 -->
<g id="edge5" class="edge"><title>Node3&#45;&gt;Node7</title>
<path fill="none" stroke="midnightblue" d="M412.028,-62.1229C346.403,-56.2285 196.35,-41.4995 71.5,-20 68.8344,-19.541 66.0788,-19.0199 63.3186,-18.4654"/>
<polygon fill="midnightblue" stroke="midnightblue" points="411.914,-65.6264 422.184,-63.0248 412.533,-58.6539 411.914,-65.6264"/>
</g>
<!-- Node8 -->
<g id="node7" class="node"><title>Node8</title>
<g id="a_node7"><a xlink:href="_r_t_c_8cpp.html" target="_top" xlink:title="Brief description of file. ">
<polygon fill="none" stroke="black" points="338.5,-0.5 338.5,-19.5 394.5,-19.5 394.5,-0.5 338.5,-0.5"/>
<text text-anchor="middle" x="366.5" y="-7.5" font-family="Helvetica,sans-Serif" font-size="10.00">RTC.cpp</text>
</a>
</g>
</g>
<!-- Node3&#45;&gt;Node8 -->
<g id="edge6" class="edge"><title>Node3&#45;&gt;Node8</title>
<path fill="none" stroke="midnightblue" d="M424.466,-50.6221C410.034,-40.7574 391.359,-27.9919 379.161,-19.6545"/>
<polygon fill="midnightblue" stroke="midnightblue" points="422.577,-53.5703 432.807,-56.324 426.527,-47.7914 422.577,-53.5703"/>
</g>
<!-- Node9 -->
<g id="node8" class="node"><title>Node9</title>
<g id="a_node8"><a xlink:href="_sensor_8cpp.html" target="_top" xlink:title="Brief description of file. ">
<polygon fill="none" stroke="black" points="412.5,-0.5 412.5,-19.5 478.5,-19.5 478.5,-0.5 412.5,-0.5"/>
<text text-anchor="middle" x="445.5" y="-7.5" font-family="Helvetica,sans-Serif" font-size="10.00">Sensor.cpp</text>
</a>
</g>
</g>
<!-- Node3&#45;&gt;Node9 -->
<g id="edge7" class="edge"><title>Node3&#45;&gt;Node9</title>
<path fill="none" stroke="midnightblue" d="M445.5,-45.8045C445.5,-36.9102 445.5,-26.7798 445.5,-19.7511"/>
<polygon fill="midnightblue" stroke="midnightblue" points="442,-46.083 445.5,-56.083 449,-46.083 442,-46.083"/>
</g>
<!-- Node10 -->
<g id="node9" class="node"><title>Node10</title>
<g id="a_node9"><a xlink:href="st___config_8cpp.html" target="_top" xlink:title="st_Config.cpp">
<polygon fill="none" stroke="black" points="497,-0.5 497,-19.5 574,-19.5 574,-0.5 497,-0.5"/>
<text text-anchor="middle" x="535.5" y="-7.5" font-family="Helvetica,sans-Serif" font-size="10.00">st_Config.cpp</text>
</a>
</g>
</g>
<!-- Node3&#45;&gt;Node10 -->
<g id="edge8" class="edge"><title>Node3&#45;&gt;Node10</title>
<path fill="none" stroke="midnightblue" d="M468.538,-51.1774C485.099,-41.2407 506.918,-28.1492 521.076,-19.6545"/>
<polygon fill="midnightblue" stroke="midnightblue" points="466.734,-48.1777 459.96,-56.324 470.336,-54.1802 466.734,-48.1777"/>
</g>
<!-- Node11 -->
<g id="node10" class="node"><title>Node11</title>
<g id="a_node10"><a xlink:href="st___measure_8cpp.html" target="_top" xlink:title="st_Measure.cpp">
<polygon fill="none" stroke="black" points="592.5,-0.5 592.5,-19.5 678.5,-19.5 678.5,-0.5 592.5,-0.5"/>
<text text-anchor="middle" x="635.5" y="-7.5" font-family="Helvetica,sans-Serif" font-size="10.00">st_Measure.cpp</text>
</a>
</g>
</g>
<!-- Node3&#45;&gt;Node11 -->
<g id="edge9" class="edge"><title>Node3&#45;&gt;Node11</title>
<path fill="none" stroke="midnightblue" d="M478.75,-55.5499C514.532,-45.3804 570.936,-29.3498 605.433,-19.5453"/>
<polygon fill="midnightblue" stroke="midnightblue" points="477.46,-52.278 468.798,-58.3785 479.374,-59.0113 477.46,-52.278"/>
</g>
<!-- Node12 -->
<g id="node11" class="node"><title>Node12</title>
<g id="a_node11"><a xlink:href="st___output_8cpp.html" target="_top" xlink:title="st_Output.cpp">
<polygon fill="none" stroke="black" points="696.5,-0.5 696.5,-19.5 774.5,-19.5 774.5,-0.5 696.5,-0.5"/>
<text text-anchor="middle" x="735.5" y="-7.5" font-family="Helvetica,sans-Serif" font-size="10.00">st_Output.cpp</text>
</a>
</g>
</g>
<!-- Node3&#45;&gt;Node12 -->
<g id="edge10" class="edge"><title>Node3&#45;&gt;Node12</title>
<path fill="none" stroke="midnightblue" d="M478.649,-58.8522C525.271,-50.2019 612.868,-33.9357 687.5,-20 690.417,-19.4553 693.434,-18.8913 696.468,-18.3235"/>
<polygon fill="midnightblue" stroke="midnightblue" points="477.719,-55.4648 468.526,-60.7303 478.996,-62.3474 477.719,-55.4648"/>
</g>
<!-- Node13 -->
<g id="node12" class="node"><title>Node13</title>
<g id="a_node12"><a xlink:href="st___sleep_8cpp.html" target="_top" xlink:title="st_Sleep.cpp">
<polygon fill="none" stroke="black" points="792.5,-0.5 792.5,-19.5 866.5,-19.5 866.5,-0.5 792.5,-0.5"/>
<text text-anchor="middle" x="829.5" y="-7.5" font-family="Helvetica,sans-Serif" font-size="10.00">st_Sleep.cpp</text>
</a>
</g>
</g>
<!-- Node3&#45;&gt;Node13 -->
<g id="edge11" class="edge"><title>Node3&#45;&gt;Node13</title>
<path fill="none" stroke="midnightblue" d="M478.647,-61.2657C539.307,-54.2809 672.184,-38.2823 783.5,-20 786.391,-19.5252 789.378,-19.006 792.378,-18.4642"/>
<polygon fill="midnightblue" stroke="midnightblue" points="478.059,-57.81 468.522,-62.4248 478.855,-64.7646 478.059,-57.81"/>
</g>
<!-- Node14 -->
<g id="node13" class="node"><title>Node14</title>
<g id="a_node13"><a xlink:href="_state_8cpp.html" target="_top" xlink:title="Brief description of file. ">
<polygon fill="none" stroke="black" points="885,-0.5 885,-19.5 944,-19.5 944,-0.5 885,-0.5"/>
<text text-anchor="middle" x="914.5" y="-7.5" font-family="Helvetica,sans-Serif" font-size="10.00">State.cpp</text>
</a>
</g>
</g>
<!-- Node3&#45;&gt;Node14 -->
<g id="edge12" class="edge"><title>Node3&#45;&gt;Node14</title>
<path fill="none" stroke="midnightblue" d="M479.314,-62.8767C552.128,-57.9947 729.028,-44.4703 875.5,-20 878.516,-19.4962 881.647,-18.8997 884.765,-18.2573"/>
<polygon fill="midnightblue" stroke="midnightblue" points="478.689,-59.4102 468.941,-63.5605 479.15,-66.395 478.689,-59.4102"/>
</g>
<!-- Node15 -->
<g id="node14" class="node"><title>Node15</title>
<g id="a_node14"><a xlink:href="_usart_8cpp.html" target="_top" xlink:title="This is the uart library for the atmega1284p. ">
<polygon fill="none" stroke="black" points="962,-0.5 962,-19.5 1021,-19.5 1021,-0.5 962,-0.5"/>
<text text-anchor="middle" x="991.5" y="-7.5" font-family="Helvetica,sans-Serif" font-size="10.00">Usart.cpp</text>
</a>
</g>
</g>
<!-- Node3&#45;&gt;Node15 -->
<g id="edge13" class="edge"><title>Node3&#45;&gt;Node15</title>
<path fill="none" stroke="midnightblue" d="M478.835,-63.7115C560.328,-60.2008 775.959,-48.7342 953.5,-20 956.177,-19.5667 958.945,-19.0491 961.711,-18.4841"/>
<polygon fill="midnightblue" stroke="midnightblue" points="478.529,-60.2211 468.685,-64.1371 478.823,-67.215 478.529,-60.2211"/>
</g>
</g>
</svg>
