<?xml version="1.0" encoding="UTF-8" standalone="no"?>
<!DOCTYPE svg PUBLIC "-//W3C//DTD SVG 1.1//EN"
 "http://www.w3.org/Graphics/SVG/1.1/DTD/svg11.dtd">
<!-- Generated by graphviz version 2.38.0 (20140413.2041)
 -->
<!-- Title: Power.cpp Pages: 1 -->
<!--zoomable 252 -->
<svg id="main" version="1.1" xmlns="http://www.w3.org/2000/svg" xmlns:xlink="http://www.w3.org/1999/xlink" xml:space="preserve" onload="init(evt)">
<style type="text/css"><![CDATA[
.edge:hover path { stroke: red; }
.edge:hover polygon { stroke: red; fill: red; }
]]></style>
<script type="text/javascript"><![CDATA[
var edges = document.getElementsByTagName('g');
if (edges && edges.length) {
  for (var i=0;i<edges.length;i++) {
    if (edges[i].id.substr(0,4)=='edge') {
      edges[i].setAttribute('class','edge');
    }
  }
}
]]></script>
        <defs>
                <circle id="rim" cx="0" cy="0" r="7"/>
                <circle id="rim2" cx="0" cy="0" r="3.5"/>
                <g id="zoomPlus">
                        <use xlink:href="#rim" fill="#404040">
                                <set attributeName="fill" to="#808080" begin="zoomplus.mouseover" end="zoomplus.mouseout"/>
                        </use>
                        <path d="M-4,0h8M0,-4v8" fill="none" stroke="white" stroke-width="1.5" pointer-events="none"/>
                </g>
                <g id="zoomMin">
                        <use xlink:href="#rim" fill="#404040">
                                <set attributeName="fill" to="#808080" begin="zoomminus.mouseover" end="zoomminus.mouseout"/>
                        </use>
                        <path d="M-4,0h8" fill="none" stroke="white" stroke-width="1.5" pointer-events="none"/>
                </g>
                <g id="dirArrow">
                        <path fill="none" stroke="white" stroke-width="1.5" d="M0,-3.0v7 M-2.5,-0.5L0,-3.0L2.5,-0.5"/>
                </g>
               <g id="resetDef">
                       <use xlink:href="#rim2" fill="#404040">
                               <set attributeName="fill" to="#808080" begin="reset.mouseover" end="reset.mouseout"/>
                       </use>
               </g>
        </defs>

<script type="text/javascript">
var viewWidth = 1042;
var viewHeight = 252;
var sectionId = 'dynsection-0';
</script>
<script xlink:href="svgpan.js"/>
<svg id="graph" class="graph">
<g id="viewport">
<title>Power.cpp</title>
<!-- Node0 -->
<g id="node1" class="node"><title>Node0</title>
<polygon fill="#bfbfbf" stroke="black" points="334,-224.5 334,-243.5 397,-243.5 397,-224.5 334,-224.5"/>
<text text-anchor="middle" x="365.5" y="-231.5" font-family="Helvetica,sans-Serif" font-size="10.00">Power.cpp</text>
</g>
<!-- Node1 -->
<g id="node2" class="node"><title>Node1</title>
<polygon fill="none" stroke="#bfbfbf" points="127,-168.5 127,-187.5 176,-187.5 176,-168.5 127,-168.5"/>
<text text-anchor="middle" x="151.5" y="-175.5" font-family="Helvetica,sans-Serif" font-size="10.00">avr/io.h</text>
</g>
<!-- Node0&#45;&gt;Node1 -->
<g id="edge1" class="edge"><title>Node0&#45;&gt;Node1</title>
<path fill="none" stroke="midnightblue" d="M333.926,-225.246C299.856,-216.849 243.755,-202.933 185.712,-188.027"/>
<polygon fill="midnightblue" stroke="midnightblue" points="186.56,-184.632 176.003,-185.529 184.816,-191.411 186.56,-184.632"/>
</g>
<!-- Node2 -->
<g id="node3" class="node"><title>Node2</title>
<polygon fill="none" stroke="#bfbfbf" points="194.5,-168.5 194.5,-187.5 242.5,-187.5 242.5,-168.5 194.5,-168.5"/>
<text text-anchor="middle" x="218.5" y="-175.5" font-family="Helvetica,sans-Serif" font-size="10.00">stdlib.h</text>
</g>
<!-- Node0&#45;&gt;Node2 -->
<g id="edge2" class="edge"><title>Node0&#45;&gt;Node2</title>
<path fill="none" stroke="midnightblue" d="M342.207,-224.444C317.693,-215.438 278.904,-201.189 251.3,-191.049"/>
<polygon fill="midnightblue" stroke="midnightblue" points="252.277,-187.679 241.684,-187.516 249.863,-194.25 252.277,-187.679"/>
</g>
<!-- Node3 -->
<g id="node4" class="node"><title>Node3</title>
<polygon fill="none" stroke="#bfbfbf" points="261,-168.5 261,-187.5 310,-187.5 310,-168.5 261,-168.5"/>
<text text-anchor="middle" x="285.5" y="-175.5" font-family="Helvetica,sans-Serif" font-size="10.00">string.h</text>
</g>
<!-- Node0&#45;&gt;Node3 -->
<g id="edge3" class="edge"><title>Node0&#45;&gt;Node3</title>
<path fill="none" stroke="midnightblue" d="M352.647,-224.324C340.284,-215.979 321.37,-203.212 306.763,-193.352"/>
<polygon fill="midnightblue" stroke="midnightblue" points="308.568,-190.348 298.321,-187.655 304.652,-196.15 308.568,-190.348"/>
</g>
<!-- Node4 -->
<g id="node5" class="node"><title>Node4</title>
<polygon fill="none" stroke="#bfbfbf" points="328.5,-168.5 328.5,-187.5 402.5,-187.5 402.5,-168.5 328.5,-168.5"/>
<text text-anchor="middle" x="365.5" y="-175.5" font-family="Helvetica,sans-Serif" font-size="10.00">avr/eeprom.h</text>
</g>
<!-- Node0&#45;&gt;Node4 -->
<g id="edge4" class="edge"><title>Node0&#45;&gt;Node4</title>
<path fill="none" stroke="midnightblue" d="M365.5,-224.083C365.5,-217.006 365.5,-206.861 365.5,-197.986"/>
<polygon fill="midnightblue" stroke="midnightblue" points="369,-197.751 365.5,-187.751 362,-197.751 369,-197.751"/>
</g>
<!-- Node5 -->
<g id="node6" class="node"><title>Node5</title>
<polygon fill="none" stroke="#bfbfbf" points="420.5,-168.5 420.5,-187.5 484.5,-187.5 484.5,-168.5 420.5,-168.5"/>
<text text-anchor="middle" x="452.5" y="-175.5" font-family="Helvetica,sans-Serif" font-size="10.00">util/delay.h</text>
</g>
<!-- Node0&#45;&gt;Node5 -->
<g id="edge5" class="edge"><title>Node0&#45;&gt;Node5</title>
<path fill="none" stroke="midnightblue" d="M379.478,-224.324C393.05,-215.9 413.88,-202.971 429.825,-193.074"/>
<polygon fill="midnightblue" stroke="midnightblue" points="431.906,-195.902 438.557,-187.655 428.214,-189.954 431.906,-195.902"/>
</g>
<!-- Node6 -->
<g id="node7" class="node"><title>Node6</title>
<g id="a_node7"><a xlink:href="_f_s_m_8h.html" target="_top" xlink:title="The FSM is the finish state machine mechanism. ">
<polygon fill="none" stroke="black" points="502.5,-168.5 502.5,-187.5 570.5,-187.5 570.5,-168.5 502.5,-168.5"/>
<text text-anchor="middle" x="536.5" y="-175.5" font-family="Helvetica,sans-Serif" font-size="10.00">../lib/FSM.h</text>
</a>
</g>
</g>
<!-- Node0&#45;&gt;Node6 -->
<g id="edge6" class="edge"><title>Node0&#45;&gt;Node6</title>
<path fill="none" stroke="midnightblue" d="M392.595,-224.444C421.488,-215.32 467.425,-200.813 499.605,-190.651"/>
<polygon fill="midnightblue" stroke="midnightblue" points="501.049,-193.865 509.531,-187.516 498.941,-187.19 501.049,-193.865"/>
</g>
<!-- Node14 -->
<g id="node15" class="node"><title>Node14</title>
<g id="a_node15"><a xlink:href="_power_8h.html" target="_top" xlink:title="../lib/Power.h">
<polygon fill="none" stroke="black" points="959.5,-112.5 959.5,-131.5 1033.5,-131.5 1033.5,-112.5 959.5,-112.5"/>
<text text-anchor="middle" x="996.5" y="-119.5" font-family="Helvetica,sans-Serif" font-size="10.00">../lib/Power.h</text>
</a>
</g>
</g>
<!-- Node0&#45;&gt;Node14 -->
<g id="edge27" class="edge"><title>Node0&#45;&gt;Node14</title>
<path fill="none" stroke="midnightblue" d="M397.251,-227.773C483.915,-213.453 732.005,-172.097 949.357,-132.18"/>
<polygon fill="midnightblue" stroke="midnightblue" points="950.155,-135.592 959.356,-130.341 948.888,-128.708 950.155,-135.592"/>
</g>
<!-- Node7 -->
<g id="node8" class="node"><title>Node7</title>
<g id="a_node8"><a xlink:href="_usart_8h.html" target="_top" xlink:title="This is the uart library for the atmega1284p. ">
<polygon fill="none" stroke="black" points="398,-112.5 398,-131.5 469,-131.5 469,-112.5 398,-112.5"/>
<text text-anchor="middle" x="433.5" y="-119.5" font-family="Helvetica,sans-Serif" font-size="10.00">../lib/Usart.h</text>
</a>
</g>
</g>
<!-- Node6&#45;&gt;Node7 -->
<g id="edge7" class="edge"><title>Node6&#45;&gt;Node7</title>
<path fill="none" stroke="midnightblue" d="M519.951,-168.324C503.508,-159.703 478.065,-146.364 459.032,-136.386"/>
<polygon fill="midnightblue" stroke="midnightblue" points="460.489,-133.198 450.008,-131.655 457.239,-139.398 460.489,-133.198"/>
</g>
<!-- Node8 -->
<g id="node9" class="node"><title>Node8</title>
<g id="a_node9"><a xlink:href="_t_w_i_8h.html" target="_top" xlink:title="Brief description of file. ">
<polygon fill="none" stroke="black" points="0,-112.5 0,-131.5 65,-131.5 65,-112.5 0,-112.5"/>
<text text-anchor="middle" x="32.5" y="-119.5" font-family="Helvetica,sans-Serif" font-size="10.00">../lib/TWI.h</text>
</a>
</g>
</g>
<!-- Node6&#45;&gt;Node8 -->
<g id="edge8" class="edge"><title>Node6&#45;&gt;Node8</title>
<path fill="none" stroke="midnightblue" d="M502.299,-169.453C499.331,-168.916 496.367,-168.422 493.5,-168 311.831,-141.283 261.127,-158.988 75.5368,-131.962"/>
<polygon fill="midnightblue" stroke="midnightblue" points="75.8484,-128.47 65.4436,-130.468 74.8232,-135.394 75.8484,-128.47"/>
</g>
<!-- Node9 -->
<g id="node10" class="node"><title>Node9</title>
<g id="a_node10"><a xlink:href="_r_t_c_8h.html" target="_top" xlink:title="The RTC class regroup methods and parameters to use the Real Time Clock : pcf8563. ">
<polygon fill="none" stroke="black" points="83.5,-112.5 83.5,-131.5 151.5,-131.5 151.5,-112.5 83.5,-112.5"/>
<text text-anchor="middle" x="117.5" y="-119.5" font-family="Helvetica,sans-Serif" font-size="10.00">../lib/RTC.h</text>
</a>
</g>
</g>
<!-- Node6&#45;&gt;Node9 -->
<g id="edge9" class="edge"><title>Node6&#45;&gt;Node9</title>
<path fill="none" stroke="midnightblue" d="M502.289,-169.522C499.323,-168.97 496.363,-168.453 493.5,-168 349.628,-145.224 309.254,-154.839 161.595,-132.028"/>
<polygon fill="midnightblue" stroke="midnightblue" points="162.133,-128.57 151.711,-130.478 161.048,-135.485 162.133,-128.57"/>
</g>
<!-- Node10 -->
<g id="node11" class="node"><title>Node10</title>
<g id="a_node11"><a xlink:href="_windvane_8h.html" target="_top" xlink:title="Brief description of file. ">
<polygon fill="none" stroke="black" points="169.5,-112.5 169.5,-131.5 259.5,-131.5 259.5,-112.5 169.5,-112.5"/>
<text text-anchor="middle" x="214.5" y="-119.5" font-family="Helvetica,sans-Serif" font-size="10.00">../lib/Windvane.h</text>
</a>
</g>
</g>
<!-- Node6&#45;&gt;Node10 -->
<g id="edge10" class="edge"><title>Node6&#45;&gt;Node10</title>
<path fill="none" stroke="midnightblue" d="M502.262,-169.68C499.302,-169.094 496.35,-168.526 493.5,-168 397.022,-150.196 370.111,-148.422 269.545,-132.156"/>
<polygon fill="midnightblue" stroke="midnightblue" points="270.01,-128.686 259.578,-130.535 268.886,-135.595 270.01,-128.686"/>
</g>
<!-- Node13 -->
<g id="node14" class="node"><title>Node13</title>
<g id="a_node14"><a xlink:href="_anemometer_8h.html" target="_top" xlink:title="Brief description of file. ">
<polygon fill="none" stroke="black" points="277.5,-112.5 277.5,-131.5 379.5,-131.5 379.5,-112.5 277.5,-112.5"/>
<text text-anchor="middle" x="328.5" y="-119.5" font-family="Helvetica,sans-Serif" font-size="10.00">../lib/Anemometer.h</text>
</a>
</g>
</g>
<!-- Node6&#45;&gt;Node13 -->
<g id="edge13" class="edge"><title>Node6&#45;&gt;Node13</title>
<path fill="none" stroke="midnightblue" d="M503.542,-168.444C467.713,-159.142 410.337,-144.246 371.109,-134.062"/>
<polygon fill="midnightblue" stroke="midnightblue" points="371.863,-130.642 361.304,-131.516 370.104,-137.417 371.863,-130.642"/>
</g>
<!-- Node6&#45;&gt;Node14 -->
<g id="edge15" class="edge"><title>Node6&#45;&gt;Node14</title>
<path fill="none" stroke="midnightblue" d="M570.706,-174.272C640.126,-168.524 802.703,-153.98 949.311,-132.064"/>
<polygon fill="midnightblue" stroke="midnightblue" points="950.025,-135.496 959.39,-130.541 948.98,-128.574 950.025,-135.496"/>
</g>
<!-- Node15 -->
<g id="node16" class="node"><title>Node15</title>
<g id="a_node16"><a xlink:href="_state_8h.html" target="_top" xlink:title="Brief description of file. ">
<polygon fill="none" stroke="black" points="651.5,-56.5 651.5,-75.5 721.5,-75.5 721.5,-56.5 651.5,-56.5"/>
<text text-anchor="middle" x="686.5" y="-63.5" font-family="Helvetica,sans-Serif" font-size="10.00">../lib/State.h</text>
</a>
</g>
</g>
<!-- Node6&#45;&gt;Node15 -->
<g id="edge17" class="edge"><title>Node6&#45;&gt;Node15</title>
<path fill="none" stroke="midnightblue" d="M529.167,-168.115C519.031,-154.697 503.393,-129.028 516.5,-112 531.66,-92.3046 596.302,-79.4593 641.352,-72.7176"/>
<polygon fill="midnightblue" stroke="midnightblue" points="642.093,-76.1469 651.49,-71.2529 641.092,-69.2188 642.093,-76.1469"/>
</g>
<!-- Node16 -->
<g id="node17" class="node"><title>Node16</title>
<g id="a_node17"><a xlink:href="st___config_8h.html" target="_top" xlink:title="../lib/st_Config.h">
<polygon fill="none" stroke="black" points="852,-112.5 852,-131.5 941,-131.5 941,-112.5 852,-112.5"/>
<text text-anchor="middle" x="896.5" y="-119.5" font-family="Helvetica,sans-Serif" font-size="10.00">../lib/st_Config.h</text>
</a>
</g>
</g>
<!-- Node6&#45;&gt;Node16 -->
<g id="edge18" class="edge"><title>Node6&#45;&gt;Node16</title>
<path fill="none" stroke="midnightblue" d="M570.61,-172.257C625.544,-164.564 737.268,-148.687 841.88,-132.23"/>
<polygon fill="midnightblue" stroke="midnightblue" points="842.647,-135.652 851.979,-130.635 841.556,-128.737 842.647,-135.652"/>
</g>
<!-- Node17 -->
<g id="node18" class="node"><title>Node17</title>
<g id="a_node18"><a xlink:href="st___measure_8h.html" target="_top" xlink:title="../lib/st_Measure.h">
<polygon fill="none" stroke="black" points="525.5,-112.5 525.5,-131.5 623.5,-131.5 623.5,-112.5 525.5,-112.5"/>
<text text-anchor="middle" x="574.5" y="-119.5" font-family="Helvetica,sans-Serif" font-size="10.00">../lib/st_Measure.h</text>
</a>
</g>
</g>
<!-- Node6&#45;&gt;Node17 -->
<g id="edge21" class="edge"><title>Node6&#45;&gt;Node17</title>
<path fill="none" stroke="midnightblue" d="M542.775,-168.083C548.142,-160.455 556.018,-149.264 562.579,-139.941"/>
<polygon fill="midnightblue" stroke="midnightblue" points="565.449,-141.943 568.342,-131.751 559.725,-137.915 565.449,-141.943"/>
</g>
<!-- Node18 -->
<g id="node19" class="node"><title>Node18</title>
<g id="a_node19"><a xlink:href="st___output_8h.html" target="_top" xlink:title="../lib/st_Output.h">
<polygon fill="none" stroke="black" points="642,-112.5 642,-131.5 731,-131.5 731,-112.5 642,-112.5"/>
<text text-anchor="middle" x="686.5" y="-119.5" font-family="Helvetica,sans-Serif" font-size="10.00">../lib/st_Output.h</text>
</a>
</g>
</g>
<!-- Node6&#45;&gt;Node18 -->
<g id="edge23" class="edge"><title>Node6&#45;&gt;Node18</title>
<path fill="none" stroke="midnightblue" d="M560.268,-168.444C585.393,-159.399 625.211,-145.064 653.4,-134.916"/>
<polygon fill="midnightblue" stroke="midnightblue" points="654.62,-138.197 662.843,-131.516 652.249,-131.611 654.62,-138.197"/>
</g>
<!-- Node19 -->
<g id="node20" class="node"><title>Node19</title>
<g id="a_node20"><a xlink:href="st___sleep_8h.html" target="_top" xlink:title="../lib/st_Sleep.h">
<polygon fill="none" stroke="black" points="749,-112.5 749,-131.5 834,-131.5 834,-112.5 749,-112.5"/>
<text text-anchor="middle" x="791.5" y="-119.5" font-family="Helvetica,sans-Serif" font-size="10.00">../lib/st_Sleep.h</text>
</a>
</g>
</g>
<!-- Node6&#45;&gt;Node19 -->
<g id="edge25" class="edge"><title>Node6&#45;&gt;Node19</title>
<path fill="none" stroke="midnightblue" d="M570.626,-169.773C614.429,-160.497 690.781,-144.329 741.237,-133.644"/>
<polygon fill="midnightblue" stroke="midnightblue" points="742.22,-137.014 751.277,-131.518 740.769,-130.165 742.22,-137.014"/>
</g>
<!-- Node11 -->
<g id="node12" class="node"><title>Node11</title>
<g id="a_node12"><a xlink:href="_sensor_8h.html" target="_top" xlink:title="This class is the base class of sensor. ">
<polygon fill="none" stroke="black" points="290,-56.5 290,-75.5 367,-75.5 367,-56.5 290,-56.5"/>
<text text-anchor="middle" x="328.5" y="-63.5" font-family="Helvetica,sans-Serif" font-size="10.00">../lib/Sensor.h</text>
</a>
</g>
</g>
<!-- Node10&#45;&gt;Node11 -->
<g id="edge11" class="edge"><title>Node10&#45;&gt;Node11</title>
<path fill="none" stroke="midnightblue" d="M232.564,-112.444C251.075,-103.675 280.081,-89.9355 301.355,-79.8579"/>
<polygon fill="midnightblue" stroke="midnightblue" points="302.982,-82.9604 310.521,-75.5164 299.985,-76.6343 302.982,-82.9604"/>
</g>
<!-- Node12 -->
<g id="node13" class="node"><title>Node12</title>
<g id="a_node13"><a xlink:href="main_8h.html" target="_top" xlink:title="The main.h file regroup global constant declaration. ">
<polygon fill="none" stroke="black" points="862.5,-0.5 862.5,-19.5 930.5,-19.5 930.5,-0.5 862.5,-0.5"/>
<text text-anchor="middle" x="896.5" y="-7.5" font-family="Helvetica,sans-Serif" font-size="10.00">../lib/main.h</text>
</a>
</g>
</g>
<!-- Node11&#45;&gt;Node12 -->
<g id="edge12" class="edge"><title>Node11&#45;&gt;Node12</title>
<path fill="none" stroke="midnightblue" d="M367.094,-61.3308C468.827,-51.6591 743.892,-25.5085 852.004,-15.2303"/>
<polygon fill="midnightblue" stroke="midnightblue" points="852.612,-18.6883 862.236,-14.2575 851.949,-11.7197 852.612,-18.6883"/>
</g>
<!-- Node13&#45;&gt;Node11 -->
<g id="edge14" class="edge"><title>Node13&#45;&gt;Node11</title>
<path fill="none" stroke="midnightblue" d="M328.5,-112.083C328.5,-105.006 328.5,-94.8611 328.5,-85.9865"/>
<polygon fill="midnightblue" stroke="midnightblue" points="332,-85.751 328.5,-75.7511 325,-85.7511 332,-85.751"/>
</g>
<!-- Node14&#45;&gt;Node12 -->
<g id="edge16" class="edge"><title>Node14&#45;&gt;Node12</title>
<path fill="none" stroke="midnightblue" d="M988.653,-112.368C971.931,-93.9744 932.565,-50.6712 911.093,-27.0519"/>
<polygon fill="midnightblue" stroke="midnightblue" points="913.627,-24.6365 904.31,-19.5914 908.447,-29.3452 913.627,-24.6365"/>
</g>
<!-- Node16&#45;&gt;Node12 -->
<g id="edge19" class="edge"><title>Node16&#45;&gt;Node12</title>
<path fill="none" stroke="midnightblue" d="M896.5,-112.368C896.5,-94.617 896.5,-53.6664 896.5,-29.5974"/>
<polygon fill="midnightblue" stroke="midnightblue" points="900,-29.5914 896.5,-19.5914 893,-29.5915 900,-29.5914"/>
</g>
<!-- Node16&#45;&gt;Node15 -->
<g id="edge20" class="edge"><title>Node16&#45;&gt;Node15</title>
<path fill="none" stroke="midnightblue" d="M863.225,-112.444C827.052,-103.142 769.123,-88.246 729.519,-78.062"/>
<polygon fill="midnightblue" stroke="midnightblue" points="730.176,-74.6172 719.619,-75.5164 728.433,-81.3966 730.176,-74.6172"/>
</g>
<!-- Node17&#45;&gt;Node15 -->
<g id="edge22" class="edge"><title>Node17&#45;&gt;Node15</title>
<path fill="none" stroke="midnightblue" d="M592.495,-112.324C610.538,-103.625 638.547,-90.1202 659.303,-80.113"/>
<polygon fill="midnightblue" stroke="midnightblue" points="661.062,-83.1502 668.55,-75.6545 658.022,-76.8449 661.062,-83.1502"/>
</g>
<!-- Node18&#45;&gt;Node15 -->
<g id="edge24" class="edge"><title>Node18&#45;&gt;Node15</title>
<path fill="none" stroke="midnightblue" d="M686.5,-112.083C686.5,-105.006 686.5,-94.8611 686.5,-85.9865"/>
<polygon fill="midnightblue" stroke="midnightblue" points="690,-85.751 686.5,-75.7511 683,-85.7511 690,-85.751"/>
</g>
<!-- Node19&#45;&gt;Node15 -->
<g id="edge26" class="edge"><title>Node19&#45;&gt;Node15</title>
<path fill="none" stroke="midnightblue" d="M774.63,-112.324C757.791,-103.664 731.693,-90.2424 712.262,-80.249"/>
<polygon fill="midnightblue" stroke="midnightblue" points="713.822,-77.1155 703.328,-75.6545 710.62,-83.3405 713.822,-77.1155"/>
</g>
</g>
</svg>
        <g id="navigator" transform="translate(0 0)" fill="#404254">
                <rect fill="#f2f5e9" fill-opacity="0.5" stroke="#606060" stroke-width=".5" x="0" y="0" width="60" height="60"/>
                <use id="zoomplus" xlink:href="#zoomPlus" x="17" y="9" onmousedown="handleZoom(evt,'in')"/>
                <use id="zoomminus" xlink:href="#zoomMin" x="42" y="9" onmousedown="handleZoom(evt,'out')"/>
                <use id="reset" xlink:href="#resetDef" x="30" y="36" onmousedown="handleReset()"/>
                <g id="arrowUp" xlink:href="#dirArrow" transform="translate(30 24)" onmousedown="handlePan(0,-1)">
                  <use xlink:href="#rim" fill="#404040">
                        <set attributeName="fill" to="#808080" begin="arrowUp.mouseover" end="arrowUp.mouseout"/>
                  </use>
                  <path fill="none" stroke="white" stroke-width="1.5" d="M0,-3.0v7 M-2.5,-0.5L0,-3.0L2.5,-0.5"/>
                </g>
                <g id="arrowRight" xlink:href="#dirArrow" transform="rotate(90) translate(36 -43)" onmousedown="handlePan(1,0)">
                  <use xlink:href="#rim" fill="#404040">
                        <set attributeName="fill" to="#808080" begin="arrowRight.mouseover" end="arrowRight.mouseout"/>
                  </use>
                  <path fill="none" stroke="white" stroke-width="1.5" d="M0,-3.0v7 M-2.5,-0.5L0,-3.0L2.5,-0.5"/>
                </g>
                <g id="arrowDown" xlink:href="#dirArrow" transform="rotate(180) translate(-30 -48)" onmousedown="handlePan(0,1)">
                  <use xlink:href="#rim" fill="#404040">
                        <set attributeName="fill" to="#808080" begin="arrowDown.mouseover" end="arrowDown.mouseout"/>
                  </use>
                  <path fill="none" stroke="white" stroke-width="1.5" d="M0,-3.0v7 M-2.5,-0.5L0,-3.0L2.5,-0.5"/>
                </g>
                <g id="arrowLeft" xlink:href="#dirArrow" transform="rotate(270) translate(-36 17)" onmousedown="handlePan(-1,0)">
                  <use xlink:href="#rim" fill="#404040">
                        <set attributeName="fill" to="#808080" begin="arrowLeft.mouseover" end="arrowLeft.mouseout"/>
                  </use>
                  <path fill="none" stroke="white" stroke-width="1.5" d="M0,-3.0v7 M-2.5,-0.5L0,-3.0L2.5,-0.5"/>
                </g>
        </g>
        <svg viewBox="0 0 15 15" width="100%" height="30px" preserveAspectRatio="xMaxYMin meet">
         <g id="arrow_out" transform="scale(0.3 0.3)">
          <a xlink:href="_power_8cpp__incl_org.svg" target="_base">
           <rect id="button" ry="5" rx="5" y="6" x="6" height="38" width="38"
                fill="#f2f5e9" fill-opacity="0.5" stroke="#606060" stroke-width="1.0"/>
           <path id="arrow"
             d="M 11.500037,31.436501 C 11.940474,20.09759 22.043105,11.32322 32.158766,21.979434 L 37.068811,17.246167 C 37.068811,17.246167 37.088388,32 37.088388,32 L 22.160133,31.978069 C 22.160133,31.978069 26.997745,27.140456 26.997745,27.140456 C 18.528582,18.264221 13.291696,25.230495 11.500037,31.436501 z"
             style="fill:#404040;"/>
          </a>
         </g>
        </svg>
</svg>
