<?xml version="1.0" encoding="UTF-8" standalone="no"?>
<!DOCTYPE svg PUBLIC "-//W3C//DTD SVG 1.1//EN"
 "http://www.w3.org/Graphics/SVG/1.1/DTD/svg11.dtd">
<!-- Generated by graphviz version 2.38.0 (20140413.2041)
 -->
<!-- Title: RTC.h Pages: 1 -->
<svg width="1031pt" height="140pt"
 viewBox="0.00 0.00 1030.50 140.00" xmlns="http://www.w3.org/2000/svg" xmlns:xlink="http://www.w3.org/1999/xlink">
<g id="graph0" class="graph" transform="scale(1 1) rotate(0) translate(4 136)">
<title>RTC.h</title>
<!-- Node1 -->
<g id="node1" class="node"><title>Node1</title>
<polygon fill="#bfbfbf" stroke="black" points="306,-112.5 306,-131.5 352,-131.5 352,-112.5 306,-112.5"/>
<text text-anchor="middle" x="329" y="-119.5" font-family="Helvetica,sans-Serif" font-size="10.00">RTC.h</text>
</g>
<!-- Node2 -->
<g id="node2" class="node"><title>Node2</title>
<g id="a_node2"><a xlink:href="_f_s_m_8h.html" target="_top" xlink:title="The FSM is the finish state machine mechanism. ">
<polygon fill="none" stroke="black" points="424,-56.5 424,-75.5 470,-75.5 470,-56.5 424,-56.5"/>
<text text-anchor="middle" x="447" y="-63.5" font-family="Helvetica,sans-Serif" font-size="10.00">FSM.h</text>
</a>
</g>
</g>
<!-- Node1&#45;&gt;Node2 -->
<g id="edge1" class="edge"><title>Node1&#45;&gt;Node2</title>
<path fill="none" stroke="midnightblue" d="M356.9,-108.232C378.973,-98.1312 409.176,-84.3091 428.39,-75.5164"/>
<polygon fill="midnightblue" stroke="midnightblue" points="355.334,-105.1 347.697,-112.444 358.247,-111.465 355.334,-105.1"/>
</g>
<!-- Node7 -->
<g id="node7" class="node"><title>Node7</title>
<g id="a_node7"><a xlink:href="_r_t_c_8cpp.html" target="_top" xlink:title="Brief description of file. ">
<polygon fill="none" stroke="black" points="0,-0.5 0,-19.5 56,-19.5 56,-0.5 0,-0.5"/>
<text text-anchor="middle" x="28" y="-7.5" font-family="Helvetica,sans-Serif" font-size="10.00">RTC.cpp</text>
</a>
</g>
</g>
<!-- Node1&#45;&gt;Node7 -->
<g id="edge14" class="edge"><title>Node1&#45;&gt;Node7</title>
<path fill="none" stroke="midnightblue" d="M296.346,-109.067C235.253,-86.7404 105.033,-39.1517 51.6131,-19.6294"/>
<polygon fill="midnightblue" stroke="midnightblue" points="295.287,-112.406 305.881,-112.551 297.69,-105.831 295.287,-112.406"/>
</g>
<!-- Node3 -->
<g id="node3" class="node"><title>Node3</title>
<g id="a_node3"><a xlink:href="_anemometer_8cpp.html" target="_top" xlink:title="Brief description of file. ">
<polygon fill="none" stroke="black" points="74.5,-0.5 74.5,-19.5 165.5,-19.5 165.5,-0.5 74.5,-0.5"/>
<text text-anchor="middle" x="120" y="-7.5" font-family="Helvetica,sans-Serif" font-size="10.00">Anemometer.cpp</text>
</a>
</g>
</g>
<!-- Node2&#45;&gt;Node3 -->
<g id="edge2" class="edge"><title>Node2&#45;&gt;Node3</title>
<path fill="none" stroke="midnightblue" d="M413.865,-59.5282C355.032,-49.8126 232.258,-29.538 165.535,-18.5195"/>
<polygon fill="midnightblue" stroke="midnightblue" points="413.308,-62.9836 423.745,-61.1597 414.449,-56.0771 413.308,-62.9836"/>
</g>
<!-- Node4 -->
<g id="node4" class="node"><title>Node4</title>
<g id="a_node4"><a xlink:href="_f_s_m_8cpp.html" target="_top" xlink:title="Brief description of file. ">
<polygon fill="none" stroke="black" points="184,-0.5 184,-19.5 240,-19.5 240,-0.5 184,-0.5"/>
<text text-anchor="middle" x="212" y="-7.5" font-family="Helvetica,sans-Serif" font-size="10.00">FSM.cpp</text>
</a>
</g>
</g>
<!-- Node2&#45;&gt;Node4 -->
<g id="edge3" class="edge"><title>Node2&#45;&gt;Node4</title>
<path fill="none" stroke="midnightblue" d="M413.967,-57.653C374.631,-48.8669 306.96,-33.6347 249,-20 246.168,-19.3339 243.217,-18.6309 240.271,-17.9234"/>
<polygon fill="midnightblue" stroke="midnightblue" points="413.285,-61.0867 423.807,-59.8483 414.809,-54.2546 413.285,-61.0867"/>
</g>
<!-- Node5 -->
<g id="node5" class="node"><title>Node5</title>
<g id="a_node5"><a xlink:href="main_8cpp.html" target="_top" xlink:title="This is the main file, is the firmware&#39;s body. ">
<polygon fill="none" stroke="black" points="258,-0.5 258,-19.5 314,-19.5 314,-0.5 258,-0.5"/>
<text text-anchor="middle" x="286" y="-7.5" font-family="Helvetica,sans-Serif" font-size="10.00">main.cpp</text>
</a>
</g>
</g>
<!-- Node2&#45;&gt;Node5 -->
<g id="edge4" class="edge"><title>Node2&#45;&gt;Node5</title>
<path fill="none" stroke="midnightblue" d="M414.212,-54.0026C383.809,-43.8054 339.2,-28.8435 311.415,-19.5243"/>
<polygon fill="midnightblue" stroke="midnightblue" points="413.339,-57.4014 423.933,-57.2631 415.565,-50.7648 413.339,-57.4014"/>
</g>
<!-- Node6 -->
<g id="node6" class="node"><title>Node6</title>
<g id="a_node6"><a xlink:href="_power_8cpp.html" target="_top" xlink:title="Power.cpp">
<polygon fill="none" stroke="black" points="332.5,-0.5 332.5,-19.5 395.5,-19.5 395.5,-0.5 332.5,-0.5"/>
<text text-anchor="middle" x="364" y="-7.5" font-family="Helvetica,sans-Serif" font-size="10.00">Power.cpp</text>
</a>
</g>
</g>
<!-- Node2&#45;&gt;Node6 -->
<g id="edge5" class="edge"><title>Node2&#45;&gt;Node6</title>
<path fill="none" stroke="midnightblue" d="M424.901,-50.6221C409.738,-40.7574 390.117,-27.9919 377.302,-19.6545"/>
<polygon fill="midnightblue" stroke="midnightblue" points="423.374,-53.8042 433.665,-56.324 427.191,-47.9367 423.374,-53.8042"/>
</g>
<!-- Node2&#45;&gt;Node7 -->
<g id="edge6" class="edge"><title>Node2&#45;&gt;Node7</title>
<path fill="none" stroke="midnightblue" d="M413.267,-62.4109C346.435,-56.9766 192.628,-42.9523 65,-20 62.1371,-19.4851 59.1653,-18.8814 56.2067,-18.2345"/>
<polygon fill="midnightblue" stroke="midnightblue" points="413.352,-65.9289 423.6,-63.2386 413.911,-58.9512 413.352,-65.9289"/>
</g>
<!-- Node8 -->
<g id="node8" class="node"><title>Node8</title>
<g id="a_node8"><a xlink:href="_sensor_8cpp.html" target="_top" xlink:title="Brief description of file. ">
<polygon fill="none" stroke="black" points="414,-0.5 414,-19.5 480,-19.5 480,-0.5 414,-0.5"/>
<text text-anchor="middle" x="447" y="-7.5" font-family="Helvetica,sans-Serif" font-size="10.00">Sensor.cpp</text>
</a>
</g>
</g>
<!-- Node2&#45;&gt;Node8 -->
<g id="edge7" class="edge"><title>Node2&#45;&gt;Node8</title>
<path fill="none" stroke="midnightblue" d="M447,-45.8045C447,-36.9102 447,-26.7798 447,-19.7511"/>
<polygon fill="midnightblue" stroke="midnightblue" points="443.5,-46.083 447,-56.083 450.5,-46.083 443.5,-46.083"/>
</g>
<!-- Node9 -->
<g id="node9" class="node"><title>Node9</title>
<g id="a_node9"><a xlink:href="st___config_8cpp.html" target="_top" xlink:title="st_Config.cpp">
<polygon fill="none" stroke="black" points="498.5,-0.5 498.5,-19.5 575.5,-19.5 575.5,-0.5 498.5,-0.5"/>
<text text-anchor="middle" x="537" y="-7.5" font-family="Helvetica,sans-Serif" font-size="10.00">st_Config.cpp</text>
</a>
</g>
</g>
<!-- Node2&#45;&gt;Node9 -->
<g id="edge8" class="edge"><title>Node2&#45;&gt;Node9</title>
<path fill="none" stroke="midnightblue" d="M470.038,-51.1774C486.599,-41.2407 508.418,-28.1492 522.576,-19.6545"/>
<polygon fill="midnightblue" stroke="midnightblue" points="468.234,-48.1777 461.46,-56.324 471.836,-54.1802 468.234,-48.1777"/>
</g>
<!-- Node10 -->
<g id="node10" class="node"><title>Node10</title>
<g id="a_node10"><a xlink:href="st___measure_8cpp.html" target="_top" xlink:title="st_Measure.cpp">
<polygon fill="none" stroke="black" points="594,-0.5 594,-19.5 680,-19.5 680,-0.5 594,-0.5"/>
<text text-anchor="middle" x="637" y="-7.5" font-family="Helvetica,sans-Serif" font-size="10.00">st_Measure.cpp</text>
</a>
</g>
</g>
<!-- Node2&#45;&gt;Node10 -->
<g id="edge9" class="edge"><title>Node2&#45;&gt;Node10</title>
<path fill="none" stroke="midnightblue" d="M480.25,-55.5499C516.032,-45.3804 572.436,-29.3498 606.933,-19.5453"/>
<polygon fill="midnightblue" stroke="midnightblue" points="478.96,-52.278 470.298,-58.3785 480.874,-59.0113 478.96,-52.278"/>
</g>
<!-- Node11 -->
<g id="node11" class="node"><title>Node11</title>
<g id="a_node11"><a xlink:href="st___output_8cpp.html" target="_top" xlink:title="st_Output.cpp">
<polygon fill="none" stroke="black" points="698,-0.5 698,-19.5 776,-19.5 776,-0.5 698,-0.5"/>
<text text-anchor="middle" x="737" y="-7.5" font-family="Helvetica,sans-Serif" font-size="10.00">st_Output.cpp</text>
</a>
</g>
</g>
<!-- Node2&#45;&gt;Node11 -->
<g id="edge10" class="edge"><title>Node2&#45;&gt;Node11</title>
<path fill="none" stroke="midnightblue" d="M480.149,-58.8522C526.771,-50.2019 614.368,-33.9357 689,-20 691.917,-19.4553 694.934,-18.8913 697.968,-18.3235"/>
<polygon fill="midnightblue" stroke="midnightblue" points="479.219,-55.4648 470.026,-60.7303 480.496,-62.3474 479.219,-55.4648"/>
</g>
<!-- Node12 -->
<g id="node12" class="node"><title>Node12</title>
<g id="a_node12"><a xlink:href="st___sleep_8cpp.html" target="_top" xlink:title="st_Sleep.cpp">
<polygon fill="none" stroke="black" points="794,-0.5 794,-19.5 868,-19.5 868,-0.5 794,-0.5"/>
<text text-anchor="middle" x="831" y="-7.5" font-family="Helvetica,sans-Serif" font-size="10.00">st_Sleep.cpp</text>
</a>
</g>
</g>
<!-- Node2&#45;&gt;Node12 -->
<g id="edge11" class="edge"><title>Node2&#45;&gt;Node12</title>
<path fill="none" stroke="midnightblue" d="M480.147,-61.2657C540.807,-54.2809 673.684,-38.2823 785,-20 787.891,-19.5252 790.878,-19.006 793.878,-18.4642"/>
<polygon fill="midnightblue" stroke="midnightblue" points="479.559,-57.81 470.022,-62.4248 480.355,-64.7646 479.559,-57.81"/>
</g>
<!-- Node13 -->
<g id="node13" class="node"><title>Node13</title>
<g id="a_node13"><a xlink:href="_state_8cpp.html" target="_top" xlink:title="Brief description of file. ">
<polygon fill="none" stroke="black" points="886.5,-0.5 886.5,-19.5 945.5,-19.5 945.5,-0.5 886.5,-0.5"/>
<text text-anchor="middle" x="916" y="-7.5" font-family="Helvetica,sans-Serif" font-size="10.00">State.cpp</text>
</a>
</g>
</g>
<!-- Node2&#45;&gt;Node13 -->
<g id="edge12" class="edge"><title>Node2&#45;&gt;Node13</title>
<path fill="none" stroke="midnightblue" d="M480.814,-62.8767C553.628,-57.9947 730.528,-44.4703 877,-20 880.016,-19.4962 883.147,-18.8997 886.265,-18.2573"/>
<polygon fill="midnightblue" stroke="midnightblue" points="480.189,-59.4102 470.441,-63.5605 480.65,-66.395 480.189,-59.4102"/>
</g>
<!-- Node14 -->
<g id="node14" class="node"><title>Node14</title>
<g id="a_node14"><a xlink:href="_usart_8cpp.html" target="_top" xlink:title="This is the uart library for the atmega1284p. ">
<polygon fill="none" stroke="black" points="963.5,-0.5 963.5,-19.5 1022.5,-19.5 1022.5,-0.5 963.5,-0.5"/>
<text text-anchor="middle" x="993" y="-7.5" font-family="Helvetica,sans-Serif" font-size="10.00">Usart.cpp</text>
</a>
</g>
</g>
<!-- Node2&#45;&gt;Node14 -->
<g id="edge13" class="edge"><title>Node2&#45;&gt;Node14</title>
<path fill="none" stroke="midnightblue" d="M480.335,-63.7115C561.828,-60.2008 777.459,-48.7342 955,-20 957.677,-19.5667 960.445,-19.0491 963.211,-18.4841"/>
<polygon fill="midnightblue" stroke="midnightblue" points="480.029,-60.2211 470.185,-64.1371 480.323,-67.215 480.029,-60.2211"/>
</g>
</g>
</svg>
