<?xml version="1.0" encoding="UTF-8" standalone="no"?>
<!DOCTYPE svg PUBLIC "-//W3C//DTD SVG 1.1//EN"
 "http://www.w3.org/Graphics/SVG/1.1/DTD/svg11.dtd">
<!-- Generated by graphviz version 2.38.0 (20140413.2041)
 -->
<!-- Title: RTC.cpp Pages: 1 -->
<svg width="987pt" height="252pt"
 viewBox="0.00 0.00 986.50 252.00" xmlns="http://www.w3.org/2000/svg" xmlns:xlink="http://www.w3.org/1999/xlink">
<g id="graph0" class="graph" transform="scale(1 1) rotate(0) translate(4 248)">
<title>RTC.cpp</title>
<!-- Node0 -->
<g id="node1" class="node"><title>Node0</title>
<polygon fill="#bfbfbf" stroke="black" points="142,-224.5 142,-243.5 198,-243.5 198,-224.5 142,-224.5"/>
<text text-anchor="middle" x="170" y="-231.5" font-family="Helvetica,sans-Serif" font-size="10.00">RTC.cpp</text>
</g>
<!-- Node1 -->
<g id="node2" class="node"><title>Node1</title>
<polygon fill="none" stroke="#bfbfbf" points="52.5,-168.5 52.5,-187.5 101.5,-187.5 101.5,-168.5 52.5,-168.5"/>
<text text-anchor="middle" x="77" y="-175.5" font-family="Helvetica,sans-Serif" font-size="10.00">avr/io.h</text>
</g>
<!-- Node0&#45;&gt;Node1 -->
<g id="edge1" class="edge"><title>Node0&#45;&gt;Node1</title>
<path fill="none" stroke="midnightblue" d="M155.058,-224.324C140.415,-215.822 117.866,-202.729 100.762,-192.797"/>
<polygon fill="midnightblue" stroke="midnightblue" points="102.31,-189.649 91.905,-187.655 98.7954,-195.703 102.31,-189.649"/>
</g>
<!-- Node2 -->
<g id="node3" class="node"><title>Node2</title>
<polygon fill="none" stroke="#bfbfbf" points="120,-168.5 120,-187.5 168,-187.5 168,-168.5 120,-168.5"/>
<text text-anchor="middle" x="144" y="-175.5" font-family="Helvetica,sans-Serif" font-size="10.00">stdlib.h</text>
</g>
<!-- Node0&#45;&gt;Node2 -->
<g id="edge2" class="edge"><title>Node0&#45;&gt;Node2</title>
<path fill="none" stroke="midnightblue" d="M165.707,-224.083C162.148,-216.691 156.978,-205.953 152.576,-196.811"/>
<polygon fill="midnightblue" stroke="midnightblue" points="155.705,-195.243 148.213,-187.751 149.398,-198.279 155.705,-195.243"/>
</g>
<!-- Node3 -->
<g id="node4" class="node"><title>Node3</title>
<g id="a_node4"><a xlink:href="_r_t_c_8h.html" target="_top" xlink:title="The RTC class regroup methods and parameters to use the Real Time Clock : pcf8563. ">
<polygon fill="none" stroke="black" points="0,-112.5 0,-131.5 68,-131.5 68,-112.5 0,-112.5"/>
<text text-anchor="middle" x="34" y="-119.5" font-family="Helvetica,sans-Serif" font-size="10.00">../lib/RTC.h</text>
</a>
</g>
</g>
<!-- Node0&#45;&gt;Node3 -->
<g id="edge3" class="edge"><title>Node0&#45;&gt;Node3</title>
<path fill="none" stroke="midnightblue" d="M174.281,-224.463C180.333,-211.051 189.354,-184.838 177,-168 170.915,-159.706 117.804,-144.493 78.0734,-134.07"/>
<polygon fill="midnightblue" stroke="midnightblue" points="78.8562,-130.658 68.2974,-131.531 77.0962,-137.433 78.8562,-130.658"/>
</g>
<!-- Node4 -->
<g id="node5" class="node"><title>Node4</title>
<g id="a_node5"><a xlink:href="_f_s_m_8h.html" target="_top" xlink:title="The FSM is the finish state machine mechanism. ">
<polygon fill="none" stroke="black" points="424,-168.5 424,-187.5 492,-187.5 492,-168.5 424,-168.5"/>
<text text-anchor="middle" x="458" y="-175.5" font-family="Helvetica,sans-Serif" font-size="10.00">../lib/FSM.h</text>
</a>
</g>
</g>
<!-- Node0&#45;&gt;Node4 -->
<g id="edge4" class="edge"><title>Node0&#45;&gt;Node4</title>
<path fill="none" stroke="midnightblue" d="M198.139,-227.724C248.314,-218.316 353.58,-198.579 413.598,-187.325"/>
<polygon fill="midnightblue" stroke="midnightblue" points="414.357,-190.744 423.541,-185.461 413.067,-183.864 414.357,-190.744"/>
</g>
<!-- Node4&#45;&gt;Node3 -->
<g id="edge7" class="edge"><title>Node4&#45;&gt;Node3</title>
<path fill="none" stroke="midnightblue" d="M423.964,-174.003C358.806,-168.044 211.77,-153.539 78.2161,-132.072"/>
<polygon fill="midnightblue" stroke="midnightblue" points="78.6482,-128.596 68.2163,-130.447 77.5256,-135.506 78.6482,-128.596"/>
</g>
<!-- Node5 -->
<g id="node6" class="node"><title>Node5</title>
<g id="a_node6"><a xlink:href="_usart_8h.html" target="_top" xlink:title="This is the uart library for the atmega1284p. ">
<polygon fill="none" stroke="black" points="86.5,-112.5 86.5,-131.5 157.5,-131.5 157.5,-112.5 86.5,-112.5"/>
<text text-anchor="middle" x="122" y="-119.5" font-family="Helvetica,sans-Serif" font-size="10.00">../lib/Usart.h</text>
</a>
</g>
</g>
<!-- Node4&#45;&gt;Node5 -->
<g id="edge5" class="edge"><title>Node4&#45;&gt;Node5</title>
<path fill="none" stroke="midnightblue" d="M423.745,-172.274C370.918,-164.867 266.156,-149.7 167.639,-132.227"/>
<polygon fill="midnightblue" stroke="midnightblue" points="167.972,-128.732 157.513,-130.419 166.742,-135.623 167.972,-128.732"/>
</g>
<!-- Node6 -->
<g id="node7" class="node"><title>Node6</title>
<g id="a_node7"><a xlink:href="_t_w_i_8h.html" target="_top" xlink:title="Brief description of file. ">
<polygon fill="none" stroke="black" points="175.5,-112.5 175.5,-131.5 240.5,-131.5 240.5,-112.5 175.5,-112.5"/>
<text text-anchor="middle" x="208" y="-119.5" font-family="Helvetica,sans-Serif" font-size="10.00">../lib/TWI.h</text>
</a>
</g>
</g>
<!-- Node4&#45;&gt;Node6 -->
<g id="edge6" class="edge"><title>Node4&#45;&gt;Node6</title>
<path fill="none" stroke="midnightblue" d="M423.763,-169.605C378.693,-159.87 299.468,-142.757 250.582,-132.198"/>
<polygon fill="midnightblue" stroke="midnightblue" points="251.148,-128.739 240.634,-130.049 249.67,-135.581 251.148,-128.739"/>
</g>
<!-- Node7 -->
<g id="node8" class="node"><title>Node7</title>
<g id="a_node8"><a xlink:href="_windvane_8h.html" target="_top" xlink:title="Brief description of file. ">
<polygon fill="none" stroke="black" points="259,-112.5 259,-131.5 349,-131.5 349,-112.5 259,-112.5"/>
<text text-anchor="middle" x="304" y="-119.5" font-family="Helvetica,sans-Serif" font-size="10.00">../lib/Windvane.h</text>
</a>
</g>
</g>
<!-- Node4&#45;&gt;Node7 -->
<g id="edge8" class="edge"><title>Node4&#45;&gt;Node7</title>
<path fill="none" stroke="midnightblue" d="M433.598,-168.444C407.803,-159.399 366.923,-145.064 337.982,-134.916"/>
<polygon fill="midnightblue" stroke="midnightblue" points="338.882,-131.523 328.288,-131.516 336.566,-138.128 338.882,-131.523"/>
</g>
<!-- Node10 -->
<g id="node11" class="node"><title>Node10</title>
<g id="a_node11"><a xlink:href="_anemometer_8h.html" target="_top" xlink:title="Brief description of file. ">
<polygon fill="none" stroke="black" points="367,-112.5 367,-131.5 469,-131.5 469,-112.5 367,-112.5"/>
<text text-anchor="middle" x="418" y="-119.5" font-family="Helvetica,sans-Serif" font-size="10.00">../lib/Anemometer.h</text>
</a>
</g>
</g>
<!-- Node4&#45;&gt;Node10 -->
<g id="edge11" class="edge"><title>Node4&#45;&gt;Node10</title>
<path fill="none" stroke="midnightblue" d="M451.395,-168.083C445.745,-160.455 437.455,-149.264 430.549,-139.941"/>
<polygon fill="midnightblue" stroke="midnightblue" points="433.247,-137.703 424.482,-131.751 427.622,-141.87 433.247,-137.703"/>
</g>
<!-- Node11 -->
<g id="node12" class="node"><title>Node11</title>
<g id="a_node12"><a xlink:href="_power_8h.html" target="_top" xlink:title="../lib/Power.h">
<polygon fill="none" stroke="black" points="467,-56.5 467,-75.5 541,-75.5 541,-56.5 467,-56.5"/>
<text text-anchor="middle" x="504" y="-63.5" font-family="Helvetica,sans-Serif" font-size="10.00">../lib/Power.h</text>
</a>
</g>
</g>
<!-- Node4&#45;&gt;Node11 -->
<g id="edge13" class="edge"><title>Node4&#45;&gt;Node11</title>
<path fill="none" stroke="midnightblue" d="M461.931,-168.415C466.036,-159.391 472.615,-144.76 478,-132 484.572,-116.428 491.676,-98.5939 496.795,-85.5499"/>
<polygon fill="midnightblue" stroke="midnightblue" points="500.196,-86.4627 500.573,-75.8746 493.675,-83.9168 500.196,-86.4627"/>
</g>
<!-- Node12 -->
<g id="node13" class="node"><title>Node12</title>
<g id="a_node13"><a xlink:href="_state_8h.html" target="_top" xlink:title="Brief description of file. ">
<polygon fill="none" stroke="black" points="689,-56.5 689,-75.5 759,-75.5 759,-56.5 689,-56.5"/>
<text text-anchor="middle" x="724" y="-63.5" font-family="Helvetica,sans-Serif" font-size="10.00">../lib/State.h</text>
</a>
</g>
</g>
<!-- Node4&#45;&gt;Node12 -->
<g id="edge15" class="edge"><title>Node4&#45;&gt;Node12</title>
<path fill="none" stroke="midnightblue" d="M468.236,-168.332C485.066,-154.498 520.107,-127.42 554,-112 594.468,-93.5883 643.906,-81.5621 679.013,-74.6144"/>
<polygon fill="midnightblue" stroke="midnightblue" points="679.808,-78.0259 688.969,-72.7041 678.488,-71.1513 679.808,-78.0259"/>
</g>
<!-- Node13 -->
<g id="node14" class="node"><title>Node13</title>
<g id="a_node14"><a xlink:href="st___config_8h.html" target="_top" xlink:title="../lib/st_Config.h">
<polygon fill="none" stroke="black" points="889.5,-112.5 889.5,-131.5 978.5,-131.5 978.5,-112.5 889.5,-112.5"/>
<text text-anchor="middle" x="934" y="-119.5" font-family="Helvetica,sans-Serif" font-size="10.00">../lib/st_Config.h</text>
</a>
</g>
</g>
<!-- Node4&#45;&gt;Node13 -->
<g id="edge16" class="edge"><title>Node4&#45;&gt;Node13</title>
<path fill="none" stroke="midnightblue" d="M492.082,-174.099C562.46,-167.954 729.165,-152.594 879.185,-132.179"/>
<polygon fill="midnightblue" stroke="midnightblue" points="880.067,-135.591 889.498,-130.763 879.115,-128.656 880.067,-135.591"/>
</g>
<!-- Node14 -->
<g id="node15" class="node"><title>Node14</title>
<g id="a_node15"><a xlink:href="st___measure_8h.html" target="_top" xlink:title="../lib/st_Measure.h">
<polygon fill="none" stroke="black" points="563,-112.5 563,-131.5 661,-131.5 661,-112.5 563,-112.5"/>
<text text-anchor="middle" x="612" y="-119.5" font-family="Helvetica,sans-Serif" font-size="10.00">../lib/st_Measure.h</text>
</a>
</g>
</g>
<!-- Node4&#45;&gt;Node14 -->
<g id="edge19" class="edge"><title>Node4&#45;&gt;Node14</title>
<path fill="none" stroke="midnightblue" d="M482.402,-168.444C508.197,-159.399 549.077,-145.064 578.018,-134.916"/>
<polygon fill="midnightblue" stroke="midnightblue" points="579.434,-138.128 587.712,-131.516 577.118,-131.523 579.434,-138.128"/>
</g>
<!-- Node15 -->
<g id="node16" class="node"><title>Node15</title>
<g id="a_node16"><a xlink:href="st___output_8h.html" target="_top" xlink:title="../lib/st_Output.h">
<polygon fill="none" stroke="black" points="679.5,-112.5 679.5,-131.5 768.5,-131.5 768.5,-112.5 679.5,-112.5"/>
<text text-anchor="middle" x="724" y="-119.5" font-family="Helvetica,sans-Serif" font-size="10.00">../lib/st_Output.h</text>
</a>
</g>
</g>
<!-- Node4&#45;&gt;Node15 -->
<g id="edge21" class="edge"><title>Node4&#45;&gt;Node15</title>
<path fill="none" stroke="midnightblue" d="M492.23,-170.051C537.84,-160.792 618.954,-144.325 672.107,-133.535"/>
<polygon fill="midnightblue" stroke="midnightblue" points="672.915,-136.942 682.019,-131.522 671.522,-130.082 672.915,-136.942"/>
</g>
<!-- Node16 -->
<g id="node17" class="node"><title>Node16</title>
<g id="a_node17"><a xlink:href="st___sleep_8h.html" target="_top" xlink:title="../lib/st_Sleep.h">
<polygon fill="none" stroke="black" points="786.5,-112.5 786.5,-131.5 871.5,-131.5 871.5,-112.5 786.5,-112.5"/>
<text text-anchor="middle" x="829" y="-119.5" font-family="Helvetica,sans-Serif" font-size="10.00">../lib/st_Sleep.h</text>
</a>
</g>
</g>
<!-- Node4&#45;&gt;Node16 -->
<g id="edge23" class="edge"><title>Node4&#45;&gt;Node16</title>
<path fill="none" stroke="midnightblue" d="M492.044,-172.553C548.722,-165.072 666.251,-149.232 776.491,-132.036"/>
<polygon fill="midnightblue" stroke="midnightblue" points="777.113,-135.482 786.451,-130.476 776.029,-128.566 777.113,-135.482"/>
</g>
<!-- Node8 -->
<g id="node9" class="node"><title>Node8</title>
<g id="a_node9"><a xlink:href="_sensor_8h.html" target="_top" xlink:title="This class is the base class of sensor. ">
<polygon fill="none" stroke="black" points="371.5,-56.5 371.5,-75.5 448.5,-75.5 448.5,-56.5 371.5,-56.5"/>
<text text-anchor="middle" x="410" y="-63.5" font-family="Helvetica,sans-Serif" font-size="10.00">../lib/Sensor.h</text>
</a>
</g>
</g>
<!-- Node7&#45;&gt;Node8 -->
<g id="edge9" class="edge"><title>Node7&#45;&gt;Node8</title>
<path fill="none" stroke="midnightblue" d="M321.031,-112.324C338.03,-103.664 364.376,-90.2424 383.993,-80.249"/>
<polygon fill="midnightblue" stroke="midnightblue" points="385.69,-83.3125 393.012,-75.6545 382.512,-77.0752 385.69,-83.3125"/>
</g>
<!-- Node9 -->
<g id="node10" class="node"><title>Node9</title>
<g id="a_node10"><a xlink:href="main_8h.html" target="_top" xlink:title="The main.h file regroup global constant declaration. ">
<polygon fill="none" stroke="black" points="470,-0.5 470,-19.5 538,-19.5 538,-0.5 470,-0.5"/>
<text text-anchor="middle" x="504" y="-7.5" font-family="Helvetica,sans-Serif" font-size="10.00">../lib/main.h</text>
</a>
</g>
</g>
<!-- Node8&#45;&gt;Node9 -->
<g id="edge10" class="edge"><title>Node8&#45;&gt;Node9</title>
<path fill="none" stroke="midnightblue" d="M425.103,-56.324C439.903,-47.8215 462.694,-34.7288 479.982,-24.7975"/>
<polygon fill="midnightblue" stroke="midnightblue" points="482.007,-27.6707 488.935,-19.6545 478.52,-21.6009 482.007,-27.6707"/>
</g>
<!-- Node10&#45;&gt;Node8 -->
<g id="edge12" class="edge"><title>Node10&#45;&gt;Node8</title>
<path fill="none" stroke="midnightblue" d="M416.679,-112.083C415.619,-104.927 414.094,-94.6353 412.769,-85.6911"/>
<polygon fill="midnightblue" stroke="midnightblue" points="416.224,-85.1302 411.296,-75.7511 409.3,-86.1561 416.224,-85.1302"/>
</g>
<!-- Node11&#45;&gt;Node9 -->
<g id="edge14" class="edge"><title>Node11&#45;&gt;Node9</title>
<path fill="none" stroke="midnightblue" d="M504,-56.083C504,-49.0059 504,-38.8611 504,-29.9865"/>
<polygon fill="midnightblue" stroke="midnightblue" points="507.5,-29.751 504,-19.7511 500.5,-29.7511 507.5,-29.751"/>
</g>
<!-- Node13&#45;&gt;Node9 -->
<g id="edge17" class="edge"><title>Node13&#45;&gt;Node9</title>
<path fill="none" stroke="midnightblue" d="M915.507,-112.311C885.291,-98.4478 823.168,-71.3289 768,-56 692.195,-34.9367 601.255,-22.0575 548.31,-15.7461"/>
<polygon fill="midnightblue" stroke="midnightblue" points="548.582,-12.2541 538.244,-14.5709 547.771,-19.2069 548.582,-12.2541"/>
</g>
<!-- Node13&#45;&gt;Node12 -->
<g id="edge18" class="edge"><title>Node13&#45;&gt;Node12</title>
<path fill="none" stroke="midnightblue" d="M900.725,-112.444C864.552,-103.142 806.623,-88.246 767.019,-78.062"/>
<polygon fill="midnightblue" stroke="midnightblue" points="767.676,-74.6172 757.119,-75.5164 765.933,-81.3966 767.676,-74.6172"/>
</g>
<!-- Node14&#45;&gt;Node12 -->
<g id="edge20" class="edge"><title>Node14&#45;&gt;Node12</title>
<path fill="none" stroke="midnightblue" d="M629.995,-112.324C648.038,-103.625 676.047,-90.1202 696.803,-80.113"/>
<polygon fill="midnightblue" stroke="midnightblue" points="698.562,-83.1502 706.05,-75.6545 695.522,-76.8449 698.562,-83.1502"/>
</g>
<!-- Node15&#45;&gt;Node12 -->
<g id="edge22" class="edge"><title>Node15&#45;&gt;Node12</title>
<path fill="none" stroke="midnightblue" d="M724,-112.083C724,-105.006 724,-94.8611 724,-85.9865"/>
<polygon fill="midnightblue" stroke="midnightblue" points="727.5,-85.751 724,-75.7511 720.5,-85.7511 727.5,-85.751"/>
</g>
<!-- Node16&#45;&gt;Node12 -->
<g id="edge24" class="edge"><title>Node16&#45;&gt;Node12</title>
<path fill="none" stroke="midnightblue" d="M812.13,-112.324C795.291,-103.664 769.193,-90.2424 749.762,-80.249"/>
<polygon fill="midnightblue" stroke="midnightblue" points="751.322,-77.1155 740.828,-75.6545 748.12,-83.3405 751.322,-77.1155"/>
</g>
</g>
</svg>
