<?xml version="1.0" encoding="UTF-8" standalone="no"?>
<!DOCTYPE svg PUBLIC "-//W3C//DTD SVG 1.1//EN"
 "http://www.w3.org/Graphics/SVG/1.1/DTD/svg11.dtd">
<!-- Generated by graphviz version 2.38.0 (20140413.2041)
 -->
<!-- Title: Sensor.cpp Pages: 1 -->
<!--zoomable 252 -->
<svg id="main" version="1.1" xmlns="http://www.w3.org/2000/svg" xmlns:xlink="http://www.w3.org/1999/xlink" xml:space="preserve" onload="init(evt)">
<style type="text/css"><![CDATA[
.edge:hover path { stroke: red; }
.edge:hover polygon { stroke: red; fill: red; }
]]></style>
<script type="text/javascript"><![CDATA[
var edges = document.getElementsByTagName('g');
if (edges && edges.length) {
  for (var i=0;i<edges.length;i++) {
    if (edges[i].id.substr(0,4)=='edge') {
      edges[i].setAttribute('class','edge');
    }
  }
}
]]></script>
        <defs>
                <circle id="rim" cx="0" cy="0" r="7"/>
                <circle id="rim2" cx="0" cy="0" r="3.5"/>
                <g id="zoomPlus">
                        <use xlink:href="#rim" fill="#404040">
                                <set attributeName="fill" to="#808080" begin="zoomplus.mouseover" end="zoomplus.mouseout"/>
                        </use>
                        <path d="M-4,0h8M0,-4v8" fill="none" stroke="white" stroke-width="1.5" pointer-events="none"/>
                </g>
                <g id="zoomMin">
                        <use xlink:href="#rim" fill="#404040">
                                <set attributeName="fill" to="#808080" begin="zoomminus.mouseover" end="zoomminus.mouseout"/>
                        </use>
                        <path d="M-4,0h8" fill="none" stroke="white" stroke-width="1.5" pointer-events="none"/>
                </g>
                <g id="dirArrow">
                        <path fill="none" stroke="white" stroke-width="1.5" d="M0,-3.0v7 M-2.5,-0.5L0,-3.0L2.5,-0.5"/>
                </g>
               <g id="resetDef">
                       <use xlink:href="#rim2" fill="#404040">
                               <set attributeName="fill" to="#808080" begin="reset.mouseover" end="reset.mouseout"/>
                       </use>
               </g>
        </defs>

<script type="text/javascript">
var viewWidth = 1005;
var viewHeight = 252;
var sectionId = 'dynsection-0';
</script>
<script xlink:href="svgpan.js"/>
<svg id="graph" class="graph">
<g id="viewport">
<title>Sensor.cpp</title>
<!-- Node0 -->
<g id="node1" class="node"><title>Node0</title>
<polygon fill="#bfbfbf" stroke="black" points="338.5,-224.5 338.5,-243.5 404.5,-243.5 404.5,-224.5 338.5,-224.5"/>
<text text-anchor="middle" x="371.5" y="-231.5" font-family="Helvetica,sans-Serif" font-size="10.00">Sensor.cpp</text>
</g>
<!-- Node1 -->
<g id="node2" class="node"><title>Node1</title>
<polygon fill="none" stroke="#bfbfbf" points="173,-168.5 173,-187.5 222,-187.5 222,-168.5 173,-168.5"/>
<text text-anchor="middle" x="197.5" y="-175.5" font-family="Helvetica,sans-Serif" font-size="10.00">avr/io.h</text>
</g>
<!-- Node0&#45;&gt;Node1 -->
<g id="edge1" class="edge"><title>Node0&#45;&gt;Node1</title>
<path fill="none" stroke="midnightblue" d="M343.929,-224.444C313.534,-215.011 264.601,-199.824 231.764,-189.634"/>
<polygon fill="midnightblue" stroke="midnightblue" points="232.717,-186.265 222.129,-186.643 230.642,-192.95 232.717,-186.265"/>
</g>
<!-- Node2 -->
<g id="node3" class="node"><title>Node2</title>
<polygon fill="none" stroke="#bfbfbf" points="240.5,-168.5 240.5,-187.5 288.5,-187.5 288.5,-168.5 240.5,-168.5"/>
<text text-anchor="middle" x="264.5" y="-175.5" font-family="Helvetica,sans-Serif" font-size="10.00">stdlib.h</text>
</g>
<!-- Node0&#45;&gt;Node2 -->
<g id="edge2" class="edge"><title>Node0&#45;&gt;Node2</title>
<path fill="none" stroke="midnightblue" d="M354.309,-224.324C337.149,-215.664 310.554,-202.242 290.753,-192.249"/>
<polygon fill="midnightblue" stroke="midnightblue" points="292.153,-189.035 281.649,-187.655 288.999,-195.285 292.153,-189.035"/>
</g>
<!-- Node3 -->
<g id="node4" class="node"><title>Node3</title>
<polygon fill="none" stroke="#bfbfbf" points="307,-168.5 307,-187.5 356,-187.5 356,-168.5 307,-168.5"/>
<text text-anchor="middle" x="331.5" y="-175.5" font-family="Helvetica,sans-Serif" font-size="10.00">string.h</text>
</g>
<!-- Node0&#45;&gt;Node3 -->
<g id="edge3" class="edge"><title>Node0&#45;&gt;Node3</title>
<path fill="none" stroke="midnightblue" d="M364.895,-224.083C359.245,-216.455 350.955,-205.264 344.049,-195.941"/>
<polygon fill="midnightblue" stroke="midnightblue" points="346.747,-193.703 337.982,-187.751 341.122,-197.87 346.747,-193.703"/>
</g>
<!-- Node4 -->
<g id="node5" class="node"><title>Node4</title>
<polygon fill="none" stroke="#bfbfbf" points="374.5,-168.5 374.5,-187.5 448.5,-187.5 448.5,-168.5 374.5,-168.5"/>
<text text-anchor="middle" x="411.5" y="-175.5" font-family="Helvetica,sans-Serif" font-size="10.00">avr/eeprom.h</text>
</g>
<!-- Node0&#45;&gt;Node4 -->
<g id="edge4" class="edge"><title>Node0&#45;&gt;Node4</title>
<path fill="none" stroke="midnightblue" d="M378.105,-224.083C383.755,-216.455 392.045,-205.264 398.951,-195.941"/>
<polygon fill="midnightblue" stroke="midnightblue" points="401.878,-197.87 405.018,-187.751 396.253,-193.703 401.878,-197.87"/>
</g>
<!-- Node5 -->
<g id="node6" class="node"><title>Node5</title>
<g id="a_node6"><a xlink:href="_f_s_m_8h.html" target="_top" xlink:title="The FSM is the finish state machine mechanism. ">
<polygon fill="none" stroke="black" points="466.5,-168.5 466.5,-187.5 534.5,-187.5 534.5,-168.5 466.5,-168.5"/>
<text text-anchor="middle" x="500.5" y="-175.5" font-family="Helvetica,sans-Serif" font-size="10.00">../lib/FSM.h</text>
</a>
</g>
</g>
<!-- Node0&#45;&gt;Node5 -->
<g id="edge5" class="edge"><title>Node0&#45;&gt;Node5</title>
<path fill="none" stroke="midnightblue" d="M391.94,-224.444C413.17,-215.557 446.599,-201.563 470.755,-191.451"/>
<polygon fill="midnightblue" stroke="midnightblue" points="472.282,-194.606 480.155,-187.516 469.579,-188.149 472.282,-194.606"/>
</g>
<!-- Node10 -->
<g id="node11" class="node"><title>Node10</title>
<g id="a_node11"><a xlink:href="_sensor_8h.html" target="_top" xlink:title="This class is the base class of sensor. ">
<polygon fill="none" stroke="black" points="788,-56.5 788,-75.5 865,-75.5 865,-56.5 788,-56.5"/>
<text text-anchor="middle" x="826.5" y="-63.5" font-family="Helvetica,sans-Serif" font-size="10.00">../lib/Sensor.h</text>
</a>
</g>
</g>
<!-- Node0&#45;&gt;Node10 -->
<g id="edge26" class="edge"><title>Node0&#45;&gt;Node10</title>
<path fill="none" stroke="midnightblue" d="M404.787,-232.931C521.939,-231.917 912.247,-221.751 988.5,-132 1022.81,-91.6116 934.645,-76.0709 875.324,-70.2774"/>
<polygon fill="midnightblue" stroke="midnightblue" points="875.624,-66.7903 865.347,-69.3669 874.988,-73.7614 875.624,-66.7903"/>
</g>
<!-- Node6 -->
<g id="node7" class="node"><title>Node6</title>
<g id="a_node7"><a xlink:href="_usart_8h.html" target="_top" xlink:title="This is the uart library for the atmega1284p. ">
<polygon fill="none" stroke="black" points="788,-112.5 788,-131.5 859,-131.5 859,-112.5 788,-112.5"/>
<text text-anchor="middle" x="823.5" y="-119.5" font-family="Helvetica,sans-Serif" font-size="10.00">../lib/Usart.h</text>
</a>
</g>
</g>
<!-- Node5&#45;&gt;Node6 -->
<g id="edge6" class="edge"><title>Node5&#45;&gt;Node6</title>
<path fill="none" stroke="midnightblue" d="M534.808,-171.864C585.571,-164.173 683.917,-148.926 777.722,-132.085"/>
<polygon fill="midnightblue" stroke="midnightblue" points="778.442,-135.512 787.661,-130.292 777.199,-128.623 778.442,-135.512"/>
</g>
<!-- Node7 -->
<g id="node8" class="node"><title>Node7</title>
<g id="a_node8"><a xlink:href="_t_w_i_8h.html" target="_top" xlink:title="Brief description of file. ">
<polygon fill="none" stroke="black" points="0,-112.5 0,-131.5 65,-131.5 65,-112.5 0,-112.5"/>
<text text-anchor="middle" x="32.5" y="-119.5" font-family="Helvetica,sans-Serif" font-size="10.00">../lib/TWI.h</text>
</a>
</g>
</g>
<!-- Node5&#45;&gt;Node7 -->
<g id="edge7" class="edge"><title>Node5&#45;&gt;Node7</title>
<path fill="none" stroke="midnightblue" d="M466.295,-169.478C463.328,-168.936 460.366,-168.433 457.5,-168 291.667,-142.933 245.248,-157.381 75.4759,-131.968"/>
<polygon fill="midnightblue" stroke="midnightblue" points="75.8601,-128.486 65.4474,-130.442 74.8073,-135.407 75.8601,-128.486"/>
</g>
<!-- Node8 -->
<g id="node9" class="node"><title>Node8</title>
<g id="a_node9"><a xlink:href="_r_t_c_8h.html" target="_top" xlink:title="The RTC class regroup methods and parameters to use the Real Time Clock : pcf8563. ">
<polygon fill="none" stroke="black" points="83.5,-112.5 83.5,-131.5 151.5,-131.5 151.5,-112.5 83.5,-112.5"/>
<text text-anchor="middle" x="117.5" y="-119.5" font-family="Helvetica,sans-Serif" font-size="10.00">../lib/RTC.h</text>
</a>
</g>
</g>
<!-- Node5&#45;&gt;Node8 -->
<g id="edge8" class="edge"><title>Node5&#45;&gt;Node8</title>
<path fill="none" stroke="midnightblue" d="M466.281,-169.569C463.317,-169.007 460.359,-168.475 457.5,-168 328.505,-146.587 294.713,-152.059 165.5,-132 164.228,-131.802 162.937,-131.597 161.635,-131.384"/>
<polygon fill="midnightblue" stroke="midnightblue" points="161.991,-127.894 151.543,-129.656 160.809,-134.794 161.991,-127.894"/>
</g>
<!-- Node9 -->
<g id="node10" class="node"><title>Node9</title>
<g id="a_node10"><a xlink:href="_windvane_8h.html" target="_top" xlink:title="Brief description of file. ">
<polygon fill="none" stroke="black" points="679.5,-112.5 679.5,-131.5 769.5,-131.5 769.5,-112.5 679.5,-112.5"/>
<text text-anchor="middle" x="724.5" y="-119.5" font-family="Helvetica,sans-Serif" font-size="10.00">../lib/Windvane.h</text>
</a>
</g>
</g>
<!-- Node5&#45;&gt;Node9 -->
<g id="edge9" class="edge"><title>Node5&#45;&gt;Node9</title>
<path fill="none" stroke="midnightblue" d="M534.521,-168.799C573.158,-159.484 636.375,-144.244 679.171,-133.927"/>
<polygon fill="midnightblue" stroke="midnightblue" points="680.146,-137.293 689.047,-131.547 678.505,-130.488 680.146,-137.293"/>
</g>
<!-- Node12 -->
<g id="node13" class="node"><title>Node12</title>
<g id="a_node13"><a xlink:href="_anemometer_8h.html" target="_top" xlink:title="Brief description of file. ">
<polygon fill="none" stroke="black" points="877.5,-112.5 877.5,-131.5 979.5,-131.5 979.5,-112.5 877.5,-112.5"/>
<text text-anchor="middle" x="928.5" y="-119.5" font-family="Helvetica,sans-Serif" font-size="10.00">../lib/Anemometer.h</text>
</a>
</g>
</g>
<!-- Node5&#45;&gt;Node12 -->
<g id="edge12" class="edge"><title>Node5&#45;&gt;Node12</title>
<path fill="none" stroke="midnightblue" d="M534.689,-173.091C597.965,-165.795 737.859,-149.379 867.174,-132.012"/>
<polygon fill="midnightblue" stroke="midnightblue" points="867.815,-135.458 877.258,-130.653 866.88,-128.52 867.815,-135.458"/>
</g>
<!-- Node13 -->
<g id="node14" class="node"><title>Node13</title>
<g id="a_node14"><a xlink:href="_power_8h.html" target="_top" xlink:title="../lib/Power.h">
<polygon fill="none" stroke="black" points="146.5,-56.5 146.5,-75.5 220.5,-75.5 220.5,-56.5 146.5,-56.5"/>
<text text-anchor="middle" x="183.5" y="-63.5" font-family="Helvetica,sans-Serif" font-size="10.00">../lib/Power.h</text>
</a>
</g>
</g>
<!-- Node5&#45;&gt;Node13 -->
<g id="edge14" class="edge"><title>Node5&#45;&gt;Node13</title>
<path fill="none" stroke="midnightblue" d="M466.273,-169.617C463.311,-169.044 460.355,-168.497 457.5,-168 400.251,-158.042 241.37,-171.227 198.5,-132 185.836,-120.412 182.808,-100.453 182.503,-85.7014"/>
<polygon fill="midnightblue" stroke="midnightblue" points="186.003,-85.7225 182.687,-75.6602 179.005,-85.5947 186.003,-85.7225"/>
</g>
<!-- Node14 -->
<g id="node15" class="node"><title>Node14</title>
<g id="a_node15"><a xlink:href="_state_8h.html" target="_top" xlink:title="Brief description of file. ">
<polygon fill="none" stroke="black" points="429.5,-56.5 429.5,-75.5 499.5,-75.5 499.5,-56.5 429.5,-56.5"/>
<text text-anchor="middle" x="464.5" y="-63.5" font-family="Helvetica,sans-Serif" font-size="10.00">../lib/State.h</text>
</a>
</g>
</g>
<!-- Node5&#45;&gt;Node14 -->
<g id="edge16" class="edge"><title>Node5&#45;&gt;Node14</title>
<path fill="none" stroke="midnightblue" d="M505.948,-168.239C513.175,-155.417 524.075,-131.001 515.5,-112 509.884,-99.5553 498.937,-89.1723 488.621,-81.5273"/>
<polygon fill="midnightblue" stroke="midnightblue" points="490.458,-78.5431 480.234,-75.7643 486.494,-84.3123 490.458,-78.5431"/>
</g>
<!-- Node15 -->
<g id="node16" class="node"><title>Node15</title>
<g id="a_node16"><a xlink:href="st___config_8h.html" target="_top" xlink:title="../lib/st_Config.h">
<polygon fill="none" stroke="black" points="208,-112.5 208,-131.5 297,-131.5 297,-112.5 208,-112.5"/>
<text text-anchor="middle" x="252.5" y="-119.5" font-family="Helvetica,sans-Serif" font-size="10.00">../lib/st_Config.h</text>
</a>
</g>
</g>
<!-- Node5&#45;&gt;Node15 -->
<g id="edge17" class="edge"><title>Node5&#45;&gt;Node15</title>
<path fill="none" stroke="midnightblue" d="M466.277,-169.548C423.603,-160.256 350.353,-144.307 301.675,-133.708"/>
<polygon fill="midnightblue" stroke="midnightblue" points="302.197,-130.239 291.681,-131.531 300.707,-137.079 302.197,-130.239"/>
</g>
<!-- Node16 -->
<g id="node17" class="node"><title>Node16</title>
<g id="a_node17"><a xlink:href="st___measure_8h.html" target="_top" xlink:title="../lib/st_Measure.h">
<polygon fill="none" stroke="black" points="563.5,-112.5 563.5,-131.5 661.5,-131.5 661.5,-112.5 563.5,-112.5"/>
<text text-anchor="middle" x="612.5" y="-119.5" font-family="Helvetica,sans-Serif" font-size="10.00">../lib/st_Measure.h</text>
</a>
</g>
</g>
<!-- Node5&#45;&gt;Node16 -->
<g id="edge20" class="edge"><title>Node5&#45;&gt;Node16</title>
<path fill="none" stroke="midnightblue" d="M518.495,-168.324C536.538,-159.625 564.547,-146.12 585.303,-136.113"/>
<polygon fill="midnightblue" stroke="midnightblue" points="587.062,-139.15 594.55,-131.655 584.022,-132.845 587.062,-139.15"/>
</g>
<!-- Node17 -->
<g id="node18" class="node"><title>Node17</title>
<g id="a_node18"><a xlink:href="st___output_8h.html" target="_top" xlink:title="../lib/st_Output.h">
<polygon fill="none" stroke="black" points="315,-112.5 315,-131.5 404,-131.5 404,-112.5 315,-112.5"/>
<text text-anchor="middle" x="359.5" y="-119.5" font-family="Helvetica,sans-Serif" font-size="10.00">../lib/st_Output.h</text>
</a>
</g>
</g>
<!-- Node5&#45;&gt;Node17 -->
<g id="edge22" class="edge"><title>Node5&#45;&gt;Node17</title>
<path fill="none" stroke="midnightblue" d="M478.158,-168.444C454.747,-159.478 417.764,-145.314 391.31,-135.183"/>
<polygon fill="midnightblue" stroke="midnightblue" points="392.328,-131.824 381.737,-131.516 389.824,-138.361 392.328,-131.824"/>
</g>
<!-- Node18 -->
<g id="node19" class="node"><title>Node18</title>
<g id="a_node19"><a xlink:href="st___sleep_8h.html" target="_top" xlink:title="../lib/st_Sleep.h">
<polygon fill="none" stroke="black" points="422,-112.5 422,-131.5 507,-131.5 507,-112.5 422,-112.5"/>
<text text-anchor="middle" x="464.5" y="-119.5" font-family="Helvetica,sans-Serif" font-size="10.00">../lib/st_Sleep.h</text>
</a>
</g>
</g>
<!-- Node5&#45;&gt;Node18 -->
<g id="edge24" class="edge"><title>Node5&#45;&gt;Node18</title>
<path fill="none" stroke="midnightblue" d="M494.555,-168.083C489.523,-160.534 482.163,-149.495 475.987,-140.23"/>
<polygon fill="midnightblue" stroke="midnightblue" points="478.793,-138.13 470.334,-131.751 472.969,-142.013 478.793,-138.13"/>
</g>
<!-- Node9&#45;&gt;Node10 -->
<g id="edge10" class="edge"><title>Node9&#45;&gt;Node10</title>
<path fill="none" stroke="midnightblue" d="M740.888,-112.324C757.171,-103.703 782.367,-90.3643 801.216,-80.3855"/>
<polygon fill="midnightblue" stroke="midnightblue" points="802.952,-83.4267 810.153,-75.6545 799.677,-77.2402 802.952,-83.4267"/>
</g>
<!-- Node11 -->
<g id="node12" class="node"><title>Node11</title>
<g id="a_node12"><a xlink:href="main_8h.html" target="_top" xlink:title="The main.h file regroup global constant declaration. ">
<polygon fill="none" stroke="black" points="218.5,-0.5 218.5,-19.5 286.5,-19.5 286.5,-0.5 218.5,-0.5"/>
<text text-anchor="middle" x="252.5" y="-7.5" font-family="Helvetica,sans-Serif" font-size="10.00">../lib/main.h</text>
</a>
</g>
</g>
<!-- Node10&#45;&gt;Node11 -->
<g id="edge11" class="edge"><title>Node10&#45;&gt;Node11</title>
<path fill="none" stroke="midnightblue" d="M787.947,-61.3731C685.308,-51.7172 405.82,-25.4239 296.845,-15.1718"/>
<polygon fill="midnightblue" stroke="midnightblue" points="297.127,-11.683 286.843,-14.2309 296.471,-18.6522 297.127,-11.683"/>
</g>
<!-- Node12&#45;&gt;Node10 -->
<g id="edge13" class="edge"><title>Node12&#45;&gt;Node10</title>
<path fill="none" stroke="midnightblue" d="M912.112,-112.324C895.829,-103.703 870.633,-90.3643 851.784,-80.3855"/>
<polygon fill="midnightblue" stroke="midnightblue" points="853.323,-77.2402 842.847,-75.6545 850.048,-83.4267 853.323,-77.2402"/>
</g>
<!-- Node13&#45;&gt;Node11 -->
<g id="edge15" class="edge"><title>Node13&#45;&gt;Node11</title>
<path fill="none" stroke="midnightblue" d="M194.586,-56.324C204.986,-48.1849 220.761,-35.8395 233.222,-26.0874"/>
<polygon fill="midnightblue" stroke="midnightblue" points="235.494,-28.7533 241.212,-19.8339 231.18,-23.2407 235.494,-28.7533"/>
</g>
<!-- Node15&#45;&gt;Node11 -->
<g id="edge18" class="edge"><title>Node15&#45;&gt;Node11</title>
<path fill="none" stroke="midnightblue" d="M252.5,-112.368C252.5,-94.617 252.5,-53.6664 252.5,-29.5974"/>
<polygon fill="midnightblue" stroke="midnightblue" points="256,-29.5914 252.5,-19.5914 249,-29.5915 256,-29.5914"/>
</g>
<!-- Node15&#45;&gt;Node14 -->
<g id="edge19" class="edge"><title>Node15&#45;&gt;Node14</title>
<path fill="none" stroke="midnightblue" d="M286.092,-112.444C322.687,-103.122 381.338,-88.1828 421.326,-77.9972"/>
<polygon fill="midnightblue" stroke="midnightblue" points="422.239,-81.3766 431.065,-75.5164 420.511,-74.5932 422.239,-81.3766"/>
</g>
<!-- Node16&#45;&gt;Node14 -->
<g id="edge21" class="edge"><title>Node16&#45;&gt;Node14</title>
<path fill="none" stroke="midnightblue" d="M589.049,-112.444C564.367,-103.438 525.315,-89.1891 497.523,-79.049"/>
<polygon fill="midnightblue" stroke="midnightblue" points="498.435,-75.6561 487.841,-75.5164 496.036,-82.2321 498.435,-75.6561"/>
</g>
<!-- Node17&#45;&gt;Node14 -->
<g id="edge23" class="edge"><title>Node17&#45;&gt;Node14</title>
<path fill="none" stroke="midnightblue" d="M376.37,-112.324C393.209,-103.664 419.307,-90.2424 438.738,-80.249"/>
<polygon fill="midnightblue" stroke="midnightblue" points="440.38,-83.3405 447.672,-75.6545 437.178,-77.1155 440.38,-83.3405"/>
</g>
<!-- Node18&#45;&gt;Node14 -->
<g id="edge25" class="edge"><title>Node18&#45;&gt;Node14</title>
<path fill="none" stroke="midnightblue" d="M464.5,-112.083C464.5,-105.006 464.5,-94.8611 464.5,-85.9865"/>
<polygon fill="midnightblue" stroke="midnightblue" points="468,-85.751 464.5,-75.7511 461,-85.7511 468,-85.751"/>
</g>
</g>
</svg>
        <g id="navigator" transform="translate(0 0)" fill="#404254">
                <rect fill="#f2f5e9" fill-opacity="0.5" stroke="#606060" stroke-width=".5" x="0" y="0" width="60" height="60"/>
                <use id="zoomplus" xlink:href="#zoomPlus" x="17" y="9" onmousedown="handleZoom(evt,'in')"/>
                <use id="zoomminus" xlink:href="#zoomMin" x="42" y="9" onmousedown="handleZoom(evt,'out')"/>
                <use id="reset" xlink:href="#resetDef" x="30" y="36" onmousedown="handleReset()"/>
                <g id="arrowUp" xlink:href="#dirArrow" transform="translate(30 24)" onmousedown="handlePan(0,-1)">
                  <use xlink:href="#rim" fill="#404040">
                        <set attributeName="fill" to="#808080" begin="arrowUp.mouseover" end="arrowUp.mouseout"/>
                  </use>
                  <path fill="none" stroke="white" stroke-width="1.5" d="M0,-3.0v7 M-2.5,-0.5L0,-3.0L2.5,-0.5"/>
                </g>
                <g id="arrowRight" xlink:href="#dirArrow" transform="rotate(90) translate(36 -43)" onmousedown="handlePan(1,0)">
                  <use xlink:href="#rim" fill="#404040">
                        <set attributeName="fill" to="#808080" begin="arrowRight.mouseover" end="arrowRight.mouseout"/>
                  </use>
                  <path fill="none" stroke="white" stroke-width="1.5" d="M0,-3.0v7 M-2.5,-0.5L0,-3.0L2.5,-0.5"/>
                </g>
                <g id="arrowDown" xlink:href="#dirArrow" transform="rotate(180) translate(-30 -48)" onmousedown="handlePan(0,1)">
                  <use xlink:href="#rim" fill="#404040">
                        <set attributeName="fill" to="#808080" begin="arrowDown.mouseover" end="arrowDown.mouseout"/>
                  </use>
                  <path fill="none" stroke="white" stroke-width="1.5" d="M0,-3.0v7 M-2.5,-0.5L0,-3.0L2.5,-0.5"/>
                </g>
                <g id="arrowLeft" xlink:href="#dirArrow" transform="rotate(270) translate(-36 17)" onmousedown="handlePan(-1,0)">
                  <use xlink:href="#rim" fill="#404040">
                        <set attributeName="fill" to="#808080" begin="arrowLeft.mouseover" end="arrowLeft.mouseout"/>
                  </use>
                  <path fill="none" stroke="white" stroke-width="1.5" d="M0,-3.0v7 M-2.5,-0.5L0,-3.0L2.5,-0.5"/>
                </g>
        </g>
        <svg viewBox="0 0 15 15" width="100%" height="30px" preserveAspectRatio="xMaxYMin meet">
         <g id="arrow_out" transform="scale(0.3 0.3)">
          <a xlink:href="_sensor_8cpp__incl_org.svg" target="_base">
           <rect id="button" ry="5" rx="5" y="6" x="6" height="38" width="38"
                fill="#f2f5e9" fill-opacity="0.5" stroke="#606060" stroke-width="1.0"/>
           <path id="arrow"
             d="M 11.500037,31.436501 C 11.940474,20.09759 22.043105,11.32322 32.158766,21.979434 L 37.068811,17.246167 C 37.068811,17.246167 37.088388,32 37.088388,32 L 22.160133,31.978069 C 22.160133,31.978069 26.997745,27.140456 26.997745,27.140456 C 18.528582,18.264221 13.291696,25.230495 11.500037,31.436501 z"
             style="fill:#404040;"/>
          </a>
         </g>
        </svg>
</svg>
