<?xml version="1.0" encoding="UTF-8" standalone="no"?>
<!DOCTYPE svg PUBLIC "-//W3C//DTD SVG 1.1//EN"
 "http://www.w3.org/Graphics/SVG/1.1/DTD/svg11.dtd">
<!-- Generated by graphviz version 2.38.0 (20140413.2041)
 -->
<!-- Title: Sensor.cpp Pages: 1 -->
<svg width="1367pt" height="252pt"
 viewBox="0.00 0.00 1366.50 252.00" xmlns="http://www.w3.org/2000/svg" xmlns:xlink="http://www.w3.org/1999/xlink">
<g id="graph0" class="graph" transform="scale(1 1) rotate(0) translate(4 248)">
<title>Sensor.cpp</title>
<!-- Node0 -->
<g id="node1" class="node"><title>Node0</title>
<polygon fill="#bfbfbf" stroke="black" points="165.5,-224.5 165.5,-243.5 231.5,-243.5 231.5,-224.5 165.5,-224.5"/>
<text text-anchor="middle" x="198.5" y="-231.5" font-family="Helvetica,sans-Serif" font-size="10.00">Sensor.cpp</text>
</g>
<!-- Node1 -->
<g id="node2" class="node"><title>Node1</title>
<polygon fill="none" stroke="#bfbfbf" points="0,-168.5 0,-187.5 49,-187.5 49,-168.5 0,-168.5"/>
<text text-anchor="middle" x="24.5" y="-175.5" font-family="Helvetica,sans-Serif" font-size="10.00">avr/io.h</text>
</g>
<!-- Node0&#45;&gt;Node1 -->
<g id="edge1" class="edge"><title>Node0&#45;&gt;Node1</title>
<path fill="none" stroke="midnightblue" d="M170.929,-224.444C140.534,-215.011 91.6011,-199.824 58.7642,-189.634"/>
<polygon fill="midnightblue" stroke="midnightblue" points="59.7166,-186.265 49.1285,-186.643 57.6417,-192.95 59.7166,-186.265"/>
</g>
<!-- Node2 -->
<g id="node3" class="node"><title>Node2</title>
<polygon fill="none" stroke="#bfbfbf" points="67.5,-168.5 67.5,-187.5 115.5,-187.5 115.5,-168.5 67.5,-168.5"/>
<text text-anchor="middle" x="91.5" y="-175.5" font-family="Helvetica,sans-Serif" font-size="10.00">stdlib.h</text>
</g>
<!-- Node0&#45;&gt;Node2 -->
<g id="edge2" class="edge"><title>Node0&#45;&gt;Node2</title>
<path fill="none" stroke="midnightblue" d="M181.309,-224.324C164.149,-215.664 137.554,-202.242 117.753,-192.249"/>
<polygon fill="midnightblue" stroke="midnightblue" points="119.153,-189.035 108.649,-187.655 115.999,-195.285 119.153,-189.035"/>
</g>
<!-- Node3 -->
<g id="node4" class="node"><title>Node3</title>
<polygon fill="none" stroke="#bfbfbf" points="134,-168.5 134,-187.5 183,-187.5 183,-168.5 134,-168.5"/>
<text text-anchor="middle" x="158.5" y="-175.5" font-family="Helvetica,sans-Serif" font-size="10.00">string.h</text>
</g>
<!-- Node0&#45;&gt;Node3 -->
<g id="edge3" class="edge"><title>Node0&#45;&gt;Node3</title>
<path fill="none" stroke="midnightblue" d="M191.895,-224.083C186.245,-216.455 177.955,-205.264 171.049,-195.941"/>
<polygon fill="midnightblue" stroke="midnightblue" points="173.747,-193.703 164.982,-187.751 168.122,-197.87 173.747,-193.703"/>
</g>
<!-- Node4 -->
<g id="node5" class="node"><title>Node4</title>
<polygon fill="none" stroke="#bfbfbf" points="201.5,-168.5 201.5,-187.5 275.5,-187.5 275.5,-168.5 201.5,-168.5"/>
<text text-anchor="middle" x="238.5" y="-175.5" font-family="Helvetica,sans-Serif" font-size="10.00">avr/eeprom.h</text>
</g>
<!-- Node0&#45;&gt;Node4 -->
<g id="edge4" class="edge"><title>Node0&#45;&gt;Node4</title>
<path fill="none" stroke="midnightblue" d="M205.105,-224.083C210.755,-216.455 219.045,-205.264 225.951,-195.941"/>
<polygon fill="midnightblue" stroke="midnightblue" points="228.878,-197.87 232.018,-187.751 223.253,-193.703 228.878,-197.87"/>
</g>
<!-- Node5 -->
<g id="node6" class="node"><title>Node5</title>
<g id="a_node6"><a xlink:href="_f_s_m_8h.html" target="_top" xlink:title="The FSM is the finish state machine mechanism. ">
<polygon fill="none" stroke="black" points="800.5,-168.5 800.5,-187.5 868.5,-187.5 868.5,-168.5 800.5,-168.5"/>
<text text-anchor="middle" x="834.5" y="-175.5" font-family="Helvetica,sans-Serif" font-size="10.00">../lib/FSM.h</text>
</a>
</g>
</g>
<!-- Node0&#45;&gt;Node5 -->
<g id="edge5" class="edge"><title>Node0&#45;&gt;Node5</title>
<path fill="none" stroke="midnightblue" d="M231.799,-230.173C338.217,-221.137 670.129,-192.956 790.41,-182.743"/>
<polygon fill="midnightblue" stroke="midnightblue" points="790.709,-186.231 800.377,-181.897 790.117,-179.256 790.709,-186.231"/>
</g>
<!-- Node10 -->
<g id="node11" class="node"><title>Node10</title>
<g id="a_node11"><a xlink:href="_sensor_8h.html" target="_top" xlink:title="This class is the base class of sensor. ">
<polygon fill="none" stroke="black" points="565,-56.5 565,-75.5 642,-75.5 642,-56.5 565,-56.5"/>
<text text-anchor="middle" x="603.5" y="-63.5" font-family="Helvetica,sans-Serif" font-size="10.00">../lib/Sensor.h</text>
</a>
</g>
</g>
<!-- Node0&#45;&gt;Node10 -->
<g id="edge27" class="edge"><title>Node0&#45;&gt;Node10</title>
<path fill="none" stroke="midnightblue" d="M224.109,-224.488C242.763,-217.222 267.619,-205.195 284.5,-188 310.956,-161.051 292.051,-134.339 322.5,-112 358.543,-85.5563 484.039,-74.0121 554.513,-69.5164"/>
<polygon fill="midnightblue" stroke="midnightblue" points="555.145,-72.9844 564.912,-68.8788 554.717,-65.9975 555.145,-72.9844"/>
</g>
<!-- Node6 -->
<g id="node7" class="node"><title>Node6</title>
<g id="a_node7"><a xlink:href="_usart_8h.html" target="_top" xlink:title="This is the uart library for the atmega1284p. ">
<polygon fill="none" stroke="black" points="1095,-112.5 1095,-131.5 1166,-131.5 1166,-112.5 1095,-112.5"/>
<text text-anchor="middle" x="1130.5" y="-119.5" font-family="Helvetica,sans-Serif" font-size="10.00">../lib/Usart.h</text>
</a>
</g>
</g>
<!-- Node5&#45;&gt;Node6 -->
<g id="edge6" class="edge"><title>Node5&#45;&gt;Node6</title>
<path fill="none" stroke="midnightblue" d="M868.744,-170.753C922.115,-161.016 1025.19,-142.213 1084.83,-131.332"/>
<polygon fill="midnightblue" stroke="midnightblue" points="1085.52,-134.765 1094.72,-129.527 1084.26,-127.878 1085.52,-134.765"/>
</g>
<!-- Node7 -->
<g id="node8" class="node"><title>Node7</title>
<g id="a_node8"><a xlink:href="_t_w_i_8h.html" target="_top" xlink:title="Brief description of file. ">
<polygon fill="none" stroke="black" points="332,-112.5 332,-131.5 397,-131.5 397,-112.5 332,-112.5"/>
<text text-anchor="middle" x="364.5" y="-119.5" font-family="Helvetica,sans-Serif" font-size="10.00">../lib/TWI.h</text>
</a>
</g>
</g>
<!-- Node5&#45;&gt;Node7 -->
<g id="edge7" class="edge"><title>Node5&#45;&gt;Node7</title>
<path fill="none" stroke="midnightblue" d="M800.494,-174.66C729.403,-169.503 559.725,-155.812 407.456,-131.991"/>
<polygon fill="midnightblue" stroke="midnightblue" points="407.877,-128.514 397.453,-130.408 406.783,-135.428 407.877,-128.514"/>
</g>
<!-- Node8 -->
<g id="node9" class="node"><title>Node8</title>
<g id="a_node9"><a xlink:href="_r_t_c_8h.html" target="_top" xlink:title="The RTC class regroup methods and parameters to use the Real Time Clock : pcf8563. ">
<polygon fill="none" stroke="black" points="415.5,-112.5 415.5,-131.5 483.5,-131.5 483.5,-112.5 415.5,-112.5"/>
<text text-anchor="middle" x="449.5" y="-119.5" font-family="Helvetica,sans-Serif" font-size="10.00">../lib/RTC.h</text>
</a>
</g>
</g>
<!-- Node5&#45;&gt;Node8 -->
<g id="edge8" class="edge"><title>Node5&#45;&gt;Node8</title>
<path fill="none" stroke="midnightblue" d="M800.393,-173.376C740.413,-166.816 611.949,-151.934 493.672,-132.091"/>
<polygon fill="midnightblue" stroke="midnightblue" points="494.167,-128.625 483.723,-130.406 492.998,-135.527 494.167,-128.625"/>
</g>
<!-- Node9 -->
<g id="node10" class="node"><title>Node9</title>
<g id="a_node10"><a xlink:href="_windvane_8h.html" target="_top" xlink:title="Brief description of file. ">
<polygon fill="none" stroke="black" points="501.5,-112.5 501.5,-131.5 591.5,-131.5 591.5,-112.5 501.5,-112.5"/>
<text text-anchor="middle" x="546.5" y="-119.5" font-family="Helvetica,sans-Serif" font-size="10.00">../lib/Windvane.h</text>
</a>
</g>
</g>
<!-- Node5&#45;&gt;Node9 -->
<g id="edge9" class="edge"><title>Node5&#45;&gt;Node9</title>
<path fill="none" stroke="midnightblue" d="M800.332,-170.593C751.315,-161.403 660.498,-144.375 601.83,-133.374"/>
<polygon fill="midnightblue" stroke="midnightblue" points="602.459,-129.931 591.985,-131.529 601.169,-136.812 602.459,-129.931"/>
</g>
<!-- Node12 -->
<g id="node13" class="node"><title>Node12</title>
<g id="a_node13"><a xlink:href="_anemometer_8h.html" target="_top" xlink:title="Brief description of file. ">
<polygon fill="none" stroke="black" points="609.5,-112.5 609.5,-131.5 711.5,-131.5 711.5,-112.5 609.5,-112.5"/>
<text text-anchor="middle" x="660.5" y="-119.5" font-family="Helvetica,sans-Serif" font-size="10.00">../lib/Anemometer.h</text>
</a>
</g>
</g>
<!-- Node5&#45;&gt;Node12 -->
<g id="edge12" class="edge"><title>Node5&#45;&gt;Node12</title>
<path fill="none" stroke="midnightblue" d="M806.929,-168.444C777.403,-159.28 730.382,-144.688 697.617,-134.519"/>
<polygon fill="midnightblue" stroke="midnightblue" points="698.53,-131.138 687.942,-131.516 696.455,-137.823 698.53,-131.138"/>
</g>
<!-- Node13 -->
<g id="node14" class="node"><title>Node13</title>
<g id="a_node14"><a xlink:href="_power_8h.html" target="_top" xlink:title="../lib/Power.h">
<polygon fill="none" stroke="black" points="1284.5,-56.5 1284.5,-75.5 1358.5,-75.5 1358.5,-56.5 1284.5,-56.5"/>
<text text-anchor="middle" x="1321.5" y="-63.5" font-family="Helvetica,sans-Serif" font-size="10.00">../lib/Power.h</text>
</a>
</g>
</g>
<!-- Node5&#45;&gt;Node13 -->
<g id="edge14" class="edge"><title>Node5&#45;&gt;Node13</title>
<path fill="none" stroke="midnightblue" d="M868.502,-177.39C960.634,-177.858 1212.76,-175.07 1281.5,-132 1298.65,-121.253 1309.58,-100.19 1315.6,-84.9468"/>
<polygon fill="midnightblue" stroke="midnightblue" points="1318.9,-86.1168 1319,-75.5225 1312.31,-83.7397 1318.9,-86.1168"/>
</g>
<!-- Node14 -->
<g id="node15" class="node"><title>Node14</title>
<g id="a_node15"><a xlink:href="_state_8h.html" target="_top" xlink:title="Brief description of file. ">
<polygon fill="none" stroke="black" points="960.5,-56.5 960.5,-75.5 1030.5,-75.5 1030.5,-56.5 960.5,-56.5"/>
<text text-anchor="middle" x="995.5" y="-63.5" font-family="Helvetica,sans-Serif" font-size="10.00">../lib/State.h</text>
</a>
</g>
</g>
<!-- Node5&#45;&gt;Node14 -->
<g id="edge16" class="edge"><title>Node5&#45;&gt;Node14</title>
<path fill="none" stroke="midnightblue" d="M868.881,-174.811C923.089,-170.563 1024.53,-159.118 1046.5,-132 1060.51,-114.699 1038.78,-94.4806 1019.5,-81.244"/>
<polygon fill="midnightblue" stroke="midnightblue" points="1021.24,-78.2027 1010.95,-75.6891 1017.43,-84.0725 1021.24,-78.2027"/>
</g>
<!-- Node15 -->
<g id="node16" class="node"><title>Node15</title>
<g id="a_node16"><a xlink:href="st___config_8h.html" target="_top" xlink:title="../lib/st_Config.h">
<polygon fill="none" stroke="black" points="1184,-112.5 1184,-131.5 1273,-131.5 1273,-112.5 1184,-112.5"/>
<text text-anchor="middle" x="1228.5" y="-119.5" font-family="Helvetica,sans-Serif" font-size="10.00">../lib/st_Config.h</text>
</a>
</g>
</g>
<!-- Node5&#45;&gt;Node15 -->
<g id="edge17" class="edge"><title>Node5&#45;&gt;Node15</title>
<path fill="none" stroke="midnightblue" d="M868.818,-172.845C928.543,-165.529 1055.7,-149.583 1173.79,-132.062"/>
<polygon fill="midnightblue" stroke="midnightblue" points="1174.35,-135.517 1183.73,-130.581 1173.32,-128.593 1174.35,-135.517"/>
</g>
<!-- Node17 -->
<g id="node18" class="node"><title>Node17</title>
<g id="a_node18"><a xlink:href="st___measure_8h.html" target="_top" xlink:title="../lib/st_Measure.h">
<polygon fill="none" stroke="black" points="729.5,-112.5 729.5,-131.5 827.5,-131.5 827.5,-112.5 729.5,-112.5"/>
<text text-anchor="middle" x="778.5" y="-119.5" font-family="Helvetica,sans-Serif" font-size="10.00">../lib/st_Measure.h</text>
</a>
</g>
</g>
<!-- Node5&#45;&gt;Node17 -->
<g id="edge21" class="edge"><title>Node5&#45;&gt;Node17</title>
<path fill="none" stroke="midnightblue" d="M825.503,-168.324C817.306,-160.42 804.994,-148.548 795.028,-138.938"/>
<polygon fill="midnightblue" stroke="midnightblue" points="797.289,-136.256 787.661,-131.834 792.43,-141.295 797.289,-136.256"/>
</g>
<!-- Node18 -->
<g id="node19" class="node"><title>Node18</title>
<g id="a_node19"><a xlink:href="st___output_8h.html" target="_top" xlink:title="../lib/st_Output.h">
<polygon fill="none" stroke="black" points="846,-112.5 846,-131.5 935,-131.5 935,-112.5 846,-112.5"/>
<text text-anchor="middle" x="890.5" y="-119.5" font-family="Helvetica,sans-Serif" font-size="10.00">../lib/st_Output.h</text>
</a>
</g>
</g>
<!-- Node5&#45;&gt;Node18 -->
<g id="edge23" class="edge"><title>Node5&#45;&gt;Node18</title>
<path fill="none" stroke="midnightblue" d="M843.497,-168.324C851.694,-160.42 864.006,-148.548 873.972,-138.938"/>
<polygon fill="midnightblue" stroke="midnightblue" points="876.57,-141.295 881.339,-131.834 871.711,-136.256 876.57,-141.295"/>
</g>
<!-- Node19 -->
<g id="node20" class="node"><title>Node19</title>
<g id="a_node20"><a xlink:href="st___sleep_8h.html" target="_top" xlink:title="../lib/st_Sleep.h">
<polygon fill="none" stroke="black" points="953,-112.5 953,-131.5 1038,-131.5 1038,-112.5 953,-112.5"/>
<text text-anchor="middle" x="995.5" y="-119.5" font-family="Helvetica,sans-Serif" font-size="10.00">../lib/st_Sleep.h</text>
</a>
</g>
</g>
<!-- Node5&#45;&gt;Node19 -->
<g id="edge25" class="edge"><title>Node5&#45;&gt;Node19</title>
<path fill="none" stroke="midnightblue" d="M860.011,-168.444C887.096,-159.359 930.09,-144.939 960.369,-134.783"/>
<polygon fill="midnightblue" stroke="midnightblue" points="961.74,-138.015 970.108,-131.516 959.514,-131.378 961.74,-138.015"/>
</g>
<!-- Node9&#45;&gt;Node10 -->
<g id="edge10" class="edge"><title>Node9&#45;&gt;Node10</title>
<path fill="none" stroke="midnightblue" d="M555.658,-112.324C564.001,-104.42 576.532,-92.5482 586.677,-82.9377"/>
<polygon fill="midnightblue" stroke="midnightblue" points="589.323,-85.2522 594.175,-75.8339 584.509,-80.1705 589.323,-85.2522"/>
</g>
<!-- Node11 -->
<g id="node12" class="node"><title>Node11</title>
<g id="a_node12"><a xlink:href="main_8h.html" target="_top" xlink:title="The main.h file regroup global constant declaration. ">
<polygon fill="none" stroke="black" points="1114.5,-0.5 1114.5,-19.5 1182.5,-19.5 1182.5,-0.5 1114.5,-0.5"/>
<text text-anchor="middle" x="1148.5" y="-7.5" font-family="Helvetica,sans-Serif" font-size="10.00">../lib/main.h</text>
</a>
</g>
</g>
<!-- Node10&#45;&gt;Node11 -->
<g id="edge11" class="edge"><title>Node10&#45;&gt;Node11</title>
<path fill="none" stroke="midnightblue" d="M642.258,-61.1597C740.651,-51.4107 999.676,-25.7459 1104.01,-15.4081"/>
<polygon fill="midnightblue" stroke="midnightblue" points="1104.59,-18.8675 1114.2,-14.3985 1103.9,-11.9017 1104.59,-18.8675"/>
</g>
<!-- Node12&#45;&gt;Node10 -->
<g id="edge13" class="edge"><title>Node12&#45;&gt;Node10</title>
<path fill="none" stroke="midnightblue" d="M651.342,-112.324C642.999,-104.42 630.468,-92.5482 620.323,-82.9377"/>
<polygon fill="midnightblue" stroke="midnightblue" points="622.491,-80.1705 612.825,-75.8339 617.677,-85.2522 622.491,-80.1705"/>
</g>
<!-- Node13&#45;&gt;Node11 -->
<g id="edge15" class="edge"><title>Node13&#45;&gt;Node11</title>
<path fill="none" stroke="midnightblue" d="M1294.09,-56.4435C1264.73,-47.2801 1217.98,-32.6876 1185.4,-22.5192"/>
<polygon fill="midnightblue" stroke="midnightblue" points="1186.37,-19.1551 1175.78,-19.5164 1184.29,-25.8371 1186.37,-19.1551"/>
</g>
<!-- Node15&#45;&gt;Node11 -->
<g id="edge18" class="edge"><title>Node15&#45;&gt;Node11</title>
<path fill="none" stroke="midnightblue" d="M1211.32,-112.412C1197.55,-104.681 1178.73,-92.0744 1167.5,-76 1157.93,-62.2961 1153.13,-43.7631 1150.75,-29.9929"/>
<polygon fill="midnightblue" stroke="midnightblue" points="1154.17,-29.1543 1149.27,-19.7567 1147.24,-30.1541 1154.17,-29.1543"/>
</g>
<!-- Node15&#45;&gt;Node14 -->
<g id="edge20" class="edge"><title>Node15&#45;&gt;Node14</title>
<path fill="none" stroke="midnightblue" d="M1191.58,-112.444C1150.63,-102.953 1084.55,-87.6372 1040.57,-77.446"/>
<polygon fill="midnightblue" stroke="midnightblue" points="1041.25,-74.0112 1030.72,-75.1629 1039.67,-80.8304 1041.25,-74.0112"/>
</g>
<!-- Node16 -->
<g id="node17" class="node"><title>Node16</title>
<g id="a_node17"><a xlink:href="_date_time_8h.html" target="_top" xlink:title="This file declare the DateTime class. ">
<polygon fill="none" stroke="black" points="1177,-56.5 1177,-75.5 1266,-75.5 1266,-56.5 1177,-56.5"/>
<text text-anchor="middle" x="1221.5" y="-63.5" font-family="Helvetica,sans-Serif" font-size="10.00">../lib/DateTime.h</text>
</a>
</g>
</g>
<!-- Node15&#45;&gt;Node16 -->
<g id="edge19" class="edge"><title>Node15&#45;&gt;Node16</title>
<path fill="none" stroke="midnightblue" d="M1227.34,-112.083C1226.42,-104.927 1225.08,-94.6353 1223.92,-85.6911"/>
<polygon fill="midnightblue" stroke="midnightblue" points="1227.39,-85.2181 1222.63,-75.7511 1220.45,-86.1181 1227.39,-85.2181"/>
</g>
<!-- Node17&#45;&gt;Node14 -->
<g id="edge22" class="edge"><title>Node17&#45;&gt;Node14</title>
<path fill="none" stroke="midnightblue" d="M812.884,-112.444C850.422,-103.102 910.631,-88.1194 951.567,-77.9326"/>
<polygon fill="midnightblue" stroke="midnightblue" points="952.418,-81.3278 961.277,-75.5164 950.727,-74.5349 952.418,-81.3278"/>
</g>
<!-- Node18&#45;&gt;Node14 -->
<g id="edge24" class="edge"><title>Node18&#45;&gt;Node14</title>
<path fill="none" stroke="midnightblue" d="M907.37,-112.324C924.209,-103.664 950.307,-90.2424 969.738,-80.249"/>
<polygon fill="midnightblue" stroke="midnightblue" points="971.38,-83.3405 978.672,-75.6545 968.178,-77.1155 971.38,-83.3405"/>
</g>
<!-- Node19&#45;&gt;Node14 -->
<g id="edge26" class="edge"><title>Node19&#45;&gt;Node14</title>
<path fill="none" stroke="midnightblue" d="M995.5,-112.083C995.5,-105.006 995.5,-94.8611 995.5,-85.9865"/>
<polygon fill="midnightblue" stroke="midnightblue" points="999,-85.751 995.5,-75.7511 992,-85.7511 999,-85.751"/>
</g>
</g>
</svg>
