<?xml version="1.0" encoding="UTF-8" standalone="no"?>
<!DOCTYPE svg PUBLIC "-//W3C//DTD SVG 1.1//EN"
 "http://www.w3.org/Graphics/SVG/1.1/DTD/svg11.dtd">
<!-- Generated by graphviz version 2.38.0 (20140413.2041)
 -->
<!-- Title: Sleep.cpp Pages: 1 -->
<svg width="404pt" height="140pt"
 viewBox="0.00 0.00 404.00 140.00" xmlns="http://www.w3.org/2000/svg" xmlns:xlink="http://www.w3.org/1999/xlink">
<g id="graph0" class="graph" transform="scale(1 1) rotate(0) translate(4 136)">
<title>Sleep.cpp</title>
<!-- Node0 -->
<g id="node1" class="node"><title>Node0</title>
<polygon fill="#bfbfbf" stroke="black" points="153.5,-112.5 153.5,-131.5 213.5,-131.5 213.5,-112.5 153.5,-112.5"/>
<text text-anchor="middle" x="183.5" y="-119.5" font-family="Helvetica,sans-Serif" font-size="10.00">Sleep.cpp</text>
</g>
<!-- Node1 -->
<g id="node2" class="node"><title>Node1</title>
<polygon fill="none" stroke="#bfbfbf" points="-3.55271e-15,-56.5 -3.55271e-15,-75.5 49,-75.5 49,-56.5 -3.55271e-15,-56.5"/>
<text text-anchor="middle" x="24.5" y="-63.5" font-family="Helvetica,sans-Serif" font-size="10.00">avr/io.h</text>
</g>
<!-- Node0&#45;&gt;Node1 -->
<g id="edge1" class="edge"><title>Node0&#45;&gt;Node1</title>
<path fill="none" stroke="midnightblue" d="M158.306,-112.444C131.4,-103.306 88.5974,-88.7689 58.6684,-78.6044"/>
<polygon fill="midnightblue" stroke="midnightblue" points="59.6481,-75.2408 49.0537,-75.339 57.397,-81.869 59.6481,-75.2408"/>
</g>
<!-- Node2 -->
<g id="node3" class="node"><title>Node2</title>
<polygon fill="none" stroke="#bfbfbf" points="67.5,-56.5 67.5,-75.5 131.5,-75.5 131.5,-56.5 67.5,-56.5"/>
<text text-anchor="middle" x="99.5" y="-63.5" font-family="Helvetica,sans-Serif" font-size="10.00">util/delay.h</text>
</g>
<!-- Node0&#45;&gt;Node2 -->
<g id="edge2" class="edge"><title>Node0&#45;&gt;Node2</title>
<path fill="none" stroke="midnightblue" d="M170.004,-112.324C156.9,-103.9 136.788,-90.9709 121.393,-81.0741"/>
<polygon fill="midnightblue" stroke="midnightblue" points="123.267,-78.118 112.963,-75.6545 119.482,-84.0063 123.267,-78.118"/>
</g>
<!-- Node3 -->
<g id="node4" class="node"><title>Node3</title>
<g id="a_node4"><a xlink:href="main_8h.html" target="_top" xlink:title="The main.h file regroup global constant declaration. ">
<polygon fill="none" stroke="black" points="149.5,-56.5 149.5,-75.5 217.5,-75.5 217.5,-56.5 149.5,-56.5"/>
<text text-anchor="middle" x="183.5" y="-63.5" font-family="Helvetica,sans-Serif" font-size="10.00">../lib/main.h</text>
</a>
</g>
</g>
<!-- Node0&#45;&gt;Node3 -->
<g id="edge3" class="edge"><title>Node0&#45;&gt;Node3</title>
<path fill="none" stroke="midnightblue" d="M183.5,-112.083C183.5,-105.006 183.5,-94.8611 183.5,-85.9865"/>
<polygon fill="midnightblue" stroke="midnightblue" points="187,-85.751 183.5,-75.7511 180,-85.7511 187,-85.751"/>
</g>
<!-- Node4 -->
<g id="node5" class="node"><title>Node4</title>
<g id="a_node5"><a xlink:href="_usart_8h.html" target="_top" xlink:title="This is the uart library for the atmega1284p. ">
<polygon fill="none" stroke="black" points="236,-56.5 236,-75.5 307,-75.5 307,-56.5 236,-56.5"/>
<text text-anchor="middle" x="271.5" y="-63.5" font-family="Helvetica,sans-Serif" font-size="10.00">../lib/Usart.h</text>
</a>
</g>
</g>
<!-- Node0&#45;&gt;Node4 -->
<g id="edge4" class="edge"><title>Node0&#45;&gt;Node4</title>
<path fill="none" stroke="midnightblue" d="M197.639,-112.324C211.366,-103.9 232.436,-90.9709 248.564,-81.0741"/>
<polygon fill="midnightblue" stroke="midnightblue" points="250.704,-83.8678 257.396,-75.6545 247.043,-77.9016 250.704,-83.8678"/>
</g>
<!-- Node5 -->
<g id="node6" class="node"><title>Node5</title>
<g id="a_node6"><a xlink:href="_sleep_8h.html" target="_top" xlink:title="../lib/Sleep.h">
<polygon fill="none" stroke="black" points="325,-56.5 325,-75.5 396,-75.5 396,-56.5 325,-56.5"/>
<text text-anchor="middle" x="360.5" y="-63.5" font-family="Helvetica,sans-Serif" font-size="10.00">../lib/Sleep.h</text>
</a>
</g>
</g>
<!-- Node0&#45;&gt;Node5 -->
<g id="edge5" class="edge"><title>Node0&#45;&gt;Node5</title>
<path fill="none" stroke="midnightblue" d="M211.546,-112.444C241.582,-103.28 289.413,-88.6876 322.743,-78.5192"/>
<polygon fill="midnightblue" stroke="midnightblue" points="324.042,-81.7822 332.585,-75.5164 321.999,-75.0869 324.042,-81.7822"/>
</g>
<!-- Node6 -->
<g id="node7" class="node"><title>Node6</title>
<g id="a_node7"><a xlink:href="_state_8h.html" target="_top" xlink:title="Brief description of file. ">
<polygon fill="none" stroke="black" points="325.5,-0.5 325.5,-19.5 395.5,-19.5 395.5,-0.5 325.5,-0.5"/>
<text text-anchor="middle" x="360.5" y="-7.5" font-family="Helvetica,sans-Serif" font-size="10.00">../lib/State.h</text>
</a>
</g>
</g>
<!-- Node5&#45;&gt;Node6 -->
<g id="edge6" class="edge"><title>Node5&#45;&gt;Node6</title>
<path fill="none" stroke="midnightblue" d="M360.5,-56.083C360.5,-49.0059 360.5,-38.8611 360.5,-29.9865"/>
<polygon fill="midnightblue" stroke="midnightblue" points="364,-29.751 360.5,-19.7511 357,-29.7511 364,-29.751"/>
</g>
</g>
</svg>
