<?xml version="1.0" encoding="UTF-8" standalone="no"?>
<!DOCTYPE svg PUBLIC "-//W3C//DTD SVG 1.1//EN"
 "http://www.w3.org/Graphics/SVG/1.1/DTD/svg11.dtd">
<!-- Generated by graphviz version 2.38.0 (20140413.2041)
 -->
<!-- Title: State.h Pages: 1 -->
<!--zoomable 196 -->
<svg id="main" version="1.1" xmlns="http://www.w3.org/2000/svg" xmlns:xlink="http://www.w3.org/1999/xlink" xml:space="preserve" onload="init(evt)">
<style type="text/css"><![CDATA[
.edge:hover path { stroke: red; }
.edge:hover polygon { stroke: red; fill: red; }
]]></style>
<script type="text/javascript"><![CDATA[
var edges = document.getElementsByTagName('g');
if (edges && edges.length) {
  for (var i=0;i<edges.length;i++) {
    if (edges[i].id.substr(0,4)=='edge') {
      edges[i].setAttribute('class','edge');
    }
  }
}
]]></script>
        <defs>
                <circle id="rim" cx="0" cy="0" r="7"/>
                <circle id="rim2" cx="0" cy="0" r="3.5"/>
                <g id="zoomPlus">
                        <use xlink:href="#rim" fill="#404040">
                                <set attributeName="fill" to="#808080" begin="zoomplus.mouseover" end="zoomplus.mouseout"/>
                        </use>
                        <path d="M-4,0h8M0,-4v8" fill="none" stroke="white" stroke-width="1.5" pointer-events="none"/>
                </g>
                <g id="zoomMin">
                        <use xlink:href="#rim" fill="#404040">
                                <set attributeName="fill" to="#808080" begin="zoomminus.mouseover" end="zoomminus.mouseout"/>
                        </use>
                        <path d="M-4,0h8" fill="none" stroke="white" stroke-width="1.5" pointer-events="none"/>
                </g>
                <g id="dirArrow">
                        <path fill="none" stroke="white" stroke-width="1.5" d="M0,-3.0v7 M-2.5,-0.5L0,-3.0L2.5,-0.5"/>
                </g>
               <g id="resetDef">
                       <use xlink:href="#rim2" fill="#404040">
                               <set attributeName="fill" to="#808080" begin="reset.mouseover" end="reset.mouseout"/>
                       </use>
               </g>
        </defs>

<script type="text/javascript">
var viewWidth = 1030;
var viewHeight = 196;
var sectionId = 'dynsection-0';
</script>
<script xlink:href="svgpan.js"/>
<svg id="graph" class="graph">
<g id="viewport">
<title>State.h</title>
<!-- Node1 -->
<g id="node1" class="node"><title>Node1</title>
<polygon fill="#bfbfbf" stroke="black" points="488,-168.5 488,-187.5 536,-187.5 536,-168.5 488,-168.5"/>
<text text-anchor="middle" x="512" y="-175.5" font-family="Helvetica,sans-Serif" font-size="10.00">State.h</text>
</g>
<!-- Node2 -->
<g id="node2" class="node"><title>Node2</title>
<g id="a_node2"><a xlink:href="_f_s_m_8h.html" target="_top" xlink:title="The FSM is the finish state machine mechanism. ">
<polygon fill="none" stroke="black" points="490,-56.5 490,-75.5 536,-75.5 536,-56.5 490,-56.5"/>
<text text-anchor="middle" x="513" y="-63.5" font-family="Helvetica,sans-Serif" font-size="10.00">FSM.h</text>
</a>
</g>
</g>
<!-- Node1&#45;&gt;Node2 -->
<g id="edge1" class="edge"><title>Node1&#45;&gt;Node2</title>
<path fill="none" stroke="midnightblue" d="M504.296,-158.621C499.782,-145.656 495.429,-127.845 498,-112 500.111,-98.994 505.442,-84.6674 509.144,-75.7514"/>
<polygon fill="midnightblue" stroke="midnightblue" points="501.129,-160.138 507.976,-168.223 507.665,-157.633 501.129,-160.138"/>
</g>
<!-- Node4 -->
<g id="node4" class="node"><title>Node4</title>
<g id="a_node4"><a xlink:href="_f_s_m_8cpp.html" target="_top" xlink:title="Brief description of file. ">
<polygon fill="none" stroke="black" points="0,-0.5 0,-19.5 56,-19.5 56,-0.5 0,-0.5"/>
<text text-anchor="middle" x="28" y="-7.5" font-family="Helvetica,sans-Serif" font-size="10.00">FSM.cpp</text>
</a>
</g>
</g>
<!-- Node1&#45;&gt;Node4 -->
<g id="edge26" class="edge"><title>Node1&#45;&gt;Node4</title>
<path fill="none" stroke="midnightblue" d="M477.855,-170.607C439.476,-163.031 375.532,-149.236 322,-132 214.557,-97.4057 91.1619,-40.8679 45.8628,-19.5203"/>
<polygon fill="midnightblue" stroke="midnightblue" points="477.487,-174.101 487.972,-172.576 478.825,-167.23 477.487,-174.101"/>
</g>
<!-- Node5 -->
<g id="node5" class="node"><title>Node5</title>
<g id="a_node5"><a xlink:href="main_8cpp.html" target="_top" xlink:title="This is the main file, is the firmware&#39;s body. ">
<polygon fill="none" stroke="black" points="74,-0.5 74,-19.5 130,-19.5 130,-0.5 74,-0.5"/>
<text text-anchor="middle" x="102" y="-7.5" font-family="Helvetica,sans-Serif" font-size="10.00">main.cpp</text>
</a>
</g>
</g>
<!-- Node1&#45;&gt;Node5 -->
<g id="edge27" class="edge"><title>Node1&#45;&gt;Node5</title>
<path fill="none" stroke="midnightblue" d="M478.046,-167.001C449.902,-158.457 408.987,-145.445 374,-132 276.064,-94.3643 162.415,-40.3317 119.555,-19.572"/>
<polygon fill="midnightblue" stroke="midnightblue" points="477.219,-170.407 487.803,-169.939 479.237,-163.704 477.219,-170.407"/>
</g>
<!-- Node13 -->
<g id="node13" class="node"><title>Node13</title>
<g id="a_node13"><a xlink:href="_state_8cpp.html" target="_top" xlink:title="Brief description of file. ">
<polygon fill="none" stroke="black" points="962.5,-0.5 962.5,-19.5 1021.5,-19.5 1021.5,-0.5 962.5,-0.5"/>
<text text-anchor="middle" x="992" y="-7.5" font-family="Helvetica,sans-Serif" font-size="10.00">State.cpp</text>
</a>
</g>
</g>
<!-- Node1&#45;&gt;Node13 -->
<g id="edge28" class="edge"><title>Node1&#45;&gt;Node13</title>
<path fill="none" stroke="midnightblue" d="M546.344,-174.01C594.815,-169.063 685.575,-157.116 759,-132 847.842,-101.61 944.577,-41.7786 978.974,-19.5664"/>
<polygon fill="midnightblue" stroke="midnightblue" points="545.708,-170.555 536.097,-175.015 546.391,-177.522 545.708,-170.555"/>
</g>
<!-- Node15 -->
<g id="node15" class="node"><title>Node15</title>
<g id="a_node15"><a xlink:href="st___config_8h.html" target="_top" xlink:title="st_Config.h">
<polygon fill="none" stroke="black" points="383.5,-112.5 383.5,-131.5 450.5,-131.5 450.5,-112.5 383.5,-112.5"/>
<text text-anchor="middle" x="417" y="-119.5" font-family="Helvetica,sans-Serif" font-size="10.00">st_Config.h</text>
</a>
</g>
</g>
<!-- Node1&#45;&gt;Node15 -->
<g id="edge14" class="edge"><title>Node1&#45;&gt;Node15</title>
<path fill="none" stroke="midnightblue" d="M487.682,-163.177C470.201,-153.241 447.17,-140.149 432.226,-131.655"/>
<polygon fill="midnightblue" stroke="midnightblue" points="486.313,-166.425 496.737,-168.324 489.773,-160.339 486.313,-166.425"/>
</g>
<!-- Node16 -->
<g id="node16" class="node"><title>Node16</title>
<g id="a_node16"><a xlink:href="st___measure_8h.html" target="_top" xlink:title="st_Measure.h">
<polygon fill="none" stroke="black" points="507,-112.5 507,-131.5 583,-131.5 583,-112.5 507,-112.5"/>
<text text-anchor="middle" x="545" y="-119.5" font-family="Helvetica,sans-Serif" font-size="10.00">st_Measure.h</text>
</a>
</g>
</g>
<!-- Node1&#45;&gt;Node16 -->
<g id="edge17" class="edge"><title>Node1&#45;&gt;Node16</title>
<path fill="none" stroke="midnightblue" d="M522.832,-159.275C528.472,-150.045 535.118,-139.17 539.652,-131.751"/>
<polygon fill="midnightblue" stroke="midnightblue" points="519.677,-157.725 517.449,-168.083 525.65,-161.375 519.677,-157.725"/>
</g>
<!-- Node17 -->
<g id="node17" class="node"><title>Node17</title>
<g id="a_node17"><a xlink:href="st___output_8h.html" target="_top" xlink:title="st_Output.h">
<polygon fill="none" stroke="black" points="601,-112.5 601,-131.5 669,-131.5 669,-112.5 601,-112.5"/>
<text text-anchor="middle" x="635" y="-119.5" font-family="Helvetica,sans-Serif" font-size="10.00">st_Output.h</text>
</a>
</g>
</g>
<!-- Node1&#45;&gt;Node17 -->
<g id="edge20" class="edge"><title>Node1&#45;&gt;Node17</title>
<path fill="none" stroke="midnightblue" d="M540.773,-164.368C563.807,-154.255 595.484,-140.349 615.601,-131.516"/>
<polygon fill="midnightblue" stroke="midnightblue" points="539.239,-161.219 531.49,-168.444 542.053,-167.628 539.239,-161.219"/>
</g>
<!-- Node18 -->
<g id="node18" class="node"><title>Node18</title>
<g id="a_node18"><a xlink:href="st___sleep_8h.html" target="_top" xlink:title="st_Sleep.h">
<polygon fill="none" stroke="black" points="687.5,-112.5 687.5,-131.5 750.5,-131.5 750.5,-112.5 687.5,-112.5"/>
<text text-anchor="middle" x="719" y="-119.5" font-family="Helvetica,sans-Serif" font-size="10.00">st_Sleep.h</text>
</a>
</g>
</g>
<!-- Node1&#45;&gt;Node18 -->
<g id="edge23" class="edge"><title>Node1&#45;&gt;Node18</title>
<path fill="none" stroke="midnightblue" d="M546.026,-168.124C585.199,-157.905 649.041,-141.25 687.234,-131.287"/>
<polygon fill="midnightblue" stroke="midnightblue" points="544.943,-164.789 536.151,-170.7 546.71,-171.562 544.943,-164.789"/>
</g>
<!-- Node3 -->
<g id="node3" class="node"><title>Node3</title>
<g id="a_node3"><a xlink:href="_anemometer_8cpp.html" target="_top" xlink:title="Brief description of file. ">
<polygon fill="none" stroke="black" points="560.5,-0.5 560.5,-19.5 651.5,-19.5 651.5,-0.5 560.5,-0.5"/>
<text text-anchor="middle" x="606" y="-7.5" font-family="Helvetica,sans-Serif" font-size="10.00">Anemometer.cpp</text>
</a>
</g>
</g>
<!-- Node2&#45;&gt;Node3 -->
<g id="edge2" class="edge"><title>Node2&#45;&gt;Node3</title>
<path fill="none" stroke="midnightblue" d="M536.806,-51.1774C553.919,-41.2407 576.465,-28.1492 591.095,-19.6545"/>
<polygon fill="midnightblue" stroke="midnightblue" points="534.832,-48.2758 527.942,-56.324 538.347,-54.3293 534.832,-48.2758"/>
</g>
<!-- Node2&#45;&gt;Node4 -->
<g id="edge3" class="edge"><title>Node2&#45;&gt;Node4</title>
<path fill="none" stroke="midnightblue" d="M479.295,-63.2135C404.369,-58.8934 218.488,-46.2461 65,-20 62.1328,-19.5097 59.1582,-18.9221 56.1978,-18.2851"/>
<polygon fill="midnightblue" stroke="midnightblue" points="479.346,-66.7219 489.527,-63.7911 479.74,-59.733 479.346,-66.7219"/>
</g>
<!-- Node2&#45;&gt;Node5 -->
<g id="edge4" class="edge"><title>Node2&#45;&gt;Node5</title>
<path fill="none" stroke="midnightblue" d="M479.494,-62.3145C413.811,-56.7534 263.66,-42.5783 139,-20 136.138,-19.4816 133.166,-18.8755 130.208,-18.2272"/>
<polygon fill="midnightblue" stroke="midnightblue" points="479.403,-65.819 489.66,-63.1631 479.986,-58.8432 479.403,-65.819"/>
</g>
<!-- Node6 -->
<g id="node6" class="node"><title>Node6</title>
<g id="a_node6"><a xlink:href="_power_8cpp.html" target="_top" xlink:title="Power.cpp">
<polygon fill="none" stroke="black" points="243.5,-0.5 243.5,-19.5 306.5,-19.5 306.5,-0.5 243.5,-0.5"/>
<text text-anchor="middle" x="275" y="-7.5" font-family="Helvetica,sans-Serif" font-size="10.00">Power.cpp</text>
</a>
</g>
</g>
<!-- Node2&#45;&gt;Node6 -->
<g id="edge5" class="edge"><title>Node2&#45;&gt;Node6</title>
<path fill="none" stroke="midnightblue" d="M479.71,-57.4468C433.788,-47.0276 351.59,-28.3777 306.586,-18.1666"/>
<polygon fill="midnightblue" stroke="midnightblue" points="479.22,-60.9244 489.746,-59.7239 480.769,-54.0979 479.22,-60.9244"/>
</g>
<!-- Node7 -->
<g id="node7" class="node"><title>Node7</title>
<g id="a_node7"><a xlink:href="_r_t_c_8cpp.html" target="_top" xlink:title="Brief description of file. ">
<polygon fill="none" stroke="black" points="325,-0.5 325,-19.5 381,-19.5 381,-0.5 325,-0.5"/>
<text text-anchor="middle" x="353" y="-7.5" font-family="Helvetica,sans-Serif" font-size="10.00">RTC.cpp</text>
</a>
</g>
</g>
<!-- Node2&#45;&gt;Node7 -->
<g id="edge6" class="edge"><title>Node2&#45;&gt;Node7</title>
<path fill="none" stroke="midnightblue" d="M480.085,-53.891C449.934,-43.7152 405.931,-28.8642 378.409,-19.5756"/>
<polygon fill="midnightblue" stroke="midnightblue" points="479.14,-57.2663 489.735,-57.1479 481.379,-50.6339 479.14,-57.2663"/>
</g>
<!-- Node8 -->
<g id="node8" class="node"><title>Node8</title>
<g id="a_node8"><a xlink:href="_sensor_8cpp.html" target="_top" xlink:title="Brief description of file. ">
<polygon fill="none" stroke="black" points="399,-0.5 399,-19.5 465,-19.5 465,-0.5 399,-0.5"/>
<text text-anchor="middle" x="432" y="-7.5" font-family="Helvetica,sans-Serif" font-size="10.00">Sensor.cpp</text>
</a>
</g>
</g>
<!-- Node2&#45;&gt;Node8 -->
<g id="edge7" class="edge"><title>Node2&#45;&gt;Node8</title>
<path fill="none" stroke="midnightblue" d="M491.433,-50.6221C476.636,-40.7574 457.488,-27.9919 444.982,-19.6545"/>
<polygon fill="midnightblue" stroke="midnightblue" points="489.724,-53.6891 499.986,-56.324 493.607,-47.8647 489.724,-53.6891"/>
</g>
<!-- Node9 -->
<g id="node9" class="node"><title>Node9</title>
<g id="a_node9"><a xlink:href="st___config_8cpp.html" target="_top" xlink:title="st_Config.cpp">
<polygon fill="none" stroke="black" points="148.5,-0.5 148.5,-19.5 225.5,-19.5 225.5,-0.5 148.5,-0.5"/>
<text text-anchor="middle" x="187" y="-7.5" font-family="Helvetica,sans-Serif" font-size="10.00">st_Config.cpp</text>
</a>
</g>
</g>
<!-- Node2&#45;&gt;Node9 -->
<g id="edge8" class="edge"><title>Node2&#45;&gt;Node9</title>
<path fill="none" stroke="midnightblue" d="M479.763,-59.9615C427.417,-51.9535 322.599,-35.6245 234,-20 231.3,-19.5239 228.515,-19.0209 225.712,-18.506"/>
<polygon fill="midnightblue" stroke="midnightblue" points="479.399,-63.4464 489.813,-61.4952 480.455,-56.5265 479.399,-63.4464"/>
</g>
<!-- Node10 -->
<g id="node10" class="node"><title>Node10</title>
<g id="a_node10"><a xlink:href="st___measure_8cpp.html" target="_top" xlink:title="st_Measure.cpp">
<polygon fill="none" stroke="black" points="670,-0.5 670,-19.5 756,-19.5 756,-0.5 670,-0.5"/>
<text text-anchor="middle" x="713" y="-7.5" font-family="Helvetica,sans-Serif" font-size="10.00">st_Measure.cpp</text>
</a>
</g>
</g>
<!-- Node2&#45;&gt;Node10 -->
<g id="edge9" class="edge"><title>Node2&#45;&gt;Node10</title>
<path fill="none" stroke="midnightblue" d="M546.268,-56.0176C583.796,-45.8851 644.389,-29.525 681.271,-19.5667"/>
<polygon fill="midnightblue" stroke="midnightblue" points="545.076,-52.7141 536.334,-58.6998 546.901,-59.4721 545.076,-52.7141"/>
</g>
<!-- Node11 -->
<g id="node11" class="node"><title>Node11</title>
<g id="a_node11"><a xlink:href="st___output_8cpp.html" target="_top" xlink:title="st_Output.cpp">
<polygon fill="none" stroke="black" points="774,-0.5 774,-19.5 852,-19.5 852,-0.5 774,-0.5"/>
<text text-anchor="middle" x="813" y="-7.5" font-family="Helvetica,sans-Serif" font-size="10.00">st_Output.cpp</text>
</a>
</g>
</g>
<!-- Node2&#45;&gt;Node11 -->
<g id="edge10" class="edge"><title>Node2&#45;&gt;Node11</title>
<path fill="none" stroke="midnightblue" d="M546.167,-59.1714C594.372,-50.6788 686.6,-34.3498 765,-20 767.919,-19.4657 770.937,-18.9093 773.973,-18.3468"/>
<polygon fill="midnightblue" stroke="midnightblue" points="545.531,-55.7294 536.29,-60.9104 546.745,-62.6234 545.531,-55.7294"/>
</g>
<!-- Node12 -->
<g id="node12" class="node"><title>Node12</title>
<g id="a_node12"><a xlink:href="st___sleep_8cpp.html" target="_top" xlink:title="st_Sleep.cpp">
<polygon fill="none" stroke="black" points="870,-0.5 870,-19.5 944,-19.5 944,-0.5 870,-0.5"/>
<text text-anchor="middle" x="907" y="-7.5" font-family="Helvetica,sans-Serif" font-size="10.00">st_Sleep.cpp</text>
</a>
</g>
</g>
<!-- Node2&#45;&gt;Node12 -->
<g id="edge11" class="edge"><title>Node2&#45;&gt;Node12</title>
<path fill="none" stroke="midnightblue" d="M546.284,-61.4211C608.348,-54.5867 745.89,-38.6831 861,-20 863.892,-19.5307 866.88,-19.0153 869.88,-18.4763"/>
<polygon fill="midnightblue" stroke="midnightblue" points="545.849,-57.9477 536.289,-62.5149 546.61,-64.9061 545.849,-57.9477"/>
</g>
<!-- Node2&#45;&gt;Node13 -->
<g id="edge12" class="edge"><title>Node2&#45;&gt;Node13</title>
<path fill="none" stroke="midnightblue" d="M546.081,-63.0336C619.622,-58.3528 802.099,-45.0277 953,-20 956.016,-19.4997 959.148,-18.9056 962.266,-18.2646"/>
<polygon fill="midnightblue" stroke="midnightblue" points="545.799,-59.5442 536.037,-63.6618 546.237,-66.5306 545.799,-59.5442"/>
</g>
<!-- Node14 -->
<g id="node14" class="node"><title>Node14</title>
<g id="a_node14"><a xlink:href="_usart_8cpp.html" target="_top" xlink:title="This is the uart library for the atmega1284p. ">
<polygon fill="none" stroke="black" points="483.5,-0.5 483.5,-19.5 542.5,-19.5 542.5,-0.5 483.5,-0.5"/>
<text text-anchor="middle" x="513" y="-7.5" font-family="Helvetica,sans-Serif" font-size="10.00">Usart.cpp</text>
</a>
</g>
</g>
<!-- Node2&#45;&gt;Node14 -->
<g id="edge13" class="edge"><title>Node2&#45;&gt;Node14</title>
<path fill="none" stroke="midnightblue" d="M513,-45.8045C513,-36.9102 513,-26.7798 513,-19.7511"/>
<polygon fill="midnightblue" stroke="midnightblue" points="509.5,-46.083 513,-56.083 516.5,-46.083 509.5,-46.083"/>
</g>
<!-- Node15&#45;&gt;Node2 -->
<g id="edge15" class="edge"><title>Node15&#45;&gt;Node2</title>
<path fill="none" stroke="midnightblue" d="M441.574,-107.177C459.239,-97.2407 482.513,-84.1492 497.614,-75.6545"/>
<polygon fill="midnightblue" stroke="midnightblue" points="439.424,-104.371 432.424,-112.324 442.856,-110.472 439.424,-104.371"/>
</g>
<!-- Node15&#45;&gt;Node9 -->
<g id="edge16" class="edge"><title>Node15&#45;&gt;Node9</title>
<path fill="none" stroke="midnightblue" d="M389.863,-108.021C342.295,-85.2717 245.108,-38.791 204.964,-19.5914"/>
<polygon fill="midnightblue" stroke="midnightblue" points="388.421,-111.211 398.952,-112.368 391.441,-104.896 388.421,-111.211"/>
</g>
<!-- Node16&#45;&gt;Node2 -->
<g id="edge18" class="edge"><title>Node16&#45;&gt;Node2</title>
<path fill="none" stroke="midnightblue" d="M534.496,-103.275C529.027,-94.0454 522.582,-83.1703 518.186,-75.7511"/>
<polygon fill="midnightblue" stroke="midnightblue" points="531.607,-105.264 539.716,-112.083 537.629,-101.696 531.607,-105.264"/>
</g>
<!-- Node16&#45;&gt;Node10 -->
<g id="edge19" class="edge"><title>Node16&#45;&gt;Node10</title>
<path fill="none" stroke="midnightblue" d="M566.819,-106.714C602.22,-83.5347 671.107,-38.4303 699.879,-19.5914"/>
<polygon fill="midnightblue" stroke="midnightblue" points="564.632,-103.962 558.183,-112.368 568.466,-109.819 564.632,-103.962"/>
</g>
<!-- Node17&#45;&gt;Node2 -->
<g id="edge21" class="edge"><title>Node17&#45;&gt;Node2</title>
<path fill="none" stroke="midnightblue" d="M606.461,-108.368C583.614,-98.2553 552.195,-84.3486 532.241,-75.5164"/>
<polygon fill="midnightblue" stroke="midnightblue" points="605.108,-111.597 615.669,-112.444 607.941,-105.196 605.108,-111.597"/>
</g>
<!-- Node17&#45;&gt;Node11 -->
<g id="edge22" class="edge"><title>Node17&#45;&gt;Node11</title>
<path fill="none" stroke="midnightblue" d="M652.228,-105.118C668.025,-91.0707 692.472,-70.5973 716,-56 740.293,-40.9278 770.461,-27.7049 790.644,-19.5606"/>
<polygon fill="midnightblue" stroke="midnightblue" points="649.479,-102.884 644.402,-112.183 654.17,-108.08 649.479,-102.884"/>
</g>
<!-- Node18&#45;&gt;Node2 -->
<g id="edge24" class="edge"><title>Node18&#45;&gt;Node2</title>
<path fill="none" stroke="midnightblue" d="M677.487,-110.118C634.952,-98.9681 570.352,-82.0341 536.142,-73.0662"/>
<polygon fill="midnightblue" stroke="midnightblue" points="676.703,-113.531 687.264,-112.681 678.478,-106.759 676.703,-113.531"/>
</g>
<!-- Node18&#45;&gt;Node12 -->
<g id="edge25" class="edge"><title>Node18&#45;&gt;Node12</title>
<path fill="none" stroke="midnightblue" d="M742.413,-107.301C781.716,-84.3043 859.845,-38.5906 892.316,-19.5914"/>
<polygon fill="midnightblue" stroke="midnightblue" points="740.616,-104.297 733.752,-112.368 744.151,-110.339 740.616,-104.297"/>
</g>
</g>
</svg>
        <g id="navigator" transform="translate(0 0)" fill="#404254">
                <rect fill="#f2f5e9" fill-opacity="0.5" stroke="#606060" stroke-width=".5" x="0" y="0" width="60" height="60"/>
                <use id="zoomplus" xlink:href="#zoomPlus" x="17" y="9" onmousedown="handleZoom(evt,'in')"/>
                <use id="zoomminus" xlink:href="#zoomMin" x="42" y="9" onmousedown="handleZoom(evt,'out')"/>
                <use id="reset" xlink:href="#resetDef" x="30" y="36" onmousedown="handleReset()"/>
                <g id="arrowUp" xlink:href="#dirArrow" transform="translate(30 24)" onmousedown="handlePan(0,-1)">
                  <use xlink:href="#rim" fill="#404040">
                        <set attributeName="fill" to="#808080" begin="arrowUp.mouseover" end="arrowUp.mouseout"/>
                  </use>
                  <path fill="none" stroke="white" stroke-width="1.5" d="M0,-3.0v7 M-2.5,-0.5L0,-3.0L2.5,-0.5"/>
                </g>
                <g id="arrowRight" xlink:href="#dirArrow" transform="rotate(90) translate(36 -43)" onmousedown="handlePan(1,0)">
                  <use xlink:href="#rim" fill="#404040">
                        <set attributeName="fill" to="#808080" begin="arrowRight.mouseover" end="arrowRight.mouseout"/>
                  </use>
                  <path fill="none" stroke="white" stroke-width="1.5" d="M0,-3.0v7 M-2.5,-0.5L0,-3.0L2.5,-0.5"/>
                </g>
                <g id="arrowDown" xlink:href="#dirArrow" transform="rotate(180) translate(-30 -48)" onmousedown="handlePan(0,1)">
                  <use xlink:href="#rim" fill="#404040">
                        <set attributeName="fill" to="#808080" begin="arrowDown.mouseover" end="arrowDown.mouseout"/>
                  </use>
                  <path fill="none" stroke="white" stroke-width="1.5" d="M0,-3.0v7 M-2.5,-0.5L0,-3.0L2.5,-0.5"/>
                </g>
                <g id="arrowLeft" xlink:href="#dirArrow" transform="rotate(270) translate(-36 17)" onmousedown="handlePan(-1,0)">
                  <use xlink:href="#rim" fill="#404040">
                        <set attributeName="fill" to="#808080" begin="arrowLeft.mouseover" end="arrowLeft.mouseout"/>
                  </use>
                  <path fill="none" stroke="white" stroke-width="1.5" d="M0,-3.0v7 M-2.5,-0.5L0,-3.0L2.5,-0.5"/>
                </g>
        </g>
        <svg viewBox="0 0 15 15" width="100%" height="30px" preserveAspectRatio="xMaxYMin meet">
         <g id="arrow_out" transform="scale(0.3 0.3)">
          <a xlink:href="_state_8h__dep__incl_org.svg" target="_base">
           <rect id="button" ry="5" rx="5" y="6" x="6" height="38" width="38"
                fill="#f2f5e9" fill-opacity="0.5" stroke="#606060" stroke-width="1.0"/>
           <path id="arrow"
             d="M 11.500037,31.436501 C 11.940474,20.09759 22.043105,11.32322 32.158766,21.979434 L 37.068811,17.246167 C 37.068811,17.246167 37.088388,32 37.088388,32 L 22.160133,31.978069 C 22.160133,31.978069 26.997745,27.140456 26.997745,27.140456 C 18.528582,18.264221 13.291696,25.230495 11.500037,31.436501 z"
             style="fill:#404040;"/>
          </a>
         </g>
        </svg>
</svg>
