<?xml version="1.0" encoding="UTF-8" standalone="no"?>
<!DOCTYPE svg PUBLIC "-//W3C//DTD SVG 1.1//EN"
 "http://www.w3.org/Graphics/SVG/1.1/DTD/svg11.dtd">
<!-- Generated by graphviz version 2.38.0 (20140413.2041)
 -->
<!-- Title: State.cpp Pages: 1 -->
<svg width="1021pt" height="252pt"
 viewBox="0.00 0.00 1021.49 252.00" xmlns="http://www.w3.org/2000/svg" xmlns:xlink="http://www.w3.org/1999/xlink">
<g id="graph0" class="graph" transform="scale(1 1) rotate(0) translate(4 248)">
<title>State.cpp</title>
<!-- Node0 -->
<g id="node1" class="node"><title>Node0</title>
<polygon fill="#bfbfbf" stroke="black" points="530,-224.5 530,-243.5 589,-243.5 589,-224.5 530,-224.5"/>
<text text-anchor="middle" x="559.5" y="-231.5" font-family="Helvetica,sans-Serif" font-size="10.00">State.cpp</text>
</g>
<!-- Node1 -->
<g id="node2" class="node"><title>Node1</title>
<polygon fill="none" stroke="#bfbfbf" points="420,-168.5 420,-187.5 469,-187.5 469,-168.5 420,-168.5"/>
<text text-anchor="middle" x="444.5" y="-175.5" font-family="Helvetica,sans-Serif" font-size="10.00">string.h</text>
</g>
<!-- Node0&#45;&gt;Node1 -->
<g id="edge1" class="edge"><title>Node0&#45;&gt;Node1</title>
<path fill="none" stroke="midnightblue" d="M541.278,-224.444C522.604,-215.675 493.344,-201.935 471.883,-191.858"/>
<polygon fill="midnightblue" stroke="midnightblue" points="473.176,-188.599 462.637,-187.516 470.201,-194.935 473.176,-188.599"/>
</g>
<!-- Node2 -->
<g id="node3" class="node"><title>Node2</title>
<g id="a_node3"><a xlink:href="_f_s_m_8h.html" target="_top" xlink:title="The FSM is the finish state machine mechanism. ">
<polygon fill="none" stroke="black" points="525.5,-168.5 525.5,-187.5 593.5,-187.5 593.5,-168.5 525.5,-168.5"/>
<text text-anchor="middle" x="559.5" y="-175.5" font-family="Helvetica,sans-Serif" font-size="10.00">../lib/FSM.h</text>
</a>
</g>
</g>
<!-- Node0&#45;&gt;Node2 -->
<g id="edge2" class="edge"><title>Node0&#45;&gt;Node2</title>
<path fill="none" stroke="midnightblue" d="M559.5,-224.083C559.5,-217.006 559.5,-206.861 559.5,-197.986"/>
<polygon fill="midnightblue" stroke="midnightblue" points="563,-197.751 559.5,-187.751 556,-197.751 563,-197.751"/>
</g>
<!-- Node3 -->
<g id="node4" class="node"><title>Node3</title>
<g id="a_node4"><a xlink:href="_usart_8h.html" target="_top" xlink:title="This is the uart library for the atmega1284p. ">
<polygon fill="none" stroke="black" points="0,-112.5 0,-131.5 71,-131.5 71,-112.5 0,-112.5"/>
<text text-anchor="middle" x="35.5" y="-119.5" font-family="Helvetica,sans-Serif" font-size="10.00">../lib/Usart.h</text>
</a>
</g>
</g>
<!-- Node0&#45;&gt;Node3 -->
<g id="edge23" class="edge"><title>Node0&#45;&gt;Node3</title>
<path fill="none" stroke="midnightblue" d="M551.92,-224.385C538.546,-209.85 509.167,-180.791 477.5,-168 325.125,-106.451 272.856,-149.922 109.5,-132 100.336,-130.995 90.5421,-129.852 81.1786,-128.726"/>
<polygon fill="midnightblue" stroke="midnightblue" points="81.5864,-125.25 71.2373,-127.518 80.7422,-132.199 81.5864,-125.25"/>
</g>
<!-- Node8 -->
<g id="node9" class="node"><title>Node8</title>
<g id="a_node9"><a xlink:href="main_8h.html" target="_top" xlink:title="The main.h file regroup global constant declaration. ">
<polygon fill="none" stroke="black" points="297.5,-0.5 297.5,-19.5 365.5,-19.5 365.5,-0.5 297.5,-0.5"/>
<text text-anchor="middle" x="331.5" y="-7.5" font-family="Helvetica,sans-Serif" font-size="10.00">../lib/main.h</text>
</a>
</g>
</g>
<!-- Node0&#45;&gt;Node8 -->
<g id="edge24" class="edge"><title>Node0&#45;&gt;Node8</title>
<path fill="none" stroke="midnightblue" d="M589.175,-233.28C650.956,-232.992 797.152,-227.752 911.5,-188 961.92,-170.472 1038.76,-152.934 1004.5,-112 923.851,-15.6406 512.596,-9.68119 375.81,-10.4212"/>
<polygon fill="midnightblue" stroke="midnightblue" points="375.664,-6.92207 365.688,-10.4913 375.712,-13.9219 375.664,-6.92207"/>
</g>
<!-- Node11 -->
<g id="node12" class="node"><title>Node11</title>
<g id="a_node12"><a xlink:href="_state_8h.html" target="_top" xlink:title="Brief description of file. ">
<polygon fill="none" stroke="black" points="612.5,-56.5 612.5,-75.5 682.5,-75.5 682.5,-56.5 612.5,-56.5"/>
<text text-anchor="middle" x="647.5" y="-63.5" font-family="Helvetica,sans-Serif" font-size="10.00">../lib/State.h</text>
</a>
</g>
</g>
<!-- Node0&#45;&gt;Node11 -->
<g id="edge25" class="edge"><title>Node0&#45;&gt;Node11</title>
<path fill="none" stroke="midnightblue" d="M589.014,-230.683C677.603,-223.057 938.207,-195.509 988.5,-132 994.018,-125.032 994.36,-118.684 988.5,-112 969.283,-90.0802 780.983,-75.4182 692.723,-69.6952"/>
<polygon fill="midnightblue" stroke="midnightblue" points="692.93,-66.2013 682.727,-69.0575 692.484,-73.1871 692.93,-66.2013"/>
</g>
<!-- Node2&#45;&gt;Node3 -->
<g id="edge3" class="edge"><title>Node2&#45;&gt;Node3</title>
<path fill="none" stroke="midnightblue" d="M525.48,-170.182C520.795,-169.372 516.037,-168.615 511.5,-168 323.216,-142.459 273.875,-156.858 85.5,-132 84.0517,-131.809 82.5816,-131.605 81.0984,-131.39"/>
<polygon fill="midnightblue" stroke="midnightblue" points="81.6356,-127.932 71.2157,-129.849 80.5568,-134.848 81.6356,-127.932"/>
</g>
<!-- Node4 -->
<g id="node5" class="node"><title>Node4</title>
<g id="a_node5"><a xlink:href="_t_w_i_8h.html" target="_top" xlink:title="Brief description of file. ">
<polygon fill="none" stroke="black" points="712,-112.5 712,-131.5 777,-131.5 777,-112.5 712,-112.5"/>
<text text-anchor="middle" x="744.5" y="-119.5" font-family="Helvetica,sans-Serif" font-size="10.00">../lib/TWI.h</text>
</a>
</g>
</g>
<!-- Node2&#45;&gt;Node4 -->
<g id="edge4" class="edge"><title>Node2&#45;&gt;Node4</title>
<path fill="none" stroke="midnightblue" d="M588.814,-168.444C620.342,-159.241 670.631,-144.562 705.486,-134.388"/>
<polygon fill="midnightblue" stroke="midnightblue" points="706.705,-137.678 715.323,-131.516 704.743,-130.959 706.705,-137.678"/>
</g>
<!-- Node5 -->
<g id="node6" class="node"><title>Node5</title>
<g id="a_node6"><a xlink:href="_r_t_c_8h.html" target="_top" xlink:title="The RTC class regroup methods and parameters to use the Real Time Clock : pcf8563. ">
<polygon fill="none" stroke="black" points="795.5,-112.5 795.5,-131.5 863.5,-131.5 863.5,-112.5 795.5,-112.5"/>
<text text-anchor="middle" x="829.5" y="-119.5" font-family="Helvetica,sans-Serif" font-size="10.00">../lib/RTC.h</text>
</a>
</g>
</g>
<!-- Node2&#45;&gt;Node5 -->
<g id="edge5" class="edge"><title>Node2&#45;&gt;Node5</title>
<path fill="none" stroke="midnightblue" d="M593.75,-170.328C636.3,-162.013 711.389,-147.256 785.295,-132.23"/>
<polygon fill="midnightblue" stroke="midnightblue" points="786.139,-135.63 795.239,-130.205 784.742,-128.771 786.139,-135.63"/>
</g>
<!-- Node6 -->
<g id="node7" class="node"><title>Node6</title>
<g id="a_node7"><a xlink:href="_windvane_8h.html" target="_top" xlink:title="Brief description of file. ">
<polygon fill="none" stroke="black" points="127.5,-112.5 127.5,-131.5 217.5,-131.5 217.5,-112.5 127.5,-112.5"/>
<text text-anchor="middle" x="172.5" y="-119.5" font-family="Helvetica,sans-Serif" font-size="10.00">../lib/Windvane.h</text>
</a>
</g>
</g>
<!-- Node2&#45;&gt;Node6 -->
<g id="edge6" class="edge"><title>Node2&#45;&gt;Node6</title>
<path fill="none" stroke="midnightblue" d="M525.455,-170.357C520.774,-169.519 516.023,-168.709 511.5,-168 388.57,-148.729 354.539,-150.397 227.668,-132.117"/>
<polygon fill="midnightblue" stroke="midnightblue" points="227.96,-128.622 217.56,-130.647 226.953,-135.55 227.96,-128.622"/>
</g>
<!-- Node9 -->
<g id="node10" class="node"><title>Node9</title>
<g id="a_node10"><a xlink:href="_anemometer_8h.html" target="_top" xlink:title="Brief description of file. ">
<polygon fill="none" stroke="black" points="235.5,-112.5 235.5,-131.5 337.5,-131.5 337.5,-112.5 235.5,-112.5"/>
<text text-anchor="middle" x="286.5" y="-119.5" font-family="Helvetica,sans-Serif" font-size="10.00">../lib/Anemometer.h</text>
</a>
</g>
</g>
<!-- Node2&#45;&gt;Node9 -->
<g id="edge9" class="edge"><title>Node2&#45;&gt;Node9</title>
<path fill="none" stroke="midnightblue" d="M525.476,-170.27C478.784,-161.034 394.392,-144.341 339.415,-133.467"/>
<polygon fill="midnightblue" stroke="midnightblue" points="339.996,-130.014 329.507,-131.507 338.638,-136.881 339.996,-130.014"/>
</g>
<!-- Node10 -->
<g id="node11" class="node"><title>Node10</title>
<g id="a_node11"><a xlink:href="_power_8h.html" target="_top" xlink:title="../lib/Power.h">
<polygon fill="none" stroke="black" points="109.5,-56.5 109.5,-75.5 183.5,-75.5 183.5,-56.5 109.5,-56.5"/>
<text text-anchor="middle" x="146.5" y="-63.5" font-family="Helvetica,sans-Serif" font-size="10.00">../lib/Power.h</text>
</a>
</g>
</g>
<!-- Node2&#45;&gt;Node10 -->
<g id="edge11" class="edge"><title>Node2&#45;&gt;Node10</title>
<path fill="none" stroke="midnightblue" d="M525.476,-170.212C520.792,-169.397 516.035,-168.631 511.5,-168 468.069,-161.953 148.058,-164.39 118.5,-132 105.76,-118.04 118.437,-97.3904 130.588,-83.1293"/>
<polygon fill="midnightblue" stroke="midnightblue" points="133.33,-85.3161 137.485,-75.5697 128.159,-80.5981 133.33,-85.3161"/>
</g>
<!-- Node2&#45;&gt;Node11 -->
<g id="edge13" class="edge"><title>Node2&#45;&gt;Node11</title>
<path fill="none" stroke="midnightblue" d="M593.688,-172.276C617.954,-166.943 648.888,-155.677 664.5,-132 673.995,-117.6 666.849,-98.1479 659.118,-84.2849"/>
<polygon fill="midnightblue" stroke="midnightblue" points="662.076,-82.4129 653.87,-75.7111 656.105,-86.0674 662.076,-82.4129"/>
</g>
<!-- Node12 -->
<g id="node13" class="node"><title>Node12</title>
<g id="a_node13"><a xlink:href="st___config_8h.html" target="_top" xlink:title="../lib/st_Config.h">
<polygon fill="none" stroke="black" points="356,-112.5 356,-131.5 445,-131.5 445,-112.5 356,-112.5"/>
<text text-anchor="middle" x="400.5" y="-119.5" font-family="Helvetica,sans-Serif" font-size="10.00">../lib/st_Config.h</text>
</a>
</g>
</g>
<!-- Node2&#45;&gt;Node12 -->
<g id="edge14" class="edge"><title>Node2&#45;&gt;Node12</title>
<path fill="none" stroke="midnightblue" d="M534.306,-168.444C507.557,-159.359 465.097,-144.939 435.195,-134.783"/>
<polygon fill="midnightblue" stroke="midnightblue" points="436.171,-131.418 425.576,-131.516 433.919,-138.046 436.171,-131.418"/>
</g>
<!-- Node13 -->
<g id="node14" class="node"><title>Node13</title>
<g id="a_node14"><a xlink:href="st___measure_8h.html" target="_top" xlink:title="../lib/st_Measure.h">
<polygon fill="none" stroke="black" points="881.5,-112.5 881.5,-131.5 979.5,-131.5 979.5,-112.5 881.5,-112.5"/>
<text text-anchor="middle" x="930.5" y="-119.5" font-family="Helvetica,sans-Serif" font-size="10.00">../lib/st_Measure.h</text>
</a>
</g>
</g>
<!-- Node2&#45;&gt;Node13 -->
<g id="edge17" class="edge"><title>Node2&#45;&gt;Node13</title>
<path fill="none" stroke="midnightblue" d="M593.792,-172.197C649.654,-164.346 764.039,-148.154 871.423,-132.148"/>
<polygon fill="midnightblue" stroke="midnightblue" points="872.085,-135.588 881.458,-130.649 871.051,-128.665 872.085,-135.588"/>
</g>
<!-- Node14 -->
<g id="node15" class="node"><title>Node14</title>
<g id="a_node15"><a xlink:href="st___output_8h.html" target="_top" xlink:title="../lib/st_Output.h">
<polygon fill="none" stroke="black" points="463,-112.5 463,-131.5 552,-131.5 552,-112.5 463,-112.5"/>
<text text-anchor="middle" x="507.5" y="-119.5" font-family="Helvetica,sans-Serif" font-size="10.00">../lib/st_Output.h</text>
</a>
</g>
</g>
<!-- Node2&#45;&gt;Node14 -->
<g id="edge19" class="edge"><title>Node2&#45;&gt;Node14</title>
<path fill="none" stroke="midnightblue" d="M550.913,-168.083C543.341,-160.22 532.122,-148.569 522.986,-139.081"/>
<polygon fill="midnightblue" stroke="midnightblue" points="525.385,-136.527 515.927,-131.751 520.342,-141.382 525.385,-136.527"/>
</g>
<!-- Node15 -->
<g id="node16" class="node"><title>Node15</title>
<g id="a_node16"><a xlink:href="st___sleep_8h.html" target="_top" xlink:title="../lib/st_Sleep.h">
<polygon fill="none" stroke="black" points="570,-112.5 570,-131.5 655,-131.5 655,-112.5 570,-112.5"/>
<text text-anchor="middle" x="612.5" y="-119.5" font-family="Helvetica,sans-Serif" font-size="10.00">../lib/st_Sleep.h</text>
</a>
</g>
</g>
<!-- Node2&#45;&gt;Node15 -->
<g id="edge21" class="edge"><title>Node2&#45;&gt;Node15</title>
<path fill="none" stroke="midnightblue" d="M568.252,-168.083C575.97,-160.22 587.405,-148.569 596.717,-139.081"/>
<polygon fill="midnightblue" stroke="midnightblue" points="599.404,-141.34 603.911,-131.751 594.408,-136.436 599.404,-141.34"/>
</g>
<!-- Node7 -->
<g id="node8" class="node"><title>Node7</title>
<g id="a_node8"><a xlink:href="_sensor_8h.html" target="_top" xlink:title="This class is the base class of sensor. ">
<polygon fill="none" stroke="black" points="248,-56.5 248,-75.5 325,-75.5 325,-56.5 248,-56.5"/>
<text text-anchor="middle" x="286.5" y="-63.5" font-family="Helvetica,sans-Serif" font-size="10.00">../lib/Sensor.h</text>
</a>
</g>
</g>
<!-- Node6&#45;&gt;Node7 -->
<g id="edge7" class="edge"><title>Node6&#45;&gt;Node7</title>
<path fill="none" stroke="midnightblue" d="M190.564,-112.444C209.075,-103.675 238.081,-89.9355 259.355,-79.8579"/>
<polygon fill="midnightblue" stroke="midnightblue" points="260.982,-82.9604 268.521,-75.5164 257.985,-76.6343 260.982,-82.9604"/>
</g>
<!-- Node7&#45;&gt;Node8 -->
<g id="edge8" class="edge"><title>Node7&#45;&gt;Node8</title>
<path fill="none" stroke="midnightblue" d="M293.931,-56.083C300.353,-48.3768 309.806,-37.0333 317.622,-27.6531"/>
<polygon fill="midnightblue" stroke="midnightblue" points="320.494,-29.674 324.207,-19.7511 315.117,-25.1927 320.494,-29.674"/>
</g>
<!-- Node9&#45;&gt;Node7 -->
<g id="edge10" class="edge"><title>Node9&#45;&gt;Node7</title>
<path fill="none" stroke="midnightblue" d="M286.5,-112.083C286.5,-105.006 286.5,-94.8611 286.5,-85.9865"/>
<polygon fill="midnightblue" stroke="midnightblue" points="290,-85.751 286.5,-75.7511 283,-85.7511 290,-85.751"/>
</g>
<!-- Node10&#45;&gt;Node8 -->
<g id="edge12" class="edge"><title>Node10&#45;&gt;Node8</title>
<path fill="none" stroke="midnightblue" d="M175.814,-56.4435C207.342,-47.2406 257.631,-32.5617 292.486,-22.3879"/>
<polygon fill="midnightblue" stroke="midnightblue" points="293.705,-25.6783 302.323,-19.5164 291.743,-18.9587 293.705,-25.6783"/>
</g>
<!-- Node12&#45;&gt;Node8 -->
<g id="edge15" class="edge"><title>Node12&#45;&gt;Node8</title>
<path fill="none" stroke="midnightblue" d="M395.086,-112.368C383.749,-94.2957 357.329,-52.1764 342.356,-28.3074"/>
<polygon fill="midnightblue" stroke="midnightblue" points="345.168,-26.2029 336.889,-19.5914 339.238,-29.9226 345.168,-26.2029"/>
</g>
<!-- Node12&#45;&gt;Node11 -->
<g id="edge16" class="edge"><title>Node12&#45;&gt;Node11</title>
<path fill="none" stroke="midnightblue" d="M439.638,-112.444C483.867,-102.774 555.748,-87.0591 602.324,-76.8766"/>
<polygon fill="midnightblue" stroke="midnightblue" points="603.125,-80.2841 612.147,-74.729 601.63,-73.4457 603.125,-80.2841"/>
</g>
<!-- Node13&#45;&gt;Node11 -->
<g id="edge18" class="edge"><title>Node13&#45;&gt;Node11</title>
<path fill="none" stroke="midnightblue" d="M885.658,-112.444C832.91,-102.379 745.837,-85.7639 692.864,-75.656"/>
<polygon fill="midnightblue" stroke="midnightblue" points="693.223,-72.1615 682.744,-73.7251 691.911,-79.0374 693.223,-72.1615"/>
</g>
<!-- Node14&#45;&gt;Node11 -->
<g id="edge20" class="edge"><title>Node14&#45;&gt;Node11</title>
<path fill="none" stroke="midnightblue" d="M529.683,-112.444C552.928,-103.478 589.649,-89.314 615.915,-79.1827"/>
<polygon fill="midnightblue" stroke="midnightblue" points="617.35,-82.3807 625.42,-75.5164 614.831,-75.8497 617.35,-82.3807"/>
</g>
<!-- Node15&#45;&gt;Node11 -->
<g id="edge22" class="edge"><title>Node15&#45;&gt;Node11</title>
<path fill="none" stroke="midnightblue" d="M618.28,-112.083C623.172,-104.534 630.327,-93.4948 636.333,-84.2298"/>
<polygon fill="midnightblue" stroke="midnightblue" points="639.326,-86.0463 641.828,-75.7511 633.452,-82.239 639.326,-86.0463"/>
</g>
</g>
</svg>
