<?xml version="1.0" encoding="UTF-8" standalone="no"?>
<!DOCTYPE svg PUBLIC "-//W3C//DTD SVG 1.1//EN"
 "http://www.w3.org/Graphics/SVG/1.1/DTD/svg11.dtd">
<!-- Generated by graphviz version 2.38.0 (20140413.2041)
 -->
<!-- Title: State.cpp Pages: 1 -->
<!--zoomable 252 -->
<svg id="main" version="1.1" xmlns="http://www.w3.org/2000/svg" xmlns:xlink="http://www.w3.org/1999/xlink" xml:space="preserve" onload="init(evt)">
<style type="text/css"><![CDATA[
.edge:hover path { stroke: red; }
.edge:hover polygon { stroke: red; fill: red; }
]]></style>
<script type="text/javascript"><![CDATA[
var edges = document.getElementsByTagName('g');
if (edges && edges.length) {
  for (var i=0;i<edges.length;i++) {
    if (edges[i].id.substr(0,4)=='edge') {
      edges[i].setAttribute('class','edge');
    }
  }
}
]]></script>
        <defs>
                <circle id="rim" cx="0" cy="0" r="7"/>
                <circle id="rim2" cx="0" cy="0" r="3.5"/>
                <g id="zoomPlus">
                        <use xlink:href="#rim" fill="#404040">
                                <set attributeName="fill" to="#808080" begin="zoomplus.mouseover" end="zoomplus.mouseout"/>
                        </use>
                        <path d="M-4,0h8M0,-4v8" fill="none" stroke="white" stroke-width="1.5" pointer-events="none"/>
                </g>
                <g id="zoomMin">
                        <use xlink:href="#rim" fill="#404040">
                                <set attributeName="fill" to="#808080" begin="zoomminus.mouseover" end="zoomminus.mouseout"/>
                        </use>
                        <path d="M-4,0h8" fill="none" stroke="white" stroke-width="1.5" pointer-events="none"/>
                </g>
                <g id="dirArrow">
                        <path fill="none" stroke="white" stroke-width="1.5" d="M0,-3.0v7 M-2.5,-0.5L0,-3.0L2.5,-0.5"/>
                </g>
               <g id="resetDef">
                       <use xlink:href="#rim2" fill="#404040">
                               <set attributeName="fill" to="#808080" begin="reset.mouseover" end="reset.mouseout"/>
                       </use>
               </g>
        </defs>

<script type="text/javascript">
var viewWidth = 1114;
var viewHeight = 252;
var sectionId = 'dynsection-0';
</script>
<script xlink:href="svgpan.js"/>
<svg id="graph" class="graph">
<g id="viewport">
<title>State.cpp</title>
<!-- Node0 -->
<g id="node1" class="node"><title>Node0</title>
<polygon fill="#bfbfbf" stroke="black" points="112,-224.5 112,-243.5 171,-243.5 171,-224.5 112,-224.5"/>
<text text-anchor="middle" x="141.5" y="-231.5" font-family="Helvetica,sans-Serif" font-size="10.00">State.cpp</text>
</g>
<!-- Node1 -->
<g id="node2" class="node"><title>Node1</title>
<polygon fill="none" stroke="#bfbfbf" points="0,-168.5 0,-187.5 49,-187.5 49,-168.5 0,-168.5"/>
<text text-anchor="middle" x="24.5" y="-175.5" font-family="Helvetica,sans-Serif" font-size="10.00">string.h</text>
</g>
<!-- Node0&#45;&gt;Node1 -->
<g id="edge1" class="edge"><title>Node0&#45;&gt;Node1</title>
<path fill="none" stroke="midnightblue" d="M122.961,-224.444C103.877,-215.636 73.9251,-201.812 52.0643,-191.722"/>
<polygon fill="midnightblue" stroke="midnightblue" points="53.4986,-188.529 42.9523,-187.516 50.5651,-194.885 53.4986,-188.529"/>
</g>
<!-- Node2 -->
<g id="node3" class="node"><title>Node2</title>
<g id="a_node3"><a xlink:href="_f_s_m_8h.html" target="_top" xlink:title="The FSM is the finish state machine mechanism. ">
<polygon fill="none" stroke="black" points="534.5,-168.5 534.5,-187.5 602.5,-187.5 602.5,-168.5 534.5,-168.5"/>
<text text-anchor="middle" x="568.5" y="-175.5" font-family="Helvetica,sans-Serif" font-size="10.00">../lib/FSM.h</text>
</a>
</g>
</g>
<!-- Node0&#45;&gt;Node2 -->
<g id="edge2" class="edge"><title>Node0&#45;&gt;Node2</title>
<path fill="none" stroke="midnightblue" d="M171.187,-229.246C244.974,-219.914 437.004,-195.629 524.233,-184.598"/>
<polygon fill="midnightblue" stroke="midnightblue" points="524.854,-188.048 534.336,-183.32 523.976,-181.103 524.854,-188.048"/>
</g>
<!-- Node3 -->
<g id="node4" class="node"><title>Node3</title>
<g id="a_node4"><a xlink:href="_usart_8h.html" target="_top" xlink:title="This is the uart library for the atmega1284p. ">
<polygon fill="none" stroke="black" points="106,-112.5 106,-131.5 177,-131.5 177,-112.5 106,-112.5"/>
<text text-anchor="middle" x="141.5" y="-119.5" font-family="Helvetica,sans-Serif" font-size="10.00">../lib/Usart.h</text>
</a>
</g>
</g>
<!-- Node0&#45;&gt;Node3 -->
<g id="edge24" class="edge"><title>Node0&#45;&gt;Node3</title>
<path fill="none" stroke="midnightblue" d="M141.5,-224.368C141.5,-206.617 141.5,-165.666 141.5,-141.597"/>
<polygon fill="midnightblue" stroke="midnightblue" points="145,-141.591 141.5,-131.591 138,-141.591 145,-141.591"/>
</g>
<!-- Node8 -->
<g id="node9" class="node"><title>Node8</title>
<g id="a_node9"><a xlink:href="main_8h.html" target="_top" xlink:title="The main.h file regroup global constant declaration. ">
<polygon fill="none" stroke="black" points="860.5,-0.5 860.5,-19.5 928.5,-19.5 928.5,-0.5 860.5,-0.5"/>
<text text-anchor="middle" x="894.5" y="-7.5" font-family="Helvetica,sans-Serif" font-size="10.00">../lib/main.h</text>
</a>
</g>
</g>
<!-- Node0&#45;&gt;Node8 -->
<g id="edge25" class="edge"><title>Node0&#45;&gt;Node8</title>
<path fill="none" stroke="midnightblue" d="M171.198,-232.173C325.544,-227.578 1031.46,-202.776 1094.5,-132 1145.61,-74.6221 1011.71,-35.9279 938.511,-19.6679"/>
<polygon fill="midnightblue" stroke="midnightblue" points="939.126,-16.22 928.611,-17.5229 937.643,-23.0612 939.126,-16.22"/>
</g>
<!-- Node11 -->
<g id="node12" class="node"><title>Node11</title>
<g id="a_node12"><a xlink:href="_state_8h.html" target="_top" xlink:title="Brief description of file. ">
<polygon fill="none" stroke="black" points="373.5,-56.5 373.5,-75.5 443.5,-75.5 443.5,-56.5 373.5,-56.5"/>
<text text-anchor="middle" x="408.5" y="-63.5" font-family="Helvetica,sans-Serif" font-size="10.00">../lib/State.h</text>
</a>
</g>
</g>
<!-- Node0&#45;&gt;Node11 -->
<g id="edge26" class="edge"><title>Node0&#45;&gt;Node11</title>
<path fill="none" stroke="midnightblue" d="M132.979,-224.329C112.915,-202.877 66.5662,-146.561 96.5,-112 130.49,-72.756 285.475,-66.9646 363.436,-66.596"/>
<polygon fill="midnightblue" stroke="midnightblue" points="363.46,-70.096 373.453,-66.5766 363.447,-63.096 363.46,-70.096"/>
</g>
<!-- Node2&#45;&gt;Node3 -->
<g id="edge3" class="edge"><title>Node2&#45;&gt;Node3</title>
<path fill="none" stroke="midnightblue" d="M534.39,-173.908C469.089,-167.788 321.712,-153.016 187.374,-132.02"/>
<polygon fill="midnightblue" stroke="midnightblue" points="187.738,-128.534 177.315,-130.432 186.647,-135.449 187.738,-128.534"/>
</g>
<!-- Node4 -->
<g id="node5" class="node"><title>Node4</title>
<g id="a_node5"><a xlink:href="_t_w_i_8h.html" target="_top" xlink:title="Brief description of file. ">
<polygon fill="none" stroke="black" points="668,-112.5 668,-131.5 733,-131.5 733,-112.5 668,-112.5"/>
<text text-anchor="middle" x="700.5" y="-119.5" font-family="Helvetica,sans-Serif" font-size="10.00">../lib/TWI.h</text>
</a>
</g>
</g>
<!-- Node2&#45;&gt;Node4 -->
<g id="edge4" class="edge"><title>Node2&#45;&gt;Node4</title>
<path fill="none" stroke="midnightblue" d="M589.416,-168.444C611.236,-159.517 645.65,-145.439 670.392,-135.317"/>
<polygon fill="midnightblue" stroke="midnightblue" points="671.752,-138.542 679.682,-131.516 669.101,-132.063 671.752,-138.542"/>
</g>
<!-- Node5 -->
<g id="node6" class="node"><title>Node5</title>
<g id="a_node6"><a xlink:href="_r_t_c_8h.html" target="_top" xlink:title="The RTC class regroup methods and parameters to use the Real Time Clock : pcf8563. ">
<polygon fill="none" stroke="black" points="751.5,-112.5 751.5,-131.5 819.5,-131.5 819.5,-112.5 751.5,-112.5"/>
<text text-anchor="middle" x="785.5" y="-119.5" font-family="Helvetica,sans-Serif" font-size="10.00">../lib/RTC.h</text>
</a>
</g>
</g>
<!-- Node2&#45;&gt;Node5 -->
<g id="edge5" class="edge"><title>Node2&#45;&gt;Node5</title>
<path fill="none" stroke="midnightblue" d="M602.884,-168.444C640.422,-159.102 700.631,-144.119 741.567,-133.933"/>
<polygon fill="midnightblue" stroke="midnightblue" points="742.418,-137.328 751.277,-131.516 740.727,-130.535 742.418,-137.328"/>
</g>
<!-- Node6 -->
<g id="node7" class="node"><title>Node6</title>
<g id="a_node7"><a xlink:href="_windvane_8h.html" target="_top" xlink:title="Brief description of file. ">
<polygon fill="none" stroke="black" points="875.5,-112.5 875.5,-131.5 965.5,-131.5 965.5,-112.5 875.5,-112.5"/>
<text text-anchor="middle" x="920.5" y="-119.5" font-family="Helvetica,sans-Serif" font-size="10.00">../lib/Windvane.h</text>
</a>
</g>
</g>
<!-- Node2&#45;&gt;Node6 -->
<g id="edge6" class="edge"><title>Node2&#45;&gt;Node6</title>
<path fill="none" stroke="midnightblue" d="M602.571,-171.773C663.542,-162.42 791.8,-142.744 865.419,-131.45"/>
<polygon fill="midnightblue" stroke="midnightblue" points="866.078,-134.89 875.431,-129.914 865.016,-127.971 866.078,-134.89"/>
</g>
<!-- Node9 -->
<g id="node10" class="node"><title>Node9</title>
<g id="a_node10"><a xlink:href="_anemometer_8h.html" target="_top" xlink:title="Brief description of file. ">
<polygon fill="none" stroke="black" points="983.5,-112.5 983.5,-131.5 1085.5,-131.5 1085.5,-112.5 983.5,-112.5"/>
<text text-anchor="middle" x="1034.5" y="-119.5" font-family="Helvetica,sans-Serif" font-size="10.00">../lib/Anemometer.h</text>
</a>
</g>
</g>
<!-- Node2&#45;&gt;Node9 -->
<g id="edge9" class="edge"><title>Node2&#45;&gt;Node9</title>
<path fill="none" stroke="midnightblue" d="M602.506,-173.678C670.685,-166.92 829.183,-150.729 973.119,-132.136"/>
<polygon fill="midnightblue" stroke="midnightblue" points="973.99,-135.552 983.456,-130.793 973.088,-128.611 973.99,-135.552"/>
</g>
<!-- Node10 -->
<g id="node11" class="node"><title>Node10</title>
<g id="a_node11"><a xlink:href="_power_8h.html" target="_top" xlink:title="../lib/Power.h">
<polygon fill="none" stroke="black" points="810.5,-56.5 810.5,-75.5 884.5,-75.5 884.5,-56.5 810.5,-56.5"/>
<text text-anchor="middle" x="847.5" y="-63.5" font-family="Helvetica,sans-Serif" font-size="10.00">../lib/Power.h</text>
</a>
</g>
</g>
<!-- Node2&#45;&gt;Node10 -->
<g id="edge11" class="edge"><title>Node2&#45;&gt;Node10</title>
<path fill="none" stroke="midnightblue" d="M602.974,-175.461C665.848,-171.958 795.697,-161.291 828.5,-132 841.498,-120.393 845.814,-100.438 847.144,-85.6915"/>
<polygon fill="midnightblue" stroke="midnightblue" points="850.642,-85.8255 847.674,-75.655 843.652,-85.4567 850.642,-85.8255"/>
</g>
<!-- Node2&#45;&gt;Node11 -->
<g id="edge13" class="edge"><title>Node2&#45;&gt;Node11</title>
<path fill="none" stroke="midnightblue" d="M562.943,-168.32C553.85,-154.711 534.581,-128.235 512.5,-112 492.749,-97.478 467.585,-86.4315 446.958,-78.9177"/>
<polygon fill="midnightblue" stroke="midnightblue" points="447.834,-75.5162 437.239,-75.5131 445.52,-82.1226 447.834,-75.5162"/>
</g>
<!-- Node12 -->
<g id="node13" class="node"><title>Node12</title>
<g id="a_node13"><a xlink:href="st___config_8h.html" target="_top" xlink:title="../lib/st_Config.h">
<polygon fill="none" stroke="black" points="561,-112.5 561,-131.5 650,-131.5 650,-112.5 561,-112.5"/>
<text text-anchor="middle" x="605.5" y="-119.5" font-family="Helvetica,sans-Serif" font-size="10.00">../lib/st_Config.h</text>
</a>
</g>
</g>
<!-- Node2&#45;&gt;Node12 -->
<g id="edge14" class="edge"><title>Node2&#45;&gt;Node12</title>
<path fill="none" stroke="midnightblue" d="M574.61,-168.083C579.782,-160.534 587.346,-149.495 593.694,-140.23"/>
<polygon fill="midnightblue" stroke="midnightblue" points="596.739,-141.979 599.504,-131.751 590.964,-138.022 596.739,-141.979"/>
</g>
<!-- Node14 -->
<g id="node15" class="node"><title>Node14</title>
<g id="a_node15"><a xlink:href="st___measure_8h.html" target="_top" xlink:title="../lib/st_Measure.h">
<polygon fill="none" stroke="black" points="195.5,-112.5 195.5,-131.5 293.5,-131.5 293.5,-112.5 195.5,-112.5"/>
<text text-anchor="middle" x="244.5" y="-119.5" font-family="Helvetica,sans-Serif" font-size="10.00">../lib/st_Measure.h</text>
</a>
</g>
</g>
<!-- Node2&#45;&gt;Node14 -->
<g id="edge18" class="edge"><title>Node2&#45;&gt;Node14</title>
<path fill="none" stroke="midnightblue" d="M534.439,-171.323C479.655,-162.192 371.277,-144.129 303.657,-132.86"/>
<polygon fill="midnightblue" stroke="midnightblue" points="304.018,-129.371 293.579,-131.18 302.867,-136.276 304.018,-129.371"/>
</g>
<!-- Node15 -->
<g id="node16" class="node"><title>Node15</title>
<g id="a_node16"><a xlink:href="st___output_8h.html" target="_top" xlink:title="../lib/st_Output.h">
<polygon fill="none" stroke="black" points="312,-112.5 312,-131.5 401,-131.5 401,-112.5 312,-112.5"/>
<text text-anchor="middle" x="356.5" y="-119.5" font-family="Helvetica,sans-Serif" font-size="10.00">../lib/st_Output.h</text>
</a>
</g>
</g>
<!-- Node2&#45;&gt;Node15 -->
<g id="edge20" class="edge"><title>Node2&#45;&gt;Node15</title>
<path fill="none" stroke="midnightblue" d="M534.908,-168.444C498.313,-159.122 439.662,-144.183 399.674,-133.997"/>
<polygon fill="midnightblue" stroke="midnightblue" points="400.489,-130.593 389.935,-131.516 398.761,-137.377 400.489,-130.593"/>
</g>
<!-- Node16 -->
<g id="node17" class="node"><title>Node16</title>
<g id="a_node17"><a xlink:href="st___sleep_8h.html" target="_top" xlink:title="../lib/st_Sleep.h">
<polygon fill="none" stroke="black" points="419,-112.5 419,-131.5 504,-131.5 504,-112.5 419,-112.5"/>
<text text-anchor="middle" x="461.5" y="-119.5" font-family="Helvetica,sans-Serif" font-size="10.00">../lib/st_Sleep.h</text>
</a>
</g>
</g>
<!-- Node2&#45;&gt;Node16 -->
<g id="edge22" class="edge"><title>Node2&#45;&gt;Node16</title>
<path fill="none" stroke="midnightblue" d="M551.309,-168.324C534.149,-159.664 507.554,-146.242 487.753,-136.249"/>
<polygon fill="midnightblue" stroke="midnightblue" points="489.153,-133.035 478.649,-131.655 485.999,-139.285 489.153,-133.035"/>
</g>
<!-- Node7 -->
<g id="node8" class="node"><title>Node7</title>
<g id="a_node8"><a xlink:href="_sensor_8h.html" target="_top" xlink:title="This class is the base class of sensor. ">
<polygon fill="none" stroke="black" points="903,-56.5 903,-75.5 980,-75.5 980,-56.5 903,-56.5"/>
<text text-anchor="middle" x="941.5" y="-63.5" font-family="Helvetica,sans-Serif" font-size="10.00">../lib/Sensor.h</text>
</a>
</g>
</g>
<!-- Node6&#45;&gt;Node7 -->
<g id="edge7" class="edge"><title>Node6&#45;&gt;Node7</title>
<path fill="none" stroke="midnightblue" d="M923.968,-112.083C926.812,-104.77 930.929,-94.1814 934.46,-85.1034"/>
<polygon fill="midnightblue" stroke="midnightblue" points="937.734,-86.3397 938.097,-75.7511 931.21,-83.8025 937.734,-86.3397"/>
</g>
<!-- Node7&#45;&gt;Node8 -->
<g id="edge8" class="edge"><title>Node7&#45;&gt;Node8</title>
<path fill="none" stroke="midnightblue" d="M933.739,-56.083C926.963,-48.2982 916.957,-36.8015 908.745,-27.3665"/>
<polygon fill="midnightblue" stroke="midnightblue" points="911.322,-24.9963 902.117,-19.7511 906.042,-29.592 911.322,-24.9963"/>
</g>
<!-- Node9&#45;&gt;Node7 -->
<g id="edge10" class="edge"><title>Node9&#45;&gt;Node7</title>
<path fill="none" stroke="midnightblue" d="M1019.56,-112.324C1004.91,-103.822 982.366,-90.7288 965.262,-80.7975"/>
<polygon fill="midnightblue" stroke="midnightblue" points="966.81,-77.6491 956.405,-75.6545 963.295,-83.7027 966.81,-77.6491"/>
</g>
<!-- Node10&#45;&gt;Node8 -->
<g id="edge12" class="edge"><title>Node10&#45;&gt;Node8</title>
<path fill="none" stroke="midnightblue" d="M855.261,-56.083C862.037,-48.2982 872.043,-36.8015 880.255,-27.3665"/>
<polygon fill="midnightblue" stroke="midnightblue" points="882.958,-29.592 886.883,-19.7511 877.678,-24.9963 882.958,-29.592"/>
</g>
<!-- Node12&#45;&gt;Node8 -->
<g id="edge15" class="edge"><title>Node12&#45;&gt;Node8</title>
<path fill="none" stroke="midnightblue" d="M605.316,-112.334C605.525,-98.2505 608.143,-70.5142 624.5,-56 657.186,-26.9963 782.256,-16.4407 850.103,-12.7957"/>
<polygon fill="midnightblue" stroke="midnightblue" points="850.669,-16.2716 860.478,-12.2683 850.313,-9.28059 850.669,-16.2716"/>
</g>
<!-- Node12&#45;&gt;Node11 -->
<g id="edge17" class="edge"><title>Node12&#45;&gt;Node11</title>
<path fill="none" stroke="midnightblue" d="M574.285,-112.444C540.567,-103.201 486.7,-88.4356 449.568,-78.2572"/>
<polygon fill="midnightblue" stroke="midnightblue" points="450.139,-74.7846 439.569,-75.5164 448.288,-81.5356 450.139,-74.7846"/>
</g>
<!-- Node13 -->
<g id="node14" class="node"><title>Node13</title>
<g id="a_node14"><a xlink:href="_date_time_8h.html" target="_top" xlink:title="This file declare the DateTime class. ">
<polygon fill="none" stroke="black" points="634,-56.5 634,-75.5 723,-75.5 723,-56.5 634,-56.5"/>
<text text-anchor="middle" x="678.5" y="-63.5" font-family="Helvetica,sans-Serif" font-size="10.00">../lib/DateTime.h</text>
</a>
</g>
</g>
<!-- Node12&#45;&gt;Node13 -->
<g id="edge16" class="edge"><title>Node12&#45;&gt;Node13</title>
<path fill="none" stroke="midnightblue" d="M617.229,-112.324C628.337,-104.107 645.242,-91.6017 658.483,-81.8069"/>
<polygon fill="midnightblue" stroke="midnightblue" points="660.6,-84.5948 666.558,-75.8339 656.437,-78.9671 660.6,-84.5948"/>
</g>
<!-- Node14&#45;&gt;Node11 -->
<g id="edge19" class="edge"><title>Node14&#45;&gt;Node11</title>
<path fill="none" stroke="midnightblue" d="M270.486,-112.444C298.196,-103.32 342.252,-88.8133 373.116,-78.6509"/>
<polygon fill="midnightblue" stroke="midnightblue" points="374.232,-81.9684 382.635,-75.5164 372.042,-75.3196 374.232,-81.9684"/>
</g>
<!-- Node15&#45;&gt;Node11 -->
<g id="edge21" class="edge"><title>Node15&#45;&gt;Node11</title>
<path fill="none" stroke="midnightblue" d="M365.087,-112.083C372.659,-104.22 383.878,-92.5688 393.014,-83.0813"/>
<polygon fill="midnightblue" stroke="midnightblue" points="395.658,-85.3821 400.073,-75.7511 390.615,-80.5266 395.658,-85.3821"/>
</g>
<!-- Node16&#45;&gt;Node11 -->
<g id="edge23" class="edge"><title>Node16&#45;&gt;Node11</title>
<path fill="none" stroke="midnightblue" d="M452.748,-112.083C445.03,-104.22 433.595,-92.5688 424.283,-83.0813"/>
<polygon fill="midnightblue" stroke="midnightblue" points="426.592,-80.4363 417.089,-75.7511 421.596,-85.3396 426.592,-80.4363"/>
</g>
</g>
</svg>
        <g id="navigator" transform="translate(0 0)" fill="#404254">
                <rect fill="#f2f5e9" fill-opacity="0.5" stroke="#606060" stroke-width=".5" x="0" y="0" width="60" height="60"/>
                <use id="zoomplus" xlink:href="#zoomPlus" x="17" y="9" onmousedown="handleZoom(evt,'in')"/>
                <use id="zoomminus" xlink:href="#zoomMin" x="42" y="9" onmousedown="handleZoom(evt,'out')"/>
                <use id="reset" xlink:href="#resetDef" x="30" y="36" onmousedown="handleReset()"/>
                <g id="arrowUp" xlink:href="#dirArrow" transform="translate(30 24)" onmousedown="handlePan(0,-1)">
                  <use xlink:href="#rim" fill="#404040">
                        <set attributeName="fill" to="#808080" begin="arrowUp.mouseover" end="arrowUp.mouseout"/>
                  </use>
                  <path fill="none" stroke="white" stroke-width="1.5" d="M0,-3.0v7 M-2.5,-0.5L0,-3.0L2.5,-0.5"/>
                </g>
                <g id="arrowRight" xlink:href="#dirArrow" transform="rotate(90) translate(36 -43)" onmousedown="handlePan(1,0)">
                  <use xlink:href="#rim" fill="#404040">
                        <set attributeName="fill" to="#808080" begin="arrowRight.mouseover" end="arrowRight.mouseout"/>
                  </use>
                  <path fill="none" stroke="white" stroke-width="1.5" d="M0,-3.0v7 M-2.5,-0.5L0,-3.0L2.5,-0.5"/>
                </g>
                <g id="arrowDown" xlink:href="#dirArrow" transform="rotate(180) translate(-30 -48)" onmousedown="handlePan(0,1)">
                  <use xlink:href="#rim" fill="#404040">
                        <set attributeName="fill" to="#808080" begin="arrowDown.mouseover" end="arrowDown.mouseout"/>
                  </use>
                  <path fill="none" stroke="white" stroke-width="1.5" d="M0,-3.0v7 M-2.5,-0.5L0,-3.0L2.5,-0.5"/>
                </g>
                <g id="arrowLeft" xlink:href="#dirArrow" transform="rotate(270) translate(-36 17)" onmousedown="handlePan(-1,0)">
                  <use xlink:href="#rim" fill="#404040">
                        <set attributeName="fill" to="#808080" begin="arrowLeft.mouseover" end="arrowLeft.mouseout"/>
                  </use>
                  <path fill="none" stroke="white" stroke-width="1.5" d="M0,-3.0v7 M-2.5,-0.5L0,-3.0L2.5,-0.5"/>
                </g>
        </g>
        <svg viewBox="0 0 15 15" width="100%" height="30px" preserveAspectRatio="xMaxYMin meet">
         <g id="arrow_out" transform="scale(0.3 0.3)">
          <a xlink:href="_state_8cpp__incl_org.svg" target="_base">
           <rect id="button" ry="5" rx="5" y="6" x="6" height="38" width="38"
                fill="#f2f5e9" fill-opacity="0.5" stroke="#606060" stroke-width="1.0"/>
           <path id="arrow"
             d="M 11.500037,31.436501 C 11.940474,20.09759 22.043105,11.32322 32.158766,21.979434 L 37.068811,17.246167 C 37.068811,17.246167 37.088388,32 37.088388,32 L 22.160133,31.978069 C 22.160133,31.978069 26.997745,27.140456 26.997745,27.140456 C 18.528582,18.264221 13.291696,25.230495 11.500037,31.436501 z"
             style="fill:#404040;"/>
          </a>
         </g>
        </svg>
</svg>
