<?xml version="1.0" encoding="UTF-8" standalone="no"?>
<!DOCTYPE svg PUBLIC "-//W3C//DTD SVG 1.1//EN"
 "http://www.w3.org/Graphics/SVG/1.1/DTD/svg11.dtd">
<!-- Generated by graphviz version 2.38.0 (20140413.2041)
 -->
<!-- Title: State.h Pages: 1 -->
<svg width="511pt" height="196pt"
 viewBox="0.00 0.00 510.50 196.00" xmlns="http://www.w3.org/2000/svg" xmlns:xlink="http://www.w3.org/1999/xlink">
<g id="graph0" class="graph" transform="scale(1 1) rotate(0) translate(4 192)">
<title>State.h</title>
<!-- Node1 -->
<g id="node1" class="node"><title>Node1</title>
<polygon fill="#bfbfbf" stroke="black" points="265,-168.5 265,-187.5 313,-187.5 313,-168.5 265,-168.5"/>
<text text-anchor="middle" x="289" y="-175.5" font-family="Helvetica,sans-Serif" font-size="10.00">State.h</text>
</g>
<!-- Node2 -->
<g id="node2" class="node"><title>Node2</title>
<g id="a_node2"><a xlink:href="_config_8h.html" target="_top" xlink:title="This file declare the Config class. ">
<polygon fill="none" stroke="black" points="37.5,-112.5 37.5,-131.5 90.5,-131.5 90.5,-112.5 37.5,-112.5"/>
<text text-anchor="middle" x="64" y="-119.5" font-family="Helvetica,sans-Serif" font-size="10.00">Config.h</text>
</a>
</g>
</g>
<!-- Node1&#45;&gt;Node2 -->
<g id="edge1" class="edge"><title>Node1&#45;&gt;Node2</title>
<path fill="none" stroke="midnightblue" d="M254.821,-168.984C216.944,-160.072 154.064,-145.194 100,-132 96.9958,-131.267 93.8526,-130.492 90.7281,-129.717"/>
<polygon fill="midnightblue" stroke="midnightblue" points="254.277,-172.452 264.813,-171.333 255.879,-165.637 254.277,-172.452"/>
</g>
<!-- Node3 -->
<g id="node3" class="node"><title>Node3</title>
<g id="a_node3"><a xlink:href="_f_s_m_8h.html" target="_top" xlink:title="The FSM is the finish state machine mechanism. ">
<polygon fill="none" stroke="black" points="180,-56.5 180,-75.5 226,-75.5 226,-56.5 180,-56.5"/>
<text text-anchor="middle" x="203" y="-63.5" font-family="Helvetica,sans-Serif" font-size="10.00">FSM.h</text>
</a>
</g>
</g>
<!-- Node1&#45;&gt;Node3 -->
<g id="edge19" class="edge"><title>Node1&#45;&gt;Node3</title>
<path fill="none" stroke="midnightblue" d="M257.775,-163.987C243.63,-156.585 227.896,-145.969 218,-132 205.816,-114.8 203.374,-89.2034 202.981,-75.8423"/>
<polygon fill="midnightblue" stroke="midnightblue" points="256.243,-167.134 266.763,-168.391 259.323,-160.848 256.243,-167.134"/>
</g>
<!-- Node5 -->
<g id="node5" class="node"><title>Node5</title>
<g id="a_node5"><a xlink:href="_f_s_m_8cpp.html" target="_top" xlink:title="Brief description of file. ">
<polygon fill="none" stroke="black" points="334,-0.5 334,-19.5 390,-19.5 390,-0.5 334,-0.5"/>
<text text-anchor="middle" x="362" y="-7.5" font-family="Helvetica,sans-Serif" font-size="10.00">FSM.cpp</text>
</a>
</g>
</g>
<!-- Node1&#45;&gt;Node5 -->
<g id="edge20" class="edge"><title>Node1&#45;&gt;Node5</title>
<path fill="none" stroke="midnightblue" d="M321.842,-163.888C335.504,-156.637 350.016,-146.174 358,-132 378.94,-94.8243 369.186,-40.5222 364.249,-19.6312"/>
<polygon fill="midnightblue" stroke="midnightblue" points="320.057,-160.864 312.61,-168.4 323.131,-167.153 320.057,-160.864"/>
</g>
<!-- Node6 -->
<g id="node6" class="node"><title>Node6</title>
<g id="a_node6"><a xlink:href="main_8cpp.html" target="_top" xlink:title="main.cpp">
<polygon fill="none" stroke="black" points="408,-0.5 408,-19.5 464,-19.5 464,-0.5 408,-0.5"/>
<text text-anchor="middle" x="436" y="-7.5" font-family="Helvetica,sans-Serif" font-size="10.00">main.cpp</text>
</a>
</g>
</g>
<!-- Node1&#45;&gt;Node6 -->
<g id="edge21" class="edge"><title>Node1&#45;&gt;Node6</title>
<path fill="none" stroke="midnightblue" d="M322.734,-165.444C340.333,-158.07 361.213,-147.04 376,-132 409.535,-97.8902 427.724,-41.3067 433.73,-19.727"/>
<polygon fill="midnightblue" stroke="midnightblue" points="321.358,-162.225 313.354,-169.168 323.94,-168.731 321.358,-162.225"/>
</g>
<!-- Node10 -->
<g id="node10" class="node"><title>Node10</title>
<g id="a_node10"><a xlink:href="_measure_8h.html" target="_top" xlink:title="Measure.h">
<polygon fill="none" stroke="black" points="109,-112.5 109,-131.5 171,-131.5 171,-112.5 109,-112.5"/>
<text text-anchor="middle" x="140" y="-119.5" font-family="Helvetica,sans-Serif" font-size="10.00">Measure.h</text>
</a>
</g>
</g>
<!-- Node1&#45;&gt;Node10 -->
<g id="edge10" class="edge"><title>Node1&#45;&gt;Node10</title>
<path fill="none" stroke="midnightblue" d="M255.629,-164.906C227.616,-154.754 188.304,-140.506 163.499,-131.516"/>
<polygon fill="midnightblue" stroke="midnightblue" points="254.796,-168.327 265.391,-168.444 257.181,-161.746 254.796,-168.327"/>
</g>
<!-- Node11 -->
<g id="node11" class="node"><title>Node11</title>
<g id="a_node11"><a xlink:href="_output_8h.html" target="_top" xlink:title="Output.h">
<polygon fill="none" stroke="black" points="227,-112.5 227,-131.5 281,-131.5 281,-112.5 227,-112.5"/>
<text text-anchor="middle" x="254" y="-119.5" font-family="Helvetica,sans-Serif" font-size="10.00">Output.h</text>
</a>
</g>
</g>
<!-- Node1&#45;&gt;Node11 -->
<g id="edge13" class="edge"><title>Node1&#45;&gt;Node11</title>
<path fill="none" stroke="midnightblue" d="M277.7,-159.566C271.678,-150.275 264.531,-139.248 259.672,-131.751"/>
<polygon fill="midnightblue" stroke="midnightblue" points="274.844,-161.595 283.22,-168.083 280.719,-157.788 274.844,-161.595"/>
</g>
<!-- Node12 -->
<g id="node12" class="node"><title>Node12</title>
<g id="a_node12"><a xlink:href="_sleep_8h.html" target="_top" xlink:title="Sleep.h">
<polygon fill="none" stroke="black" points="299,-112.5 299,-131.5 349,-131.5 349,-112.5 299,-112.5"/>
<text text-anchor="middle" x="324" y="-119.5" font-family="Helvetica,sans-Serif" font-size="10.00">Sleep.h</text>
</a>
</g>
</g>
<!-- Node1&#45;&gt;Node12 -->
<g id="edge16" class="edge"><title>Node1&#45;&gt;Node12</title>
<path fill="none" stroke="midnightblue" d="M300.3,-159.566C306.322,-150.275 313.469,-139.248 318.328,-131.751"/>
<polygon fill="midnightblue" stroke="midnightblue" points="297.281,-157.788 294.78,-168.083 303.156,-161.595 297.281,-157.788"/>
</g>
<!-- Node14 -->
<g id="node14" class="node"><title>Node14</title>
<g id="a_node14"><a xlink:href="_state_8cpp.html" target="_top" xlink:title="Brief description of file. ">
<polygon fill="none" stroke="black" points="443.5,-112.5 443.5,-131.5 502.5,-131.5 502.5,-112.5 443.5,-112.5"/>
<text text-anchor="middle" x="473" y="-119.5" font-family="Helvetica,sans-Serif" font-size="10.00">State.cpp</text>
</a>
</g>
</g>
<!-- Node1&#45;&gt;Node14 -->
<g id="edge22" class="edge"><title>Node1&#45;&gt;Node14</title>
<path fill="none" stroke="midnightblue" d="M322.737,-167.099C357.412,-156.922 410.851,-141.239 443.778,-131.576"/>
<polygon fill="midnightblue" stroke="midnightblue" points="321.664,-163.766 313.055,-169.94 323.636,-170.483 321.664,-163.766"/>
</g>
<!-- Node2&#45;&gt;Node3 -->
<g id="edge2" class="edge"><title>Node2&#45;&gt;Node3</title>
<path fill="none" stroke="midnightblue" d="M95.4758,-108.772C121.585,-98.6287 158.039,-84.4669 181.078,-75.5164"/>
<polygon fill="midnightblue" stroke="midnightblue" points="94.0788,-105.56 86.025,-112.444 96.6137,-112.085 94.0788,-105.56"/>
</g>
<!-- Node4 -->
<g id="node4" class="node"><title>Node4</title>
<g id="a_node4"><a xlink:href="_config_8cpp.html" target="_top" xlink:title="This file define the Config class. ">
<polygon fill="none" stroke="black" points="0,-0.5 0,-19.5 64,-19.5 64,-0.5 0,-0.5"/>
<text text-anchor="middle" x="32" y="-7.5" font-family="Helvetica,sans-Serif" font-size="10.00">Config.cpp</text>
</a>
</g>
</g>
<!-- Node2&#45;&gt;Node4 -->
<g id="edge9" class="edge"><title>Node2&#45;&gt;Node4</title>
<path fill="none" stroke="midnightblue" d="M58.6688,-102.674C51.6727,-78.6248 39.6765,-37.3881 34.4993,-19.5914"/>
<polygon fill="midnightblue" stroke="midnightblue" points="55.335,-103.744 61.489,-112.368 62.0563,-101.789 55.335,-103.744"/>
</g>
<!-- Node3&#45;&gt;Node4 -->
<g id="edge3" class="edge"><title>Node3&#45;&gt;Node4</title>
<path fill="none" stroke="midnightblue" d="M170.09,-54.6073C137.856,-44.4282 89.3171,-29.1001 59.2018,-19.59"/>
<polygon fill="midnightblue" stroke="midnightblue" points="169.348,-58.0435 179.938,-57.7173 171.456,-51.3684 169.348,-58.0435"/>
</g>
<!-- Node3&#45;&gt;Node5 -->
<g id="edge4" class="edge"><title>Node3&#45;&gt;Node5</title>
<path fill="none" stroke="midnightblue" d="M235.71,-53.891C265.672,-43.7152 309.4,-28.8642 336.75,-19.5756"/>
<polygon fill="midnightblue" stroke="midnightblue" points="234.463,-50.618 226.12,-57.1479 236.714,-57.2461 234.463,-50.618"/>
</g>
<!-- Node3&#45;&gt;Node6 -->
<g id="edge5" class="edge"><title>Node3&#45;&gt;Node6</title>
<path fill="none" stroke="midnightblue" d="M236.012,-57.5576C274.992,-48.7379 341.767,-33.5302 399,-20 401.831,-19.3308 404.781,-18.6257 407.727,-17.917"/>
<polygon fill="midnightblue" stroke="midnightblue" points="235.237,-54.1444 226.255,-59.7632 236.78,-60.9722 235.237,-54.1444"/>
</g>
<!-- Node7 -->
<g id="node7" class="node"><title>Node7</title>
<g id="a_node7"><a xlink:href="_measure_8cpp.html" target="_top" xlink:title="Brief description of file. ">
<polygon fill="none" stroke="black" points="82.5,-0.5 82.5,-19.5 155.5,-19.5 155.5,-0.5 82.5,-0.5"/>
<text text-anchor="middle" x="119" y="-7.5" font-family="Helvetica,sans-Serif" font-size="10.00">Measure.cpp</text>
</a>
</g>
</g>
<!-- Node3&#45;&gt;Node7 -->
<g id="edge6" class="edge"><title>Node3&#45;&gt;Node7</title>
<path fill="none" stroke="midnightblue" d="M181.068,-50.9005C165.665,-40.9986 145.554,-28.0705 132.463,-19.6545"/>
<polygon fill="midnightblue" stroke="midnightblue" points="179.199,-53.8605 189.504,-56.324 182.985,-47.9722 179.199,-53.8605"/>
</g>
<!-- Node8 -->
<g id="node8" class="node"><title>Node8</title>
<g id="a_node8"><a xlink:href="_output_8cpp.html" target="_top" xlink:title="Brief description of file. ">
<polygon fill="none" stroke="black" points="250.5,-0.5 250.5,-19.5 315.5,-19.5 315.5,-0.5 250.5,-0.5"/>
<text text-anchor="middle" x="283" y="-7.5" font-family="Helvetica,sans-Serif" font-size="10.00">Output.cpp</text>
</a>
</g>
</g>
<!-- Node3&#45;&gt;Node8 -->
<g id="edge7" class="edge"><title>Node3&#45;&gt;Node8</title>
<path fill="none" stroke="midnightblue" d="M224.301,-50.6221C238.915,-40.7574 257.827,-27.9919 270.179,-19.6545"/>
<polygon fill="midnightblue" stroke="midnightblue" points="222.184,-47.8282 215.853,-56.324 226.1,-53.6302 222.184,-47.8282"/>
</g>
<!-- Node9 -->
<g id="node9" class="node"><title>Node9</title>
<g id="a_node9"><a xlink:href="_usart_8cpp.html" target="_top" xlink:title="Brief description of file. ">
<polygon fill="none" stroke="black" points="173.5,-0.5 173.5,-19.5 232.5,-19.5 232.5,-0.5 173.5,-0.5"/>
<text text-anchor="middle" x="203" y="-7.5" font-family="Helvetica,sans-Serif" font-size="10.00">Usart.cpp</text>
</a>
</g>
</g>
<!-- Node3&#45;&gt;Node9 -->
<g id="edge8" class="edge"><title>Node3&#45;&gt;Node9</title>
<path fill="none" stroke="midnightblue" d="M203,-45.8045C203,-36.9102 203,-26.7798 203,-19.7511"/>
<polygon fill="midnightblue" stroke="midnightblue" points="199.5,-46.083 203,-56.083 206.5,-46.083 199.5,-46.083"/>
</g>
<!-- Node10&#45;&gt;Node3 -->
<g id="edge11" class="edge"><title>Node10&#45;&gt;Node3</title>
<path fill="none" stroke="midnightblue" d="M158.04,-105.537C169.273,-95.9087 183.319,-83.8694 192.694,-75.8339"/>
<polygon fill="midnightblue" stroke="midnightblue" points="155.437,-103.159 150.122,-112.324 159.992,-108.473 155.437,-103.159"/>
</g>
<!-- Node10&#45;&gt;Node7 -->
<g id="edge12" class="edge"><title>Node10&#45;&gt;Node7</title>
<path fill="none" stroke="midnightblue" d="M136.439,-102.348C131.839,-78.2538 124.022,-37.3079 120.64,-19.5914"/>
<polygon fill="midnightblue" stroke="midnightblue" points="133.039,-103.202 138.352,-112.368 139.915,-101.89 133.039,-103.202"/>
</g>
<!-- Node11&#45;&gt;Node3 -->
<g id="edge14" class="edge"><title>Node11&#45;&gt;Node3</title>
<path fill="none" stroke="midnightblue" d="M238.622,-104.718C229.633,-95.1997 218.641,-83.5608 211.265,-75.7511"/>
<polygon fill="midnightblue" stroke="midnightblue" points="236.168,-107.216 245.578,-112.083 241.257,-102.41 236.168,-107.216"/>
</g>
<!-- Node11&#45;&gt;Node8 -->
<g id="edge15" class="edge"><title>Node11&#45;&gt;Node8</title>
<path fill="none" stroke="midnightblue" d="M258.831,-102.674C265.172,-78.6248 276.043,-37.3881 280.735,-19.5914"/>
<polygon fill="midnightblue" stroke="midnightblue" points="255.441,-101.807 256.276,-112.368 262.209,-103.591 255.441,-101.807"/>
</g>
<!-- Node12&#45;&gt;Node3 -->
<g id="edge17" class="edge"><title>Node12&#45;&gt;Node3</title>
<path fill="none" stroke="midnightblue" d="M295.694,-108.368C273.035,-98.2553 241.874,-84.3486 222.083,-75.5164"/>
<polygon fill="midnightblue" stroke="midnightblue" points="294.269,-111.564 304.827,-112.444 297.122,-105.172 294.269,-111.564"/>
</g>
<!-- Node13 -->
<g id="node13" class="node"><title>Node13</title>
<g id="a_node13"><a xlink:href="_sleep_8cpp.html" target="_top" xlink:title="Brief description of file. ">
<polygon fill="none" stroke="black" points="289,-56.5 289,-75.5 349,-75.5 349,-56.5 289,-56.5"/>
<text text-anchor="middle" x="319" y="-63.5" font-family="Helvetica,sans-Serif" font-size="10.00">Sleep.cpp</text>
</a>
</g>
</g>
<!-- Node12&#45;&gt;Node13 -->
<g id="edge18" class="edge"><title>Node12&#45;&gt;Node13</title>
<path fill="none" stroke="midnightblue" d="M322.25,-102.101C321.42,-93.1357 320.468,-82.8579 319.81,-75.7511"/>
<polygon fill="midnightblue" stroke="midnightblue" points="318.767,-102.448 323.174,-112.083 325.737,-101.803 318.767,-102.448"/>
</g>
</g>
</svg>
