<?xml version="1.0" encoding="UTF-8" standalone="no"?>
<!DOCTYPE svg PUBLIC "-//W3C//DTD SVG 1.1//EN"
 "http://www.w3.org/Graphics/SVG/1.1/DTD/svg11.dtd">
<!-- Generated by graphviz version 2.38.0 (20140413.2041)
 -->
<!-- Title: Usart.cpp Pages: 1 -->
<!--zoomable 196 -->
<svg id="main" version="1.1" xmlns="http://www.w3.org/2000/svg" xmlns:xlink="http://www.w3.org/1999/xlink" xml:space="preserve" onload="init(evt)">
<style type="text/css"><![CDATA[
.edge:hover path { stroke: red; }
.edge:hover polygon { stroke: red; fill: red; }
]]></style>
<script type="text/javascript"><![CDATA[
var edges = document.getElementsByTagName('g');
if (edges && edges.length) {
  for (var i=0;i<edges.length;i++) {
    if (edges[i].id.substr(0,4)=='edge') {
      edges[i].setAttribute('class','edge');
    }
  }
}
]]></script>
        <defs>
                <circle id="rim" cx="0" cy="0" r="7"/>
                <circle id="rim2" cx="0" cy="0" r="3.5"/>
                <g id="zoomPlus">
                        <use xlink:href="#rim" fill="#404040">
                                <set attributeName="fill" to="#808080" begin="zoomplus.mouseover" end="zoomplus.mouseout"/>
                        </use>
                        <path d="M-4,0h8M0,-4v8" fill="none" stroke="white" stroke-width="1.5" pointer-events="none"/>
                </g>
                <g id="zoomMin">
                        <use xlink:href="#rim" fill="#404040">
                                <set attributeName="fill" to="#808080" begin="zoomminus.mouseover" end="zoomminus.mouseout"/>
                        </use>
                        <path d="M-4,0h8" fill="none" stroke="white" stroke-width="1.5" pointer-events="none"/>
                </g>
                <g id="dirArrow">
                        <path fill="none" stroke="white" stroke-width="1.5" d="M0,-3.0v7 M-2.5,-0.5L0,-3.0L2.5,-0.5"/>
                </g>
               <g id="resetDef">
                       <use xlink:href="#rim2" fill="#404040">
                               <set attributeName="fill" to="#808080" begin="reset.mouseover" end="reset.mouseout"/>
                       </use>
               </g>
        </defs>

<script type="text/javascript">
var viewWidth = 560;
var viewHeight = 196;
var sectionId = 'dynsection-0';
</script>
<script xlink:href="svgpan.js"/>
<svg id="graph" class="graph">
<g id="viewport">
<title>Usart.cpp</title>
<!-- Node0 -->
<g id="node1" class="node"><title>Node0</title>
<polygon fill="#bfbfbf" stroke="black" points="184,-168.5 184,-187.5 243,-187.5 243,-168.5 184,-168.5"/>
<text text-anchor="middle" x="213.5" y="-175.5" font-family="Helvetica,sans-Serif" font-size="10.00">Usart.cpp</text>
</g>
<!-- Node1 -->
<g id="node2" class="node"><title>Node1</title>
<polygon fill="none" stroke="#bfbfbf" points="41,-112.5 41,-131.5 90,-131.5 90,-112.5 41,-112.5"/>
<text text-anchor="middle" x="65.5" y="-119.5" font-family="Helvetica,sans-Serif" font-size="10.00">avr/io.h</text>
</g>
<!-- Node0&#45;&gt;Node1 -->
<g id="edge1" class="edge"><title>Node0&#45;&gt;Node1</title>
<path fill="none" stroke="midnightblue" d="M190.049,-168.444C165.367,-159.438 126.315,-145.189 98.5233,-135.049"/>
<polygon fill="midnightblue" stroke="midnightblue" points="99.4352,-131.656 88.8413,-131.516 97.0359,-138.232 99.4352,-131.656"/>
</g>
<!-- Node2 -->
<g id="node3" class="node"><title>Node2</title>
<polygon fill="none" stroke="#bfbfbf" points="108,-112.5 108,-131.5 185,-131.5 185,-112.5 108,-112.5"/>
<text text-anchor="middle" x="146.5" y="-119.5" font-family="Helvetica,sans-Serif" font-size="10.00">avr/interrupt.h</text>
</g>
<!-- Node0&#45;&gt;Node2 -->
<g id="edge2" class="edge"><title>Node0&#45;&gt;Node2</title>
<path fill="none" stroke="midnightblue" d="M202.735,-168.324C192.734,-160.263 177.613,-148.077 165.57,-138.369"/>
<polygon fill="midnightblue" stroke="midnightblue" points="167.443,-135.384 157.461,-131.834 163.05,-140.834 167.443,-135.384"/>
</g>
<!-- Node3 -->
<g id="node4" class="node"><title>Node3</title>
<g id="a_node4"><a xlink:href="_f_s_m_8h.html" target="_top" xlink:title="The FSM is the finish state machine mechanism. ">
<polygon fill="none" stroke="black" points="241.5,-112.5 241.5,-131.5 309.5,-131.5 309.5,-112.5 241.5,-112.5"/>
<text text-anchor="middle" x="275.5" y="-119.5" font-family="Helvetica,sans-Serif" font-size="10.00">../lib/FSM.h</text>
</a>
</g>
</g>
<!-- Node0&#45;&gt;Node3 -->
<g id="edge3" class="edge"><title>Node0&#45;&gt;Node3</title>
<path fill="none" stroke="midnightblue" d="M223.461,-168.324C232.627,-160.341 246.437,-148.313 257.528,-138.653"/>
<polygon fill="midnightblue" stroke="midnightblue" points="260.115,-141.041 265.357,-131.834 255.518,-135.762 260.115,-141.041"/>
</g>
<!-- Node4 -->
<g id="node5" class="node"><title>Node4</title>
<g id="a_node5"><a xlink:href="_usart_8h.html" target="_top" xlink:title="This is the uart library for the atmega1284p. ">
<polygon fill="none" stroke="black" points="0,-56.5 0,-75.5 71,-75.5 71,-56.5 0,-56.5"/>
<text text-anchor="middle" x="35.5" y="-63.5" font-family="Helvetica,sans-Serif" font-size="10.00">../lib/Usart.h</text>
</a>
</g>
</g>
<!-- Node0&#45;&gt;Node4 -->
<g id="edge17" class="edge"><title>Node0&#45;&gt;Node4</title>
<path fill="none" stroke="midnightblue" d="M213.327,-168.074C212.563,-154.129 209.022,-127.199 193.5,-112 185.276,-103.947 124.6,-88.1572 80.8912,-77.5897"/>
<polygon fill="midnightblue" stroke="midnightblue" points="81.5594,-74.1508 71.0188,-75.2215 79.9265,-80.9577 81.5594,-74.1508"/>
</g>
<!-- Node6 -->
<g id="node7" class="node"><title>Node6</title>
<g id="a_node7"><a xlink:href="main_8h.html" target="_top" xlink:title="The main.h file regroup global constant declaration. ">
<polygon fill="none" stroke="black" points="483.5,-0.5 483.5,-19.5 551.5,-19.5 551.5,-0.5 483.5,-0.5"/>
<text text-anchor="middle" x="517.5" y="-7.5" font-family="Helvetica,sans-Serif" font-size="10.00">../lib/main.h</text>
</a>
</g>
</g>
<!-- Node0&#45;&gt;Node6 -->
<g id="edge16" class="edge"><title>Node0&#45;&gt;Node6</title>
<path fill="none" stroke="midnightblue" d="M243.049,-174.999C300.392,-169.517 427.28,-149.32 497.5,-76 509.357,-63.6199 514.198,-44.3752 516.167,-30.0344"/>
<polygon fill="midnightblue" stroke="midnightblue" points="519.677,-30.113 517.21,-19.8094 512.713,-29.4027 519.677,-30.113"/>
</g>
<!-- Node3&#45;&gt;Node4 -->
<g id="edge4" class="edge"><title>Node3&#45;&gt;Node4</title>
<path fill="none" stroke="midnightblue" d="M241.369,-113.32C199.291,-103.853 127.633,-87.7298 80.9329,-77.2224"/>
<polygon fill="midnightblue" stroke="midnightblue" points="81.6022,-73.7856 71.0778,-75.005 80.0656,-80.6148 81.6022,-73.7856"/>
</g>
<!-- Node5 -->
<g id="node6" class="node"><title>Node5</title>
<g id="a_node6"><a xlink:href="_config_8h.html" target="_top" xlink:title="This file declare the Config class. ">
<polygon fill="none" stroke="black" points="414,-56.5 414,-75.5 489,-75.5 489,-56.5 414,-56.5"/>
<text text-anchor="middle" x="451.5" y="-63.5" font-family="Helvetica,sans-Serif" font-size="10.00">../lib/Config.h</text>
</a>
</g>
</g>
<!-- Node3&#45;&gt;Node5 -->
<g id="edge5" class="edge"><title>Node3&#45;&gt;Node5</title>
<path fill="none" stroke="midnightblue" d="M303.388,-112.444C333.254,-103.28 380.815,-88.6876 413.956,-78.5192"/>
<polygon fill="midnightblue" stroke="midnightblue" points="415.209,-81.7958 423.743,-75.5164 413.156,-75.1037 415.209,-81.7958"/>
</g>
<!-- Node8 -->
<g id="node9" class="node"><title>Node8</title>
<g id="a_node9"><a xlink:href="_state_8h.html" target="_top" xlink:title="Brief description of file. ">
<polygon fill="none" stroke="black" points="286.5,-0.5 286.5,-19.5 356.5,-19.5 356.5,-0.5 286.5,-0.5"/>
<text text-anchor="middle" x="321.5" y="-7.5" font-family="Helvetica,sans-Serif" font-size="10.00">../lib/State.h</text>
</a>
</g>
</g>
<!-- Node3&#45;&gt;Node8 -->
<g id="edge15" class="edge"><title>Node3&#45;&gt;Node8</title>
<path fill="none" stroke="midnightblue" d="M309.858,-113.361C329.828,-106.967 353.377,-95.6155 365.5,-76 376.359,-58.4292 358.933,-38.8778 342.91,-25.8513"/>
<polygon fill="midnightblue" stroke="midnightblue" points="344.891,-22.9599 334.817,-19.6791 340.646,-28.5261 344.891,-22.9599"/>
</g>
<!-- Node9 -->
<g id="node10" class="node"><title>Node9</title>
<g id="a_node10"><a xlink:href="_measure_8h.html" target="_top" xlink:title="The class Measure inherits from the class State. ">
<polygon fill="none" stroke="black" points="89.5,-56.5 89.5,-75.5 173.5,-75.5 173.5,-56.5 89.5,-56.5"/>
<text text-anchor="middle" x="131.5" y="-63.5" font-family="Helvetica,sans-Serif" font-size="10.00">../lib/Measure.h</text>
</a>
</g>
</g>
<!-- Node3&#45;&gt;Node9 -->
<g id="edge9" class="edge"><title>Node3&#45;&gt;Node9</title>
<path fill="none" stroke="midnightblue" d="M252.683,-112.444C228.668,-103.438 190.671,-89.1891 163.631,-79.049"/>
<polygon fill="midnightblue" stroke="midnightblue" points="164.803,-75.7506 154.21,-75.5164 162.345,-82.3049 164.803,-75.7506"/>
</g>
<!-- Node10 -->
<g id="node11" class="node"><title>Node10</title>
<g id="a_node11"><a xlink:href="_output_8h.html" target="_top" xlink:title="The class Output inherits from the class State. ">
<polygon fill="none" stroke="black" points="191.5,-56.5 191.5,-75.5 267.5,-75.5 267.5,-56.5 191.5,-56.5"/>
<text text-anchor="middle" x="229.5" y="-63.5" font-family="Helvetica,sans-Serif" font-size="10.00">../lib/Output.h</text>
</a>
</g>
</g>
<!-- Node3&#45;&gt;Node10 -->
<g id="edge11" class="edge"><title>Node3&#45;&gt;Node10</title>
<path fill="none" stroke="midnightblue" d="M267.904,-112.083C261.273,-104.298 251.479,-92.8015 243.442,-83.3665"/>
<polygon fill="midnightblue" stroke="midnightblue" points="246.104,-81.0939 236.955,-75.7511 240.775,-85.6332 246.104,-81.0939"/>
</g>
<!-- Node11 -->
<g id="node12" class="node"><title>Node11</title>
<g id="a_node12"><a xlink:href="_sleep_8h.html" target="_top" xlink:title="../lib/Sleep.h">
<polygon fill="none" stroke="black" points="286,-56.5 286,-75.5 357,-75.5 357,-56.5 286,-56.5"/>
<text text-anchor="middle" x="321.5" y="-63.5" font-family="Helvetica,sans-Serif" font-size="10.00">../lib/Sleep.h</text>
</a>
</g>
</g>
<!-- Node3&#45;&gt;Node11 -->
<g id="edge13" class="edge"><title>Node3&#45;&gt;Node11</title>
<path fill="none" stroke="midnightblue" d="M283.096,-112.083C289.727,-104.298 299.521,-92.8015 307.558,-83.3665"/>
<polygon fill="midnightblue" stroke="midnightblue" points="310.225,-85.6332 314.045,-75.7511 304.896,-81.0939 310.225,-85.6332"/>
</g>
<!-- Node5&#45;&gt;Node6 -->
<g id="edge6" class="edge"><title>Node5&#45;&gt;Node6</title>
<path fill="none" stroke="midnightblue" d="M462.104,-56.324C471.956,-48.2631 486.851,-36.0765 498.715,-26.3695"/>
<polygon fill="midnightblue" stroke="midnightblue" points="501.18,-28.8752 506.703,-19.8339 496.747,-23.4575 501.18,-28.8752"/>
</g>
<!-- Node7 -->
<g id="node8" class="node"><title>Node7</title>
<g id="a_node8"><a xlink:href="_date_time_8h.html" target="_top" xlink:title="This file declare the DateTime class. ">
<polygon fill="none" stroke="black" points="376,-0.5 376,-19.5 465,-19.5 465,-0.5 376,-0.5"/>
<text text-anchor="middle" x="420.5" y="-7.5" font-family="Helvetica,sans-Serif" font-size="10.00">../lib/DateTime.h</text>
</a>
</g>
</g>
<!-- Node5&#45;&gt;Node7 -->
<g id="edge7" class="edge"><title>Node5&#45;&gt;Node7</title>
<path fill="none" stroke="midnightblue" d="M446.381,-56.083C442.092,-48.6127 435.842,-37.7244 430.558,-28.5199"/>
<polygon fill="midnightblue" stroke="midnightblue" points="433.538,-26.6811 425.524,-19.7511 427.467,-30.1662 433.538,-26.6811"/>
</g>
<!-- Node5&#45;&gt;Node8 -->
<g id="edge8" class="edge"><title>Node5&#45;&gt;Node8</title>
<path fill="none" stroke="midnightblue" d="M430.901,-56.4435C409.507,-47.5566 375.819,-33.5632 351.476,-23.4514"/>
<polygon fill="midnightblue" stroke="midnightblue" points="352.58,-20.1203 342.003,-19.5164 349.895,-26.5848 352.58,-20.1203"/>
</g>
<!-- Node9&#45;&gt;Node8 -->
<g id="edge10" class="edge"><title>Node9&#45;&gt;Node8</title>
<path fill="none" stroke="midnightblue" d="M161.606,-56.4435C194.126,-47.2011 246.079,-32.4356 281.891,-22.2572"/>
<polygon fill="midnightblue" stroke="midnightblue" points="282.873,-25.617 291.535,-19.5164 280.959,-18.8837 282.873,-25.617"/>
</g>
<!-- Node10&#45;&gt;Node8 -->
<g id="edge12" class="edge"><title>Node10&#45;&gt;Node8</title>
<path fill="none" stroke="midnightblue" d="M244.281,-56.324C258.767,-47.8215 281.073,-34.7288 297.993,-24.7975"/>
<polygon fill="midnightblue" stroke="midnightblue" points="299.903,-27.735 306.755,-19.6545 296.359,-21.6981 299.903,-27.735"/>
</g>
<!-- Node11&#45;&gt;Node8 -->
<g id="edge14" class="edge"><title>Node11&#45;&gt;Node8</title>
<path fill="none" stroke="midnightblue" d="M321.5,-56.083C321.5,-49.0059 321.5,-38.8611 321.5,-29.9865"/>
<polygon fill="midnightblue" stroke="midnightblue" points="325,-29.751 321.5,-19.7511 318,-29.7511 325,-29.751"/>
</g>
</g>
</svg>
        <g id="navigator" transform="translate(0 0)" fill="#404254">
                <rect fill="#f2f5e9" fill-opacity="0.5" stroke="#606060" stroke-width=".5" x="0" y="0" width="60" height="60"/>
                <use id="zoomplus" xlink:href="#zoomPlus" x="17" y="9" onmousedown="handleZoom(evt,'in')"/>
                <use id="zoomminus" xlink:href="#zoomMin" x="42" y="9" onmousedown="handleZoom(evt,'out')"/>
                <use id="reset" xlink:href="#resetDef" x="30" y="36" onmousedown="handleReset()"/>
                <g id="arrowUp" xlink:href="#dirArrow" transform="translate(30 24)" onmousedown="handlePan(0,-1)">
                  <use xlink:href="#rim" fill="#404040">
                        <set attributeName="fill" to="#808080" begin="arrowUp.mouseover" end="arrowUp.mouseout"/>
                  </use>
                  <path fill="none" stroke="white" stroke-width="1.5" d="M0,-3.0v7 M-2.5,-0.5L0,-3.0L2.5,-0.5"/>
                </g>
                <g id="arrowRight" xlink:href="#dirArrow" transform="rotate(90) translate(36 -43)" onmousedown="handlePan(1,0)">
                  <use xlink:href="#rim" fill="#404040">
                        <set attributeName="fill" to="#808080" begin="arrowRight.mouseover" end="arrowRight.mouseout"/>
                  </use>
                  <path fill="none" stroke="white" stroke-width="1.5" d="M0,-3.0v7 M-2.5,-0.5L0,-3.0L2.5,-0.5"/>
                </g>
                <g id="arrowDown" xlink:href="#dirArrow" transform="rotate(180) translate(-30 -48)" onmousedown="handlePan(0,1)">
                  <use xlink:href="#rim" fill="#404040">
                        <set attributeName="fill" to="#808080" begin="arrowDown.mouseover" end="arrowDown.mouseout"/>
                  </use>
                  <path fill="none" stroke="white" stroke-width="1.5" d="M0,-3.0v7 M-2.5,-0.5L0,-3.0L2.5,-0.5"/>
                </g>
                <g id="arrowLeft" xlink:href="#dirArrow" transform="rotate(270) translate(-36 17)" onmousedown="handlePan(-1,0)">
                  <use xlink:href="#rim" fill="#404040">
                        <set attributeName="fill" to="#808080" begin="arrowLeft.mouseover" end="arrowLeft.mouseout"/>
                  </use>
                  <path fill="none" stroke="white" stroke-width="1.5" d="M0,-3.0v7 M-2.5,-0.5L0,-3.0L2.5,-0.5"/>
                </g>
        </g>
        <svg viewBox="0 0 15 15" width="100%" height="30px" preserveAspectRatio="xMaxYMin meet">
         <g id="arrow_out" transform="scale(0.3 0.3)">
          <a xlink:href="_usart_8cpp__incl_org.svg" target="_base">
           <rect id="button" ry="5" rx="5" y="6" x="6" height="38" width="38"
                fill="#f2f5e9" fill-opacity="0.5" stroke="#606060" stroke-width="1.0"/>
           <path id="arrow"
             d="M 11.500037,31.436501 C 11.940474,20.09759 22.043105,11.32322 32.158766,21.979434 L 37.068811,17.246167 C 37.068811,17.246167 37.088388,32 37.088388,32 L 22.160133,31.978069 C 22.160133,31.978069 26.997745,27.140456 26.997745,27.140456 C 18.528582,18.264221 13.291696,25.230495 11.500037,31.436501 z"
             style="fill:#404040;"/>
          </a>
         </g>
        </svg>
</svg>
