<?xml version="1.0" encoding="UTF-8" standalone="no"?>
<!DOCTYPE svg PUBLIC "-//W3C//DTD SVG 1.1//EN"
 "http://www.w3.org/Graphics/SVG/1.1/DTD/svg11.dtd">
<!-- Generated by graphviz version 2.38.0 (20140413.2041)
 -->
<!-- Title: Usart.cpp Pages: 1 -->
<!--zoomable 252 -->
<svg id="main" version="1.1" xmlns="http://www.w3.org/2000/svg" xmlns:xlink="http://www.w3.org/1999/xlink" xml:space="preserve" onload="init(evt)">
<style type="text/css"><![CDATA[
.edge:hover path { stroke: red; }
.edge:hover polygon { stroke: red; fill: red; }
]]></style>
<script type="text/javascript"><![CDATA[
var edges = document.getElementsByTagName('g');
if (edges && edges.length) {
  for (var i=0;i<edges.length;i++) {
    if (edges[i].id.substr(0,4)=='edge') {
      edges[i].setAttribute('class','edge');
    }
  }
}
]]></script>
        <defs>
                <circle id="rim" cx="0" cy="0" r="7"/>
                <circle id="rim2" cx="0" cy="0" r="3.5"/>
                <g id="zoomPlus">
                        <use xlink:href="#rim" fill="#404040">
                                <set attributeName="fill" to="#808080" begin="zoomplus.mouseover" end="zoomplus.mouseout"/>
                        </use>
                        <path d="M-4,0h8M0,-4v8" fill="none" stroke="white" stroke-width="1.5" pointer-events="none"/>
                </g>
                <g id="zoomMin">
                        <use xlink:href="#rim" fill="#404040">
                                <set attributeName="fill" to="#808080" begin="zoomminus.mouseover" end="zoomminus.mouseout"/>
                        </use>
                        <path d="M-4,0h8" fill="none" stroke="white" stroke-width="1.5" pointer-events="none"/>
                </g>
                <g id="dirArrow">
                        <path fill="none" stroke="white" stroke-width="1.5" d="M0,-3.0v7 M-2.5,-0.5L0,-3.0L2.5,-0.5"/>
                </g>
               <g id="resetDef">
                       <use xlink:href="#rim2" fill="#404040">
                               <set attributeName="fill" to="#808080" begin="reset.mouseover" end="reset.mouseout"/>
                       </use>
               </g>
        </defs>

<script type="text/javascript">
var viewWidth = 1012;
var viewHeight = 252;
var sectionId = 'dynsection-0';
</script>
<script xlink:href="svgpan.js"/>
<svg id="graph" class="graph">
<g id="viewport">
<title>Usart.cpp</title>
<!-- Node0 -->
<g id="node1" class="node"><title>Node0</title>
<polygon fill="#bfbfbf" stroke="black" points="405,-224.5 405,-243.5 464,-243.5 464,-224.5 405,-224.5"/>
<text text-anchor="middle" x="434.5" y="-231.5" font-family="Helvetica,sans-Serif" font-size="10.00">Usart.cpp</text>
</g>
<!-- Node1 -->
<g id="node2" class="node"><title>Node1</title>
<polygon fill="none" stroke="#bfbfbf" points="262,-168.5 262,-187.5 311,-187.5 311,-168.5 262,-168.5"/>
<text text-anchor="middle" x="286.5" y="-175.5" font-family="Helvetica,sans-Serif" font-size="10.00">avr/io.h</text>
</g>
<!-- Node0&#45;&gt;Node1 -->
<g id="edge1" class="edge"><title>Node0&#45;&gt;Node1</title>
<path fill="none" stroke="midnightblue" d="M411.049,-224.444C386.367,-215.438 347.315,-201.189 319.523,-191.049"/>
<polygon fill="midnightblue" stroke="midnightblue" points="320.435,-187.656 309.841,-187.516 318.036,-194.232 320.435,-187.656"/>
</g>
<!-- Node2 -->
<g id="node3" class="node"><title>Node2</title>
<polygon fill="none" stroke="#bfbfbf" points="329,-168.5 329,-187.5 406,-187.5 406,-168.5 329,-168.5"/>
<text text-anchor="middle" x="367.5" y="-175.5" font-family="Helvetica,sans-Serif" font-size="10.00">avr/interrupt.h</text>
</g>
<!-- Node0&#45;&gt;Node2 -->
<g id="edge2" class="edge"><title>Node0&#45;&gt;Node2</title>
<path fill="none" stroke="midnightblue" d="M423.735,-224.324C413.734,-216.263 398.613,-204.077 386.57,-194.369"/>
<polygon fill="midnightblue" stroke="midnightblue" points="388.443,-191.384 378.461,-187.834 384.05,-196.834 388.443,-191.384"/>
</g>
<!-- Node3 -->
<g id="node4" class="node"><title>Node3</title>
<g id="a_node4"><a xlink:href="_f_s_m_8h.html" target="_top" xlink:title="The FSM is the finish state machine mechanism. ">
<polygon fill="none" stroke="black" points="462.5,-168.5 462.5,-187.5 530.5,-187.5 530.5,-168.5 462.5,-168.5"/>
<text text-anchor="middle" x="496.5" y="-175.5" font-family="Helvetica,sans-Serif" font-size="10.00">../lib/FSM.h</text>
</a>
</g>
</g>
<!-- Node0&#45;&gt;Node3 -->
<g id="edge3" class="edge"><title>Node0&#45;&gt;Node3</title>
<path fill="none" stroke="midnightblue" d="M444.461,-224.324C453.627,-216.341 467.437,-204.313 478.528,-194.653"/>
<polygon fill="midnightblue" stroke="midnightblue" points="481.115,-197.041 486.357,-187.834 476.518,-191.762 481.115,-197.041"/>
</g>
<!-- Node4 -->
<g id="node5" class="node"><title>Node4</title>
<g id="a_node5"><a xlink:href="_usart_8h.html" target="_top" xlink:title="This is the uart library for the atmega1284p. ">
<polygon fill="none" stroke="black" points="0,-112.5 0,-131.5 71,-131.5 71,-112.5 0,-112.5"/>
<text text-anchor="middle" x="35.5" y="-119.5" font-family="Helvetica,sans-Serif" font-size="10.00">../lib/Usart.h</text>
</a>
</g>
</g>
<!-- Node0&#45;&gt;Node4 -->
<g id="edge26" class="edge"><title>Node0&#45;&gt;Node4</title>
<path fill="none" stroke="midnightblue" d="M434.632,-224.212C434.323,-209.955 431.442,-181.973 414.5,-168 358.995,-122.22 169.14,-141.814 81.6183,-131.996"/>
<polygon fill="midnightblue" stroke="midnightblue" points="81.8423,-128.495 71.4682,-130.646 80.9196,-135.434 81.8423,-128.495"/>
</g>
<!-- Node9 -->
<g id="node10" class="node"><title>Node9</title>
<g id="a_node10"><a xlink:href="main_8h.html" target="_top" xlink:title="The main.h file regroup global constant declaration. ">
<polygon fill="none" stroke="black" points="663.5,-0.5 663.5,-19.5 731.5,-19.5 731.5,-0.5 663.5,-0.5"/>
<text text-anchor="middle" x="697.5" y="-7.5" font-family="Helvetica,sans-Serif" font-size="10.00">../lib/main.h</text>
</a>
</g>
</g>
<!-- Node0&#45;&gt;Node9 -->
<g id="edge25" class="edge"><title>Node0&#45;&gt;Node9</title>
<path fill="none" stroke="midnightblue" d="M464.008,-232.355C568.688,-229.386 919.605,-213.418 987.5,-132 1009.13,-106.058 1009.48,-81.6504 987.5,-56 956.417,-19.7223 815.259,-12.4466 741.971,-11.1498"/>
<polygon fill="midnightblue" stroke="midnightblue" points="741.722,-7.64591 731.672,-10.9992 741.62,-14.6452 741.722,-7.64591"/>
</g>
<!-- Node3&#45;&gt;Node4 -->
<g id="edge4" class="edge"><title>Node3&#45;&gt;Node4</title>
<path fill="none" stroke="midnightblue" d="M462.473,-170.237C457.789,-169.418 453.033,-168.645 448.5,-168 288.709,-145.27 244.252,-156.077 81.8234,-132.22"/>
<polygon fill="midnightblue" stroke="midnightblue" points="81.8706,-128.688 71.4637,-130.675 80.8382,-135.612 81.8706,-128.688"/>
</g>
<!-- Node5 -->
<g id="node6" class="node"><title>Node5</title>
<g id="a_node6"><a xlink:href="_t_w_i_8h.html" target="_top" xlink:title="Brief description of file. ">
<polygon fill="none" stroke="black" points="89,-112.5 89,-131.5 154,-131.5 154,-112.5 89,-112.5"/>
<text text-anchor="middle" x="121.5" y="-119.5" font-family="Helvetica,sans-Serif" font-size="10.00">../lib/TWI.h</text>
</a>
</g>
</g>
<!-- Node3&#45;&gt;Node5 -->
<g id="edge5" class="edge"><title>Node3&#45;&gt;Node5</title>
<path fill="none" stroke="midnightblue" d="M462.455,-170.357C457.774,-169.519 453.023,-168.709 448.5,-168 325.57,-148.729 291.104,-153.149 164.122,-131.961"/>
<polygon fill="midnightblue" stroke="midnightblue" points="164.45,-128.467 154.006,-130.252 163.284,-135.369 164.45,-128.467"/>
</g>
<!-- Node6 -->
<g id="node7" class="node"><title>Node6</title>
<g id="a_node7"><a xlink:href="_r_t_c_8h.html" target="_top" xlink:title="The RTC class regroup methods and parameters to use the Real Time Clock : pcf8563. ">
<polygon fill="none" stroke="black" points="172.5,-112.5 172.5,-131.5 240.5,-131.5 240.5,-112.5 172.5,-112.5"/>
<text text-anchor="middle" x="206.5" y="-119.5" font-family="Helvetica,sans-Serif" font-size="10.00">../lib/RTC.h</text>
</a>
</g>
</g>
<!-- Node3&#45;&gt;Node6 -->
<g id="edge6" class="edge"><title>Node3&#45;&gt;Node6</title>
<path fill="none" stroke="midnightblue" d="M462.417,-170.582C457.742,-169.709 453.003,-168.829 448.5,-168 363.215,-152.29 339.373,-149.402 250.707,-132.196"/>
<polygon fill="midnightblue" stroke="midnightblue" points="251.235,-128.733 240.75,-130.257 249.897,-135.604 251.235,-128.733"/>
</g>
<!-- Node7 -->
<g id="node8" class="node"><title>Node7</title>
<g id="a_node8"><a xlink:href="_windvane_8h.html" target="_top" xlink:title="Brief description of file. ">
<polygon fill="none" stroke="black" points="258.5,-112.5 258.5,-131.5 348.5,-131.5 348.5,-112.5 258.5,-112.5"/>
<text text-anchor="middle" x="303.5" y="-119.5" font-family="Helvetica,sans-Serif" font-size="10.00">../lib/Windvane.h</text>
</a>
</g>
</g>
<!-- Node3&#45;&gt;Node7 -->
<g id="edge7" class="edge"><title>Node3&#45;&gt;Node7</title>
<path fill="none" stroke="midnightblue" d="M465.919,-168.444C432.885,-159.201 380.112,-144.436 343.734,-134.257"/>
<polygon fill="midnightblue" stroke="midnightblue" points="344.512,-130.84 333.938,-131.516 342.625,-137.582 344.512,-130.84"/>
</g>
<!-- Node10 -->
<g id="node11" class="node"><title>Node10</title>
<g id="a_node11"><a xlink:href="_anemometer_8h.html" target="_top" xlink:title="Brief description of file. ">
<polygon fill="none" stroke="black" points="366.5,-112.5 366.5,-131.5 468.5,-131.5 468.5,-112.5 366.5,-112.5"/>
<text text-anchor="middle" x="417.5" y="-119.5" font-family="Helvetica,sans-Serif" font-size="10.00">../lib/Anemometer.h</text>
</a>
</g>
</g>
<!-- Node3&#45;&gt;Node10 -->
<g id="edge10" class="edge"><title>Node3&#45;&gt;Node10</title>
<path fill="none" stroke="midnightblue" d="M483.807,-168.324C471.599,-159.979 452.922,-147.212 438.497,-137.352"/>
<polygon fill="midnightblue" stroke="midnightblue" points="440.392,-134.408 430.161,-131.655 436.442,-140.187 440.392,-134.408"/>
</g>
<!-- Node11 -->
<g id="node12" class="node"><title>Node11</title>
<g id="a_node12"><a xlink:href="_power_8h.html" target="_top" xlink:title="../lib/Power.h">
<polygon fill="none" stroke="black" points="535.5,-56.5 535.5,-75.5 609.5,-75.5 609.5,-56.5 535.5,-56.5"/>
<text text-anchor="middle" x="572.5" y="-63.5" font-family="Helvetica,sans-Serif" font-size="10.00">../lib/Power.h</text>
</a>
</g>
</g>
<!-- Node3&#45;&gt;Node11 -->
<g id="edge12" class="edge"><title>Node3&#45;&gt;Node11</title>
<path fill="none" stroke="midnightblue" d="M498.233,-168.358C501.165,-155.26 508.038,-130 520.5,-112 528.676,-100.19 540.653,-89.5418 551.052,-81.5714"/>
<polygon fill="midnightblue" stroke="midnightblue" points="553.293,-84.2685 559.297,-75.5395 549.16,-78.6188 553.293,-84.2685"/>
</g>
<!-- Node12 -->
<g id="node13" class="node"><title>Node12</title>
<g id="a_node13"><a xlink:href="_state_8h.html" target="_top" xlink:title="Brief description of file. ">
<polygon fill="none" stroke="black" points="688.5,-56.5 688.5,-75.5 758.5,-75.5 758.5,-56.5 688.5,-56.5"/>
<text text-anchor="middle" x="723.5" y="-63.5" font-family="Helvetica,sans-Serif" font-size="10.00">../lib/State.h</text>
</a>
</g>
</g>
<!-- Node3&#45;&gt;Node12 -->
<g id="edge14" class="edge"><title>Node3&#45;&gt;Node12</title>
<path fill="none" stroke="midnightblue" d="M501.632,-168.377C510.433,-154.356 529.771,-126.706 553.5,-112 591.645,-88.3592 642.032,-77.0308 678.027,-71.6698"/>
<polygon fill="midnightblue" stroke="midnightblue" points="678.817,-75.0937 688.24,-70.2505 677.853,-68.1603 678.817,-75.0937"/>
</g>
<!-- Node13 -->
<g id="node14" class="node"><title>Node13</title>
<g id="a_node14"><a xlink:href="st___config_8h.html" target="_top" xlink:title="../lib/st_Config.h">
<polygon fill="none" stroke="black" points="889,-112.5 889,-131.5 978,-131.5 978,-112.5 889,-112.5"/>
<text text-anchor="middle" x="933.5" y="-119.5" font-family="Helvetica,sans-Serif" font-size="10.00">../lib/st_Config.h</text>
</a>
</g>
</g>
<!-- Node3&#45;&gt;Node13 -->
<g id="edge15" class="edge"><title>Node3&#45;&gt;Node13</title>
<path fill="none" stroke="midnightblue" d="M530.738,-173.586C596.297,-166.921 744.307,-151.251 878.914,-132.168"/>
<polygon fill="midnightblue" stroke="midnightblue" points="879.588,-135.607 888.993,-130.729 878.599,-128.677 879.588,-135.607"/>
</g>
<!-- Node15 -->
<g id="node16" class="node"><title>Node15</title>
<g id="a_node16"><a xlink:href="st___measure_8h.html" target="_top" xlink:title="../lib/st_Measure.h">
<polygon fill="none" stroke="black" points="562.5,-112.5 562.5,-131.5 660.5,-131.5 660.5,-112.5 562.5,-112.5"/>
<text text-anchor="middle" x="611.5" y="-119.5" font-family="Helvetica,sans-Serif" font-size="10.00">../lib/st_Measure.h</text>
</a>
</g>
</g>
<!-- Node3&#45;&gt;Node15 -->
<g id="edge19" class="edge"><title>Node3&#45;&gt;Node15</title>
<path fill="none" stroke="midnightblue" d="M514.722,-168.444C533.396,-159.675 562.656,-145.935 584.117,-135.858"/>
<polygon fill="midnightblue" stroke="midnightblue" points="585.799,-138.935 593.363,-131.516 582.824,-132.599 585.799,-138.935"/>
</g>
<!-- Node16 -->
<g id="node17" class="node"><title>Node16</title>
<g id="a_node17"><a xlink:href="st___output_8h.html" target="_top" xlink:title="../lib/st_Output.h">
<polygon fill="none" stroke="black" points="679,-112.5 679,-131.5 768,-131.5 768,-112.5 679,-112.5"/>
<text text-anchor="middle" x="723.5" y="-119.5" font-family="Helvetica,sans-Serif" font-size="10.00">../lib/st_Output.h</text>
</a>
</g>
</g>
<!-- Node3&#45;&gt;Node16 -->
<g id="edge21" class="edge"><title>Node3&#45;&gt;Node16</title>
<path fill="none" stroke="midnightblue" d="M530.976,-168.799C570.214,-159.465 634.465,-144.18 677.838,-133.862"/>
<polygon fill="midnightblue" stroke="midnightblue" points="678.654,-137.266 687.572,-131.547 677.034,-130.456 678.654,-137.266"/>
</g>
<!-- Node17 -->
<g id="node18" class="node"><title>Node17</title>
<g id="a_node18"><a xlink:href="st___sleep_8h.html" target="_top" xlink:title="../lib/st_Sleep.h">
<polygon fill="none" stroke="black" points="786,-112.5 786,-131.5 871,-131.5 871,-112.5 786,-112.5"/>
<text text-anchor="middle" x="828.5" y="-119.5" font-family="Helvetica,sans-Serif" font-size="10.00">../lib/st_Sleep.h</text>
</a>
</g>
</g>
<!-- Node3&#45;&gt;Node17 -->
<g id="edge23" class="edge"><title>Node3&#45;&gt;Node17</title>
<path fill="none" stroke="midnightblue" d="M530.572,-171.659C581.506,-163.646 680.785,-147.914 775.864,-132.089"/>
<polygon fill="midnightblue" stroke="midnightblue" points="776.652,-135.506 785.94,-130.409 775.5,-128.602 776.652,-135.506"/>
</g>
<!-- Node8 -->
<g id="node9" class="node"><title>Node8</title>
<g id="a_node9"><a xlink:href="_sensor_8h.html" target="_top" xlink:title="This class is the base class of sensor. ">
<polygon fill="none" stroke="black" points="379,-56.5 379,-75.5 456,-75.5 456,-56.5 379,-56.5"/>
<text text-anchor="middle" x="417.5" y="-63.5" font-family="Helvetica,sans-Serif" font-size="10.00">../lib/Sensor.h</text>
</a>
</g>
</g>
<!-- Node7&#45;&gt;Node8 -->
<g id="edge8" class="edge"><title>Node7&#45;&gt;Node8</title>
<path fill="none" stroke="midnightblue" d="M321.564,-112.444C340.075,-103.675 369.081,-89.9355 390.355,-79.8579"/>
<polygon fill="midnightblue" stroke="midnightblue" points="391.982,-82.9604 399.521,-75.5164 388.985,-76.6343 391.982,-82.9604"/>
</g>
<!-- Node8&#45;&gt;Node9 -->
<g id="edge9" class="edge"><title>Node8&#45;&gt;Node9</title>
<path fill="none" stroke="midnightblue" d="M456.139,-57.5482C507.722,-47.6 598.876,-30.0204 653.188,-19.5459"/>
<polygon fill="midnightblue" stroke="midnightblue" points="654.053,-22.9437 663.209,-17.6132 652.727,-16.0703 654.053,-22.9437"/>
</g>
<!-- Node10&#45;&gt;Node8 -->
<g id="edge11" class="edge"><title>Node10&#45;&gt;Node8</title>
<path fill="none" stroke="midnightblue" d="M417.5,-112.083C417.5,-105.006 417.5,-94.8611 417.5,-85.9865"/>
<polygon fill="midnightblue" stroke="midnightblue" points="421,-85.751 417.5,-75.7511 414,-85.7511 421,-85.751"/>
</g>
<!-- Node11&#45;&gt;Node9 -->
<g id="edge13" class="edge"><title>Node11&#45;&gt;Node9</title>
<path fill="none" stroke="midnightblue" d="M592.307,-56.4435C612.787,-47.5961 644.983,-33.6875 668.365,-23.5865"/>
<polygon fill="midnightblue" stroke="midnightblue" points="669.994,-26.6953 677.786,-19.5164 667.218,-20.2692 669.994,-26.6953"/>
</g>
<!-- Node13&#45;&gt;Node9 -->
<g id="edge16" class="edge"><title>Node13&#45;&gt;Node9</title>
<path fill="none" stroke="midnightblue" d="M914.981,-112.368C873.708,-93.131 773.981,-46.6478 725.244,-23.9314"/>
<polygon fill="midnightblue" stroke="midnightblue" points="726.475,-20.6438 715.932,-19.5914 723.518,-26.9885 726.475,-20.6438"/>
</g>
<!-- Node13&#45;&gt;Node12 -->
<g id="edge18" class="edge"><title>Node13&#45;&gt;Node12</title>
<path fill="none" stroke="midnightblue" d="M900.225,-112.444C864.052,-103.142 806.123,-88.246 766.519,-78.062"/>
<polygon fill="midnightblue" stroke="midnightblue" points="767.176,-74.6172 756.619,-75.5164 765.433,-81.3966 767.176,-74.6172"/>
</g>
<!-- Node14 -->
<g id="node15" class="node"><title>Node14</title>
<g id="a_node15"><a xlink:href="_date_time_8h.html" target="_top" xlink:title="This file declare the DateTime class. ">
<polygon fill="none" stroke="black" points="889,-56.5 889,-75.5 978,-75.5 978,-56.5 889,-56.5"/>
<text text-anchor="middle" x="933.5" y="-63.5" font-family="Helvetica,sans-Serif" font-size="10.00">../lib/DateTime.h</text>
</a>
</g>
</g>
<!-- Node13&#45;&gt;Node14 -->
<g id="edge17" class="edge"><title>Node13&#45;&gt;Node14</title>
<path fill="none" stroke="midnightblue" d="M933.5,-112.083C933.5,-105.006 933.5,-94.8611 933.5,-85.9865"/>
<polygon fill="midnightblue" stroke="midnightblue" points="937,-85.751 933.5,-75.7511 930,-85.7511 937,-85.751"/>
</g>
<!-- Node15&#45;&gt;Node12 -->
<g id="edge20" class="edge"><title>Node15&#45;&gt;Node12</title>
<path fill="none" stroke="midnightblue" d="M629.495,-112.324C647.538,-103.625 675.547,-90.1202 696.303,-80.113"/>
<polygon fill="midnightblue" stroke="midnightblue" points="698.062,-83.1502 705.55,-75.6545 695.022,-76.8449 698.062,-83.1502"/>
</g>
<!-- Node16&#45;&gt;Node12 -->
<g id="edge22" class="edge"><title>Node16&#45;&gt;Node12</title>
<path fill="none" stroke="midnightblue" d="M723.5,-112.083C723.5,-105.006 723.5,-94.8611 723.5,-85.9865"/>
<polygon fill="midnightblue" stroke="midnightblue" points="727,-85.751 723.5,-75.7511 720,-85.7511 727,-85.751"/>
</g>
<!-- Node17&#45;&gt;Node12 -->
<g id="edge24" class="edge"><title>Node17&#45;&gt;Node12</title>
<path fill="none" stroke="midnightblue" d="M811.63,-112.324C794.791,-103.664 768.693,-90.2424 749.262,-80.249"/>
<polygon fill="midnightblue" stroke="midnightblue" points="750.822,-77.1155 740.328,-75.6545 747.62,-83.3405 750.822,-77.1155"/>
</g>
</g>
</svg>
        <g id="navigator" transform="translate(0 0)" fill="#404254">
                <rect fill="#f2f5e9" fill-opacity="0.5" stroke="#606060" stroke-width=".5" x="0" y="0" width="60" height="60"/>
                <use id="zoomplus" xlink:href="#zoomPlus" x="17" y="9" onmousedown="handleZoom(evt,'in')"/>
                <use id="zoomminus" xlink:href="#zoomMin" x="42" y="9" onmousedown="handleZoom(evt,'out')"/>
                <use id="reset" xlink:href="#resetDef" x="30" y="36" onmousedown="handleReset()"/>
                <g id="arrowUp" xlink:href="#dirArrow" transform="translate(30 24)" onmousedown="handlePan(0,-1)">
                  <use xlink:href="#rim" fill="#404040">
                        <set attributeName="fill" to="#808080" begin="arrowUp.mouseover" end="arrowUp.mouseout"/>
                  </use>
                  <path fill="none" stroke="white" stroke-width="1.5" d="M0,-3.0v7 M-2.5,-0.5L0,-3.0L2.5,-0.5"/>
                </g>
                <g id="arrowRight" xlink:href="#dirArrow" transform="rotate(90) translate(36 -43)" onmousedown="handlePan(1,0)">
                  <use xlink:href="#rim" fill="#404040">
                        <set attributeName="fill" to="#808080" begin="arrowRight.mouseover" end="arrowRight.mouseout"/>
                  </use>
                  <path fill="none" stroke="white" stroke-width="1.5" d="M0,-3.0v7 M-2.5,-0.5L0,-3.0L2.5,-0.5"/>
                </g>
                <g id="arrowDown" xlink:href="#dirArrow" transform="rotate(180) translate(-30 -48)" onmousedown="handlePan(0,1)">
                  <use xlink:href="#rim" fill="#404040">
                        <set attributeName="fill" to="#808080" begin="arrowDown.mouseover" end="arrowDown.mouseout"/>
                  </use>
                  <path fill="none" stroke="white" stroke-width="1.5" d="M0,-3.0v7 M-2.5,-0.5L0,-3.0L2.5,-0.5"/>
                </g>
                <g id="arrowLeft" xlink:href="#dirArrow" transform="rotate(270) translate(-36 17)" onmousedown="handlePan(-1,0)">
                  <use xlink:href="#rim" fill="#404040">
                        <set attributeName="fill" to="#808080" begin="arrowLeft.mouseover" end="arrowLeft.mouseout"/>
                  </use>
                  <path fill="none" stroke="white" stroke-width="1.5" d="M0,-3.0v7 M-2.5,-0.5L0,-3.0L2.5,-0.5"/>
                </g>
        </g>
        <svg viewBox="0 0 15 15" width="100%" height="30px" preserveAspectRatio="xMaxYMin meet">
         <g id="arrow_out" transform="scale(0.3 0.3)">
          <a xlink:href="_usart_8cpp__incl_org.svg" target="_base">
           <rect id="button" ry="5" rx="5" y="6" x="6" height="38" width="38"
                fill="#f2f5e9" fill-opacity="0.5" stroke="#606060" stroke-width="1.0"/>
           <path id="arrow"
             d="M 11.500037,31.436501 C 11.940474,20.09759 22.043105,11.32322 32.158766,21.979434 L 37.068811,17.246167 C 37.068811,17.246167 37.088388,32 37.088388,32 L 22.160133,31.978069 C 22.160133,31.978069 26.997745,27.140456 26.997745,27.140456 C 18.528582,18.264221 13.291696,25.230495 11.500037,31.436501 z"
             style="fill:#404040;"/>
          </a>
         </g>
        </svg>
</svg>
