<?xml version="1.0" encoding="UTF-8" standalone="no"?>
<!DOCTYPE svg PUBLIC "-//W3C//DTD SVG 1.1//EN"
 "http://www.w3.org/Graphics/SVG/1.1/DTD/svg11.dtd">
<!-- Generated by graphviz version 2.38.0 (20140413.2041)
 -->
<!-- Title: Usart.h Pages: 1 -->
<svg width="498pt" height="140pt"
 viewBox="0.00 0.00 497.50 140.00" xmlns="http://www.w3.org/2000/svg" xmlns:xlink="http://www.w3.org/1999/xlink">
<g id="graph0" class="graph" transform="scale(1 1) rotate(0) translate(4 136)">
<title>Usart.h</title>
<!-- Node1 -->
<g id="node1" class="node"><title>Node1</title>
<polygon fill="#bfbfbf" stroke="black" points="235.5,-112.5 235.5,-131.5 284.5,-131.5 284.5,-112.5 235.5,-112.5"/>
<text text-anchor="middle" x="260" y="-119.5" font-family="Helvetica,sans-Serif" font-size="10.00">Usart.h</text>
</g>
<!-- Node2 -->
<g id="node2" class="node"><title>Node2</title>
<g id="a_node2"><a xlink:href="_f_s_m_8h.html" target="_top" xlink:title="The FSM is the finish state machine mechanism. ">
<polygon fill="none" stroke="black" points="212,-56.5 212,-75.5 258,-75.5 258,-56.5 212,-56.5"/>
<text text-anchor="middle" x="235" y="-63.5" font-family="Helvetica,sans-Serif" font-size="10.00">FSM.h</text>
</a>
</g>
</g>
<!-- Node1&#45;&gt;Node2 -->
<g id="edge1" class="edge"><title>Node1&#45;&gt;Node2</title>
<path fill="none" stroke="midnightblue" d="M251.659,-102.983C247.415,-93.8168 242.45,-83.0922 239.051,-75.7511"/>
<polygon fill="midnightblue" stroke="midnightblue" points="248.494,-104.479 255.872,-112.083 254.847,-101.538 248.494,-104.479"/>
</g>
<!-- Node3 -->
<g id="node3" class="node"><title>Node3</title>
<g id="a_node3"><a xlink:href="_config_8cpp.html" target="_top" xlink:title="This file define the Config class. ">
<polygon fill="none" stroke="black" points="0,-0.5 0,-19.5 64,-19.5 64,-0.5 0,-0.5"/>
<text text-anchor="middle" x="32" y="-7.5" font-family="Helvetica,sans-Serif" font-size="10.00">Config.cpp</text>
</a>
</g>
</g>
<!-- Node1&#45;&gt;Node3 -->
<g id="edge8" class="edge"><title>Node1&#45;&gt;Node3</title>
<path fill="none" stroke="midnightblue" d="M231.465,-108.199C211.851,-99.3255 185.252,-87.1475 162,-76 121.044,-56.3643 73.4121,-32.2063 48.7406,-19.5931"/>
<polygon fill="midnightblue" stroke="midnightblue" points="230.204,-111.469 240.758,-112.392 233.083,-105.089 230.204,-111.469"/>
</g>
<!-- Node4 -->
<g id="node4" class="node"><title>Node4</title>
<g id="a_node4"><a xlink:href="_f_s_m_8cpp.html" target="_top" xlink:title="Brief description of file. ">
<polygon fill="none" stroke="black" points="82,-0.5 82,-19.5 138,-19.5 138,-0.5 82,-0.5"/>
<text text-anchor="middle" x="110" y="-7.5" font-family="Helvetica,sans-Serif" font-size="10.00">FSM.cpp</text>
</a>
</g>
</g>
<!-- Node1&#45;&gt;Node4 -->
<g id="edge9" class="edge"><title>Node1&#45;&gt;Node4</title>
<path fill="none" stroke="midnightblue" d="M236.875,-107.034C223.024,-98.449 205.211,-87.0168 190,-76 163.912,-57.1053 134.959,-32.6463 120.068,-19.789"/>
<polygon fill="midnightblue" stroke="midnightblue" points="235.396,-110.233 245.75,-112.482 239.059,-104.267 235.396,-110.233"/>
</g>
<!-- Node5 -->
<g id="node5" class="node"><title>Node5</title>
<g id="a_node5"><a xlink:href="main_8cpp.html" target="_top" xlink:title="This is the main file, is the firmware&#39;s body. ">
<polygon fill="none" stroke="black" points="156,-0.5 156,-19.5 212,-19.5 212,-0.5 156,-0.5"/>
<text text-anchor="middle" x="184" y="-7.5" font-family="Helvetica,sans-Serif" font-size="10.00">main.cpp</text>
</a>
</g>
</g>
<!-- Node1&#45;&gt;Node5 -->
<g id="edge10" class="edge"><title>Node1&#45;&gt;Node5</title>
<path fill="none" stroke="midnightblue" d="M235.751,-106.847C224.329,-99.0628 211.401,-88.4538 203,-76 191.034,-58.261 186.479,-32.8915 184.845,-19.707"/>
<polygon fill="midnightblue" stroke="midnightblue" points="234.17,-109.992 244.472,-112.465 237.961,-104.107 234.17,-109.992"/>
</g>
<!-- Node7 -->
<g id="node7" class="node"><title>Node7</title>
<g id="a_node7"><a xlink:href="_output_8cpp.html" target="_top" xlink:title="The class Output inherits from the class State. ">
<polygon fill="none" stroke="black" points="321.5,-0.5 321.5,-19.5 386.5,-19.5 386.5,-0.5 321.5,-0.5"/>
<text text-anchor="middle" x="354" y="-7.5" font-family="Helvetica,sans-Serif" font-size="10.00">Output.cpp</text>
</a>
</g>
</g>
<!-- Node1&#45;&gt;Node7 -->
<g id="edge11" class="edge"><title>Node1&#45;&gt;Node7</title>
<path fill="none" stroke="midnightblue" d="M272.163,-104.073C281.978,-90.6957 296.35,-71.7234 310,-56 321.461,-42.7984 335.783,-28.5207 344.913,-19.6688"/>
<polygon fill="midnightblue" stroke="midnightblue" points="269.209,-102.185 266.162,-112.332 274.872,-106.3 269.209,-102.185"/>
</g>
<!-- Node8 -->
<g id="node8" class="node"><title>Node8</title>
<g id="a_node8"><a xlink:href="_usart_8cpp.html" target="_top" xlink:title="This is the uart library for the atmega1284p. ">
<polygon fill="none" stroke="black" points="404.5,-0.5 404.5,-19.5 463.5,-19.5 463.5,-0.5 404.5,-0.5"/>
<text text-anchor="middle" x="434" y="-7.5" font-family="Helvetica,sans-Serif" font-size="10.00">Usart.cpp</text>
</a>
</g>
</g>
<!-- Node1&#45;&gt;Node8 -->
<g id="edge14" class="edge"><title>Node1&#45;&gt;Node8</title>
<path fill="none" stroke="midnightblue" d="M277.358,-105.684C293.634,-91.7492 318.994,-71.1111 343,-56 366.269,-41.3532 394.97,-27.847 413.843,-19.5302"/>
<polygon fill="midnightblue" stroke="midnightblue" points="274.994,-103.1 269.73,-112.294 279.579,-108.39 274.994,-103.1"/>
</g>
<!-- Node9 -->
<g id="node9" class="node"><title>Node9</title>
<g id="a_node9"><a xlink:href="_sleep_8cpp.html" target="_top" xlink:title="Brief description of file. ">
<polygon fill="none" stroke="black" points="352,-56.5 352,-75.5 412,-75.5 412,-56.5 352,-56.5"/>
<text text-anchor="middle" x="382" y="-63.5" font-family="Helvetica,sans-Serif" font-size="10.00">Sleep.cpp</text>
</a>
</g>
</g>
<!-- Node1&#45;&gt;Node9 -->
<g id="edge12" class="edge"><title>Node1&#45;&gt;Node9</title>
<path fill="none" stroke="midnightblue" d="M288.539,-108.368C311.386,-98.2553 342.805,-84.3486 362.759,-75.5164"/>
<polygon fill="midnightblue" stroke="midnightblue" points="287.059,-105.196 279.331,-112.444 289.892,-111.597 287.059,-105.196"/>
</g>
<!-- Node10 -->
<g id="node10" class="node"><title>Node10</title>
<g id="a_node10"><a xlink:href="_state_8cpp.html" target="_top" xlink:title="Brief description of file. ">
<polygon fill="none" stroke="black" points="430.5,-56.5 430.5,-75.5 489.5,-75.5 489.5,-56.5 430.5,-56.5"/>
<text text-anchor="middle" x="460" y="-63.5" font-family="Helvetica,sans-Serif" font-size="10.00">State.cpp</text>
</a>
</g>
</g>
<!-- Node1&#45;&gt;Node10 -->
<g id="edge13" class="edge"><title>Node1&#45;&gt;Node10</title>
<path fill="none" stroke="midnightblue" d="M294.21,-111.763C332.54,-101.414 394.052,-84.8058 430.395,-74.9933"/>
<polygon fill="midnightblue" stroke="midnightblue" points="293.266,-108.393 284.524,-114.379 295.091,-115.151 293.266,-108.393"/>
</g>
<!-- Node2&#45;&gt;Node3 -->
<g id="edge2" class="edge"><title>Node2&#45;&gt;Node3</title>
<path fill="none" stroke="midnightblue" d="M201.631,-56.1234C163.501,-45.9805 101.54,-29.4984 63.9945,-19.5108"/>
<polygon fill="midnightblue" stroke="midnightblue" points="201.15,-59.6171 211.713,-58.8055 202.949,-52.8524 201.15,-59.6171"/>
</g>
<!-- Node2&#45;&gt;Node4 -->
<g id="edge3" class="edge"><title>Node2&#45;&gt;Node4</title>
<path fill="none" stroke="midnightblue" d="M205.759,-52.3678C182.35,-42.2553 150.159,-28.3486 129.714,-19.5164"/>
<polygon fill="midnightblue" stroke="midnightblue" points="204.625,-55.6907 215.193,-56.4435 207.401,-49.2647 204.625,-55.6907"/>
</g>
<!-- Node2&#45;&gt;Node5 -->
<g id="edge4" class="edge"><title>Node2&#45;&gt;Node5</title>
<path fill="none" stroke="midnightblue" d="M219.622,-48.7175C210.633,-39.1997 199.641,-27.5608 192.265,-19.7511"/>
<polygon fill="midnightblue" stroke="midnightblue" points="217.168,-51.216 226.578,-56.083 222.257,-46.4096 217.168,-51.216"/>
</g>
<!-- Node6 -->
<g id="node6" class="node"><title>Node6</title>
<g id="a_node6"><a xlink:href="_measure_8cpp.html" target="_top" xlink:title="The class Measure inherits from the class State. ">
<polygon fill="none" stroke="black" points="230.5,-0.5 230.5,-19.5 303.5,-19.5 303.5,-0.5 230.5,-0.5"/>
<text text-anchor="middle" x="267" y="-7.5" font-family="Helvetica,sans-Serif" font-size="10.00">Measure.cpp</text>
</a>
</g>
</g>
<!-- Node2&#45;&gt;Node6 -->
<g id="edge5" class="edge"><title>Node2&#45;&gt;Node6</title>
<path fill="none" stroke="midnightblue" d="M245.504,-47.2747C250.973,-38.0454 257.418,-27.1703 261.814,-19.7511"/>
<polygon fill="midnightblue" stroke="midnightblue" points="242.371,-45.6957 240.284,-56.083 248.393,-49.2644 242.371,-45.6957"/>
</g>
<!-- Node2&#45;&gt;Node7 -->
<g id="edge6" class="edge"><title>Node2&#45;&gt;Node7</title>
<path fill="none" stroke="midnightblue" d="M263.137,-52.2321C285.396,-42.1312 315.856,-28.3091 335.232,-19.5164"/>
<polygon fill="midnightblue" stroke="midnightblue" points="261.516,-49.124 253.856,-56.4435 264.409,-55.4984 261.516,-49.124"/>
</g>
<!-- Node2&#45;&gt;Node8 -->
<g id="edge7" class="edge"><title>Node2&#45;&gt;Node8</title>
<path fill="none" stroke="midnightblue" d="M268.284,-55.9683C306.343,-45.6406 368.073,-28.8899 404.481,-19.0101"/>
<polygon fill="midnightblue" stroke="midnightblue" points="266.952,-52.7031 258.217,-58.6998 268.785,-59.4587 266.952,-52.7031"/>
</g>
</g>
</svg>
