<?xml version="1.0" encoding="UTF-8" standalone="no"?>
<!DOCTYPE svg PUBLIC "-//W3C//DTD SVG 1.1//EN"
 "http://www.w3.org/Graphics/SVG/1.1/DTD/svg11.dtd">
<!-- Generated by graphviz version 2.38.0 (20140413.2041)
 -->
<!-- Title: Windvane.cpp Pages: 1 -->
<svg width="166pt" height="196pt"
 viewBox="0.00 0.00 165.50 196.00" xmlns="http://www.w3.org/2000/svg" xmlns:xlink="http://www.w3.org/1999/xlink">
<g id="graph0" class="graph" transform="scale(1 1) rotate(0) translate(4 192)">
<title>Windvane.cpp</title>
<!-- Node0 -->
<g id="node1" class="node"><title>Node0</title>
<polygon fill="#bfbfbf" stroke="black" points="29,-168.5 29,-187.5 108,-187.5 108,-168.5 29,-168.5"/>
<text text-anchor="middle" x="68.5" y="-175.5" font-family="Helvetica,sans-Serif" font-size="10.00">Windvane.cpp</text>
</g>
<!-- Node1 -->
<g id="node2" class="node"><title>Node1</title>
<polygon fill="none" stroke="#bfbfbf" points="-3.55271e-15,-112.5 -3.55271e-15,-131.5 49,-131.5 49,-112.5 -3.55271e-15,-112.5"/>
<text text-anchor="middle" x="24.5" y="-119.5" font-family="Helvetica,sans-Serif" font-size="10.00">string.h</text>
</g>
<!-- Node0&#45;&gt;Node1 -->
<g id="edge1" class="edge"><title>Node0&#45;&gt;Node1</title>
<path fill="none" stroke="midnightblue" d="M61.2343,-168.083C54.9552,-160.377 45.7124,-149.033 38.0692,-139.653"/>
<polygon fill="midnightblue" stroke="midnightblue" points="40.6606,-137.293 31.6305,-131.751 35.2339,-141.714 40.6606,-137.293"/>
</g>
<!-- Node2 -->
<g id="node3" class="node"><title>Node2</title>
<g id="a_node3"><a xlink:href="_windvane_8h.html" target="_top" xlink:title="Brief description of file. ">
<polygon fill="none" stroke="black" points="67.5,-112.5 67.5,-131.5 157.5,-131.5 157.5,-112.5 67.5,-112.5"/>
<text text-anchor="middle" x="112.5" y="-119.5" font-family="Helvetica,sans-Serif" font-size="10.00">../lib/Windvane.h</text>
</a>
</g>
</g>
<!-- Node0&#45;&gt;Node2 -->
<g id="edge2" class="edge"><title>Node0&#45;&gt;Node2</title>
<path fill="none" stroke="midnightblue" d="M75.7657,-168.083C82.0448,-160.377 91.2876,-149.033 98.9308,-139.653"/>
<polygon fill="midnightblue" stroke="midnightblue" points="101.766,-141.714 105.369,-131.751 96.3394,-137.293 101.766,-141.714"/>
</g>
<!-- Node3 -->
<g id="node4" class="node"><title>Node3</title>
<g id="a_node4"><a xlink:href="_sensor_8h.html" target="_top" xlink:title="This class is the base class of sensor. ">
<polygon fill="none" stroke="black" points="74,-56.5 74,-75.5 151,-75.5 151,-56.5 74,-56.5"/>
<text text-anchor="middle" x="112.5" y="-63.5" font-family="Helvetica,sans-Serif" font-size="10.00">../lib/Sensor.h</text>
</a>
</g>
</g>
<!-- Node2&#45;&gt;Node3 -->
<g id="edge3" class="edge"><title>Node2&#45;&gt;Node3</title>
<path fill="none" stroke="midnightblue" d="M112.5,-112.083C112.5,-105.006 112.5,-94.8611 112.5,-85.9865"/>
<polygon fill="midnightblue" stroke="midnightblue" points="116,-85.751 112.5,-75.7511 109,-85.7511 116,-85.751"/>
</g>
<!-- Node4 -->
<g id="node5" class="node"><title>Node4</title>
<g id="a_node5"><a xlink:href="main_8h.html" target="_top" xlink:title="The main.h file regroup global constant declaration. ">
<polygon fill="none" stroke="black" points="78.5,-0.5 78.5,-19.5 146.5,-19.5 146.5,-0.5 78.5,-0.5"/>
<text text-anchor="middle" x="112.5" y="-7.5" font-family="Helvetica,sans-Serif" font-size="10.00">../lib/main.h</text>
</a>
</g>
</g>
<!-- Node3&#45;&gt;Node4 -->
<g id="edge4" class="edge"><title>Node3&#45;&gt;Node4</title>
<path fill="none" stroke="midnightblue" d="M112.5,-56.083C112.5,-49.0059 112.5,-38.8611 112.5,-29.9865"/>
<polygon fill="midnightblue" stroke="midnightblue" points="116,-29.751 112.5,-19.7511 109,-29.7511 116,-29.751"/>
</g>
</g>
</svg>
