<?xml version="1.0" encoding="UTF-8" standalone="no"?>
<!DOCTYPE svg PUBLIC "-//W3C//DTD SVG 1.1//EN"
 "http://www.w3.org/Graphics/SVG/1.1/DTD/svg11.dtd">
<!-- Generated by graphviz version 2.38.0 (20140413.2041)
 -->
<!-- Title: Windvane.h Pages: 1 -->
<svg width="1030pt" height="140pt"
 viewBox="0.00 0.00 1030.00 140.00" xmlns="http://www.w3.org/2000/svg" xmlns:xlink="http://www.w3.org/1999/xlink">
<g id="graph0" class="graph" transform="scale(1 1) rotate(0) translate(4 136)">
<title>Windvane.h</title>
<!-- Node3 -->
<g id="node1" class="node"><title>Node3</title>
<polygon fill="#bfbfbf" stroke="black" points="497.5,-112.5 497.5,-131.5 565.5,-131.5 565.5,-112.5 497.5,-112.5"/>
<text text-anchor="middle" x="531.5" y="-119.5" font-family="Helvetica,sans-Serif" font-size="10.00">Windvane.h</text>
</g>
<!-- Node4 -->
<g id="node2" class="node"><title>Node4</title>
<g id="a_node2"><a xlink:href="_f_s_m_8h.html" target="_top" xlink:title="The FSM is the finish state machine mechanism. ">
<polygon fill="none" stroke="black" points="468.5,-56.5 468.5,-75.5 514.5,-75.5 514.5,-56.5 468.5,-56.5"/>
<text text-anchor="middle" x="491.5" y="-63.5" font-family="Helvetica,sans-Serif" font-size="10.00">FSM.h</text>
</a>
</g>
</g>
<!-- Node3&#45;&gt;Node4 -->
<g id="edge1" class="edge"><title>Node3&#45;&gt;Node4</title>
<path fill="none" stroke="midnightblue" d="M518.8,-103.855C511.874,-94.5048 503.594,-83.3265 497.982,-75.7511"/>
<polygon fill="midnightblue" stroke="midnightblue" points="516.13,-106.131 524.895,-112.083 521.755,-101.964 516.13,-106.131"/>
</g>
<!-- Node17 -->
<g id="node15" class="node"><title>Node17</title>
<g id="a_node15"><a xlink:href="_windvane_8cpp.html" target="_top" xlink:title="Brief description of file. ">
<polygon fill="none" stroke="black" points="533,-56.5 533,-75.5 612,-75.5 612,-56.5 533,-56.5"/>
<text text-anchor="middle" x="572.5" y="-63.5" font-family="Helvetica,sans-Serif" font-size="10.00">Windvane.cpp</text>
</a>
</g>
</g>
<!-- Node3&#45;&gt;Node17 -->
<g id="edge14" class="edge"><title>Node3&#45;&gt;Node17</title>
<path fill="none" stroke="midnightblue" d="M544.517,-103.855C551.617,-94.5048 560.104,-83.3265 565.856,-75.7511"/>
<polygon fill="midnightblue" stroke="midnightblue" points="541.53,-102.002 538.27,-112.083 547.105,-106.235 541.53,-102.002"/>
</g>
<!-- Node5 -->
<g id="node3" class="node"><title>Node5</title>
<g id="a_node3"><a xlink:href="_anemometer_8cpp.html" target="_top" xlink:title="Brief description of file. ">
<polygon fill="none" stroke="black" points="0,-0.5 0,-19.5 91,-19.5 91,-0.5 0,-0.5"/>
<text text-anchor="middle" x="45.5" y="-7.5" font-family="Helvetica,sans-Serif" font-size="10.00">Anemometer.cpp</text>
</a>
</g>
</g>
<!-- Node4&#45;&gt;Node5 -->
<g id="edge2" class="edge"><title>Node4&#45;&gt;Node5</title>
<path fill="none" stroke="midnightblue" d="M458.025,-61.6903C390.36,-54.8803 232.513,-38.3871 100.5,-20 97.4334,-19.5729 94.2741,-19.1119 91.0931,-18.6322"/>
<polygon fill="midnightblue" stroke="midnightblue" points="457.794,-65.1845 468.093,-62.6989 458.492,-58.2194 457.794,-65.1845"/>
</g>
<!-- Node6 -->
<g id="node4" class="node"><title>Node6</title>
<g id="a_node4"><a xlink:href="_f_s_m_8cpp.html" target="_top" xlink:title="Brief description of file. ">
<polygon fill="none" stroke="black" points="109.5,-0.5 109.5,-19.5 165.5,-19.5 165.5,-0.5 109.5,-0.5"/>
<text text-anchor="middle" x="137.5" y="-7.5" font-family="Helvetica,sans-Serif" font-size="10.00">FSM.cpp</text>
</a>
</g>
</g>
<!-- Node4&#45;&gt;Node6 -->
<g id="edge3" class="edge"><title>Node4&#45;&gt;Node6</title>
<path fill="none" stroke="midnightblue" d="M458.266,-61.3646C400.348,-54.7883 277.279,-39.7464 174.5,-20 171.643,-19.4512 168.676,-18.8252 165.72,-18.1647"/>
<polygon fill="midnightblue" stroke="midnightblue" points="457.974,-64.8538 468.302,-62.4932 458.756,-57.8976 457.974,-64.8538"/>
</g>
<!-- Node7 -->
<g id="node5" class="node"><title>Node7</title>
<g id="a_node5"><a xlink:href="main_8cpp.html" target="_top" xlink:title="This is the main file, is the firmware&#39;s body. ">
<polygon fill="none" stroke="black" points="183.5,-0.5 183.5,-19.5 239.5,-19.5 239.5,-0.5 183.5,-0.5"/>
<text text-anchor="middle" x="211.5" y="-7.5" font-family="Helvetica,sans-Serif" font-size="10.00">main.cpp</text>
</a>
</g>
</g>
<!-- Node4&#45;&gt;Node7 -->
<g id="edge4" class="edge"><title>Node4&#45;&gt;Node7</title>
<path fill="none" stroke="midnightblue" d="M458.397,-59.4695C411.523,-51.5023 323.194,-35.9876 248.5,-20 245.656,-19.3912 242.696,-18.7258 239.745,-18.0412"/>
<polygon fill="midnightblue" stroke="midnightblue" points="457.853,-62.9271 468.297,-61.1446 459.021,-56.0252 457.853,-62.9271"/>
</g>
<!-- Node8 -->
<g id="node6" class="node"><title>Node8</title>
<g id="a_node6"><a xlink:href="_power_8cpp.html" target="_top" xlink:title="Power.cpp">
<polygon fill="none" stroke="black" points="258,-0.5 258,-19.5 321,-19.5 321,-0.5 258,-0.5"/>
<text text-anchor="middle" x="289.5" y="-7.5" font-family="Helvetica,sans-Serif" font-size="10.00">Power.cpp</text>
</a>
</g>
</g>
<!-- Node4&#45;&gt;Node8 -->
<g id="edge5" class="edge"><title>Node4&#45;&gt;Node8</title>
<path fill="none" stroke="midnightblue" d="M458.295,-56.1234C420.353,-45.9805 358.698,-29.4984 321.337,-19.5108"/>
<polygon fill="midnightblue" stroke="midnightblue" points="457.763,-59.6041 468.328,-58.8055 459.571,-52.8416 457.763,-59.6041"/>
</g>
<!-- Node9 -->
<g id="node7" class="node"><title>Node9</title>
<g id="a_node7"><a xlink:href="_r_t_c_8cpp.html" target="_top" xlink:title="Brief description of file. ">
<polygon fill="none" stroke="black" points="339.5,-0.5 339.5,-19.5 395.5,-19.5 395.5,-0.5 339.5,-0.5"/>
<text text-anchor="middle" x="367.5" y="-7.5" font-family="Helvetica,sans-Serif" font-size="10.00">RTC.cpp</text>
</a>
</g>
</g>
<!-- Node4&#45;&gt;Node9 -->
<g id="edge6" class="edge"><title>Node4&#45;&gt;Node9</title>
<path fill="none" stroke="midnightblue" d="M462.493,-52.3678C439.271,-42.2553 407.337,-28.3486 387.056,-19.5164"/>
<polygon fill="midnightblue" stroke="midnightblue" points="461.286,-55.6597 471.852,-56.4435 464.081,-49.2419 461.286,-55.6597"/>
</g>
<!-- Node10 -->
<g id="node8" class="node"><title>Node10</title>
<g id="a_node8"><a xlink:href="_sensor_8cpp.html" target="_top" xlink:title="Brief description of file. ">
<polygon fill="none" stroke="black" points="413.5,-0.5 413.5,-19.5 479.5,-19.5 479.5,-0.5 413.5,-0.5"/>
<text text-anchor="middle" x="446.5" y="-7.5" font-family="Helvetica,sans-Serif" font-size="10.00">Sensor.cpp</text>
</a>
</g>
</g>
<!-- Node4&#45;&gt;Node10 -->
<g id="edge7" class="edge"><title>Node4&#45;&gt;Node10</title>
<path fill="none" stroke="midnightblue" d="M477.453,-48.144C469.613,-38.7357 460.171,-27.4046 453.793,-19.7511"/>
<polygon fill="midnightblue" stroke="midnightblue" points="474.979,-50.6414 484.069,-56.083 480.356,-46.1601 474.979,-50.6414"/>
</g>
<!-- Node11 -->
<g id="node9" class="node"><title>Node11</title>
<g id="a_node9"><a xlink:href="st___config_8cpp.html" target="_top" xlink:title="st_Config.cpp">
<polygon fill="none" stroke="black" points="498,-0.5 498,-19.5 575,-19.5 575,-0.5 498,-0.5"/>
<text text-anchor="middle" x="536.5" y="-7.5" font-family="Helvetica,sans-Serif" font-size="10.00">st_Config.cpp</text>
</a>
</g>
</g>
<!-- Node4&#45;&gt;Node11 -->
<g id="edge8" class="edge"><title>Node4&#45;&gt;Node11</title>
<path fill="none" stroke="midnightblue" d="M505.547,-48.144C513.387,-38.7357 522.829,-27.4046 529.207,-19.7511"/>
<polygon fill="midnightblue" stroke="midnightblue" points="502.644,-46.1601 498.931,-56.083 508.021,-50.6414 502.644,-46.1601"/>
</g>
<!-- Node12 -->
<g id="node10" class="node"><title>Node12</title>
<g id="a_node10"><a xlink:href="st___measure_8cpp.html" target="_top" xlink:title="st_Measure.cpp">
<polygon fill="none" stroke="black" points="593.5,-0.5 593.5,-19.5 679.5,-19.5 679.5,-0.5 593.5,-0.5"/>
<text text-anchor="middle" x="636.5" y="-7.5" font-family="Helvetica,sans-Serif" font-size="10.00">st_Measure.cpp</text>
</a>
</g>
</g>
<!-- Node4&#45;&gt;Node12 -->
<g id="edge9" class="edge"><title>Node4&#45;&gt;Node12</title>
<path fill="none" stroke="midnightblue" d="M523.975,-52.9058C551.236,-42.7536 589.492,-28.5063 613.632,-19.5164"/>
<polygon fill="midnightblue" stroke="midnightblue" points="522.625,-49.6736 514.476,-56.4435 525.068,-56.2334 522.625,-49.6736"/>
</g>
<!-- Node13 -->
<g id="node11" class="node"><title>Node13</title>
<g id="a_node11"><a xlink:href="st___output_8cpp.html" target="_top" xlink:title="st_Output.cpp">
<polygon fill="none" stroke="black" points="697.5,-0.5 697.5,-19.5 775.5,-19.5 775.5,-0.5 697.5,-0.5"/>
<text text-anchor="middle" x="736.5" y="-7.5" font-family="Helvetica,sans-Serif" font-size="10.00">st_Output.cpp</text>
</a>
</g>
</g>
<!-- Node4&#45;&gt;Node13 -->
<g id="edge10" class="edge"><title>Node4&#45;&gt;Node13</title>
<path fill="none" stroke="midnightblue" d="M524.197,-56.0737C524.298,-56.049 524.399,-56.0245 524.5,-56 584.471,-41.4699 654.609,-27.0885 697.275,-18.6284"/>
<polygon fill="midnightblue" stroke="midnightblue" points="523.361,-52.6748 514.536,-58.5374 525.09,-59.4577 523.361,-52.6748"/>
</g>
<!-- Node14 -->
<g id="node12" class="node"><title>Node14</title>
<g id="a_node12"><a xlink:href="st___sleep_8cpp.html" target="_top" xlink:title="st_Sleep.cpp">
<polygon fill="none" stroke="black" points="793.5,-0.5 793.5,-19.5 867.5,-19.5 867.5,-0.5 793.5,-0.5"/>
<text text-anchor="middle" x="830.5" y="-7.5" font-family="Helvetica,sans-Serif" font-size="10.00">st_Sleep.cpp</text>
</a>
</g>
</g>
<!-- Node4&#45;&gt;Node14 -->
<g id="edge11" class="edge"><title>Node4&#45;&gt;Node14</title>
<path fill="none" stroke="midnightblue" d="M524.808,-56.2024C640.527,-32.946 672.58,-38.6821 784.5,-20 787.39,-19.5177 790.376,-18.993 793.375,-18.4475"/>
<polygon fill="midnightblue" stroke="midnightblue" points="523.945,-52.8061 514.846,-58.2337 525.344,-59.665 523.945,-52.8061"/>
</g>
<!-- Node15 -->
<g id="node13" class="node"><title>Node15</title>
<g id="a_node13"><a xlink:href="_state_8cpp.html" target="_top" xlink:title="Brief description of file. ">
<polygon fill="none" stroke="black" points="886,-0.5 886,-19.5 945,-19.5 945,-0.5 886,-0.5"/>
<text text-anchor="middle" x="915.5" y="-7.5" font-family="Helvetica,sans-Serif" font-size="10.00">State.cpp</text>
</a>
</g>
</g>
<!-- Node4&#45;&gt;Node15 -->
<g id="edge12" class="edge"><title>Node4&#45;&gt;Node15</title>
<path fill="none" stroke="midnightblue" d="M524.781,-56.2884C680.884,-27.9548 724.54,-45.2032 876.5,-20 879.516,-19.4997 882.648,-18.9056 885.766,-18.2646"/>
<polygon fill="midnightblue" stroke="midnightblue" points="524.023,-52.8691 514.826,-58.1288 525.296,-59.7525 524.023,-52.8691"/>
</g>
<!-- Node16 -->
<g id="node14" class="node"><title>Node16</title>
<g id="a_node14"><a xlink:href="_usart_8cpp.html" target="_top" xlink:title="This is the uart library for the atmega1284p. ">
<polygon fill="none" stroke="black" points="963,-0.5 963,-19.5 1022,-19.5 1022,-0.5 963,-0.5"/>
<text text-anchor="middle" x="992.5" y="-7.5" font-family="Helvetica,sans-Serif" font-size="10.00">Usart.cpp</text>
</a>
</g>
</g>
<!-- Node4&#45;&gt;Node16 -->
<g id="edge13" class="edge"><title>Node4&#45;&gt;Node16</title>
<path fill="none" stroke="midnightblue" d="M524.868,-56.312C715.163,-23.5554 768.347,-49.6673 954.5,-20 957.178,-19.5732 959.947,-19.06 962.713,-18.4979"/>
<polygon fill="midnightblue" stroke="midnightblue" points="524.061,-52.9 514.816,-58.0746 525.27,-59.7948 524.061,-52.9"/>
</g>
</g>
</svg>
