<?xml version="1.0" encoding="UTF-8" standalone="no"?>
<!DOCTYPE svg PUBLIC "-//W3C//DTD SVG 1.1//EN"
 "http://www.w3.org/Graphics/SVG/1.1/DTD/svg11.dtd">
<!-- Generated by graphviz version 2.38.0 (20140413.2041)
 -->
<!-- Title: RTC::get_second Pages: 1 -->
<svg width="346pt" height="56pt"
 viewBox="0.00 0.00 346.00 55.50" xmlns="http://www.w3.org/2000/svg" xmlns:xlink="http://www.w3.org/1999/xlink">
<g id="graph0" class="graph" transform="scale(1 1) rotate(0) translate(4 51.5)">
<title>RTC::get_second</title>
<!-- Node17 -->
<g id="node1" class="node"><title>Node17</title>
<polygon fill="#bfbfbf" stroke="black" points="0,-28 0,-47 94,-47 94,-28 0,-28"/>
<text text-anchor="middle" x="47" y="-35" font-family="Helvetica,sans-Serif" font-size="10.00">RTC::get_second</text>
</g>
<!-- Node18 -->
<g id="node2" class="node"><title>Node18</title>
<g id="a_node2"><a xlink:href="main_8cpp.html#ae66f6b31b5ad750f1fe042a706a4e3d4" target="_top" xlink:title="main">
<polygon fill="none" stroke="black" points="300,-28 300,-47 338,-47 338,-28 300,-28"/>
<text text-anchor="middle" x="319" y="-35" font-family="Helvetica,sans-Serif" font-size="10.00">main</text>
</a>
</g>
</g>
<!-- Node17&#45;&gt;Node18 -->
<g id="edge1" class="edge"><title>Node17&#45;&gt;Node18</title>
<path fill="none" stroke="midnightblue" d="M104.638,-39.8426C113.137,-40.1157 121.798,-40.35 130,-40.5 189.546,-41.5889 204.467,-42.1524 264,-40.5 275.826,-40.1717 289.092,-39.4399 299.516,-38.7812"/>
<polygon fill="midnightblue" stroke="midnightblue" points="104.507,-36.3362 94.3934,-39.4933 104.268,-43.3321 104.507,-36.3362"/>
</g>
<!-- Node19 -->
<g id="node3" class="node"><title>Node19</title>
<g id="a_node3"><a xlink:href="class_f_s_m.html#a96c6ea489297a70669bef5d29b3d889c" target="_top" xlink:title="This method control if a new measure is needed. ">
<polygon fill="none" stroke="black" points="130,-0.5 130,-30.5 264,-30.5 264,-0.5 130,-0.5"/>
<text text-anchor="start" x="138" y="-18.5" font-family="Helvetica,sans-Serif" font-size="10.00">FSM::measurement_timing</text>
<text text-anchor="middle" x="197" y="-7.5" font-family="Helvetica,sans-Serif" font-size="10.00">_control</text>
</a>
</g>
</g>
<!-- Node17&#45;&gt;Node19 -->
<g id="edge2" class="edge"><title>Node17&#45;&gt;Node19</title>
<path fill="none" stroke="midnightblue" d="M104.105,-29.1601C112.535,-27.907 121.295,-26.6049 129.91,-25.3242"/>
<polygon fill="midnightblue" stroke="midnightblue" points="103.394,-25.7273 94.0168,-30.6597 104.423,-32.6512 103.394,-25.7273"/>
</g>
<!-- Node19&#45;&gt;Node18 -->
<g id="edge3" class="edge"><title>Node19&#45;&gt;Node18</title>
<path fill="none" stroke="midnightblue" d="M274.257,-29.4804C283.636,-31.2 292.443,-32.8145 299.66,-34.1377"/>
<polygon fill="midnightblue" stroke="midnightblue" points="274.785,-26.019 264.318,-27.6582 273.523,-32.9042 274.785,-26.019"/>
</g>
</g>
</svg>
