<?xml version="1.0" encoding="UTF-8" standalone="no"?>
<!DOCTYPE svg PUBLIC "-//W3C//DTD SVG 1.1//EN"
 "http://www.w3.org/Graphics/SVG/1.1/DTD/svg11.dtd">
<!-- Generated by graphviz version 2.38.0 (20140413.2041)
 -->
<!-- Title: Sensor::calc_average Pages: 1 -->
<svg width="704pt" height="103pt"
 viewBox="0.00 0.00 704.00 103.00" xmlns="http://www.w3.org/2000/svg" xmlns:xlink="http://www.w3.org/1999/xlink">
<g id="graph0" class="graph" transform="scale(1 1) rotate(0) translate(4 99)">
<title>Sensor::calc_average</title>
<!-- Node22 -->
<g id="node1" class="node"><title>Node22</title>
<polygon fill="#bfbfbf" stroke="black" points="0,-25.5 0,-44.5 111,-44.5 111,-25.5 0,-25.5"/>
<text text-anchor="middle" x="55.5" y="-32.5" font-family="Helvetica,sans-Serif" font-size="10.00">Sensor::calc_average</text>
</g>
<!-- Node23 -->
<g id="node2" class="node"><title>Node23</title>
<g id="a_node2"><a xlink:href="class_measure.html#a1518672dff4f81603a35bff08c20e9f5" target="_top" xlink:title="calcul average from the data array ">
<polygon fill="none" stroke="black" points="147,-75.5 147,-94.5 265,-94.5 265,-75.5 147,-75.5"/>
<text text-anchor="middle" x="206" y="-82.5" font-family="Helvetica,sans-Serif" font-size="10.00">Measure::calc_average</text>
</a>
</g>
</g>
<!-- Node22&#45;&gt;Node23 -->
<g id="edge1" class="edge"><title>Node22&#45;&gt;Node23</title>
<path fill="none" stroke="midnightblue" d="M94.5246,-47.8029C120.102,-56.4149 153.277,-67.5848 176.572,-75.4281"/>
<polygon fill="midnightblue" stroke="midnightblue" points="95.3753,-44.3963 84.7813,-44.5223 93.1416,-51.0304 95.3753,-44.3963"/>
</g>
<!-- Node25 -->
<g id="node4" class="node"><title>Node25</title>
<g id="a_node4"><a xlink:href="class_sensor.html#a4e88d49608387ab4f65734913e514109" target="_top" xlink:title="Sensor::is_enable">
<polygon fill="none" stroke="black" points="158.5,-25.5 158.5,-44.5 253.5,-44.5 253.5,-25.5 158.5,-25.5"/>
<text text-anchor="middle" x="206" y="-32.5" font-family="Helvetica,sans-Serif" font-size="10.00">Sensor::is_enable</text>
</a>
</g>
</g>
<!-- Node22&#45;&gt;Node25 -->
<g id="edge3" class="edge"><title>Node22&#45;&gt;Node25</title>
<path fill="none" stroke="midnightblue" d="M121.6,-28.2958C133.904,-28.1721 146.549,-28.299 158.155,-28.6765"/>
<polygon fill="midnightblue" stroke="midnightblue" points="121.317,-24.7997 111.374,-28.4586 121.428,-31.7988 121.317,-24.7997"/>
</g>
<!-- Node24 -->
<g id="node3" class="node"><title>Node24</title>
<g id="a_node3"><a xlink:href="class_measure.html#a754d2de10d1a44bb3b62ab162ceeaae2" target="_top" xlink:title="The execute method is the measure &quot;main function&quot; The execute function work as this scheme : ...">
<polygon fill="none" stroke="black" points="601,-66.5 601,-85.5 696,-85.5 696,-66.5 601,-66.5"/>
<text text-anchor="middle" x="648.5" y="-73.5" font-family="Helvetica,sans-Serif" font-size="10.00">Measure::execute</text>
</a>
</g>
</g>
<!-- Node23&#45;&gt;Node24 -->
<g id="edge2" class="edge"><title>Node23&#45;&gt;Node24</title>
<path fill="none" stroke="midnightblue" d="M275.591,-83.7543C347.655,-82.4231 464.298,-80.2051 565,-78 576.602,-77.7459 589.122,-77.4524 600.816,-77.1699"/>
<polygon fill="midnightblue" stroke="midnightblue" points="275.223,-80.2604 265.29,-83.9441 275.352,-87.2592 275.223,-80.2604"/>
</g>
<!-- Node25&#45;&gt;Node22 -->
<g id="edge7" class="edge"><title>Node25&#45;&gt;Node22</title>
<path fill="none" stroke="midnightblue" d="M147.83,-41.5887C135.858,-41.8185 123.26,-41.8028 111.374,-41.5414"/>
<polygon fill="midnightblue" stroke="midnightblue" points="148.249,-45.0792 158.155,-41.3235 148.069,-38.0815 148.249,-45.0792"/>
</g>
<!-- Node26 -->
<g id="node5" class="node"><title>Node26</title>
<g id="a_node5"><a xlink:href="class_anemometer.html#a9be3b4b392ef08ef29c769e6ce4bebf4" target="_top" xlink:title="Anemometer::read_value">
<polygon fill="none" stroke="black" points="301,-44.5 301,-63.5 426,-63.5 426,-44.5 301,-44.5"/>
<text text-anchor="middle" x="363.5" y="-51.5" font-family="Helvetica,sans-Serif" font-size="10.00">Anemometer::read_value</text>
</a>
</g>
</g>
<!-- Node25&#45;&gt;Node26 -->
<g id="edge4" class="edge"><title>Node25&#45;&gt;Node26</title>
<path fill="none" stroke="midnightblue" d="M263.632,-41.9197C275.751,-43.4004 288.611,-44.9717 300.906,-46.4741"/>
<polygon fill="midnightblue" stroke="midnightblue" points="264.006,-38.4394 253.655,-40.7006 263.157,-45.3877 264.006,-38.4394"/>
</g>
<!-- Node28 -->
<g id="node7" class="node"><title>Node28</title>
<g id="a_node7"><a xlink:href="class_sensor.html#a38a47820684e5ff0f61ad32b8afbde45" target="_top" xlink:title="The print_average method print the average&#39;s value in the string. ">
<polygon fill="none" stroke="black" points="307.5,-6.5 307.5,-25.5 419.5,-25.5 419.5,-6.5 307.5,-6.5"/>
<text text-anchor="middle" x="363.5" y="-13.5" font-family="Helvetica,sans-Serif" font-size="10.00">Sensor::print_average</text>
</a>
</g>
</g>
<!-- Node25&#45;&gt;Node28 -->
<g id="edge8" class="edge"><title>Node25&#45;&gt;Node28</title>
<path fill="none" stroke="midnightblue" d="M249.091,-23.7824C267.025,-20.8615 288.19,-18.137 307.35,-16.2487"/>
<polygon fill="midnightblue" stroke="midnightblue" points="248.487,-20.3348 239.22,-25.4705 249.667,-27.2347 248.487,-20.3348"/>
</g>
<!-- Node27 -->
<g id="node6" class="node"><title>Node27</title>
<g id="a_node6"><a xlink:href="class_measure.html#a4390d770b19dbc51e5486fefe9f4b9d1" target="_top" xlink:title="read value from anemometer and RPM ">
<polygon fill="none" stroke="black" points="463,-39 463,-69 564,-69 564,-39 463,-39"/>
<text text-anchor="start" x="471" y="-57" font-family="Helvetica,sans-Serif" font-size="10.00">Measure::freq_read</text>
<text text-anchor="middle" x="513.5" y="-46" font-family="Helvetica,sans-Serif" font-size="10.00">_value</text>
</a>
</g>
</g>
<!-- Node26&#45;&gt;Node27 -->
<g id="edge5" class="edge"><title>Node26&#45;&gt;Node27</title>
<path fill="none" stroke="midnightblue" d="M436.487,-54C445.455,-54 454.461,-54 462.98,-54"/>
<polygon fill="midnightblue" stroke="midnightblue" points="436.408,-50.5001 426.408,-54 436.408,-57.5001 436.408,-50.5001"/>
</g>
<!-- Node27&#45;&gt;Node24 -->
<g id="edge6" class="edge"><title>Node27&#45;&gt;Node24</title>
<path fill="none" stroke="midnightblue" d="M573.981,-63.8389C582.894,-65.3132 591.977,-66.8157 600.58,-68.2388"/>
<polygon fill="midnightblue" stroke="midnightblue" points="574.461,-60.371 564.024,-62.192 573.319,-67.2771 574.461,-60.371"/>
</g>
<!-- Node28&#45;&gt;Node25 -->
<g id="edge9" class="edge"><title>Node28&#45;&gt;Node25</title>
<path fill="none" stroke="midnightblue" d="M320.147,-27.2603C299.566,-30.6043 274.777,-33.6864 253.655,-35.5447"/>
<polygon fill="midnightblue" stroke="midnightblue" points="320.912,-30.6804 330.18,-25.5476 319.734,-23.7802 320.912,-30.6804"/>
</g>
<!-- Node29 -->
<g id="node8" class="node"><title>Node29</title>
<g id="a_node8"><a xlink:href="class_output.html#af4bc42d2d3bb3b2a98782f0df0eba133" target="_top" xlink:title="Output::usart0_print">
<polygon fill="none" stroke="black" points="462,-0.5 462,-19.5 565,-19.5 565,-0.5 462,-0.5"/>
<text text-anchor="middle" x="513.5" y="-7.5" font-family="Helvetica,sans-Serif" font-size="10.00">Output::usart0_print</text>
</a>
</g>
</g>
<!-- Node28&#45;&gt;Node29 -->
<g id="edge10" class="edge"><title>Node28&#45;&gt;Node29</title>
<path fill="none" stroke="midnightblue" d="M429.777,-13.3536C440.492,-12.9193 451.454,-12.4748 461.748,-12.0575"/>
<polygon fill="midnightblue" stroke="midnightblue" points="429.46,-9.86353 419.61,-13.7658 429.743,-16.8578 429.46,-9.86353"/>
</g>
<!-- Node30 -->
<g id="node9" class="node"><title>Node30</title>
<g id="a_node9"><a xlink:href="class_output.html#a087f4330e641bb4682ab2862bca7a1af" target="_top" xlink:title="Output::execute">
<polygon fill="none" stroke="black" points="605.5,-0.5 605.5,-19.5 691.5,-19.5 691.5,-0.5 605.5,-0.5"/>
<text text-anchor="middle" x="648.5" y="-7.5" font-family="Helvetica,sans-Serif" font-size="10.00">Output::execute</text>
</a>
</g>
</g>
<!-- Node29&#45;&gt;Node30 -->
<g id="edge11" class="edge"><title>Node29&#45;&gt;Node30</title>
<path fill="none" stroke="midnightblue" d="M575.202,-10C585.339,-10 595.657,-10 605.204,-10"/>
<polygon fill="midnightblue" stroke="midnightblue" points="575.161,-6.5001 565.161,-10 575.161,-13.5001 575.161,-6.5001"/>
</g>
</g>
</svg>
