<?xml version="1.0" encoding="UTF-8" standalone="no"?>
<!DOCTYPE svg PUBLIC "-//W3C//DTD SVG 1.1//EN"
 "http://www.w3.org/Graphics/SVG/1.1/DTD/svg11.dtd">
<!-- Generated by graphviz version 2.38.0 (20140413.2041)
 -->
<!-- Title: Sensor::adc_value Pages: 1 -->
<svg width="552pt" height="28pt"
 viewBox="0.00 0.00 552.00 28.00" xmlns="http://www.w3.org/2000/svg" xmlns:xlink="http://www.w3.org/1999/xlink">
<g id="graph0" class="graph" transform="scale(1 1) rotate(0) translate(4 24)">
<title>Sensor::adc_value</title>
<!-- Node6 -->
<g id="node1" class="node"><title>Node6</title>
<polygon fill="#bfbfbf" stroke="black" points="0,-0.5 0,-19.5 98,-19.5 98,-0.5 0,-0.5"/>
<text text-anchor="middle" x="49" y="-7.5" font-family="Helvetica,sans-Serif" font-size="10.00">Sensor::adc_value</text>
</g>
<!-- Node7 -->
<g id="node2" class="node"><title>Node7</title>
<g id="a_node2"><a xlink:href="class_windvane.html#ae61d5d71151e53c900b2f10b5f7a9d67" target="_top" xlink:title="Windvane::read_value">
<polygon fill="none" stroke="black" points="134,-0.5 134,-19.5 247,-19.5 247,-0.5 134,-0.5"/>
<text text-anchor="middle" x="190.5" y="-7.5" font-family="Helvetica,sans-Serif" font-size="10.00">Windvane::read_value</text>
</a>
</g>
</g>
<!-- Node6&#45;&gt;Node7 -->
<g id="edge1" class="edge"><title>Node6&#45;&gt;Node7</title>
<path fill="none" stroke="midnightblue" d="M108.172,-10C116.627,-10 125.317,-10 133.724,-10"/>
<polygon fill="midnightblue" stroke="midnightblue" points="108.008,-6.5001 98.008,-10 108.008,-13.5001 108.008,-6.5001"/>
</g>
<!-- Node8 -->
<g id="node3" class="node"><title>Node8</title>
<g id="a_node3"><a xlink:href="class_measure.html#add6924662bc09f06abc3ec7b6dc2c94e" target="_top" xlink:title="read the windvane value en map it between 0 to 359 degres ">
<polygon fill="none" stroke="black" points="283,-0.5 283,-19.5 413,-19.5 413,-0.5 283,-0.5"/>
<text text-anchor="middle" x="348" y="-7.5" font-family="Helvetica,sans-Serif" font-size="10.00">Measure::windvane_value</text>
</a>
</g>
</g>
<!-- Node7&#45;&gt;Node8 -->
<g id="edge2" class="edge"><title>Node7&#45;&gt;Node8</title>
<path fill="none" stroke="midnightblue" d="M257.402,-10C265.866,-10 274.523,-10 282.957,-10"/>
<polygon fill="midnightblue" stroke="midnightblue" points="257.2,-6.5001 247.2,-10 257.2,-13.5001 257.2,-6.5001"/>
</g>
<!-- Node9 -->
<g id="node4" class="node"><title>Node9</title>
<g id="a_node4"><a xlink:href="class_measure.html#a754d2de10d1a44bb3b62ab162ceeaae2" target="_top" xlink:title="The execute method is the measure &quot;main function&quot; The execute function work as this scheme : ...">
<polygon fill="none" stroke="black" points="449,-0.5 449,-19.5 544,-19.5 544,-0.5 449,-0.5"/>
<text text-anchor="middle" x="496.5" y="-7.5" font-family="Helvetica,sans-Serif" font-size="10.00">Measure::execute</text>
</a>
</g>
</g>
<!-- Node8&#45;&gt;Node9 -->
<g id="edge3" class="edge"><title>Node8&#45;&gt;Node9</title>
<path fill="none" stroke="midnightblue" d="M423.425,-10C432.102,-10 440.758,-10 448.904,-10"/>
<polygon fill="midnightblue" stroke="midnightblue" points="423.257,-6.5001 413.257,-10 423.257,-13.5001 423.257,-6.5001"/>
</g>
</g>
</svg>
