<?xml version="1.0" encoding="UTF-8" standalone="no"?>
<!DOCTYPE svg PUBLIC "-//W3C//DTD SVG 1.1//EN"
 "http://www.w3.org/Graphics/SVG/1.1/DTD/svg11.dtd">
<!-- Generated by graphviz version 2.38.0 (20140413.2041)
 -->
<!-- Title: Config::load_logger Pages: 1 -->
<svg width="606pt" height="91pt"
 viewBox="0.00 0.00 606.00 90.77" xmlns="http://www.w3.org/2000/svg" xmlns:xlink="http://www.w3.org/1999/xlink">
<g id="graph0" class="graph" transform="scale(1 1) rotate(0) translate(4 86.7742)">
<title>Config::load_logger</title>
<!-- Node103 -->
<g id="node1" class="node"><title>Node103</title>
<polygon fill="#bfbfbf" stroke="black" points="0,-28 0,-47 101,-47 101,-28 0,-28"/>
<text text-anchor="middle" x="50.5" y="-35" font-family="Helvetica,sans-Serif" font-size="10.00">Config::load_logger</text>
</g>
<!-- Node104 -->
<g id="node2" class="node"><title>Node104</title>
<g id="a_node2"><a xlink:href="class_config.html#a5ae6c4f7255e895e7384fc2a4baab160" target="_top" xlink:title="Config::endString">
<polygon fill="none" stroke="black" points="259,-47 259,-66 351,-66 351,-47 259,-47"/>
<text text-anchor="middle" x="305" y="-54" font-family="Helvetica,sans-Serif" font-size="10.00">Config::endString</text>
</a>
</g>
</g>
<!-- Node103&#45;&gt;Node104 -->
<g id="edge1" class="edge"><title>Node103&#45;&gt;Node104</title>
<path fill="none" stroke="midnightblue" d="M75.1561,-52.4067C91.7565,-61.9543 114.859,-73.4658 137,-78.5 185.477,-89.5222 243.214,-76.204 276.535,-66.0119"/>
<polygon fill="midnightblue" stroke="midnightblue" points="76.574,-49.1779 66.1898,-47.076 72.9968,-55.1949 76.574,-49.1779"/>
</g>
<!-- Node107 -->
<g id="node5" class="node"><title>Node107</title>
<g id="a_node5"><a xlink:href="class_f_s_m.html#a2fccf1c016c43e4fa4ee512311bf9d7d" target="_top" xlink:title="Class constructor. ">
<polygon fill="none" stroke="black" points="147.5,-50 147.5,-69 212.5,-69 212.5,-50 147.5,-50"/>
<text text-anchor="middle" x="180" y="-57" font-family="Helvetica,sans-Serif" font-size="10.00">FSM::FSM</text>
</a>
</g>
</g>
<!-- Node103&#45;&gt;Node107 -->
<g id="edge4" class="edge"><title>Node103&#45;&gt;Node107</title>
<path fill="none" stroke="midnightblue" d="M111.102,-47.7843C123.603,-49.9413 136.317,-52.1352 147.312,-54.0322"/>
<polygon fill="midnightblue" stroke="midnightblue" points="111.609,-44.3202 101.16,-46.0688 110.419,-51.2182 111.609,-44.3202"/>
</g>
<!-- Node108 -->
<g id="node6" class="node"><title>Node108</title>
<g id="a_node6"><a xlink:href="class_config.html#ad634dbd3d1afb02eac176fd4f0150614" target="_top" xlink:title="Initialize the eeprom memory. ">
<polygon fill="none" stroke="black" points="137,-0.5 137,-30.5 223,-30.5 223,-0.5 137,-0.5"/>
<text text-anchor="start" x="145" y="-18.5" font-family="Helvetica,sans-Serif" font-size="10.00">Config::initialize</text>
<text text-anchor="middle" x="180" y="-7.5" font-family="Helvetica,sans-Serif" font-size="10.00">_logger</text>
</a>
</g>
</g>
<!-- Node103&#45;&gt;Node108 -->
<g id="edge5" class="edge"><title>Node103&#45;&gt;Node108</title>
<path fill="none" stroke="midnightblue" d="M85.3445,-25.6191C101.133,-22.0878 120.085,-18.6997 136.797,-16.3871"/>
<polygon fill="midnightblue" stroke="midnightblue" points="84.4084,-22.2439 75.4818,-27.9505 86.0188,-29.0561 84.4084,-22.2439"/>
</g>
<!-- Node105 -->
<g id="node3" class="node"><title>Node105</title>
<g id="a_node3"><a xlink:href="class_f_s_m.html#a3819be8e9fe92b750f47b9731e92f254" target="_top" xlink:title="Call when a string from usart0 finish by &quot;\r\n&quot;. ">
<polygon fill="none" stroke="black" points="387,-47 387,-66 524,-66 524,-47 387,-47"/>
<text text-anchor="middle" x="455.5" y="-54" font-family="Helvetica,sans-Serif" font-size="10.00">FSM::character_processing</text>
</a>
</g>
</g>
<!-- Node104&#45;&gt;Node105 -->
<g id="edge2" class="edge"><title>Node104&#45;&gt;Node105</title>
<path fill="none" stroke="midnightblue" d="M361.633,-56.5C369.908,-56.5 378.513,-56.5 386.999,-56.5"/>
<polygon fill="midnightblue" stroke="midnightblue" points="361.362,-53.0001 351.362,-56.5 361.362,-60.0001 361.362,-53.0001"/>
</g>
<!-- Node106 -->
<g id="node4" class="node"><title>Node106</title>
<g id="a_node4"><a xlink:href="main_8cpp.html#ae66f6b31b5ad750f1fe042a706a4e3d4" target="_top" xlink:title="main">
<polygon fill="none" stroke="black" points="560,-47 560,-66 598,-66 598,-47 560,-47"/>
<text text-anchor="middle" x="579" y="-54" font-family="Helvetica,sans-Serif" font-size="10.00">main</text>
</a>
</g>
</g>
<!-- Node105&#45;&gt;Node106 -->
<g id="edge3" class="edge"><title>Node105&#45;&gt;Node106</title>
<path fill="none" stroke="midnightblue" d="M534.013,-56.5C543.457,-56.5 552.315,-56.5 559.572,-56.5"/>
<polygon fill="midnightblue" stroke="midnightblue" points="534.001,-53.0001 524.001,-56.5 534.001,-60.0001 534.001,-53.0001"/>
</g>
<!-- Node108&#45;&gt;Node103 -->
<g id="edge7" class="edge"><title>Node108&#45;&gt;Node103</title>
<path fill="none" stroke="midnightblue" d="M126.897,-31.1392C118.393,-32.7557 109.603,-34.2566 101.16,-35.5325"/>
<polygon fill="midnightblue" stroke="midnightblue" points="127.581,-34.5717 136.71,-29.1949 126.221,-27.7052 127.581,-34.5717"/>
</g>
<!-- Node108&#45;&gt;Node104 -->
<g id="edge6" class="edge"><title>Node108&#45;&gt;Node104</title>
<path fill="none" stroke="midnightblue" d="M233.137,-32.879C247.523,-37.6742 262.608,-42.7027 275.145,-46.8817"/>
<polygon fill="midnightblue" stroke="midnightblue" points="233.923,-29.4518 223.33,-29.6099 231.71,-36.0926 233.923,-29.4518"/>
</g>
</g>
</svg>
