<?xml version="1.0" encoding="UTF-8" standalone="no"?>
<!DOCTYPE svg PUBLIC "-//W3C//DTD SVG 1.1//EN"
 "http://www.w3.org/Graphics/SVG/1.1/DTD/svg11.dtd">
<!-- Generated by graphviz version 2.38.0 (20140413.2041)
 -->
<!-- Title: Power::print_average Pages: 1 -->
<svg width="386pt" height="66pt"
 viewBox="0.00 0.00 386.00 66.00" xmlns="http://www.w3.org/2000/svg" xmlns:xlink="http://www.w3.org/1999/xlink">
<g id="graph0" class="graph" transform="scale(1 1) rotate(0) translate(4 62)">
<title>Power::print_average</title>
<!-- Node38 -->
<g id="node1" class="node"><title>Node38</title>
<polygon fill="#bfbfbf" stroke="black" points="0,-19.5 0,-38.5 109,-38.5 109,-19.5 0,-19.5"/>
<text text-anchor="middle" x="54.5" y="-26.5" font-family="Helvetica,sans-Serif" font-size="10.00">Power::print_average</text>
</g>
<!-- Node39 -->
<g id="node2" class="node"><title>Node39</title>
<g id="a_node2"><a xlink:href="class_power.html#a1e7595ee0b3b0439d979ffeab785d0d8" target="_top" xlink:title="Power::set_i_offset">
<polygon fill="none" stroke="black" points="150,-38.5 150,-57.5 251,-57.5 251,-38.5 150,-38.5"/>
<text text-anchor="middle" x="200.5" y="-45.5" font-family="Helvetica,sans-Serif" font-size="10.00">Power::set_i_offset</text>
</a>
</g>
</g>
<!-- Node38&#45;&gt;Node39 -->
<g id="edge1" class="edge"><title>Node38&#45;&gt;Node39</title>
<path fill="none" stroke="midnightblue" d="M119.212,-37.4065C129.41,-38.752 139.833,-40.1272 149.647,-41.4222"/>
<polygon fill="midnightblue" stroke="midnightblue" points="119.492,-33.9132 109.12,-36.0749 118.576,-40.853 119.492,-33.9132"/>
</g>
<!-- Node41 -->
<g id="node4" class="node"><title>Node41</title>
<g id="a_node4"><a xlink:href="classpower_d_c.html#aedca6b1fc36cfddd8876fadb387debe1" target="_top" xlink:title="powerDC::~powerDC">
<polygon fill="none" stroke="black" points="145,-0.5 145,-19.5 256,-19.5 256,-0.5 145,-0.5"/>
<text text-anchor="middle" x="200.5" y="-7.5" font-family="Helvetica,sans-Serif" font-size="10.00">powerDC::~powerDC</text>
</a>
</g>
</g>
<!-- Node38&#45;&gt;Node41 -->
<g id="edge3" class="edge"><title>Node38&#45;&gt;Node41</title>
<path fill="none" stroke="midnightblue" d="M119.105,-20.6077C127.699,-19.4737 136.455,-18.3185 144.874,-17.2076"/>
<polygon fill="midnightblue" stroke="midnightblue" points="118.576,-17.147 109.12,-21.9251 119.492,-24.0868 118.576,-17.147"/>
</g>
<!-- Node40 -->
<g id="node3" class="node"><title>Node40</title>
<g id="a_node3"><a xlink:href="class_config.html#a2a806f322b0d533aabdb8e796d3b1033" target="_top" xlink:title="The execute method is the config &quot;main function&quot; In this method, sentence from the uart are process e...">
<polygon fill="none" stroke="black" points="292,-38.5 292,-57.5 378,-57.5 378,-38.5 292,-38.5"/>
<text text-anchor="middle" x="335" y="-45.5" font-family="Helvetica,sans-Serif" font-size="10.00">Config::execute</text>
</a>
</g>
</g>
<!-- Node39&#45;&gt;Node40 -->
<g id="edge2" class="edge"><title>Node39&#45;&gt;Node40</title>
<path fill="none" stroke="midnightblue" d="M261.381,-48C271.653,-48 282.132,-48 291.816,-48"/>
<polygon fill="midnightblue" stroke="midnightblue" points="261.215,-44.5001 251.215,-48 261.215,-51.5001 261.215,-44.5001"/>
</g>
</g>
</svg>
