<?xml version="1.0" encoding="UTF-8" standalone="no"?>
<!DOCTYPE svg PUBLIC "-//W3C//DTD SVG 1.1//EN"
 "http://www.w3.org/Graphics/SVG/1.1/DTD/svg11.dtd">
<!-- Generated by graphviz version 2.38.0 (20140413.2041)
 -->
<!-- Title: State::print Pages: 1 -->
<svg width="261pt" height="28pt"
 viewBox="0.00 0.00 261.00 28.00" xmlns="http://www.w3.org/2000/svg" xmlns:xlink="http://www.w3.org/1999/xlink">
<g id="graph0" class="graph" transform="scale(1 1) rotate(0) translate(4 24)">
<title>State::print</title>
<!-- Node9 -->
<g id="node1" class="node"><title>Node9</title>
<polygon fill="#bfbfbf" stroke="black" points="0,-0.5 0,-19.5 65,-19.5 65,-0.5 0,-0.5"/>
<text text-anchor="middle" x="32.5" y="-7.5" font-family="Helvetica,sans-Serif" font-size="10.00">State::print</text>
</g>
<!-- Node10 -->
<g id="node2" class="node"><title>Node10</title>
<g id="a_node2"><a xlink:href="class_f_s_m.html#a8a6e956375ea383f83fdd076badbe5a7" target="_top" xlink:title="This method execute the next state. ">
<polygon fill="none" stroke="black" points="101,-0.5 101,-19.5 179,-19.5 179,-0.5 101,-0.5"/>
<text text-anchor="middle" x="140" y="-7.5" font-family="Helvetica,sans-Serif" font-size="10.00">FSM::execute</text>
</a>
</g>
</g>
<!-- Node9&#45;&gt;Node10 -->
<g id="edge1" class="edge"><title>Node9&#45;&gt;Node10</title>
<path fill="none" stroke="midnightblue" d="M75.1556,-10C83.5659,-10 92.3702,-10 100.66,-10"/>
<polygon fill="midnightblue" stroke="midnightblue" points="75.1535,-6.5001 65.1535,-10 75.1534,-13.5001 75.1535,-6.5001"/>
</g>
<!-- Node11 -->
<g id="node3" class="node"><title>Node11</title>
<g id="a_node3"><a xlink:href="main_8cpp.html#ae66f6b31b5ad750f1fe042a706a4e3d4" target="_top" xlink:title="main">
<polygon fill="none" stroke="black" points="215,-0.5 215,-19.5 253,-19.5 253,-0.5 215,-0.5"/>
<text text-anchor="middle" x="234" y="-7.5" font-family="Helvetica,sans-Serif" font-size="10.00">main</text>
</a>
</g>
</g>
<!-- Node10&#45;&gt;Node11 -->
<g id="edge2" class="edge"><title>Node10&#45;&gt;Node11</title>
<path fill="none" stroke="midnightblue" d="M189.357,-10C198.358,-10 207.238,-10 214.614,-10"/>
<polygon fill="midnightblue" stroke="midnightblue" points="189.217,-6.5001 179.217,-10 189.217,-13.5001 189.217,-6.5001"/>
</g>
</g>
</svg>
