<?xml version="1.0" encoding="UTF-8" standalone="no"?>
<!DOCTYPE svg PUBLIC "-//W3C//DTD SVG 1.1//EN"
 "http://www.w3.org/Graphics/SVG/1.1/DTD/svg11.dtd">
<!-- Generated by graphviz version 2.38.0 (20140413.2041)
 -->
<!-- Title: Sensor::print_data_array Pages: 1 -->
<svg width="681pt" height="116pt"
 viewBox="0.00 0.00 681.00 115.50" xmlns="http://www.w3.org/2000/svg" xmlns:xlink="http://www.w3.org/1999/xlink">
<g id="graph0" class="graph" transform="scale(1 1) rotate(0) translate(4 111.5)">
<title>Sensor::print_data_array</title>
<!-- Node135 -->
<g id="node1" class="node"><title>Node135</title>
<polygon fill="#bfbfbf" stroke="black" points="0,-33 0,-63 96,-63 96,-33 0,-33"/>
<text text-anchor="start" x="8" y="-51" font-family="Helvetica,sans-Serif" font-size="10.00">Sensor::print_data</text>
<text text-anchor="middle" x="48" y="-40" font-family="Helvetica,sans-Serif" font-size="10.00">_array</text>
</g>
<!-- Node136 -->
<g id="node2" class="node"><title>Node136</title>
<g id="a_node2"><a xlink:href="class_sensor.html#a4e88d49608387ab4f65734913e514109" target="_top" xlink:title="Sensor::is_enable">
<polygon fill="none" stroke="black" points="132,-38.5 132,-57.5 227,-57.5 227,-38.5 132,-38.5"/>
<text text-anchor="middle" x="179.5" y="-45.5" font-family="Helvetica,sans-Serif" font-size="10.00">Sensor::is_enable</text>
</a>
</g>
</g>
<!-- Node135&#45;&gt;Node136 -->
<g id="edge1" class="edge"><title>Node135&#45;&gt;Node136</title>
<path fill="none" stroke="midnightblue" d="M106.317,-48C114.78,-48 123.415,-48 131.633,-48"/>
<polygon fill="midnightblue" stroke="midnightblue" points="106.119,-44.5001 96.1188,-48 106.119,-51.5001 106.119,-44.5001"/>
</g>
<!-- Node137 -->
<g id="node3" class="node"><title>Node137</title>
<g id="a_node3"><a xlink:href="class_sensor.html#ae16fd0cbdda6cfed1deac36f5c7c0a8f" target="_top" xlink:title="This method calculate the average from the data array. ">
<polygon fill="none" stroke="black" points="270,-38.5 270,-57.5 381,-57.5 381,-38.5 270,-38.5"/>
<text text-anchor="middle" x="325.5" y="-45.5" font-family="Helvetica,sans-Serif" font-size="10.00">Sensor::calc_average</text>
</a>
</g>
</g>
<!-- Node136&#45;&gt;Node137 -->
<g id="edge2" class="edge"><title>Node136&#45;&gt;Node137</title>
<path fill="none" stroke="midnightblue" d="M237.368,-41.3843C248.103,-41.1912 259.307,-41.2063 269.968,-41.4298"/>
<polygon fill="midnightblue" stroke="midnightblue" points="237.163,-37.8882 227.253,-41.6333 237.336,-44.886 237.163,-37.8882"/>
</g>
<!-- Node140 -->
<g id="node6" class="node"><title>Node140</title>
<g id="a_node6"><a xlink:href="class_sensor.html#a38a47820684e5ff0f61ad32b8afbde45" target="_top" xlink:title="The print_average method print the average&#39;s value in the string. ">
<polygon fill="none" stroke="black" points="269.5,-0.5 269.5,-19.5 381.5,-19.5 381.5,-0.5 269.5,-0.5"/>
<text text-anchor="middle" x="325.5" y="-7.5" font-family="Helvetica,sans-Serif" font-size="10.00">Sensor::print_average</text>
</a>
</g>
</g>
<!-- Node136&#45;&gt;Node140 -->
<g id="edge6" class="edge"><title>Node136&#45;&gt;Node140</title>
<path fill="none" stroke="midnightblue" d="M208.527,-35.1283C225.829,-29.404 248.622,-23.0205 269.419,-17.9536"/>
<polygon fill="midnightblue" stroke="midnightblue" points="207.341,-31.8352 199.031,-38.4076 209.625,-38.4518 207.341,-31.8352"/>
</g>
<!-- Node143 -->
<g id="node9" class="node"><title>Node143</title>
<g id="a_node9"><a xlink:href="class_anemometer.html#a9be3b4b392ef08ef29c769e6ce4bebf4" target="_top" xlink:title="Anemometer::read_value">
<polygon fill="none" stroke="black" points="263,-79.5 263,-98.5 388,-98.5 388,-79.5 263,-79.5"/>
<text text-anchor="middle" x="325.5" y="-86.5" font-family="Helvetica,sans-Serif" font-size="10.00">Anemometer::read_value</text>
</a>
</g>
</g>
<!-- Node136&#45;&gt;Node143 -->
<g id="edge10" class="edge"><title>Node136&#45;&gt;Node143</title>
<path fill="none" stroke="midnightblue" d="M223.792,-60.3263C245.348,-66.4637 271.01,-73.7701 291.034,-79.4714"/>
<polygon fill="midnightblue" stroke="midnightblue" points="224.475,-56.8815 213.898,-57.5093 222.558,-63.614 224.475,-56.8815"/>
</g>
<!-- Node137&#45;&gt;Node136 -->
<g id="edge5" class="edge"><title>Node137&#45;&gt;Node136</title>
<path fill="none" stroke="midnightblue" d="M259.951,-54.7178C248.938,-54.8133 237.69,-54.6963 227.253,-54.3667"/>
<polygon fill="midnightblue" stroke="midnightblue" points="260.021,-58.2172 269.968,-54.5702 259.918,-51.218 260.021,-58.2172"/>
</g>
<!-- Node138 -->
<g id="node4" class="node"><title>Node138</title>
<g id="a_node4"><a xlink:href="class_measure.html#a1518672dff4f81603a35bff08c20e9f5" target="_top" xlink:title="calcul average from the data array ">
<polygon fill="none" stroke="black" points="424,-38.5 424,-57.5 542,-57.5 542,-38.5 424,-38.5"/>
<text text-anchor="middle" x="483" y="-45.5" font-family="Helvetica,sans-Serif" font-size="10.00">Measure::calc_average</text>
</a>
</g>
</g>
<!-- Node137&#45;&gt;Node138 -->
<g id="edge3" class="edge"><title>Node137&#45;&gt;Node138</title>
<path fill="none" stroke="midnightblue" d="M391.52,-48C402.291,-48 413.398,-48 423.982,-48"/>
<polygon fill="midnightblue" stroke="midnightblue" points="391.324,-44.5001 381.323,-48 391.323,-51.5001 391.324,-44.5001"/>
</g>
<!-- Node139 -->
<g id="node5" class="node"><title>Node139</title>
<g id="a_node5"><a xlink:href="class_measure.html#a754d2de10d1a44bb3b62ab162ceeaae2" target="_top" xlink:title="The execute method is the measure &quot;main function&quot; The execute function work as this scheme : ...">
<polygon fill="none" stroke="black" points="578,-60.5 578,-79.5 673,-79.5 673,-60.5 578,-60.5"/>
<text text-anchor="middle" x="625.5" y="-67.5" font-family="Helvetica,sans-Serif" font-size="10.00">Measure::execute</text>
</a>
</g>
</g>
<!-- Node138&#45;&gt;Node139 -->
<g id="edge4" class="edge"><title>Node138&#45;&gt;Node139</title>
<path fill="none" stroke="midnightblue" d="M552.366,-58.705C560.927,-60.0455 569.525,-61.3918 577.651,-62.6643"/>
<polygon fill="midnightblue" stroke="midnightblue" points="552.785,-55.2281 542.364,-57.1389 551.702,-62.1438 552.785,-55.2281"/>
</g>
<!-- Node140&#45;&gt;Node136 -->
<g id="edge7" class="edge"><title>Node140&#45;&gt;Node136</title>
<path fill="none" stroke="midnightblue" d="M296.352,-22.9116C276.716,-29.402 250.051,-36.733 227.253,-42.0292"/>
<polygon fill="midnightblue" stroke="midnightblue" points="297.611,-26.1799 305.922,-19.6094 295.327,-19.5628 297.611,-26.1799"/>
</g>
<!-- Node141 -->
<g id="node7" class="node"><title>Node141</title>
<g id="a_node7"><a xlink:href="class_output.html#af4bc42d2d3bb3b2a98782f0df0eba133" target="_top" xlink:title="Output::usart0_print">
<polygon fill="none" stroke="black" points="431.5,-0.5 431.5,-19.5 534.5,-19.5 534.5,-0.5 431.5,-0.5"/>
<text text-anchor="middle" x="483" y="-7.5" font-family="Helvetica,sans-Serif" font-size="10.00">Output::usart0_print</text>
</a>
</g>
</g>
<!-- Node140&#45;&gt;Node141 -->
<g id="edge8" class="edge"><title>Node140&#45;&gt;Node141</title>
<path fill="none" stroke="midnightblue" d="M392.141,-10C405.245,-10 418.82,-10 431.327,-10"/>
<polygon fill="midnightblue" stroke="midnightblue" points="391.761,-6.5001 381.761,-10 391.761,-13.5001 391.761,-6.5001"/>
</g>
<!-- Node142 -->
<g id="node8" class="node"><title>Node142</title>
<g id="a_node8"><a xlink:href="class_output.html#a087f4330e641bb4682ab2862bca7a1af" target="_top" xlink:title="Output::execute">
<polygon fill="none" stroke="black" points="582.5,-0.5 582.5,-19.5 668.5,-19.5 668.5,-0.5 582.5,-0.5"/>
<text text-anchor="middle" x="625.5" y="-7.5" font-family="Helvetica,sans-Serif" font-size="10.00">Output::execute</text>
</a>
</g>
</g>
<!-- Node141&#45;&gt;Node142 -->
<g id="edge9" class="edge"><title>Node141&#45;&gt;Node142</title>
<path fill="none" stroke="midnightblue" d="M544.726,-10C557.349,-10 570.391,-10 582.179,-10"/>
<polygon fill="midnightblue" stroke="midnightblue" points="544.724,-6.5001 534.724,-10 544.724,-13.5001 544.724,-6.5001"/>
</g>
<!-- Node144 -->
<g id="node10" class="node"><title>Node144</title>
<g id="a_node10"><a xlink:href="class_measure.html#a4390d770b19dbc51e5486fefe9f4b9d1" target="_top" xlink:title="read value from anemometer and RPM ">
<polygon fill="none" stroke="black" points="432.5,-77 432.5,-107 533.5,-107 533.5,-77 432.5,-77"/>
<text text-anchor="start" x="440.5" y="-95" font-family="Helvetica,sans-Serif" font-size="10.00">Measure::freq_read</text>
<text text-anchor="middle" x="483" y="-84" font-family="Helvetica,sans-Serif" font-size="10.00">_value</text>
</a>
</g>
</g>
<!-- Node143&#45;&gt;Node144 -->
<g id="edge11" class="edge"><title>Node143&#45;&gt;Node144</title>
<path fill="none" stroke="midnightblue" d="M398.747,-90.3938C410.088,-90.6126 421.585,-90.8344 432.268,-91.0405"/>
<polygon fill="midnightblue" stroke="midnightblue" points="398.47,-86.8879 388.405,-90.1943 398.335,-93.8866 398.47,-86.8879"/>
</g>
<!-- Node144&#45;&gt;Node139 -->
<g id="edge12" class="edge"><title>Node144&#45;&gt;Node139</title>
<path fill="none" stroke="midnightblue" d="M543.472,-82.6876C554.931,-80.8933 566.782,-79.0377 577.766,-77.3178"/>
<polygon fill="midnightblue" stroke="midnightblue" points="542.873,-79.2387 533.535,-84.2436 543.956,-86.1544 542.873,-79.2387"/>
</g>
</g>
</svg>
