<?xml version="1.0" encoding="UTF-8" standalone="no"?>
<!DOCTYPE svg PUBLIC "-//W3C//DTD SVG 1.1//EN"
 "http://www.w3.org/Graphics/SVG/1.1/DTD/svg11.dtd">
<!-- Generated by graphviz version 2.38.0 (20140413.2041)
 -->
<!-- Title: Power::print Pages: 1 -->
<svg width="736pt" height="104pt"
 viewBox="0.00 0.00 736.00 104.00" xmlns="http://www.w3.org/2000/svg" xmlns:xlink="http://www.w3.org/1999/xlink">
<g id="graph0" class="graph" transform="scale(1 1) rotate(0) translate(4 100)">
<title>Power::print</title>
<!-- Node28 -->
<g id="node1" class="node"><title>Node28</title>
<polygon fill="#bfbfbf" stroke="black" points="0,-38.5 0,-57.5 69,-57.5 69,-38.5 0,-38.5"/>
<text text-anchor="middle" x="34.5" y="-45.5" font-family="Helvetica,sans-Serif" font-size="10.00">Power::print</text>
</g>
<!-- Node29 -->
<g id="node2" class="node"><title>Node29</title>
<g id="a_node2"><a xlink:href="class_power.html#afd1c8cab1d4549eb45be61bdd34ae97d" target="_top" xlink:title="This method print the configuration for the power measurement. It&#39;s a good idea to overload this func...">
<polygon fill="none" stroke="black" points="105,-38.5 105,-57.5 206,-57.5 206,-38.5 105,-38.5"/>
<text text-anchor="middle" x="155.5" y="-45.5" font-family="Helvetica,sans-Serif" font-size="10.00">Power::print_config</text>
</a>
</g>
</g>
<!-- Node28&#45;&gt;Node29 -->
<g id="edge1" class="edge"><title>Node28&#45;&gt;Node29</title>
<path fill="none" stroke="midnightblue" d="M79.4058,-48C87.619,-48 96.2588,-48 104.637,-48"/>
<polygon fill="midnightblue" stroke="midnightblue" points="79.2823,-44.5001 69.2823,-48 79.2823,-51.5001 79.2823,-44.5001"/>
</g>
<!-- Node30 -->
<g id="node3" class="node"><title>Node30</title>
<g id="a_node3"><a xlink:href="class_power.html#a1e7595ee0b3b0439d979ffeab785d0d8" target="_top" xlink:title="Power::set_i_offset">
<polygon fill="none" stroke="black" points="247,-76.5 247,-95.5 348,-95.5 348,-76.5 247,-76.5"/>
<text text-anchor="middle" x="297.5" y="-83.5" font-family="Helvetica,sans-Serif" font-size="10.00">Power::set_i_offset</text>
</a>
</g>
</g>
<!-- Node28&#45;&gt;Node30 -->
<g id="edge10" class="edge"><title>Node28&#45;&gt;Node30</title>
<path fill="none" stroke="midnightblue" d="M75.6864,-60.2167C85.2246,-62.7731 95.4145,-65.2272 105,-67 152.801,-75.8404 208.126,-80.7694 246.982,-83.3774"/>
<polygon fill="midnightblue" stroke="midnightblue" points="76.6069,-56.8399 66.0353,-57.5399 74.736,-63.5853 76.6069,-56.8399"/>
</g>
<!-- Node32 -->
<g id="node5" class="node"><title>Node32</title>
<g id="a_node5"><a xlink:href="classpower_d_c.html#aedca6b1fc36cfddd8876fadb387debe1" target="_top" xlink:title="powerDC::~powerDC">
<polygon fill="none" stroke="black" points="242,-0.5 242,-19.5 353,-19.5 353,-0.5 242,-0.5"/>
<text text-anchor="middle" x="297.5" y="-7.5" font-family="Helvetica,sans-Serif" font-size="10.00">powerDC::~powerDC</text>
</a>
</g>
</g>
<!-- Node28&#45;&gt;Node32 -->
<g id="edge11" class="edge"><title>Node28&#45;&gt;Node32</title>
<path fill="none" stroke="midnightblue" d="M75.6864,-35.7833C85.2246,-33.2269 95.4145,-30.7728 105,-29 150.665,-20.5545 203.198,-15.6788 241.678,-12.9862"/>
<polygon fill="midnightblue" stroke="midnightblue" points="74.736,-32.4147 66.0353,-38.4601 76.6069,-39.1601 74.736,-32.4147"/>
</g>
<!-- Node29&#45;&gt;Node30 -->
<g id="edge2" class="edge"><title>Node29&#45;&gt;Node30</title>
<path fill="none" stroke="midnightblue" d="M201.618,-60.2462C220.915,-65.484 243.112,-71.5091 261.183,-76.4141"/>
<polygon fill="midnightblue" stroke="midnightblue" points="202.396,-56.8308 191.828,-57.589 200.562,-63.5864 202.396,-56.8308"/>
</g>
<!-- Node29&#45;&gt;Node32 -->
<g id="edge4" class="edge"><title>Node29&#45;&gt;Node32</title>
<path fill="none" stroke="midnightblue" d="M201.618,-35.7538C220.915,-30.516 243.112,-24.4909 261.183,-19.5859"/>
<polygon fill="midnightblue" stroke="midnightblue" points="200.562,-32.4136 191.828,-38.411 202.396,-39.1692 200.562,-32.4136"/>
</g>
<!-- Node33 -->
<g id="node6" class="node"><title>Node33</title>
<g id="a_node6"><a xlink:href="class_config.html#a975933ecde91dc436d4ca39464cfd25f" target="_top" xlink:title="display all config on USART0 ">
<polygon fill="none" stroke="black" points="256.5,-38.5 256.5,-57.5 338.5,-57.5 338.5,-38.5 256.5,-38.5"/>
<text text-anchor="middle" x="297.5" y="-45.5" font-family="Helvetica,sans-Serif" font-size="10.00">Config::display</text>
</a>
</g>
</g>
<!-- Node29&#45;&gt;Node33 -->
<g id="edge5" class="edge"><title>Node29&#45;&gt;Node33</title>
<path fill="none" stroke="midnightblue" d="M216.381,-48C229.798,-48 243.721,-48 256.124,-48"/>
<polygon fill="midnightblue" stroke="midnightblue" points="216.253,-44.5001 206.253,-48 216.253,-51.5001 216.253,-44.5001"/>
</g>
<!-- Node31 -->
<g id="node4" class="node"><title>Node31</title>
<g id="a_node4"><a xlink:href="class_config.html#a2a806f322b0d533aabdb8e796d3b1033" target="_top" xlink:title="The execute method is the config &quot;main function&quot; In this method, sentence from the uart are process e...">
<polygon fill="none" stroke="black" points="392,-76.5 392,-95.5 478,-95.5 478,-76.5 392,-76.5"/>
<text text-anchor="middle" x="435" y="-83.5" font-family="Helvetica,sans-Serif" font-size="10.00">Config::execute</text>
</a>
</g>
</g>
<!-- Node30&#45;&gt;Node31 -->
<g id="edge3" class="edge"><title>Node30&#45;&gt;Node31</title>
<path fill="none" stroke="midnightblue" d="M358.432,-86C369.718,-86 381.298,-86 391.896,-86"/>
<polygon fill="midnightblue" stroke="midnightblue" points="358.186,-82.5001 348.186,-86 358.186,-89.5001 358.186,-82.5001"/>
</g>
<!-- Node33&#45;&gt;Node31 -->
<g id="edge9" class="edge"><title>Node33&#45;&gt;Node31</title>
<path fill="none" stroke="midnightblue" d="M342.425,-60.3183C361.041,-65.5393 382.409,-71.5316 399.819,-76.4141"/>
<polygon fill="midnightblue" stroke="midnightblue" points="343.266,-56.9193 332.692,-57.589 341.376,-63.6593 343.266,-56.9193"/>
</g>
<!-- Node34 -->
<g id="node7" class="node"><title>Node34</title>
<g id="a_node7"><a xlink:href="class_config.html#a5ae6c4f7255e895e7384fc2a4baab160" target="_top" xlink:title="Config::endString">
<polygon fill="none" stroke="black" points="389,-38.5 389,-57.5 481,-57.5 481,-38.5 389,-38.5"/>
<text text-anchor="middle" x="435" y="-45.5" font-family="Helvetica,sans-Serif" font-size="10.00">Config::endString</text>
</a>
</g>
</g>
<!-- Node33&#45;&gt;Node34 -->
<g id="edge6" class="edge"><title>Node33&#45;&gt;Node34</title>
<path fill="none" stroke="midnightblue" d="M349.037,-48C362.114,-48 376.106,-48 388.885,-48"/>
<polygon fill="midnightblue" stroke="midnightblue" points="348.788,-44.5001 338.788,-48 348.788,-51.5001 348.788,-44.5001"/>
</g>
<!-- Node35 -->
<g id="node8" class="node"><title>Node35</title>
<g id="a_node8"><a xlink:href="class_f_s_m.html#a3819be8e9fe92b750f47b9731e92f254" target="_top" xlink:title="Call when a string from usart0 finish by &quot;\r\n&quot;. ">
<polygon fill="none" stroke="black" points="517,-38.5 517,-57.5 654,-57.5 654,-38.5 517,-38.5"/>
<text text-anchor="middle" x="585.5" y="-45.5" font-family="Helvetica,sans-Serif" font-size="10.00">FSM::character_processing</text>
</a>
</g>
</g>
<!-- Node34&#45;&gt;Node35 -->
<g id="edge7" class="edge"><title>Node34&#45;&gt;Node35</title>
<path fill="none" stroke="midnightblue" d="M491.633,-48C499.908,-48 508.513,-48 516.999,-48"/>
<polygon fill="midnightblue" stroke="midnightblue" points="491.362,-44.5001 481.362,-48 491.362,-51.5001 491.362,-44.5001"/>
</g>
<!-- Node36 -->
<g id="node9" class="node"><title>Node36</title>
<g id="a_node9"><a xlink:href="main_8cpp.html#ae66f6b31b5ad750f1fe042a706a4e3d4" target="_top" xlink:title="main">
<polygon fill="none" stroke="black" points="690,-38.5 690,-57.5 728,-57.5 728,-38.5 690,-38.5"/>
<text text-anchor="middle" x="709" y="-45.5" font-family="Helvetica,sans-Serif" font-size="10.00">main</text>
</a>
</g>
</g>
<!-- Node35&#45;&gt;Node36 -->
<g id="edge8" class="edge"><title>Node35&#45;&gt;Node36</title>
<path fill="none" stroke="midnightblue" d="M664.013,-48C673.457,-48 682.315,-48 689.572,-48"/>
<polygon fill="midnightblue" stroke="midnightblue" points="664.001,-44.5001 654.001,-48 664.001,-51.5001 664.001,-44.5001"/>
</g>
</g>
</svg>
