<?xml version="1.0" encoding="UTF-8" standalone="no"?>
<!DOCTYPE svg PUBLIC "-//W3C//DTD SVG 1.1//EN"
 "http://www.w3.org/Graphics/SVG/1.1/DTD/svg11.dtd">
<!-- Generated by graphviz version 2.38.0 (20140413.2041)
 -->
<!-- Title: Config::display Pages: 1 -->
<svg width="465pt" height="66pt"
 viewBox="0.00 0.00 465.00 66.00" xmlns="http://www.w3.org/2000/svg" xmlns:xlink="http://www.w3.org/1999/xlink">
<g id="graph0" class="graph" transform="scale(1 1) rotate(0) translate(4 62)">
<title>Config::display</title>
<!-- Node21 -->
<g id="node1" class="node"><title>Node21</title>
<polygon fill="#bfbfbf" stroke="black" points="0,-19.5 0,-38.5 82,-38.5 82,-19.5 0,-19.5"/>
<text text-anchor="middle" x="41" y="-26.5" font-family="Helvetica,sans-Serif" font-size="10.00">Config::display</text>
</g>
<!-- Node22 -->
<g id="node2" class="node"><title>Node22</title>
<g id="a_node2"><a xlink:href="class_config.html#a5ae6c4f7255e895e7384fc2a4baab160" target="_top" xlink:title="Config::endString">
<polygon fill="none" stroke="black" points="118,-38.5 118,-57.5 210,-57.5 210,-38.5 118,-38.5"/>
<text text-anchor="middle" x="164" y="-45.5" font-family="Helvetica,sans-Serif" font-size="10.00">Config::endString</text>
</a>
</g>
</g>
<!-- Node21&#45;&gt;Node22 -->
<g id="edge1" class="edge"><title>Node21&#45;&gt;Node22</title>
<path fill="none" stroke="midnightblue" d="M92.4135,-36.9162C100.859,-38.2424 109.575,-39.6109 117.877,-40.9145"/>
<polygon fill="midnightblue" stroke="midnightblue" points="92.7132,-33.4204 82.2912,-35.3267 91.6272,-40.3357 92.7132,-33.4204"/>
</g>
<!-- Node25 -->
<g id="node5" class="node"><title>Node25</title>
<g id="a_node5"><a xlink:href="class_config.html#a2a806f322b0d533aabdb8e796d3b1033" target="_top" xlink:title="The execute method is the config &quot;main function&quot; In this method sentence from the uart are process ei...">
<polygon fill="none" stroke="black" points="121,-0.5 121,-19.5 207,-19.5 207,-0.5 121,-0.5"/>
<text text-anchor="middle" x="164" y="-7.5" font-family="Helvetica,sans-Serif" font-size="10.00">Config::execute</text>
</a>
</g>
</g>
<!-- Node21&#45;&gt;Node25 -->
<g id="edge4" class="edge"><title>Node21&#45;&gt;Node25</title>
<path fill="none" stroke="midnightblue" d="M92.3766,-21.0896C101.836,-19.6043 111.635,-18.0656 120.813,-16.6244"/>
<polygon fill="midnightblue" stroke="midnightblue" points="91.6272,-17.6643 82.2912,-22.6733 92.7132,-24.5796 91.6272,-17.6643"/>
</g>
<!-- Node23 -->
<g id="node3" class="node"><title>Node23</title>
<g id="a_node3"><a xlink:href="class_f_s_m.html#a3819be8e9fe92b750f47b9731e92f254" target="_top" xlink:title="Call when a string from usart0 finish by &quot;\r\n&quot;. ">
<polygon fill="none" stroke="black" points="246,-38.5 246,-57.5 383,-57.5 383,-38.5 246,-38.5"/>
<text text-anchor="middle" x="314.5" y="-45.5" font-family="Helvetica,sans-Serif" font-size="10.00">FSM::character_processing</text>
</a>
</g>
</g>
<!-- Node22&#45;&gt;Node23 -->
<g id="edge2" class="edge"><title>Node22&#45;&gt;Node23</title>
<path fill="none" stroke="midnightblue" d="M220.633,-48C228.908,-48 237.513,-48 245.999,-48"/>
<polygon fill="midnightblue" stroke="midnightblue" points="220.362,-44.5001 210.362,-48 220.362,-51.5001 220.362,-44.5001"/>
</g>
<!-- Node24 -->
<g id="node4" class="node"><title>Node24</title>
<g id="a_node4"><a xlink:href="main_8cpp.html#ae66f6b31b5ad750f1fe042a706a4e3d4" target="_top" xlink:title="main">
<polygon fill="none" stroke="black" points="419,-38.5 419,-57.5 457,-57.5 457,-38.5 419,-38.5"/>
<text text-anchor="middle" x="438" y="-45.5" font-family="Helvetica,sans-Serif" font-size="10.00">main</text>
</a>
</g>
</g>
<!-- Node23&#45;&gt;Node24 -->
<g id="edge3" class="edge"><title>Node23&#45;&gt;Node24</title>
<path fill="none" stroke="midnightblue" d="M393.013,-48C402.457,-48 411.315,-48 418.572,-48"/>
<polygon fill="midnightblue" stroke="midnightblue" points="393.001,-44.5001 383.001,-48 393.001,-51.5001 393.001,-44.5001"/>
</g>
</g>
</svg>
