<?xml version="1.0" encoding="UTF-8" standalone="no"?>
<!DOCTYPE svg PUBLIC "-//W3C//DTD SVG 1.1//EN"
 "http://www.w3.org/Graphics/SVG/1.1/DTD/svg11.dtd">
<!-- Generated by graphviz version 2.38.0 (20140413.2041)
 -->
<!-- Title: Config::endString Pages: 1 -->
<svg width="355pt" height="230pt"
 viewBox="0.00 0.00 355.00 230.00" xmlns="http://www.w3.org/2000/svg" xmlns:xlink="http://www.w3.org/1999/xlink">
<g id="graph0" class="graph" transform="scale(1 1) rotate(0) translate(4 226)">
<title>Config::endString</title>
<!-- Node26 -->
<g id="node1" class="node"><title>Node26</title>
<polygon fill="#bfbfbf" stroke="black" points="0,-104.5 0,-123.5 92,-123.5 92,-104.5 0,-104.5"/>
<text text-anchor="middle" x="46" y="-111.5" font-family="Helvetica,sans-Serif" font-size="10.00">Config::endString</text>
</g>
<!-- Node27 -->
<g id="node2" class="node"><title>Node27</title>
<g id="a_node2"><a xlink:href="class_config.html#a3f8d043789557191686ae632ebe6a571" target="_top" xlink:title="add c to the end of request ">
<polygon fill="none" stroke="black" points="129.5,-202.5 129.5,-221.5 244.5,-221.5 244.5,-202.5 129.5,-202.5"/>
<text text-anchor="middle" x="187" y="-209.5" font-family="Helvetica,sans-Serif" font-size="10.00">Config::addToRequest</text>
</a>
</g>
</g>
<!-- Node26&#45;&gt;Node27 -->
<g id="edge1" class="edge"><title>Node26&#45;&gt;Node27</title>
<path fill="none" stroke="midnightblue" d="M54.4236,-123.71C67.5369,-140.228 96.4154,-173.863 128,-193 131.42,-195.072 135.091,-196.946 138.866,-198.635"/>
<polygon fill="midnightblue" stroke="midnightblue" points="137.795,-201.977 148.379,-202.461 140.407,-195.482 137.795,-201.977"/>
</g>
<!-- Node28 -->
<g id="node3" class="node"><title>Node28</title>
<g id="a_node3"><a xlink:href="class_config.html#a890e1d585e9ae670a6cccaf196250870" target="_top" xlink:title="Config::atoc">
<polygon fill="none" stroke="black" points="152,-164.5 152,-183.5 222,-183.5 222,-164.5 152,-164.5"/>
<text text-anchor="middle" x="187" y="-171.5" font-family="Helvetica,sans-Serif" font-size="10.00">Config::atoc</text>
</a>
</g>
</g>
<!-- Node26&#45;&gt;Node28 -->
<g id="edge2" class="edge"><title>Node26&#45;&gt;Node28</title>
<path fill="none" stroke="midnightblue" d="M64.0238,-123.575C80.1737,-132.426 105.283,-145.594 128,-155 133.14,-157.128 138.611,-159.183 144.061,-161.104"/>
<polygon fill="midnightblue" stroke="midnightblue" points="143.178,-164.5 153.773,-164.406 145.431,-157.873 143.178,-164.5"/>
</g>
<!-- Node29 -->
<g id="node4" class="node"><title>Node29</title>
<g id="a_node4"><a xlink:href="class_config.html#a975933ecde91dc436d4ca39464cfd25f" target="_top" xlink:title="display all config on USART0 ">
<polygon fill="none" stroke="black" points="146,-126.5 146,-145.5 228,-145.5 228,-126.5 146,-126.5"/>
<text text-anchor="middle" x="187" y="-133.5" font-family="Helvetica,sans-Serif" font-size="10.00">Config::display</text>
</a>
</g>
</g>
<!-- Node26&#45;&gt;Node29 -->
<g id="edge3" class="edge"><title>Node26&#45;&gt;Node29</title>
<path fill="none" stroke="midnightblue" d="M92.1293,-121.143C106.035,-123.344 121.432,-125.781 135.665,-128.033"/>
<polygon fill="midnightblue" stroke="midnightblue" points="135.361,-131.529 145.785,-129.635 136.455,-124.615 135.361,-131.529"/>
</g>
<!-- Node31 -->
<g id="node6" class="node"><title>Node31</title>
<g id="a_node6"><a xlink:href="class_config.html#af2fee2ffae339b1e8ead1cd413e44ee3" target="_top" xlink:title="Initialize the eeprom memory. ">
<polygon fill="none" stroke="black" points="144,-77 144,-107 230,-107 230,-77 144,-77"/>
<text text-anchor="start" x="152" y="-95" font-family="Helvetica,sans-Serif" font-size="10.00">Config::initialize</text>
<text text-anchor="middle" x="187" y="-84" font-family="Helvetica,sans-Serif" font-size="10.00">_eeprom</text>
</a>
</g>
</g>
<!-- Node26&#45;&gt;Node31 -->
<g id="edge5" class="edge"><title>Node26&#45;&gt;Node31</title>
<path fill="none" stroke="midnightblue" d="M92.1293,-106.857C105.395,-104.758 120.017,-102.443 133.691,-100.279"/>
<polygon fill="midnightblue" stroke="midnightblue" points="134.596,-103.68 143.926,-98.6593 133.501,-96.7656 134.596,-103.68"/>
</g>
<!-- Node32 -->
<g id="node7" class="node"><title>Node32</title>
<g id="a_node7"><a xlink:href="class_config.html#ab55107c3371b6c41be6688c0989993c7" target="_top" xlink:title="Load saved config data from the eeprom. ">
<polygon fill="none" stroke="black" points="133.5,-38.5 133.5,-57.5 240.5,-57.5 240.5,-38.5 133.5,-38.5"/>
<text text-anchor="middle" x="187" y="-45.5" font-family="Helvetica,sans-Serif" font-size="10.00">Config::load_eeprom</text>
</a>
</g>
</g>
<!-- Node26&#45;&gt;Node32 -->
<g id="edge6" class="edge"><title>Node26&#45;&gt;Node32</title>
<path fill="none" stroke="midnightblue" d="M61.7914,-104.495C77.7074,-94.5331 103.977,-78.8514 128,-68 133.472,-65.5281 139.347,-63.1751 145.182,-61.0083"/>
<polygon fill="midnightblue" stroke="midnightblue" points="146.641,-64.2041 154.885,-57.5497 144.29,-57.6104 146.641,-64.2041"/>
</g>
<!-- Node33 -->
<g id="node8" class="node"><title>Node33</title>
<g id="a_node8"><a xlink:href="class_config.html#a5fefd76d384c0a710ea0dd0d71d5d05b" target="_top" xlink:title="Update saved config data in the eeprom. ">
<polygon fill="none" stroke="black" points="128,-0.5 128,-19.5 246,-19.5 246,-0.5 128,-0.5"/>
<text text-anchor="middle" x="187" y="-7.5" font-family="Helvetica,sans-Serif" font-size="10.00">Config::update_epprom</text>
</a>
</g>
</g>
<!-- Node26&#45;&gt;Node33 -->
<g id="edge7" class="edge"><title>Node26&#45;&gt;Node33</title>
<path fill="none" stroke="midnightblue" d="M53.6463,-104.362C66.1915,-86.8686 95.0757,-49.7811 128,-29 131.189,-26.987 134.613,-25.1664 138.144,-23.5237"/>
<polygon fill="midnightblue" stroke="midnightblue" points="139.758,-26.6435 147.656,-19.5808 137.078,-20.1771 139.758,-26.6435"/>
</g>
<!-- Node30 -->
<g id="node5" class="node"><title>Node30</title>
<g id="a_node5"><a xlink:href="class_usart.html#ab236d7c399791bbe1431f85e9b60f601" target="_top" xlink:title="USART string sender function. ">
<polygon fill="none" stroke="black" points="282,-126.5 282,-145.5 347,-145.5 347,-126.5 282,-126.5"/>
<text text-anchor="middle" x="314.5" y="-133.5" font-family="Helvetica,sans-Serif" font-size="10.00">Usart::print</text>
</a>
</g>
</g>
<!-- Node29&#45;&gt;Node30 -->
<g id="edge4" class="edge"><title>Node29&#45;&gt;Node30</title>
<path fill="none" stroke="midnightblue" d="M228.054,-136C241.888,-136 257.422,-136 271.414,-136"/>
<polygon fill="midnightblue" stroke="midnightblue" points="271.759,-139.5 281.759,-136 271.759,-132.5 271.759,-139.5"/>
</g>
</g>
</svg>
