<?xml version="1.0" encoding="UTF-8" standalone="no"?>
<!DOCTYPE svg PUBLIC "-//W3C//DTD SVG 1.1//EN"
 "http://www.w3.org/Graphics/SVG/1.1/DTD/svg11.dtd">
<!-- Generated by graphviz version 2.38.0 (20140413.2041)
 -->
<!-- Title: Measure::power_read_value Pages: 1 -->
<svg width="404pt" height="39pt"
 viewBox="0.00 0.00 404.00 39.00" xmlns="http://www.w3.org/2000/svg" xmlns:xlink="http://www.w3.org/1999/xlink">
<g id="graph0" class="graph" transform="scale(1 1) rotate(0) translate(4 35)">
<title>Measure::power_read_value</title>
<!-- Node40 -->
<g id="node1" class="node"><title>Node40</title>
<polygon fill="#bfbfbf" stroke="black" points="0,-0.5 0,-30.5 110,-30.5 110,-0.5 0,-0.5"/>
<text text-anchor="start" x="8" y="-18.5" font-family="Helvetica,sans-Serif" font-size="10.00">Measure::power_read</text>
<text text-anchor="middle" x="55" y="-7.5" font-family="Helvetica,sans-Serif" font-size="10.00">_value</text>
</g>
<!-- Node41 -->
<g id="node2" class="node"><title>Node41</title>
<g id="a_node2"><a xlink:href="class_power.html#ace64df3181f3dfce89b8a1f8608e16eb" target="_top" xlink:title="Power::read_rms_value">
<polygon fill="none" stroke="black" points="146,-6 146,-25 265,-25 265,-6 146,-6"/>
<text text-anchor="middle" x="205.5" y="-13" font-family="Helvetica,sans-Serif" font-size="10.00">Power::read_rms_value</text>
</a>
</g>
</g>
<!-- Node40&#45;&gt;Node41 -->
<g id="edge1" class="edge"><title>Node40&#45;&gt;Node41</title>
<path fill="none" stroke="midnightblue" d="M110.032,-15.5C118.436,-15.5 127.215,-15.5 135.89,-15.5"/>
<polygon fill="midnightblue" stroke="midnightblue" points="135.998,-19.0001 145.998,-15.5 135.998,-12.0001 135.998,-19.0001"/>
</g>
<!-- Node42 -->
<g id="node3" class="node"><title>Node42</title>
<g id="a_node3"><a xlink:href="class_power.html#a1e33445a6a18766a77c5304292efcb4f" target="_top" xlink:title="This method read return int value from the ADC channel. ">
<polygon fill="none" stroke="black" points="301,-6 301,-25 396,-25 396,-6 301,-6"/>
<text text-anchor="middle" x="348.5" y="-13" font-family="Helvetica,sans-Serif" font-size="10.00">Power::adc_value</text>
</a>
</g>
</g>
<!-- Node41&#45;&gt;Node42 -->
<g id="edge2" class="edge"><title>Node41&#45;&gt;Node42</title>
<path fill="none" stroke="midnightblue" d="M265.072,-15.5C273.571,-15.5 282.308,-15.5 290.77,-15.5"/>
<polygon fill="midnightblue" stroke="midnightblue" points="290.921,-19.0001 300.921,-15.5 290.921,-12.0001 290.921,-19.0001"/>
</g>
</g>
</svg>
