<?xml version="1.0" encoding="UTF-8" standalone="no"?>
<!DOCTYPE svg PUBLIC "-//W3C//DTD SVG 1.1//EN"
 "http://www.w3.org/Graphics/SVG/1.1/DTD/svg11.dtd">
<!-- Generated by graphviz version 2.38.0 (20140413.2041)
 -->
<!-- Title: FSM::FSM Pages: 1 -->
<svg width="483pt" height="72pt"
 viewBox="0.00 0.00 483.00 71.50" xmlns="http://www.w3.org/2000/svg" xmlns:xlink="http://www.w3.org/1999/xlink">
<g id="graph0" class="graph" transform="scale(1 1) rotate(0) translate(4 67.5)">
<title>FSM::FSM</title>
<!-- Node0 -->
<g id="node1" class="node"><title>Node0</title>
<polygon fill="#bfbfbf" stroke="black" points="0,-19.5 0,-38.5 65,-38.5 65,-19.5 0,-19.5"/>
<text text-anchor="middle" x="32.5" y="-26.5" font-family="Helvetica,sans-Serif" font-size="10.00">FSM::FSM</text>
</g>
<!-- Node1 -->
<g id="node2" class="node"><title>Node1</title>
<g id="a_node2"><a xlink:href="class_config.html#ab2f7c3fc31f5a2c4e115860474dd8f55" target="_top" xlink:title="Load saved config data from the eeprom. ">
<polygon fill="none" stroke="black" points="102.5,-38.5 102.5,-57.5 203.5,-57.5 203.5,-38.5 102.5,-38.5"/>
<text text-anchor="middle" x="153" y="-45.5" font-family="Helvetica,sans-Serif" font-size="10.00">Config::load_logger</text>
</a>
</g>
</g>
<!-- Node0&#45;&gt;Node1 -->
<g id="edge1" class="edge"><title>Node0&#45;&gt;Node1</title>
<path fill="none" stroke="midnightblue" d="M65.2558,-34.0917C73.6133,-35.4317 82.9086,-36.9221 92.2213,-38.4152"/>
<polygon fill="midnightblue" stroke="midnightblue" points="91.8619,-41.9022 102.29,-40.0296 92.9701,-34.9905 91.8619,-41.9022"/>
</g>
<!-- Node4 -->
<g id="node5" class="node"><title>Node4</title>
<g id="a_node5"><a xlink:href="class_sensor.html#a953410c8a76c3b718349000a11e6160e" target="_top" xlink:title="Load saved parameters for sensors from the eeprom. ">
<polygon fill="none" stroke="black" points="101,-0.5 101,-19.5 205,-19.5 205,-0.5 101,-0.5"/>
<text text-anchor="middle" x="153" y="-7.5" font-family="Helvetica,sans-Serif" font-size="10.00">Sensor::load_param</text>
</a>
</g>
</g>
<!-- Node0&#45;&gt;Node4 -->
<g id="edge5" class="edge"><title>Node0&#45;&gt;Node4</title>
<path fill="none" stroke="midnightblue" d="M65.2558,-23.9083C73.2256,-22.6305 82.0481,-21.2159 90.9253,-19.7926"/>
<polygon fill="midnightblue" stroke="midnightblue" points="91.6088,-23.2278 100.929,-18.1887 90.5005,-16.316 91.6088,-23.2278"/>
</g>
<!-- Node2 -->
<g id="node3" class="node"><title>Node2</title>
<g id="a_node3"><a xlink:href="class_config.html#ad634dbd3d1afb02eac176fd4f0150614" target="_top" xlink:title="Initialize the eeprom memory. ">
<polygon fill="none" stroke="black" points="241,-33 241,-63 327,-63 327,-33 241,-33"/>
<text text-anchor="start" x="249" y="-51" font-family="Helvetica,sans-Serif" font-size="10.00">Config::initialize</text>
<text text-anchor="middle" x="284" y="-40" font-family="Helvetica,sans-Serif" font-size="10.00">_logger</text>
</a>
</g>
</g>
<!-- Node1&#45;&gt;Node2 -->
<g id="edge2" class="edge"><title>Node1&#45;&gt;Node2</title>
<path fill="none" stroke="midnightblue" d="M203.506,-41.4148C212.488,-41.2141 221.882,-41.1967 230.935,-41.3628"/>
<polygon fill="midnightblue" stroke="midnightblue" points="230.883,-44.8625 240.973,-41.6282 231.069,-37.865 230.883,-44.8625"/>
</g>
<!-- Node2&#45;&gt;Node1 -->
<g id="edge3" class="edge"><title>Node2&#45;&gt;Node1</title>
<path fill="none" stroke="midnightblue" d="M240.973,-54.3718C232.281,-54.6759 222.967,-54.7966 213.782,-54.7339"/>
<polygon fill="midnightblue" stroke="midnightblue" points="213.555,-51.2304 203.506,-54.5852 213.454,-58.2296 213.555,-51.2304"/>
</g>
<!-- Node3 -->
<g id="node4" class="node"><title>Node3</title>
<g id="a_node4"><a xlink:href="class_config.html#a4cda6b3fcf08b798afe3bf1311450b0c" target="_top" xlink:title="Update saved config data in the eeprom. ">
<polygon fill="none" stroke="black" points="363,-38.5 363,-57.5 475,-57.5 475,-38.5 363,-38.5"/>
<text text-anchor="middle" x="419" y="-45.5" font-family="Helvetica,sans-Serif" font-size="10.00">Config::update_logger</text>
</a>
</g>
</g>
<!-- Node2&#45;&gt;Node3 -->
<g id="edge4" class="edge"><title>Node2&#45;&gt;Node3</title>
<path fill="none" stroke="midnightblue" d="M327.082,-48C335.178,-48 343.834,-48 352.468,-48"/>
<polygon fill="midnightblue" stroke="midnightblue" points="352.559,-51.5001 362.559,-48 352.559,-44.5001 352.559,-51.5001"/>
</g>
</g>
</svg>
