<?xml version="1.0" encoding="UTF-8" standalone="no"?>
<!DOCTYPE svg PUBLIC "-//W3C//DTD SVG 1.1//EN"
 "http://www.w3.org/Graphics/SVG/1.1/DTD/svg11.dtd">
<!-- Generated by graphviz version 2.38.0 (20140413.2041)
 -->
<!-- Title: FSM::FSM Pages: 1 -->
<svg width="483pt" height="110pt"
 viewBox="0.00 0.00 483.00 109.50" xmlns="http://www.w3.org/2000/svg" xmlns:xlink="http://www.w3.org/1999/xlink">
<g id="graph0" class="graph" transform="scale(1 1) rotate(0) translate(4 105.5)">
<title>FSM::FSM</title>
<!-- Node0 -->
<g id="node1" class="node"><title>Node0</title>
<polygon fill="#bfbfbf" stroke="black" points="0,-38.5 0,-57.5 65,-57.5 65,-38.5 0,-38.5"/>
<text text-anchor="middle" x="32.5" y="-45.5" font-family="Helvetica,sans-Serif" font-size="10.00">FSM::FSM</text>
</g>
<!-- Node1 -->
<g id="node2" class="node"><title>Node1</title>
<g id="a_node2"><a xlink:href="class_config.html#ab2f7c3fc31f5a2c4e115860474dd8f55" target="_top" xlink:title="Load saved config data from the eeprom. ">
<polygon fill="none" stroke="black" points="102.5,-76.5 102.5,-95.5 203.5,-95.5 203.5,-76.5 102.5,-76.5"/>
<text text-anchor="middle" x="153" y="-83.5" font-family="Helvetica,sans-Serif" font-size="10.00">Config::load_logger</text>
</a>
</g>
</g>
<!-- Node0&#45;&gt;Node1 -->
<g id="edge1" class="edge"><title>Node0&#45;&gt;Node1</title>
<path fill="none" stroke="midnightblue" d="M63.4026,-57.589C78.2787,-62.3594 96.4571,-68.1888 112.467,-73.3229"/>
<polygon fill="midnightblue" stroke="midnightblue" points="111.516,-76.6932 122.107,-76.4141 113.653,-70.0276 111.516,-76.6932"/>
</g>
<!-- Node4 -->
<g id="node5" class="node"><title>Node4</title>
<g id="a_node5"><a xlink:href="class_sensor.html#a953410c8a76c3b718349000a11e6160e" target="_top" xlink:title="Load saved parameters for sensors from the eeprom. ">
<polygon fill="none" stroke="black" points="101,-38.5 101,-57.5 205,-57.5 205,-38.5 101,-38.5"/>
<text text-anchor="middle" x="153" y="-45.5" font-family="Helvetica,sans-Serif" font-size="10.00">Sensor::load_param</text>
</a>
</g>
</g>
<!-- Node0&#45;&gt;Node4 -->
<g id="edge5" class="edge"><title>Node0&#45;&gt;Node4</title>
<path fill="none" stroke="midnightblue" d="M65.2558,-48C73.2256,-48 82.0481,-48 90.9253,-48"/>
<polygon fill="midnightblue" stroke="midnightblue" points="90.9286,-51.5001 100.929,-48 90.9285,-44.5001 90.9286,-51.5001"/>
</g>
<!-- Node5 -->
<g id="node6" class="node"><title>Node5</title>
<g id="a_node6"><a xlink:href="class_power.html#a56a921dc1756f980b6b28e024f2c913c" target="_top" xlink:title="Load saved parameters for sensors from the eeprom. ">
<polygon fill="none" stroke="black" points="102.5,-0.5 102.5,-19.5 203.5,-19.5 203.5,-0.5 102.5,-0.5"/>
<text text-anchor="middle" x="153" y="-7.5" font-family="Helvetica,sans-Serif" font-size="10.00">Power::load_param</text>
</a>
</g>
</g>
<!-- Node0&#45;&gt;Node5 -->
<g id="edge6" class="edge"><title>Node0&#45;&gt;Node5</title>
<path fill="none" stroke="midnightblue" d="M63.4026,-38.411C78.2787,-33.6406 96.4571,-27.8112 112.467,-22.6771"/>
<polygon fill="midnightblue" stroke="midnightblue" points="113.653,-25.9724 122.107,-19.5859 111.516,-19.3068 113.653,-25.9724"/>
</g>
<!-- Node2 -->
<g id="node3" class="node"><title>Node2</title>
<g id="a_node3"><a xlink:href="class_config.html#ad634dbd3d1afb02eac176fd4f0150614" target="_top" xlink:title="Initialize the eeprom memory. ">
<polygon fill="none" stroke="black" points="241,-71 241,-101 327,-101 327,-71 241,-71"/>
<text text-anchor="start" x="249" y="-89" font-family="Helvetica,sans-Serif" font-size="10.00">Config::initialize</text>
<text text-anchor="middle" x="284" y="-78" font-family="Helvetica,sans-Serif" font-size="10.00">_logger</text>
</a>
</g>
</g>
<!-- Node1&#45;&gt;Node2 -->
<g id="edge2" class="edge"><title>Node1&#45;&gt;Node2</title>
<path fill="none" stroke="midnightblue" d="M203.506,-79.4148C212.488,-79.2141 221.882,-79.1967 230.935,-79.3628"/>
<polygon fill="midnightblue" stroke="midnightblue" points="230.883,-82.8625 240.973,-79.6282 231.069,-75.865 230.883,-82.8625"/>
</g>
<!-- Node2&#45;&gt;Node1 -->
<g id="edge3" class="edge"><title>Node2&#45;&gt;Node1</title>
<path fill="none" stroke="midnightblue" d="M240.973,-92.3718C232.281,-92.6759 222.967,-92.7966 213.782,-92.7339"/>
<polygon fill="midnightblue" stroke="midnightblue" points="213.555,-89.2304 203.506,-92.5852 213.454,-96.2296 213.555,-89.2304"/>
</g>
<!-- Node3 -->
<g id="node4" class="node"><title>Node3</title>
<g id="a_node4"><a xlink:href="class_config.html#a4cda6b3fcf08b798afe3bf1311450b0c" target="_top" xlink:title="Update saved config data in the eeprom. ">
<polygon fill="none" stroke="black" points="363,-76.5 363,-95.5 475,-95.5 475,-76.5 363,-76.5"/>
<text text-anchor="middle" x="419" y="-83.5" font-family="Helvetica,sans-Serif" font-size="10.00">Config::update_logger</text>
</a>
</g>
</g>
<!-- Node2&#45;&gt;Node3 -->
<g id="edge4" class="edge"><title>Node2&#45;&gt;Node3</title>
<path fill="none" stroke="midnightblue" d="M327.082,-86C335.178,-86 343.834,-86 352.468,-86"/>
<polygon fill="midnightblue" stroke="midnightblue" points="352.559,-89.5001 362.559,-86 352.559,-82.5001 352.559,-89.5001"/>
</g>
</g>
</svg>
