<?xml version="1.0" encoding="UTF-8" standalone="no"?>
<!DOCTYPE svg PUBLIC "-//W3C//DTD SVG 1.1//EN"
 "http://www.w3.org/Graphics/SVG/1.1/DTD/svg11.dtd">
<!-- Generated by graphviz version 2.38.0 (20140413.2041)
 -->
<!-- Title: Config::endString Pages: 1 -->
<svg width="405pt" height="214pt"
 viewBox="0.00 0.00 405.00 213.70" xmlns="http://www.w3.org/2000/svg" xmlns:xlink="http://www.w3.org/1999/xlink">
<g id="graph0" class="graph" transform="scale(1 1) rotate(0) translate(4 209.698)">
<title>Config::endString</title>
<!-- Node26 -->
<g id="node1" class="node"><title>Node26</title>
<polygon fill="#bfbfbf" stroke="black" points="0,-91.1978 0,-110.198 92,-110.198 92,-91.1978 0,-91.1978"/>
<text text-anchor="middle" x="46" y="-98.1978" font-family="Helvetica,sans-Serif" font-size="10.00">Config::endString</text>
</g>
<!-- Node27 -->
<g id="node2" class="node"><title>Node27</title>
<g id="a_node2"><a xlink:href="class_config.html#a3f8d043789557191686ae632ebe6a571" target="_top" xlink:title="add c to the end of request ">
<polygon fill="none" stroke="black" points="128,-186.198 128,-205.198 243,-205.198 243,-186.198 128,-186.198"/>
<text text-anchor="middle" x="185.5" y="-193.198" font-family="Helvetica,sans-Serif" font-size="10.00">Config::addToRequest</text>
</a>
</g>
</g>
<!-- Node26&#45;&gt;Node27 -->
<g id="edge1" class="edge"><title>Node26&#45;&gt;Node27</title>
<path fill="none" stroke="midnightblue" d="M54.7364,-110.251C68.0969,-126.168 97.0523,-158.19 128,-176.698 131.449,-178.76 135.151,-180.634 138.95,-182.329"/>
<polygon fill="midnightblue" stroke="midnightblue" points="137.923,-185.689 148.507,-186.18 140.54,-179.196 137.923,-185.689"/>
</g>
<!-- Node28 -->
<g id="node3" class="node"><title>Node28</title>
<g id="a_node3"><a xlink:href="class_config.html#a890e1d585e9ae670a6cccaf196250870" target="_top" xlink:title="Config::atoc">
<polygon fill="none" stroke="black" points="150.5,-148.198 150.5,-167.198 220.5,-167.198 220.5,-148.198 150.5,-148.198"/>
<text text-anchor="middle" x="185.5" y="-155.198" font-family="Helvetica,sans-Serif" font-size="10.00">Config::atoc</text>
</a>
</g>
</g>
<!-- Node26&#45;&gt;Node28 -->
<g id="edge2" class="edge"><title>Node26&#45;&gt;Node28</title>
<path fill="none" stroke="midnightblue" d="M65.7152,-110.224C81.9619,-118.313 106.232,-129.965 128,-138.698 133.223,-140.793 138.776,-142.855 144.283,-144.804"/>
<polygon fill="midnightblue" stroke="midnightblue" points="143.471,-148.226 154.066,-148.172 145.75,-141.608 143.471,-148.226"/>
</g>
<!-- Node29 -->
<g id="node4" class="node"><title>Node29</title>
<g id="a_node4"><a xlink:href="class_config.html#a975933ecde91dc436d4ca39464cfd25f" target="_top" xlink:title="display all config on USART0 ">
<polygon fill="none" stroke="black" points="144.5,-110.198 144.5,-129.198 226.5,-129.198 226.5,-110.198 144.5,-110.198"/>
<text text-anchor="middle" x="185.5" y="-117.198" font-family="Helvetica,sans-Serif" font-size="10.00">Config::display</text>
</a>
</g>
</g>
<!-- Node26&#45;&gt;Node29 -->
<g id="edge3" class="edge"><title>Node26&#45;&gt;Node29</title>
<path fill="none" stroke="midnightblue" d="M92.0226,-106.919C105.504,-108.782 120.372,-110.837 134.172,-112.743"/>
<polygon fill="midnightblue" stroke="midnightblue" points="134.09,-116.265 144.475,-114.167 135.049,-109.331 134.09,-116.265"/>
</g>
<!-- Node31 -->
<g id="node6" class="node"><title>Node31</title>
<g id="a_node6"><a xlink:href="class_config.html#af2fee2ffae339b1e8ead1cd413e44ee3" target="_top" xlink:title="Initialize the eeprom memory. ">
<polygon fill="none" stroke="black" points="142.5,-22.6978 142.5,-52.6978 228.5,-52.6978 228.5,-22.6978 142.5,-22.6978"/>
<text text-anchor="start" x="150.5" y="-40.6978" font-family="Helvetica,sans-Serif" font-size="10.00">Config::initialize</text>
<text text-anchor="middle" x="185.5" y="-29.6978" font-family="Helvetica,sans-Serif" font-size="10.00">_eeprom</text>
</a>
</g>
</g>
<!-- Node26&#45;&gt;Node31 -->
<g id="edge5" class="edge"><title>Node26&#45;&gt;Node31</title>
<path fill="none" stroke="midnightblue" d="M67.8833,-91.1295C87.6019,-82.0948 117.75,-68.2815 142.452,-56.9633"/>
<polygon fill="midnightblue" stroke="midnightblue" points="143.987,-60.1102 151.62,-52.7628 141.071,-53.7464 143.987,-60.1102"/>
</g>
<!-- Node32 -->
<g id="node7" class="node"><title>Node32</title>
<g id="a_node7"><a xlink:href="class_config.html#a5fefd76d384c0a710ea0dd0d71d5d05b" target="_top" xlink:title="Update saved config data in the eeprom. ">
<polygon fill="none" stroke="black" points="279,-69.1978 279,-88.1978 397,-88.1978 397,-69.1978 279,-69.1978"/>
<text text-anchor="middle" x="338" y="-76.1978" font-family="Helvetica,sans-Serif" font-size="10.00">Config::update_epprom</text>
</a>
</g>
</g>
<!-- Node26&#45;&gt;Node32 -->
<g id="edge10" class="edge"><title>Node26&#45;&gt;Node32</title>
<path fill="none" stroke="midnightblue" d="M92.3125,-97.2603C139.529,-93.6783 214.08,-88.0228 268.493,-83.8949"/>
<polygon fill="midnightblue" stroke="midnightblue" points="269.044,-87.3633 278.75,-83.1168 268.514,-80.3833 269.044,-87.3633"/>
</g>
<!-- Node33 -->
<g id="node8" class="node"><title>Node33</title>
<g id="a_node8"><a xlink:href="class_config.html#ab55107c3371b6c41be6688c0989993c7" target="_top" xlink:title="Load saved config data from the eeprom. ">
<polygon fill="none" stroke="black" points="284.5,-28.1978 284.5,-47.1978 391.5,-47.1978 391.5,-28.1978 284.5,-28.1978"/>
<text text-anchor="middle" x="338" y="-35.1978" font-family="Helvetica,sans-Serif" font-size="10.00">Config::load_eeprom</text>
</a>
</g>
</g>
<!-- Node26&#45;&gt;Node33 -->
<g id="edge9" class="edge"><title>Node26&#45;&gt;Node33</title>
<path fill="none" stroke="midnightblue" d="M52.1208,-91.1561C63.049,-71.9456 90.73,-29.0473 128,-12.6978 187.019,13.1926 263.912,-8.45436 306.041,-24.4282"/>
<polygon fill="midnightblue" stroke="midnightblue" points="304.888,-27.7357 315.476,-28.1332 307.447,-21.2201 304.888,-27.7357"/>
</g>
<!-- Node30 -->
<g id="node5" class="node"><title>Node30</title>
<g id="a_node5"><a xlink:href="class_usart.html#ab236d7c399791bbe1431f85e9b60f601" target="_top" xlink:title="USART string sender function. ">
<polygon fill="none" stroke="black" points="305.5,-110.198 305.5,-129.198 370.5,-129.198 370.5,-110.198 305.5,-110.198"/>
<text text-anchor="middle" x="338" y="-117.198" font-family="Helvetica,sans-Serif" font-size="10.00">Usart::print</text>
</a>
</g>
</g>
<!-- Node29&#45;&gt;Node30 -->
<g id="edge4" class="edge"><title>Node29&#45;&gt;Node30</title>
<path fill="none" stroke="midnightblue" d="M226.831,-119.698C247.932,-119.698 273.74,-119.698 295.071,-119.698"/>
<polygon fill="midnightblue" stroke="midnightblue" points="295.143,-123.198 305.143,-119.698 295.143,-116.198 295.143,-123.198"/>
</g>
<!-- Node31&#45;&gt;Node32 -->
<g id="edge6" class="edge"><title>Node31&#45;&gt;Node32</title>
<path fill="none" stroke="midnightblue" d="M228.823,-49.2277C248.607,-54.6174 272.174,-61.0374 292.252,-66.5074"/>
<polygon fill="midnightblue" stroke="midnightblue" points="291.527,-69.9373 302.095,-69.1889 293.367,-63.1835 291.527,-69.9373"/>
</g>
<!-- Node31&#45;&gt;Node33 -->
<g id="edge7" class="edge"><title>Node31&#45;&gt;Node33</title>
<path fill="none" stroke="midnightblue" d="M228.823,-31.5585C242.81,-31.0053 258.687,-30.8279 273.886,-31.0264"/>
<polygon fill="midnightblue" stroke="midnightblue" points="274.203,-34.533 284.268,-31.2239 274.337,-27.5343 274.203,-34.533"/>
</g>
<!-- Node33&#45;&gt;Node31 -->
<g id="edge8" class="edge"><title>Node33&#45;&gt;Node31</title>
<path fill="none" stroke="midnightblue" d="M284.268,-44.1717C269.661,-44.5401 253.807,-44.5398 239.202,-44.1709"/>
<polygon fill="midnightblue" stroke="midnightblue" points="238.931,-40.6605 228.823,-43.8371 238.705,-47.6569 238.931,-40.6605"/>
</g>
</g>
</svg>
