<?xml version="1.0" encoding="UTF-8" standalone="no"?>
<!DOCTYPE svg PUBLIC "-//W3C//DTD SVG 1.1//EN"
 "http://www.w3.org/Graphics/SVG/1.1/DTD/svg11.dtd">
<!-- Generated by graphviz version 2.38.0 (20140413.2041)
 -->
<!-- Title: Config::initialize_eeprom Pages: 1 -->
<svg width="248pt" height="72pt"
 viewBox="0.00 0.00 248.00 71.50" xmlns="http://www.w3.org/2000/svg" xmlns:xlink="http://www.w3.org/1999/xlink">
<g id="graph0" class="graph" transform="scale(1 1) rotate(0) translate(4 67.5)">
<title>Config::initialize_eeprom</title>
<!-- Node43 -->
<g id="node1" class="node"><title>Node43</title>
<polygon fill="#bfbfbf" stroke="black" points="0,-33 0,-63 86,-63 86,-33 0,-33"/>
<text text-anchor="start" x="8" y="-51" font-family="Helvetica,sans-Serif" font-size="10.00">Config::initialize</text>
<text text-anchor="middle" x="43" y="-40" font-family="Helvetica,sans-Serif" font-size="10.00">_eeprom</text>
</g>
<!-- Node44 -->
<g id="node2" class="node"><title>Node44</title>
<g id="a_node2"><a xlink:href="class_config.html#ab55107c3371b6c41be6688c0989993c7" target="_top" xlink:title="Load saved config data from the eeprom. ">
<polygon fill="none" stroke="black" points="127.5,-38.5 127.5,-57.5 234.5,-57.5 234.5,-38.5 127.5,-38.5"/>
<text text-anchor="middle" x="181" y="-45.5" font-family="Helvetica,sans-Serif" font-size="10.00">Config::load_eeprom</text>
</a>
</g>
</g>
<!-- Node43&#45;&gt;Node44 -->
<g id="edge1" class="edge"><title>Node43&#45;&gt;Node44</title>
<path fill="none" stroke="midnightblue" d="M86.2858,-41.6987C95.9936,-41.3438 106.521,-41.1995 116.897,-41.2656"/>
<polygon fill="midnightblue" stroke="midnightblue" points="117.139,-44.769 127.185,-41.4019 117.232,-37.7696 117.139,-44.769"/>
</g>
<!-- Node45 -->
<g id="node3" class="node"><title>Node45</title>
<g id="a_node3"><a xlink:href="class_config.html#a5fefd76d384c0a710ea0dd0d71d5d05b" target="_top" xlink:title="Update saved config data in the eeprom. ">
<polygon fill="none" stroke="black" points="122,-0.5 122,-19.5 240,-19.5 240,-0.5 122,-0.5"/>
<text text-anchor="middle" x="181" y="-7.5" font-family="Helvetica,sans-Serif" font-size="10.00">Config::update_epprom</text>
</a>
</g>
</g>
<!-- Node43&#45;&gt;Node45 -->
<g id="edge3" class="edge"><title>Node43&#45;&gt;Node45</title>
<path fill="none" stroke="midnightblue" d="M86.2858,-36.1849C102.171,-31.7464 120.251,-26.6945 136.265,-22.22"/>
<polygon fill="midnightblue" stroke="midnightblue" points="137.242,-25.5813 145.931,-19.5193 135.358,-18.8395 137.242,-25.5813"/>
</g>
<!-- Node44&#45;&gt;Node43 -->
<g id="edge2" class="edge"><title>Node44&#45;&gt;Node43</title>
<path fill="none" stroke="midnightblue" d="M127.185,-54.5981C117.125,-54.8024 106.599,-54.8006 96.5482,-54.5927"/>
<polygon fill="midnightblue" stroke="midnightblue" points="96.3811,-51.0866 86.2858,-54.3013 96.1824,-58.0838 96.3811,-51.0866"/>
</g>
</g>
</svg>
