<?xml version="1.0" encoding="UTF-8" standalone="no"?>
<!DOCTYPE svg PUBLIC "-//W3C//DTD SVG 1.1//EN"
 "http://www.w3.org/Graphics/SVG/1.1/DTD/svg11.dtd">
<!-- Generated by graphviz version 2.38.0 (20140413.2041)
 -->
<!-- Title: TWI::get_char Pages: 1 -->
<svg width="210pt" height="180pt"
 viewBox="0.00 0.00 210.00 180.00" xmlns="http://www.w3.org/2000/svg" xmlns:xlink="http://www.w3.org/1999/xlink">
<g id="graph0" class="graph" transform="scale(1 1) rotate(0) translate(4 176)">
<title>TWI::get_char</title>
<!-- Node9 -->
<g id="node1" class="node"><title>Node9</title>
<polygon fill="#bfbfbf" stroke="black" points="0,-76.5 0,-95.5 79,-95.5 79,-76.5 0,-76.5"/>
<text text-anchor="middle" x="39.5" y="-83.5" font-family="Helvetica,sans-Serif" font-size="10.00">TWI::get_char</text>
</g>
<!-- Node10 -->
<g id="node2" class="node"><title>Node10</title>
<g id="a_node2"><a xlink:href="class_t_w_i.html#a8fb1629575f81558db83b54955470136" target="_top" xlink:title="TWI::get_nack">
<polygon fill="none" stroke="black" points="118,-152.5 118,-171.5 199,-171.5 199,-152.5 118,-152.5"/>
<text text-anchor="middle" x="158.5" y="-159.5" font-family="Helvetica,sans-Serif" font-size="10.00">TWI::get_nack</text>
</a>
</g>
</g>
<!-- Node9&#45;&gt;Node10 -->
<g id="edge1" class="edge"><title>Node9&#45;&gt;Node10</title>
<path fill="none" stroke="midnightblue" d="M51.5243,-95.7571C65.5723,-107.87 90.928,-128.677 115,-143 118.008,-144.79 121.215,-146.518 124.468,-148.154"/>
<polygon fill="midnightblue" stroke="midnightblue" points="123.09,-151.375 133.626,-152.496 126.089,-145.05 123.09,-151.375"/>
</g>
<!-- Node11 -->
<g id="node3" class="node"><title>Node11</title>
<g id="a_node3"><a xlink:href="class_t_w_i.html#a6bde06891e3037d407b28a4ecbc3386f" target="_top" xlink:title="TWI::get_status">
<polygon fill="none" stroke="black" points="115,-114.5 115,-133.5 202,-133.5 202,-114.5 115,-114.5"/>
<text text-anchor="middle" x="158.5" y="-121.5" font-family="Helvetica,sans-Serif" font-size="10.00">TWI::get_status</text>
</a>
</g>
</g>
<!-- Node9&#45;&gt;Node11 -->
<g id="edge2" class="edge"><title>Node9&#45;&gt;Node11</title>
<path fill="none" stroke="midnightblue" d="M70.024,-95.589C84.7119,-100.359 102.66,-106.189 118.468,-111.323"/>
<polygon fill="midnightblue" stroke="midnightblue" points="117.393,-114.654 127.985,-114.414 119.556,-107.996 117.393,-114.654"/>
</g>
<!-- Node12 -->
<g id="node4" class="node"><title>Node12</title>
<g id="a_node4"><a xlink:href="class_t_w_i.html#a29a1270e7b1ee2b573c1a32e3214ac57" target="_top" xlink:title="TWI::restart">
<polygon fill="none" stroke="black" points="124,-76.5 124,-95.5 193,-95.5 193,-76.5 124,-76.5"/>
<text text-anchor="middle" x="158.5" y="-83.5" font-family="Helvetica,sans-Serif" font-size="10.00">TWI::restart</text>
</a>
</g>
</g>
<!-- Node9&#45;&gt;Node12 -->
<g id="edge3" class="edge"><title>Node9&#45;&gt;Node12</title>
<path fill="none" stroke="midnightblue" d="M79.1344,-86C90.142,-86 102.214,-86 113.515,-86"/>
<polygon fill="midnightblue" stroke="midnightblue" points="113.624,-89.5001 123.624,-86 113.624,-82.5001 113.624,-89.5001"/>
</g>
<!-- Node13 -->
<g id="node5" class="node"><title>Node13</title>
<g id="a_node5"><a xlink:href="class_t_w_i.html#a130b2bf159b768c28ae0d4129c556711" target="_top" xlink:title="TWI::start">
<polygon fill="none" stroke="black" points="128,-38.5 128,-57.5 189,-57.5 189,-38.5 128,-38.5"/>
<text text-anchor="middle" x="158.5" y="-45.5" font-family="Helvetica,sans-Serif" font-size="10.00">TWI::start</text>
</a>
</g>
</g>
<!-- Node9&#45;&gt;Node13 -->
<g id="edge4" class="edge"><title>Node9&#45;&gt;Node13</title>
<path fill="none" stroke="midnightblue" d="M70.024,-76.411C84.7119,-71.6406 102.66,-65.8112 118.468,-60.6771"/>
<polygon fill="midnightblue" stroke="midnightblue" points="119.556,-64.0039 127.985,-57.5859 117.393,-57.3462 119.556,-64.0039"/>
</g>
<!-- Node14 -->
<g id="node6" class="node"><title>Node14</title>
<g id="a_node6"><a xlink:href="class_t_w_i.html#a3ed950888f040e24dc9dcb0ba65d17f1" target="_top" xlink:title="TWI::stop">
<polygon fill="none" stroke="black" points="128.5,-0.5 128.5,-19.5 188.5,-19.5 188.5,-0.5 128.5,-0.5"/>
<text text-anchor="middle" x="158.5" y="-7.5" font-family="Helvetica,sans-Serif" font-size="10.00">TWI::stop</text>
</a>
</g>
</g>
<!-- Node9&#45;&gt;Node14 -->
<g id="edge5" class="edge"><title>Node9&#45;&gt;Node14</title>
<path fill="none" stroke="midnightblue" d="M51.5243,-76.2429C65.5723,-64.1304 90.928,-43.3233 115,-29 118.008,-27.21 121.215,-25.4818 124.468,-23.8457"/>
<polygon fill="midnightblue" stroke="midnightblue" points="126.089,-26.9505 133.626,-19.5041 123.09,-20.6253 126.089,-26.9505"/>
</g>
</g>
</svg>
