<?xml version="1.0" encoding="UTF-8" standalone="no"?>
<!DOCTYPE svg PUBLIC "-//W3C//DTD SVG 1.1//EN"
 "http://www.w3.org/Graphics/SVG/1.1/DTD/svg11.dtd">
<!-- Generated by graphviz version 2.38.0 (20140413.2041)
 -->
<!-- Title: Sensor::update_param Pages: 1 -->
<!--zoomable 192 -->
<svg id="main" version="1.1" xmlns="http://www.w3.org/2000/svg" xmlns:xlink="http://www.w3.org/1999/xlink" xml:space="preserve" onload="init(evt)">
<style type="text/css"><![CDATA[
.edge:hover path { stroke: red; }
.edge:hover polygon { stroke: red; fill: red; }
]]></style>
<script type="text/javascript"><![CDATA[
var edges = document.getElementsByTagName('g');
if (edges && edges.length) {
  for (var i=0;i<edges.length;i++) {
    if (edges[i].id.substr(0,4)=='edge') {
      edges[i].setAttribute('class','edge');
    }
  }
}
]]></script>
        <defs>
                <circle id="rim" cx="0" cy="0" r="7"/>
                <circle id="rim2" cx="0" cy="0" r="3.5"/>
                <g id="zoomPlus">
                        <use xlink:href="#rim" fill="#404040">
                                <set attributeName="fill" to="#808080" begin="zoomplus.mouseover" end="zoomplus.mouseout"/>
                        </use>
                        <path d="M-4,0h8M0,-4v8" fill="none" stroke="white" stroke-width="1.5" pointer-events="none"/>
                </g>
                <g id="zoomMin">
                        <use xlink:href="#rim" fill="#404040">
                                <set attributeName="fill" to="#808080" begin="zoomminus.mouseover" end="zoomminus.mouseout"/>
                        </use>
                        <path d="M-4,0h8" fill="none" stroke="white" stroke-width="1.5" pointer-events="none"/>
                </g>
                <g id="dirArrow">
                        <path fill="none" stroke="white" stroke-width="1.5" d="M0,-3.0v7 M-2.5,-0.5L0,-3.0L2.5,-0.5"/>
                </g>
               <g id="resetDef">
                       <use xlink:href="#rim2" fill="#404040">
                               <set attributeName="fill" to="#808080" begin="reset.mouseover" end="reset.mouseout"/>
                       </use>
               </g>
        </defs>

<script type="text/javascript">
var viewWidth = 706;
var viewHeight = 192;
var sectionId = 'dynsection-23';
</script>
<script xlink:href="svgpan.js"/>
<svg id="graph" class="graph">
<g id="viewport">
<title>Sensor::update_param</title>
<!-- Node169 -->
<g id="node1" class="node"><title>Node169</title>
<polygon fill="#bfbfbf" stroke="black" points="0,-57.5 0,-76.5 115,-76.5 115,-57.5 0,-57.5"/>
<text text-anchor="middle" x="57.5" y="-64.5" font-family="Helvetica,sans-Serif" font-size="10.00">Sensor::update_param</text>
</g>
<!-- Node170 -->
<g id="node2" class="node"><title>Node170</title>
<g id="a_node2"><a xlink:href="class_sensor.html#a4e88d49608387ab4f65734913e514109" target="_top" xlink:title="Sensor::is_enable">
<polygon fill="none" stroke="black" points="154,-114.5 154,-133.5 249,-133.5 249,-114.5 154,-114.5"/>
<text text-anchor="middle" x="201.5" y="-121.5" font-family="Helvetica,sans-Serif" font-size="10.00">Sensor::is_enable</text>
</a>
</g>
</g>
<!-- Node169&#45;&gt;Node170 -->
<g id="edge1" class="edge"><title>Node169&#45;&gt;Node170</title>
<path fill="none" stroke="midnightblue" d="M90.5853,-80.3958C108.35,-87.7586 130.852,-96.9958 151,-105 158.87,-108.127 167.477,-111.46 175.274,-114.447"/>
<polygon fill="midnightblue" stroke="midnightblue" points="91.8259,-77.1213 81.2483,-76.518 89.141,-83.5859 91.8259,-77.1213"/>
</g>
<!-- Node179 -->
<g id="node11" class="node"><title>Node179</title>
<g id="a_node11"><a xlink:href="class_sensor.html#aad89726b9c769ca2dbf7b121bae54b2e" target="_top" xlink:title="Sensor::set_enable">
<polygon fill="none" stroke="black" points="151,-76.5 151,-95.5 252,-95.5 252,-76.5 151,-76.5"/>
<text text-anchor="middle" x="201.5" y="-83.5" font-family="Helvetica,sans-Serif" font-size="10.00">Sensor::set_enable</text>
</a>
</g>
</g>
<!-- Node169&#45;&gt;Node179 -->
<g id="edge13" class="edge"><title>Node169&#45;&gt;Node179</title>
<path fill="none" stroke="midnightblue" d="M125.05,-75.9046C133.646,-77.0547 142.329,-78.2165 150.592,-79.3222"/>
<polygon fill="midnightblue" stroke="midnightblue" points="125.406,-72.4211 115.03,-74.5639 124.478,-79.3593 125.406,-72.4211"/>
</g>
<!-- Node181 -->
<g id="node13" class="node"><title>Node181</title>
<g id="a_node13"><a xlink:href="class_sensor.html#aed192cfaa131d7e89dadf6da01e9d609" target="_top" xlink:title="Sensor::set_factor">
<polygon fill="none" stroke="black" points="153,-38.5 153,-57.5 250,-57.5 250,-38.5 153,-38.5"/>
<text text-anchor="middle" x="201.5" y="-45.5" font-family="Helvetica,sans-Serif" font-size="10.00">Sensor::set_factor</text>
</a>
</g>
</g>
<!-- Node169&#45;&gt;Node181 -->
<g id="edge15" class="edge"><title>Node169&#45;&gt;Node181</title>
<path fill="none" stroke="midnightblue" d="M125.117,-58.0865C134.477,-56.834 143.94,-55.5679 152.85,-54.3757"/>
<polygon fill="midnightblue" stroke="midnightblue" points="124.478,-54.6407 115.03,-59.4361 125.406,-61.5789 124.478,-54.6407"/>
</g>
<!-- Node182 -->
<g id="node14" class="node"><title>Node182</title>
<g id="a_node14"><a xlink:href="class_sensor.html#ad713fef719161b27e6b93a0d3a371e0c" target="_top" xlink:title="Sensor::set_offset">
<polygon fill="none" stroke="black" points="153,-0.5 153,-19.5 250,-19.5 250,-0.5 153,-0.5"/>
<text text-anchor="middle" x="201.5" y="-7.5" font-family="Helvetica,sans-Serif" font-size="10.00">Sensor::set_offset</text>
</a>
</g>
</g>
<!-- Node169&#45;&gt;Node182 -->
<g id="edge17" class="edge"><title>Node169&#45;&gt;Node182</title>
<path fill="none" stroke="midnightblue" d="M90.5853,-53.6042C108.35,-46.2414 130.852,-37.0042 151,-29 158.87,-25.8734 167.477,-22.5402 175.274,-19.5527"/>
<polygon fill="midnightblue" stroke="midnightblue" points="89.141,-50.4141 81.2483,-57.482 91.8259,-56.8787 89.141,-50.4141"/>
</g>
<!-- Node171 -->
<g id="node3" class="node"><title>Node171</title>
<g id="a_node3"><a xlink:href="class_sensor.html#ae16fd0cbdda6cfed1deac36f5c7c0a8f" target="_top" xlink:title="This method calculate the average from the data array. ">
<polygon fill="none" stroke="black" points="295,-114.5 295,-133.5 406,-133.5 406,-114.5 295,-114.5"/>
<text text-anchor="middle" x="350.5" y="-121.5" font-family="Helvetica,sans-Serif" font-size="10.00">Sensor::calc_average</text>
</a>
</g>
</g>
<!-- Node170&#45;&gt;Node171 -->
<g id="edge2" class="edge"><title>Node170&#45;&gt;Node171</title>
<path fill="none" stroke="midnightblue" d="M259.123,-117.411C270.842,-117.184 283.166,-117.197 294.815,-117.451"/>
<polygon fill="midnightblue" stroke="midnightblue" points="258.918,-113.915 249.012,-117.672 259.099,-120.912 258.918,-113.915"/>
</g>
<!-- Node174 -->
<g id="node6" class="node"><title>Node174</title>
<g id="a_node6"><a xlink:href="class_sensor.html#a38a47820684e5ff0f61ad32b8afbde45" target="_top" xlink:title="The print_average method print the average&#39;s value in the string. ">
<polygon fill="none" stroke="black" points="294.5,-76.5 294.5,-95.5 406.5,-95.5 406.5,-76.5 294.5,-76.5"/>
<text text-anchor="middle" x="350.5" y="-83.5" font-family="Helvetica,sans-Serif" font-size="10.00">Sensor::print_average</text>
</a>
</g>
</g>
<!-- Node170&#45;&gt;Node174 -->
<g id="edge6" class="edge"><title>Node170&#45;&gt;Node174</title>
<path fill="none" stroke="midnightblue" d="M230.993,-111.166C248.941,-105.345 272.71,-98.8357 294.247,-93.7214"/>
<polygon fill="midnightblue" stroke="midnightblue" points="229.767,-107.886 221.417,-114.408 232.011,-114.517 229.767,-107.886"/>
</g>
<!-- Node177 -->
<g id="node9" class="node"><title>Node177</title>
<g id="a_node9"><a xlink:href="class_anemometer.html#a9be3b4b392ef08ef29c769e6ce4bebf4" target="_top" xlink:title="Anemometer::read_value">
<polygon fill="none" stroke="black" points="288,-155.5 288,-174.5 413,-174.5 413,-155.5 288,-155.5"/>
<text text-anchor="middle" x="350.5" y="-162.5" font-family="Helvetica,sans-Serif" font-size="10.00">Anemometer::read_value</text>
</a>
</g>
</g>
<!-- Node170&#45;&gt;Node177 -->
<g id="edge10" class="edge"><title>Node170&#45;&gt;Node177</title>
<path fill="none" stroke="midnightblue" d="M246.396,-136.243C268.462,-142.398 294.803,-149.744 315.336,-155.471"/>
<polygon fill="midnightblue" stroke="midnightblue" points="247.167,-132.825 236.594,-133.509 245.286,-139.567 247.167,-132.825"/>
</g>
<!-- Node171&#45;&gt;Node170 -->
<g id="edge5" class="edge"><title>Node171&#45;&gt;Node170</title>
<path fill="none" stroke="midnightblue" d="M284.798,-130.707C272.749,-130.826 260.38,-130.699 249.012,-130.328"/>
<polygon fill="midnightblue" stroke="midnightblue" points="284.871,-134.206 294.815,-130.549 284.761,-127.207 284.871,-134.206"/>
</g>
<!-- Node172 -->
<g id="node4" class="node"><title>Node172</title>
<g id="a_node4"><a xlink:href="class_measure.html#a1518672dff4f81603a35bff08c20e9f5" target="_top" xlink:title="calcul average from the data array ">
<polygon fill="none" stroke="black" points="449,-114.5 449,-133.5 567,-133.5 567,-114.5 449,-114.5"/>
<text text-anchor="middle" x="508" y="-121.5" font-family="Helvetica,sans-Serif" font-size="10.00">Measure::calc_average</text>
</a>
</g>
</g>
<!-- Node171&#45;&gt;Node172 -->
<g id="edge3" class="edge"><title>Node171&#45;&gt;Node172</title>
<path fill="none" stroke="midnightblue" d="M416.52,-124C427.291,-124 438.398,-124 448.982,-124"/>
<polygon fill="midnightblue" stroke="midnightblue" points="416.324,-120.5 406.323,-124 416.323,-127.5 416.324,-120.5"/>
</g>
<!-- Node173 -->
<g id="node5" class="node"><title>Node173</title>
<g id="a_node5"><a xlink:href="class_measure.html#a754d2de10d1a44bb3b62ab162ceeaae2" target="_top" xlink:title="The execute method is the measure &quot;main function&quot; The execute function work as this scheme : ...">
<polygon fill="none" stroke="black" points="603,-136.5 603,-155.5 698,-155.5 698,-136.5 603,-136.5"/>
<text text-anchor="middle" x="650.5" y="-143.5" font-family="Helvetica,sans-Serif" font-size="10.00">Measure::execute</text>
</a>
</g>
</g>
<!-- Node172&#45;&gt;Node173 -->
<g id="edge4" class="edge"><title>Node172&#45;&gt;Node173</title>
<path fill="none" stroke="midnightblue" d="M577.366,-134.705C585.927,-136.045 594.525,-137.392 602.651,-138.664"/>
<polygon fill="midnightblue" stroke="midnightblue" points="577.785,-131.228 567.364,-133.139 576.702,-138.144 577.785,-131.228"/>
</g>
<!-- Node174&#45;&gt;Node170 -->
<g id="edge7" class="edge"><title>Node174&#45;&gt;Node170</title>
<path fill="none" stroke="midnightblue" d="M320.938,-98.8559C300.527,-105.473 272.614,-112.974 249.012,-118.305"/>
<polygon fill="midnightblue" stroke="midnightblue" points="322.233,-102.113 330.583,-95.5924 319.989,-95.4821 322.233,-102.113"/>
</g>
<!-- Node175 -->
<g id="node7" class="node"><title>Node175</title>
<g id="a_node7"><a xlink:href="class_output.html#af4bc42d2d3bb3b2a98782f0df0eba133" target="_top" xlink:title="Output::usart0_print">
<polygon fill="none" stroke="black" points="456.5,-76.5 456.5,-95.5 559.5,-95.5 559.5,-76.5 456.5,-76.5"/>
<text text-anchor="middle" x="508" y="-83.5" font-family="Helvetica,sans-Serif" font-size="10.00">Output::usart0_print</text>
</a>
</g>
</g>
<!-- Node174&#45;&gt;Node175 -->
<g id="edge8" class="edge"><title>Node174&#45;&gt;Node175</title>
<path fill="none" stroke="midnightblue" d="M417.141,-86C430.245,-86 443.82,-86 456.327,-86"/>
<polygon fill="midnightblue" stroke="midnightblue" points="416.761,-82.5001 406.761,-86 416.761,-89.5001 416.761,-82.5001"/>
</g>
<!-- Node176 -->
<g id="node8" class="node"><title>Node176</title>
<g id="a_node8"><a xlink:href="class_output.html#a087f4330e641bb4682ab2862bca7a1af" target="_top" xlink:title="Output::execute">
<polygon fill="none" stroke="black" points="607.5,-76.5 607.5,-95.5 693.5,-95.5 693.5,-76.5 607.5,-76.5"/>
<text text-anchor="middle" x="650.5" y="-83.5" font-family="Helvetica,sans-Serif" font-size="10.00">Output::execute</text>
</a>
</g>
</g>
<!-- Node175&#45;&gt;Node176 -->
<g id="edge9" class="edge"><title>Node175&#45;&gt;Node176</title>
<path fill="none" stroke="midnightblue" d="M569.726,-86C582.349,-86 595.391,-86 607.179,-86"/>
<polygon fill="midnightblue" stroke="midnightblue" points="569.724,-82.5001 559.724,-86 569.724,-89.5001 569.724,-82.5001"/>
</g>
<!-- Node178 -->
<g id="node10" class="node"><title>Node178</title>
<g id="a_node10"><a xlink:href="class_measure.html#a4390d770b19dbc51e5486fefe9f4b9d1" target="_top" xlink:title="read value from anemometer and RPM ">
<polygon fill="none" stroke="black" points="457.5,-153 457.5,-183 558.5,-183 558.5,-153 457.5,-153"/>
<text text-anchor="start" x="465.5" y="-171" font-family="Helvetica,sans-Serif" font-size="10.00">Measure::freq_read</text>
<text text-anchor="middle" x="508" y="-160" font-family="Helvetica,sans-Serif" font-size="10.00">_value</text>
</a>
</g>
</g>
<!-- Node177&#45;&gt;Node178 -->
<g id="edge11" class="edge"><title>Node177&#45;&gt;Node178</title>
<path fill="none" stroke="midnightblue" d="M423.747,-166.394C435.088,-166.613 446.585,-166.834 457.268,-167.041"/>
<polygon fill="midnightblue" stroke="midnightblue" points="423.47,-162.888 413.405,-166.194 423.335,-169.887 423.47,-162.888"/>
</g>
<!-- Node178&#45;&gt;Node173 -->
<g id="edge12" class="edge"><title>Node178&#45;&gt;Node173</title>
<path fill="none" stroke="midnightblue" d="M568.472,-158.688C579.931,-156.893 591.782,-155.038 602.766,-153.318"/>
<polygon fill="midnightblue" stroke="midnightblue" points="567.873,-155.239 558.535,-160.244 568.956,-162.154 567.873,-155.239"/>
</g>
<!-- Node180 -->
<g id="node12" class="node"><title>Node180</title>
<g id="a_node12"><a xlink:href="class_config.html#a2a806f322b0d533aabdb8e796d3b1033" target="_top" xlink:title="The execute method is the config &quot;main function&quot; In this method, sentence from the uart are process e...">
<polygon fill="none" stroke="black" points="307.5,-38.5 307.5,-57.5 393.5,-57.5 393.5,-38.5 307.5,-38.5"/>
<text text-anchor="middle" x="350.5" y="-45.5" font-family="Helvetica,sans-Serif" font-size="10.00">Config::execute</text>
</a>
</g>
</g>
<!-- Node179&#45;&gt;Node180 -->
<g id="edge14" class="edge"><title>Node179&#45;&gt;Node180</title>
<path fill="none" stroke="midnightblue" d="M249.355,-73.8879C269.828,-68.5956 293.49,-62.4787 312.672,-57.5201"/>
<polygon fill="midnightblue" stroke="midnightblue" points="248.4,-70.5195 239.594,-76.411 250.152,-77.2968 248.4,-70.5195"/>
</g>
<!-- Node181&#45;&gt;Node180 -->
<g id="edge16" class="edge"><title>Node181&#45;&gt;Node180</title>
<path fill="none" stroke="midnightblue" d="M260.377,-48C276.091,-48 292.803,-48 307.459,-48"/>
<polygon fill="midnightblue" stroke="midnightblue" points="260.227,-44.5001 250.227,-48 260.227,-51.5001 260.227,-44.5001"/>
</g>
<!-- Node182&#45;&gt;Node180 -->
<g id="edge18" class="edge"><title>Node182&#45;&gt;Node180</title>
<path fill="none" stroke="midnightblue" d="M249.355,-22.1121C269.828,-27.4044 293.49,-33.5213 312.672,-38.4799"/>
<polygon fill="midnightblue" stroke="midnightblue" points="250.152,-18.7032 239.594,-19.589 248.4,-25.4805 250.152,-18.7032"/>
</g>
</g>
</svg>
        <g id="navigator" transform="translate(0 0)" fill="#404254">
                <rect fill="#f2f5e9" fill-opacity="0.5" stroke="#606060" stroke-width=".5" x="0" y="0" width="60" height="60"/>
                <use id="zoomplus" xlink:href="#zoomPlus" x="17" y="9" onmousedown="handleZoom(evt,'in')"/>
                <use id="zoomminus" xlink:href="#zoomMin" x="42" y="9" onmousedown="handleZoom(evt,'out')"/>
                <use id="reset" xlink:href="#resetDef" x="30" y="36" onmousedown="handleReset()"/>
                <g id="arrowUp" xlink:href="#dirArrow" transform="translate(30 24)" onmousedown="handlePan(0,-1)">
                  <use xlink:href="#rim" fill="#404040">
                        <set attributeName="fill" to="#808080" begin="arrowUp.mouseover" end="arrowUp.mouseout"/>
                  </use>
                  <path fill="none" stroke="white" stroke-width="1.5" d="M0,-3.0v7 M-2.5,-0.5L0,-3.0L2.5,-0.5"/>
                </g>
                <g id="arrowRight" xlink:href="#dirArrow" transform="rotate(90) translate(36 -43)" onmousedown="handlePan(1,0)">
                  <use xlink:href="#rim" fill="#404040">
                        <set attributeName="fill" to="#808080" begin="arrowRight.mouseover" end="arrowRight.mouseout"/>
                  </use>
                  <path fill="none" stroke="white" stroke-width="1.5" d="M0,-3.0v7 M-2.5,-0.5L0,-3.0L2.5,-0.5"/>
                </g>
                <g id="arrowDown" xlink:href="#dirArrow" transform="rotate(180) translate(-30 -48)" onmousedown="handlePan(0,1)">
                  <use xlink:href="#rim" fill="#404040">
                        <set attributeName="fill" to="#808080" begin="arrowDown.mouseover" end="arrowDown.mouseout"/>
                  </use>
                  <path fill="none" stroke="white" stroke-width="1.5" d="M0,-3.0v7 M-2.5,-0.5L0,-3.0L2.5,-0.5"/>
                </g>
                <g id="arrowLeft" xlink:href="#dirArrow" transform="rotate(270) translate(-36 17)" onmousedown="handlePan(-1,0)">
                  <use xlink:href="#rim" fill="#404040">
                        <set attributeName="fill" to="#808080" begin="arrowLeft.mouseover" end="arrowLeft.mouseout"/>
                  </use>
                  <path fill="none" stroke="white" stroke-width="1.5" d="M0,-3.0v7 M-2.5,-0.5L0,-3.0L2.5,-0.5"/>
                </g>
        </g>
        <svg viewBox="0 0 15 15" width="100%" height="30px" preserveAspectRatio="xMaxYMin meet">
         <g id="arrow_out" transform="scale(0.3 0.3)">
          <a xlink:href="class_sensor_abf05dcc164ceadf01fa48c32fbaf040a_icgraph_org.svg" target="_base">
           <rect id="button" ry="5" rx="5" y="6" x="6" height="38" width="38"
                fill="#f2f5e9" fill-opacity="0.5" stroke="#606060" stroke-width="1.0"/>
           <path id="arrow"
             d="M 11.500037,31.436501 C 11.940474,20.09759 22.043105,11.32322 32.158766,21.979434 L 37.068811,17.246167 C 37.068811,17.246167 37.088388,32 37.088388,32 L 22.160133,31.978069 C 22.160133,31.978069 26.997745,27.140456 26.997745,27.140456 C 18.528582,18.264221 13.291696,25.230495 11.500037,31.436501 z"
             style="fill:#404040;"/>
          </a>
         </g>
        </svg>
</svg>
