<?xml version="1.0" encoding="UTF-8" standalone="no"?>
<!DOCTYPE svg PUBLIC "-//W3C//DTD SVG 1.1//EN"
 "http://www.w3.org/Graphics/SVG/1.1/DTD/svg11.dtd">
<!-- Generated by graphviz version 2.38.0 (20140413.2041)
 -->
<!-- Title: Sensor::print_config Pages: 1 -->
<svg width="708pt" height="190pt"
 viewBox="0.00 0.00 708.00 190.00" xmlns="http://www.w3.org/2000/svg" xmlns:xlink="http://www.w3.org/1999/xlink">
<g id="graph0" class="graph" transform="scale(1 1) rotate(0) translate(4 186)">
<title>Sensor::print_config</title>
<!-- Node117 -->
<g id="node1" class="node"><title>Node117</title>
<polygon fill="#bfbfbf" stroke="black" points="0,-103.5 0,-122.5 104,-122.5 104,-103.5 0,-103.5"/>
<text text-anchor="middle" x="52" y="-110.5" font-family="Helvetica,sans-Serif" font-size="10.00">Sensor::print_config</text>
</g>
<!-- Node118 -->
<g id="node2" class="node"><title>Node118</title>
<g id="a_node2"><a xlink:href="class_config.html#a975933ecde91dc436d4ca39464cfd25f" target="_top" xlink:title="display all config on USART0 ">
<polygon fill="none" stroke="black" points="146.5,-124.5 146.5,-143.5 228.5,-143.5 228.5,-124.5 146.5,-124.5"/>
<text text-anchor="middle" x="187.5" y="-131.5" font-family="Helvetica,sans-Serif" font-size="10.00">Config::display</text>
</a>
</g>
</g>
<!-- Node117&#45;&gt;Node118 -->
<g id="edge1" class="edge"><title>Node117&#45;&gt;Node118</title>
<path fill="none" stroke="midnightblue" d="M114.18,-122.624C125.11,-124.343 136.241,-126.094 146.389,-127.69"/>
<polygon fill="midnightblue" stroke="midnightblue" points="114.655,-119.156 104.233,-121.059 113.567,-126.071 114.655,-119.156"/>
</g>
<!-- Node123 -->
<g id="node7" class="node"><title>Node123</title>
<g id="a_node7"><a xlink:href="class_sensor.html#a4e88d49608387ab4f65734913e514109" target="_top" xlink:title="Sensor::is_enable">
<polygon fill="none" stroke="black" points="140,-64.5 140,-83.5 235,-83.5 235,-64.5 140,-64.5"/>
<text text-anchor="middle" x="187.5" y="-71.5" font-family="Helvetica,sans-Serif" font-size="10.00">Sensor::is_enable</text>
</a>
</g>
</g>
<!-- Node117&#45;&gt;Node123 -->
<g id="edge6" class="edge"><title>Node117&#45;&gt;Node123</title>
<path fill="none" stroke="midnightblue" d="M95.4863,-100.588C114.33,-95.0833 136.16,-88.706 153.717,-83.5771"/>
<polygon fill="midnightblue" stroke="midnightblue" points="94.2751,-97.2957 85.6578,-103.46 96.238,-104.015 94.2751,-97.2957"/>
</g>
<!-- Node119 -->
<g id="node3" class="node"><title>Node119</title>
<g id="a_node3"><a xlink:href="class_config.html#a5ae6c4f7255e895e7384fc2a4baab160" target="_top" xlink:title="Config::endString">
<polygon fill="none" stroke="black" points="287.5,-124.5 287.5,-143.5 379.5,-143.5 379.5,-124.5 287.5,-124.5"/>
<text text-anchor="middle" x="333.5" y="-131.5" font-family="Helvetica,sans-Serif" font-size="10.00">Config::endString</text>
</a>
</g>
</g>
<!-- Node118&#45;&gt;Node119 -->
<g id="edge2" class="edge"><title>Node118&#45;&gt;Node119</title>
<path fill="none" stroke="midnightblue" d="M238.731,-134C254.523,-134 271.856,-134 287.279,-134"/>
<polygon fill="midnightblue" stroke="midnightblue" points="238.612,-130.5 228.612,-134 238.612,-137.5 238.612,-130.5"/>
</g>
<!-- Node122 -->
<g id="node6" class="node"><title>Node122</title>
<g id="a_node6"><a xlink:href="class_config.html#a2a806f322b0d533aabdb8e796d3b1033" target="_top" xlink:title="The execute method is the config &quot;main function&quot; In this method, sentence from the uart are process e...">
<polygon fill="none" stroke="black" points="290.5,-162.5 290.5,-181.5 376.5,-181.5 376.5,-162.5 290.5,-162.5"/>
<text text-anchor="middle" x="333.5" y="-169.5" font-family="Helvetica,sans-Serif" font-size="10.00">Config::execute</text>
</a>
</g>
</g>
<!-- Node118&#45;&gt;Node122 -->
<g id="edge5" class="edge"><title>Node118&#45;&gt;Node122</title>
<path fill="none" stroke="midnightblue" d="M234.672,-146.184C254.664,-151.46 277.719,-157.544 296.424,-162.48"/>
<polygon fill="midnightblue" stroke="midnightblue" points="235.399,-142.756 224.837,-143.589 233.613,-149.525 235.399,-142.756"/>
</g>
<!-- Node120 -->
<g id="node4" class="node"><title>Node120</title>
<g id="a_node4"><a xlink:href="class_f_s_m.html#a3819be8e9fe92b750f47b9731e92f254" target="_top" xlink:title="Call when a string from usart0 finish by &quot;\r\n&quot;. ">
<polygon fill="none" stroke="black" points="432,-126.5 432,-145.5 569,-145.5 569,-126.5 432,-126.5"/>
<text text-anchor="middle" x="500.5" y="-133.5" font-family="Helvetica,sans-Serif" font-size="10.00">FSM::character_processing</text>
</a>
</g>
</g>
<!-- Node119&#45;&gt;Node120 -->
<g id="edge3" class="edge"><title>Node119&#45;&gt;Node120</title>
<path fill="none" stroke="midnightblue" d="M389.685,-134.669C403.208,-134.833 417.834,-135.01 431.867,-135.18"/>
<polygon fill="midnightblue" stroke="midnightblue" points="389.629,-131.168 379.587,-134.547 389.544,-138.168 389.629,-131.168"/>
</g>
<!-- Node121 -->
<g id="node5" class="node"><title>Node121</title>
<g id="a_node5"><a xlink:href="main_8cpp.html#ae66f6b31b5ad750f1fe042a706a4e3d4" target="_top" xlink:title="main">
<polygon fill="none" stroke="black" points="633.5,-126.5 633.5,-145.5 671.5,-145.5 671.5,-126.5 633.5,-126.5"/>
<text text-anchor="middle" x="652.5" y="-133.5" font-family="Helvetica,sans-Serif" font-size="10.00">main</text>
</a>
</g>
</g>
<!-- Node120&#45;&gt;Node121 -->
<g id="edge4" class="edge"><title>Node120&#45;&gt;Node121</title>
<path fill="none" stroke="midnightblue" d="M579.046,-136C599.441,-136 619.584,-136 633.434,-136"/>
<polygon fill="midnightblue" stroke="midnightblue" points="579.04,-132.5 569.04,-136 579.04,-139.5 579.04,-132.5"/>
</g>
<!-- Node124 -->
<g id="node8" class="node"><title>Node124</title>
<g id="a_node8"><a xlink:href="class_sensor.html#ae16fd0cbdda6cfed1deac36f5c7c0a8f" target="_top" xlink:title="This method calculate the average from the data array. ">
<polygon fill="none" stroke="black" points="278,-7.5 278,-26.5 389,-26.5 389,-7.5 278,-7.5"/>
<text text-anchor="middle" x="333.5" y="-14.5" font-family="Helvetica,sans-Serif" font-size="10.00">Sensor::calc_average</text>
</a>
</g>
</g>
<!-- Node123&#45;&gt;Node124 -->
<g id="edge7" class="edge"><title>Node123&#45;&gt;Node124</title>
<path fill="none" stroke="midnightblue" d="M205.549,-58.4246C222.037,-48.1633 247.856,-35.8609 271,-27 273.192,-26.1609 275.438,-25.3317 277.714,-24.5212"/>
<polygon fill="midnightblue" stroke="midnightblue" points="203.34,-55.6929 197.01,-64.1891 207.257,-61.4946 203.34,-55.6929"/>
</g>
<!-- Node127 -->
<g id="node11" class="node"><title>Node127</title>
<g id="a_node11"><a xlink:href="class_sensor.html#a38a47820684e5ff0f61ad32b8afbde45" target="_top" xlink:title="The print_average method print the average&#39;s value in the string. ">
<polygon fill="none" stroke="black" points="277.5,-83.5 277.5,-102.5 389.5,-102.5 389.5,-83.5 277.5,-83.5"/>
<text text-anchor="middle" x="333.5" y="-90.5" font-family="Helvetica,sans-Serif" font-size="10.00">Sensor::print_average</text>
</a>
</g>
</g>
<!-- Node123&#45;&gt;Node127 -->
<g id="edge11" class="edge"><title>Node123&#45;&gt;Node127</title>
<path fill="none" stroke="midnightblue" d="M245.336,-74.884C264.954,-77.1189 286.146,-80.2571 302.722,-83.4819"/>
<polygon fill="midnightblue" stroke="midnightblue" points="245.569,-71.3891 235.253,-73.802 244.822,-78.3491 245.569,-71.3891"/>
</g>
<!-- Node130 -->
<g id="node14" class="node"><title>Node130</title>
<g id="a_node14"><a xlink:href="class_anemometer.html#a9be3b4b392ef08ef29c769e6ce4bebf4" target="_top" xlink:title="Anemometer::read_value">
<polygon fill="none" stroke="black" points="271,-45.5 271,-64.5 396,-64.5 396,-45.5 271,-45.5"/>
<text text-anchor="middle" x="333.5" y="-52.5" font-family="Helvetica,sans-Serif" font-size="10.00">Anemometer::read_value</text>
</a>
</g>
</g>
<!-- Node123&#45;&gt;Node130 -->
<g id="edge15" class="edge"><title>Node123&#45;&gt;Node130</title>
<path fill="none" stroke="midnightblue" d="M245.288,-66.5072C253.658,-65.4028 262.316,-64.2604 270.78,-63.1436"/>
<polygon fill="midnightblue" stroke="midnightblue" points="244.709,-63.0531 235.253,-67.8312 245.625,-69.993 244.709,-63.0531"/>
</g>
<!-- Node124&#45;&gt;Node123 -->
<g id="edge10" class="edge"><title>Node124&#45;&gt;Node123</title>
<path fill="none" stroke="midnightblue" d="M311.442,-30.6638C299.456,-35.2215 284.238,-39.9318 271,-45 255.537,-50.9202 238.879,-58.3766 224.609,-64.4922"/>
<polygon fill="midnightblue" stroke="midnightblue" points="313.117,-33.7582 321.012,-26.6928 310.434,-27.2927 313.117,-33.7582"/>
</g>
<!-- Node125 -->
<g id="node9" class="node"><title>Node125</title>
<g id="a_node9"><a xlink:href="class_measure.html#a1518672dff4f81603a35bff08c20e9f5" target="_top" xlink:title="calcul average from the data array ">
<polygon fill="none" stroke="black" points="441.5,-0.5 441.5,-19.5 559.5,-19.5 559.5,-0.5 441.5,-0.5"/>
<text text-anchor="middle" x="500.5" y="-7.5" font-family="Helvetica,sans-Serif" font-size="10.00">Measure::calc_average</text>
</a>
</g>
</g>
<!-- Node124&#45;&gt;Node125 -->
<g id="edge8" class="edge"><title>Node124&#45;&gt;Node125</title>
<path fill="none" stroke="midnightblue" d="M399.795,-14.2299C413.537,-13.6469 427.946,-13.0356 441.403,-12.4647"/>
<polygon fill="midnightblue" stroke="midnightblue" points="399.285,-10.7483 389.443,-14.6691 399.582,-17.742 399.285,-10.7483"/>
</g>
<!-- Node126 -->
<g id="node10" class="node"><title>Node126</title>
<g id="a_node10"><a xlink:href="class_measure.html#a754d2de10d1a44bb3b62ab162ceeaae2" target="_top" xlink:title="The execute method is the measure &quot;main function&quot; The execute function work as this scheme : ...">
<polygon fill="none" stroke="black" points="605,-22.5 605,-41.5 700,-41.5 700,-22.5 605,-22.5"/>
<text text-anchor="middle" x="652.5" y="-29.5" font-family="Helvetica,sans-Serif" font-size="10.00">Measure::execute</text>
</a>
</g>
</g>
<!-- Node125&#45;&gt;Node126 -->
<g id="edge9" class="edge"><title>Node125&#45;&gt;Node126</title>
<path fill="none" stroke="midnightblue" d="M570.099,-20.0611C581.771,-21.7731 593.651,-23.5155 604.598,-25.1211"/>
<polygon fill="midnightblue" stroke="midnightblue" points="570.326,-16.557 559.923,-18.5688 569.31,-23.4829 570.326,-16.557"/>
</g>
<!-- Node127&#45;&gt;Node123 -->
<g id="edge12" class="edge"><title>Node127&#45;&gt;Node123</title>
<path fill="none" stroke="midnightblue" d="M267.386,-91.131C250.251,-89.0075 232.592,-86.3009 218.337,-83.5295"/>
<polygon fill="midnightblue" stroke="midnightblue" points="267.043,-94.6148 277.384,-92.31 267.863,-87.6629 267.043,-94.6148"/>
</g>
<!-- Node128 -->
<g id="node12" class="node"><title>Node128</title>
<g id="a_node12"><a xlink:href="class_output.html#af4bc42d2d3bb3b2a98782f0df0eba133" target="_top" xlink:title="Output::usart0_print">
<polygon fill="none" stroke="black" points="449,-88.5 449,-107.5 552,-107.5 552,-88.5 449,-88.5"/>
<text text-anchor="middle" x="500.5" y="-95.5" font-family="Helvetica,sans-Serif" font-size="10.00">Output::usart0_print</text>
</a>
</g>
</g>
<!-- Node127&#45;&gt;Node128 -->
<g id="edge13" class="edge"><title>Node127&#45;&gt;Node128</title>
<path fill="none" stroke="midnightblue" d="M399.918,-94.9824C416.238,-95.4769 433.491,-95.9997 448.968,-96.4687"/>
<polygon fill="midnightblue" stroke="midnightblue" points="400.003,-91.4834 389.902,-94.6788 399.791,-98.4802 400.003,-91.4834"/>
</g>
<!-- Node129 -->
<g id="node13" class="node"><title>Node129</title>
<g id="a_node13"><a xlink:href="class_output.html#a087f4330e641bb4682ab2862bca7a1af" target="_top" xlink:title="Output::execute">
<polygon fill="none" stroke="black" points="609.5,-88.5 609.5,-107.5 695.5,-107.5 695.5,-88.5 609.5,-88.5"/>
<text text-anchor="middle" x="652.5" y="-95.5" font-family="Helvetica,sans-Serif" font-size="10.00">Output::execute</text>
</a>
</g>
</g>
<!-- Node128&#45;&gt;Node129 -->
<g id="edge14" class="edge"><title>Node128&#45;&gt;Node129</title>
<path fill="none" stroke="midnightblue" d="M562.455,-98C578.166,-98 594.73,-98 609.255,-98"/>
<polygon fill="midnightblue" stroke="midnightblue" points="562.283,-94.5001 552.283,-98 562.283,-101.5 562.283,-94.5001"/>
</g>
<!-- Node131 -->
<g id="node15" class="node"><title>Node131</title>
<g id="a_node15"><a xlink:href="class_measure.html#a4390d770b19dbc51e5486fefe9f4b9d1" target="_top" xlink:title="read value from anemometer and RPM ">
<polygon fill="none" stroke="black" points="450,-39 450,-69 551,-69 551,-39 450,-39"/>
<text text-anchor="start" x="458" y="-57" font-family="Helvetica,sans-Serif" font-size="10.00">Measure::freq_read</text>
<text text-anchor="middle" x="500.5" y="-46" font-family="Helvetica,sans-Serif" font-size="10.00">_value</text>
</a>
</g>
</g>
<!-- Node130&#45;&gt;Node131 -->
<g id="edge16" class="edge"><title>Node130&#45;&gt;Node131</title>
<path fill="none" stroke="midnightblue" d="M406.455,-54.5639C421.103,-54.4751 436.203,-54.3836 449.864,-54.3008"/>
<polygon fill="midnightblue" stroke="midnightblue" points="406.388,-51.0642 396.409,-54.6248 406.43,-58.064 406.388,-51.0642"/>
</g>
<!-- Node131&#45;&gt;Node126 -->
<g id="edge17" class="edge"><title>Node131&#45;&gt;Node126</title>
<path fill="none" stroke="midnightblue" d="M560.964,-45.2786C575.541,-43.1406 590.937,-40.8825 604.817,-38.8468"/>
<polygon fill="midnightblue" stroke="midnightblue" points="560.418,-41.8212 551.031,-46.7354 561.433,-48.7471 560.418,-41.8212"/>
</g>
</g>
</svg>
