<?xml version="1.0" encoding="UTF-8" standalone="no"?>
<!DOCTYPE svg PUBLIC "-//W3C//DTD SVG 1.1//EN"
 "http://www.w3.org/Graphics/SVG/1.1/DTD/svg11.dtd">
<!-- Generated by graphviz version 2.38.0 (20140413.2041)
 -->
<!-- Title: Sensor::print_config Pages: 1 -->
<svg width="620pt" height="66pt"
 viewBox="0.00 0.00 620.00 66.00" xmlns="http://www.w3.org/2000/svg" xmlns:xlink="http://www.w3.org/1999/xlink">
<g id="graph0" class="graph" transform="scale(1 1) rotate(0) translate(4 62)">
<title>Sensor::print_config</title>
<!-- Node44 -->
<g id="node1" class="node"><title>Node44</title>
<polygon fill="#bfbfbf" stroke="black" points="0,-19.5 0,-38.5 104,-38.5 104,-19.5 0,-19.5"/>
<text text-anchor="middle" x="52" y="-26.5" font-family="Helvetica,sans-Serif" font-size="10.00">Sensor::print_config</text>
</g>
<!-- Node45 -->
<g id="node2" class="node"><title>Node45</title>
<g id="a_node2"><a xlink:href="class_config.html#a975933ecde91dc436d4ca39464cfd25f" target="_top" xlink:title="display all config on USART0 ">
<polygon fill="none" stroke="black" points="147.5,-38.5 147.5,-57.5 229.5,-57.5 229.5,-38.5 147.5,-38.5"/>
<text text-anchor="middle" x="188.5" y="-45.5" font-family="Helvetica,sans-Serif" font-size="10.00">Config::display</text>
</a>
</g>
</g>
<!-- Node44&#45;&gt;Node45 -->
<g id="edge1" class="edge"><title>Node44&#45;&gt;Node45</title>
<path fill="none" stroke="midnightblue" d="M114.387,-37.6717C125.549,-39.2486 136.928,-40.8561 147.282,-42.3187"/>
<polygon fill="midnightblue" stroke="midnightblue" points="114.624,-34.1705 104.232,-36.2373 113.644,-41.1017 114.624,-34.1705"/>
</g>
<!-- Node50 -->
<g id="node7" class="node"><title>Node50</title>
<g id="a_node7"><a xlink:href="class_sensor.html#ad713fef719161b27e6b93a0d3a371e0c" target="_top" xlink:title="Sensor::set_offset">
<polygon fill="none" stroke="black" points="140,-0.5 140,-19.5 237,-19.5 237,-0.5 140,-0.5"/>
<text text-anchor="middle" x="188.5" y="-7.5" font-family="Helvetica,sans-Serif" font-size="10.00">Sensor::set_offset</text>
</a>
</g>
</g>
<!-- Node44&#45;&gt;Node50 -->
<g id="edge6" class="edge"><title>Node44&#45;&gt;Node50</title>
<path fill="none" stroke="midnightblue" d="M114.259,-20.3464C122.881,-19.1284 131.635,-17.8917 139.949,-16.7173"/>
<polygon fill="midnightblue" stroke="midnightblue" points="113.644,-16.8983 104.232,-21.7627 114.624,-23.8295 113.644,-16.8983"/>
</g>
<!-- Node46 -->
<g id="node3" class="node"><title>Node46</title>
<g id="a_node3"><a xlink:href="class_config.html#a5ae6c4f7255e895e7384fc2a4baab160" target="_top" xlink:title="Config::endString">
<polygon fill="none" stroke="black" points="273,-38.5 273,-57.5 365,-57.5 365,-38.5 273,-38.5"/>
<text text-anchor="middle" x="319" y="-45.5" font-family="Helvetica,sans-Serif" font-size="10.00">Config::endString</text>
</a>
</g>
</g>
<!-- Node45&#45;&gt;Node46 -->
<g id="edge2" class="edge"><title>Node45&#45;&gt;Node46</title>
<path fill="none" stroke="midnightblue" d="M240.007,-48C250.868,-48 262.279,-48 272.917,-48"/>
<polygon fill="midnightblue" stroke="midnightblue" points="239.806,-44.5001 229.806,-48 239.806,-51.5001 239.806,-44.5001"/>
</g>
<!-- Node49 -->
<g id="node6" class="node"><title>Node49</title>
<g id="a_node6"><a xlink:href="class_config.html#a2a806f322b0d533aabdb8e796d3b1033" target="_top" xlink:title="The execute method is the config &quot;main function&quot; In this method, sentence from the uart are process e...">
<polygon fill="none" stroke="black" points="276,-0.5 276,-19.5 362,-19.5 362,-0.5 276,-0.5"/>
<text text-anchor="middle" x="319" y="-7.5" font-family="Helvetica,sans-Serif" font-size="10.00">Config::execute</text>
</a>
</g>
</g>
<!-- Node45&#45;&gt;Node49 -->
<g id="edge5" class="edge"><title>Node45&#45;&gt;Node49</title>
<path fill="none" stroke="midnightblue" d="M231.889,-35.4647C249.37,-30.2952 269.302,-24.4009 285.584,-19.5859"/>
<polygon fill="midnightblue" stroke="midnightblue" points="230.523,-32.2188 221.926,-38.411 232.508,-38.9314 230.523,-32.2188"/>
</g>
<!-- Node47 -->
<g id="node4" class="node"><title>Node47</title>
<g id="a_node4"><a xlink:href="class_f_s_m.html#a3819be8e9fe92b750f47b9731e92f254" target="_top" xlink:title="Call when a string from usart0 finish by &quot;\r\n&quot;. ">
<polygon fill="none" stroke="black" points="401,-38.5 401,-57.5 538,-57.5 538,-38.5 401,-38.5"/>
<text text-anchor="middle" x="469.5" y="-45.5" font-family="Helvetica,sans-Serif" font-size="10.00">FSM::character_processing</text>
</a>
</g>
</g>
<!-- Node46&#45;&gt;Node47 -->
<g id="edge3" class="edge"><title>Node46&#45;&gt;Node47</title>
<path fill="none" stroke="midnightblue" d="M375.633,-48C383.908,-48 392.513,-48 400.999,-48"/>
<polygon fill="midnightblue" stroke="midnightblue" points="375.362,-44.5001 365.362,-48 375.362,-51.5001 375.362,-44.5001"/>
</g>
<!-- Node48 -->
<g id="node5" class="node"><title>Node48</title>
<g id="a_node5"><a xlink:href="main_8cpp.html#ae66f6b31b5ad750f1fe042a706a4e3d4" target="_top" xlink:title="main">
<polygon fill="none" stroke="black" points="574,-38.5 574,-57.5 612,-57.5 612,-38.5 574,-38.5"/>
<text text-anchor="middle" x="593" y="-45.5" font-family="Helvetica,sans-Serif" font-size="10.00">main</text>
</a>
</g>
</g>
<!-- Node47&#45;&gt;Node48 -->
<g id="edge4" class="edge"><title>Node47&#45;&gt;Node48</title>
<path fill="none" stroke="midnightblue" d="M548.013,-48C557.457,-48 566.315,-48 573.572,-48"/>
<polygon fill="midnightblue" stroke="midnightblue" points="548.001,-44.5001 538.001,-48 548.001,-51.5001 548.001,-44.5001"/>
</g>
<!-- Node50&#45;&gt;Node49 -->
<g id="edge7" class="edge"><title>Node50&#45;&gt;Node49</title>
<path fill="none" stroke="midnightblue" d="M247.507,-10C256.97,-10 266.616,-10 275.613,-10"/>
<polygon fill="midnightblue" stroke="midnightblue" points="247.349,-6.5001 237.349,-10 247.349,-13.5001 247.349,-6.5001"/>
</g>
</g>
</svg>
