<?xml version="1.0" encoding="UTF-8" standalone="no"?>
<!DOCTYPE svg PUBLIC "-//W3C//DTD SVG 1.1//EN"
 "http://www.w3.org/Graphics/SVG/1.1/DTD/svg11.dtd">
<!-- Generated by graphviz version 2.38.0 (20140413.2041)
 -->
<!-- Title: Sensor::read_value Pages: 1 -->
<svg width="686pt" height="116pt"
 viewBox="0.00 0.00 686.00 115.50" xmlns="http://www.w3.org/2000/svg" xmlns:xlink="http://www.w3.org/1999/xlink">
<g id="graph0" class="graph" transform="scale(1 1) rotate(0) translate(4 111.5)">
<title>Sensor::read_value</title>
<!-- Node146 -->
<g id="node1" class="node"><title>Node146</title>
<polygon fill="#bfbfbf" stroke="black" points="0,-38.5 0,-57.5 101,-57.5 101,-38.5 0,-38.5"/>
<text text-anchor="middle" x="50.5" y="-45.5" font-family="Helvetica,sans-Serif" font-size="10.00">Sensor::read_value</text>
</g>
<!-- Node147 -->
<g id="node2" class="node"><title>Node147</title>
<g id="a_node2"><a xlink:href="class_sensor.html#a4e88d49608387ab4f65734913e514109" target="_top" xlink:title="Sensor::is_enable">
<polygon fill="none" stroke="black" points="137,-38.5 137,-57.5 232,-57.5 232,-38.5 137,-38.5"/>
<text text-anchor="middle" x="184.5" y="-45.5" font-family="Helvetica,sans-Serif" font-size="10.00">Sensor::is_enable</text>
</a>
</g>
</g>
<!-- Node146&#45;&gt;Node147 -->
<g id="edge1" class="edge"><title>Node146&#45;&gt;Node147</title>
<path fill="none" stroke="midnightblue" d="M111.043,-48C119.663,-48 128.432,-48 136.753,-48"/>
<polygon fill="midnightblue" stroke="midnightblue" points="111.028,-44.5001 101.027,-48 111.027,-51.5001 111.028,-44.5001"/>
</g>
<!-- Node148 -->
<g id="node3" class="node"><title>Node148</title>
<g id="a_node3"><a xlink:href="class_sensor.html#ae16fd0cbdda6cfed1deac36f5c7c0a8f" target="_top" xlink:title="This method calculate the average from the data array. ">
<polygon fill="none" stroke="black" points="275,-38.5 275,-57.5 386,-57.5 386,-38.5 275,-38.5"/>
<text text-anchor="middle" x="330.5" y="-45.5" font-family="Helvetica,sans-Serif" font-size="10.00">Sensor::calc_average</text>
</a>
</g>
</g>
<!-- Node147&#45;&gt;Node148 -->
<g id="edge2" class="edge"><title>Node147&#45;&gt;Node148</title>
<path fill="none" stroke="midnightblue" d="M242.368,-41.3843C253.103,-41.1912 264.307,-41.2063 274.968,-41.4298"/>
<polygon fill="midnightblue" stroke="midnightblue" points="242.163,-37.8882 232.253,-41.6333 242.336,-44.886 242.163,-37.8882"/>
</g>
<!-- Node151 -->
<g id="node6" class="node"><title>Node151</title>
<g id="a_node6"><a xlink:href="class_sensor.html#a38a47820684e5ff0f61ad32b8afbde45" target="_top" xlink:title="The print_average method print the average&#39;s value in the string. ">
<polygon fill="none" stroke="black" points="274.5,-0.5 274.5,-19.5 386.5,-19.5 386.5,-0.5 274.5,-0.5"/>
<text text-anchor="middle" x="330.5" y="-7.5" font-family="Helvetica,sans-Serif" font-size="10.00">Sensor::print_average</text>
</a>
</g>
</g>
<!-- Node147&#45;&gt;Node151 -->
<g id="edge6" class="edge"><title>Node147&#45;&gt;Node151</title>
<path fill="none" stroke="midnightblue" d="M213.527,-35.1283C230.829,-29.404 253.622,-23.0205 274.419,-17.9536"/>
<polygon fill="midnightblue" stroke="midnightblue" points="212.341,-31.8352 204.031,-38.4076 214.625,-38.4518 212.341,-31.8352"/>
</g>
<!-- Node154 -->
<g id="node9" class="node"><title>Node154</title>
<g id="a_node9"><a xlink:href="class_anemometer.html#a9be3b4b392ef08ef29c769e6ce4bebf4" target="_top" xlink:title="Anemometer::read_value">
<polygon fill="none" stroke="black" points="268,-79.5 268,-98.5 393,-98.5 393,-79.5 268,-79.5"/>
<text text-anchor="middle" x="330.5" y="-86.5" font-family="Helvetica,sans-Serif" font-size="10.00">Anemometer::read_value</text>
</a>
</g>
</g>
<!-- Node147&#45;&gt;Node154 -->
<g id="edge10" class="edge"><title>Node147&#45;&gt;Node154</title>
<path fill="none" stroke="midnightblue" d="M228.792,-60.3263C250.348,-66.4637 276.01,-73.7701 296.034,-79.4714"/>
<polygon fill="midnightblue" stroke="midnightblue" points="229.475,-56.8815 218.898,-57.5093 227.558,-63.614 229.475,-56.8815"/>
</g>
<!-- Node148&#45;&gt;Node147 -->
<g id="edge5" class="edge"><title>Node148&#45;&gt;Node147</title>
<path fill="none" stroke="midnightblue" d="M264.951,-54.7178C253.938,-54.8133 242.69,-54.6963 232.253,-54.3667"/>
<polygon fill="midnightblue" stroke="midnightblue" points="265.021,-58.2172 274.968,-54.5702 264.918,-51.218 265.021,-58.2172"/>
</g>
<!-- Node149 -->
<g id="node4" class="node"><title>Node149</title>
<g id="a_node4"><a xlink:href="class_measure.html#a1518672dff4f81603a35bff08c20e9f5" target="_top" xlink:title="calcul average from the data array ">
<polygon fill="none" stroke="black" points="429,-38.5 429,-57.5 547,-57.5 547,-38.5 429,-38.5"/>
<text text-anchor="middle" x="488" y="-45.5" font-family="Helvetica,sans-Serif" font-size="10.00">Measure::calc_average</text>
</a>
</g>
</g>
<!-- Node148&#45;&gt;Node149 -->
<g id="edge3" class="edge"><title>Node148&#45;&gt;Node149</title>
<path fill="none" stroke="midnightblue" d="M396.52,-48C407.291,-48 418.398,-48 428.982,-48"/>
<polygon fill="midnightblue" stroke="midnightblue" points="396.324,-44.5001 386.323,-48 396.323,-51.5001 396.324,-44.5001"/>
</g>
<!-- Node150 -->
<g id="node5" class="node"><title>Node150</title>
<g id="a_node5"><a xlink:href="class_measure.html#a754d2de10d1a44bb3b62ab162ceeaae2" target="_top" xlink:title="The execute method is the measure &quot;main function&quot; The execute function work as this scheme : ...">
<polygon fill="none" stroke="black" points="583,-60.5 583,-79.5 678,-79.5 678,-60.5 583,-60.5"/>
<text text-anchor="middle" x="630.5" y="-67.5" font-family="Helvetica,sans-Serif" font-size="10.00">Measure::execute</text>
</a>
</g>
</g>
<!-- Node149&#45;&gt;Node150 -->
<g id="edge4" class="edge"><title>Node149&#45;&gt;Node150</title>
<path fill="none" stroke="midnightblue" d="M557.366,-58.705C565.927,-60.0455 574.525,-61.3918 582.651,-62.6643"/>
<polygon fill="midnightblue" stroke="midnightblue" points="557.785,-55.2281 547.364,-57.1389 556.702,-62.1438 557.785,-55.2281"/>
</g>
<!-- Node151&#45;&gt;Node147 -->
<g id="edge7" class="edge"><title>Node151&#45;&gt;Node147</title>
<path fill="none" stroke="midnightblue" d="M301.352,-22.9116C281.716,-29.402 255.051,-36.733 232.253,-42.0292"/>
<polygon fill="midnightblue" stroke="midnightblue" points="302.611,-26.1799 310.922,-19.6094 300.327,-19.5628 302.611,-26.1799"/>
</g>
<!-- Node152 -->
<g id="node7" class="node"><title>Node152</title>
<g id="a_node7"><a xlink:href="class_output.html#af4bc42d2d3bb3b2a98782f0df0eba133" target="_top" xlink:title="Output::usart0_print">
<polygon fill="none" stroke="black" points="436.5,-0.5 436.5,-19.5 539.5,-19.5 539.5,-0.5 436.5,-0.5"/>
<text text-anchor="middle" x="488" y="-7.5" font-family="Helvetica,sans-Serif" font-size="10.00">Output::usart0_print</text>
</a>
</g>
</g>
<!-- Node151&#45;&gt;Node152 -->
<g id="edge8" class="edge"><title>Node151&#45;&gt;Node152</title>
<path fill="none" stroke="midnightblue" d="M397.141,-10C410.245,-10 423.82,-10 436.327,-10"/>
<polygon fill="midnightblue" stroke="midnightblue" points="396.761,-6.5001 386.761,-10 396.761,-13.5001 396.761,-6.5001"/>
</g>
<!-- Node153 -->
<g id="node8" class="node"><title>Node153</title>
<g id="a_node8"><a xlink:href="class_output.html#a087f4330e641bb4682ab2862bca7a1af" target="_top" xlink:title="Output::execute">
<polygon fill="none" stroke="black" points="587.5,-0.5 587.5,-19.5 673.5,-19.5 673.5,-0.5 587.5,-0.5"/>
<text text-anchor="middle" x="630.5" y="-7.5" font-family="Helvetica,sans-Serif" font-size="10.00">Output::execute</text>
</a>
</g>
</g>
<!-- Node152&#45;&gt;Node153 -->
<g id="edge9" class="edge"><title>Node152&#45;&gt;Node153</title>
<path fill="none" stroke="midnightblue" d="M549.726,-10C562.349,-10 575.391,-10 587.179,-10"/>
<polygon fill="midnightblue" stroke="midnightblue" points="549.724,-6.5001 539.724,-10 549.724,-13.5001 549.724,-6.5001"/>
</g>
<!-- Node155 -->
<g id="node10" class="node"><title>Node155</title>
<g id="a_node10"><a xlink:href="class_measure.html#a4390d770b19dbc51e5486fefe9f4b9d1" target="_top" xlink:title="read value from anemometer and RPM ">
<polygon fill="none" stroke="black" points="437.5,-77 437.5,-107 538.5,-107 538.5,-77 437.5,-77"/>
<text text-anchor="start" x="445.5" y="-95" font-family="Helvetica,sans-Serif" font-size="10.00">Measure::freq_read</text>
<text text-anchor="middle" x="488" y="-84" font-family="Helvetica,sans-Serif" font-size="10.00">_value</text>
</a>
</g>
</g>
<!-- Node154&#45;&gt;Node155 -->
<g id="edge11" class="edge"><title>Node154&#45;&gt;Node155</title>
<path fill="none" stroke="midnightblue" d="M403.747,-90.3938C415.088,-90.6126 426.585,-90.8344 437.268,-91.0405"/>
<polygon fill="midnightblue" stroke="midnightblue" points="403.47,-86.8879 393.405,-90.1943 403.335,-93.8866 403.47,-86.8879"/>
</g>
<!-- Node155&#45;&gt;Node150 -->
<g id="edge12" class="edge"><title>Node155&#45;&gt;Node150</title>
<path fill="none" stroke="midnightblue" d="M548.472,-82.6876C559.931,-80.8933 571.782,-79.0377 582.766,-77.3178"/>
<polygon fill="midnightblue" stroke="midnightblue" points="547.873,-79.2387 538.535,-84.2436 548.956,-86.1544 547.873,-79.2387"/>
</g>
</g>
</svg>
