<?xml version="1.0" encoding="UTF-8" standalone="no"?>
<!DOCTYPE svg PUBLIC "-//W3C//DTD SVG 1.1//EN"
 "http://www.w3.org/Graphics/SVG/1.1/DTD/svg11.dtd">
<!-- Generated by graphviz version 2.38.0 (20140413.2041)
 -->
<!-- Title: FSM::character_processing Pages: 1 -->
<!--zoomable 306 -->
<svg id="main" version="1.1" xmlns="http://www.w3.org/2000/svg" xmlns:xlink="http://www.w3.org/1999/xlink" xml:space="preserve" onload="init(evt)">
<style type="text/css"><![CDATA[
.edge:hover path { stroke: red; }
.edge:hover polygon { stroke: red; fill: red; }
]]></style>
<script type="text/javascript"><![CDATA[
var edges = document.getElementsByTagName('g');
if (edges && edges.length) {
  for (var i=0;i<edges.length;i++) {
    if (edges[i].id.substr(0,4)=='edge') {
      edges[i].setAttribute('class','edge');
    }
  }
}
]]></script>
        <defs>
                <circle id="rim" cx="0" cy="0" r="7"/>
                <circle id="rim2" cx="0" cy="0" r="3.5"/>
                <g id="zoomPlus">
                        <use xlink:href="#rim" fill="#404040">
                                <set attributeName="fill" to="#808080" begin="zoomplus.mouseover" end="zoomplus.mouseout"/>
                        </use>
                        <path d="M-4,0h8M0,-4v8" fill="none" stroke="white" stroke-width="1.5" pointer-events="none"/>
                </g>
                <g id="zoomMin">
                        <use xlink:href="#rim" fill="#404040">
                                <set attributeName="fill" to="#808080" begin="zoomminus.mouseover" end="zoomminus.mouseout"/>
                        </use>
                        <path d="M-4,0h8" fill="none" stroke="white" stroke-width="1.5" pointer-events="none"/>
                </g>
                <g id="dirArrow">
                        <path fill="none" stroke="white" stroke-width="1.5" d="M0,-3.0v7 M-2.5,-0.5L0,-3.0L2.5,-0.5"/>
                </g>
               <g id="resetDef">
                       <use xlink:href="#rim2" fill="#404040">
                               <set attributeName="fill" to="#808080" begin="reset.mouseover" end="reset.mouseout"/>
                       </use>
               </g>
        </defs>

<script type="text/javascript">
var viewWidth = 534;
var viewHeight = 306;
var sectionId = 'dynsection-2';
</script>
<script xlink:href="svgpan.js"/>
<svg id="graph" class="graph">
<g id="viewport">
<title>FSM::character_processing</title>
<!-- Node3 -->
<g id="node1" class="node"><title>Node3</title>
<polygon fill="#bfbfbf" stroke="black" points="0,-158.5 0,-177.5 137,-177.5 137,-158.5 0,-158.5"/>
<text text-anchor="middle" x="68.5" y="-165.5" font-family="Helvetica,sans-Serif" font-size="10.00">FSM::character_processing</text>
</g>
<!-- Node4 -->
<g id="node2" class="node"><title>Node4</title>
<g id="a_node2"><a xlink:href="class_config.html#a3f8d043789557191686ae632ebe6a571" target="_top" xlink:title="add c to the end of request ">
<polygon fill="none" stroke="black" points="308.5,-278.5 308.5,-297.5 423.5,-297.5 423.5,-278.5 308.5,-278.5"/>
<text text-anchor="middle" x="366" y="-285.5" font-family="Helvetica,sans-Serif" font-size="10.00">Config::addToRequest</text>
</a>
</g>
</g>
<!-- Node3&#45;&gt;Node4 -->
<g id="edge1" class="edge"><title>Node3&#45;&gt;Node4</title>
<path fill="none" stroke="midnightblue" d="M84.8219,-177.625C104.632,-189.789 140.458,-210.843 173,-225 230.48,-250.006 247.438,-249.465 307,-269 313.145,-271.015 319.656,-273.15 326.01,-275.232"/>
<polygon fill="midnightblue" stroke="midnightblue" points="325.197,-278.648 335.79,-278.436 327.377,-271.996 325.197,-278.648"/>
</g>
<!-- Node5 -->
<g id="node3" class="node"><title>Node5</title>
<g id="a_node3"><a xlink:href="class_config.html#aad107d2aa88bbf57a728ec0c650a6f84" target="_top" xlink:title="Config::backspace">
<polygon fill="none" stroke="black" points="173,-196.5 173,-215.5 271,-215.5 271,-196.5 173,-196.5"/>
<text text-anchor="middle" x="222" y="-203.5" font-family="Helvetica,sans-Serif" font-size="10.00">Config::backspace</text>
</a>
</g>
</g>
<!-- Node3&#45;&gt;Node5 -->
<g id="edge2" class="edge"><title>Node3&#45;&gt;Node5</title>
<path fill="none" stroke="midnightblue" d="M107.73,-177.589C127.632,-182.581 152.157,-188.732 173.291,-194.033"/>
<polygon fill="midnightblue" stroke="midnightblue" points="172.494,-197.442 183.045,-196.48 174.197,-190.652 172.494,-197.442"/>
</g>
<!-- Node6 -->
<g id="node4" class="node"><title>Node6</title>
<g id="a_node4"><a xlink:href="class_config.html#a5ae6c4f7255e895e7384fc2a4baab160" target="_top" xlink:title="Config::endString">
<polygon fill="none" stroke="black" points="176,-158.5 176,-177.5 268,-177.5 268,-158.5 176,-158.5"/>
<text text-anchor="middle" x="222" y="-165.5" font-family="Helvetica,sans-Serif" font-size="10.00">Config::endString</text>
</a>
</g>
</g>
<!-- Node3&#45;&gt;Node6 -->
<g id="edge3" class="edge"><title>Node3&#45;&gt;Node6</title>
<path fill="none" stroke="midnightblue" d="M137.274,-168C146.776,-168 156.447,-168 165.681,-168"/>
<polygon fill="midnightblue" stroke="midnightblue" points="165.888,-171.5 175.888,-168 165.888,-164.5 165.888,-171.5"/>
</g>
<!-- Node9 -->
<g id="node7" class="node"><title>Node9</title>
<g id="a_node7"><a xlink:href="class_usart.html#ab236d7c399791bbe1431f85e9b60f601" target="_top" xlink:title="USART string sender function. ">
<polygon fill="none" stroke="black" points="461,-120.5 461,-139.5 526,-139.5 526,-120.5 461,-120.5"/>
<text text-anchor="middle" x="493.5" y="-127.5" font-family="Helvetica,sans-Serif" font-size="10.00">Usart::print</text>
</a>
</g>
</g>
<!-- Node3&#45;&gt;Node9 -->
<g id="edge11" class="edge"><title>Node3&#45;&gt;Node9</title>
<path fill="none" stroke="midnightblue" d="M85.736,-158.347C123.148,-136.733 218.973,-84.9399 307,-67 358.388,-56.5271 376.209,-47.7684 425,-67 447.938,-76.0415 467.68,-96.961 479.785,-112.221"/>
<polygon fill="midnightblue" stroke="midnightblue" points="477.168,-114.563 485.997,-120.42 482.748,-110.335 477.168,-114.563"/>
</g>
<!-- Node13 -->
<g id="node11" class="node"><title>Node13</title>
<g id="a_node11"><a xlink:href="class_usart.html#a86c9264f48dabbc3d97fa32d2d02d22d" target="_top" xlink:title="USART char sender function. ">
<polygon fill="none" stroke="black" points="192,-0.5 192,-19.5 252,-19.5 252,-0.5 192,-0.5"/>
<text text-anchor="middle" x="222" y="-7.5" font-family="Helvetica,sans-Serif" font-size="10.00">Usart::set</text>
</a>
</g>
</g>
<!-- Node3&#45;&gt;Node13 -->
<g id="edge12" class="edge"><title>Node3&#45;&gt;Node13</title>
<path fill="none" stroke="midnightblue" d="M74.844,-158.375C88.4628,-134.568 126.689,-72.0961 173,-34 177.407,-30.3746 182.453,-27.1102 187.58,-24.2415"/>
<polygon fill="midnightblue" stroke="midnightblue" points="189.483,-27.1987 196.775,-19.5128 186.281,-20.9736 189.483,-27.1987"/>
</g>
<!-- Node6&#45;&gt;Node4 -->
<g id="edge4" class="edge"><title>Node6&#45;&gt;Node4</title>
<path fill="none" stroke="midnightblue" d="M257.025,-177.553C262.121,-180.041 266.999,-183.144 271,-187 299.657,-214.622 277.523,-242.255 307,-269 308.888,-270.713 310.934,-272.272 313.091,-273.691"/>
<polygon fill="midnightblue" stroke="midnightblue" points="311.411,-276.762 321.863,-278.496 314.774,-270.622 311.411,-276.762"/>
</g>
<!-- Node7 -->
<g id="node5" class="node"><title>Node7</title>
<g id="a_node5"><a xlink:href="class_config.html#a890e1d585e9ae670a6cccaf196250870" target="_top" xlink:title="Config::atoc">
<polygon fill="none" stroke="black" points="331,-240.5 331,-259.5 401,-259.5 401,-240.5 331,-240.5"/>
<text text-anchor="middle" x="366" y="-247.5" font-family="Helvetica,sans-Serif" font-size="10.00">Config::atoc</text>
</a>
</g>
</g>
<!-- Node6&#45;&gt;Node7 -->
<g id="edge5" class="edge"><title>Node6&#45;&gt;Node7</title>
<path fill="none" stroke="midnightblue" d="M253.922,-177.545C259.882,-180.113 265.862,-183.246 271,-187 291.402,-201.906 286.158,-216.716 307,-231 311.367,-233.993 316.24,-236.542 321.253,-238.705"/>
<polygon fill="midnightblue" stroke="midnightblue" points="320.382,-242.119 330.973,-242.407 322.874,-235.577 320.382,-242.119"/>
</g>
<!-- Node8 -->
<g id="node6" class="node"><title>Node8</title>
<g id="a_node6"><a xlink:href="class_config.html#a975933ecde91dc436d4ca39464cfd25f" target="_top" xlink:title="display all config on USART0 ">
<polygon fill="none" stroke="black" points="325,-202.5 325,-221.5 407,-221.5 407,-202.5 325,-202.5"/>
<text text-anchor="middle" x="366" y="-209.5" font-family="Helvetica,sans-Serif" font-size="10.00">Config::display</text>
</a>
</g>
</g>
<!-- Node6&#45;&gt;Node8 -->
<g id="edge6" class="edge"><title>Node6&#45;&gt;Node8</title>
<path fill="none" stroke="midnightblue" d="M253.812,-177.547C274.56,-183.976 302.135,-192.521 324.632,-199.492"/>
<polygon fill="midnightblue" stroke="midnightblue" points="323.66,-202.855 334.248,-202.471 325.732,-196.168 323.66,-202.855"/>
</g>
<!-- Node10 -->
<g id="node8" class="node"><title>Node10</title>
<g id="a_node8"><a xlink:href="class_config.html#af2fee2ffae339b1e8ead1cd413e44ee3" target="_top" xlink:title="Initialize the eeprom memory. ">
<polygon fill="none" stroke="black" points="323,-153 323,-183 409,-183 409,-153 323,-153"/>
<text text-anchor="start" x="331" y="-171" font-family="Helvetica,sans-Serif" font-size="10.00">Config::initialize</text>
<text text-anchor="middle" x="366" y="-160" font-family="Helvetica,sans-Serif" font-size="10.00">_eeprom</text>
</a>
</g>
</g>
<!-- Node6&#45;&gt;Node10 -->
<g id="edge8" class="edge"><title>Node6&#45;&gt;Node10</title>
<path fill="none" stroke="midnightblue" d="M268.32,-168C282.297,-168 297.809,-168 312.242,-168"/>
<polygon fill="midnightblue" stroke="midnightblue" points="312.523,-171.5 322.523,-168 312.523,-164.5 312.523,-171.5"/>
</g>
<!-- Node11 -->
<g id="node9" class="node"><title>Node11</title>
<g id="a_node9"><a xlink:href="class_config.html#ab55107c3371b6c41be6688c0989993c7" target="_top" xlink:title="Load saved config data from the eeprom. ">
<polygon fill="none" stroke="black" points="312.5,-114.5 312.5,-133.5 419.5,-133.5 419.5,-114.5 312.5,-114.5"/>
<text text-anchor="middle" x="366" y="-121.5" font-family="Helvetica,sans-Serif" font-size="10.00">Config::load_eeprom</text>
</a>
</g>
</g>
<!-- Node6&#45;&gt;Node11 -->
<g id="edge9" class="edge"><title>Node6&#45;&gt;Node11</title>
<path fill="none" stroke="midnightblue" d="M253.812,-158.453C274.56,-152.024 302.135,-143.479 324.632,-136.508"/>
<polygon fill="midnightblue" stroke="midnightblue" points="325.732,-139.832 334.248,-133.529 323.66,-133.145 325.732,-139.832"/>
</g>
<!-- Node12 -->
<g id="node10" class="node"><title>Node12</title>
<g id="a_node10"><a xlink:href="class_config.html#a5fefd76d384c0a710ea0dd0d71d5d05b" target="_top" xlink:title="Update saved config data in the eeprom. ">
<polygon fill="none" stroke="black" points="307,-76.5 307,-95.5 425,-95.5 425,-76.5 307,-76.5"/>
<text text-anchor="middle" x="366" y="-83.5" font-family="Helvetica,sans-Serif" font-size="10.00">Config::update_epprom</text>
</a>
</g>
</g>
<!-- Node6&#45;&gt;Node12 -->
<g id="edge10" class="edge"><title>Node6&#45;&gt;Node12</title>
<path fill="none" stroke="midnightblue" d="M233.372,-158.42C248.521,-144.866 278.058,-120.069 307,-105 311.075,-102.878 315.434,-100.93 319.863,-99.1579"/>
<polygon fill="midnightblue" stroke="midnightblue" points="321.424,-102.312 329.589,-95.5594 318.995,-95.7469 321.424,-102.312"/>
</g>
<!-- Node8&#45;&gt;Node9 -->
<g id="edge7" class="edge"><title>Node8&#45;&gt;Node9</title>
<path fill="none" stroke="midnightblue" d="M404.249,-202.461C411.385,-199.904 418.615,-196.774 425,-193 445.534,-180.865 465.002,-161.553 477.706,-147.507"/>
<polygon fill="midnightblue" stroke="midnightblue" points="480.385,-149.759 484.361,-139.939 475.129,-145.137 480.385,-149.759"/>
</g>
</g>
</svg>
        <g id="navigator" transform="translate(0 0)" fill="#404254">
                <rect fill="#f2f5e9" fill-opacity="0.5" stroke="#606060" stroke-width=".5" x="0" y="0" width="60" height="60"/>
                <use id="zoomplus" xlink:href="#zoomPlus" x="17" y="9" onmousedown="handleZoom(evt,'in')"/>
                <use id="zoomminus" xlink:href="#zoomMin" x="42" y="9" onmousedown="handleZoom(evt,'out')"/>
                <use id="reset" xlink:href="#resetDef" x="30" y="36" onmousedown="handleReset()"/>
                <g id="arrowUp" xlink:href="#dirArrow" transform="translate(30 24)" onmousedown="handlePan(0,-1)">
                  <use xlink:href="#rim" fill="#404040">
                        <set attributeName="fill" to="#808080" begin="arrowUp.mouseover" end="arrowUp.mouseout"/>
                  </use>
                  <path fill="none" stroke="white" stroke-width="1.5" d="M0,-3.0v7 M-2.5,-0.5L0,-3.0L2.5,-0.5"/>
                </g>
                <g id="arrowRight" xlink:href="#dirArrow" transform="rotate(90) translate(36 -43)" onmousedown="handlePan(1,0)">
                  <use xlink:href="#rim" fill="#404040">
                        <set attributeName="fill" to="#808080" begin="arrowRight.mouseover" end="arrowRight.mouseout"/>
                  </use>
                  <path fill="none" stroke="white" stroke-width="1.5" d="M0,-3.0v7 M-2.5,-0.5L0,-3.0L2.5,-0.5"/>
                </g>
                <g id="arrowDown" xlink:href="#dirArrow" transform="rotate(180) translate(-30 -48)" onmousedown="handlePan(0,1)">
                  <use xlink:href="#rim" fill="#404040">
                        <set attributeName="fill" to="#808080" begin="arrowDown.mouseover" end="arrowDown.mouseout"/>
                  </use>
                  <path fill="none" stroke="white" stroke-width="1.5" d="M0,-3.0v7 M-2.5,-0.5L0,-3.0L2.5,-0.5"/>
                </g>
                <g id="arrowLeft" xlink:href="#dirArrow" transform="rotate(270) translate(-36 17)" onmousedown="handlePan(-1,0)">
                  <use xlink:href="#rim" fill="#404040">
                        <set attributeName="fill" to="#808080" begin="arrowLeft.mouseover" end="arrowLeft.mouseout"/>
                  </use>
                  <path fill="none" stroke="white" stroke-width="1.5" d="M0,-3.0v7 M-2.5,-0.5L0,-3.0L2.5,-0.5"/>
                </g>
        </g>
        <svg viewBox="0 0 15 15" width="100%" height="30px" preserveAspectRatio="xMaxYMin meet">
         <g id="arrow_out" transform="scale(0.3 0.3)">
          <a xlink:href="class_f_s_m_a3819be8e9fe92b750f47b9731e92f254_cgraph_org.svg" target="_base">
           <rect id="button" ry="5" rx="5" y="6" x="6" height="38" width="38"
                fill="#f2f5e9" fill-opacity="0.5" stroke="#606060" stroke-width="1.0"/>
           <path id="arrow"
             d="M 11.500037,31.436501 C 11.940474,20.09759 22.043105,11.32322 32.158766,21.979434 L 37.068811,17.246167 C 37.068811,17.246167 37.088388,32 37.088388,32 L 22.160133,31.978069 C 22.160133,31.978069 26.997745,27.140456 26.997745,27.140456 C 18.528582,18.264221 13.291696,25.230495 11.500037,31.436501 z"
             style="fill:#404040;"/>
          </a>
         </g>
        </svg>
</svg>
