<?xml version="1.0" encoding="UTF-8" standalone="no"?>
<!DOCTYPE svg PUBLIC "-//W3C//DTD SVG 1.1//EN"
 "http://www.w3.org/Graphics/SVG/1.1/DTD/svg11.dtd">
<!-- Generated by graphviz version 2.38.0 (20140413.2041)
 -->
<!-- Title: Config::print Pages: 1 -->
<svg width="446pt" height="28pt"
 viewBox="0.00 0.00 446.00 28.00" xmlns="http://www.w3.org/2000/svg" xmlns:xlink="http://www.w3.org/1999/xlink">
<g id="graph0" class="graph" transform="scale(1 1) rotate(0) translate(4 24)">
<title>Config::print</title>
<!-- Node61 -->
<g id="node1" class="node"><title>Node61</title>
<polygon fill="#bfbfbf" stroke="black" points="0,-0.5 0,-19.5 70,-19.5 70,-0.5 0,-0.5"/>
<text text-anchor="middle" x="35" y="-7.5" font-family="Helvetica,sans-Serif" font-size="10.00">Config::print</text>
</g>
<!-- Node62 -->
<g id="node2" class="node"><title>Node62</title>
<g id="a_node2"><a xlink:href="class_config.html#a78ed6d7c25fb2d139420c803ad10bb36" target="_top" xlink:title="Config::endLine">
<polygon fill="none" stroke="black" points="106,-0.5 106,-19.5 191,-19.5 191,-0.5 106,-0.5"/>
<text text-anchor="middle" x="148.5" y="-7.5" font-family="Helvetica,sans-Serif" font-size="10.00">Config::endLine</text>
</a>
</g>
</g>
<!-- Node61&#45;&gt;Node62 -->
<g id="edge1" class="edge"><title>Node61&#45;&gt;Node62</title>
<path fill="none" stroke="midnightblue" d="M80.13,-10C88.583,-10 97.4091,-10 105.783,-10"/>
<polygon fill="midnightblue" stroke="midnightblue" points="80.0596,-6.5001 70.0595,-10 80.0595,-13.5001 80.0596,-6.5001"/>
</g>
<!-- Node63 -->
<g id="node3" class="node"><title>Node63</title>
<g id="a_node3"><a xlink:href="class_f_s_m.html#a3819be8e9fe92b750f47b9731e92f254" target="_top" xlink:title="This method read the last char receive by the UART0 and check what is need to do. ...">
<polygon fill="none" stroke="black" points="227,-0.5 227,-19.5 364,-19.5 364,-0.5 227,-0.5"/>
<text text-anchor="middle" x="295.5" y="-7.5" font-family="Helvetica,sans-Serif" font-size="10.00">FSM::character_processing</text>
</a>
</g>
</g>
<!-- Node62&#45;&gt;Node63 -->
<g id="edge2" class="edge"><title>Node62&#45;&gt;Node63</title>
<path fill="none" stroke="midnightblue" d="M201.323,-10C209.629,-10 218.329,-10 226.937,-10"/>
<polygon fill="midnightblue" stroke="midnightblue" points="201.051,-6.5001 191.051,-10 201.051,-13.5001 201.051,-6.5001"/>
</g>
<!-- Node64 -->
<g id="node4" class="node"><title>Node64</title>
<g id="a_node4"><a xlink:href="main_8cpp.html#ae66f6b31b5ad750f1fe042a706a4e3d4" target="_top" xlink:title="main">
<polygon fill="none" stroke="black" points="400,-0.5 400,-19.5 438,-19.5 438,-0.5 400,-0.5"/>
<text text-anchor="middle" x="419" y="-7.5" font-family="Helvetica,sans-Serif" font-size="10.00">main</text>
</a>
</g>
</g>
<!-- Node63&#45;&gt;Node64 -->
<g id="edge3" class="edge"><title>Node63&#45;&gt;Node64</title>
<path fill="none" stroke="midnightblue" d="M374.013,-10C383.457,-10 392.315,-10 399.572,-10"/>
<polygon fill="midnightblue" stroke="midnightblue" points="374.001,-6.5001 364.001,-10 374.001,-13.5001 374.001,-6.5001"/>
</g>
</g>
</svg>
