<?xml version="1.0" encoding="UTF-8" standalone="no"?>
<!DOCTYPE svg PUBLIC "-//W3C//DTD SVG 1.1//EN"
 "http://www.w3.org/Graphics/SVG/1.1/DTD/svg11.dtd">
<!-- Generated by graphviz version 2.38.0 (20140413.2041)
 -->
<!-- Title: State::isEqual Pages: 1 -->
<svg width="214pt" height="180pt"
 viewBox="0.00 0.00 214.00 180.00" xmlns="http://www.w3.org/2000/svg" xmlns:xlink="http://www.w3.org/1999/xlink">
<g id="graph0" class="graph" transform="scale(1 1) rotate(0) translate(4 176)">
<title>State::isEqual</title>
<!-- Node9 -->
<g id="node1" class="node"><title>Node9</title>
<polygon fill="#bfbfbf" stroke="black" points="0,-76.5 0,-95.5 78,-95.5 78,-76.5 0,-76.5"/>
<text text-anchor="middle" x="39" y="-83.5" font-family="Helvetica,sans-Serif" font-size="10.00">State::isEqual</text>
</g>
<!-- Node10 -->
<g id="node2" class="node"><title>Node10</title>
<g id="a_node2"><a xlink:href="class_sleep.html#ae198e0867de4921a6b2e89885a14d547" target="_top" xlink:title="Sleep::isEqual">
<polygon fill="none" stroke="black" points="120,-152.5 120,-171.5 200,-171.5 200,-152.5 120,-152.5"/>
<text text-anchor="middle" x="160" y="-159.5" font-family="Helvetica,sans-Serif" font-size="10.00">Sleep::isEqual</text>
</a>
</g>
</g>
<!-- Node9&#45;&gt;Node10 -->
<g id="edge1" class="edge"><title>Node9&#45;&gt;Node10</title>
<path fill="none" stroke="midnightblue" d="M58.5809,-102.485C72.9984,-114.722 93.8581,-131.254 114,-143 120.007,-146.503 126.783,-149.711 133.219,-152.454"/>
<polygon fill="midnightblue" stroke="midnightblue" points="60.7471,-99.7313 50.8907,-95.8451 56.1723,-105.03 60.7471,-99.7313"/>
</g>
<!-- Node11 -->
<g id="node3" class="node"><title>Node11</title>
<g id="a_node3"><a xlink:href="class_output.html#aca8fc00d64eadd62201e6f83b276df3c" target="_top" xlink:title="Output::isEqual">
<polygon fill="none" stroke="black" points="118,-114.5 118,-133.5 202,-133.5 202,-114.5 118,-114.5"/>
<text text-anchor="middle" x="160" y="-121.5" font-family="Helvetica,sans-Serif" font-size="10.00">Output::isEqual</text>
</a>
</g>
</g>
<!-- Node9&#45;&gt;Node11 -->
<g id="edge2" class="edge"><title>Node9&#45;&gt;Node11</title>
<path fill="none" stroke="midnightblue" d="M79.7098,-98.6804C95.7886,-103.815 114.043,-109.644 128.981,-114.414"/>
<polygon fill="midnightblue" stroke="midnightblue" points="80.6195,-95.2969 70.0287,-95.589 78.4901,-101.965 80.6195,-95.2969"/>
</g>
<!-- Node12 -->
<g id="node4" class="node"><title>Node12</title>
<g id="a_node4"><a xlink:href="class_idle.html#a32b2da497da978d14810c9c73837d5c0" target="_top" xlink:title="Idle::isEqual">
<polygon fill="none" stroke="black" points="124.5,-76.5 124.5,-95.5 195.5,-95.5 195.5,-76.5 124.5,-76.5"/>
<text text-anchor="middle" x="160" y="-83.5" font-family="Helvetica,sans-Serif" font-size="10.00">Idle::isEqual</text>
</a>
</g>
</g>
<!-- Node9&#45;&gt;Node12 -->
<g id="edge3" class="edge"><title>Node9&#45;&gt;Node12</title>
<path fill="none" stroke="midnightblue" d="M88.634,-86C100.622,-86 113.218,-86 124.388,-86"/>
<polygon fill="midnightblue" stroke="midnightblue" points="88.3074,-82.5001 78.3074,-86 88.3073,-89.5001 88.3074,-82.5001"/>
</g>
<!-- Node13 -->
<g id="node5" class="node"><title>Node13</title>
<g id="a_node5"><a xlink:href="class_measure.html#ab7d61a122c14b9c5e9652dc802938275" target="_top" xlink:title="Measure::isEqual">
<polygon fill="none" stroke="black" points="114,-38.5 114,-57.5 206,-57.5 206,-38.5 114,-38.5"/>
<text text-anchor="middle" x="160" y="-45.5" font-family="Helvetica,sans-Serif" font-size="10.00">Measure::isEqual</text>
</a>
</g>
</g>
<!-- Node9&#45;&gt;Node13 -->
<g id="edge4" class="edge"><title>Node9&#45;&gt;Node13</title>
<path fill="none" stroke="midnightblue" d="M79.7098,-73.3196C95.7886,-68.1852 114.043,-62.3559 128.981,-57.5859"/>
<polygon fill="midnightblue" stroke="midnightblue" points="78.4901,-70.0348 70.0287,-76.411 80.6195,-76.7031 78.4901,-70.0348"/>
</g>
<!-- Node14 -->
<g id="node6" class="node"><title>Node14</title>
<g id="a_node6"><a xlink:href="class_config.html#a7282f450d3ec325f7dc05bcd7f8f11fb" target="_top" xlink:title="Config::isEqual">
<polygon fill="none" stroke="black" points="118.5,-0.5 118.5,-19.5 201.5,-19.5 201.5,-0.5 118.5,-0.5"/>
<text text-anchor="middle" x="160" y="-7.5" font-family="Helvetica,sans-Serif" font-size="10.00">Config::isEqual</text>
</a>
</g>
</g>
<!-- Node9&#45;&gt;Node14 -->
<g id="edge5" class="edge"><title>Node9&#45;&gt;Node14</title>
<path fill="none" stroke="midnightblue" d="M58.5809,-69.5149C72.9984,-57.2779 93.8581,-40.7456 114,-29 120.007,-25.497 126.783,-22.2887 133.219,-19.5457"/>
<polygon fill="midnightblue" stroke="midnightblue" points="56.1723,-66.9704 50.8907,-76.1549 60.7471,-72.2687 56.1723,-66.9704"/>
</g>
</g>
</svg>
