<?xml version="1.0" encoding="UTF-8" standalone="no"?>
<!DOCTYPE svg PUBLIC "-//W3C//DTD SVG 1.1//EN"
 "http://www.w3.org/Graphics/SVG/1.1/DTD/svg11.dtd">
<!-- Generated by graphviz version 2.38.0 (20140413.2041)
 -->
<!-- Title: Config::update_epprom Pages: 1 -->
<!--zoomable 90 -->
<svg id="main" version="1.1" xmlns="http://www.w3.org/2000/svg" xmlns:xlink="http://www.w3.org/1999/xlink" xml:space="preserve" onload="init(evt)">
<style type="text/css"><![CDATA[
.edge:hover path { stroke: red; }
.edge:hover polygon { stroke: red; fill: red; }
]]></style>
<script type="text/javascript"><![CDATA[
var edges = document.getElementsByTagName('g');
if (edges && edges.length) {
  for (var i=0;i<edges.length;i++) {
    if (edges[i].id.substr(0,4)=='edge') {
      edges[i].setAttribute('class','edge');
    }
  }
}
]]></script>
        <defs>
                <circle id="rim" cx="0" cy="0" r="7"/>
                <circle id="rim2" cx="0" cy="0" r="3.5"/>
                <g id="zoomPlus">
                        <use xlink:href="#rim" fill="#404040">
                                <set attributeName="fill" to="#808080" begin="zoomplus.mouseover" end="zoomplus.mouseout"/>
                        </use>
                        <path d="M-4,0h8M0,-4v8" fill="none" stroke="white" stroke-width="1.5" pointer-events="none"/>
                </g>
                <g id="zoomMin">
                        <use xlink:href="#rim" fill="#404040">
                                <set attributeName="fill" to="#808080" begin="zoomminus.mouseover" end="zoomminus.mouseout"/>
                        </use>
                        <path d="M-4,0h8" fill="none" stroke="white" stroke-width="1.5" pointer-events="none"/>
                </g>
                <g id="dirArrow">
                        <path fill="none" stroke="white" stroke-width="1.5" d="M0,-3.0v7 M-2.5,-0.5L0,-3.0L2.5,-0.5"/>
                </g>
               <g id="resetDef">
                       <use xlink:href="#rim2" fill="#404040">
                               <set attributeName="fill" to="#808080" begin="reset.mouseover" end="reset.mouseout"/>
                       </use>
               </g>
        </defs>

<script type="text/javascript">
var viewWidth = 766;
var viewHeight = 90;
var sectionId = 'dynsection-14';
</script>
<script xlink:href="svgpan.js"/>
<svg id="graph" class="graph">
<g id="viewport">
<title>Config::update_epprom</title>
<!-- Node65 -->
<g id="node1" class="node"><title>Node65</title>
<polygon fill="#bfbfbf" stroke="black" points="0,-50 0,-69 118,-69 118,-50 0,-50"/>
<text text-anchor="middle" x="59" y="-57" font-family="Helvetica,sans-Serif" font-size="10.00">Config::update_epprom</text>
</g>
<!-- Node66 -->
<g id="node2" class="node"><title>Node66</title>
<g id="a_node2"><a xlink:href="class_config.html#a5ae6c4f7255e895e7384fc2a4baab160" target="_top" xlink:title="Config::endString">
<polygon fill="none" stroke="black" points="419,-44 419,-63 511,-63 511,-44 419,-44"/>
<text text-anchor="middle" x="465" y="-51" font-family="Helvetica,sans-Serif" font-size="10.00">Config::endString</text>
</a>
</g>
</g>
<!-- Node65&#45;&gt;Node66 -->
<g id="edge1" class="edge"><title>Node65&#45;&gt;Node66</title>
<path fill="none" stroke="midnightblue" d="M108.023,-71.1246C122.689,-74.1548 138.924,-76.9916 154,-78.5 248.02,-87.9069 358.36,-72.7703 418.772,-62.2499"/>
<polygon fill="midnightblue" stroke="midnightblue" points="108.665,-67.6829 98.1541,-69.0098 107.199,-74.5275 108.665,-67.6829"/>
</g>
<!-- Node69 -->
<g id="node5" class="node"><title>Node69</title>
<g id="a_node5"><a xlink:href="class_config.html#a2a806f322b0d533aabdb8e796d3b1033" target="_top" xlink:title="The execute method is the config &quot;main function&quot; In this method, sentence from the uart are process e...">
<polygon fill="none" stroke="black" points="154,-50 154,-69 240,-69 240,-50 154,-50"/>
<text text-anchor="middle" x="197" y="-57" font-family="Helvetica,sans-Serif" font-size="10.00">Config::execute</text>
</a>
</g>
</g>
<!-- Node65&#45;&gt;Node69 -->
<g id="edge4" class="edge"><title>Node65&#45;&gt;Node69</title>
<path fill="none" stroke="midnightblue" d="M128.248,-59.5C136.945,-59.5 145.637,-59.5 153.753,-59.5"/>
<polygon fill="midnightblue" stroke="midnightblue" points="128.071,-56.0001 118.071,-59.5 128.071,-63.0001 128.071,-56.0001"/>
</g>
<!-- Node70 -->
<g id="node6" class="node"><title>Node70</title>
<g id="a_node6"><a xlink:href="class_config.html#af2fee2ffae339b1e8ead1cd413e44ee3" target="_top" xlink:title="Initialize the eeprom memory. ">
<polygon fill="none" stroke="black" points="154,-0.5 154,-30.5 240,-30.5 240,-0.5 154,-0.5"/>
<text text-anchor="start" x="162" y="-18.5" font-family="Helvetica,sans-Serif" font-size="10.00">Config::initialize</text>
<text text-anchor="middle" x="197" y="-7.5" font-family="Helvetica,sans-Serif" font-size="10.00">_eeprom</text>
</a>
</g>
</g>
<!-- Node65&#45;&gt;Node70 -->
<g id="edge5" class="edge"><title>Node65&#45;&gt;Node70</title>
<path fill="none" stroke="midnightblue" d="M99.2078,-46.8151C116.338,-41.2729 136.459,-34.7634 153.904,-29.1191"/>
<polygon fill="midnightblue" stroke="midnightblue" points="97.947,-43.5443 89.51,-49.9527 100.102,-50.2044 97.947,-43.5443"/>
</g>
<!-- Node67 -->
<g id="node3" class="node"><title>Node67</title>
<g id="a_node3"><a xlink:href="class_f_s_m.html#a3819be8e9fe92b750f47b9731e92f254" target="_top" xlink:title="Call when a string from usart0 finish by &quot;\r\n&quot;. ">
<polygon fill="none" stroke="black" points="547,-44 547,-63 684,-63 684,-44 547,-44"/>
<text text-anchor="middle" x="615.5" y="-51" font-family="Helvetica,sans-Serif" font-size="10.00">FSM::character_processing</text>
</a>
</g>
</g>
<!-- Node66&#45;&gt;Node67 -->
<g id="edge2" class="edge"><title>Node66&#45;&gt;Node67</title>
<path fill="none" stroke="midnightblue" d="M521.633,-53.5C529.908,-53.5 538.513,-53.5 546.999,-53.5"/>
<polygon fill="midnightblue" stroke="midnightblue" points="521.362,-50.0001 511.362,-53.5 521.362,-57.0001 521.362,-50.0001"/>
</g>
<!-- Node68 -->
<g id="node4" class="node"><title>Node68</title>
<g id="a_node4"><a xlink:href="main_8cpp.html#ae66f6b31b5ad750f1fe042a706a4e3d4" target="_top" xlink:title="main">
<polygon fill="none" stroke="black" points="720,-44 720,-63 758,-63 758,-44 720,-44"/>
<text text-anchor="middle" x="739" y="-51" font-family="Helvetica,sans-Serif" font-size="10.00">main</text>
</a>
</g>
</g>
<!-- Node67&#45;&gt;Node68 -->
<g id="edge3" class="edge"><title>Node67&#45;&gt;Node68</title>
<path fill="none" stroke="midnightblue" d="M694.013,-53.5C703.457,-53.5 712.315,-53.5 719.572,-53.5"/>
<polygon fill="midnightblue" stroke="midnightblue" points="694.001,-50.0001 684.001,-53.5 694.001,-57.0001 694.001,-50.0001"/>
</g>
<!-- Node70&#45;&gt;Node66 -->
<g id="edge6" class="edge"><title>Node70&#45;&gt;Node66</title>
<path fill="none" stroke="midnightblue" d="M250.199,-29.2675C258.778,-31.2265 267.607,-33.0608 276,-34.5 324.5,-42.8168 380.709,-47.9105 418.941,-50.7028"/>
<polygon fill="midnightblue" stroke="midnightblue" points="250.82,-25.818 240.283,-26.9268 249.212,-32.6308 250.82,-25.818"/>
</g>
<!-- Node71 -->
<g id="node7" class="node"><title>Node71</title>
<g id="a_node7"><a xlink:href="class_config.html#ab55107c3371b6c41be6688c0989993c7" target="_top" xlink:title="Load saved config data from the eeprom. ">
<polygon fill="none" stroke="black" points="276,-6 276,-25 383,-25 383,-6 276,-6"/>
<text text-anchor="middle" x="329.5" y="-13" font-family="Helvetica,sans-Serif" font-size="10.00">Config::load_eeprom</text>
</a>
</g>
</g>
<!-- Node70&#45;&gt;Node71 -->
<g id="edge7" class="edge"><title>Node70&#45;&gt;Node71</title>
<path fill="none" stroke="midnightblue" d="M250.061,-8.87409C258.457,-8.71413 267.157,-8.70882 275.574,-8.85816"/>
<polygon fill="midnightblue" stroke="midnightblue" points="249.911,-5.37676 240.009,-9.14592 250.1,-12.3742 249.911,-5.37676"/>
</g>
<!-- Node71&#45;&gt;Node66 -->
<g id="edge8" class="edge"><title>Node71&#45;&gt;Node66</title>
<path fill="none" stroke="midnightblue" d="M374.03,-27.8906C392.312,-33.0945 413.249,-39.0541 430.323,-43.9141"/>
<polygon fill="midnightblue" stroke="midnightblue" points="374.764,-24.4605 364.188,-25.089 372.847,-31.1931 374.764,-24.4605"/>
</g>
<!-- Node71&#45;&gt;Node70 -->
<g id="edge10" class="edge"><title>Node71&#45;&gt;Node70</title>
<path fill="none" stroke="midnightblue" d="M265.488,-22.2465C256.845,-22.2737 248.15,-22.143 240.009,-21.8541"/>
<polygon fill="midnightblue" stroke="midnightblue" points="265.61,-25.7455 275.574,-22.1418 265.538,-18.7459 265.61,-25.7455"/>
</g>
<!-- Node72 -->
<g id="node8" class="node"><title>Node72</title>
<g id="a_node8"><a xlink:href="class_f_s_m.html#a2fccf1c016c43e4fa4ee512311bf9d7d" target="_top" xlink:title="Class constructor. ">
<polygon fill="none" stroke="black" points="432.5,-6 432.5,-25 497.5,-25 497.5,-6 432.5,-6"/>
<text text-anchor="middle" x="465" y="-13" font-family="Helvetica,sans-Serif" font-size="10.00">FSM::FSM</text>
</a>
</g>
</g>
<!-- Node71&#45;&gt;Node72 -->
<g id="edge9" class="edge"><title>Node71&#45;&gt;Node72</title>
<path fill="none" stroke="midnightblue" d="M393.502,-15.5C406.992,-15.5 420.687,-15.5 432.373,-15.5"/>
<polygon fill="midnightblue" stroke="midnightblue" points="393.263,-12.0001 383.263,-15.5 393.263,-19.0001 393.263,-12.0001"/>
</g>
</g>
</svg>
        <g id="navigator" transform="translate(0 0)" fill="#404254">
                <rect fill="#f2f5e9" fill-opacity="0.5" stroke="#606060" stroke-width=".5" x="0" y="0" width="60" height="60"/>
                <use id="zoomplus" xlink:href="#zoomPlus" x="17" y="9" onmousedown="handleZoom(evt,'in')"/>
                <use id="zoomminus" xlink:href="#zoomMin" x="42" y="9" onmousedown="handleZoom(evt,'out')"/>
                <use id="reset" xlink:href="#resetDef" x="30" y="36" onmousedown="handleReset()"/>
                <g id="arrowUp" xlink:href="#dirArrow" transform="translate(30 24)" onmousedown="handlePan(0,-1)">
                  <use xlink:href="#rim" fill="#404040">
                        <set attributeName="fill" to="#808080" begin="arrowUp.mouseover" end="arrowUp.mouseout"/>
                  </use>
                  <path fill="none" stroke="white" stroke-width="1.5" d="M0,-3.0v7 M-2.5,-0.5L0,-3.0L2.5,-0.5"/>
                </g>
                <g id="arrowRight" xlink:href="#dirArrow" transform="rotate(90) translate(36 -43)" onmousedown="handlePan(1,0)">
                  <use xlink:href="#rim" fill="#404040">
                        <set attributeName="fill" to="#808080" begin="arrowRight.mouseover" end="arrowRight.mouseout"/>
                  </use>
                  <path fill="none" stroke="white" stroke-width="1.5" d="M0,-3.0v7 M-2.5,-0.5L0,-3.0L2.5,-0.5"/>
                </g>
                <g id="arrowDown" xlink:href="#dirArrow" transform="rotate(180) translate(-30 -48)" onmousedown="handlePan(0,1)">
                  <use xlink:href="#rim" fill="#404040">
                        <set attributeName="fill" to="#808080" begin="arrowDown.mouseover" end="arrowDown.mouseout"/>
                  </use>
                  <path fill="none" stroke="white" stroke-width="1.5" d="M0,-3.0v7 M-2.5,-0.5L0,-3.0L2.5,-0.5"/>
                </g>
                <g id="arrowLeft" xlink:href="#dirArrow" transform="rotate(270) translate(-36 17)" onmousedown="handlePan(-1,0)">
                  <use xlink:href="#rim" fill="#404040">
                        <set attributeName="fill" to="#808080" begin="arrowLeft.mouseover" end="arrowLeft.mouseout"/>
                  </use>
                  <path fill="none" stroke="white" stroke-width="1.5" d="M0,-3.0v7 M-2.5,-0.5L0,-3.0L2.5,-0.5"/>
                </g>
        </g>
        <svg viewBox="0 0 15 15" width="100%" height="30px" preserveAspectRatio="xMaxYMin meet">
         <g id="arrow_out" transform="scale(0.3 0.3)">
          <a xlink:href="class_config_a5fefd76d384c0a710ea0dd0d71d5d05b_icgraph_org.svg" target="_base">
           <rect id="button" ry="5" rx="5" y="6" x="6" height="38" width="38"
                fill="#f2f5e9" fill-opacity="0.5" stroke="#606060" stroke-width="1.0"/>
           <path id="arrow"
             d="M 11.500037,31.436501 C 11.940474,20.09759 22.043105,11.32322 32.158766,21.979434 L 37.068811,17.246167 C 37.068811,17.246167 37.088388,32 37.088388,32 L 22.160133,31.978069 C 22.160133,31.978069 26.997745,27.140456 26.997745,27.140456 C 18.528582,18.264221 13.291696,25.230495 11.500037,31.436501 z"
             style="fill:#404040;"/>
          </a>
         </g>
        </svg>
</svg>
