<?xml version="1.0" encoding="UTF-8" standalone="no"?>
<!DOCTYPE svg PUBLIC "-//W3C//DTD SVG 1.1//EN"
 "http://www.w3.org/Graphics/SVG/1.1/DTD/svg11.dtd">
<!-- Generated by graphviz version 2.38.0 (20140413.2041)
 -->
<!-- Title: Output::execute Pages: 1 -->
<svg width="523pt" height="142pt"
 viewBox="0.00 0.00 523.00 142.00" xmlns="http://www.w3.org/2000/svg" xmlns:xlink="http://www.w3.org/1999/xlink">
<g id="graph0" class="graph" transform="scale(1 1) rotate(0) translate(4 138)">
<title>Output::execute</title>
<!-- Node4 -->
<g id="node1" class="node"><title>Node4</title>
<polygon fill="#bfbfbf" stroke="black" points="0,-57.5 0,-76.5 86,-76.5 86,-57.5 0,-57.5"/>
<text text-anchor="middle" x="43" y="-64.5" font-family="Helvetica,sans-Serif" font-size="10.00">Output::execute</text>
</g>
<!-- Node5 -->
<g id="node2" class="node"><title>Node5</title>
<g id="a_node2"><a xlink:href="class_r_t_c.html#ad0c4545ccad338b30faab6a125833843" target="_top" xlink:title="RTC::get_timestamp">
<polygon fill="none" stroke="black" points="123.5,-114.5 123.5,-133.5 231.5,-133.5 231.5,-114.5 123.5,-114.5"/>
<text text-anchor="middle" x="177.5" y="-121.5" font-family="Helvetica,sans-Serif" font-size="10.00">RTC::get_timestamp</text>
</a>
</g>
</g>
<!-- Node4&#45;&gt;Node5 -->
<g id="edge1" class="edge"><title>Node4&#45;&gt;Node5</title>
<path fill="none" stroke="midnightblue" d="M62.0034,-76.5231C77.6366,-84.6098 101.001,-96.2601 122,-105 127.03,-107.094 132.382,-109.155 137.693,-111.103"/>
<polygon fill="midnightblue" stroke="midnightblue" points="136.533,-114.406 147.128,-114.471 138.886,-107.813 136.533,-114.406"/>
</g>
<!-- Node8 -->
<g id="node5" class="node"><title>Node8</title>
<g id="a_node5"><a xlink:href="class_output.html#a2d62a7d56d1731d8f100ad850642d04c" target="_top" xlink:title="Output::SDCard_print">
<polygon fill="none" stroke="black" points="122,-76.5 122,-95.5 233,-95.5 233,-76.5 122,-76.5"/>
<text text-anchor="middle" x="177.5" y="-83.5" font-family="Helvetica,sans-Serif" font-size="10.00">Output::SDCard_print</text>
</a>
</g>
</g>
<!-- Node4&#45;&gt;Node8 -->
<g id="edge4" class="edge"><title>Node4&#45;&gt;Node8</title>
<path fill="none" stroke="midnightblue" d="M86.2881,-73.064C94.3446,-74.2192 102.947,-75.4528 111.522,-76.6824"/>
<polygon fill="midnightblue" stroke="midnightblue" points="111.144,-80.164 121.54,-78.1189 112.138,-73.2349 111.144,-80.164"/>
</g>
<!-- Node9 -->
<g id="node6" class="node"><title>Node9</title>
<g id="a_node6"><a xlink:href="class_output.html#af4bc42d2d3bb3b2a98782f0df0eba133" target="_top" xlink:title="Output::usart0_print">
<polygon fill="none" stroke="black" points="126,-38.5 126,-57.5 229,-57.5 229,-38.5 126,-38.5"/>
<text text-anchor="middle" x="177.5" y="-45.5" font-family="Helvetica,sans-Serif" font-size="10.00">Output::usart0_print</text>
</a>
</g>
</g>
<!-- Node4&#45;&gt;Node9 -->
<g id="edge5" class="edge"><title>Node4&#45;&gt;Node9</title>
<path fill="none" stroke="midnightblue" d="M86.2881,-60.936C95.7173,-59.5839 105.895,-58.1245 115.899,-56.6899"/>
<polygon fill="midnightblue" stroke="midnightblue" points="116.41,-60.1525 125.812,-55.2684 115.417,-53.2234 116.41,-60.1525"/>
</g>
<!-- Node13 -->
<g id="node10" class="node"><title>Node13</title>
<g id="a_node10"><a xlink:href="class_output.html#a943b106620d1c711e838298a4c4233af" target="_top" xlink:title="Output::usart1_print">
<polygon fill="none" stroke="black" points="126,-0.5 126,-19.5 229,-19.5 229,-0.5 126,-0.5"/>
<text text-anchor="middle" x="177.5" y="-7.5" font-family="Helvetica,sans-Serif" font-size="10.00">Output::usart1_print</text>
</a>
</g>
</g>
<!-- Node4&#45;&gt;Node13 -->
<g id="edge9" class="edge"><title>Node4&#45;&gt;Node13</title>
<path fill="none" stroke="midnightblue" d="M62.0034,-57.4769C77.6366,-49.3902 101.001,-37.7399 122,-29 127.03,-26.9064 132.382,-24.845 137.693,-22.8966"/>
<polygon fill="midnightblue" stroke="midnightblue" points="138.886,-26.1869 147.128,-19.5288 136.533,-19.5943 138.886,-26.1869"/>
</g>
<!-- Node6 -->
<g id="node3" class="node"><title>Node6</title>
<g id="a_node3"><a xlink:href="class_r_t_c.html#a20900a7f5bd95b1928bf2d08a0de687c" target="_top" xlink:title="RTC::time_to_epoch">
<polygon fill="none" stroke="black" points="271.5,-114.5 271.5,-133.5 378.5,-133.5 378.5,-114.5 271.5,-114.5"/>
<text text-anchor="middle" x="325" y="-121.5" font-family="Helvetica,sans-Serif" font-size="10.00">RTC::time_to_epoch</text>
</a>
</g>
</g>
<!-- Node5&#45;&gt;Node6 -->
<g id="edge2" class="edge"><title>Node5&#45;&gt;Node6</title>
<path fill="none" stroke="midnightblue" d="M231.853,-124C241.363,-124 251.351,-124 261.099,-124"/>
<polygon fill="midnightblue" stroke="midnightblue" points="261.14,-127.5 271.14,-124 261.14,-120.5 261.14,-127.5"/>
</g>
<!-- Node7 -->
<g id="node4" class="node"><title>Node7</title>
<g id="a_node4"><a xlink:href="class_r_t_c.html#ae36ee3d564befce64eff1e8f610cb6d6" target="_top" xlink:title="RTC::is_leap_year">
<polygon fill="none" stroke="black" points="417,-114.5 417,-133.5 515,-133.5 515,-114.5 417,-114.5"/>
<text text-anchor="middle" x="466" y="-121.5" font-family="Helvetica,sans-Serif" font-size="10.00">RTC::is_leap_year</text>
</a>
</g>
</g>
<!-- Node6&#45;&gt;Node7 -->
<g id="edge3" class="edge"><title>Node6&#45;&gt;Node7</title>
<path fill="none" stroke="midnightblue" d="M378.55,-124C387.809,-124 397.496,-124 406.896,-124"/>
<polygon fill="midnightblue" stroke="midnightblue" points="406.951,-127.5 416.951,-124 406.951,-120.5 406.951,-127.5"/>
</g>
<!-- Node10 -->
<g id="node7" class="node"><title>Node10</title>
<g id="a_node7"><a xlink:href="class_sensor.html#a38a47820684e5ff0f61ad32b8afbde45" target="_top" xlink:title="The print_average method print the average&#39;s value in the string. ">
<polygon fill="none" stroke="black" points="269,-76.5 269,-95.5 381,-95.5 381,-76.5 269,-76.5"/>
<text text-anchor="middle" x="325" y="-83.5" font-family="Helvetica,sans-Serif" font-size="10.00">Sensor::print_average</text>
</a>
</g>
</g>
<!-- Node9&#45;&gt;Node10 -->
<g id="edge6" class="edge"><title>Node9&#45;&gt;Node10</title>
<path fill="none" stroke="midnightblue" d="M215.216,-57.589C234.157,-62.5358 257.457,-68.6211 277.629,-73.8892"/>
<polygon fill="midnightblue" stroke="midnightblue" points="276.988,-77.3394 287.548,-76.4799 278.757,-70.5665 276.988,-77.3394"/>
</g>
<!-- Node11 -->
<g id="node8" class="node"><title>Node11</title>
<g id="a_node8"><a xlink:href="class_power.html#a6c1622c43b34a31d8929674b33433c20" target="_top" xlink:title="The print_average method print the average&#39;s value in the string. ">
<polygon fill="none" stroke="black" points="270.5,-38.5 270.5,-57.5 379.5,-57.5 379.5,-38.5 270.5,-38.5"/>
<text text-anchor="middle" x="325" y="-45.5" font-family="Helvetica,sans-Serif" font-size="10.00">Power::print_average</text>
</a>
</g>
</g>
<!-- Node9&#45;&gt;Node11 -->
<g id="edge7" class="edge"><title>Node9&#45;&gt;Node11</title>
<path fill="none" stroke="midnightblue" d="M229.389,-48C239.346,-48 249.905,-48 260.22,-48"/>
<polygon fill="midnightblue" stroke="midnightblue" points="260.422,-51.5001 270.422,-48 260.422,-44.5001 260.422,-51.5001"/>
</g>
<!-- Node12 -->
<g id="node9" class="node"><title>Node12</title>
<g id="a_node9"><a xlink:href="class_usart.html#ab236d7c399791bbe1431f85e9b60f601" target="_top" xlink:title="USART string sender function. ">
<polygon fill="none" stroke="black" points="292.5,-0.5 292.5,-19.5 357.5,-19.5 357.5,-0.5 292.5,-0.5"/>
<text text-anchor="middle" x="325" y="-7.5" font-family="Helvetica,sans-Serif" font-size="10.00">Usart::print</text>
</a>
</g>
</g>
<!-- Node9&#45;&gt;Node12 -->
<g id="edge8" class="edge"><title>Node9&#45;&gt;Node12</title>
<path fill="none" stroke="midnightblue" d="M215.216,-38.411C235.71,-33.0584 261.31,-26.3728 282.525,-20.8318"/>
<polygon fill="midnightblue" stroke="midnightblue" points="283.447,-24.2087 292.238,-18.2952 281.678,-17.4358 283.447,-24.2087"/>
</g>
</g>
</svg>
