<?xml version="1.0" encoding="UTF-8" standalone="no"?>
<!DOCTYPE svg PUBLIC "-//W3C//DTD SVG 1.1//EN"
 "http://www.w3.org/Graphics/SVG/1.1/DTD/svg11.dtd">
<!-- Generated by graphviz version 2.38.0 (20140413.2041)
 -->
<!-- Title: Config Pages: 1 -->
<svg width="180pt" height="402pt"
 viewBox="0.00 0.00 180.00 402.00" xmlns="http://www.w3.org/2000/svg" xmlns:xlink="http://www.w3.org/1999/xlink">
<g id="graph0" class="graph" transform="scale(1 1) rotate(0) translate(4 398)">
<title>Config</title>
<!-- Node0 -->
<g id="node1" class="node"><title>Node0</title>
<polygon fill="#bfbfbf" stroke="black" points="31,-0.5 31,-200.5 129,-200.5 129,-0.5 31,-0.5"/>
<text text-anchor="middle" x="80" y="-188.5" font-family="Helvetica,sans-Serif" font-size="10.00">Config</text>
<polyline fill="none" stroke="black" points="31,-181.5 129,-181.5 "/>
<text text-anchor="start" x="39" y="-169.5" font-family="Helvetica,sans-Serif" font-size="10.00">&#45; request</text>
<text text-anchor="start" x="39" y="-158.5" font-family="Helvetica,sans-Serif" font-size="10.00">&#45; request_i</text>
<polyline fill="none" stroke="black" points="31,-151.5 129,-151.5 "/>
<text text-anchor="start" x="39" y="-139.5" font-family="Helvetica,sans-Serif" font-size="10.00">+ Config()</text>
<text text-anchor="start" x="39" y="-128.5" font-family="Helvetica,sans-Serif" font-size="10.00">+ ~Config()</text>
<text text-anchor="start" x="39" y="-117.5" font-family="Helvetica,sans-Serif" font-size="10.00">+ execute()</text>
<text text-anchor="start" x="39" y="-106.5" font-family="Helvetica,sans-Serif" font-size="10.00">+ print()</text>
<text text-anchor="start" x="39" y="-95.5" font-family="Helvetica,sans-Serif" font-size="10.00">+ isEqual()</text>
<text text-anchor="start" x="39" y="-84.5" font-family="Helvetica,sans-Serif" font-size="10.00">+ backspace()</text>
<text text-anchor="start" x="39" y="-73.5" font-family="Helvetica,sans-Serif" font-size="10.00">+ endString()</text>
<text text-anchor="start" x="39" y="-62.5" font-family="Helvetica,sans-Serif" font-size="10.00">+ display()</text>
<text text-anchor="start" x="39" y="-51.5" font-family="Helvetica,sans-Serif" font-size="10.00">+ addToRequest()</text>
<text text-anchor="start" x="39" y="-40.5" font-family="Helvetica,sans-Serif" font-size="10.00">+ atoc()</text>
<text text-anchor="start" x="39" y="-29.5" font-family="Helvetica,sans-Serif" font-size="10.00">+ load_logger()</text>
<text text-anchor="start" x="39" y="-18.5" font-family="Helvetica,sans-Serif" font-size="10.00">+ update_logger()</text>
<text text-anchor="start" x="39" y="-7.5" font-family="Helvetica,sans-Serif" font-size="10.00">+ initialize_logger()</text>
</g>
<!-- Node1 -->
<g id="node2" class="node"><title>Node1</title>
<g id="a_node2"><a xlink:href="class_state.html" target="_top" xlink:title="{State\n|# m_name\l|+ State()\l+ ~State()\l+ execute()\l+ print()\l+ isEqual()\l}">
<polygon fill="none" stroke="black" points="0,-270.5 0,-371.5 66,-371.5 66,-270.5 0,-270.5"/>
<text text-anchor="middle" x="33" y="-359.5" font-family="Helvetica,sans-Serif" font-size="10.00">State</text>
<polyline fill="none" stroke="black" points="0,-352.5 66,-352.5 "/>
<text text-anchor="start" x="8" y="-340.5" font-family="Helvetica,sans-Serif" font-size="10.00"># m_name</text>
<polyline fill="none" stroke="black" points="0,-333.5 66,-333.5 "/>
<text text-anchor="start" x="8" y="-321.5" font-family="Helvetica,sans-Serif" font-size="10.00">+ State()</text>
<text text-anchor="start" x="8" y="-310.5" font-family="Helvetica,sans-Serif" font-size="10.00">+ ~State()</text>
<text text-anchor="start" x="8" y="-299.5" font-family="Helvetica,sans-Serif" font-size="10.00">+ execute()</text>
<text text-anchor="start" x="8" y="-288.5" font-family="Helvetica,sans-Serif" font-size="10.00">+ print()</text>
<text text-anchor="start" x="8" y="-277.5" font-family="Helvetica,sans-Serif" font-size="10.00">+ isEqual()</text>
</a>
</g>
</g>
<!-- Node1&#45;&gt;Node0 -->
<g id="edge1" class="edge"><title>Node1&#45;&gt;Node0</title>
<path fill="none" stroke="midnightblue" d="M45.8078,-260.457C49.7672,-242.05 54.2413,-221.251 58.6167,-200.91"/>
<polygon fill="none" stroke="midnightblue" points="42.3463,-259.907 43.665,-270.419 49.1898,-261.379 42.3463,-259.907"/>
</g>
<!-- Node2 -->
<g id="node3" class="node"><title>Node2</title>
<g id="a_node3"><a xlink:href="class_date_time.html" target="_top" xlink:title="The DateTime class permit to have human readable format for the timestamp. ">
<polygon fill="none" stroke="black" points="84,-248.5 84,-393.5 172,-393.5 172,-248.5 84,-248.5"/>
<text text-anchor="middle" x="128" y="-381.5" font-family="Helvetica,sans-Serif" font-size="10.00">DateTime</text>
<polyline fill="none" stroke="black" points="84,-374.5 172,-374.5 "/>
<text text-anchor="start" x="92" y="-362.5" font-family="Helvetica,sans-Serif" font-size="10.00">&#45; m_second</text>
<text text-anchor="start" x="92" y="-351.5" font-family="Helvetica,sans-Serif" font-size="10.00">&#45; m_minute</text>
<text text-anchor="start" x="92" y="-340.5" font-family="Helvetica,sans-Serif" font-size="10.00">&#45; m_hour</text>
<text text-anchor="start" x="92" y="-329.5" font-family="Helvetica,sans-Serif" font-size="10.00">&#45; m_date</text>
<text text-anchor="start" x="92" y="-318.5" font-family="Helvetica,sans-Serif" font-size="10.00">&#45; m_month</text>
<text text-anchor="start" x="92" y="-307.5" font-family="Helvetica,sans-Serif" font-size="10.00">&#45; m_year</text>
<polyline fill="none" stroke="black" points="84,-300.5 172,-300.5 "/>
<text text-anchor="start" x="92" y="-288.5" font-family="Helvetica,sans-Serif" font-size="10.00">+ DateTime()</text>
<text text-anchor="start" x="92" y="-277.5" font-family="Helvetica,sans-Serif" font-size="10.00">+ toDateTime()</text>
<text text-anchor="start" x="92" y="-266.5" font-family="Helvetica,sans-Serif" font-size="10.00">+ getDateTime()</text>
<text text-anchor="start" x="92" y="-255.5" font-family="Helvetica,sans-Serif" font-size="10.00">&#45; isLeap()</text>
</a>
</g>
</g>
<!-- Node2&#45;&gt;Node0 -->
<g id="edge2" class="edge"><title>Node2&#45;&gt;Node0</title>
<path fill="none" stroke="#404040" d="M112.283,-248.455C109.734,-236.854 107.044,-224.606 104.348,-212.332"/>
<polygon fill="none" stroke="#404040" points="104.34,-212.296 99.1455,-207.294 101.765,-200.576 106.959,-205.578 104.34,-212.296"/>
<text text-anchor="middle" x="135" y="-222" font-family="Helvetica,sans-Serif" font-size="10.00"> &#45;currentTime</text>
</g>
</g>
</svg>
