<?xml version="1.0" encoding="UTF-8" standalone="no"?>
<!DOCTYPE svg PUBLIC "-//W3C//DTD SVG 1.1//EN"
 "http://www.w3.org/Graphics/SVG/1.1/DTD/svg11.dtd">
<!-- Generated by graphviz version 2.38.0 (20140413.2041)
 -->
<!-- Title: Measure::execute Pages: 1 -->
<svg width="564pt" height="331pt"
 viewBox="0.00 0.00 564.00 331.00" xmlns="http://www.w3.org/2000/svg" xmlns:xlink="http://www.w3.org/1999/xlink">
<g id="graph0" class="graph" transform="scale(1 1) rotate(0) translate(4 327)">
<title>Measure::execute</title>
<!-- Node12 -->
<g id="node1" class="node"><title>Node12</title>
<polygon fill="#bfbfbf" stroke="black" points="0,-142.5 0,-161.5 95,-161.5 95,-142.5 0,-142.5"/>
<text text-anchor="middle" x="47.5" y="-149.5" font-family="Helvetica,sans-Serif" font-size="10.00">Measure::execute</text>
</g>
<!-- Node13 -->
<g id="node2" class="node"><title>Node13</title>
<g id="a_node2"><a xlink:href="class_measure.html#a1518672dff4f81603a35bff08c20e9f5" target="_top" xlink:title="calcul average from the data array ">
<polygon fill="none" stroke="black" points="137,-284.5 137,-303.5 255,-303.5 255,-284.5 137,-284.5"/>
<text text-anchor="middle" x="196" y="-291.5" font-family="Helvetica,sans-Serif" font-size="10.00">Measure::calc_average</text>
</a>
</g>
</g>
<!-- Node12&#45;&gt;Node13 -->
<g id="edge1" class="edge"><title>Node12&#45;&gt;Node13</title>
<path fill="none" stroke="midnightblue" d="M52.2379,-161.656C61.7151,-184.85 88.9556,-244.068 131,-275 133.532,-276.863 136.247,-278.545 139.076,-280.062"/>
<polygon fill="midnightblue" stroke="midnightblue" points="137.874,-283.362 148.421,-284.373 140.806,-277.006 137.874,-283.362"/>
</g>
<!-- Node16 -->
<g id="node5" class="node"><title>Node16</title>
<g id="a_node5"><a xlink:href="class_measure.html#a333a5ff14469e98bed368fd3e268751f" target="_top" xlink:title="this method clear data value to save news ">
<polygon fill="none" stroke="black" points="143.5,-235 143.5,-265 248.5,-265 248.5,-235 143.5,-235"/>
<text text-anchor="start" x="151.5" y="-253" font-family="Helvetica,sans-Serif" font-size="10.00">Measure::clear_data</text>
<text text-anchor="middle" x="196" y="-242" font-family="Helvetica,sans-Serif" font-size="10.00">_array</text>
</a>
</g>
</g>
<!-- Node12&#45;&gt;Node16 -->
<g id="edge4" class="edge"><title>Node12&#45;&gt;Node16</title>
<path fill="none" stroke="midnightblue" d="M57.2225,-161.913C71.351,-177.449 100.725,-207.648 131,-226 133.654,-227.609 136.434,-229.14 139.287,-230.591"/>
<polygon fill="midnightblue" stroke="midnightblue" points="138.038,-233.872 148.577,-234.958 141.016,-227.537 138.038,-233.872"/>
</g>
<!-- Node17 -->
<g id="node6" class="node"><title>Node17</title>
<g id="a_node6"><a xlink:href="class_measure.html#adb3ffd40b37bda243c00893ffb208907" target="_top" xlink:title="this method initialize frequency measurement for anemometer and RPM ">
<polygon fill="none" stroke="black" points="148.5,-186 148.5,-216 243.5,-216 243.5,-186 148.5,-186"/>
<text text-anchor="start" x="156.5" y="-204" font-family="Helvetica,sans-Serif" font-size="10.00">Measure::freq_init</text>
<text text-anchor="middle" x="196" y="-193" font-family="Helvetica,sans-Serif" font-size="10.00">_measurement</text>
</a>
</g>
</g>
<!-- Node12&#45;&gt;Node17 -->
<g id="edge5" class="edge"><title>Node12&#45;&gt;Node17</title>
<path fill="none" stroke="midnightblue" d="M77.0945,-161.564C95.0749,-167.578 118.86,-175.533 140.356,-182.723"/>
<polygon fill="midnightblue" stroke="midnightblue" points="139.449,-186.11 150.043,-185.963 141.669,-179.472 139.449,-186.11"/>
</g>
<!-- Node19 -->
<g id="node8" class="node"><title>Node19</title>
<g id="a_node8"><a xlink:href="class_measure.html#a4390d770b19dbc51e5486fefe9f4b9d1" target="_top" xlink:title="read value from anemometer and RPM ">
<polygon fill="none" stroke="black" points="145.5,-137 145.5,-167 246.5,-167 246.5,-137 145.5,-137"/>
<text text-anchor="start" x="153.5" y="-155" font-family="Helvetica,sans-Serif" font-size="10.00">Measure::freq_read</text>
<text text-anchor="middle" x="196" y="-144" font-family="Helvetica,sans-Serif" font-size="10.00">_value</text>
</a>
</g>
</g>
<!-- Node12&#45;&gt;Node19 -->
<g id="edge7" class="edge"><title>Node12&#45;&gt;Node19</title>
<path fill="none" stroke="midnightblue" d="M95.2563,-152C108.002,-152 121.984,-152 135.341,-152"/>
<polygon fill="midnightblue" stroke="midnightblue" points="135.403,-155.5 145.403,-152 135.403,-148.5 135.403,-155.5"/>
</g>
<!-- Node21 -->
<g id="node10" class="node"><title>Node21</title>
<g id="a_node10"><a xlink:href="class_measure.html#a313b5845f14f7c62f37db11272145320" target="_top" xlink:title="read power value &#45; not define realy (see emonLib) ">
<polygon fill="none" stroke="black" points="141,-88 141,-118 251,-118 251,-88 141,-88"/>
<text text-anchor="start" x="149" y="-106" font-family="Helvetica,sans-Serif" font-size="10.00">Measure::power_read</text>
<text text-anchor="middle" x="196" y="-95" font-family="Helvetica,sans-Serif" font-size="10.00">_value</text>
</a>
</g>
</g>
<!-- Node12&#45;&gt;Node21 -->
<g id="edge9" class="edge"><title>Node12&#45;&gt;Node21</title>
<path fill="none" stroke="midnightblue" d="M77.0945,-142.436C95.0749,-136.422 118.86,-128.467 140.356,-121.277"/>
<polygon fill="midnightblue" stroke="midnightblue" points="141.669,-124.528 150.043,-118.037 139.449,-117.89 141.669,-124.528"/>
</g>
<!-- Node24 -->
<g id="node13" class="node"><title>Node24</title>
<g id="a_node13"><a xlink:href="class_measure.html#ae3c562d3b11c5e202366597b951e969b" target="_top" xlink:title="read the temperature value from one DS18b20 sensor ">
<polygon fill="none" stroke="black" points="140,-39 140,-69 252,-69 252,-39 140,-39"/>
<text text-anchor="start" x="148" y="-57" font-family="Helvetica,sans-Serif" font-size="10.00">Measure::temperature</text>
<text text-anchor="middle" x="196" y="-46" font-family="Helvetica,sans-Serif" font-size="10.00">_read_value</text>
</a>
</g>
</g>
<!-- Node12&#45;&gt;Node24 -->
<g id="edge12" class="edge"><title>Node12&#45;&gt;Node24</title>
<path fill="none" stroke="midnightblue" d="M57.2225,-142.087C71.351,-126.551 100.725,-96.3519 131,-78 133.654,-76.391 136.434,-74.8603 139.287,-73.4086"/>
<polygon fill="midnightblue" stroke="midnightblue" points="141.016,-76.4634 148.577,-69.0423 138.038,-70.1282 141.016,-76.4634"/>
</g>
<!-- Node25 -->
<g id="node14" class="node"><title>Node25</title>
<g id="a_node14"><a xlink:href="class_measure.html#add6924662bc09f06abc3ec7b6dc2c94e" target="_top" xlink:title="read the windvane value en map it between 0 to 359 degres ">
<polygon fill="none" stroke="black" points="131,-0.5 131,-19.5 261,-19.5 261,-0.5 131,-0.5"/>
<text text-anchor="middle" x="196" y="-7.5" font-family="Helvetica,sans-Serif" font-size="10.00">Measure::windvane_value</text>
</a>
</g>
</g>
<!-- Node12&#45;&gt;Node25 -->
<g id="edge13" class="edge"><title>Node12&#45;&gt;Node25</title>
<path fill="none" stroke="midnightblue" d="M52.2379,-142.344C61.7151,-119.15 88.9556,-59.932 131,-29 133.532,-27.1369 136.247,-25.4553 139.076,-23.9377"/>
<polygon fill="midnightblue" stroke="midnightblue" points="140.806,-26.994 148.421,-19.6273 137.874,-20.6376 140.806,-26.994"/>
</g>
<!-- Node14 -->
<g id="node3" class="node"><title>Node14</title>
<g id="a_node3"><a xlink:href="class_power.html#a09a87034c397af2cfb7289fe1fbe5830" target="_top" xlink:title="This method calculate the mean RMS voltage, mean RMS current, active power, apparent power and power ...">
<polygon fill="none" stroke="black" points="318,-303.5 318,-322.5 401,-322.5 401,-303.5 318,-303.5"/>
<text text-anchor="middle" x="359.5" y="-310.5" font-family="Helvetica,sans-Serif" font-size="10.00">Power::calc_all</text>
</a>
</g>
</g>
<!-- Node13&#45;&gt;Node14 -->
<g id="edge2" class="edge"><title>Node13&#45;&gt;Node14</title>
<path fill="none" stroke="midnightblue" d="M255.305,-300.859C272.514,-302.884 291.201,-305.082 307.884,-307.045"/>
<polygon fill="midnightblue" stroke="midnightblue" points="307.641,-310.541 317.981,-308.233 308.459,-303.589 307.641,-310.541"/>
</g>
<!-- Node15 -->
<g id="node4" class="node"><title>Node15</title>
<g id="a_node4"><a xlink:href="class_sensor.html#ae16fd0cbdda6cfed1deac36f5c7c0a8f" target="_top" xlink:title="This method calculate the average from the data array. ">
<polygon fill="none" stroke="black" points="304,-265.5 304,-284.5 415,-284.5 415,-265.5 304,-265.5"/>
<text text-anchor="middle" x="359.5" y="-272.5" font-family="Helvetica,sans-Serif" font-size="10.00">Sensor::calc_average</text>
</a>
</g>
</g>
<!-- Node13&#45;&gt;Node15 -->
<g id="edge3" class="edge"><title>Node13&#45;&gt;Node15</title>
<path fill="none" stroke="midnightblue" d="M255.305,-287.141C267.781,-285.673 281.034,-284.114 293.737,-282.619"/>
<polygon fill="midnightblue" stroke="midnightblue" points="294.259,-286.082 303.781,-281.438 293.441,-279.13 294.259,-286.082"/>
</g>
<!-- Node18 -->
<g id="node7" class="node"><title>Node18</title>
<g id="a_node7"><a xlink:href="class_anemometer.html#a142b28b2f221433f1fefd7f26b4a40c1" target="_top" xlink:title="Anemometer::start">
<polygon fill="none" stroke="black" points="310.5,-191.5 310.5,-210.5 408.5,-210.5 408.5,-191.5 310.5,-191.5"/>
<text text-anchor="middle" x="359.5" y="-198.5" font-family="Helvetica,sans-Serif" font-size="10.00">Anemometer::start</text>
</a>
</g>
</g>
<!-- Node17&#45;&gt;Node18 -->
<g id="edge6" class="edge"><title>Node17&#45;&gt;Node18</title>
<path fill="none" stroke="midnightblue" d="M243.712,-201C261.398,-201 281.75,-201 300.359,-201"/>
<polygon fill="midnightblue" stroke="midnightblue" points="300.491,-204.5 310.49,-201 300.49,-197.5 300.491,-204.5"/>
</g>
<!-- Node20 -->
<g id="node9" class="node"><title>Node20</title>
<g id="a_node9"><a xlink:href="class_anemometer.html#a9be3b4b392ef08ef29c769e6ce4bebf4" target="_top" xlink:title="Anemometer::read_value">
<polygon fill="none" stroke="black" points="297,-142.5 297,-161.5 422,-161.5 422,-142.5 297,-142.5"/>
<text text-anchor="middle" x="359.5" y="-149.5" font-family="Helvetica,sans-Serif" font-size="10.00">Anemometer::read_value</text>
</a>
</g>
</g>
<!-- Node19&#45;&gt;Node20 -->
<g id="edge8" class="edge"><title>Node19&#45;&gt;Node20</title>
<path fill="none" stroke="midnightblue" d="M246.773,-152C259.402,-152 273.223,-152 286.707,-152"/>
<polygon fill="midnightblue" stroke="midnightblue" points="286.926,-155.5 296.926,-152 286.926,-148.5 286.926,-155.5"/>
</g>
<!-- Node22 -->
<g id="node11" class="node"><title>Node22</title>
<g id="a_node11"><a xlink:href="class_power.html#ace64df3181f3dfce89b8a1f8608e16eb" target="_top" xlink:title="Power::read_rms_value">
<polygon fill="none" stroke="black" points="300,-93.5 300,-112.5 419,-112.5 419,-93.5 300,-93.5"/>
<text text-anchor="middle" x="359.5" y="-100.5" font-family="Helvetica,sans-Serif" font-size="10.00">Power::read_rms_value</text>
</a>
</g>
</g>
<!-- Node21&#45;&gt;Node22 -->
<g id="edge10" class="edge"><title>Node21&#45;&gt;Node22</title>
<path fill="none" stroke="midnightblue" d="M251.226,-103C263.591,-103 276.888,-103 289.769,-103"/>
<polygon fill="midnightblue" stroke="midnightblue" points="289.983,-106.5 299.983,-103 289.983,-99.5001 289.983,-106.5"/>
</g>
<!-- Node23 -->
<g id="node12" class="node"><title>Node23</title>
<g id="a_node12"><a xlink:href="class_power.html#a1e33445a6a18766a77c5304292efcb4f" target="_top" xlink:title="This method read return int value from the ADC channel. ">
<polygon fill="none" stroke="black" points="459.5,-93.5 459.5,-112.5 554.5,-112.5 554.5,-93.5 459.5,-93.5"/>
<text text-anchor="middle" x="507" y="-100.5" font-family="Helvetica,sans-Serif" font-size="10.00">Power::adc_value</text>
</a>
</g>
</g>
<!-- Node22&#45;&gt;Node23 -->
<g id="edge11" class="edge"><title>Node22&#45;&gt;Node23</title>
<path fill="none" stroke="midnightblue" d="M419.261,-103C429.095,-103 439.284,-103 449.071,-103"/>
<polygon fill="midnightblue" stroke="midnightblue" points="449.093,-106.5 459.093,-103 449.093,-99.5001 449.093,-106.5"/>
</g>
<!-- Node26 -->
<g id="node15" class="node"><title>Node26</title>
<g id="a_node15"><a xlink:href="class_windvane.html#ae61d5d71151e53c900b2f10b5f7a9d67" target="_top" xlink:title="Windvane::read_value">
<polygon fill="none" stroke="black" points="303,-0.5 303,-19.5 416,-19.5 416,-0.5 303,-0.5"/>
<text text-anchor="middle" x="359.5" y="-7.5" font-family="Helvetica,sans-Serif" font-size="10.00">Windvane::read_value</text>
</a>
</g>
</g>
<!-- Node25&#45;&gt;Node26 -->
<g id="edge14" class="edge"><title>Node25&#45;&gt;Node26</title>
<path fill="none" stroke="midnightblue" d="M261.293,-10C271.585,-10 282.249,-10 292.578,-10"/>
<polygon fill="midnightblue" stroke="midnightblue" points="292.769,-13.5001 302.769,-10 292.769,-6.5001 292.769,-13.5001"/>
</g>
<!-- Node27 -->
<g id="node16" class="node"><title>Node27</title>
<g id="a_node16"><a xlink:href="class_sensor.html#ad46f537d694b7cd559a46fd187574164" target="_top" xlink:title="This method read return int value from the ADC channel. ">
<polygon fill="none" stroke="black" points="458,-0.5 458,-19.5 556,-19.5 556,-0.5 458,-0.5"/>
<text text-anchor="middle" x="507" y="-7.5" font-family="Helvetica,sans-Serif" font-size="10.00">Sensor::adc_value</text>
</a>
</g>
</g>
<!-- Node26&#45;&gt;Node27 -->
<g id="edge15" class="edge"><title>Node26&#45;&gt;Node27</title>
<path fill="none" stroke="midnightblue" d="M416.338,-10C426.556,-10 437.245,-10 447.537,-10"/>
<polygon fill="midnightblue" stroke="midnightblue" points="447.664,-13.5001 457.664,-10 447.664,-6.5001 447.664,-13.5001"/>
</g>
</g>
</svg>
