<?xml version="1.0" encoding="UTF-8" standalone="no"?>
<!DOCTYPE svg PUBLIC "-//W3C//DTD SVG 1.1//EN"
 "http://www.w3.org/Graphics/SVG/1.1/DTD/svg11.dtd">
<!-- Generated by graphviz version 2.38.0 (20140413.2041)
 -->
<!-- Title: FSM Pages: 1 -->
<svg width="1492pt" height="1222pt"
 viewBox="0.00 0.00 1491.60 1222.00" xmlns="http://www.w3.org/2000/svg" xmlns:xlink="http://www.w3.org/1999/xlink">
<g id="graph0" class="graph" transform="scale(1 1) rotate(0) translate(4 1218)">
<title>FSM</title>
<!-- Node0 -->
<g id="node1" class="node"><title>Node0</title>
<polygon fill="#bfbfbf" stroke="black" points="663.599,-0.5 663.599,-200.5 788.599,-200.5 788.599,-0.5 663.599,-0.5"/>
<text text-anchor="middle" x="726.099" y="-188.5" font-family="Helvetica,sans-Serif" font-size="10.00">FSM</text>
<polyline fill="none" stroke="black" points="663.599,-181.5 788.599,-181.5 "/>
<text text-anchor="start" x="671.599" y="-169.5" font-family="Helvetica,sans-Serif" font-size="10.00">+ flag_new_measure</text>
<text text-anchor="start" x="671.599" y="-158.5" font-family="Helvetica,sans-Serif" font-size="10.00">+ flag_data_averages</text>
<text text-anchor="start" x="671.599" y="-147.5" font-family="Helvetica,sans-Serif" font-size="10.00">_ready</text>
<text text-anchor="start" x="671.599" y="-136.5" font-family="Helvetica,sans-Serif" font-size="10.00">+ flag_config_request</text>
<text text-anchor="start" x="671.599" y="-125.5" font-family="Helvetica,sans-Serif" font-size="10.00">+ flag_data_frequencies</text>
<text text-anchor="start" x="671.599" y="-114.5" font-family="Helvetica,sans-Serif" font-size="10.00">_ready</text>
<text text-anchor="start" x="671.599" y="-103.5" font-family="Helvetica,sans-Serif" font-size="10.00">+ timestamp</text>
<text text-anchor="start" x="671.599" y="-92.5" font-family="Helvetica,sans-Serif" font-size="10.00">&#45; second_counter</text>
<polyline fill="none" stroke="black" points="663.599,-85.5 788.599,-85.5 "/>
<text text-anchor="start" x="671.599" y="-73.5" font-family="Helvetica,sans-Serif" font-size="10.00">+ FSM()</text>
<text text-anchor="start" x="671.599" y="-62.5" font-family="Helvetica,sans-Serif" font-size="10.00">+ ~FSM()</text>
<text text-anchor="start" x="671.599" y="-51.5" font-family="Helvetica,sans-Serif" font-size="10.00">+ new_State_definition()</text>
<text text-anchor="start" x="671.599" y="-40.5" font-family="Helvetica,sans-Serif" font-size="10.00">+ measurement_timing</text>
<text text-anchor="start" x="671.599" y="-29.5" font-family="Helvetica,sans-Serif" font-size="10.00">_control()</text>
<text text-anchor="start" x="671.599" y="-18.5" font-family="Helvetica,sans-Serif" font-size="10.00">+ execute()</text>
<text text-anchor="start" x="671.599" y="-7.5" font-family="Helvetica,sans-Serif" font-size="10.00">+ character_processing()</text>
</g>
<!-- Node1 -->
<g id="node2" class="node"><title>Node1</title>
<g id="a_node2"><a xlink:href="class_config.html" target="_top" xlink:title="The class Config inherits from the class State. This class manage input between the FSM...">
<polygon fill="none" stroke="black" points="112.099,-463 112.099,-663 210.099,-663 210.099,-463 112.099,-463"/>
<text text-anchor="middle" x="161.099" y="-651" font-family="Helvetica,sans-Serif" font-size="10.00">Config</text>
<polyline fill="none" stroke="black" points="112.099,-644 210.099,-644 "/>
<text text-anchor="start" x="120.099" y="-632" font-family="Helvetica,sans-Serif" font-size="10.00">&#45; request</text>
<text text-anchor="start" x="120.099" y="-621" font-family="Helvetica,sans-Serif" font-size="10.00">&#45; request_i</text>
<polyline fill="none" stroke="black" points="112.099,-614 210.099,-614 "/>
<text text-anchor="start" x="120.099" y="-602" font-family="Helvetica,sans-Serif" font-size="10.00">+ Config()</text>
<text text-anchor="start" x="120.099" y="-591" font-family="Helvetica,sans-Serif" font-size="10.00">+ ~Config()</text>
<text text-anchor="start" x="120.099" y="-580" font-family="Helvetica,sans-Serif" font-size="10.00">+ execute()</text>
<text text-anchor="start" x="120.099" y="-569" font-family="Helvetica,sans-Serif" font-size="10.00">+ print()</text>
<text text-anchor="start" x="120.099" y="-558" font-family="Helvetica,sans-Serif" font-size="10.00">+ isEqual()</text>
<text text-anchor="start" x="120.099" y="-547" font-family="Helvetica,sans-Serif" font-size="10.00">+ backspace()</text>
<text text-anchor="start" x="120.099" y="-536" font-family="Helvetica,sans-Serif" font-size="10.00">+ endString()</text>
<text text-anchor="start" x="120.099" y="-525" font-family="Helvetica,sans-Serif" font-size="10.00">+ display()</text>
<text text-anchor="start" x="120.099" y="-514" font-family="Helvetica,sans-Serif" font-size="10.00">+ addToRequest()</text>
<text text-anchor="start" x="120.099" y="-503" font-family="Helvetica,sans-Serif" font-size="10.00">+ atoc()</text>
<text text-anchor="start" x="120.099" y="-492" font-family="Helvetica,sans-Serif" font-size="10.00">+ load_logger()</text>
<text text-anchor="start" x="120.099" y="-481" font-family="Helvetica,sans-Serif" font-size="10.00">+ update_logger()</text>
<text text-anchor="start" x="120.099" y="-470" font-family="Helvetica,sans-Serif" font-size="10.00">+ initialize_logger()</text>
</a>
</g>
</g>
<!-- Node1&#45;&gt;Node0 -->
<g id="edge1" class="edge"><title>Node1&#45;&gt;Node0</title>
<path fill="none" stroke="#404040" d="M160.645,-462.737C164.797,-399.625 178.738,-318.83 219.099,-259 267.974,-186.552 522.639,-135.013 651.397,-113.16"/>
<polygon fill="none" stroke="#404040" points="651.618,-113.123 656.874,-108.186 663.453,-111.138 658.197,-116.076 651.618,-113.123"/>
<text text-anchor="middle" x="283.599" y="-227.5" font-family="Helvetica,sans-Serif" font-size="10.00"> &#45;config</text>
</g>
<!-- Node2 -->
<g id="node3" class="node"><title>Node2</title>
<g id="a_node3"><a xlink:href="class_state.html" target="_top" xlink:title="{State\n|# m_name\l|+ State()\l+ ~State()\l+ execute()\l+ print()\l+ isEqual()\l}">
<polygon fill="none" stroke="black" points="270.099,-1019 270.099,-1120 336.099,-1120 336.099,-1019 270.099,-1019"/>
<text text-anchor="middle" x="303.099" y="-1108" font-family="Helvetica,sans-Serif" font-size="10.00">State</text>
<polyline fill="none" stroke="black" points="270.099,-1101 336.099,-1101 "/>
<text text-anchor="start" x="278.099" y="-1089" font-family="Helvetica,sans-Serif" font-size="10.00"># m_name</text>
<polyline fill="none" stroke="black" points="270.099,-1082 336.099,-1082 "/>
<text text-anchor="start" x="278.099" y="-1070" font-family="Helvetica,sans-Serif" font-size="10.00">+ State()</text>
<text text-anchor="start" x="278.099" y="-1059" font-family="Helvetica,sans-Serif" font-size="10.00">+ ~State()</text>
<text text-anchor="start" x="278.099" y="-1048" font-family="Helvetica,sans-Serif" font-size="10.00">+ execute()</text>
<text text-anchor="start" x="278.099" y="-1037" font-family="Helvetica,sans-Serif" font-size="10.00">+ print()</text>
<text text-anchor="start" x="278.099" y="-1026" font-family="Helvetica,sans-Serif" font-size="10.00">+ isEqual()</text>
</a>
</g>
</g>
<!-- Node2&#45;&gt;Node0 -->
<g id="edge18" class="edge"><title>Node2&#45;&gt;Node0</title>
<path fill="none" stroke="#404040" d="M269.71,-1053.59C212.909,-1026.14 99.2438,-961.607 54.0994,-867 -4.08757,-745.06 -29.8332,-364.879 54.0994,-259 128.099,-165.651 492.488,-122.3 651.575,-107.591"/>
<polygon fill="none" stroke="#404040" points="651.631,-107.586 657.244,-103.059 663.582,-106.5 657.969,-111.026 651.631,-107.586"/>
<text text-anchor="middle" x="78.5994" y="-560.5" font-family="Helvetica,sans-Serif" font-size="10.00"> &#45;nextState</text>
</g>
<!-- Node2&#45;&gt;Node1 -->
<g id="edge2" class="edge"><title>Node2&#45;&gt;Node1</title>
<path fill="none" stroke="midnightblue" d="M274.665,-1009.4C256.595,-969.851 233.899,-916.227 219.099,-867 199.014,-800.193 184.353,-722.931 174.796,-663.147"/>
<polygon fill="none" stroke="midnightblue" points="271.554,-1011.01 278.916,-1018.63 277.912,-1008.08 271.554,-1011.01"/>
</g>
<!-- Node6 -->
<g id="node7" class="node"><title>Node6</title>
<g id="a_node7"><a xlink:href="class_sleep.html" target="_top" xlink:title="{Sleep\n|&#45; m_name\l|+ Sleep()\l+ ~Sleep()\l+ execute()\l+ print()\l+ isEqual()\l}">
<polygon fill="none" stroke="black" points="228.099,-512.5 228.099,-613.5 294.099,-613.5 294.099,-512.5 228.099,-512.5"/>
<text text-anchor="middle" x="261.099" y="-601.5" font-family="Helvetica,sans-Serif" font-size="10.00">Sleep</text>
<polyline fill="none" stroke="black" points="228.099,-594.5 294.099,-594.5 "/>
<text text-anchor="start" x="236.099" y="-582.5" font-family="Helvetica,sans-Serif" font-size="10.00">&#45; m_name</text>
<polyline fill="none" stroke="black" points="228.099,-575.5 294.099,-575.5 "/>
<text text-anchor="start" x="236.099" y="-563.5" font-family="Helvetica,sans-Serif" font-size="10.00">+ Sleep()</text>
<text text-anchor="start" x="236.099" y="-552.5" font-family="Helvetica,sans-Serif" font-size="10.00">+ ~Sleep()</text>
<text text-anchor="start" x="236.099" y="-541.5" font-family="Helvetica,sans-Serif" font-size="10.00">+ execute()</text>
<text text-anchor="start" x="236.099" y="-530.5" font-family="Helvetica,sans-Serif" font-size="10.00">+ print()</text>
<text text-anchor="start" x="236.099" y="-519.5" font-family="Helvetica,sans-Serif" font-size="10.00">+ isEqual()</text>
</a>
</g>
</g>
<!-- Node2&#45;&gt;Node6 -->
<g id="edge7" class="edge"><title>Node2&#45;&gt;Node6</title>
<path fill="none" stroke="midnightblue" d="M298.125,-1008.75C289.757,-908.229 273.015,-707.124 265.241,-613.754"/>
<polygon fill="none" stroke="midnightblue" points="294.64,-1009.07 298.957,-1018.75 301.616,-1008.49 294.64,-1009.07"/>
</g>
<!-- Node8 -->
<g id="node9" class="node"><title>Node8</title>
<g id="a_node9"><a xlink:href="class_idle.html" target="_top" xlink:title="{Idle\n||+ Idle()\l+ ~Idle()\l+ execute()\l+ print()\l+ isEqual()\l}">
<polygon fill="none" stroke="black" points="312.099,-512.5 312.099,-613.5 378.099,-613.5 378.099,-512.5 312.099,-512.5"/>
<text text-anchor="middle" x="345.099" y="-601.5" font-family="Helvetica,sans-Serif" font-size="10.00">Idle</text>
<polyline fill="none" stroke="black" points="312.099,-594.5 378.099,-594.5 "/>
<text text-anchor="middle" x="345.099" y="-582.5" font-family="Helvetica,sans-Serif" font-size="10.00"> </text>
<polyline fill="none" stroke="black" points="312.099,-575.5 378.099,-575.5 "/>
<text text-anchor="start" x="320.099" y="-563.5" font-family="Helvetica,sans-Serif" font-size="10.00">+ Idle()</text>
<text text-anchor="start" x="320.099" y="-552.5" font-family="Helvetica,sans-Serif" font-size="10.00">+ ~Idle()</text>
<text text-anchor="start" x="320.099" y="-541.5" font-family="Helvetica,sans-Serif" font-size="10.00">+ execute()</text>
<text text-anchor="start" x="320.099" y="-530.5" font-family="Helvetica,sans-Serif" font-size="10.00">+ print()</text>
<text text-anchor="start" x="320.099" y="-519.5" font-family="Helvetica,sans-Serif" font-size="10.00">+ isEqual()</text>
</a>
</g>
</g>
<!-- Node2&#45;&gt;Node8 -->
<g id="edge10" class="edge"><title>Node2&#45;&gt;Node8</title>
<path fill="none" stroke="midnightblue" d="M308.073,-1008.75C316.442,-908.229 333.184,-707.124 340.957,-613.754"/>
<polygon fill="none" stroke="midnightblue" points="304.583,-1008.49 307.241,-1018.75 311.559,-1009.07 304.583,-1008.49"/>
</g>
<!-- Node10 -->
<g id="node11" class="node"><title>Node10</title>
<g id="a_node11"><a xlink:href="class_measure.html" target="_top" xlink:title="The class Measure inherits from the class State. ">
<polygon fill="none" stroke="black" points="396.599,-474 396.599,-652 529.599,-652 529.599,-474 396.599,-474"/>
<text text-anchor="middle" x="463.099" y="-640" font-family="Helvetica,sans-Serif" font-size="10.00">Measure</text>
<polyline fill="none" stroke="black" points="396.599,-633 529.599,-633 "/>
<text text-anchor="middle" x="463.099" y="-621" font-family="Helvetica,sans-Serif" font-size="10.00"> </text>
<polyline fill="none" stroke="black" points="396.599,-614 529.599,-614 "/>
<text text-anchor="start" x="404.599" y="-602" font-family="Helvetica,sans-Serif" font-size="10.00">+ Measure()</text>
<text text-anchor="start" x="404.599" y="-591" font-family="Helvetica,sans-Serif" font-size="10.00">+ ~Measure()</text>
<text text-anchor="start" x="404.599" y="-580" font-family="Helvetica,sans-Serif" font-size="10.00">+ execute()</text>
<text text-anchor="start" x="404.599" y="-569" font-family="Helvetica,sans-Serif" font-size="10.00">+ print()</text>
<text text-anchor="start" x="404.599" y="-558" font-family="Helvetica,sans-Serif" font-size="10.00">+ isEqual()</text>
<text text-anchor="start" x="404.599" y="-547" font-family="Helvetica,sans-Serif" font-size="10.00">&#45; clear_data_array()</text>
<text text-anchor="start" x="404.599" y="-536" font-family="Helvetica,sans-Serif" font-size="10.00">&#45; freq_init_measurement()</text>
<text text-anchor="start" x="404.599" y="-525" font-family="Helvetica,sans-Serif" font-size="10.00">&#45; windvane_value()</text>
<text text-anchor="start" x="404.599" y="-514" font-family="Helvetica,sans-Serif" font-size="10.00">&#45; power_read_value()</text>
<text text-anchor="start" x="404.599" y="-503" font-family="Helvetica,sans-Serif" font-size="10.00">&#45; temperature_read_value()</text>
<text text-anchor="start" x="404.599" y="-492" font-family="Helvetica,sans-Serif" font-size="10.00">&#45; freq_read_value()</text>
<text text-anchor="start" x="404.599" y="-481" font-family="Helvetica,sans-Serif" font-size="10.00">&#45; calc_average()</text>
</a>
</g>
</g>
<!-- Node2&#45;&gt;Node10 -->
<g id="edge14" class="edge"><title>Node2&#45;&gt;Node10</title>
<path fill="none" stroke="midnightblue" d="M330.432,-1009.51C348.145,-969.804 370.857,-915.955 387.099,-867 410.711,-795.837 430.985,-713.168 444.64,-652.174"/>
<polygon fill="none" stroke="midnightblue" points="327.175,-1008.22 326.274,-1018.78 333.561,-1011.09 327.175,-1008.22"/>
</g>
<!-- Node14 -->
<g id="node15" class="node"><title>Node14</title>
<g id="a_node15"><a xlink:href="class_output.html" target="_top" xlink:title="{Output\n|+ USART0\l+ USART1\l+ SD_CARD\l+ WIFI\l+ GPRS\l&#45; string\l|+ Output()\l+ ~Output()\l+ execute()\l+ print()\l+ isEqual()\l+ usart0_print()\l+ usart1_print()\l+ SDCard_print()\l}">
<polygon fill="none" stroke="black" points="547.599,-468.5 547.599,-657.5 638.599,-657.5 638.599,-468.5 547.599,-468.5"/>
<text text-anchor="middle" x="593.099" y="-645.5" font-family="Helvetica,sans-Serif" font-size="10.00">Output</text>
<polyline fill="none" stroke="black" points="547.599,-638.5 638.599,-638.5 "/>
<text text-anchor="start" x="555.599" y="-626.5" font-family="Helvetica,sans-Serif" font-size="10.00">+ USART0</text>
<text text-anchor="start" x="555.599" y="-615.5" font-family="Helvetica,sans-Serif" font-size="10.00">+ USART1</text>
<text text-anchor="start" x="555.599" y="-604.5" font-family="Helvetica,sans-Serif" font-size="10.00">+ SD_CARD</text>
<text text-anchor="start" x="555.599" y="-593.5" font-family="Helvetica,sans-Serif" font-size="10.00">+ WIFI</text>
<text text-anchor="start" x="555.599" y="-582.5" font-family="Helvetica,sans-Serif" font-size="10.00">+ GPRS</text>
<text text-anchor="start" x="555.599" y="-571.5" font-family="Helvetica,sans-Serif" font-size="10.00">&#45; string</text>
<polyline fill="none" stroke="black" points="547.599,-564.5 638.599,-564.5 "/>
<text text-anchor="start" x="555.599" y="-552.5" font-family="Helvetica,sans-Serif" font-size="10.00">+ Output()</text>
<text text-anchor="start" x="555.599" y="-541.5" font-family="Helvetica,sans-Serif" font-size="10.00">+ ~Output()</text>
<text text-anchor="start" x="555.599" y="-530.5" font-family="Helvetica,sans-Serif" font-size="10.00">+ execute()</text>
<text text-anchor="start" x="555.599" y="-519.5" font-family="Helvetica,sans-Serif" font-size="10.00">+ print()</text>
<text text-anchor="start" x="555.599" y="-508.5" font-family="Helvetica,sans-Serif" font-size="10.00">+ isEqual()</text>
<text text-anchor="start" x="555.599" y="-497.5" font-family="Helvetica,sans-Serif" font-size="10.00">+ usart0_print()</text>
<text text-anchor="start" x="555.599" y="-486.5" font-family="Helvetica,sans-Serif" font-size="10.00">+ usart1_print()</text>
<text text-anchor="start" x="555.599" y="-475.5" font-family="Helvetica,sans-Serif" font-size="10.00">+ SDCard_print()</text>
</a>
</g>
</g>
<!-- Node2&#45;&gt;Node14 -->
<g id="edge20" class="edge"><title>Node2&#45;&gt;Node14</title>
<path fill="none" stroke="midnightblue" d="M344.949,-1045.12C398.914,-1012.62 491.366,-948.475 538.099,-867 574.676,-803.233 587.828,-720.554 592.167,-657.675"/>
<polygon fill="none" stroke="midnightblue" points="343.119,-1042.14 336.309,-1050.25 346.694,-1048.16 343.119,-1042.14"/>
</g>
<!-- Node3 -->
<g id="node4" class="node"><title>Node3</title>
<g id="a_node4"><a xlink:href="class_anemometer.html" target="_top" xlink:title="{Anemometer\n|+ TIMER3_OVF_PERIODE\l|+ Anemometer()\l+ ~Anemometer()\l+ print()\l+ read_value()\l+ start()\l}">
<polygon fill="none" stroke="black" points="656.599,-512.5 656.599,-613.5 795.599,-613.5 795.599,-512.5 656.599,-512.5"/>
<text text-anchor="middle" x="726.099" y="-601.5" font-family="Helvetica,sans-Serif" font-size="10.00">Anemometer</text>
<polyline fill="none" stroke="black" points="656.599,-594.5 795.599,-594.5 "/>
<text text-anchor="start" x="664.599" y="-582.5" font-family="Helvetica,sans-Serif" font-size="10.00">+ TIMER3_OVF_PERIODE</text>
<polyline fill="none" stroke="black" points="656.599,-575.5 795.599,-575.5 "/>
<text text-anchor="start" x="664.599" y="-563.5" font-family="Helvetica,sans-Serif" font-size="10.00">+ Anemometer()</text>
<text text-anchor="start" x="664.599" y="-552.5" font-family="Helvetica,sans-Serif" font-size="10.00">+ ~Anemometer()</text>
<text text-anchor="start" x="664.599" y="-541.5" font-family="Helvetica,sans-Serif" font-size="10.00">+ print()</text>
<text text-anchor="start" x="664.599" y="-530.5" font-family="Helvetica,sans-Serif" font-size="10.00">+ read_value()</text>
<text text-anchor="start" x="664.599" y="-519.5" font-family="Helvetica,sans-Serif" font-size="10.00">+ start()</text>
</a>
</g>
</g>
<!-- Node3&#45;&gt;Node0 -->
<g id="edge3" class="edge"><title>Node3&#45;&gt;Node0</title>
<path fill="none" stroke="#404040" d="M726.099,-512.281C726.099,-441.023 726.099,-307.943 726.099,-212.552"/>
<polygon fill="none" stroke="#404040" points="726.1,-212.527 722.099,-206.527 726.099,-200.527 730.099,-206.527 726.1,-212.527"/>
<text text-anchor="middle" x="748.099" y="-233" font-family="Helvetica,sans-Serif" font-size="10.00"> +anemo1</text>
<text text-anchor="middle" x="748.099" y="-222" font-family="Helvetica,sans-Serif" font-size="10.00">+anemo2</text>
</g>
<!-- Node4 -->
<g id="node5" class="node"><title>Node4</title>
<g id="a_node5"><a xlink:href="class_sensor.html" target="_top" xlink:title="The sensor class is the base container for sensor, need to create a inherited class from sensor...">
<polygon fill="none" stroke="black" points="739.599,-925.5 739.599,-1213.5 840.599,-1213.5 840.599,-925.5 739.599,-925.5"/>
<text text-anchor="middle" x="790.099" y="-1201.5" font-family="Helvetica,sans-Serif" font-size="10.00">Sensor</text>
<polyline fill="none" stroke="black" points="739.599,-1194.5 840.599,-1194.5 "/>
<text text-anchor="start" x="747.599" y="-1182.5" font-family="Helvetica,sans-Serif" font-size="10.00"># m_id</text>
<text text-anchor="start" x="747.599" y="-1171.5" font-family="Helvetica,sans-Serif" font-size="10.00"># m_enable</text>
<text text-anchor="start" x="747.599" y="-1160.5" font-family="Helvetica,sans-Serif" font-size="10.00"># m_eeprom_addr</text>
<text text-anchor="start" x="747.599" y="-1149.5" font-family="Helvetica,sans-Serif" font-size="10.00"># m_data</text>
<text text-anchor="start" x="747.599" y="-1138.5" font-family="Helvetica,sans-Serif" font-size="10.00"># m_average</text>
<text text-anchor="start" x="747.599" y="-1127.5" font-family="Helvetica,sans-Serif" font-size="10.00"># m_factor</text>
<text text-anchor="start" x="747.599" y="-1116.5" font-family="Helvetica,sans-Serif" font-size="10.00"># m_offset</text>
<polyline fill="none" stroke="black" points="739.599,-1109.5 840.599,-1109.5 "/>
<text text-anchor="start" x="747.599" y="-1097.5" font-family="Helvetica,sans-Serif" font-size="10.00">+ Sensor()</text>
<text text-anchor="start" x="747.599" y="-1086.5" font-family="Helvetica,sans-Serif" font-size="10.00">+ ~Sensor()</text>
<text text-anchor="start" x="747.599" y="-1075.5" font-family="Helvetica,sans-Serif" font-size="10.00">+ set_factor()</text>
<text text-anchor="start" x="747.599" y="-1064.5" font-family="Helvetica,sans-Serif" font-size="10.00">+ set_offset()</text>
<text text-anchor="start" x="747.599" y="-1053.5" font-family="Helvetica,sans-Serif" font-size="10.00">+ set_enable()</text>
<text text-anchor="start" x="747.599" y="-1042.5" font-family="Helvetica,sans-Serif" font-size="10.00">+ is_enable()</text>
<text text-anchor="start" x="747.599" y="-1031.5" font-family="Helvetica,sans-Serif" font-size="10.00">+ print()</text>
<text text-anchor="start" x="747.599" y="-1020.5" font-family="Helvetica,sans-Serif" font-size="10.00">+ read_value()</text>
<text text-anchor="start" x="747.599" y="-1009.5" font-family="Helvetica,sans-Serif" font-size="10.00">+ print_config()</text>
<text text-anchor="start" x="747.599" y="-998.5" font-family="Helvetica,sans-Serif" font-size="10.00">+ calc_average()</text>
<text text-anchor="start" x="747.599" y="-987.5" font-family="Helvetica,sans-Serif" font-size="10.00">+ print_average()</text>
<text text-anchor="start" x="747.599" y="-976.5" font-family="Helvetica,sans-Serif" font-size="10.00">+ print_data_array()</text>
<text text-anchor="start" x="747.599" y="-965.5" font-family="Helvetica,sans-Serif" font-size="10.00">+ load_param()</text>
<text text-anchor="start" x="747.599" y="-954.5" font-family="Helvetica,sans-Serif" font-size="10.00">+ update_param()</text>
<text text-anchor="start" x="747.599" y="-943.5" font-family="Helvetica,sans-Serif" font-size="10.00">+ initialize_param()</text>
<text text-anchor="start" x="747.599" y="-932.5" font-family="Helvetica,sans-Serif" font-size="10.00"># adc_value()</text>
</a>
</g>
</g>
<!-- Node4&#45;&gt;Node3 -->
<g id="edge4" class="edge"><title>Node4&#45;&gt;Node3</title>
<path fill="none" stroke="midnightblue" d="M770.638,-915.09C757.584,-812.189 741.224,-683.221 732.415,-613.787"/>
<polygon fill="none" stroke="midnightblue" points="767.2,-915.8 771.931,-925.28 774.144,-914.919 767.2,-915.8"/>
</g>
<!-- Node9 -->
<g id="node10" class="node"><title>Node9</title>
<g id="a_node10"><a xlink:href="class_windvane.html" target="_top" xlink:title="{Windvane\n||+ Windvane()\l+ ~Windvane()\l+ print()\l+ read_value()\l}">
<polygon fill="none" stroke="black" points="813.599,-518 813.599,-608 894.599,-608 894.599,-518 813.599,-518"/>
<text text-anchor="middle" x="854.099" y="-596" font-family="Helvetica,sans-Serif" font-size="10.00">Windvane</text>
<polyline fill="none" stroke="black" points="813.599,-589 894.599,-589 "/>
<text text-anchor="middle" x="854.099" y="-577" font-family="Helvetica,sans-Serif" font-size="10.00"> </text>
<polyline fill="none" stroke="black" points="813.599,-570 894.599,-570 "/>
<text text-anchor="start" x="821.599" y="-558" font-family="Helvetica,sans-Serif" font-size="10.00">+ Windvane()</text>
<text text-anchor="start" x="821.599" y="-547" font-family="Helvetica,sans-Serif" font-size="10.00">+ ~Windvane()</text>
<text text-anchor="start" x="821.599" y="-536" font-family="Helvetica,sans-Serif" font-size="10.00">+ print()</text>
<text text-anchor="start" x="821.599" y="-525" font-family="Helvetica,sans-Serif" font-size="10.00">+ read_value()</text>
</a>
</g>
</g>
<!-- Node4&#45;&gt;Node9 -->
<g id="edge12" class="edge"><title>Node4&#45;&gt;Node9</title>
<path fill="none" stroke="midnightblue" d="M809.555,-915.138C822.967,-809.411 839.872,-676.149 848.49,-608.219"/>
<polygon fill="none" stroke="midnightblue" points="806.054,-914.919 808.268,-925.28 812.999,-915.8 806.054,-914.919"/>
</g>
<!-- Node5 -->
<g id="node6" class="node"><title>Node5</title>
<g id="a_node6"><a xlink:href="class_usart.html" target="_top" xlink:title="This is the uart library for the atmega1284p. ">
<polygon fill="none" stroke="black" points="912.599,-485 912.599,-641 989.599,-641 989.599,-485 912.599,-485"/>
<text text-anchor="middle" x="951.099" y="-629" font-family="Helvetica,sans-Serif" font-size="10.00">Usart</text>
<polyline fill="none" stroke="black" points="912.599,-622 989.599,-622 "/>
<text text-anchor="start" x="920.599" y="-610" font-family="Helvetica,sans-Serif" font-size="10.00">+ flag_rx0</text>
<text text-anchor="start" x="920.599" y="-599" font-family="Helvetica,sans-Serif" font-size="10.00">+ flag_rx1</text>
<text text-anchor="start" x="920.599" y="-588" font-family="Helvetica,sans-Serif" font-size="10.00">+ data_udr0</text>
<text text-anchor="start" x="920.599" y="-577" font-family="Helvetica,sans-Serif" font-size="10.00">+ data_udr1</text>
<text text-anchor="start" x="920.599" y="-566" font-family="Helvetica,sans-Serif" font-size="10.00">+ BR_9600</text>
<text text-anchor="start" x="920.599" y="-555" font-family="Helvetica,sans-Serif" font-size="10.00">+ BR_57600</text>
<text text-anchor="start" x="920.599" y="-544" font-family="Helvetica,sans-Serif" font-size="10.00">+ BR_115200</text>
<text text-anchor="start" x="920.599" y="-533" font-family="Helvetica,sans-Serif" font-size="10.00">&#45; m_usart</text>
<polyline fill="none" stroke="black" points="912.599,-526 989.599,-526 "/>
<text text-anchor="start" x="920.599" y="-514" font-family="Helvetica,sans-Serif" font-size="10.00">+ Usart()</text>
<text text-anchor="start" x="920.599" y="-503" font-family="Helvetica,sans-Serif" font-size="10.00">+ set()</text>
<text text-anchor="start" x="920.599" y="-492" font-family="Helvetica,sans-Serif" font-size="10.00">+ print()</text>
</a>
</g>
</g>
<!-- Node5&#45;&gt;Node0 -->
<g id="edge5" class="edge"><title>Node5&#45;&gt;Node0</title>
<path fill="none" stroke="#404040" d="M952.931,-484.906C951.286,-420.769 941.363,-328.979 903.099,-259 878.463,-213.943 835.761,-175.375 798.472,-147.682"/>
<polygon fill="none" stroke="#404040" points="798.329,-147.578 791.124,-147.285 788.622,-140.522 795.828,-140.815 798.329,-147.578"/>
<text text-anchor="middle" x="905.599" y="-227.5" font-family="Helvetica,sans-Serif" font-size="10.00"> +uart0</text>
</g>
<!-- Node6&#45;&gt;Node0 -->
<g id="edge6" class="edge"><title>Node6&#45;&gt;Node0</title>
<path fill="none" stroke="#404040" d="M255.352,-512.488C250.528,-448.337 251.254,-335.652 303.099,-259 380.541,-144.504 552.09,-113.015 651.293,-104.503"/>
<polygon fill="none" stroke="#404040" points="651.353,-104.499 657.02,-100.039 663.316,-103.554 657.65,-108.014 651.353,-104.499"/>
<text text-anchor="middle" x="349.099" y="-227.5" font-family="Helvetica,sans-Serif" font-size="10.00"> &#45;sleep</text>
</g>
<!-- Node7 -->
<g id="node8" class="node"><title>Node7</title>
<g id="a_node8"><a xlink:href="class_t_w_i.html" target="_top" xlink:title="{TWI\n||+ TWI()\l+ ~TWI()\l+ print()\l+ receive()\l+ set_char()\l+ get_char()\l&#45; start()\l&#45; restart()\l&#45; stop()\l&#45; set()\l&#45; get_ack()\l&#45; get_nack()\l&#45; get_status()\l}">
<polygon fill="none" stroke="black" points="1008.1,-468.5 1008.1,-657.5 1082.1,-657.5 1082.1,-468.5 1008.1,-468.5"/>
<text text-anchor="middle" x="1045.1" y="-645.5" font-family="Helvetica,sans-Serif" font-size="10.00">TWI</text>
<polyline fill="none" stroke="black" points="1008.1,-638.5 1082.1,-638.5 "/>
<text text-anchor="middle" x="1045.1" y="-626.5" font-family="Helvetica,sans-Serif" font-size="10.00"> </text>
<polyline fill="none" stroke="black" points="1008.1,-619.5 1082.1,-619.5 "/>
<text text-anchor="start" x="1016.1" y="-607.5" font-family="Helvetica,sans-Serif" font-size="10.00">+ TWI()</text>
<text text-anchor="start" x="1016.1" y="-596.5" font-family="Helvetica,sans-Serif" font-size="10.00">+ ~TWI()</text>
<text text-anchor="start" x="1016.1" y="-585.5" font-family="Helvetica,sans-Serif" font-size="10.00">+ print()</text>
<text text-anchor="start" x="1016.1" y="-574.5" font-family="Helvetica,sans-Serif" font-size="10.00">+ receive()</text>
<text text-anchor="start" x="1016.1" y="-563.5" font-family="Helvetica,sans-Serif" font-size="10.00">+ set_char()</text>
<text text-anchor="start" x="1016.1" y="-552.5" font-family="Helvetica,sans-Serif" font-size="10.00">+ get_char()</text>
<text text-anchor="start" x="1016.1" y="-541.5" font-family="Helvetica,sans-Serif" font-size="10.00">&#45; start()</text>
<text text-anchor="start" x="1016.1" y="-530.5" font-family="Helvetica,sans-Serif" font-size="10.00">&#45; restart()</text>
<text text-anchor="start" x="1016.1" y="-519.5" font-family="Helvetica,sans-Serif" font-size="10.00">&#45; stop()</text>
<text text-anchor="start" x="1016.1" y="-508.5" font-family="Helvetica,sans-Serif" font-size="10.00">&#45; set()</text>
<text text-anchor="start" x="1016.1" y="-497.5" font-family="Helvetica,sans-Serif" font-size="10.00">&#45; get_ack()</text>
<text text-anchor="start" x="1016.1" y="-486.5" font-family="Helvetica,sans-Serif" font-size="10.00">&#45; get_nack()</text>
<text text-anchor="start" x="1016.1" y="-475.5" font-family="Helvetica,sans-Serif" font-size="10.00">&#45; get_status()</text>
</a>
</g>
</g>
<!-- Node7&#45;&gt;Node0 -->
<g id="edge8" class="edge"><title>Node7&#45;&gt;Node0</title>
<path fill="none" stroke="#404040" d="M1050.8,-468.252C1050.14,-404.154 1039.87,-320.074 998.099,-259 951.044,-190.205 863.309,-147.435 800.19,-124.124"/>
<polygon fill="none" stroke="#404040" points="799.999,-124.055 792.999,-125.79 788.706,-119.996 795.705,-118.261 799.999,-124.055"/>
<text text-anchor="middle" x="994.099" y="-227.5" font-family="Helvetica,sans-Serif" font-size="10.00"> +twi</text>
</g>
<!-- Node8&#45;&gt;Node0 -->
<g id="edge9" class="edge"><title>Node8&#45;&gt;Node0</title>
<path fill="none" stroke="#404040" d="M338.43,-512.357C332.5,-447.551 331.915,-333.615 387.099,-259 450.599,-173.142 572.53,-132.586 651.54,-114.567"/>
<polygon fill="none" stroke="#404040" points="651.635,-114.546 656.635,-109.35 663.354,-111.967 658.354,-117.163 651.635,-114.546"/>
<text text-anchor="middle" x="432.099" y="-227.5" font-family="Helvetica,sans-Serif" font-size="10.00"> &#45;idle</text>
</g>
<!-- Node9&#45;&gt;Node0 -->
<g id="edge11" class="edge"><title>Node9&#45;&gt;Node0</title>
<path fill="none" stroke="#404040" d="M850.933,-517.89C845.717,-458.036 832.875,-348.314 804.099,-259 799.092,-243.459 792.77,-227.533 785.902,-212.062"/>
<polygon fill="none" stroke="#404040" points="785.787,-211.811 779.661,-208.008 780.815,-200.89 786.942,-204.693 785.787,-211.811"/>
<text text-anchor="middle" x="821.599" y="-227.5" font-family="Helvetica,sans-Serif" font-size="10.00"> +windvane</text>
</g>
<!-- Node10&#45;&gt;Node0 -->
<g id="edge13" class="edge"><title>Node10&#45;&gt;Node0</title>
<path fill="none" stroke="#404040" d="M470.275,-473.754C478.797,-410.062 497.423,-324.163 538.099,-259 566.887,-212.883 613.724,-173.589 653.446,-145.784"/>
<polygon fill="none" stroke="#404040" points="653.483,-145.759 656.165,-139.065 663.376,-138.966 660.694,-145.66 653.483,-145.759"/>
<text text-anchor="middle" x="588.099" y="-227.5" font-family="Helvetica,sans-Serif" font-size="10.00"> &#45;measure</text>
</g>
<!-- Node11 -->
<g id="node12" class="node"><title>Node11</title>
<g id="a_node12"><a xlink:href="struct_logger.html" target="_top" xlink:title="The Logger structure regroup members need to be saved in the micro&#45;controler&#39;s eeprom. ">
<polygon fill="none" stroke="black" points="1100.1,-496 1100.1,-630 1224.1,-630 1224.1,-496 1100.1,-496"/>
<text text-anchor="middle" x="1162.1" y="-618" font-family="Helvetica,sans-Serif" font-size="10.00">Logger</text>
<polyline fill="none" stroke="black" points="1100.1,-611 1224.1,-611 "/>
<text text-anchor="start" x="1108.1" y="-599" font-family="Helvetica,sans-Serif" font-size="10.00">+ structure_version</text>
<text text-anchor="start" x="1108.1" y="-588" font-family="Helvetica,sans-Serif" font-size="10.00">+ node_id</text>
<text text-anchor="start" x="1108.1" y="-577" font-family="Helvetica,sans-Serif" font-size="10.00">+ measure_sample_conf</text>
<text text-anchor="start" x="1108.1" y="-566" font-family="Helvetica,sans-Serif" font-size="10.00">+ measure_max</text>
<text text-anchor="start" x="1108.1" y="-555" font-family="Helvetica,sans-Serif" font-size="10.00">+ measure_periode</text>
<text text-anchor="start" x="1108.1" y="-544" font-family="Helvetica,sans-Serif" font-size="10.00">+ measure_counter</text>
<text text-anchor="start" x="1108.1" y="-533" font-family="Helvetica,sans-Serif" font-size="10.00">+ sensors_enable</text>
<text text-anchor="start" x="1108.1" y="-522" font-family="Helvetica,sans-Serif" font-size="10.00">+ output_enable</text>
<polyline fill="none" stroke="black" points="1100.1,-515 1224.1,-515 "/>
<text text-anchor="middle" x="1162.1" y="-503" font-family="Helvetica,sans-Serif" font-size="10.00"> </text>
</a>
</g>
</g>
<!-- Node11&#45;&gt;Node0 -->
<g id="edge15" class="edge"><title>Node11&#45;&gt;Node0</title>
<path fill="none" stroke="#404040" d="M1162.44,-495.878C1159.45,-429.304 1145.36,-326.989 1091.1,-259 1018.99,-168.639 884.966,-129.096 800.932,-112.556"/>
<polygon fill="none" stroke="#404040" points="800.7,-112.512 794.061,-115.326 788.91,-110.279 795.55,-107.465 800.7,-112.512"/>
<text text-anchor="middle" x="1088.1" y="-227.5" font-family="Helvetica,sans-Serif" font-size="10.00"> +logger</text>
</g>
<!-- Node12 -->
<g id="node13" class="node"><title>Node12</title>
<g id="a_node13"><a xlink:href="class_r_t_c.html" target="_top" xlink:title="The RTC class regroup methods and parameters to use the Real Time Clock : pcf8563 This class use the ...">
<polygon fill="none" stroke="black" points="1242.1,-435.5 1242.1,-690.5 1364.1,-690.5 1364.1,-435.5 1242.1,-435.5"/>
<text text-anchor="middle" x="1303.1" y="-678.5" font-family="Helvetica,sans-Serif" font-size="10.00">RTC</text>
<polyline fill="none" stroke="black" points="1242.1,-671.5 1364.1,-671.5 "/>
<text text-anchor="start" x="1250.1" y="-659.5" font-family="Helvetica,sans-Serif" font-size="10.00">+ SECS</text>
<text text-anchor="start" x="1250.1" y="-648.5" font-family="Helvetica,sans-Serif" font-size="10.00">+ MINS</text>
<text text-anchor="start" x="1250.1" y="-637.5" font-family="Helvetica,sans-Serif" font-size="10.00">+ HOURS</text>
<text text-anchor="start" x="1250.1" y="-626.5" font-family="Helvetica,sans-Serif" font-size="10.00">+ DAY</text>
<text text-anchor="start" x="1250.1" y="-615.5" font-family="Helvetica,sans-Serif" font-size="10.00">+ WEEKDAY</text>
<text text-anchor="start" x="1250.1" y="-604.5" font-family="Helvetica,sans-Serif" font-size="10.00">+ MONTH</text>
<text text-anchor="start" x="1250.1" y="-593.5" font-family="Helvetica,sans-Serif" font-size="10.00">+ YEAR</text>
<text text-anchor="start" x="1250.1" y="-582.5" font-family="Helvetica,sans-Serif" font-size="10.00">&#45; JOURS</text>
<text text-anchor="start" x="1250.1" y="-571.5" font-family="Helvetica,sans-Serif" font-size="10.00">&#45; EPOCH_TIMESTAMP</text>
<polyline fill="none" stroke="black" points="1242.1,-564.5 1364.1,-564.5 "/>
<text text-anchor="start" x="1250.1" y="-552.5" font-family="Helvetica,sans-Serif" font-size="10.00">+ RTC()</text>
<text text-anchor="start" x="1250.1" y="-541.5" font-family="Helvetica,sans-Serif" font-size="10.00">+ ~RTC()</text>
<text text-anchor="start" x="1250.1" y="-530.5" font-family="Helvetica,sans-Serif" font-size="10.00">+ get_second()</text>
<text text-anchor="start" x="1250.1" y="-519.5" font-family="Helvetica,sans-Serif" font-size="10.00">+ get_timestamp()</text>
<text text-anchor="start" x="1250.1" y="-508.5" font-family="Helvetica,sans-Serif" font-size="10.00">+ get_date()</text>
<text text-anchor="start" x="1250.1" y="-497.5" font-family="Helvetica,sans-Serif" font-size="10.00">+ update_reg()</text>
<text text-anchor="start" x="1250.1" y="-486.5" font-family="Helvetica,sans-Serif" font-size="10.00">+ print_config()</text>
<text text-anchor="start" x="1250.1" y="-475.5" font-family="Helvetica,sans-Serif" font-size="10.00">&#45; time_to_epoch()</text>
<text text-anchor="start" x="1250.1" y="-464.5" font-family="Helvetica,sans-Serif" font-size="10.00">&#45; is_leap_year()</text>
<text text-anchor="start" x="1250.1" y="-453.5" font-family="Helvetica,sans-Serif" font-size="10.00">&#45; a2toBCD()</text>
<text text-anchor="start" x="1250.1" y="-442.5" font-family="Helvetica,sans-Serif" font-size="10.00">&#45; utoBCD()</text>
</a>
</g>
</g>
<!-- Node12&#45;&gt;Node0 -->
<g id="edge16" class="edge"><title>Node12&#45;&gt;Node0</title>
<path fill="none" stroke="#404040" d="M1301.7,-435.248C1294.68,-375.174 1276.5,-306.371 1233.1,-259 1119.97,-135.527 912.042,-107.983 800.862,-102.397"/>
<polygon fill="none" stroke="#404040" points="800.764,-102.393 794.592,-106.121 788.776,-101.857 794.948,-98.1289 800.764,-102.393"/>
<text text-anchor="middle" x="1224.6" y="-227.5" font-family="Helvetica,sans-Serif" font-size="10.00"> +rtc</text>
</g>
<!-- Node13 -->
<g id="node14" class="node"><title>Node13</title>
<g id="a_node14"><a xlink:href="struct_time.html" target="_top" xlink:title="The time structure is a simple date time format. ">
<polygon fill="none" stroke="black" points="1270.6,-1008 1270.6,-1131 1335.6,-1131 1335.6,-1008 1270.6,-1008"/>
<text text-anchor="middle" x="1303.1" y="-1119" font-family="Helvetica,sans-Serif" font-size="10.00">Time</text>
<polyline fill="none" stroke="black" points="1270.6,-1112 1335.6,-1112 "/>
<text text-anchor="start" x="1278.6" y="-1100" font-family="Helvetica,sans-Serif" font-size="10.00">+ secs</text>
<text text-anchor="start" x="1278.6" y="-1089" font-family="Helvetica,sans-Serif" font-size="10.00">+ mins</text>
<text text-anchor="start" x="1278.6" y="-1078" font-family="Helvetica,sans-Serif" font-size="10.00">+ hours</text>
<text text-anchor="start" x="1278.6" y="-1067" font-family="Helvetica,sans-Serif" font-size="10.00">+ weekday</text>
<text text-anchor="start" x="1278.6" y="-1056" font-family="Helvetica,sans-Serif" font-size="10.00">+ day</text>
<text text-anchor="start" x="1278.6" y="-1045" font-family="Helvetica,sans-Serif" font-size="10.00">+ month</text>
<text text-anchor="start" x="1278.6" y="-1034" font-family="Helvetica,sans-Serif" font-size="10.00">+ year</text>
<polyline fill="none" stroke="black" points="1270.6,-1027 1335.6,-1027 "/>
<text text-anchor="middle" x="1303.1" y="-1015" font-family="Helvetica,sans-Serif" font-size="10.00"> </text>
</a>
</g>
</g>
<!-- Node13&#45;&gt;Node12 -->
<g id="edge17" class="edge"><title>Node13&#45;&gt;Node12</title>
<path fill="none" stroke="#404040" d="M1303.1,-1007.9C1303.1,-932.862 1303.1,-802.742 1303.1,-702.717"/>
<polygon fill="none" stroke="#404040" points="1303.1,-702.674 1299.1,-696.674 1303.1,-690.674 1307.1,-696.674 1303.1,-702.674"/>
<text text-anchor="middle" x="1336.6" y="-899" font-family="Helvetica,sans-Serif" font-size="10.00"> &#45;m_time</text>
<text text-anchor="middle" x="1336.6" y="-888" font-family="Helvetica,sans-Serif" font-size="10.00">&#45;epoch_010116</text>
</g>
<!-- Node14&#45;&gt;Node0 -->
<g id="edge19" class="edge"><title>Node14&#45;&gt;Node0</title>
<path fill="none" stroke="#404040" d="M602.694,-468.459C610.642,-407.678 624.406,-327.331 647.099,-259 652.259,-243.465 658.713,-227.542 665.695,-212.074"/>
<polygon fill="none" stroke="#404040" points="665.825,-211.794 664.713,-204.669 670.862,-200.902 671.974,-208.027 665.825,-211.794"/>
<text text-anchor="middle" x="678.099" y="-227.5" font-family="Helvetica,sans-Serif" font-size="10.00"> &#45;output</text>
</g>
<!-- Node15 -->
<g id="node16" class="node"><title>Node15</title>
<g id="a_node16"><a xlink:href="class_power.html" target="_top" xlink:title="The Power class is the base container for measuring and calculating power. ">
<polygon fill="none" stroke="black" points="1382.6,-259.5 1382.6,-866.5 1483.6,-866.5 1483.6,-259.5 1382.6,-259.5"/>
<text text-anchor="middle" x="1433.1" y="-854.5" font-family="Helvetica,sans-Serif" font-size="10.00">Power</text>
<polyline fill="none" stroke="black" points="1382.6,-847.5 1483.6,-847.5 "/>
<text text-anchor="start" x="1390.6" y="-835.5" font-family="Helvetica,sans-Serif" font-size="10.00"># ADC_COUNTS</text>
<text text-anchor="start" x="1390.6" y="-824.5" font-family="Helvetica,sans-Serif" font-size="10.00"># m_v_pin</text>
<text text-anchor="start" x="1390.6" y="-813.5" font-family="Helvetica,sans-Serif" font-size="10.00"># m_i_pin</text>
<text text-anchor="start" x="1390.6" y="-802.5" font-family="Helvetica,sans-Serif" font-size="10.00"># p_data</text>
<text text-anchor="start" x="1390.6" y="-791.5" font-family="Helvetica,sans-Serif" font-size="10.00"># s_data</text>
<text text-anchor="start" x="1390.6" y="-780.5" font-family="Helvetica,sans-Serif" font-size="10.00"># pf_data</text>
<text text-anchor="start" x="1390.6" y="-769.5" font-family="Helvetica,sans-Serif" font-size="10.00"># p_average</text>
<text text-anchor="start" x="1390.6" y="-758.5" font-family="Helvetica,sans-Serif" font-size="10.00"># s_average</text>
<text text-anchor="start" x="1390.6" y="-747.5" font-family="Helvetica,sans-Serif" font-size="10.00"># pf_average</text>
<text text-anchor="start" x="1390.6" y="-736.5" font-family="Helvetica,sans-Serif" font-size="10.00"># v_data</text>
<text text-anchor="start" x="1390.6" y="-725.5" font-family="Helvetica,sans-Serif" font-size="10.00"># v_average</text>
<text text-anchor="start" x="1390.6" y="-714.5" font-family="Helvetica,sans-Serif" font-size="10.00"># v_factor</text>
<text text-anchor="start" x="1390.6" y="-703.5" font-family="Helvetica,sans-Serif" font-size="10.00"># v_offset</text>
<text text-anchor="start" x="1390.6" y="-692.5" font-family="Helvetica,sans-Serif" font-size="10.00"># v_phase</text>
<text text-anchor="start" x="1390.6" y="-681.5" font-family="Helvetica,sans-Serif" font-size="10.00"># i_data</text>
<text text-anchor="start" x="1390.6" y="-670.5" font-family="Helvetica,sans-Serif" font-size="10.00"># i_average</text>
<text text-anchor="start" x="1390.6" y="-659.5" font-family="Helvetica,sans-Serif" font-size="10.00"># i_factor</text>
<text text-anchor="start" x="1390.6" y="-648.5" font-family="Helvetica,sans-Serif" font-size="10.00"># i_offset</text>
<text text-anchor="start" x="1390.6" y="-637.5" font-family="Helvetica,sans-Serif" font-size="10.00"># Vmeas</text>
<text text-anchor="start" x="1390.6" y="-626.5" font-family="Helvetica,sans-Serif" font-size="10.00"># Imeas</text>
<text text-anchor="start" x="1390.6" y="-615.5" font-family="Helvetica,sans-Serif" font-size="10.00"># Vshifted</text>
<text text-anchor="start" x="1390.6" y="-604.5" font-family="Helvetica,sans-Serif" font-size="10.00"># sumP</text>
<text text-anchor="start" x="1390.6" y="-593.5" font-family="Helvetica,sans-Serif" font-size="10.00"># sumV</text>
<text text-anchor="start" x="1390.6" y="-582.5" font-family="Helvetica,sans-Serif" font-size="10.00"># sumI</text>
<text text-anchor="start" x="1390.6" y="-571.5" font-family="Helvetica,sans-Serif" font-size="10.00"># referenceV</text>
<text text-anchor="start" x="1390.6" y="-560.5" font-family="Helvetica,sans-Serif" font-size="10.00"># v_filtered</text>
<text text-anchor="start" x="1390.6" y="-549.5" font-family="Helvetica,sans-Serif" font-size="10.00"># i_filtered</text>
<text text-anchor="start" x="1390.6" y="-538.5" font-family="Helvetica,sans-Serif" font-size="10.00"># showSupply</text>
<text text-anchor="start" x="1390.6" y="-527.5" font-family="Helvetica,sans-Serif" font-size="10.00"># startV</text>
<text text-anchor="start" x="1390.6" y="-516.5" font-family="Helvetica,sans-Serif" font-size="10.00"># lastVCross</text>
<text text-anchor="start" x="1390.6" y="-505.5" font-family="Helvetica,sans-Serif" font-size="10.00"># checkVCross</text>
<text text-anchor="start" x="1390.6" y="-494.5" font-family="Helvetica,sans-Serif" font-size="10.00"># m_id</text>
<text text-anchor="start" x="1390.6" y="-483.5" font-family="Helvetica,sans-Serif" font-size="10.00"># m_eeprom_addr</text>
<polyline fill="none" stroke="black" points="1382.6,-476.5 1483.6,-476.5 "/>
<text text-anchor="start" x="1390.6" y="-464.5" font-family="Helvetica,sans-Serif" font-size="10.00">+ Power()</text>
<text text-anchor="start" x="1390.6" y="-453.5" font-family="Helvetica,sans-Serif" font-size="10.00">+ ~Power()</text>
<text text-anchor="start" x="1390.6" y="-442.5" font-family="Helvetica,sans-Serif" font-size="10.00">+ set_v_factor()</text>
<text text-anchor="start" x="1390.6" y="-431.5" font-family="Helvetica,sans-Serif" font-size="10.00">+ set_v_offset()</text>
<text text-anchor="start" x="1390.6" y="-420.5" font-family="Helvetica,sans-Serif" font-size="10.00">+ set_v_phase()</text>
<text text-anchor="start" x="1390.6" y="-409.5" font-family="Helvetica,sans-Serif" font-size="10.00">+ set_i_factor()</text>
<text text-anchor="start" x="1390.6" y="-398.5" font-family="Helvetica,sans-Serif" font-size="10.00">+ set_i_offset()</text>
<text text-anchor="start" x="1390.6" y="-387.5" font-family="Helvetica,sans-Serif" font-size="10.00">+ print()</text>
<text text-anchor="start" x="1390.6" y="-376.5" font-family="Helvetica,sans-Serif" font-size="10.00">+ read_rms_value()</text>
<text text-anchor="start" x="1390.6" y="-365.5" font-family="Helvetica,sans-Serif" font-size="10.00">+ read_dc_value()</text>
<text text-anchor="start" x="1390.6" y="-354.5" font-family="Helvetica,sans-Serif" font-size="10.00">+ print_config()</text>
<text text-anchor="start" x="1390.6" y="-343.5" font-family="Helvetica,sans-Serif" font-size="10.00">+ calc_all()</text>
<text text-anchor="start" x="1390.6" y="-332.5" font-family="Helvetica,sans-Serif" font-size="10.00">+ print_average()</text>
<text text-anchor="start" x="1390.6" y="-321.5" font-family="Helvetica,sans-Serif" font-size="10.00">+ print_data_array()</text>
<text text-anchor="start" x="1390.6" y="-310.5" font-family="Helvetica,sans-Serif" font-size="10.00">+ load_param()</text>
<text text-anchor="start" x="1390.6" y="-299.5" font-family="Helvetica,sans-Serif" font-size="10.00">+ update_param()</text>
<text text-anchor="start" x="1390.6" y="-288.5" font-family="Helvetica,sans-Serif" font-size="10.00">+ initialize_param()</text>
<text text-anchor="start" x="1390.6" y="-277.5" font-family="Helvetica,sans-Serif" font-size="10.00">+ readVcc()</text>
<text text-anchor="start" x="1390.6" y="-266.5" font-family="Helvetica,sans-Serif" font-size="10.00"># adc_value()</text>
</a>
</g>
</g>
<!-- Node15&#45;&gt;Node0 -->
<g id="edge21" class="edge"><title>Node15&#45;&gt;Node0</title>
<path fill="none" stroke="#404040" d="M1382.39,-270.068C1379.44,-266.264 1376.35,-262.57 1373.1,-259 1296.41,-174.694 954.084,-126.826 800.772,-109.275"/>
<polygon fill="none" stroke="#404040" points="800.665,-109.263 794.254,-112.564 788.741,-107.916 795.152,-104.615 800.665,-109.263"/>
<text text-anchor="middle" x="1376.1" y="-227.5" font-family="Helvetica,sans-Serif" font-size="10.00"> +powerAC</text>
</g>
</g>
</svg>
