<?xml version="1.0" encoding="UTF-8" standalone="no"?>
<!DOCTYPE svg PUBLIC "-//W3C//DTD SVG 1.1//EN"
 "http://www.w3.org/Graphics/SVG/1.1/DTD/svg11.dtd">
<!-- Generated by graphviz version 2.38.0 (20140413.2041)
 -->
<!-- Title: RTC::print_config Pages: 1 -->
<svg width="595pt" height="66pt"
 viewBox="0.00 0.00 595.00 66.00" xmlns="http://www.w3.org/2000/svg" xmlns:xlink="http://www.w3.org/1999/xlink">
<g id="graph0" class="graph" transform="scale(1 1) rotate(0) translate(4 62)">
<title>RTC::print_config</title>
<!-- Node32 -->
<g id="node1" class="node"><title>Node32</title>
<polygon fill="#bfbfbf" stroke="black" points="0,-19.5 0,-38.5 94,-38.5 94,-19.5 0,-19.5"/>
<text text-anchor="middle" x="47" y="-26.5" font-family="Helvetica,sans-Serif" font-size="10.00">RTC::print_config</text>
</g>
<!-- Node33 -->
<g id="node2" class="node"><title>Node33</title>
<g id="a_node2"><a xlink:href="class_config.html#a975933ecde91dc436d4ca39464cfd25f" target="_top" xlink:title="display all config on USART0 ">
<polygon fill="none" stroke="black" points="130,-19.5 130,-38.5 212,-38.5 212,-19.5 130,-19.5"/>
<text text-anchor="middle" x="171" y="-26.5" font-family="Helvetica,sans-Serif" font-size="10.00">Config::display</text>
</a>
</g>
</g>
<!-- Node32&#45;&gt;Node33 -->
<g id="edge1" class="edge"><title>Node32&#45;&gt;Node33</title>
<path fill="none" stroke="midnightblue" d="M104.173,-29C112.821,-29 121.6,-29 129.807,-29"/>
<polygon fill="midnightblue" stroke="midnightblue" points="104.123,-25.5001 94.123,-29 104.123,-32.5001 104.123,-25.5001"/>
</g>
<!-- Node34 -->
<g id="node3" class="node"><title>Node34</title>
<g id="a_node3"><a xlink:href="class_config.html#a5ae6c4f7255e895e7384fc2a4baab160" target="_top" xlink:title="Config::endString">
<polygon fill="none" stroke="black" points="248,-38.5 248,-57.5 340,-57.5 340,-38.5 248,-38.5"/>
<text text-anchor="middle" x="294" y="-45.5" font-family="Helvetica,sans-Serif" font-size="10.00">Config::endString</text>
</a>
</g>
</g>
<!-- Node33&#45;&gt;Node34 -->
<g id="edge2" class="edge"><title>Node33&#45;&gt;Node34</title>
<path fill="none" stroke="midnightblue" d="M222.413,-36.9162C230.859,-38.2424 239.575,-39.6109 247.877,-40.9145"/>
<polygon fill="midnightblue" stroke="midnightblue" points="222.713,-33.4204 212.291,-35.3267 221.627,-40.3357 222.713,-33.4204"/>
</g>
<!-- Node37 -->
<g id="node6" class="node"><title>Node37</title>
<g id="a_node6"><a xlink:href="class_config.html#a2a806f322b0d533aabdb8e796d3b1033" target="_top" xlink:title="The execute method is the config &quot;main function&quot; In this method, sentence from the uart are process e...">
<polygon fill="none" stroke="black" points="251,-0.5 251,-19.5 337,-19.5 337,-0.5 251,-0.5"/>
<text text-anchor="middle" x="294" y="-7.5" font-family="Helvetica,sans-Serif" font-size="10.00">Config::execute</text>
</a>
</g>
</g>
<!-- Node33&#45;&gt;Node37 -->
<g id="edge5" class="edge"><title>Node33&#45;&gt;Node37</title>
<path fill="none" stroke="midnightblue" d="M222.377,-21.0896C231.836,-19.6043 241.635,-18.0656 250.813,-16.6244"/>
<polygon fill="midnightblue" stroke="midnightblue" points="221.627,-17.6643 212.291,-22.6733 222.713,-24.5796 221.627,-17.6643"/>
</g>
<!-- Node35 -->
<g id="node4" class="node"><title>Node35</title>
<g id="a_node4"><a xlink:href="class_f_s_m.html#a3819be8e9fe92b750f47b9731e92f254" target="_top" xlink:title="Call when a string from usart0 finish by &quot;\r\n&quot;. ">
<polygon fill="none" stroke="black" points="376,-38.5 376,-57.5 513,-57.5 513,-38.5 376,-38.5"/>
<text text-anchor="middle" x="444.5" y="-45.5" font-family="Helvetica,sans-Serif" font-size="10.00">FSM::character_processing</text>
</a>
</g>
</g>
<!-- Node34&#45;&gt;Node35 -->
<g id="edge3" class="edge"><title>Node34&#45;&gt;Node35</title>
<path fill="none" stroke="midnightblue" d="M350.633,-48C358.908,-48 367.513,-48 375.999,-48"/>
<polygon fill="midnightblue" stroke="midnightblue" points="350.362,-44.5001 340.362,-48 350.362,-51.5001 350.362,-44.5001"/>
</g>
<!-- Node36 -->
<g id="node5" class="node"><title>Node36</title>
<g id="a_node5"><a xlink:href="main_8cpp.html#ae66f6b31b5ad750f1fe042a706a4e3d4" target="_top" xlink:title="main">
<polygon fill="none" stroke="black" points="549,-38.5 549,-57.5 587,-57.5 587,-38.5 549,-38.5"/>
<text text-anchor="middle" x="568" y="-45.5" font-family="Helvetica,sans-Serif" font-size="10.00">main</text>
</a>
</g>
</g>
<!-- Node35&#45;&gt;Node36 -->
<g id="edge4" class="edge"><title>Node35&#45;&gt;Node36</title>
<path fill="none" stroke="midnightblue" d="M523.013,-48C532.457,-48 541.315,-48 548.572,-48"/>
<polygon fill="midnightblue" stroke="midnightblue" points="523.001,-44.5001 513.001,-48 523.001,-51.5001 523.001,-44.5001"/>
</g>
</g>
</svg>
