<?xml version="1.0" encoding="UTF-8" standalone="no"?>
<!DOCTYPE svg PUBLIC "-//W3C//DTD SVG 1.1//EN"
 "http://www.w3.org/Graphics/SVG/1.1/DTD/svg11.dtd">
<!-- Generated by graphviz version 2.38.0 (20140413.2041)
 -->
<!-- Title: Config::initialize_logger Pages: 1 -->
<svg width="606pt" height="72pt"
 viewBox="0.00 0.00 606.00 71.50" xmlns="http://www.w3.org/2000/svg" xmlns:xlink="http://www.w3.org/1999/xlink">
<g id="graph0" class="graph" transform="scale(1 1) rotate(0) translate(4 67.5)">
<title>Config::initialize_logger</title>
<!-- Node87 -->
<g id="node1" class="node"><title>Node87</title>
<polygon fill="#bfbfbf" stroke="black" points="0,-0.5 0,-30.5 86,-30.5 86,-0.5 0,-0.5"/>
<text text-anchor="start" x="8" y="-18.5" font-family="Helvetica,sans-Serif" font-size="10.00">Config::initialize</text>
<text text-anchor="middle" x="43" y="-7.5" font-family="Helvetica,sans-Serif" font-size="10.00">_logger</text>
</g>
<!-- Node88 -->
<g id="node2" class="node"><title>Node88</title>
<g id="a_node2"><a xlink:href="class_config.html#a5ae6c4f7255e895e7384fc2a4baab160" target="_top" xlink:title="Config::endString">
<polygon fill="none" stroke="black" points="259,-44 259,-63 351,-63 351,-44 259,-44"/>
<text text-anchor="middle" x="305" y="-51" font-family="Helvetica,sans-Serif" font-size="10.00">Config::endString</text>
</a>
</g>
</g>
<!-- Node87&#45;&gt;Node88 -->
<g id="edge1" class="edge"><title>Node87&#45;&gt;Node88</title>
<path fill="none" stroke="midnightblue" d="M96.2032,-29.2435C104.782,-31.2054 113.61,-33.047 122,-34.5 168.328,-42.5231 221.919,-47.6198 258.891,-50.4923"/>
<polygon fill="midnightblue" stroke="midnightblue" points="96.8247,-25.794 86.2879,-26.9011 95.2153,-32.6065 96.8247,-25.794"/>
</g>
<!-- Node91 -->
<g id="node5" class="node"><title>Node91</title>
<g id="a_node5"><a xlink:href="class_config.html#ab2f7c3fc31f5a2c4e115860474dd8f55" target="_top" xlink:title="Load saved config data from the eeprom. ">
<polygon fill="none" stroke="black" points="122,-6 122,-25 223,-25 223,-6 122,-6"/>
<text text-anchor="middle" x="172.5" y="-13" font-family="Helvetica,sans-Serif" font-size="10.00">Config::load_logger</text>
</a>
</g>
</g>
<!-- Node87&#45;&gt;Node91 -->
<g id="edge4" class="edge"><title>Node87&#45;&gt;Node91</title>
<path fill="none" stroke="midnightblue" d="M96.2634,-8.84835C104.743,-8.70172 113.503,-8.71905 121.916,-8.90035"/>
<polygon fill="midnightblue" stroke="midnightblue" points="96.0087,-5.35363 86.1016,-9.10853 96.188,-12.3513 96.0087,-5.35363"/>
</g>
<!-- Node89 -->
<g id="node3" class="node"><title>Node89</title>
<g id="a_node3"><a xlink:href="class_f_s_m.html#a3819be8e9fe92b750f47b9731e92f254" target="_top" xlink:title="Call when a string from usart0 finish by &quot;\r\n&quot;. ">
<polygon fill="none" stroke="black" points="387,-44 387,-63 524,-63 524,-44 387,-44"/>
<text text-anchor="middle" x="455.5" y="-51" font-family="Helvetica,sans-Serif" font-size="10.00">FSM::character_processing</text>
</a>
</g>
</g>
<!-- Node88&#45;&gt;Node89 -->
<g id="edge2" class="edge"><title>Node88&#45;&gt;Node89</title>
<path fill="none" stroke="midnightblue" d="M361.633,-53.5C369.908,-53.5 378.513,-53.5 386.999,-53.5"/>
<polygon fill="midnightblue" stroke="midnightblue" points="361.362,-50.0001 351.362,-53.5 361.362,-57.0001 361.362,-50.0001"/>
</g>
<!-- Node90 -->
<g id="node4" class="node"><title>Node90</title>
<g id="a_node4"><a xlink:href="main_8cpp.html#ae66f6b31b5ad750f1fe042a706a4e3d4" target="_top" xlink:title="main">
<polygon fill="none" stroke="black" points="560,-44 560,-63 598,-63 598,-44 560,-44"/>
<text text-anchor="middle" x="579" y="-51" font-family="Helvetica,sans-Serif" font-size="10.00">main</text>
</a>
</g>
</g>
<!-- Node89&#45;&gt;Node90 -->
<g id="edge3" class="edge"><title>Node89&#45;&gt;Node90</title>
<path fill="none" stroke="midnightblue" d="M534.013,-53.5C543.457,-53.5 552.315,-53.5 559.572,-53.5"/>
<polygon fill="midnightblue" stroke="midnightblue" points="534.001,-50.0001 524.001,-53.5 534.001,-57.0001 534.001,-50.0001"/>
</g>
<!-- Node91&#45;&gt;Node87 -->
<g id="edge6" class="edge"><title>Node91&#45;&gt;Node87</title>
<path fill="none" stroke="midnightblue" d="M111.807,-22.2378C103.123,-22.29 94.3389,-22.1745 86.1016,-21.8915"/>
<polygon fill="midnightblue" stroke="midnightblue" points="111.965,-25.7361 121.916,-22.0996 111.869,-18.7368 111.965,-25.7361"/>
</g>
<!-- Node91&#45;&gt;Node88 -->
<g id="edge7" class="edge"><title>Node91&#45;&gt;Node88</title>
<path fill="none" stroke="midnightblue" d="M216.052,-27.8906C233.923,-33.0945 254.39,-39.0541 271.08,-43.9141"/>
<polygon fill="midnightblue" stroke="midnightblue" points="217.01,-24.5244 206.431,-25.089 215.053,-31.2453 217.01,-24.5244"/>
</g>
<!-- Node92 -->
<g id="node6" class="node"><title>Node92</title>
<g id="a_node6"><a xlink:href="class_f_s_m.html#a2fccf1c016c43e4fa4ee512311bf9d7d" target="_top" xlink:title="Class constructor. ">
<polygon fill="none" stroke="black" points="272.5,-6 272.5,-25 337.5,-25 337.5,-6 272.5,-6"/>
<text text-anchor="middle" x="305" y="-13" font-family="Helvetica,sans-Serif" font-size="10.00">FSM::FSM</text>
</a>
</g>
</g>
<!-- Node91&#45;&gt;Node92 -->
<g id="edge5" class="edge"><title>Node91&#45;&gt;Node92</title>
<path fill="none" stroke="midnightblue" d="M233.351,-15.5C246.742,-15.5 260.438,-15.5 272.162,-15.5"/>
<polygon fill="midnightblue" stroke="midnightblue" points="233.209,-12.0001 223.209,-15.5 233.209,-19.0001 233.209,-12.0001"/>
</g>
</g>
</svg>
