<?xml version="1.0" encoding="UTF-8" standalone="no"?>
<!DOCTYPE svg PUBLIC "-//W3C//DTD SVG 1.1//EN"
 "http://www.w3.org/Graphics/SVG/1.1/DTD/svg11.dtd">
<!-- Generated by graphviz version 2.38.0 (20140413.2041)
 -->
<!-- Title: Config::load_eeprom Pages: 1 -->
<svg width="612pt" height="92pt"
 viewBox="0.00 0.00 612.00 91.88" xmlns="http://www.w3.org/2000/svg" xmlns:xlink="http://www.w3.org/1999/xlink">
<g id="graph0" class="graph" transform="scale(1 1) rotate(0) translate(4 87.8765)">
<title>Config::load_eeprom</title>
<!-- Node55 -->
<g id="node1" class="node"><title>Node55</title>
<polygon fill="#bfbfbf" stroke="black" points="0,-28 0,-47 107,-47 107,-28 0,-28"/>
<text text-anchor="middle" x="53.5" y="-35" font-family="Helvetica,sans-Serif" font-size="10.00">Config::load_eeprom</text>
</g>
<!-- Node56 -->
<g id="node2" class="node"><title>Node56</title>
<g id="a_node2"><a xlink:href="class_config.html#a5ae6c4f7255e895e7384fc2a4baab160" target="_top" xlink:title="Config::endString">
<polygon fill="none" stroke="black" points="265,-47 265,-66 357,-66 357,-47 265,-47"/>
<text text-anchor="middle" x="311" y="-54" font-family="Helvetica,sans-Serif" font-size="10.00">Config::endString</text>
</a>
</g>
</g>
<!-- Node55&#45;&gt;Node56 -->
<g id="edge1" class="edge"><title>Node55&#45;&gt;Node56</title>
<path fill="none" stroke="midnightblue" d="M78.575,-52.1443C95.8226,-61.7455 119.978,-73.4263 143,-78.5 180.326,-86.7263 191.113,-83.5536 229,-78.5 246.911,-76.111 266.474,-70.8747 281.888,-66.11"/>
<polygon fill="midnightblue" stroke="midnightblue" points="80.1696,-49.024 69.7548,-47.0794 76.6838,-55.0944 80.1696,-49.024"/>
</g>
<!-- Node59 -->
<g id="node5" class="node"><title>Node59</title>
<g id="a_node5"><a xlink:href="class_f_s_m.html#a2fccf1c016c43e4fa4ee512311bf9d7d" target="_top" xlink:title="Class constructor. ">
<polygon fill="none" stroke="black" points="153.5,-50 153.5,-69 218.5,-69 218.5,-50 153.5,-50"/>
<text text-anchor="middle" x="186" y="-57" font-family="Helvetica,sans-Serif" font-size="10.00">FSM::FSM</text>
</a>
</g>
</g>
<!-- Node55&#45;&gt;Node59 -->
<g id="edge4" class="edge"><title>Node55&#45;&gt;Node59</title>
<path fill="none" stroke="midnightblue" d="M117.149,-48.0614C129.627,-50.1651 142.233,-52.2902 153.136,-54.1283"/>
<polygon fill="midnightblue" stroke="midnightblue" points="117.646,-44.596 107.203,-46.3848 116.482,-51.4986 117.646,-44.596"/>
</g>
<!-- Node60 -->
<g id="node6" class="node"><title>Node60</title>
<g id="a_node6"><a xlink:href="class_config.html#af2fee2ffae339b1e8ead1cd413e44ee3" target="_top" xlink:title="Initialize the eeprom memory. ">
<polygon fill="none" stroke="black" points="143,-0.5 143,-30.5 229,-30.5 229,-0.5 143,-0.5"/>
<text text-anchor="start" x="151" y="-18.5" font-family="Helvetica,sans-Serif" font-size="10.00">Config::initialize</text>
<text text-anchor="middle" x="186" y="-7.5" font-family="Helvetica,sans-Serif" font-size="10.00">_eeprom</text>
</a>
</g>
</g>
<!-- Node55&#45;&gt;Node60 -->
<g id="edge5" class="edge"><title>Node55&#45;&gt;Node60</title>
<path fill="none" stroke="midnightblue" d="M88.8495,-25.6829C105.396,-22.0565 125.389,-18.5751 142.849,-16.2469"/>
<polygon fill="midnightblue" stroke="midnightblue" points="88,-22.2869 79.0461,-27.9505 89.5776,-29.1068 88,-22.2869"/>
</g>
<!-- Node57 -->
<g id="node3" class="node"><title>Node57</title>
<g id="a_node3"><a xlink:href="class_f_s_m.html#a3819be8e9fe92b750f47b9731e92f254" target="_top" xlink:title="Call when a string from usart0 finish by &quot;\r\n&quot;. ">
<polygon fill="none" stroke="black" points="393,-47 393,-66 530,-66 530,-47 393,-47"/>
<text text-anchor="middle" x="461.5" y="-54" font-family="Helvetica,sans-Serif" font-size="10.00">FSM::character_processing</text>
</a>
</g>
</g>
<!-- Node56&#45;&gt;Node57 -->
<g id="edge2" class="edge"><title>Node56&#45;&gt;Node57</title>
<path fill="none" stroke="midnightblue" d="M367.633,-56.5C375.908,-56.5 384.513,-56.5 392.999,-56.5"/>
<polygon fill="midnightblue" stroke="midnightblue" points="367.362,-53.0001 357.362,-56.5 367.362,-60.0001 367.362,-53.0001"/>
</g>
<!-- Node58 -->
<g id="node4" class="node"><title>Node58</title>
<g id="a_node4"><a xlink:href="main_8cpp.html#ae66f6b31b5ad750f1fe042a706a4e3d4" target="_top" xlink:title="main">
<polygon fill="none" stroke="black" points="566,-47 566,-66 604,-66 604,-47 566,-47"/>
<text text-anchor="middle" x="585" y="-54" font-family="Helvetica,sans-Serif" font-size="10.00">main</text>
</a>
</g>
</g>
<!-- Node57&#45;&gt;Node58 -->
<g id="edge3" class="edge"><title>Node57&#45;&gt;Node58</title>
<path fill="none" stroke="midnightblue" d="M540.013,-56.5C549.457,-56.5 558.315,-56.5 565.572,-56.5"/>
<polygon fill="midnightblue" stroke="midnightblue" points="540.001,-53.0001 530.001,-56.5 540.001,-60.0001 540.001,-53.0001"/>
</g>
<!-- Node60&#45;&gt;Node55 -->
<g id="edge7" class="edge"><title>Node60&#45;&gt;Node55</title>
<path fill="none" stroke="midnightblue" d="M133.107,-30.8709C124.585,-32.4722 115.745,-33.9675 107.203,-35.253"/>
<polygon fill="midnightblue" stroke="midnightblue" points="133.787,-34.3043 142.929,-28.9487 132.443,-27.4346 133.787,-34.3043"/>
</g>
<!-- Node60&#45;&gt;Node56 -->
<g id="edge6" class="edge"><title>Node60&#45;&gt;Node56</title>
<path fill="none" stroke="midnightblue" d="M239.137,-32.879C253.523,-37.6742 268.608,-42.7027 281.145,-46.8817"/>
<polygon fill="midnightblue" stroke="midnightblue" points="239.923,-29.4518 229.33,-29.6099 237.71,-36.0926 239.923,-29.4518"/>
</g>
</g>
</svg>
