<?xml version="1.0" encoding="UTF-8" standalone="no"?>
<!DOCTYPE svg PUBLIC "-//W3C//DTD SVG 1.1//EN"
 "http://www.w3.org/Graphics/SVG/1.1/DTD/svg11.dtd">
<!-- Generated by graphviz version 2.38.0 (20140413.2041)
 -->
<!-- Title: Usart::print Pages: 1 -->
<!--zoomable 675 -->
<svg id="main" version="1.1" xmlns="http://www.w3.org/2000/svg" xmlns:xlink="http://www.w3.org/1999/xlink" xml:space="preserve" onload="init(evt)">
<style type="text/css"><![CDATA[
.edge:hover path { stroke: red; }
.edge:hover polygon { stroke: red; fill: red; }
]]></style>
<script type="text/javascript"><![CDATA[
var edges = document.getElementsByTagName('g');
if (edges && edges.length) {
  for (var i=0;i<edges.length;i++) {
    if (edges[i].id.substr(0,4)=='edge') {
      edges[i].setAttribute('class','edge');
    }
  }
}
]]></script>
        <defs>
                <circle id="rim" cx="0" cy="0" r="7"/>
                <circle id="rim2" cx="0" cy="0" r="3.5"/>
                <g id="zoomPlus">
                        <use xlink:href="#rim" fill="#404040">
                                <set attributeName="fill" to="#808080" begin="zoomplus.mouseover" end="zoomplus.mouseout"/>
                        </use>
                        <path d="M-4,0h8M0,-4v8" fill="none" stroke="white" stroke-width="1.5" pointer-events="none"/>
                </g>
                <g id="zoomMin">
                        <use xlink:href="#rim" fill="#404040">
                                <set attributeName="fill" to="#808080" begin="zoomminus.mouseover" end="zoomminus.mouseout"/>
                        </use>
                        <path d="M-4,0h8" fill="none" stroke="white" stroke-width="1.5" pointer-events="none"/>
                </g>
                <g id="dirArrow">
                        <path fill="none" stroke="white" stroke-width="1.5" d="M0,-3.0v7 M-2.5,-0.5L0,-3.0L2.5,-0.5"/>
                </g>
               <g id="resetDef">
                       <use xlink:href="#rim2" fill="#404040">
                               <set attributeName="fill" to="#808080" begin="reset.mouseover" end="reset.mouseout"/>
                       </use>
               </g>
        </defs>

<script type="text/javascript">
var viewWidth = 841;
var viewHeight = 675;
var sectionId = 'dynsection-1';
</script>
<script xlink:href="svgpan.js"/>
<svg id="graph" class="graph">
<g id="viewport">
<title>Usart::print</title>
<!-- Node3 -->
<g id="node1" class="node"><title>Node3</title>
<polygon fill="#bfbfbf" stroke="black" points="0,-316.5 0,-335.5 65,-335.5 65,-316.5 0,-316.5"/>
<text text-anchor="middle" x="32.5" y="-323.5" font-family="Helvetica,sans-Serif" font-size="10.00">Usart::print</text>
</g>
<!-- Node4 -->
<g id="node2" class="node"><title>Node4</title>
<g id="a_node2"><a xlink:href="class_f_s_m.html#a3819be8e9fe92b750f47b9731e92f254" target="_top" xlink:title="Call when a string from usart0 finish by &quot;\r\n&quot;. ">
<polygon fill="none" stroke="black" points="565,-601.5 565,-620.5 702,-620.5 702,-601.5 565,-601.5"/>
<text text-anchor="middle" x="633.5" y="-608.5" font-family="Helvetica,sans-Serif" font-size="10.00">FSM::character_processing</text>
</a>
</g>
</g>
<!-- Node3&#45;&gt;Node4 -->
<g id="edge1" class="edge"><title>Node3&#45;&gt;Node4</title>
<path fill="none" stroke="midnightblue" d="M35.4072,-345.993C41.3062,-403.139 61.2963,-565.122 101,-597 253.951,-719.805 519.199,-648.381 604.925,-620.562"/>
<polygon fill="midnightblue" stroke="midnightblue" points="38.8611,-345.355 34.3868,-335.752 31.8956,-346.05 38.8611,-345.355"/>
</g>
<!-- Node6 -->
<g id="node4" class="node"><title>Node6</title>
<g id="a_node4"><a xlink:href="class_config.html#a975933ecde91dc436d4ca39464cfd25f" target="_top" xlink:title="display all config on USART0 ">
<polygon fill="none" stroke="black" points="271.5,-544.5 271.5,-563.5 353.5,-563.5 353.5,-544.5 271.5,-544.5"/>
<text text-anchor="middle" x="312.5" y="-551.5" font-family="Helvetica,sans-Serif" font-size="10.00">Config::display</text>
</a>
</g>
</g>
<!-- Node3&#45;&gt;Node6 -->
<g id="edge3" class="edge"><title>Node3&#45;&gt;Node6</title>
<path fill="none" stroke="midnightblue" d="M35.8347,-345.688C42.619,-399.153 64.2177,-544.921 101,-573 158.458,-616.863 252.138,-581.967 292.267,-563.552"/>
<polygon fill="midnightblue" stroke="midnightblue" points="39.3076,-345.253 34.6117,-335.756 32.3601,-346.108 39.3076,-345.253"/>
</g>
<!-- Node8 -->
<g id="node6" class="node"><title>Node8</title>
<g id="a_node6"><a xlink:href="class_config.html#a2a806f322b0d533aabdb8e796d3b1033" target="_top" xlink:title="The execute method is the config &quot;main function&quot; In this method, sentence from the uart are process e...">
<polygon fill="none" stroke="black" points="423.5,-506.5 423.5,-525.5 509.5,-525.5 509.5,-506.5 423.5,-506.5"/>
<text text-anchor="middle" x="466.5" y="-513.5" font-family="Helvetica,sans-Serif" font-size="10.00">Config::execute</text>
</a>
</g>
</g>
<!-- Node3&#45;&gt;Node8 -->
<g id="edge7" class="edge"><title>Node3&#45;&gt;Node8</title>
<path fill="none" stroke="midnightblue" d="M35.7517,-345.774C40.7639,-379.698 56.186,-448.469 101,-481 198.105,-551.49 350.167,-537.061 423.358,-524.616"/>
<polygon fill="midnightblue" stroke="midnightblue" points="39.2016,-345.164 34.4235,-335.708 32.2618,-346.08 39.2016,-345.164"/>
</g>
<!-- Node9 -->
<g id="node7" class="node"><title>Node9</title>
<g id="a_node7"><a xlink:href="class_sleep.html#ab127101acfaaddb3df04799fe6b498f4" target="_top" xlink:title="Sleep::print">
<polygon fill="none" stroke="black" points="128,-152.5 128,-171.5 194,-171.5 194,-152.5 128,-152.5"/>
<text text-anchor="middle" x="161" y="-159.5" font-family="Helvetica,sans-Serif" font-size="10.00">Sleep::print</text>
</a>
</g>
</g>
<!-- Node3&#45;&gt;Node9 -->
<g id="edge8" class="edge"><title>Node3&#45;&gt;Node9</title>
<path fill="none" stroke="midnightblue" d="M38.0983,-306.422C46.0475,-276.608 65.0687,-219.739 101,-186 108.497,-178.96 118.333,-173.868 127.82,-170.237"/>
<polygon fill="midnightblue" stroke="midnightblue" points="34.6288,-305.867 35.5816,-316.419 41.417,-307.576 34.6288,-305.867"/>
</g>
<!-- Node10 -->
<g id="node8" class="node"><title>Node10</title>
<g id="a_node8"><a xlink:href="class_output.html#a0391d9c2b71e45617b6c0ebc57a4266e" target="_top" xlink:title="Output::print">
<polygon fill="none" stroke="black" points="125.5,-114.5 125.5,-133.5 196.5,-133.5 196.5,-114.5 125.5,-114.5"/>
<text text-anchor="middle" x="161" y="-121.5" font-family="Helvetica,sans-Serif" font-size="10.00">Output::print</text>
</a>
</g>
</g>
<!-- Node3&#45;&gt;Node10 -->
<g id="edge9" class="edge"><title>Node3&#45;&gt;Node10</title>
<path fill="none" stroke="midnightblue" d="M35.1796,-306.443C39.4136,-269.304 53.8225,-188.245 101,-143 107.679,-136.594 116.529,-132.348 125.338,-129.534"/>
<polygon fill="midnightblue" stroke="midnightblue" points="31.6895,-306.17 34.1673,-316.471 38.6541,-306.873 31.6895,-306.17"/>
</g>
<!-- Node11 -->
<g id="node9" class="node"><title>Node11</title>
<g id="a_node9"><a xlink:href="class_idle.html#af692a8455bc2252cab72c7c4008f3a07" target="_top" xlink:title="Idle::print">
<polygon fill="none" stroke="black" points="132.5,-76.5 132.5,-95.5 189.5,-95.5 189.5,-76.5 132.5,-76.5"/>
<text text-anchor="middle" x="161" y="-83.5" font-family="Helvetica,sans-Serif" font-size="10.00">Idle::print</text>
</a>
</g>
</g>
<!-- Node3&#45;&gt;Node11 -->
<g id="edge10" class="edge"><title>Node3&#45;&gt;Node11</title>
<path fill="none" stroke="midnightblue" d="M33.722,-306.325C35.2864,-263.64 45.0401,-161.812 101,-105 109.307,-96.5668 121.368,-91.8729 132.424,-89.2619"/>
<polygon fill="midnightblue" stroke="midnightblue" points="30.2189,-306.41 33.4689,-316.494 37.2167,-306.584 30.2189,-306.41"/>
</g>
<!-- Node12 -->
<g id="node10" class="node"><title>Node12</title>
<g id="a_node10"><a xlink:href="class_measure.html#aefee38ede6aa57eba025010be261df46" target="_top" xlink:title="Measure::print">
<polygon fill="none" stroke="black" points="121.5,-38.5 121.5,-57.5 200.5,-57.5 200.5,-38.5 121.5,-38.5"/>
<text text-anchor="middle" x="161" y="-45.5" font-family="Helvetica,sans-Serif" font-size="10.00">Measure::print</text>
</a>
</g>
</g>
<!-- Node3&#45;&gt;Node12 -->
<g id="edge11" class="edge"><title>Node3&#45;&gt;Node12</title>
<path fill="none" stroke="midnightblue" d="M32.6543,-306.28C31.7199,-258.54 36.1365,-135.643 101,-67 106.469,-61.2121 113.706,-57.1827 121.233,-54.3789"/>
<polygon fill="midnightblue" stroke="midnightblue" points="29.1621,-306.594 32.9637,-316.483 36.1589,-306.382 29.1621,-306.594"/>
</g>
<!-- Node13 -->
<g id="node11" class="node"><title>Node13</title>
<g id="a_node11"><a xlink:href="class_config.html#a145fb48e8056b0f8f5ce92d6184e73f9" target="_top" xlink:title="Config::print">
<polygon fill="none" stroke="black" points="126,-0.5 126,-19.5 196,-19.5 196,-0.5 126,-0.5"/>
<text text-anchor="middle" x="161" y="-7.5" font-family="Helvetica,sans-Serif" font-size="10.00">Config::print</text>
</a>
</g>
</g>
<!-- Node3&#45;&gt;Node13 -->
<g id="edge12" class="edge"><title>Node3&#45;&gt;Node13</title>
<path fill="none" stroke="midnightblue" d="M35.4558,-306.229C41.7291,-246.635 63.1771,-70.3098 101,-29 107.54,-21.8569 116.774,-17.3879 125.999,-14.5957"/>
<polygon fill="midnightblue" stroke="midnightblue" points="31.9687,-305.925 34.4316,-316.23 38.9323,-306.638 31.9687,-305.925"/>
</g>
<!-- Node14 -->
<g id="node12" class="node"><title>Node14</title>
<g id="a_node12"><a xlink:href="class_sensor.html#a0e1288d8b8594192f9d65819c185764f" target="_top" xlink:title="This method print the sensor configuration for the sensor. It&#39;s a good idea to overload this function...">
<polygon fill="none" stroke="black" points="109,-354.5 109,-373.5 213,-373.5 213,-354.5 109,-354.5"/>
<text text-anchor="middle" x="161" y="-361.5" font-family="Helvetica,sans-Serif" font-size="10.00">Sensor::print_config</text>
</a>
</g>
</g>
<!-- Node3&#45;&gt;Node14 -->
<g id="edge13" class="edge"><title>Node3&#45;&gt;Node14</title>
<path fill="none" stroke="midnightblue" d="M74.9857,-338.462C92.3532,-343.679 112.214,-349.645 128.369,-354.498"/>
<polygon fill="midnightblue" stroke="midnightblue" points="75.6792,-335.016 65.095,-335.491 73.6652,-341.72 75.6792,-335.016"/>
</g>
<!-- Node20 -->
<g id="node18" class="node"><title>Node20</title>
<g id="a_node18"><a xlink:href="class_output.html#af4bc42d2d3bb3b2a98782f0df0eba133" target="_top" xlink:title="Output::usart0_print">
<polygon fill="none" stroke="black" points="582,-203.5 582,-222.5 685,-222.5 685,-203.5 582,-203.5"/>
<text text-anchor="middle" x="633.5" y="-210.5" font-family="Helvetica,sans-Serif" font-size="10.00">Output::usart0_print</text>
</a>
</g>
</g>
<!-- Node3&#45;&gt;Node20 -->
<g id="edge43" class="edge"><title>Node3&#45;&gt;Node20</title>
<path fill="none" stroke="midnightblue" d="M39.3479,-306.838C48.1603,-281.724 67.4832,-238.68 101,-220 182.313,-174.68 465.567,-196.445 581.966,-207.704"/>
<polygon fill="midnightblue" stroke="midnightblue" points="36.0091,-305.787 36.204,-316.38 42.6576,-307.978 36.0091,-305.787"/>
</g>
<!-- Node24 -->
<g id="node22" class="node"><title>Node24</title>
<g id="a_node22"><a xlink:href="class_r_t_c.html#a59f014e14e774bf372dcf0d5d64e6717" target="_top" xlink:title="RTC::print_config">
<polygon fill="none" stroke="black" points="114,-544.5 114,-563.5 208,-563.5 208,-544.5 114,-544.5"/>
<text text-anchor="middle" x="161" y="-551.5" font-family="Helvetica,sans-Serif" font-size="10.00">RTC::print_config</text>
</a>
</g>
</g>
<!-- Node3&#45;&gt;Node24 -->
<g id="edge27" class="edge"><title>Node3&#45;&gt;Node24</title>
<path fill="none" stroke="midnightblue" d="M34.6492,-345.502C38.0063,-385.291 51.0266,-476.572 101,-530 106.892,-536.299 114.671,-540.988 122.64,-544.463"/>
<polygon fill="midnightblue" stroke="midnightblue" points="38.1391,-345.234 33.9235,-335.514 31.1575,-345.742 38.1391,-345.234"/>
</g>
<!-- Node25 -->
<g id="node23" class="node"><title>Node25</title>
<g id="a_node23"><a xlink:href="class_power.html#afd1c8cab1d4549eb45be61bdd34ae97d" target="_top" xlink:title="This method print the configuration for the power measurement. It&#39;s a good idea to overload this func...">
<polygon fill="none" stroke="black" points="110.5,-430.5 110.5,-449.5 211.5,-449.5 211.5,-430.5 110.5,-430.5"/>
<text text-anchor="middle" x="161" y="-437.5" font-family="Helvetica,sans-Serif" font-size="10.00">Power::print_config</text>
</a>
</g>
</g>
<!-- Node3&#45;&gt;Node25 -->
<g id="edge29" class="edge"><title>Node3&#45;&gt;Node25</title>
<path fill="none" stroke="midnightblue" d="M42.159,-344.708C52.9966,-366.136 73.5253,-400.871 101,-421 106.295,-424.879 112.417,-427.989 118.67,-430.475"/>
<polygon fill="midnightblue" stroke="midnightblue" points="45.2703,-343.103 37.7501,-335.64 38.9749,-346.163 45.2703,-343.103"/>
</g>
<!-- Node27 -->
<g id="node25" class="node"><title>Node27</title>
<g id="a_node25"><a xlink:href="classpower_d_c.html#aedca6b1fc36cfddd8876fadb387debe1" target="_top" xlink:title="powerDC::~powerDC">
<polygon fill="none" stroke="black" points="257,-430.5 257,-449.5 368,-449.5 368,-430.5 257,-430.5"/>
<text text-anchor="middle" x="312.5" y="-437.5" font-family="Helvetica,sans-Serif" font-size="10.00">powerDC::~powerDC</text>
</a>
</g>
</g>
<!-- Node3&#45;&gt;Node27 -->
<g id="edge44" class="edge"><title>Node3&#45;&gt;Node27</title>
<path fill="none" stroke="midnightblue" d="M36.8418,-345.55C43.223,-376.045 60.3168,-434.025 101,-459 161.353,-496.051 250.348,-466.437 290.495,-449.617"/>
<polygon fill="midnightblue" stroke="midnightblue" points="40.2685,-344.835 34.9516,-335.67 33.3932,-346.15 40.2685,-344.835"/>
</g>
<!-- Node28 -->
<g id="node26" class="node"><title>Node28</title>
<g id="a_node26"><a xlink:href="class_sensor.html#aa03d707dfa7562805b77f9040831418b" target="_top" xlink:title="Sensor::print_data\l_array">
<polygon fill="none" stroke="black" points="113,-229 113,-259 209,-259 209,-229 113,-229"/>
<text text-anchor="start" x="121" y="-247" font-family="Helvetica,sans-Serif" font-size="10.00">Sensor::print_data</text>
<text text-anchor="middle" x="161" y="-236" font-family="Helvetica,sans-Serif" font-size="10.00">_array</text>
</a>
</g>
</g>
<!-- Node3&#45;&gt;Node28 -->
<g id="edge34" class="edge"><title>Node3&#45;&gt;Node28</title>
<path fill="none" stroke="midnightblue" d="M50.5755,-309.054C63.5895,-296.794 82.3865,-280.438 101,-269 106.876,-265.389 113.367,-262.06 119.83,-259.09"/>
<polygon fill="midnightblue" stroke="midnightblue" points="48.0541,-306.623 43.2732,-316.078 52.9067,-311.668 48.0541,-306.623"/>
</g>
<!-- Node29 -->
<g id="node27" class="node"><title>Node29</title>
<g id="a_node27"><a xlink:href="class_power.html#acd77541eabe8feb58e0b73154268cdd2" target="_top" xlink:title="Power::print_data_array">
<polygon fill="none" stroke="black" points="101,-392.5 101,-411.5 221,-411.5 221,-392.5 101,-392.5"/>
<text text-anchor="middle" x="161" y="-399.5" font-family="Helvetica,sans-Serif" font-size="10.00">Power::print_data_array</text>
</a>
</g>
</g>
<!-- Node3&#45;&gt;Node29 -->
<g id="edge36" class="edge"><title>Node3&#45;&gt;Node29</title>
<path fill="none" stroke="midnightblue" d="M49.8388,-343.008C62.7174,-355.569 81.6726,-372.28 101,-383 107.776,-386.758 115.407,-389.905 122.877,-392.488"/>
<polygon fill="midnightblue" stroke="midnightblue" points="52.1984,-340.418 42.6562,-335.814 47.2446,-345.363 52.1984,-340.418"/>
</g>
<!-- Node30 -->
<g id="node28" class="node"><title>Node30</title>
<g id="a_node28"><a xlink:href="class_power.html#ace64df3181f3dfce89b8a1f8608e16eb" target="_top" xlink:title="Power::read_rms_value">
<polygon fill="none" stroke="black" points="101.5,-316.5 101.5,-335.5 220.5,-335.5 220.5,-316.5 101.5,-316.5"/>
<text text-anchor="middle" x="161" y="-323.5" font-family="Helvetica,sans-Serif" font-size="10.00">Power::read_rms_value</text>
</a>
</g>
</g>
<!-- Node3&#45;&gt;Node30 -->
<g id="edge39" class="edge"><title>Node3&#45;&gt;Node30</title>
<path fill="none" stroke="midnightblue" d="M75.2737,-326C83.5868,-326 92.4616,-326 101.221,-326"/>
<polygon fill="midnightblue" stroke="midnightblue" points="75.095,-322.5 65.095,-326 75.0949,-329.5 75.095,-322.5"/>
</g>
<!-- Node31 -->
<g id="node29" class="node"><title>Node31</title>
<g id="a_node29"><a xlink:href="class_power.html#a50a207b74105ff65f34f8f8917eed65f" target="_top" xlink:title="Reads the VCC used during the ADC conversion. ">
<polygon fill="none" stroke="black" points="118,-278.5 118,-297.5 204,-297.5 204,-278.5 118,-278.5"/>
<text text-anchor="middle" x="161" y="-285.5" font-family="Helvetica,sans-Serif" font-size="10.00">Power::readVcc</text>
</a>
</g>
</g>
<!-- Node3&#45;&gt;Node31 -->
<g id="edge41" class="edge"><title>Node3&#45;&gt;Node31</title>
<path fill="none" stroke="midnightblue" d="M74.9857,-313.538C92.3532,-308.321 112.214,-302.355 128.369,-297.502"/>
<polygon fill="midnightblue" stroke="midnightblue" points="73.6652,-310.28 65.095,-316.509 75.6792,-316.984 73.6652,-310.28"/>
</g>
<!-- Node5 -->
<g id="node3" class="node"><title>Node5</title>
<g id="a_node3"><a xlink:href="main_8cpp.html#ae66f6b31b5ad750f1fe042a706a4e3d4" target="_top" xlink:title="main">
<polygon fill="none" stroke="black" points="766.5,-601.5 766.5,-620.5 804.5,-620.5 804.5,-601.5 766.5,-601.5"/>
<text text-anchor="middle" x="785.5" y="-608.5" font-family="Helvetica,sans-Serif" font-size="10.00">main</text>
</a>
</g>
</g>
<!-- Node4&#45;&gt;Node5 -->
<g id="edge2" class="edge"><title>Node4&#45;&gt;Node5</title>
<path fill="none" stroke="midnightblue" d="M712.046,-611C732.441,-611 752.584,-611 766.434,-611"/>
<polygon fill="midnightblue" stroke="midnightblue" points="712.04,-607.5 702.04,-611 712.04,-614.5 712.04,-607.5"/>
</g>
<!-- Node7 -->
<g id="node5" class="node"><title>Node7</title>
<g id="a_node5"><a xlink:href="class_config.html#a5ae6c4f7255e895e7384fc2a4baab160" target="_top" xlink:title="Config::endString">
<polygon fill="none" stroke="black" points="420.5,-563.5 420.5,-582.5 512.5,-582.5 512.5,-563.5 420.5,-563.5"/>
<text text-anchor="middle" x="466.5" y="-570.5" font-family="Helvetica,sans-Serif" font-size="10.00">Config::endString</text>
</a>
</g>
</g>
<!-- Node6&#45;&gt;Node7 -->
<g id="edge4" class="edge"><title>Node6&#45;&gt;Node7</title>
<path fill="none" stroke="midnightblue" d="M363.99,-560.311C382.225,-562.591 402.677,-565.147 420.418,-567.365"/>
<polygon fill="midnightblue" stroke="midnightblue" points="364.191,-556.809 353.834,-559.042 363.323,-563.755 364.191,-556.809"/>
</g>
<!-- Node6&#45;&gt;Node8 -->
<g id="edge6" class="edge"><title>Node6&#45;&gt;Node8</title>
<path fill="none" stroke="midnightblue" d="M361.66,-541.96C382.895,-536.651 407.495,-530.501 427.42,-525.52"/>
<polygon fill="midnightblue" stroke="midnightblue" points="360.709,-538.59 351.856,-544.411 362.406,-545.381 360.709,-538.59"/>
</g>
<!-- Node7&#45;&gt;Node4 -->
<g id="edge5" class="edge"><title>Node7&#45;&gt;Node4</title>
<path fill="none" stroke="midnightblue" d="M519.154,-584.896C542.346,-590.237 569.338,-596.454 591.163,-601.48"/>
<polygon fill="midnightblue" stroke="midnightblue" points="519.667,-581.423 509.136,-582.589 518.096,-588.244 519.667,-581.423"/>
</g>
<!-- Node14&#45;&gt;Node6 -->
<g id="edge14" class="edge"><title>Node14&#45;&gt;Node6</title>
<path fill="none" stroke="midnightblue" d="M214.74,-378.323C216.951,-379.738 219.053,-381.293 221,-383 249.1,-407.644 239.687,-425.876 257,-459 273.646,-490.849 295.419,-527.452 305.675,-544.429"/>
<polygon fill="midnightblue" stroke="midnightblue" points="216.24,-375.156 205.771,-373.528 212.94,-381.33 216.24,-375.156"/>
</g>
<!-- Node15 -->
<g id="node13" class="node"><title>Node15</title>
<g id="a_node13"><a xlink:href="class_sensor.html#a4e88d49608387ab4f65734913e514109" target="_top" xlink:title="Sensor::is_enable">
<polygon fill="none" stroke="black" points="265,-266.5 265,-285.5 360,-285.5 360,-266.5 265,-266.5"/>
<text text-anchor="middle" x="312.5" y="-273.5" font-family="Helvetica,sans-Serif" font-size="10.00">Sensor::is_enable</text>
</a>
</g>
</g>
<!-- Node14&#45;&gt;Node15 -->
<g id="edge15" class="edge"><title>Node14&#45;&gt;Node15</title>
<path fill="none" stroke="midnightblue" d="M207.756,-350.994C212.319,-349.187 216.809,-347.19 221,-345 253.046,-328.256 285.522,-300.192 301.437,-285.548"/>
<polygon fill="midnightblue" stroke="midnightblue" points="206.545,-347.711 198.359,-354.437 208.952,-354.283 206.545,-347.711"/>
</g>
<!-- Node16 -->
<g id="node14" class="node"><title>Node16</title>
<g id="a_node14"><a xlink:href="class_sensor.html#ae16fd0cbdda6cfed1deac36f5c7c0a8f" target="_top" xlink:title="This method calculate the average from the data array. ">
<polygon fill="none" stroke="black" points="411,-304.5 411,-323.5 522,-323.5 522,-304.5 411,-304.5"/>
<text text-anchor="middle" x="466.5" y="-311.5" font-family="Helvetica,sans-Serif" font-size="10.00">Sensor::calc_average</text>
</a>
</g>
</g>
<!-- Node15&#45;&gt;Node16 -->
<g id="edge16" class="edge"><title>Node15&#45;&gt;Node16</title>
<path fill="none" stroke="midnightblue" d="M370.351,-283.657C396.965,-289.76 426.929,-297.871 445.997,-304.427"/>
<polygon fill="midnightblue" stroke="midnightblue" points="370.868,-280.186 360.345,-281.424 369.343,-287.018 370.868,-280.186"/>
</g>
<!-- Node19 -->
<g id="node17" class="node"><title>Node19</title>
<g id="a_node17"><a xlink:href="class_sensor.html#a38a47820684e5ff0f61ad32b8afbde45" target="_top" xlink:title="The print_average method print the average&#39;s value in the string. ">
<polygon fill="none" stroke="black" points="410.5,-228.5 410.5,-247.5 522.5,-247.5 522.5,-228.5 410.5,-228.5"/>
<text text-anchor="middle" x="466.5" y="-235.5" font-family="Helvetica,sans-Serif" font-size="10.00">Sensor::print_average</text>
</a>
</g>
</g>
<!-- Node15&#45;&gt;Node19 -->
<g id="edge20" class="edge"><title>Node15&#45;&gt;Node19</title>
<path fill="none" stroke="midnightblue" d="M342.701,-263.249C361.847,-257.231 387.481,-250.466 410.375,-245.263"/>
<polygon fill="midnightblue" stroke="midnightblue" points="341.473,-259.968 333.06,-266.408 343.653,-266.62 341.473,-259.968"/>
</g>
<!-- Node22 -->
<g id="node20" class="node"><title>Node22</title>
<g id="a_node20"><a xlink:href="class_anemometer.html#a9be3b4b392ef08ef29c769e6ce4bebf4" target="_top" xlink:title="Anemometer::read_value">
<polygon fill="none" stroke="black" points="404,-266.5 404,-285.5 529,-285.5 529,-266.5 404,-266.5"/>
<text text-anchor="middle" x="466.5" y="-273.5" font-family="Helvetica,sans-Serif" font-size="10.00">Anemometer::read_value</text>
</a>
</g>
</g>
<!-- Node15&#45;&gt;Node22 -->
<g id="edge24" class="edge"><title>Node15&#45;&gt;Node22</title>
<path fill="none" stroke="midnightblue" d="M370.592,-276C381.49,-276 392.942,-276 403.972,-276"/>
<polygon fill="midnightblue" stroke="midnightblue" points="370.345,-272.5 360.345,-276 370.345,-279.5 370.345,-272.5"/>
</g>
<!-- Node16&#45;&gt;Node15 -->
<g id="edge19" class="edge"><title>Node16&#45;&gt;Node15</title>
<path fill="none" stroke="midnightblue" d="M400.723,-304.49C376.281,-298.668 350.255,-291.501 333.06,-285.592"/>
<polygon fill="midnightblue" stroke="midnightblue" points="400.175,-307.956 410.708,-306.813 401.762,-301.138 400.175,-307.956"/>
</g>
<!-- Node17 -->
<g id="node15" class="node"><title>Node17</title>
<g id="a_node15"><a xlink:href="class_measure.html#a1518672dff4f81603a35bff08c20e9f5" target="_top" xlink:title="calcul average from the data array ">
<polygon fill="none" stroke="black" points="574.5,-307.5 574.5,-326.5 692.5,-326.5 692.5,-307.5 574.5,-307.5"/>
<text text-anchor="middle" x="633.5" y="-314.5" font-family="Helvetica,sans-Serif" font-size="10.00">Measure::calc_average</text>
</a>
</g>
</g>
<!-- Node16&#45;&gt;Node17 -->
<g id="edge17" class="edge"><title>Node16&#45;&gt;Node17</title>
<path fill="none" stroke="midnightblue" d="M532.795,-315.187C546.537,-315.437 560.946,-315.699 574.403,-315.944"/>
<polygon fill="midnightblue" stroke="midnightblue" points="532.505,-311.681 522.443,-314.999 532.377,-318.68 532.505,-311.681"/>
</g>
<!-- Node18 -->
<g id="node16" class="node"><title>Node18</title>
<g id="a_node16"><a xlink:href="class_measure.html#a754d2de10d1a44bb3b62ab162ceeaae2" target="_top" xlink:title="The execute method is the measure &quot;main function&quot; The execute function work as this scheme : ...">
<polygon fill="none" stroke="black" points="738,-285.5 738,-304.5 833,-304.5 833,-285.5 738,-285.5"/>
<text text-anchor="middle" x="785.5" y="-292.5" font-family="Helvetica,sans-Serif" font-size="10.00">Measure::execute</text>
</a>
</g>
</g>
<!-- Node17&#45;&gt;Node18 -->
<g id="edge18" class="edge"><title>Node17&#45;&gt;Node18</title>
<path fill="none" stroke="midnightblue" d="M703.099,-306.939C714.771,-305.227 726.651,-303.484 737.598,-301.879"/>
<polygon fill="midnightblue" stroke="midnightblue" points="702.31,-303.517 692.923,-308.431 703.326,-310.443 702.31,-303.517"/>
</g>
<!-- Node19&#45;&gt;Node15 -->
<g id="edge21" class="edge"><title>Node19&#45;&gt;Node15</title>
<path fill="none" stroke="midnightblue" d="M436.452,-250.703C414.947,-257.471 385.195,-265.191 360.345,-270.576"/>
<polygon fill="midnightblue" stroke="midnightblue" points="437.586,-254.015 445.997,-247.573 435.404,-247.364 437.586,-254.015"/>
</g>
<!-- Node19&#45;&gt;Node20 -->
<g id="edge22" class="edge"><title>Node19&#45;&gt;Node20</title>
<path fill="none" stroke="midnightblue" d="M532.918,-228.088C549.238,-225.615 566.491,-223.001 581.968,-220.656"/>
<polygon fill="midnightblue" stroke="midnightblue" points="532.264,-224.647 522.902,-229.606 533.313,-231.568 532.264,-224.647"/>
</g>
<!-- Node21 -->
<g id="node19" class="node"><title>Node21</title>
<g id="a_node19"><a xlink:href="class_output.html#a087f4330e641bb4682ab2862bca7a1af" target="_top" xlink:title="Output::execute">
<polygon fill="none" stroke="black" points="742.5,-203.5 742.5,-222.5 828.5,-222.5 828.5,-203.5 742.5,-203.5"/>
<text text-anchor="middle" x="785.5" y="-210.5" font-family="Helvetica,sans-Serif" font-size="10.00">Output::execute</text>
</a>
</g>
</g>
<!-- Node20&#45;&gt;Node21 -->
<g id="edge23" class="edge"><title>Node20&#45;&gt;Node21</title>
<path fill="none" stroke="midnightblue" d="M695.455,-213C711.166,-213 727.73,-213 742.255,-213"/>
<polygon fill="midnightblue" stroke="midnightblue" points="695.283,-209.5 685.283,-213 695.283,-216.5 695.283,-209.5"/>
</g>
<!-- Node23 -->
<g id="node21" class="node"><title>Node23</title>
<g id="a_node21"><a xlink:href="class_measure.html#a4390d770b19dbc51e5486fefe9f4b9d1" target="_top" xlink:title="read value from anemometer and RPM ">
<polygon fill="none" stroke="black" points="583,-258 583,-288 684,-288 684,-258 583,-258"/>
<text text-anchor="start" x="591" y="-276" font-family="Helvetica,sans-Serif" font-size="10.00">Measure::freq_read</text>
<text text-anchor="middle" x="633.5" y="-265" font-family="Helvetica,sans-Serif" font-size="10.00">_value</text>
</a>
</g>
</g>
<!-- Node22&#45;&gt;Node23 -->
<g id="edge25" class="edge"><title>Node22&#45;&gt;Node23</title>
<path fill="none" stroke="midnightblue" d="M539.455,-274.692C554.103,-274.425 569.203,-274.151 582.864,-273.902"/>
<polygon fill="midnightblue" stroke="midnightblue" points="539.344,-271.193 529.409,-274.874 539.471,-278.192 539.344,-271.193"/>
</g>
<!-- Node23&#45;&gt;Node18 -->
<g id="edge26" class="edge"><title>Node23&#45;&gt;Node18</title>
<path fill="none" stroke="midnightblue" d="M693.964,-281.721C708.541,-283.859 723.937,-286.117 737.817,-288.153"/>
<polygon fill="midnightblue" stroke="midnightblue" points="694.433,-278.253 684.031,-280.265 693.418,-285.179 694.433,-278.253"/>
</g>
<!-- Node24&#45;&gt;Node6 -->
<g id="edge28" class="edge"><title>Node24&#45;&gt;Node6</title>
<path fill="none" stroke="midnightblue" d="M218.275,-554C235.943,-554 255.079,-554 271.391,-554"/>
<polygon fill="midnightblue" stroke="midnightblue" points="218.075,-550.5 208.075,-554 218.075,-557.5 218.075,-550.5"/>
</g>
<!-- Node25&#45;&gt;Node6 -->
<g id="edge30" class="edge"><title>Node25&#45;&gt;Node6</title>
<path fill="none" stroke="midnightblue" d="M182.557,-455.675C213.927,-479.597 272.83,-524.512 298.729,-544.262"/>
<polygon fill="midnightblue" stroke="midnightblue" points="184.563,-452.804 174.489,-449.523 180.319,-458.37 184.563,-452.804"/>
</g>
<!-- Node26 -->
<g id="node24" class="node"><title>Node26</title>
<g id="a_node24"><a xlink:href="class_power.html#a1e7595ee0b3b0439d979ffeab785d0d8" target="_top" xlink:title="Power::set_i_offset">
<polygon fill="none" stroke="black" points="262,-392.5 262,-411.5 363,-411.5 363,-392.5 262,-392.5"/>
<text text-anchor="middle" x="312.5" y="-399.5" font-family="Helvetica,sans-Serif" font-size="10.00">Power::set_i_offset</text>
</a>
</g>
</g>
<!-- Node25&#45;&gt;Node26 -->
<g id="edge31" class="edge"><title>Node25&#45;&gt;Node26</title>
<path fill="none" stroke="midnightblue" d="M209.652,-427.888C230.473,-422.596 254.538,-416.479 274.046,-411.52"/>
<polygon fill="midnightblue" stroke="midnightblue" points="208.555,-424.555 199.725,-430.411 210.279,-431.34 208.555,-424.555"/>
</g>
<!-- Node25&#45;&gt;Node27 -->
<g id="edge33" class="edge"><title>Node25&#45;&gt;Node27</title>
<path fill="none" stroke="midnightblue" d="M221.783,-440C233.343,-440 245.402,-440 256.79,-440"/>
<polygon fill="midnightblue" stroke="midnightblue" points="221.781,-436.5 211.781,-440 221.781,-443.5 221.781,-436.5"/>
</g>
<!-- Node26&#45;&gt;Node8 -->
<g id="edge32" class="edge"><title>Node26&#45;&gt;Node8</title>
<path fill="none" stroke="midnightblue" d="M357.788,-415.548C361.335,-417.197 364.786,-419.012 368,-421 406.993,-445.118 442.88,-487.239 457.975,-506.226"/>
<polygon fill="midnightblue" stroke="midnightblue" points="358.845,-412.196 348.27,-411.563 356.142,-418.653 358.845,-412.196"/>
</g>
<!-- Node28&#45;&gt;Node15 -->
<g id="edge35" class="edge"><title>Node28&#45;&gt;Node15</title>
<path fill="none" stroke="midnightblue" d="M219.483,-256.304C235.261,-259.681 252.126,-263.291 267.05,-266.486"/>
<polygon fill="midnightblue" stroke="midnightblue" points="219.814,-252.796 209.303,-254.125 218.349,-259.641 219.814,-252.796"/>
</g>
<!-- Node29&#45;&gt;Node26 -->
<g id="edge37" class="edge"><title>Node29&#45;&gt;Node26</title>
<path fill="none" stroke="midnightblue" d="M231.353,-402C241.695,-402 252.176,-402 261.998,-402"/>
<polygon fill="midnightblue" stroke="midnightblue" points="231.086,-398.5 221.086,-402 231.086,-405.5 231.086,-398.5"/>
</g>
<!-- Node29&#45;&gt;Node27 -->
<g id="edge38" class="edge"><title>Node29&#45;&gt;Node27</title>
<path fill="none" stroke="midnightblue" d="M209.652,-414.112C230.473,-419.404 254.538,-425.521 274.046,-430.48"/>
<polygon fill="midnightblue" stroke="midnightblue" points="210.279,-410.66 199.725,-411.589 208.555,-417.445 210.279,-410.66"/>
</g>
<!-- Node30&#45;&gt;Node26 -->
<g id="edge40" class="edge"><title>Node30&#45;&gt;Node26</title>
<path fill="none" stroke="midnightblue" d="M206.242,-338.903C211.291,-340.769 216.306,-342.808 221,-345 250.276,-358.668 281.563,-380.089 298.603,-392.409"/>
<polygon fill="midnightblue" stroke="midnightblue" points="207.16,-335.516 196.565,-335.531 204.856,-342.126 207.16,-335.516"/>
</g>
<!-- Node31&#45;&gt;Node26 -->
<g id="edge42" class="edge"><title>Node31&#45;&gt;Node26</title>
<path fill="none" stroke="midnightblue" d="M210.364,-301.326C214.068,-303.018 217.661,-304.904 221,-307 258.62,-330.617 291.438,-373.376 304.942,-392.412"/>
<polygon fill="midnightblue" stroke="midnightblue" points="211.588,-298.045 201.006,-297.508 208.944,-304.526 211.588,-298.045"/>
</g>
</g>
</svg>
        <g id="navigator" transform="translate(0 0)" fill="#404254">
                <rect fill="#f2f5e9" fill-opacity="0.5" stroke="#606060" stroke-width=".5" x="0" y="0" width="60" height="60"/>
                <use id="zoomplus" xlink:href="#zoomPlus" x="17" y="9" onmousedown="handleZoom(evt,'in')"/>
                <use id="zoomminus" xlink:href="#zoomMin" x="42" y="9" onmousedown="handleZoom(evt,'out')"/>
                <use id="reset" xlink:href="#resetDef" x="30" y="36" onmousedown="handleReset()"/>
                <g id="arrowUp" xlink:href="#dirArrow" transform="translate(30 24)" onmousedown="handlePan(0,-1)">
                  <use xlink:href="#rim" fill="#404040">
                        <set attributeName="fill" to="#808080" begin="arrowUp.mouseover" end="arrowUp.mouseout"/>
                  </use>
                  <path fill="none" stroke="white" stroke-width="1.5" d="M0,-3.0v7 M-2.5,-0.5L0,-3.0L2.5,-0.5"/>
                </g>
                <g id="arrowRight" xlink:href="#dirArrow" transform="rotate(90) translate(36 -43)" onmousedown="handlePan(1,0)">
                  <use xlink:href="#rim" fill="#404040">
                        <set attributeName="fill" to="#808080" begin="arrowRight.mouseover" end="arrowRight.mouseout"/>
                  </use>
                  <path fill="none" stroke="white" stroke-width="1.5" d="M0,-3.0v7 M-2.5,-0.5L0,-3.0L2.5,-0.5"/>
                </g>
                <g id="arrowDown" xlink:href="#dirArrow" transform="rotate(180) translate(-30 -48)" onmousedown="handlePan(0,1)">
                  <use xlink:href="#rim" fill="#404040">
                        <set attributeName="fill" to="#808080" begin="arrowDown.mouseover" end="arrowDown.mouseout"/>
                  </use>
                  <path fill="none" stroke="white" stroke-width="1.5" d="M0,-3.0v7 M-2.5,-0.5L0,-3.0L2.5,-0.5"/>
                </g>
                <g id="arrowLeft" xlink:href="#dirArrow" transform="rotate(270) translate(-36 17)" onmousedown="handlePan(-1,0)">
                  <use xlink:href="#rim" fill="#404040">
                        <set attributeName="fill" to="#808080" begin="arrowLeft.mouseover" end="arrowLeft.mouseout"/>
                  </use>
                  <path fill="none" stroke="white" stroke-width="1.5" d="M0,-3.0v7 M-2.5,-0.5L0,-3.0L2.5,-0.5"/>
                </g>
        </g>
        <svg viewBox="0 0 15 15" width="100%" height="30px" preserveAspectRatio="xMaxYMin meet">
         <g id="arrow_out" transform="scale(0.3 0.3)">
          <a xlink:href="class_usart_ab236d7c399791bbe1431f85e9b60f601_icgraph_org.svg" target="_base">
           <rect id="button" ry="5" rx="5" y="6" x="6" height="38" width="38"
                fill="#f2f5e9" fill-opacity="0.5" stroke="#606060" stroke-width="1.0"/>
           <path id="arrow"
             d="M 11.500037,31.436501 C 11.940474,20.09759 22.043105,11.32322 32.158766,21.979434 L 37.068811,17.246167 C 37.068811,17.246167 37.088388,32 37.088388,32 L 22.160133,31.978069 C 22.160133,31.978069 26.997745,27.140456 26.997745,27.140456 C 18.528582,18.264221 13.291696,25.230495 11.500037,31.436501 z"
             style="fill:#404040;"/>
          </a>
         </g>
        </svg>
</svg>
