<?xml version="1.0" encoding="UTF-8" standalone="no"?>
<!DOCTYPE svg PUBLIC "-//W3C//DTD SVG 1.1//EN"
 "http://www.w3.org/Graphics/SVG/1.1/DTD/svg11.dtd">
<!-- Generated by graphviz version 2.38.0 (20140413.2041)
 -->
<!-- Title: Config::display Pages: 1 -->
<svg width="580pt" height="47pt"
 viewBox="0.00 0.00 580.00 47.00" xmlns="http://www.w3.org/2000/svg" xmlns:xlink="http://www.w3.org/1999/xlink">
<g id="graph0" class="graph" transform="scale(1 1) rotate(0) translate(4 43)">
<title>Config::display</title>
<!-- Node21 -->
<g id="node1" class="node"><title>Node21</title>
<polygon fill="#bfbfbf" stroke="black" points="0,-19.5 0,-38.5 82,-38.5 82,-19.5 0,-19.5"/>
<text text-anchor="middle" x="41" y="-26.5" font-family="Helvetica,sans-Serif" font-size="10.00">Config::display</text>
</g>
<!-- Node22 -->
<g id="node2" class="node"><title>Node22</title>
<g id="a_node2"><a xlink:href="class_config.html#a78ed6d7c25fb2d139420c803ad10bb36" target="_top" xlink:title="Config::endLine">
<polygon fill="none" stroke="black" points="240,-19.5 240,-38.5 325,-38.5 325,-19.5 240,-19.5"/>
<text text-anchor="middle" x="282.5" y="-26.5" font-family="Helvetica,sans-Serif" font-size="10.00">Config::endLine</text>
</a>
</g>
</g>
<!-- Node21&#45;&gt;Node22 -->
<g id="edge1" class="edge"><title>Node21&#45;&gt;Node22</title>
<path fill="none" stroke="midnightblue" d="M92.2188,-29C135.95,-29 198.611,-29 239.671,-29"/>
<polygon fill="midnightblue" stroke="midnightblue" points="92.0869,-25.5001 82.0869,-29 92.0869,-32.5001 92.0869,-25.5001"/>
</g>
<!-- Node25 -->
<g id="node5" class="node"><title>Node25</title>
<g id="a_node5"><a xlink:href="class_config.html#a2a806f322b0d533aabdb8e796d3b1033" target="_top" xlink:title="Main state function. ">
<polygon fill="none" stroke="black" points="118,-0.5 118,-19.5 204,-19.5 204,-0.5 118,-0.5"/>
<text text-anchor="middle" x="161" y="-7.5" font-family="Helvetica,sans-Serif" font-size="10.00">Config::execute</text>
</a>
</g>
</g>
<!-- Node21&#45;&gt;Node25 -->
<g id="edge4" class="edge"><title>Node21&#45;&gt;Node25</title>
<path fill="none" stroke="midnightblue" d="M92.174,-20.9211C100.741,-19.5418 109.561,-18.1215 117.891,-16.7802"/>
<polygon fill="midnightblue" stroke="midnightblue" points="91.5953,-17.4691 82.2789,-22.5144 92.7081,-24.3801 91.5953,-17.4691"/>
</g>
<!-- Node23 -->
<g id="node3" class="node"><title>Node23</title>
<g id="a_node3"><a xlink:href="class_f_s_m.html#a3819be8e9fe92b750f47b9731e92f254" target="_top" xlink:title="This method read the last char receive by the UART0 and check what is need to do. ...">
<polygon fill="none" stroke="black" points="361,-19.5 361,-38.5 498,-38.5 498,-19.5 361,-19.5"/>
<text text-anchor="middle" x="429.5" y="-26.5" font-family="Helvetica,sans-Serif" font-size="10.00">FSM::character_processing</text>
</a>
</g>
</g>
<!-- Node22&#45;&gt;Node23 -->
<g id="edge2" class="edge"><title>Node22&#45;&gt;Node23</title>
<path fill="none" stroke="midnightblue" d="M335.323,-29C343.629,-29 352.329,-29 360.937,-29"/>
<polygon fill="midnightblue" stroke="midnightblue" points="335.051,-25.5001 325.051,-29 335.051,-32.5001 335.051,-25.5001"/>
</g>
<!-- Node24 -->
<g id="node4" class="node"><title>Node24</title>
<g id="a_node4"><a xlink:href="main_8cpp.html#ae66f6b31b5ad750f1fe042a706a4e3d4" target="_top" xlink:title="main">
<polygon fill="none" stroke="black" points="534,-19.5 534,-38.5 572,-38.5 572,-19.5 534,-19.5"/>
<text text-anchor="middle" x="553" y="-26.5" font-family="Helvetica,sans-Serif" font-size="10.00">main</text>
</a>
</g>
</g>
<!-- Node23&#45;&gt;Node24 -->
<g id="edge3" class="edge"><title>Node23&#45;&gt;Node24</title>
<path fill="none" stroke="midnightblue" d="M508.013,-29C517.457,-29 526.315,-29 533.572,-29"/>
<polygon fill="midnightblue" stroke="midnightblue" points="508.001,-25.5001 498.001,-29 508.001,-32.5001 508.001,-25.5001"/>
</g>
<!-- Node25&#45;&gt;Node22 -->
<g id="edge5" class="edge"><title>Node25&#45;&gt;Node22</title>
<path fill="none" stroke="midnightblue" d="M214.069,-18.2787C222.656,-19.644 231.457,-21.0435 239.749,-22.3618"/>
<polygon fill="midnightblue" stroke="midnightblue" points="214.557,-14.8124 204.131,-16.6987 213.458,-21.7256 214.557,-14.8124"/>
</g>
</g>
</svg>
