<?xml version="1.0" encoding="UTF-8" standalone="no"?>
<!DOCTYPE svg PUBLIC "-//W3C//DTD SVG 1.1//EN"
 "http://www.w3.org/Graphics/SVG/1.1/DTD/svg11.dtd">
<!-- Generated by graphviz version 2.38.0 (20140413.2041)
 -->
<!-- Title: Power::set_i_offset Pages: 1 -->
<svg width="396pt" height="370pt"
 viewBox="0.00 0.00 396.00 370.00" xmlns="http://www.w3.org/2000/svg" xmlns:xlink="http://www.w3.org/1999/xlink">
<g id="graph0" class="graph" transform="scale(1 1) rotate(0) translate(4 366)">
<title>Power::set_i_offset</title>
<!-- Node75 -->
<g id="node1" class="node"><title>Node75</title>
<polygon fill="#bfbfbf" stroke="black" points="0,-171.5 0,-190.5 101,-190.5 101,-171.5 0,-171.5"/>
<text text-anchor="middle" x="50.5" y="-178.5" font-family="Helvetica,sans-Serif" font-size="10.00">Power::set_i_offset</text>
</g>
<!-- Node76 -->
<g id="node2" class="node"><title>Node76</title>
<g id="a_node2"><a xlink:href="class_power.html#a09a87034c397af2cfb7289fe1fbe5830" target="_top" xlink:title="This method calculate the mean RMS voltage, mean RMS current, active power, apparent power and power ...">
<polygon fill="none" stroke="black" points="155.5,-342.5 155.5,-361.5 238.5,-361.5 238.5,-342.5 155.5,-342.5"/>
<text text-anchor="middle" x="197" y="-349.5" font-family="Helvetica,sans-Serif" font-size="10.00">Power::calc_all</text>
</a>
</g>
</g>
<!-- Node75&#45;&gt;Node76 -->
<g id="edge1" class="edge"><title>Node75&#45;&gt;Node76</title>
<path fill="none" stroke="midnightblue" d="M54.2465,-190.825C62.2674,-217.715 88.2288,-293.158 137,-333 139.75,-335.247 142.772,-337.23 145.949,-338.98"/>
<polygon fill="midnightblue" stroke="midnightblue" points="144.679,-342.25 155.219,-343.321 147.647,-335.911 144.679,-342.25"/>
</g>
<!-- Node77 -->
<g id="node3" class="node"><title>Node77</title>
<g id="a_node3"><a xlink:href="class_power.html#ab6160d70ae5088f1923347e1e2c4a62a" target="_top" xlink:title="Initialize the eeprom memory. ">
<polygon fill="none" stroke="black" points="138,-304.5 138,-323.5 256,-323.5 256,-304.5 138,-304.5"/>
<text text-anchor="middle" x="197" y="-311.5" font-family="Helvetica,sans-Serif" font-size="10.00">Power::initialize_param</text>
</a>
</g>
</g>
<!-- Node75&#45;&gt;Node77 -->
<g id="edge2" class="edge"><title>Node75&#45;&gt;Node77</title>
<path fill="none" stroke="midnightblue" d="M56.0372,-190.527C66.8946,-212.318 96.5119,-266.131 137,-295 139.716,-296.937 142.64,-298.683 145.68,-300.257"/>
<polygon fill="midnightblue" stroke="midnightblue" points="144.509,-303.567 155.065,-304.477 147.38,-297.183 144.509,-303.567"/>
</g>
<!-- Node78 -->
<g id="node4" class="node"><title>Node78</title>
<g id="a_node4"><a xlink:href="class_power.html#a56a921dc1756f980b6b28e024f2c913c" target="_top" xlink:title="Load saved parameters for sensors from the eeprom. ">
<polygon fill="none" stroke="black" points="146.5,-266.5 146.5,-285.5 247.5,-285.5 247.5,-266.5 146.5,-266.5"/>
<text text-anchor="middle" x="197" y="-273.5" font-family="Helvetica,sans-Serif" font-size="10.00">Power::load_param</text>
</a>
</g>
</g>
<!-- Node75&#45;&gt;Node78 -->
<g id="edge3" class="edge"><title>Node75&#45;&gt;Node78</title>
<path fill="none" stroke="midnightblue" d="M61.0029,-190.601C76.0342,-205.371 106.709,-233.856 137,-252 143.522,-255.907 150.796,-259.446 157.948,-262.533"/>
<polygon fill="midnightblue" stroke="midnightblue" points="156.962,-265.911 167.543,-266.455 159.611,-259.432 156.962,-265.911"/>
</g>
<!-- Node79 -->
<g id="node5" class="node"><title>Node79</title>
<g id="a_node5"><a xlink:href="class_power.html#a3a915a3ea9b9017cae450959ef8af3de" target="_top" xlink:title="Power::print">
<polygon fill="none" stroke="black" points="306,-190.5 306,-209.5 375,-209.5 375,-190.5 306,-190.5"/>
<text text-anchor="middle" x="340.5" y="-197.5" font-family="Helvetica,sans-Serif" font-size="10.00">Power::print</text>
</a>
</g>
</g>
<!-- Node75&#45;&gt;Node79 -->
<g id="edge4" class="edge"><title>Node75&#45;&gt;Node79</title>
<path fill="none" stroke="midnightblue" d="M67.515,-190.572C84.1956,-199.941 111.417,-213.571 137,-219 189.171,-230.072 204.008,-225.023 257,-219 269.906,-217.533 283.733,-214.815 296.307,-211.884"/>
<polygon fill="midnightblue" stroke="midnightblue" points="297.192,-215.271 306.082,-209.507 295.538,-208.469 297.192,-215.271"/>
</g>
<!-- Node80 -->
<g id="node6" class="node"><title>Node80</title>
<g id="a_node6"><a xlink:href="class_power.html#a6c1622c43b34a31d8929674b33433c20" target="_top" xlink:title="The print_average method print the average&#39;s value in the string. ">
<polygon fill="none" stroke="black" points="142.5,-190.5 142.5,-209.5 251.5,-209.5 251.5,-190.5 142.5,-190.5"/>
<text text-anchor="middle" x="197" y="-197.5" font-family="Helvetica,sans-Serif" font-size="10.00">Power::print_average</text>
</a>
</g>
</g>
<!-- Node75&#45;&gt;Node80 -->
<g id="edge5" class="edge"><title>Node75&#45;&gt;Node80</title>
<path fill="none" stroke="midnightblue" d="M101.229,-187.539C111.148,-188.843 121.696,-190.23 132.016,-191.587"/>
<polygon fill="midnightblue" stroke="midnightblue" points="131.858,-195.096 142.229,-192.93 132.77,-188.156 131.858,-195.096"/>
</g>
<!-- Node81 -->
<g id="node7" class="node"><title>Node81</title>
<g id="a_node7"><a xlink:href="class_power.html#afd1c8cab1d4549eb45be61bdd34ae97d" target="_top" xlink:title="This method print the configuration for the power measurement. It&#39;s a good idea to overload this func...">
<polygon fill="none" stroke="black" points="146.5,-152.5 146.5,-171.5 247.5,-171.5 247.5,-152.5 146.5,-152.5"/>
<text text-anchor="middle" x="197" y="-159.5" font-family="Helvetica,sans-Serif" font-size="10.00">Power::print_config</text>
</a>
</g>
</g>
<!-- Node75&#45;&gt;Node81 -->
<g id="edge6" class="edge"><title>Node75&#45;&gt;Node81</title>
<path fill="none" stroke="midnightblue" d="M101.229,-174.461C112.468,-172.983 124.515,-171.399 136.123,-169.873"/>
<polygon fill="midnightblue" stroke="midnightblue" points="136.721,-173.325 146.18,-168.551 135.809,-166.384 136.721,-173.325"/>
</g>
<!-- Node83 -->
<g id="node9" class="node"><title>Node83</title>
<g id="a_node9"><a xlink:href="class_power.html#acd77541eabe8feb58e0b73154268cdd2" target="_top" xlink:title="Power::print_data_array">
<polygon fill="none" stroke="black" points="137,-76.5 137,-95.5 257,-95.5 257,-76.5 137,-76.5"/>
<text text-anchor="middle" x="197" y="-83.5" font-family="Helvetica,sans-Serif" font-size="10.00">Power::print_data_array</text>
</a>
</g>
</g>
<!-- Node75&#45;&gt;Node83 -->
<g id="edge9" class="edge"><title>Node75&#45;&gt;Node83</title>
<path fill="none" stroke="midnightblue" d="M59.7579,-171.428C73.9957,-155.484 104.754,-123.424 137,-105 140.679,-102.898 144.622,-100.993 148.661,-99.2744"/>
<polygon fill="midnightblue" stroke="midnightblue" points="150.113,-102.466 158.18,-95.597 147.59,-95.936 150.113,-102.466"/>
</g>
<!-- Node85 -->
<g id="node11" class="node"><title>Node85</title>
<g id="a_node11"><a xlink:href="class_power.html#ace64df3181f3dfce89b8a1f8608e16eb" target="_top" xlink:title="Power::read_rms_value">
<polygon fill="none" stroke="black" points="137.5,-38.5 137.5,-57.5 256.5,-57.5 256.5,-38.5 137.5,-38.5"/>
<text text-anchor="middle" x="197" y="-45.5" font-family="Helvetica,sans-Serif" font-size="10.00">Power::read_rms_value</text>
</a>
</g>
</g>
<!-- Node75&#45;&gt;Node85 -->
<g id="edge12" class="edge"><title>Node75&#45;&gt;Node85</title>
<path fill="none" stroke="midnightblue" d="M56.0372,-171.473C66.8946,-149.682 96.5119,-95.8694 137,-67 139.716,-65.0633 142.64,-63.317 145.68,-61.7434"/>
<polygon fill="midnightblue" stroke="midnightblue" points="147.38,-64.8168 155.065,-57.5232 144.509,-58.4327 147.38,-64.8168"/>
</g>
<!-- Node87 -->
<g id="node13" class="node"><title>Node87</title>
<g id="a_node13"><a xlink:href="class_power.html#a50a207b74105ff65f34f8f8917eed65f" target="_top" xlink:title="Reads the VCC used during the ADC conversion. ">
<polygon fill="none" stroke="black" points="154,-114.5 154,-133.5 240,-133.5 240,-114.5 154,-114.5"/>
<text text-anchor="middle" x="197" y="-121.5" font-family="Helvetica,sans-Serif" font-size="10.00">Power::readVcc</text>
</a>
</g>
</g>
<!-- Node75&#45;&gt;Node87 -->
<g id="edge14" class="edge"><title>Node75&#45;&gt;Node87</title>
<path fill="none" stroke="midnightblue" d="M71.2876,-171.483C88.4572,-163.401 114.087,-151.753 137,-143 142.603,-140.86 148.562,-138.751 154.458,-136.761"/>
<polygon fill="midnightblue" stroke="midnightblue" points="155.84,-139.991 164.245,-133.541 153.652,-133.342 155.84,-139.991"/>
</g>
<!-- Node88 -->
<g id="node14" class="node"><title>Node88</title>
<g id="a_node14"><a xlink:href="class_power.html#a5ccffd2344ef9aefbcdb780187d38ca3" target="_top" xlink:title="Update saved parameters for sensors in the eeprom. ">
<polygon fill="none" stroke="black" points="141,-0.5 141,-19.5 253,-19.5 253,-0.5 141,-0.5"/>
<text text-anchor="middle" x="197" y="-7.5" font-family="Helvetica,sans-Serif" font-size="10.00">Power::update_param</text>
</a>
</g>
</g>
<!-- Node75&#45;&gt;Node88 -->
<g id="edge16" class="edge"><title>Node75&#45;&gt;Node88</title>
<path fill="none" stroke="midnightblue" d="M54.2465,-171.175C62.2674,-144.285 88.2288,-68.8425 137,-29 139.152,-27.2416 141.471,-25.6446 143.901,-24.1944"/>
<polygon fill="midnightblue" stroke="midnightblue" points="145.734,-27.1898 153.084,-19.5589 142.579,-20.9408 145.734,-27.1898"/>
</g>
<!-- Node81&#45;&gt;Node79 -->
<g id="edge8" class="edge"><title>Node81&#45;&gt;Node79</title>
<path fill="none" stroke="midnightblue" d="M233.706,-171.589C252.617,-176.667 275.996,-182.946 295.963,-188.308"/>
<polygon fill="midnightblue" stroke="midnightblue" points="295.188,-191.724 305.753,-190.937 297.003,-184.963 295.188,-191.724"/>
</g>
<!-- Node82 -->
<g id="node8" class="node"><title>Node82</title>
<g id="a_node8"><a xlink:href="class_usart.html#ab236d7c399791bbe1431f85e9b60f601" target="_top" xlink:title="USART string sender function. ">
<polygon fill="none" stroke="black" points="308,-114.5 308,-133.5 373,-133.5 373,-114.5 308,-114.5"/>
<text text-anchor="middle" x="340.5" y="-121.5" font-family="Helvetica,sans-Serif" font-size="10.00">Usart::print</text>
</a>
</g>
</g>
<!-- Node81&#45;&gt;Node82 -->
<g id="edge7" class="edge"><title>Node81&#45;&gt;Node82</title>
<path fill="none" stroke="midnightblue" d="M233.706,-152.411C253.266,-147.158 277.606,-140.622 298.007,-135.143"/>
<polygon fill="midnightblue" stroke="midnightblue" points="298.917,-138.523 307.667,-132.549 297.102,-131.762 298.917,-138.523"/>
</g>
<!-- Node83&#45;&gt;Node82 -->
<g id="edge10" class="edge"><title>Node83&#45;&gt;Node82</title>
<path fill="none" stroke="midnightblue" d="M233.706,-95.589C253.266,-100.842 277.606,-107.378 298.007,-112.857"/>
<polygon fill="midnightblue" stroke="midnightblue" points="297.102,-116.238 307.667,-115.451 298.917,-109.477 297.102,-116.238"/>
</g>
<!-- Node84 -->
<g id="node10" class="node"><title>Node84</title>
<g id="a_node10"><a xlink:href="class_usart.html#a86c9264f48dabbc3d97fa32d2d02d22d" target="_top" xlink:title="USART char sender function. ">
<polygon fill="none" stroke="black" points="310.5,-76.5 310.5,-95.5 370.5,-95.5 370.5,-76.5 310.5,-76.5"/>
<text text-anchor="middle" x="340.5" y="-83.5" font-family="Helvetica,sans-Serif" font-size="10.00">Usart::set</text>
</a>
</g>
</g>
<!-- Node83&#45;&gt;Node84 -->
<g id="edge11" class="edge"><title>Node83&#45;&gt;Node84</title>
<path fill="none" stroke="midnightblue" d="M257.189,-86C271.65,-86 286.774,-86 300.054,-86"/>
<polygon fill="midnightblue" stroke="midnightblue" points="300.262,-89.5001 310.262,-86 300.262,-82.5001 300.262,-89.5001"/>
</g>
<!-- Node86 -->
<g id="node12" class="node"><title>Node86</title>
<g id="a_node12"><a xlink:href="class_power.html#a1e33445a6a18766a77c5304292efcb4f" target="_top" xlink:title="This method read return int value from the ADC channel. ">
<polygon fill="none" stroke="black" points="293,-38.5 293,-57.5 388,-57.5 388,-38.5 293,-38.5"/>
<text text-anchor="middle" x="340.5" y="-45.5" font-family="Helvetica,sans-Serif" font-size="10.00">Power::adc_value</text>
</a>
</g>
</g>
<!-- Node85&#45;&gt;Node86 -->
<g id="edge13" class="edge"><title>Node85&#45;&gt;Node86</title>
<path fill="none" stroke="midnightblue" d="M256.779,-48C265.309,-48 274.077,-48 282.569,-48"/>
<polygon fill="midnightblue" stroke="midnightblue" points="282.756,-51.5001 292.756,-48 282.755,-44.5001 282.756,-51.5001"/>
</g>
<!-- Node87&#45;&gt;Node82 -->
<g id="edge15" class="edge"><title>Node87&#45;&gt;Node82</title>
<path fill="none" stroke="midnightblue" d="M240.072,-124C258.271,-124 279.518,-124 297.688,-124"/>
<polygon fill="midnightblue" stroke="midnightblue" points="297.705,-127.5 307.705,-124 297.705,-120.5 297.705,-127.5"/>
</g>
</g>
</svg>
