<?xml version="1.0" encoding="UTF-8" standalone="no"?>
<!DOCTYPE svg PUBLIC "-//W3C//DTD SVG 1.1//EN"
 "http://www.w3.org/Graphics/SVG/1.1/DTD/svg11.dtd">
<!-- Generated by graphviz version 2.38.0 (20140413.2041)
 -->
<!-- Title: Sensor::is_enable Pages: 1 -->
<svg width="362pt" height="356pt"
 viewBox="0.00 0.00 362.00 356.00" xmlns="http://www.w3.org/2000/svg" xmlns:xlink="http://www.w3.org/1999/xlink">
<g id="graph0" class="graph" transform="scale(1 1) rotate(0) translate(4 352)">
<title>Sensor::is_enable</title>
<!-- Node42 -->
<g id="node1" class="node"><title>Node42</title>
<polygon fill="#bfbfbf" stroke="black" points="0,-164.5 0,-183.5 95,-183.5 95,-164.5 0,-164.5"/>
<text text-anchor="middle" x="47.5" y="-171.5" font-family="Helvetica,sans-Serif" font-size="10.00">Sensor::is_enable</text>
</g>
<!-- Node43 -->
<g id="node2" class="node"><title>Node43</title>
<g id="a_node2"><a xlink:href="class_sensor.html#ae16fd0cbdda6cfed1deac36f5c7c0a8f" target="_top" xlink:title="This method calculate the average from the data array. ">
<polygon fill="none" stroke="black" points="133,-328.5 133,-347.5 244,-347.5 244,-328.5 133,-328.5"/>
<text text-anchor="middle" x="188.5" y="-335.5" font-family="Helvetica,sans-Serif" font-size="10.00">Sensor::calc_average</text>
</a>
</g>
</g>
<!-- Node42&#45;&gt;Node43 -->
<g id="edge1" class="edge"><title>Node42&#45;&gt;Node43</title>
<path fill="none" stroke="midnightblue" d="M52.8944,-183.637C62.3561,-208.758 87.4041,-274.095 131,-310 139.838,-317.279 151.591,-321.815 162.087,-325.346"/>
<polygon fill="midnightblue" stroke="midnightblue" points="161.037,-328.685 171.63,-328.481 163.221,-322.035 161.037,-328.685"/>
</g>
<!-- Node44 -->
<g id="node3" class="node"><title>Node44</title>
<g id="a_node3"><a xlink:href="class_sensor.html#a4a9eb446ca4c73268ec6d93b959273f9" target="_top" xlink:title="Initialize the eeprom memory. ">
<polygon fill="none" stroke="black" points="144,-279 144,-309 233,-309 233,-279 144,-279"/>
<text text-anchor="start" x="152" y="-297" font-family="Helvetica,sans-Serif" font-size="10.00">Sensor::initialize</text>
<text text-anchor="middle" x="188.5" y="-286" font-family="Helvetica,sans-Serif" font-size="10.00">_param</text>
</a>
</g>
</g>
<!-- Node42&#45;&gt;Node44 -->
<g id="edge3" class="edge"><title>Node42&#45;&gt;Node44</title>
<path fill="none" stroke="midnightblue" d="M54.6748,-183.587C67.1104,-202.249 96.9117,-243.824 131,-269 133.346,-270.733 135.831,-272.379 138.398,-273.938"/>
<polygon fill="midnightblue" stroke="midnightblue" points="136.923,-277.122 147.367,-278.901 140.312,-270.997 136.923,-277.122"/>
</g>
<!-- Node45 -->
<g id="node4" class="node"><title>Node45</title>
<g id="a_node4"><a xlink:href="class_sensor.html#a953410c8a76c3b718349000a11e6160e" target="_top" xlink:title="Load saved parameters for sensors from the eeprom. ">
<polygon fill="none" stroke="black" points="136.5,-240.5 136.5,-259.5 240.5,-259.5 240.5,-240.5 136.5,-240.5"/>
<text text-anchor="middle" x="188.5" y="-247.5" font-family="Helvetica,sans-Serif" font-size="10.00">Sensor::load_param</text>
</a>
</g>
</g>
<!-- Node42&#45;&gt;Node45 -->
<g id="edge4" class="edge"><title>Node42&#45;&gt;Node45</title>
<path fill="none" stroke="midnightblue" d="M62.1095,-183.535C78.1436,-194.54 105.798,-212.814 131,-226 138.104,-229.717 145.913,-233.322 153.398,-236.56"/>
<polygon fill="midnightblue" stroke="midnightblue" points="152.054,-239.792 162.629,-240.446 154.77,-233.34 152.054,-239.792"/>
</g>
<!-- Node46 -->
<g id="node5" class="node"><title>Node46</title>
<g id="a_node5"><a xlink:href="class_sensor.html#a9478b09a17b24105c0fe5b32e988224a" target="_top" xlink:title="Sensor::print">
<polygon fill="none" stroke="black" points="282,-181.5 282,-200.5 354,-200.5 354,-181.5 282,-181.5"/>
<text text-anchor="middle" x="318" y="-188.5" font-family="Helvetica,sans-Serif" font-size="10.00">Sensor::print</text>
</a>
</g>
</g>
<!-- Node42&#45;&gt;Node46 -->
<g id="edge5" class="edge"><title>Node42&#45;&gt;Node46</title>
<path fill="none" stroke="midnightblue" d="M81.9184,-183.507C96.8082,-187.272 114.644,-191.141 131,-193 181.784,-198.772 194.894,-193.72 246,-193 254.328,-192.883 263.203,-192.688 271.758,-192.465"/>
<polygon fill="midnightblue" stroke="midnightblue" points="272.075,-195.958 281.975,-192.182 271.882,-188.96 272.075,-195.958"/>
</g>
<!-- Node47 -->
<g id="node6" class="node"><title>Node47</title>
<g id="a_node6"><a xlink:href="class_sensor.html#a38a47820684e5ff0f61ad32b8afbde45" target="_top" xlink:title="The print_average method print the average&#39;s value in the string. ">
<polygon fill="none" stroke="black" points="132.5,-164.5 132.5,-183.5 244.5,-183.5 244.5,-164.5 132.5,-164.5"/>
<text text-anchor="middle" x="188.5" y="-171.5" font-family="Helvetica,sans-Serif" font-size="10.00">Sensor::print_average</text>
</a>
</g>
</g>
<!-- Node42&#45;&gt;Node47 -->
<g id="edge6" class="edge"><title>Node42&#45;&gt;Node47</title>
<path fill="none" stroke="midnightblue" d="M95.1717,-167.585C103.767,-167.324 112.887,-167.216 121.918,-167.26"/>
<polygon fill="midnightblue" stroke="midnightblue" points="122.005,-170.761 132.044,-167.374 122.084,-163.761 122.005,-170.761"/>
</g>
<!-- Node48 -->
<g id="node7" class="node"><title>Node48</title>
<g id="a_node7"><a xlink:href="class_sensor.html#a0e1288d8b8594192f9d65819c185764f" target="_top" xlink:title="This method print the sensor configuration for the sensor. It&#39;s a good idea to overload this function...">
<polygon fill="none" stroke="black" points="136.5,-126.5 136.5,-145.5 240.5,-145.5 240.5,-126.5 136.5,-126.5"/>
<text text-anchor="middle" x="188.5" y="-133.5" font-family="Helvetica,sans-Serif" font-size="10.00">Sensor::print_config</text>
</a>
</g>
</g>
<!-- Node42&#45;&gt;Node48 -->
<g id="edge8" class="edge"><title>Node42&#45;&gt;Node48</title>
<path fill="none" stroke="midnightblue" d="M83.5756,-164.411C101.519,-159.506 123.558,-153.48 142.717,-148.243"/>
<polygon fill="midnightblue" stroke="midnightblue" points="143.713,-151.599 152.436,-145.586 141.867,-144.847 143.713,-151.599"/>
</g>
<!-- Node50 -->
<g id="node9" class="node"><title>Node50</title>
<g id="a_node9"><a xlink:href="class_sensor.html#aa03d707dfa7562805b77f9040831418b" target="_top" xlink:title="Sensor::print_data\l_array">
<polygon fill="none" stroke="black" points="140.5,-77 140.5,-107 236.5,-107 236.5,-77 140.5,-77"/>
<text text-anchor="start" x="148.5" y="-95" font-family="Helvetica,sans-Serif" font-size="10.00">Sensor::print_data</text>
<text text-anchor="middle" x="188.5" y="-84" font-family="Helvetica,sans-Serif" font-size="10.00">_array</text>
</a>
</g>
</g>
<!-- Node42&#45;&gt;Node50 -->
<g id="edge11" class="edge"><title>Node42&#45;&gt;Node50</title>
<path fill="none" stroke="midnightblue" d="M60.8801,-164.343C76.614,-152.334 104.876,-131.633 131,-117 134.429,-115.079 138.034,-113.196 141.694,-111.38"/>
<polygon fill="midnightblue" stroke="midnightblue" points="143.32,-114.482 150.837,-107.016 140.305,-108.164 143.32,-114.482"/>
</g>
<!-- Node52 -->
<g id="node11" class="node"><title>Node52</title>
<g id="a_node11"><a xlink:href="class_sensor.html#a59e815290b2883cea096c8bc613429c0" target="_top" xlink:title="Sensor::read_value">
<polygon fill="none" stroke="black" points="138,-38.5 138,-57.5 239,-57.5 239,-38.5 138,-38.5"/>
<text text-anchor="middle" x="188.5" y="-45.5" font-family="Helvetica,sans-Serif" font-size="10.00">Sensor::read_value</text>
</a>
</g>
</g>
<!-- Node42&#45;&gt;Node52 -->
<g id="edge14" class="edge"><title>Node42&#45;&gt;Node52</title>
<path fill="none" stroke="midnightblue" d="M53.5185,-164.302C64.6788,-143.648 93.5506,-95.009 131,-68 134.231,-65.6699 137.759,-63.5895 141.423,-61.7362"/>
<polygon fill="midnightblue" stroke="midnightblue" points="143.016,-64.858 150.719,-57.5841 140.161,-58.4666 143.016,-64.858"/>
</g>
<!-- Node53 -->
<g id="node12" class="node"><title>Node53</title>
<g id="a_node12"><a xlink:href="class_sensor.html#abf05dcc164ceadf01fa48c32fbaf040a" target="_top" xlink:title="Update saved parameters for sensors in the eeprom. ">
<polygon fill="none" stroke="black" points="131,-0.5 131,-19.5 246,-19.5 246,-0.5 131,-0.5"/>
<text text-anchor="middle" x="188.5" y="-7.5" font-family="Helvetica,sans-Serif" font-size="10.00">Sensor::update_param</text>
</a>
</g>
</g>
<!-- Node42&#45;&gt;Node53 -->
<g id="edge15" class="edge"><title>Node42&#45;&gt;Node53</title>
<path fill="none" stroke="midnightblue" d="M51.324,-164.286C59.3435,-138.395 84.7213,-67.1143 131,-29 133.136,-27.2411 135.441,-25.6424 137.858,-24.1896"/>
<polygon fill="midnightblue" stroke="midnightblue" points="139.668,-27.1961 146.993,-19.5417 136.493,-20.9573 139.668,-27.1961"/>
</g>
<!-- Node43&#45;&gt;Node42 -->
<g id="edge2" class="edge"><title>Node43&#45;&gt;Node42</title>
<path fill="none" stroke="midnightblue" d="M132.961,-329.536C132.293,-329.038 131.639,-328.526 131,-328 87.4129,-292.102 62.3661,-226.784 52.9001,-193.701"/>
<polygon fill="midnightblue" stroke="midnightblue" points="56.2238,-192.579 50.2829,-183.807 49.4565,-194.369 56.2238,-192.579"/>
</g>
<!-- Node47&#45;&gt;Node42 -->
<g id="edge7" class="edge"><title>Node47&#45;&gt;Node42</title>
<path fill="none" stroke="midnightblue" d="M132.044,-180.626C123.262,-180.783 114.167,-180.791 105.354,-180.65"/>
<polygon fill="midnightblue" stroke="midnightblue" points="105.25,-177.146 95.1717,-180.415 105.088,-184.145 105.25,-177.146"/>
</g>
<!-- Node48&#45;&gt;Node46 -->
<g id="edge10" class="edge"><title>Node48&#45;&gt;Node46</title>
<path fill="none" stroke="midnightblue" d="M220.59,-145.556C228.933,-148.363 237.887,-151.6 246,-155 261.18,-161.361 277.602,-169.595 290.825,-176.583"/>
<polygon fill="midnightblue" stroke="midnightblue" points="289.358,-179.767 299.825,-181.405 292.664,-173.597 289.358,-179.767"/>
</g>
<!-- Node49 -->
<g id="node8" class="node"><title>Node49</title>
<g id="a_node8"><a xlink:href="class_usart.html#ab236d7c399791bbe1431f85e9b60f601" target="_top" xlink:title="USART string sender function. ">
<polygon fill="none" stroke="black" points="285.5,-123.5 285.5,-142.5 350.5,-142.5 350.5,-123.5 285.5,-123.5"/>
<text text-anchor="middle" x="318" y="-130.5" font-family="Helvetica,sans-Serif" font-size="10.00">Usart::print</text>
</a>
</g>
</g>
<!-- Node48&#45;&gt;Node49 -->
<g id="edge9" class="edge"><title>Node48&#45;&gt;Node49</title>
<path fill="none" stroke="midnightblue" d="M240.624,-134.797C252.07,-134.528 264.081,-134.245 275.101,-133.986"/>
<polygon fill="midnightblue" stroke="midnightblue" points="275.397,-137.48 285.312,-133.746 275.232,-130.482 275.397,-137.48"/>
</g>
<!-- Node50&#45;&gt;Node49 -->
<g id="edge12" class="edge"><title>Node50&#45;&gt;Node49</title>
<path fill="none" stroke="midnightblue" d="M236.252,-107.034C249.845,-111.405 264.549,-116.133 277.638,-120.343"/>
<polygon fill="midnightblue" stroke="midnightblue" points="276.697,-123.716 287.288,-123.446 278.839,-117.052 276.697,-123.716"/>
</g>
<!-- Node51 -->
<g id="node10" class="node"><title>Node51</title>
<g id="a_node10"><a xlink:href="class_usart.html#a86c9264f48dabbc3d97fa32d2d02d22d" target="_top" xlink:title="USART char sender function. ">
<polygon fill="none" stroke="black" points="288,-82.5 288,-101.5 348,-101.5 348,-82.5 288,-82.5"/>
<text text-anchor="middle" x="318" y="-89.5" font-family="Helvetica,sans-Serif" font-size="10.00">Usart::set</text>
</a>
</g>
</g>
<!-- Node50&#45;&gt;Node51 -->
<g id="edge13" class="edge"><title>Node50&#45;&gt;Node51</title>
<path fill="none" stroke="midnightblue" d="M236.614,-92C250.16,-92 264.783,-92 277.796,-92"/>
<polygon fill="midnightblue" stroke="midnightblue" points="277.835,-95.5001 287.835,-92 277.835,-88.5001 277.835,-95.5001"/>
</g>
</g>
</svg>
