<?xml version="1.0" encoding="UTF-8" standalone="no"?>
<!DOCTYPE svg PUBLIC "-//W3C//DTD SVG 1.1//EN"
 "http://www.w3.org/Graphics/SVG/1.1/DTD/svg11.dtd">
<!-- Generated by graphviz version 2.38.0 (20140413.2041)
 -->
<!-- Title: Power::print_data_array Pages: 1 -->
<svg width="229pt" height="66pt"
 viewBox="0.00 0.00 229.00 66.00" xmlns="http://www.w3.org/2000/svg" xmlns:xlink="http://www.w3.org/1999/xlink">
<g id="graph0" class="graph" transform="scale(1 1) rotate(0) translate(4 62)">
<title>Power::print_data_array</title>
<!-- Node53 -->
<g id="node1" class="node"><title>Node53</title>
<polygon fill="#bfbfbf" stroke="black" points="0,-19.5 0,-38.5 120,-38.5 120,-19.5 0,-19.5"/>
<text text-anchor="middle" x="60" y="-26.5" font-family="Helvetica,sans-Serif" font-size="10.00">Power::print_data_array</text>
</g>
<!-- Node54 -->
<g id="node2" class="node"><title>Node54</title>
<g id="a_node2"><a xlink:href="class_usart.html#ab236d7c399791bbe1431f85e9b60f601" target="_top" xlink:title="USART string sender function. ">
<polygon fill="none" stroke="black" points="156,-38.5 156,-57.5 221,-57.5 221,-38.5 156,-38.5"/>
<text text-anchor="middle" x="188.5" y="-45.5" font-family="Helvetica,sans-Serif" font-size="10.00">Usart::print</text>
</a>
</g>
</g>
<!-- Node53&#45;&gt;Node54 -->
<g id="edge1" class="edge"><title>Node53&#45;&gt;Node54</title>
<path fill="none" stroke="midnightblue" d="M120.176,-37.8881C128.857,-39.1919 137.64,-40.5112 145.869,-41.7471"/>
<polygon fill="midnightblue" stroke="midnightblue" points="145.537,-45.2364 155.946,-43.2606 146.577,-38.314 145.537,-45.2364"/>
</g>
<!-- Node55 -->
<g id="node3" class="node"><title>Node55</title>
<g id="a_node3"><a xlink:href="class_usart.html#a86c9264f48dabbc3d97fa32d2d02d22d" target="_top" xlink:title="USART char sender function. ">
<polygon fill="none" stroke="black" points="158.5,-0.5 158.5,-19.5 218.5,-19.5 218.5,-0.5 158.5,-0.5"/>
<text text-anchor="middle" x="188.5" y="-7.5" font-family="Helvetica,sans-Serif" font-size="10.00">Usart::set</text>
</a>
</g>
</g>
<!-- Node53&#45;&gt;Node55 -->
<g id="edge2" class="edge"><title>Node53&#45;&gt;Node55</title>
<path fill="none" stroke="midnightblue" d="M120.176,-20.1119C129.697,-18.6819 139.341,-17.2334 148.241,-15.8965"/>
<polygon fill="midnightblue" stroke="midnightblue" points="148.927,-19.333 158.296,-14.3864 147.887,-12.4106 148.927,-19.333"/>
</g>
</g>
</svg>
