<?xml version="1.0" encoding="UTF-8" standalone="no"?>
<!DOCTYPE svg PUBLIC "-//W3C//DTD SVG 1.1//EN"
 "http://www.w3.org/Graphics/SVG/1.1/DTD/svg11.dtd">
<!-- Generated by graphviz version 2.38.0 (20140413.2041)
 -->
<!-- Title: Usart::print Pages: 1 -->
<svg width="741pt" height="604pt"
 viewBox="0.00 0.00 741.00 604.25" xmlns="http://www.w3.org/2000/svg" xmlns:xlink="http://www.w3.org/1999/xlink">
<g id="graph0" class="graph" transform="scale(1 1) rotate(0) translate(4 600.252)">
<title>Usart::print</title>
<!-- Node3 -->
<g id="node1" class="node"><title>Node3</title>
<polygon fill="#bfbfbf" stroke="black" points="0,-285.5 0,-304.5 65,-304.5 65,-285.5 0,-285.5"/>
<text text-anchor="middle" x="32.5" y="-292.5" font-family="Helvetica,sans-Serif" font-size="10.00">Usart::print</text>
</g>
<!-- Node4 -->
<g id="node2" class="node"><title>Node4</title>
<g id="a_node2"><a xlink:href="class_f_s_m.html#a3819be8e9fe92b750f47b9731e92f254" target="_top" xlink:title="Call when a string from usart0 finish by &quot;\r\n&quot;. ">
<polygon fill="none" stroke="black" points="522,-544.5 522,-563.5 659,-563.5 659,-544.5 522,-544.5"/>
<text text-anchor="middle" x="590.5" y="-551.5" font-family="Helvetica,sans-Serif" font-size="10.00">FSM::character_processing</text>
</a>
</g>
</g>
<!-- Node3&#45;&gt;Node4 -->
<g id="edge1" class="edge"><title>Node3&#45;&gt;Node4</title>
<path fill="none" stroke="midnightblue" d="M32.6766,-314.817C32.022,-359.49 37.3999,-468.112 101,-519 164.154,-569.531 403.235,-564.287 521.879,-558.259"/>
<polygon fill="midnightblue" stroke="midnightblue" points="36.1789,-314.776 32.9503,-304.685 29.1815,-314.587 36.1789,-314.776"/>
</g>
<!-- Node5 -->
<g id="node3" class="node"><title>Node5</title>
<g id="a_node3"><a xlink:href="main_8cpp.html#ae66f6b31b5ad750f1fe042a706a4e3d4" target="_top" xlink:title="main">
<polygon fill="none" stroke="black" points="695,-563.5 695,-582.5 733,-582.5 733,-563.5 695,-563.5"/>
<text text-anchor="middle" x="714" y="-570.5" font-family="Helvetica,sans-Serif" font-size="10.00">main</text>
</a>
</g>
</g>
<!-- Node3&#45;&gt;Node5 -->
<g id="edge8" class="edge"><title>Node3&#45;&gt;Node5</title>
<path fill="none" stroke="midnightblue" d="M36.0077,-314.571C43.3096,-368.46 66.264,-517.195 101,-550 168.774,-614.007 213.279,-592 306.5,-592 306.5,-592 306.5,-592 441,-592 536.858,-592 651.258,-580.112 694.887,-575.143"/>
<polygon fill="midnightblue" stroke="midnightblue" points="39.4683,-314.042 34.6885,-304.587 32.5287,-314.959 39.4683,-314.042"/>
</g>
<!-- Node6 -->
<g id="node4" class="node"><title>Node6</title>
<g id="a_node4"><a xlink:href="class_config.html#a975933ecde91dc436d4ca39464cfd25f" target="_top" xlink:title="display all config on USART0 ">
<polygon fill="none" stroke="black" points="266.5,-449.5 266.5,-468.5 348.5,-468.5 348.5,-449.5 266.5,-449.5"/>
<text text-anchor="middle" x="307.5" y="-456.5" font-family="Helvetica,sans-Serif" font-size="10.00">Config::display</text>
</a>
</g>
</g>
<!-- Node3&#45;&gt;Node6 -->
<g id="edge3" class="edge"><title>Node3&#45;&gt;Node6</title>
<path fill="none" stroke="midnightblue" d="M33.1772,-314.909C33.713,-356.914 41.6339,-454.245 101,-497 160.913,-540.149 255.429,-490.686 291.676,-468.583"/>
<polygon fill="midnightblue" stroke="midnightblue" points="36.6771,-314.837 33.1821,-304.835 29.6771,-314.833 36.6771,-314.837"/>
</g>
<!-- Node8 -->
<g id="node6" class="node"><title>Node8</title>
<g id="a_node6"><a xlink:href="class_config.html#a2a806f322b0d533aabdb8e796d3b1033" target="_top" xlink:title="The execute method is the config &quot;main function&quot; In this method, sentence from the uart are process e...">
<polygon fill="none" stroke="black" points="397,-364.5 397,-383.5 483,-383.5 483,-364.5 397,-364.5"/>
<text text-anchor="middle" x="440" y="-371.5" font-family="Helvetica,sans-Serif" font-size="10.00">Config::execute</text>
</a>
</g>
</g>
<!-- Node3&#45;&gt;Node8 -->
<g id="edge7" class="edge"><title>Node3&#45;&gt;Node8</title>
<path fill="none" stroke="midnightblue" d="M55.24,-310.144C67.9942,-318.266 84.7524,-327.675 101,-333 203.511,-366.599 331.64,-373.13 396.764,-374.11"/>
<polygon fill="midnightblue" stroke="midnightblue" points="57.0013,-307.113 46.7252,-304.533 53.1499,-312.958 57.0013,-307.113"/>
</g>
<!-- Node9 -->
<g id="node7" class="node"><title>Node9</title>
<g id="a_node7"><a xlink:href="class_sleep.html#ab127101acfaaddb3df04799fe6b498f4" target="_top" xlink:title="Sleep::print">
<polygon fill="none" stroke="black" points="128,-190.5 128,-209.5 194,-209.5 194,-190.5 128,-190.5"/>
<text text-anchor="middle" x="161" y="-197.5" font-family="Helvetica,sans-Serif" font-size="10.00">Sleep::print</text>
</a>
</g>
</g>
<!-- Node3&#45;&gt;Node9 -->
<g id="edge9" class="edge"><title>Node3&#45;&gt;Node9</title>
<path fill="none" stroke="midnightblue" d="M45.3857,-276.741C57.4648,-259.544 77.68,-234.214 101,-219 109.111,-213.708 118.812,-209.789 127.981,-206.931"/>
<polygon fill="midnightblue" stroke="midnightblue" points="42.267,-275.103 39.5441,-285.342 48.0578,-279.036 42.267,-275.103"/>
</g>
<!-- Node10 -->
<g id="node8" class="node"><title>Node10</title>
<g id="a_node8"><a xlink:href="class_output.html#a0391d9c2b71e45617b6c0ebc57a4266e" target="_top" xlink:title="Output::print">
<polygon fill="none" stroke="black" points="125.5,-152.5 125.5,-171.5 196.5,-171.5 196.5,-152.5 125.5,-152.5"/>
<text text-anchor="middle" x="161" y="-159.5" font-family="Helvetica,sans-Serif" font-size="10.00">Output::print</text>
</a>
</g>
</g>
<!-- Node3&#45;&gt;Node10 -->
<g id="edge10" class="edge"><title>Node3&#45;&gt;Node10</title>
<path fill="none" stroke="midnightblue" d="M39.9083,-275.906C49.3538,-250.608 69.3898,-206.243 101,-181 108.063,-175.359 116.844,-171.375 125.454,-168.567"/>
<polygon fill="midnightblue" stroke="midnightblue" points="36.5603,-274.875 36.5057,-285.47 43.1553,-277.222 36.5603,-274.875"/>
</g>
<!-- Node11 -->
<g id="node9" class="node"><title>Node11</title>
<g id="a_node9"><a xlink:href="class_idle.html#af692a8455bc2252cab72c7c4008f3a07" target="_top" xlink:title="Idle::print">
<polygon fill="none" stroke="black" points="132.5,-114.5 132.5,-133.5 189.5,-133.5 189.5,-114.5 132.5,-114.5"/>
<text text-anchor="middle" x="161" y="-121.5" font-family="Helvetica,sans-Serif" font-size="10.00">Idle::print</text>
</a>
</g>
</g>
<!-- Node3&#45;&gt;Node11 -->
<g id="edge11" class="edge"><title>Node3&#45;&gt;Node11</title>
<path fill="none" stroke="midnightblue" d="M36.915,-275.207C43.5129,-242.917 61.046,-178.915 101,-143 109.643,-135.231 121.494,-130.635 132.309,-127.918"/>
<polygon fill="midnightblue" stroke="midnightblue" points="33.4431,-274.73 35.0185,-285.207 40.3205,-276.034 33.4431,-274.73"/>
</g>
<!-- Node12 -->
<g id="node10" class="node"><title>Node12</title>
<g id="a_node10"><a xlink:href="class_measure.html#aefee38ede6aa57eba025010be261df46" target="_top" xlink:title="Measure::print">
<polygon fill="none" stroke="black" points="121.5,-76.5 121.5,-95.5 200.5,-95.5 200.5,-76.5 121.5,-76.5"/>
<text text-anchor="middle" x="161" y="-83.5" font-family="Helvetica,sans-Serif" font-size="10.00">Measure::print</text>
</a>
</g>
</g>
<!-- Node3&#45;&gt;Node12 -->
<g id="edge12" class="edge"><title>Node3&#45;&gt;Node12</title>
<path fill="none" stroke="midnightblue" d="M34.9418,-274.711C38.7691,-236.179 52.5123,-152.063 101,-105 106.637,-99.5287 113.857,-95.6327 121.298,-92.8586"/>
<polygon fill="midnightblue" stroke="midnightblue" points="31.4169,-274.851 34.0449,-285.115 38.391,-275.452 31.4169,-274.851"/>
</g>
<!-- Node13 -->
<g id="node11" class="node"><title>Node13</title>
<g id="a_node11"><a xlink:href="class_config.html#a145fb48e8056b0f8f5ce92d6184e73f9" target="_top" xlink:title="Config::print">
<polygon fill="none" stroke="black" points="126,-38.5 126,-57.5 196,-57.5 196,-38.5 126,-38.5"/>
<text text-anchor="middle" x="161" y="-45.5" font-family="Helvetica,sans-Serif" font-size="10.00">Config::print</text>
</a>
</g>
</g>
<!-- Node3&#45;&gt;Node13 -->
<g id="edge13" class="edge"><title>Node3&#45;&gt;Node13</title>
<path fill="none" stroke="midnightblue" d="M33.5091,-274.997C34.6351,-231.155 43.5463,-125.833 101,-67 107.691,-60.148 116.861,-55.7638 125.977,-52.9597"/>
<polygon fill="midnightblue" stroke="midnightblue" points="30.0067,-275.151 33.3647,-285.2 37.006,-275.25 30.0067,-275.151"/>
</g>
<!-- Node14 -->
<g id="node12" class="node"><title>Node14</title>
<g id="a_node12"><a xlink:href="class_sensor.html#aa14d1a074d1079cff037fd01ed74897c" target="_top" xlink:title="This method print the sensor configuration for the sensor. It&#39;s a good idea to overload this function...">
<polygon fill="none" stroke="black" points="109,-430.5 109,-449.5 213,-449.5 213,-430.5 109,-430.5"/>
<text text-anchor="middle" x="161" y="-437.5" font-family="Helvetica,sans-Serif" font-size="10.00">Sensor::print_config</text>
</a>
</g>
</g>
<!-- Node3&#45;&gt;Node14 -->
<g id="edge14" class="edge"><title>Node3&#45;&gt;Node14</title>
<path fill="none" stroke="midnightblue" d="M38.8584,-314.519C47.4337,-342.161 66.8497,-392.511 101,-421 105.627,-424.86 111.054,-427.941 116.708,-430.398"/>
<polygon fill="midnightblue" stroke="midnightblue" points="42.1845,-313.424 36.0074,-304.816 35.4684,-315.397 42.1845,-313.424"/>
</g>
<!-- Node16 -->
<g id="node14" class="node"><title>Node16</title>
<g id="a_node14"><a xlink:href="class_r_t_c.html#a59f014e14e774bf372dcf0d5d64e6717" target="_top" xlink:title="RTC::print_config">
<polygon fill="none" stroke="black" points="114,-468.5 114,-487.5 208,-487.5 208,-468.5 114,-468.5"/>
<text text-anchor="middle" x="161" y="-475.5" font-family="Helvetica,sans-Serif" font-size="10.00">RTC::print_config</text>
</a>
</g>
</g>
<!-- Node3&#45;&gt;Node16 -->
<g id="edge18" class="edge"><title>Node3&#45;&gt;Node16</title>
<path fill="none" stroke="midnightblue" d="M36.1976,-314.884C41.8943,-349.183 58.3351,-419.575 101,-459 105.189,-462.871 110.172,-465.953 115.441,-468.408"/>
<polygon fill="midnightblue" stroke="midnightblue" points="39.6177,-314.093 34.6552,-304.732 32.6972,-315.144 39.6177,-314.093"/>
</g>
<!-- Node17 -->
<g id="node15" class="node"><title>Node17</title>
<g id="a_node15"><a xlink:href="class_power.html#afd1c8cab1d4549eb45be61bdd34ae97d" target="_top" xlink:title="This method print the configuration for the power measurement. It&#39;s a good idea to overload this func...">
<polygon fill="none" stroke="black" points="110.5,-304.5 110.5,-323.5 211.5,-323.5 211.5,-304.5 110.5,-304.5"/>
<text text-anchor="middle" x="161" y="-311.5" font-family="Helvetica,sans-Serif" font-size="10.00">Power::print_config</text>
</a>
</g>
</g>
<!-- Node3&#45;&gt;Node17 -->
<g id="edge20" class="edge"><title>Node3&#45;&gt;Node17</title>
<path fill="none" stroke="midnightblue" d="M75.0521,-301.241C86.2632,-302.925 98.5091,-304.764 110.124,-306.509"/>
<polygon fill="midnightblue" stroke="midnightblue" points="75.5039,-297.77 65.095,-299.745 74.4642,-304.692 75.5039,-297.77"/>
</g>
<!-- Node19 -->
<g id="node17" class="node"><title>Node19</title>
<g id="a_node17"><a xlink:href="class_sensor.html#aa03d707dfa7562805b77f9040831418b" target="_top" xlink:title="Sensor::print_data\l_array">
<polygon fill="none" stroke="black" points="113,-381 113,-411 209,-411 209,-381 113,-381"/>
<text text-anchor="start" x="121" y="-399" font-family="Helvetica,sans-Serif" font-size="10.00">Sensor::print_data</text>
<text text-anchor="middle" x="161" y="-388" font-family="Helvetica,sans-Serif" font-size="10.00">_array</text>
</a>
</g>
</g>
<!-- Node3&#45;&gt;Node19 -->
<g id="edge24" class="edge"><title>Node3&#45;&gt;Node19</title>
<path fill="none" stroke="midnightblue" d="M47.5711,-312.94C60.3256,-328.376 80.2533,-350.536 101,-366 108.463,-371.563 117.11,-376.608 125.444,-380.908"/>
<polygon fill="midnightblue" stroke="midnightblue" points="49.9453,-310.31 40.9383,-304.731 44.5003,-314.709 49.9453,-310.31"/>
</g>
<!-- Node20 -->
<g id="node18" class="node"><title>Node20</title>
<g id="a_node18"><a xlink:href="class_power.html#acd77541eabe8feb58e0b73154268cdd2" target="_top" xlink:title="Power::print_data_array">
<polygon fill="none" stroke="black" points="101,-228.5 101,-247.5 221,-247.5 221,-228.5 101,-228.5"/>
<text text-anchor="middle" x="161" y="-235.5" font-family="Helvetica,sans-Serif" font-size="10.00">Power::print_data_array</text>
</a>
</g>
</g>
<!-- Node3&#45;&gt;Node20 -->
<g id="edge26" class="edge"><title>Node3&#45;&gt;Node20</title>
<path fill="none" stroke="midnightblue" d="M56.9177,-280.274C69.6386,-272.674 85.8294,-263.632 101,-257 109.085,-253.465 118.044,-250.246 126.488,-247.502"/>
<polygon fill="midnightblue" stroke="midnightblue" points="55.0558,-277.31 48.3324,-285.498 58.6945,-283.29 55.0558,-277.31"/>
</g>
<!-- Node21 -->
<g id="node19" class="node"><title>Node21</title>
<g id="a_node19"><a xlink:href="class_power.html#a50a207b74105ff65f34f8f8917eed65f" target="_top" xlink:title="Reads the VCC used during the ADC conversion. ">
<polygon fill="none" stroke="black" points="118,-266.5 118,-285.5 204,-285.5 204,-266.5 118,-266.5"/>
<text text-anchor="middle" x="161" y="-273.5" font-family="Helvetica,sans-Serif" font-size="10.00">Power::readVcc</text>
</a>
</g>
</g>
<!-- Node3&#45;&gt;Node21 -->
<g id="edge28" class="edge"><title>Node3&#45;&gt;Node21</title>
<path fill="none" stroke="midnightblue" d="M75.2146,-288.735C88.9028,-286.679 104.119,-284.393 117.84,-282.332"/>
<polygon fill="midnightblue" stroke="midnightblue" points="74.4642,-285.308 65.095,-290.255 75.5039,-292.23 74.4642,-285.308"/>
</g>
<!-- Node22 -->
<g id="node20" class="node"><title>Node22</title>
<g id="a_node20"><a xlink:href="class_output.html#af4bc42d2d3bb3b2a98782f0df0eba133" target="_top" xlink:title="Output::usart0_print">
<polygon fill="none" stroke="black" points="109.5,-0.5 109.5,-19.5 212.5,-19.5 212.5,-0.5 109.5,-0.5"/>
<text text-anchor="middle" x="161" y="-7.5" font-family="Helvetica,sans-Serif" font-size="10.00">Output::usart0_print</text>
</a>
</g>
</g>
<!-- Node3&#45;&gt;Node22 -->
<g id="edge30" class="edge"><title>Node3&#45;&gt;Node22</title>
<path fill="none" stroke="midnightblue" d="M36.0308,-275.164C43.4687,-219.807 66.9009,-65.3192 101,-29 104.609,-25.1558 108.998,-22.0872 113.736,-19.638"/>
<polygon fill="midnightblue" stroke="midnightblue" points="32.5193,-275.023 34.6883,-285.394 39.4598,-275.934 32.5193,-275.023"/>
</g>
<!-- Node4&#45;&gt;Node5 -->
<g id="edge2" class="edge"><title>Node4&#45;&gt;Node5</title>
<path fill="none" stroke="midnightblue" d="M662.72,-565.137C674.655,-567.004 686.033,-568.783 694.938,-570.176"/>
<polygon fill="midnightblue" stroke="midnightblue" points="663.027,-561.643 652.606,-563.556 661.945,-568.559 663.027,-561.643"/>
</g>
<!-- Node7 -->
<g id="node5" class="node"><title>Node7</title>
<g id="a_node5"><a xlink:href="class_config.html#a5ae6c4f7255e895e7384fc2a4baab160" target="_top" xlink:title="Config::endString">
<polygon fill="none" stroke="black" points="394,-478.5 394,-497.5 486,-497.5 486,-478.5 394,-478.5"/>
<text text-anchor="middle" x="440" y="-485.5" font-family="Helvetica,sans-Serif" font-size="10.00">Config::endString</text>
</a>
</g>
</g>
<!-- Node6&#45;&gt;Node7 -->
<g id="edge4" class="edge"><title>Node6&#45;&gt;Node7</title>
<path fill="none" stroke="midnightblue" d="M358.805,-470.179C371.07,-472.904 384.079,-475.795 395.97,-478.438"/>
<polygon fill="midnightblue" stroke="midnightblue" points="359.24,-466.69 348.719,-467.938 357.722,-473.524 359.24,-466.69"/>
</g>
<!-- Node6&#45;&gt;Node8 -->
<g id="edge6" class="edge"><title>Node6&#45;&gt;Node8</title>
<path fill="none" stroke="midnightblue" d="M331.942,-443.731C358.689,-426.31 401.628,-398.342 424.137,-383.681"/>
<polygon fill="midnightblue" stroke="midnightblue" points="329.685,-441.024 323.216,-449.415 333.506,-446.89 329.685,-441.024"/>
</g>
<!-- Node7&#45;&gt;Node4 -->
<g id="edge5" class="edge"><title>Node7&#45;&gt;Node4</title>
<path fill="none" stroke="midnightblue" d="M471.772,-501.676C500.479,-514.435 542.574,-533.144 567.881,-544.391"/>
<polygon fill="midnightblue" stroke="midnightblue" points="473.153,-498.46 462.593,-497.597 470.31,-504.857 473.153,-498.46"/>
</g>
<!-- Node14&#45;&gt;Node6 -->
<g id="edge15" class="edge"><title>Node14&#45;&gt;Node6</title>
<path fill="none" stroke="midnightblue" d="M223.273,-448.057C237.786,-449.965 252.903,-451.953 266.21,-453.702"/>
<polygon fill="midnightblue" stroke="midnightblue" points="223.723,-444.586 213.352,-446.752 222.811,-451.526 223.723,-444.586"/>
</g>
<!-- Node15 -->
<g id="node13" class="node"><title>Node15</title>
<g id="a_node13"><a xlink:href="class_sensor.html#ad713fef719161b27e6b93a0d3a371e0c" target="_top" xlink:title="Sensor::set_offset">
<polygon fill="none" stroke="black" points="259,-386.5 259,-405.5 356,-405.5 356,-386.5 259,-386.5"/>
<text text-anchor="middle" x="307.5" y="-393.5" font-family="Helvetica,sans-Serif" font-size="10.00">Sensor::set_offset</text>
</a>
</g>
</g>
<!-- Node14&#45;&gt;Node15 -->
<g id="edge16" class="edge"><title>Node14&#45;&gt;Node15</title>
<path fill="none" stroke="midnightblue" d="M203.145,-427.472C226.049,-420.497 254.107,-411.954 275.207,-405.529"/>
<polygon fill="midnightblue" stroke="midnightblue" points="201.901,-424.191 193.354,-430.453 203.94,-430.888 201.901,-424.191"/>
</g>
<!-- Node15&#45;&gt;Node8 -->
<g id="edge17" class="edge"><title>Node15&#45;&gt;Node8</title>
<path fill="none" stroke="midnightblue" d="M366.438,-386.233C376.641,-384.513 387.086,-382.752 396.757,-381.121"/>
<polygon fill="midnightblue" stroke="midnightblue" points="365.631,-382.819 356.352,-387.933 366.795,-389.722 365.631,-382.819"/>
</g>
<!-- Node16&#45;&gt;Node6 -->
<g id="edge19" class="edge"><title>Node16&#45;&gt;Node6</title>
<path fill="none" stroke="midnightblue" d="M218.406,-470.583C234.352,-468.487 251.381,-466.247 266.175,-464.302"/>
<polygon fill="midnightblue" stroke="midnightblue" points="217.576,-467.162 208.118,-471.936 218.489,-474.102 217.576,-467.162"/>
</g>
<!-- Node17&#45;&gt;Node6 -->
<g id="edge21" class="edge"><title>Node17&#45;&gt;Node6</title>
<path fill="none" stroke="midnightblue" d="M179.872,-330.698C191.81,-342.061 207.7,-357.594 221,-372 237.907,-390.314 239.639,-397.117 257,-415 269.174,-427.54 284.342,-440.7 294.657,-449.324"/>
<polygon fill="midnightblue" stroke="midnightblue" points="181.992,-327.887 172.319,-323.563 177.185,-332.975 181.992,-327.887"/>
</g>
<!-- Node18 -->
<g id="node16" class="node"><title>Node18</title>
<g id="a_node16"><a xlink:href="class_power.html#a1e7595ee0b3b0439d979ffeab785d0d8" target="_top" xlink:title="Power::set_i_offset">
<polygon fill="none" stroke="black" points="257,-285.5 257,-304.5 358,-304.5 358,-285.5 257,-285.5"/>
<text text-anchor="middle" x="307.5" y="-292.5" font-family="Helvetica,sans-Serif" font-size="10.00">Power::set_i_offset</text>
</a>
</g>
</g>
<!-- Node17&#45;&gt;Node18 -->
<g id="edge22" class="edge"><title>Node17&#45;&gt;Node18</title>
<path fill="none" stroke="midnightblue" d="M221.782,-306.139C233.388,-304.613 245.436,-303.029 256.68,-301.551"/>
<polygon fill="midnightblue" stroke="midnightblue" points="221.187,-302.687 211.729,-307.461 222.1,-309.628 221.187,-302.687"/>
</g>
<!-- Node18&#45;&gt;Node8 -->
<g id="edge23" class="edge"><title>Node18&#45;&gt;Node8</title>
<path fill="none" stroke="midnightblue" d="M332.912,-309.778C359.347,-325.781 400.734,-350.835 423.203,-364.437"/>
<polygon fill="midnightblue" stroke="midnightblue" points="334.609,-306.714 324.241,-304.529 330.983,-312.702 334.609,-306.714"/>
</g>
<!-- Node19&#45;&gt;Node15 -->
<g id="edge25" class="edge"><title>Node19&#45;&gt;Node15</title>
<path fill="none" stroke="midnightblue" d="M219.524,-396C232.472,-396 246.079,-396 258.584,-396"/>
<polygon fill="midnightblue" stroke="midnightblue" points="219.315,-392.5 209.315,-396 219.315,-399.5 219.315,-392.5"/>
</g>
<!-- Node20&#45;&gt;Node18 -->
<g id="edge27" class="edge"><title>Node20&#45;&gt;Node18</title>
<path fill="none" stroke="midnightblue" d="M203.542,-250.761C209.438,-252.751 215.397,-254.86 221,-257 243.913,-265.753 269.543,-277.401 286.712,-285.483"/>
<polygon fill="midnightblue" stroke="midnightblue" points="204.348,-247.342 193.755,-247.541 202.16,-253.991 204.348,-247.342"/>
</g>
<!-- Node21&#45;&gt;Node18 -->
<g id="edge29" class="edge"><title>Node21&#45;&gt;Node18</title>
<path fill="none" stroke="midnightblue" d="M214.106,-282.851C228.043,-284.684 243.066,-286.659 256.865,-288.474"/>
<polygon fill="midnightblue" stroke="midnightblue" points="214.555,-279.38 204.184,-281.547 213.642,-286.321 214.555,-279.38"/>
</g>
<!-- Node23 -->
<g id="node21" class="node"><title>Node23</title>
<g id="a_node21"><a xlink:href="class_output.html#a087f4330e641bb4682ab2862bca7a1af" target="_top" xlink:title="Output::execute">
<polygon fill="none" stroke="black" points="264.5,-0.5 264.5,-19.5 350.5,-19.5 350.5,-0.5 264.5,-0.5"/>
<text text-anchor="middle" x="307.5" y="-7.5" font-family="Helvetica,sans-Serif" font-size="10.00">Output::execute</text>
</a>
</g>
</g>
<!-- Node22&#45;&gt;Node23 -->
<g id="edge31" class="edge"><title>Node22&#45;&gt;Node23</title>
<path fill="none" stroke="midnightblue" d="M222.627,-10C236.671,-10 251.316,-10 264.365,-10"/>
<polygon fill="midnightblue" stroke="midnightblue" points="222.539,-6.5001 212.539,-10 222.539,-13.5001 222.539,-6.5001"/>
</g>
</g>
</svg>
