<?xml version="1.0" encoding="UTF-8" standalone="no"?>
<!DOCTYPE svg PUBLIC "-//W3C//DTD SVG 1.1//EN"
 "http://www.w3.org/Graphics/SVG/1.1/DTD/svg11.dtd">
<!-- Generated by graphviz version 2.38.0 (20140413.2041)
 -->
<!-- Title: Config::execute Pages: 1 -->
<svg width="462pt" height="28pt"
 viewBox="0.00 0.00 462.00 28.00" xmlns="http://www.w3.org/2000/svg" xmlns:xlink="http://www.w3.org/1999/xlink">
<g id="graph0" class="graph" transform="scale(1 1) rotate(0) translate(4 24)">
<title>Config::execute</title>
<!-- Node44 -->
<g id="node1" class="node"><title>Node44</title>
<polygon fill="#bfbfbf" stroke="black" points="0,-0.5 0,-19.5 86,-19.5 86,-0.5 0,-0.5"/>
<text text-anchor="middle" x="43" y="-7.5" font-family="Helvetica,sans-Serif" font-size="10.00">Config::execute</text>
</g>
<!-- Node45 -->
<g id="node2" class="node"><title>Node45</title>
<g id="a_node2"><a xlink:href="class_config.html#a78ed6d7c25fb2d139420c803ad10bb36" target="_top" xlink:title="Config::endLine">
<polygon fill="none" stroke="black" points="122,-0.5 122,-19.5 207,-19.5 207,-0.5 122,-0.5"/>
<text text-anchor="middle" x="164.5" y="-7.5" font-family="Helvetica,sans-Serif" font-size="10.00">Config::endLine</text>
</a>
</g>
</g>
<!-- Node44&#45;&gt;Node45 -->
<g id="edge1" class="edge"><title>Node44&#45;&gt;Node45</title>
<path fill="none" stroke="midnightblue" d="M96.349,-10C104.847,-10 113.548,-10 121.749,-10"/>
<polygon fill="midnightblue" stroke="midnightblue" points="96.1313,-6.5001 86.1312,-10 96.1312,-13.5001 96.1313,-6.5001"/>
</g>
<!-- Node46 -->
<g id="node3" class="node"><title>Node46</title>
<g id="a_node3"><a xlink:href="class_f_s_m.html#a3819be8e9fe92b750f47b9731e92f254" target="_top" xlink:title="This method read the last char receive by the UART0 and check what is need to do. ...">
<polygon fill="none" stroke="black" points="243,-0.5 243,-19.5 380,-19.5 380,-0.5 243,-0.5"/>
<text text-anchor="middle" x="311.5" y="-7.5" font-family="Helvetica,sans-Serif" font-size="10.00">FSM::character_processing</text>
</a>
</g>
</g>
<!-- Node45&#45;&gt;Node46 -->
<g id="edge2" class="edge"><title>Node45&#45;&gt;Node46</title>
<path fill="none" stroke="midnightblue" d="M217.323,-10C225.629,-10 234.329,-10 242.937,-10"/>
<polygon fill="midnightblue" stroke="midnightblue" points="217.051,-6.5001 207.051,-10 217.051,-13.5001 217.051,-6.5001"/>
</g>
<!-- Node47 -->
<g id="node4" class="node"><title>Node47</title>
<g id="a_node4"><a xlink:href="main_8cpp.html#ae66f6b31b5ad750f1fe042a706a4e3d4" target="_top" xlink:title="main">
<polygon fill="none" stroke="black" points="416,-0.5 416,-19.5 454,-19.5 454,-0.5 416,-0.5"/>
<text text-anchor="middle" x="435" y="-7.5" font-family="Helvetica,sans-Serif" font-size="10.00">main</text>
</a>
</g>
</g>
<!-- Node46&#45;&gt;Node47 -->
<g id="edge3" class="edge"><title>Node46&#45;&gt;Node47</title>
<path fill="none" stroke="midnightblue" d="M390.013,-10C399.457,-10 408.315,-10 415.572,-10"/>
<polygon fill="midnightblue" stroke="midnightblue" points="390.001,-6.5001 380.001,-10 390.001,-13.5001 390.001,-6.5001"/>
</g>
</g>
</svg>
