<?xml version="1.0" encoding="UTF-8" standalone="no"?>
<!DOCTYPE svg PUBLIC "-//W3C//DTD SVG 1.1//EN"
 "http://www.w3.org/Graphics/SVG/1.1/DTD/svg11.dtd">
<!-- Generated by graphviz version 2.38.0 (20140413.2041)
 -->
<!-- Title: powerDC::~powerDC Pages: 1 -->
<svg width="387pt" height="321pt"
 viewBox="0.00 0.00 387.00 321.31" xmlns="http://www.w3.org/2000/svg" xmlns:xlink="http://www.w3.org/1999/xlink">
<g id="graph0" class="graph" transform="scale(1 1) rotate(0) translate(4 317.312)">
<title>powerDC::~powerDC</title>
<!-- Node3 -->
<g id="node1" class="node"><title>Node3</title>
<polygon fill="#bfbfbf" stroke="black" points="0,-141.812 0,-160.812 111,-160.812 111,-141.812 0,-141.812"/>
<text text-anchor="middle" x="55.5" y="-148.812" font-family="Helvetica,sans-Serif" font-size="10.00">powerDC::~powerDC</text>
</g>
<!-- Node4 -->
<g id="node2" class="node"><title>Node4</title>
<g id="a_node2"><a xlink:href="class_power.html#a1e33445a6a18766a77c5304292efcb4f" target="_top" xlink:title="This method read return int value from the ADC channel. ">
<polygon fill="none" stroke="black" points="163,-293.812 163,-312.812 258,-312.812 258,-293.812 163,-293.812"/>
<text text-anchor="middle" x="210.5" y="-300.812" font-family="Helvetica,sans-Serif" font-size="10.00">Power::adc_value</text>
</a>
</g>
</g>
<!-- Node3&#45;&gt;Node4 -->
<g id="edge1" class="edge"><title>Node3&#45;&gt;Node4</title>
<path fill="none" stroke="midnightblue" d="M60.3529,-161.005C70.5908,-185.509 100.88,-250.386 147,-284.312 149.649,-286.261 152.5,-288.012 155.474,-289.585"/>
<polygon fill="midnightblue" stroke="midnightblue" points="154.13,-292.819 164.68,-293.791 157.038,-286.452 154.13,-292.819"/>
</g>
<!-- Node5 -->
<g id="node3" class="node"><title>Node5</title>
<g id="a_node3"><a xlink:href="classpower_d_c.html#a40f07c9ad76eeb92bee1f3ff6089cb79" target="_top" xlink:title="powerDC::calc_averages">
<polygon fill="none" stroke="black" points="147,-255.812 147,-274.812 274,-274.812 274,-255.812 147,-255.812"/>
<text text-anchor="middle" x="210.5" y="-262.812" font-family="Helvetica,sans-Serif" font-size="10.00">powerDC::calc_averages</text>
</a>
</g>
</g>
<!-- Node3&#45;&gt;Node5 -->
<g id="edge2" class="edge"><title>Node3&#45;&gt;Node5</title>
<path fill="none" stroke="midnightblue" d="M63.0257,-160.953C76.4704,-180.084 109.187,-223.005 147,-246.312 150.379,-248.395 154.002,-250.263 157.74,-251.937"/>
<polygon fill="midnightblue" stroke="midnightblue" points="156.607,-255.253 167.192,-255.708 159.201,-248.752 156.607,-255.253"/>
</g>
<!-- Node6 -->
<g id="node4" class="node"><title>Node6</title>
<g id="a_node4"><a xlink:href="classpower_d_c.html#a9fc8afc5bbffeb373e02ee0f3cb71298" target="_top" xlink:title="powerDC::read_values">
<polygon fill="none" stroke="black" points="152.5,-217.812 152.5,-236.812 268.5,-236.812 268.5,-217.812 152.5,-217.812"/>
<text text-anchor="middle" x="210.5" y="-224.812" font-family="Helvetica,sans-Serif" font-size="10.00">powerDC::read_values</text>
</a>
</g>
</g>
<!-- Node3&#45;&gt;Node6 -->
<g id="edge3" class="edge"><title>Node3&#45;&gt;Node6</title>
<path fill="none" stroke="midnightblue" d="M71.4845,-160.885C89.1255,-171.926 119.51,-190.233 147,-203.312 154.997,-207.117 163.769,-210.782 172.147,-214.055"/>
<polygon fill="midnightblue" stroke="midnightblue" points="171.141,-217.417 181.732,-217.701 173.629,-210.874 171.141,-217.417"/>
</g>
<!-- Node7 -->
<g id="node5" class="node"><title>Node7</title>
<g id="a_node5"><a xlink:href="class_usart.html#ab236d7c399791bbe1431f85e9b60f601" target="_top" xlink:title="USART string sender function. ">
<polygon fill="none" stroke="black" points="312,-65.8122 312,-84.8122 377,-84.8122 377,-65.8122 312,-65.8122"/>
<text text-anchor="middle" x="344.5" y="-72.8122" font-family="Helvetica,sans-Serif" font-size="10.00">Usart::print</text>
</a>
</g>
</g>
<!-- Node3&#45;&gt;Node7 -->
<g id="edge4" class="edge"><title>Node3&#45;&gt;Node7</title>
<path fill="none" stroke="midnightblue" d="M67.8742,-141.638C84.1877,-128.381 115.723,-104.998 147,-94.3122 198.317,-76.7788 261.265,-73.661 301.862,-73.837"/>
<polygon fill="midnightblue" stroke="midnightblue" points="301.894,-77.3375 311.933,-73.9505 301.973,-70.3379 301.894,-77.3375"/>
</g>
<!-- Node8 -->
<g id="node6" class="node"><title>Node8</title>
<g id="a_node6"><a xlink:href="class_power.html#a3a915a3ea9b9017cae450959ef8af3de" target="_top" xlink:title="Power::print">
<polygon fill="none" stroke="black" points="310,-160.812 310,-179.812 379,-179.812 379,-160.812 310,-160.812"/>
<text text-anchor="middle" x="344.5" y="-167.812" font-family="Helvetica,sans-Serif" font-size="10.00">Power::print</text>
</a>
</g>
</g>
<!-- Node3&#45;&gt;Node8 -->
<g id="edge5" class="edge"><title>Node3&#45;&gt;Node8</title>
<path fill="none" stroke="midnightblue" d="M93.2137,-160.821C109.557,-164.586 129.115,-168.455 147,-170.312 199.174,-175.73 259.561,-174.64 299.474,-172.905"/>
<polygon fill="midnightblue" stroke="midnightblue" points="299.837,-176.392 309.663,-172.428 299.51,-169.399 299.837,-176.392"/>
</g>
<!-- Node9 -->
<g id="node7" class="node"><title>Node9</title>
<g id="a_node7"><a xlink:href="class_power.html#a6c1622c43b34a31d8929674b33433c20" target="_top" xlink:title="The print_average method print the average&#39;s value in the string. ">
<polygon fill="none" stroke="black" points="156,-103.812 156,-122.812 265,-122.812 265,-103.812 156,-103.812"/>
<text text-anchor="middle" x="210.5" y="-110.812" font-family="Helvetica,sans-Serif" font-size="10.00">Power::print_average</text>
</a>
</g>
</g>
<!-- Node3&#45;&gt;Node9 -->
<g id="edge6" class="edge"><title>Node3&#45;&gt;Node9</title>
<path fill="none" stroke="midnightblue" d="M95.1084,-141.723C115.207,-136.731 139.975,-130.58 161.319,-125.279"/>
<polygon fill="midnightblue" stroke="midnightblue" points="162.308,-128.64 171.169,-122.832 160.62,-121.846 162.308,-128.64"/>
</g>
<!-- Node10 -->
<g id="node8" class="node"><title>Node10</title>
<g id="a_node8"><a xlink:href="class_power.html#afd1c8cab1d4549eb45be61bdd34ae97d" target="_top" xlink:title="This method print the configuration for the power measurement. It&#39;s a good idea to overload this func...">
<polygon fill="none" stroke="black" points="160,-141.812 160,-160.812 261,-160.812 261,-141.812 160,-141.812"/>
<text text-anchor="middle" x="210.5" y="-148.812" font-family="Helvetica,sans-Serif" font-size="10.00">Power::print_config</text>
</a>
</g>
</g>
<!-- Node3&#45;&gt;Node10 -->
<g id="edge7" class="edge"><title>Node3&#45;&gt;Node10</title>
<path fill="none" stroke="midnightblue" d="M111.304,-151.312C123.821,-151.312 137.183,-151.312 149.89,-151.312"/>
<polygon fill="midnightblue" stroke="midnightblue" points="149.912,-154.812 159.912,-151.312 149.912,-147.812 149.912,-154.812"/>
</g>
<!-- Node11 -->
<g id="node9" class="node"><title>Node11</title>
<g id="a_node9"><a xlink:href="class_power.html#acd77541eabe8feb58e0b73154268cdd2" target="_top" xlink:title="Power::print_data_array">
<polygon fill="none" stroke="black" points="150.5,-27.8122 150.5,-46.8122 270.5,-46.8122 270.5,-27.8122 150.5,-27.8122"/>
<text text-anchor="middle" x="210.5" y="-34.8122" font-family="Helvetica,sans-Serif" font-size="10.00">Power::print_data_array</text>
</a>
</g>
</g>
<!-- Node3&#45;&gt;Node11 -->
<g id="edge10" class="edge"><title>Node3&#45;&gt;Node11</title>
<path fill="none" stroke="midnightblue" d="M63.9447,-141.585C78.238,-123.499 111.289,-84.4362 147,-61.3122 153.305,-57.2295 160.41,-53.6786 167.509,-50.6513"/>
<polygon fill="midnightblue" stroke="midnightblue" points="169.102,-53.7847 177.109,-46.8468 166.523,-47.277 169.102,-53.7847"/>
</g>
<!-- Node12 -->
<g id="node10" class="node"><title>Node12</title>
<g id="a_node10"><a xlink:href="class_usart.html#a86c9264f48dabbc3d97fa32d2d02d22d" target="_top" xlink:title="USART char sender function. ">
<polygon fill="none" stroke="black" points="314.5,-8.8122 314.5,-27.8122 374.5,-27.8122 374.5,-8.8122 314.5,-8.8122"/>
<text text-anchor="middle" x="344.5" y="-15.8122" font-family="Helvetica,sans-Serif" font-size="10.00">Usart::set</text>
</a>
</g>
</g>
<!-- Node3&#45;&gt;Node12 -->
<g id="edge13" class="edge"><title>Node3&#45;&gt;Node12</title>
<path fill="none" stroke="midnightblue" d="M59.5611,-141.531C68.2669,-115.621 95.8992,-45.3496 147,-18.3122 196.342,7.79452 262.889,0.526895 304.487,-8.11622"/>
<polygon fill="midnightblue" stroke="midnightblue" points="303.981,-11.5885 314.5,-10.3238 305.488,-4.75272 303.981,-11.5885"/>
</g>
<!-- Node10&#45;&gt;Node7 -->
<g id="edge8" class="edge"><title>Node10&#45;&gt;Node7</title>
<path fill="none" stroke="midnightblue" d="M251.45,-141.725C259.154,-139.172 266.999,-136.055 274,-132.312 293.829,-121.71 313.355,-104.984 326.637,-92.3875"/>
<polygon fill="midnightblue" stroke="midnightblue" points="329.325,-94.6545 334.046,-85.1695 324.441,-89.6403 329.325,-94.6545"/>
</g>
<!-- Node10&#45;&gt;Node8 -->
<g id="edge9" class="edge"><title>Node10&#45;&gt;Node8</title>
<path fill="none" stroke="midnightblue" d="M261.027,-158.441C273.715,-160.267 287.271,-162.219 299.65,-164.001"/>
<polygon fill="midnightblue" stroke="midnightblue" points="299.331,-167.491 309.728,-165.451 300.328,-160.562 299.331,-167.491"/>
</g>
<!-- Node11&#45;&gt;Node7 -->
<g id="edge11" class="edge"><title>Node11&#45;&gt;Node7</title>
<path fill="none" stroke="midnightblue" d="M244.809,-46.9012C262.079,-51.8729 283.345,-57.9948 301.708,-63.2812"/>
<polygon fill="midnightblue" stroke="midnightblue" points="300.99,-66.7164 311.568,-66.1195 302.926,-59.9896 300.99,-66.7164"/>
</g>
<!-- Node11&#45;&gt;Node12 -->
<g id="edge12" class="edge"><title>Node11&#45;&gt;Node12</title>
<path fill="none" stroke="midnightblue" d="M270.551,-28.8125C281.98,-27.1674 293.69,-25.4818 304.29,-23.9561"/>
<polygon fill="midnightblue" stroke="midnightblue" points="305.069,-27.3801 314.468,-22.491 304.072,-20.4515 305.069,-27.3801"/>
</g>
</g>
</svg>
