<?xml version="1.0" encoding="UTF-8" standalone="no"?>
<!DOCTYPE svg PUBLIC "-//W3C//DTD SVG 1.1//EN"
 "http://www.w3.org/Graphics/SVG/1.1/DTD/svg11.dtd">
<!-- Generated by graphviz version 2.38.0 (20140413.2041)
 -->
<!-- Title: Sensor::initialize_param Pages: 1 -->
<svg width="674pt" height="116pt"
 viewBox="0.00 0.00 674.00 115.50" xmlns="http://www.w3.org/2000/svg" xmlns:xlink="http://www.w3.org/1999/xlink">
<g id="graph0" class="graph" transform="scale(1 1) rotate(0) translate(4 111.5)">
<title>Sensor::initialize_param</title>
<!-- Node32 -->
<g id="node1" class="node"><title>Node32</title>
<polygon fill="#bfbfbf" stroke="black" points="0,-33 0,-63 89,-63 89,-33 0,-33"/>
<text text-anchor="start" x="8" y="-51" font-family="Helvetica,sans-Serif" font-size="10.00">Sensor::initialize</text>
<text text-anchor="middle" x="44.5" y="-40" font-family="Helvetica,sans-Serif" font-size="10.00">_param</text>
</g>
<!-- Node33 -->
<g id="node2" class="node"><title>Node33</title>
<g id="a_node2"><a xlink:href="class_sensor.html#a4e88d49608387ab4f65734913e514109" target="_top" xlink:title="Sensor::is_enable">
<polygon fill="none" stroke="black" points="125,-38.5 125,-57.5 220,-57.5 220,-38.5 125,-38.5"/>
<text text-anchor="middle" x="172.5" y="-45.5" font-family="Helvetica,sans-Serif" font-size="10.00">Sensor::is_enable</text>
</a>
</g>
</g>
<!-- Node32&#45;&gt;Node33 -->
<g id="edge1" class="edge"><title>Node32&#45;&gt;Node33</title>
<path fill="none" stroke="midnightblue" d="M99.3964,-48C107.869,-48 116.567,-48 124.858,-48"/>
<polygon fill="midnightblue" stroke="midnightblue" points="99.2151,-44.5001 89.2151,-48 99.215,-51.5001 99.2151,-44.5001"/>
</g>
<!-- Node34 -->
<g id="node3" class="node"><title>Node34</title>
<g id="a_node3"><a xlink:href="class_anemometer.html#a9be3b4b392ef08ef29c769e6ce4bebf4" target="_top" xlink:title="Anemometer::read_value">
<polygon fill="none" stroke="black" points="256,-79.5 256,-98.5 381,-98.5 381,-79.5 256,-79.5"/>
<text text-anchor="middle" x="318.5" y="-86.5" font-family="Helvetica,sans-Serif" font-size="10.00">Anemometer::read_value</text>
</a>
</g>
</g>
<!-- Node33&#45;&gt;Node34 -->
<g id="edge2" class="edge"><title>Node33&#45;&gt;Node34</title>
<path fill="none" stroke="midnightblue" d="M216.792,-60.3263C238.348,-66.4637 264.01,-73.7701 284.034,-79.4714"/>
<polygon fill="midnightblue" stroke="midnightblue" points="217.475,-56.8815 206.898,-57.5093 215.558,-63.614 217.475,-56.8815"/>
</g>
<!-- Node37 -->
<g id="node6" class="node"><title>Node37</title>
<g id="a_node6"><a xlink:href="class_sensor.html#ae16fd0cbdda6cfed1deac36f5c7c0a8f" target="_top" xlink:title="This method calculate the average from the data array. ">
<polygon fill="none" stroke="black" points="263,-38.5 263,-57.5 374,-57.5 374,-38.5 263,-38.5"/>
<text text-anchor="middle" x="318.5" y="-45.5" font-family="Helvetica,sans-Serif" font-size="10.00">Sensor::calc_average</text>
</a>
</g>
</g>
<!-- Node33&#45;&gt;Node37 -->
<g id="edge5" class="edge"><title>Node33&#45;&gt;Node37</title>
<path fill="none" stroke="midnightblue" d="M230.368,-41.3843C241.103,-41.1912 252.307,-41.2063 262.968,-41.4298"/>
<polygon fill="midnightblue" stroke="midnightblue" points="230.163,-37.8882 220.253,-41.6333 230.336,-44.886 230.163,-37.8882"/>
</g>
<!-- Node39 -->
<g id="node8" class="node"><title>Node39</title>
<g id="a_node8"><a xlink:href="class_sensor.html#a38a47820684e5ff0f61ad32b8afbde45" target="_top" xlink:title="The print_average method print the average&#39;s value in the string. ">
<polygon fill="none" stroke="black" points="262.5,-0.5 262.5,-19.5 374.5,-19.5 374.5,-0.5 262.5,-0.5"/>
<text text-anchor="middle" x="318.5" y="-7.5" font-family="Helvetica,sans-Serif" font-size="10.00">Sensor::print_average</text>
</a>
</g>
</g>
<!-- Node33&#45;&gt;Node39 -->
<g id="edge9" class="edge"><title>Node33&#45;&gt;Node39</title>
<path fill="none" stroke="midnightblue" d="M201.527,-35.1283C218.829,-29.404 241.622,-23.0205 262.419,-17.9536"/>
<polygon fill="midnightblue" stroke="midnightblue" points="200.341,-31.8352 192.031,-38.4076 202.625,-38.4518 200.341,-31.8352"/>
</g>
<!-- Node35 -->
<g id="node4" class="node"><title>Node35</title>
<g id="a_node4"><a xlink:href="class_measure.html#a4390d770b19dbc51e5486fefe9f4b9d1" target="_top" xlink:title="read value from anemometer and RPM ">
<polygon fill="none" stroke="black" points="425.5,-77 425.5,-107 526.5,-107 526.5,-77 425.5,-77"/>
<text text-anchor="start" x="433.5" y="-95" font-family="Helvetica,sans-Serif" font-size="10.00">Measure::freq_read</text>
<text text-anchor="middle" x="476" y="-84" font-family="Helvetica,sans-Serif" font-size="10.00">_value</text>
</a>
</g>
</g>
<!-- Node34&#45;&gt;Node35 -->
<g id="edge3" class="edge"><title>Node34&#45;&gt;Node35</title>
<path fill="none" stroke="midnightblue" d="M391.747,-90.3938C403.088,-90.6126 414.585,-90.8344 425.268,-91.0405"/>
<polygon fill="midnightblue" stroke="midnightblue" points="391.47,-86.8879 381.405,-90.1943 391.335,-93.8866 391.47,-86.8879"/>
</g>
<!-- Node36 -->
<g id="node5" class="node"><title>Node36</title>
<g id="a_node5"><a xlink:href="class_measure.html#a754d2de10d1a44bb3b62ab162ceeaae2" target="_top" xlink:title="The execute method is the measure &quot;main function&quot; The execute function work as this scheme : ...">
<polygon fill="none" stroke="black" points="571,-60.5 571,-79.5 666,-79.5 666,-60.5 571,-60.5"/>
<text text-anchor="middle" x="618.5" y="-67.5" font-family="Helvetica,sans-Serif" font-size="10.00">Measure::execute</text>
</a>
</g>
</g>
<!-- Node35&#45;&gt;Node36 -->
<g id="edge4" class="edge"><title>Node35&#45;&gt;Node36</title>
<path fill="none" stroke="midnightblue" d="M536.472,-82.6876C547.931,-80.8933 559.782,-79.0377 570.766,-77.3178"/>
<polygon fill="midnightblue" stroke="midnightblue" points="535.873,-79.2387 526.535,-84.2436 536.956,-86.1544 535.873,-79.2387"/>
</g>
<!-- Node37&#45;&gt;Node33 -->
<g id="edge8" class="edge"><title>Node37&#45;&gt;Node33</title>
<path fill="none" stroke="midnightblue" d="M252.951,-54.7178C241.938,-54.8133 230.69,-54.6963 220.253,-54.3667"/>
<polygon fill="midnightblue" stroke="midnightblue" points="253.021,-58.2172 262.968,-54.5702 252.918,-51.218 253.021,-58.2172"/>
</g>
<!-- Node38 -->
<g id="node7" class="node"><title>Node38</title>
<g id="a_node7"><a xlink:href="class_measure.html#a1518672dff4f81603a35bff08c20e9f5" target="_top" xlink:title="calcul average from the data array ">
<polygon fill="none" stroke="black" points="417,-38.5 417,-57.5 535,-57.5 535,-38.5 417,-38.5"/>
<text text-anchor="middle" x="476" y="-45.5" font-family="Helvetica,sans-Serif" font-size="10.00">Measure::calc_average</text>
</a>
</g>
</g>
<!-- Node37&#45;&gt;Node38 -->
<g id="edge6" class="edge"><title>Node37&#45;&gt;Node38</title>
<path fill="none" stroke="midnightblue" d="M384.52,-48C395.291,-48 406.398,-48 416.982,-48"/>
<polygon fill="midnightblue" stroke="midnightblue" points="384.324,-44.5001 374.323,-48 384.323,-51.5001 384.324,-44.5001"/>
</g>
<!-- Node38&#45;&gt;Node36 -->
<g id="edge7" class="edge"><title>Node38&#45;&gt;Node36</title>
<path fill="none" stroke="midnightblue" d="M545.366,-58.705C553.927,-60.0455 562.525,-61.3918 570.651,-62.6643"/>
<polygon fill="midnightblue" stroke="midnightblue" points="545.785,-55.2281 535.364,-57.1389 544.702,-62.1438 545.785,-55.2281"/>
</g>
<!-- Node39&#45;&gt;Node33 -->
<g id="edge10" class="edge"><title>Node39&#45;&gt;Node33</title>
<path fill="none" stroke="midnightblue" d="M289.352,-22.9116C269.716,-29.402 243.051,-36.733 220.253,-42.0292"/>
<polygon fill="midnightblue" stroke="midnightblue" points="290.611,-26.1799 298.922,-19.6094 288.327,-19.5628 290.611,-26.1799"/>
</g>
<!-- Node40 -->
<g id="node9" class="node"><title>Node40</title>
<g id="a_node9"><a xlink:href="class_output.html#af4bc42d2d3bb3b2a98782f0df0eba133" target="_top" xlink:title="Output::usart0_print">
<polygon fill="none" stroke="black" points="424.5,-0.5 424.5,-19.5 527.5,-19.5 527.5,-0.5 424.5,-0.5"/>
<text text-anchor="middle" x="476" y="-7.5" font-family="Helvetica,sans-Serif" font-size="10.00">Output::usart0_print</text>
</a>
</g>
</g>
<!-- Node39&#45;&gt;Node40 -->
<g id="edge11" class="edge"><title>Node39&#45;&gt;Node40</title>
<path fill="none" stroke="midnightblue" d="M385.141,-10C398.245,-10 411.82,-10 424.327,-10"/>
<polygon fill="midnightblue" stroke="midnightblue" points="384.761,-6.5001 374.761,-10 384.761,-13.5001 384.761,-6.5001"/>
</g>
<!-- Node41 -->
<g id="node10" class="node"><title>Node41</title>
<g id="a_node10"><a xlink:href="class_output.html#a087f4330e641bb4682ab2862bca7a1af" target="_top" xlink:title="Output::execute">
<polygon fill="none" stroke="black" points="575.5,-0.5 575.5,-19.5 661.5,-19.5 661.5,-0.5 575.5,-0.5"/>
<text text-anchor="middle" x="618.5" y="-7.5" font-family="Helvetica,sans-Serif" font-size="10.00">Output::execute</text>
</a>
</g>
</g>
<!-- Node40&#45;&gt;Node41 -->
<g id="edge12" class="edge"><title>Node40&#45;&gt;Node41</title>
<path fill="none" stroke="midnightblue" d="M537.726,-10C550.349,-10 563.391,-10 575.179,-10"/>
<polygon fill="midnightblue" stroke="midnightblue" points="537.724,-6.5001 527.724,-10 537.724,-13.5001 537.724,-6.5001"/>
</g>
</g>
</svg>
