<?xml version="1.0" encoding="UTF-8" standalone="no"?>
<!DOCTYPE svg PUBLIC "-//W3C//DTD SVG 1.1//EN"
 "http://www.w3.org/Graphics/SVG/1.1/DTD/svg11.dtd">
<!-- Generated by graphviz version 2.38.0 (20140413.2041)
 -->
<!-- Title: Config::initialize_logger Pages: 1 -->
<svg width="242pt" height="72pt"
 viewBox="0.00 0.00 242.00 71.50" xmlns="http://www.w3.org/2000/svg" xmlns:xlink="http://www.w3.org/1999/xlink">
<g id="graph0" class="graph" transform="scale(1 1) rotate(0) translate(4 67.5)">
<title>Config::initialize_logger</title>
<!-- Node88 -->
<g id="node1" class="node"><title>Node88</title>
<polygon fill="#bfbfbf" stroke="black" points="0,-33 0,-63 86,-63 86,-33 0,-33"/>
<text text-anchor="start" x="8" y="-51" font-family="Helvetica,sans-Serif" font-size="10.00">Config::initialize</text>
<text text-anchor="middle" x="43" y="-40" font-family="Helvetica,sans-Serif" font-size="10.00">_logger</text>
</g>
<!-- Node89 -->
<g id="node2" class="node"><title>Node89</title>
<g id="a_node2"><a xlink:href="class_config.html#ab2f7c3fc31f5a2c4e115860474dd8f55" target="_top" xlink:title="Load saved config data from the eeprom. ">
<polygon fill="none" stroke="black" points="127.5,-38.5 127.5,-57.5 228.5,-57.5 228.5,-38.5 127.5,-38.5"/>
<text text-anchor="middle" x="178" y="-45.5" font-family="Helvetica,sans-Serif" font-size="10.00">Config::load_logger</text>
</a>
</g>
</g>
<!-- Node88&#45;&gt;Node89 -->
<g id="edge1" class="edge"><title>Node88&#45;&gt;Node89</title>
<path fill="none" stroke="midnightblue" d="M86.082,-41.6719C95.8993,-41.3176 106.541,-41.1864 116.969,-41.2785"/>
<polygon fill="midnightblue" stroke="midnightblue" points="117.231,-44.7831 127.287,-41.4449 117.344,-37.784 117.231,-44.7831"/>
</g>
<!-- Node90 -->
<g id="node3" class="node"><title>Node90</title>
<g id="a_node3"><a xlink:href="class_config.html#a4cda6b3fcf08b798afe3bf1311450b0c" target="_top" xlink:title="Update saved config data in the eeprom. ">
<polygon fill="none" stroke="black" points="122,-0.5 122,-19.5 234,-19.5 234,-0.5 122,-0.5"/>
<text text-anchor="middle" x="178" y="-7.5" font-family="Helvetica,sans-Serif" font-size="10.00">Config::update_logger</text>
</a>
</g>
</g>
<!-- Node88&#45;&gt;Node90 -->
<g id="edge3" class="edge"><title>Node88&#45;&gt;Node90</title>
<path fill="none" stroke="midnightblue" d="M86.082,-35.9766C101.315,-31.6244 118.532,-26.7051 133.855,-22.3273"/>
<polygon fill="midnightblue" stroke="midnightblue" points="134.956,-25.6526 143.61,-19.54 133.033,-18.9219 134.956,-25.6526"/>
</g>
<!-- Node89&#45;&gt;Node88 -->
<g id="edge2" class="edge"><title>Node89&#45;&gt;Node88</title>
<path fill="none" stroke="midnightblue" d="M127.287,-54.5551C117.117,-54.7959 106.387,-54.8136 96.1357,-54.608"/>
<polygon fill="midnightblue" stroke="midnightblue" points="96.1756,-51.1079 86.082,-54.3281 95.9807,-58.1052 96.1756,-51.1079"/>
</g>
</g>
</svg>
