<?xml version="1.0" encoding="UTF-8" standalone="no"?>
<!DOCTYPE svg PUBLIC "-//W3C//DTD SVG 1.1//EN"
 "http://www.w3.org/Graphics/SVG/1.1/DTD/svg11.dtd">
<!-- Generated by graphviz version 2.38.0 (20140413.2041)
 -->
<!-- Title: Power::adc_value Pages: 1 -->
<svg width="535pt" height="78pt"
 viewBox="0.00 0.00 535.00 77.50" xmlns="http://www.w3.org/2000/svg" xmlns:xlink="http://www.w3.org/1999/xlink">
<g id="graph0" class="graph" transform="scale(1 1) rotate(0) translate(4 73.5)">
<title>Power::adc_value</title>
<!-- Node6 -->
<g id="node1" class="node"><title>Node6</title>
<polygon fill="#bfbfbf" stroke="black" points="0,-28 0,-47 95,-47 95,-28 0,-28"/>
<text text-anchor="middle" x="47.5" y="-35" font-family="Helvetica,sans-Serif" font-size="10.00">Power::adc_value</text>
</g>
<!-- Node7 -->
<g id="node2" class="node"><title>Node7</title>
<g id="a_node2"><a xlink:href="class_power.html#ace64df3181f3dfce89b8a1f8608e16eb" target="_top" xlink:title="Power::read_rms_value">
<polygon fill="none" stroke="black" points="131,-28 131,-47 250,-47 250,-28 131,-28"/>
<text text-anchor="middle" x="190.5" y="-35" font-family="Helvetica,sans-Serif" font-size="10.00">Power::read_rms_value</text>
</a>
</g>
</g>
<!-- Node6&#45;&gt;Node7 -->
<g id="edge1" class="edge"><title>Node6&#45;&gt;Node7</title>
<path fill="none" stroke="midnightblue" d="M105.213,-37.5C113.677,-37.5 122.417,-37.5 130.919,-37.5"/>
<polygon fill="midnightblue" stroke="midnightblue" points="105.059,-34.0001 95.0594,-37.5 105.059,-41.0001 105.059,-34.0001"/>
</g>
<!-- Node8 -->
<g id="node3" class="node"><title>Node8</title>
<g id="a_node3"><a xlink:href="class_power.html#a1e7595ee0b3b0439d979ffeab785d0d8" target="_top" xlink:title="Power::set_i_offset">
<polygon fill="none" stroke="black" points="290.5,-50 290.5,-69 391.5,-69 391.5,-50 290.5,-50"/>
<text text-anchor="middle" x="341" y="-57" font-family="Helvetica,sans-Serif" font-size="10.00">Power::set_i_offset</text>
</a>
</g>
</g>
<!-- Node7&#45;&gt;Node8 -->
<g id="edge2" class="edge"><title>Node7&#45;&gt;Node8</title>
<path fill="none" stroke="midnightblue" d="M260.265,-47.6874C270.413,-49.1909 280.699,-50.7147 290.358,-52.1456"/>
<polygon fill="midnightblue" stroke="midnightblue" points="260.596,-44.1983 250.191,-46.195 259.57,-51.1228 260.596,-44.1983"/>
</g>
<!-- Node10 -->
<g id="node5" class="node"><title>Node10</title>
<g id="a_node5"><a xlink:href="class_measure.html#a313b5845f14f7c62f37db11272145320" target="_top" xlink:title="read power value &#45; not define realy (see emonLib) ">
<polygon fill="none" stroke="black" points="286,-0.5 286,-30.5 396,-30.5 396,-0.5 286,-0.5"/>
<text text-anchor="start" x="294" y="-18.5" font-family="Helvetica,sans-Serif" font-size="10.00">Measure::power_read</text>
<text text-anchor="middle" x="341" y="-7.5" font-family="Helvetica,sans-Serif" font-size="10.00">_value</text>
</a>
</g>
</g>
<!-- Node7&#45;&gt;Node10 -->
<g id="edge4" class="edge"><title>Node7&#45;&gt;Node10</title>
<path fill="none" stroke="midnightblue" d="M260.141,-27.3309C268.68,-26.0659 277.318,-24.7863 285.6,-23.5593"/>
<polygon fill="midnightblue" stroke="midnightblue" points="259.57,-23.8772 250.191,-28.805 260.596,-30.8017 259.57,-23.8772"/>
</g>
<!-- Node9 -->
<g id="node4" class="node"><title>Node9</title>
<g id="a_node4"><a xlink:href="class_config.html#a2a806f322b0d533aabdb8e796d3b1033" target="_top" xlink:title="The execute method is the config &quot;main function&quot; In this method, sentence from the uart are process e...">
<polygon fill="none" stroke="black" points="436.5,-50 436.5,-69 522.5,-69 522.5,-50 436.5,-50"/>
<text text-anchor="middle" x="479.5" y="-57" font-family="Helvetica,sans-Serif" font-size="10.00">Config::execute</text>
</a>
</g>
</g>
<!-- Node8&#45;&gt;Node9 -->
<g id="edge3" class="edge"><title>Node8&#45;&gt;Node9</title>
<path fill="none" stroke="midnightblue" d="M401.769,-59.5C413.403,-59.5 425.371,-59.5 436.292,-59.5"/>
<polygon fill="midnightblue" stroke="midnightblue" points="401.666,-56.0001 391.666,-59.5 401.666,-63.0001 401.666,-56.0001"/>
</g>
<!-- Node11 -->
<g id="node6" class="node"><title>Node11</title>
<g id="a_node6"><a xlink:href="class_measure.html#a754d2de10d1a44bb3b62ab162ceeaae2" target="_top" xlink:title="The execute method is the measure &quot;main function&quot; The execute function work as this scheme : ...">
<polygon fill="none" stroke="black" points="432,-6 432,-25 527,-25 527,-6 432,-6"/>
<text text-anchor="middle" x="479.5" y="-13" font-family="Helvetica,sans-Serif" font-size="10.00">Measure::execute</text>
</a>
</g>
</g>
<!-- Node10&#45;&gt;Node11 -->
<g id="edge5" class="edge"><title>Node10&#45;&gt;Node11</title>
<path fill="none" stroke="midnightblue" d="M406.355,-15.5C414.947,-15.5 423.621,-15.5 431.83,-15.5"/>
<polygon fill="midnightblue" stroke="midnightblue" points="406.341,-12.0001 396.341,-15.5 406.341,-19.0001 406.341,-12.0001"/>
</g>
</g>
</svg>
