<?xml version="1.0" encoding="UTF-8" standalone="no"?>
<!DOCTYPE svg PUBLIC "-//W3C//DTD SVG 1.1//EN"
 "http://www.w3.org/Graphics/SVG/1.1/DTD/svg11.dtd">
<!-- Generated by graphviz version 2.38.0 (20140413.2041)
 -->
<!-- Title: Config Pages: 1 -->
<svg width="180pt" height="391pt"
 viewBox="0.00 0.00 180.00 391.00" xmlns="http://www.w3.org/2000/svg" xmlns:xlink="http://www.w3.org/1999/xlink">
<g id="graph0" class="graph" transform="scale(1 1) rotate(0) translate(4 387)">
<title>Config</title>
<!-- Node0 -->
<g id="node1" class="node"><title>Node0</title>
<polygon fill="#bfbfbf" stroke="black" points="28,-0.5 28,-189.5 132,-189.5 132,-0.5 28,-0.5"/>
<text text-anchor="middle" x="80" y="-177.5" font-family="Helvetica,sans-Serif" font-size="10.00">Config</text>
<polyline fill="none" stroke="black" points="28,-170.5 132,-170.5 "/>
<text text-anchor="start" x="36" y="-158.5" font-family="Helvetica,sans-Serif" font-size="10.00">&#45; request</text>
<text text-anchor="start" x="36" y="-147.5" font-family="Helvetica,sans-Serif" font-size="10.00">&#45; request_i</text>
<polyline fill="none" stroke="black" points="28,-140.5 132,-140.5 "/>
<text text-anchor="start" x="36" y="-128.5" font-family="Helvetica,sans-Serif" font-size="10.00">+ Config()</text>
<text text-anchor="start" x="36" y="-117.5" font-family="Helvetica,sans-Serif" font-size="10.00">+ ~Config()</text>
<text text-anchor="start" x="36" y="-106.5" font-family="Helvetica,sans-Serif" font-size="10.00">+ execute()</text>
<text text-anchor="start" x="36" y="-95.5" font-family="Helvetica,sans-Serif" font-size="10.00">+ print()</text>
<text text-anchor="start" x="36" y="-84.5" font-family="Helvetica,sans-Serif" font-size="10.00">+ backspace()</text>
<text text-anchor="start" x="36" y="-73.5" font-family="Helvetica,sans-Serif" font-size="10.00">+ endString()</text>
<text text-anchor="start" x="36" y="-62.5" font-family="Helvetica,sans-Serif" font-size="10.00">+ display()</text>
<text text-anchor="start" x="36" y="-51.5" font-family="Helvetica,sans-Serif" font-size="10.00">+ addToRequest()</text>
<text text-anchor="start" x="36" y="-40.5" font-family="Helvetica,sans-Serif" font-size="10.00">+ atoc()</text>
<text text-anchor="start" x="36" y="-29.5" font-family="Helvetica,sans-Serif" font-size="10.00">+ load_eeprom()</text>
<text text-anchor="start" x="36" y="-18.5" font-family="Helvetica,sans-Serif" font-size="10.00">+ update_epprom()</text>
<text text-anchor="start" x="36" y="-7.5" font-family="Helvetica,sans-Serif" font-size="10.00">+ initialize_eeprom()</text>
</g>
<!-- Node1 -->
<g id="node2" class="node"><title>Node1</title>
<g id="a_node2"><a xlink:href="class_state.html" target="_top" xlink:title="{State\n||+ State()\l+ ~State()\l+ execute()\l+ print()\l}">
<polygon fill="none" stroke="black" points="0,-265 0,-355 66,-355 66,-265 0,-265"/>
<text text-anchor="middle" x="33" y="-343" font-family="Helvetica,sans-Serif" font-size="10.00">State</text>
<polyline fill="none" stroke="black" points="0,-336 66,-336 "/>
<text text-anchor="middle" x="33" y="-324" font-family="Helvetica,sans-Serif" font-size="10.00"> </text>
<polyline fill="none" stroke="black" points="0,-317 66,-317 "/>
<text text-anchor="start" x="8" y="-305" font-family="Helvetica,sans-Serif" font-size="10.00">+ State()</text>
<text text-anchor="start" x="8" y="-294" font-family="Helvetica,sans-Serif" font-size="10.00">+ ~State()</text>
<text text-anchor="start" x="8" y="-283" font-family="Helvetica,sans-Serif" font-size="10.00">+ execute()</text>
<text text-anchor="start" x="8" y="-272" font-family="Helvetica,sans-Serif" font-size="10.00">+ print()</text>
</a>
</g>
</g>
<!-- Node1&#45;&gt;Node0 -->
<g id="edge1" class="edge"><title>Node1&#45;&gt;Node0</title>
<path fill="none" stroke="midnightblue" d="M44.8955,-255.091C49.2815,-235.214 54.3875,-212.074 59.3247,-189.699"/>
<polygon fill="none" stroke="midnightblue" points="41.4755,-254.347 42.7384,-264.866 48.311,-255.855 41.4755,-254.347"/>
</g>
<!-- Node2 -->
<g id="node3" class="node"><title>Node2</title>
<g id="a_node3"><a xlink:href="class_date_time.html" target="_top" xlink:title="The DateTime class permit to have human readable format for the timestamp. ">
<polygon fill="none" stroke="black" points="84,-237.5 84,-382.5 172,-382.5 172,-237.5 84,-237.5"/>
<text text-anchor="middle" x="128" y="-370.5" font-family="Helvetica,sans-Serif" font-size="10.00">DateTime</text>
<polyline fill="none" stroke="black" points="84,-363.5 172,-363.5 "/>
<text text-anchor="start" x="92" y="-351.5" font-family="Helvetica,sans-Serif" font-size="10.00">&#45; m_second</text>
<text text-anchor="start" x="92" y="-340.5" font-family="Helvetica,sans-Serif" font-size="10.00">&#45; m_minute</text>
<text text-anchor="start" x="92" y="-329.5" font-family="Helvetica,sans-Serif" font-size="10.00">&#45; m_hour</text>
<text text-anchor="start" x="92" y="-318.5" font-family="Helvetica,sans-Serif" font-size="10.00">&#45; m_date</text>
<text text-anchor="start" x="92" y="-307.5" font-family="Helvetica,sans-Serif" font-size="10.00">&#45; m_month</text>
<text text-anchor="start" x="92" y="-296.5" font-family="Helvetica,sans-Serif" font-size="10.00">&#45; m_year</text>
<polyline fill="none" stroke="black" points="84,-289.5 172,-289.5 "/>
<text text-anchor="start" x="92" y="-277.5" font-family="Helvetica,sans-Serif" font-size="10.00">+ DateTime()</text>
<text text-anchor="start" x="92" y="-266.5" font-family="Helvetica,sans-Serif" font-size="10.00">+ toDateTime()</text>
<text text-anchor="start" x="92" y="-255.5" font-family="Helvetica,sans-Serif" font-size="10.00">+ getDateTime()</text>
<text text-anchor="start" x="92" y="-244.5" font-family="Helvetica,sans-Serif" font-size="10.00">&#45; isLeap()</text>
</a>
</g>
</g>
<!-- Node2&#45;&gt;Node0 -->
<g id="edge2" class="edge"><title>Node2&#45;&gt;Node0</title>
<path fill="none" stroke="#404040" d="M111.883,-237.482C109.289,-225.97 106.557,-213.845 103.827,-201.733"/>
<polygon fill="none" stroke="#404040" points="103.742,-201.355 98.5209,-196.381 101.104,-189.649 106.325,-194.623 103.742,-201.355"/>
<text text-anchor="middle" x="135" y="-211" font-family="Helvetica,sans-Serif" font-size="10.00"> &#45;currentTime</text>
</g>
</g>
</svg>
