<?xml version="1.0" encoding="UTF-8" standalone="no"?>
<!DOCTYPE svg PUBLIC "-//W3C//DTD SVG 1.1//EN"
 "http://www.w3.org/Graphics/SVG/1.1/DTD/svg11.dtd">
<!-- Generated by graphviz version 2.38.0 (20140413.2041)
 -->
<!-- Title: Power::load_param Pages: 1 -->
<svg width="368pt" height="104pt"
 viewBox="0.00 0.00 368.00 104.00" xmlns="http://www.w3.org/2000/svg" xmlns:xlink="http://www.w3.org/1999/xlink">
<g id="graph0" class="graph" transform="scale(1 1) rotate(0) translate(4 100)">
<title>Power::load_param</title>
<!-- Node23 -->
<g id="node1" class="node"><title>Node23</title>
<polygon fill="#bfbfbf" stroke="black" points="0,-38.5 0,-57.5 101,-57.5 101,-38.5 0,-38.5"/>
<text text-anchor="middle" x="50.5" y="-45.5" font-family="Helvetica,sans-Serif" font-size="10.00">Power::load_param</text>
</g>
<!-- Node24 -->
<g id="node2" class="node"><title>Node24</title>
<g id="a_node2"><a xlink:href="class_f_s_m.html#a2fccf1c016c43e4fa4ee512311bf9d7d" target="_top" xlink:title="Class constructor. ">
<polygon fill="none" stroke="black" points="155,-76.5 155,-95.5 220,-95.5 220,-76.5 155,-76.5"/>
<text text-anchor="middle" x="187.5" y="-83.5" font-family="Helvetica,sans-Serif" font-size="10.00">FSM::FSM</text>
</a>
</g>
</g>
<!-- Node23&#45;&gt;Node24 -->
<g id="edge1" class="edge"><title>Node23&#45;&gt;Node24</title>
<path fill="none" stroke="midnightblue" d="M95.378,-60.3508C114.735,-65.7994 137.057,-72.0827 154.763,-77.0667"/>
<polygon fill="midnightblue" stroke="midnightblue" points="96.1405,-56.9295 85.5662,-57.589 94.2438,-63.6677 96.1405,-56.9295"/>
</g>
<!-- Node25 -->
<g id="node3" class="node"><title>Node25</title>
<g id="a_node3"><a xlink:href="class_power.html#abbef246caaa88630e3c02ce5ade952ff" target="_top" xlink:title="Power::Power">
<polygon fill="none" stroke="black" points="148.5,-38.5 148.5,-57.5 226.5,-57.5 226.5,-38.5 148.5,-38.5"/>
<text text-anchor="middle" x="187.5" y="-45.5" font-family="Helvetica,sans-Serif" font-size="10.00">Power::Power</text>
</a>
</g>
</g>
<!-- Node23&#45;&gt;Node25 -->
<g id="edge2" class="edge"><title>Node23&#45;&gt;Node25</title>
<path fill="none" stroke="midnightblue" d="M111.059,-48C123.742,-48 136.806,-48 148.423,-48"/>
<polygon fill="midnightblue" stroke="midnightblue" points="111.002,-44.5001 101.002,-48 111.002,-51.5001 111.002,-44.5001"/>
</g>
<!-- Node26 -->
<g id="node4" class="node"><title>Node26</title>
<g id="a_node4"><a xlink:href="class_power.html#a1e7595ee0b3b0439d979ffeab785d0d8" target="_top" xlink:title="Power::set_i_offset">
<polygon fill="none" stroke="black" points="137,-0.5 137,-19.5 238,-19.5 238,-0.5 137,-0.5"/>
<text text-anchor="middle" x="187.5" y="-7.5" font-family="Helvetica,sans-Serif" font-size="10.00">Power::set_i_offset</text>
</a>
</g>
</g>
<!-- Node23&#45;&gt;Node26 -->
<g id="edge3" class="edge"><title>Node23&#45;&gt;Node26</title>
<path fill="none" stroke="midnightblue" d="M95.2625,-35.6817C113.811,-30.4607 135.099,-24.4684 152.445,-19.5859"/>
<polygon fill="midnightblue" stroke="midnightblue" points="94.2438,-32.3323 85.5662,-38.411 96.1405,-39.0705 94.2438,-32.3323"/>
</g>
<!-- Node27 -->
<g id="node5" class="node"><title>Node27</title>
<g id="a_node5"><a xlink:href="class_config.html#a2a806f322b0d533aabdb8e796d3b1033" target="_top" xlink:title="The execute method is the config &quot;main function&quot; In this method, sentence from the uart are process e...">
<polygon fill="none" stroke="black" points="274,-0.5 274,-19.5 360,-19.5 360,-0.5 274,-0.5"/>
<text text-anchor="middle" x="317" y="-7.5" font-family="Helvetica,sans-Serif" font-size="10.00">Config::execute</text>
</a>
</g>
</g>
<!-- Node26&#45;&gt;Node27 -->
<g id="edge4" class="edge"><title>Node26&#45;&gt;Node27</title>
<path fill="none" stroke="midnightblue" d="M248.193,-10C256.81,-10 265.527,-10 273.71,-10"/>
<polygon fill="midnightblue" stroke="midnightblue" points="248.16,-6.5001 238.16,-10 248.16,-13.5001 248.16,-6.5001"/>
</g>
</g>
</svg>
