<?xml version="1.0" encoding="UTF-8" standalone="no"?>
<!DOCTYPE svg PUBLIC "-//W3C//DTD SVG 1.1//EN"
 "http://www.w3.org/Graphics/SVG/1.1/DTD/svg11.dtd">
<!-- Generated by graphviz version 2.38.0 (20140413.2041)
 -->
<!-- Title: TWI::set_char Pages: 1 -->
<svg width="337pt" height="28pt"
 viewBox="0.00 0.00 337.00 28.00" xmlns="http://www.w3.org/2000/svg" xmlns:xlink="http://www.w3.org/1999/xlink">
<g id="graph0" class="graph" transform="scale(1 1) rotate(0) translate(4 24)">
<title>TWI::set_char</title>
<!-- Node59 -->
<g id="node1" class="node"><title>Node59</title>
<polygon fill="#bfbfbf" stroke="black" points="0,-0.5 0,-19.5 79,-19.5 79,-0.5 0,-0.5"/>
<text text-anchor="middle" x="39.5" y="-7.5" font-family="Helvetica,sans-Serif" font-size="10.00">TWI::set_char</text>
</g>
<!-- Node60 -->
<g id="node2" class="node"><title>Node60</title>
<g id="a_node2"><a xlink:href="class_r_t_c.html#a47c11140f33fe80ffb96fb5296859a25" target="_top" xlink:title="Function to update a register in the pcf8563 This function is use in the st_config class...">
<polygon fill="none" stroke="black" points="115,-0.5 115,-19.5 207,-19.5 207,-0.5 115,-0.5"/>
<text text-anchor="middle" x="161" y="-7.5" font-family="Helvetica,sans-Serif" font-size="10.00">RTC::update_reg</text>
</a>
</g>
</g>
<!-- Node59&#45;&gt;Node60 -->
<g id="edge1" class="edge"><title>Node59&#45;&gt;Node60</title>
<path fill="none" stroke="midnightblue" d="M89.3497,-10C97.7493,-10 106.446,-10 114.746,-10"/>
<polygon fill="midnightblue" stroke="midnightblue" points="89.2983,-6.5001 79.2982,-10 89.2982,-13.5001 89.2983,-6.5001"/>
</g>
<!-- Node61 -->
<g id="node3" class="node"><title>Node61</title>
<g id="a_node3"><a xlink:href="class_config.html#a2a806f322b0d533aabdb8e796d3b1033" target="_top" xlink:title="The execute method is the config &quot;main function&quot; In this method, sentence from the uart are process e...">
<polygon fill="none" stroke="black" points="243,-0.5 243,-19.5 329,-19.5 329,-0.5 243,-0.5"/>
<text text-anchor="middle" x="286" y="-7.5" font-family="Helvetica,sans-Serif" font-size="10.00">Config::execute</text>
</a>
</g>
</g>
<!-- Node60&#45;&gt;Node61 -->
<g id="edge2" class="edge"><title>Node60&#45;&gt;Node61</title>
<path fill="none" stroke="midnightblue" d="M217.378,-10C225.903,-10 234.586,-10 242.765,-10"/>
<polygon fill="midnightblue" stroke="midnightblue" points="217.102,-6.5001 207.102,-10 217.102,-13.5001 217.102,-6.5001"/>
</g>
</g>
</svg>
