<?xml version="1.0" encoding="UTF-8" standalone="no"?>
<!DOCTYPE svg PUBLIC "-//W3C//DTD SVG 1.1//EN"
 "http://www.w3.org/Graphics/SVG/1.1/DTD/svg11.dtd">
<!-- Generated by graphviz version 2.38.0 (20140413.2041)
 -->
<!-- Title: Config::load_logger Pages: 1 -->
<!--zoomable 91 -->
<svg id="main" version="1.1" xmlns="http://www.w3.org/2000/svg" xmlns:xlink="http://www.w3.org/1999/xlink" xml:space="preserve" onload="init(evt)">
<style type="text/css"><![CDATA[
.edge:hover path { stroke: red; }
.edge:hover polygon { stroke: red; fill: red; }
]]></style>
<script type="text/javascript"><![CDATA[
var edges = document.getElementsByTagName('g');
if (edges && edges.length) {
  for (var i=0;i<edges.length;i++) {
    if (edges[i].id.substr(0,4)=='edge') {
      edges[i].setAttribute('class','edge');
    }
  }
}
]]></script>
        <defs>
                <circle id="rim" cx="0" cy="0" r="7"/>
                <circle id="rim2" cx="0" cy="0" r="3.5"/>
                <g id="zoomPlus">
                        <use xlink:href="#rim" fill="#404040">
                                <set attributeName="fill" to="#808080" begin="zoomplus.mouseover" end="zoomplus.mouseout"/>
                        </use>
                        <path d="M-4,0h8M0,-4v8" fill="none" stroke="white" stroke-width="1.5" pointer-events="none"/>
                </g>
                <g id="zoomMin">
                        <use xlink:href="#rim" fill="#404040">
                                <set attributeName="fill" to="#808080" begin="zoomminus.mouseover" end="zoomminus.mouseout"/>
                        </use>
                        <path d="M-4,0h8" fill="none" stroke="white" stroke-width="1.5" pointer-events="none"/>
                </g>
                <g id="dirArrow">
                        <path fill="none" stroke="white" stroke-width="1.5" d="M0,-3.0v7 M-2.5,-0.5L0,-3.0L2.5,-0.5"/>
                </g>
               <g id="resetDef">
                       <use xlink:href="#rim2" fill="#404040">
                               <set attributeName="fill" to="#808080" begin="reset.mouseover" end="reset.mouseout"/>
                       </use>
               </g>
        </defs>

<script type="text/javascript">
var viewWidth = 606;
var viewHeight = 91;
var sectionId = 'dynsection-13';
</script>
<script xlink:href="svgpan.js"/>
<svg id="graph" class="graph">
<g id="viewport">
<title>Config::load_logger</title>
<!-- Node99 -->
<g id="node1" class="node"><title>Node99</title>
<polygon fill="#bfbfbf" stroke="black" points="0,-28 0,-47 101,-47 101,-28 0,-28"/>
<text text-anchor="middle" x="50.5" y="-35" font-family="Helvetica,sans-Serif" font-size="10.00">Config::load_logger</text>
</g>
<!-- Node100 -->
<g id="node2" class="node"><title>Node100</title>
<g id="a_node2"><a xlink:href="class_config.html#a5ae6c4f7255e895e7384fc2a4baab160" target="_top" xlink:title="Config::endString">
<polygon fill="none" stroke="black" points="259,-47 259,-66 351,-66 351,-47 259,-47"/>
<text text-anchor="middle" x="305" y="-54" font-family="Helvetica,sans-Serif" font-size="10.00">Config::endString</text>
</a>
</g>
</g>
<!-- Node99&#45;&gt;Node100 -->
<g id="edge1" class="edge"><title>Node99&#45;&gt;Node100</title>
<path fill="none" stroke="midnightblue" d="M75.1561,-52.4067C91.7565,-61.9543 114.859,-73.4658 137,-78.5 185.477,-89.5222 243.214,-76.204 276.535,-66.0119"/>
<polygon fill="midnightblue" stroke="midnightblue" points="76.574,-49.1779 66.1898,-47.076 72.9968,-55.1949 76.574,-49.1779"/>
</g>
<!-- Node103 -->
<g id="node5" class="node"><title>Node103</title>
<g id="a_node5"><a xlink:href="class_f_s_m.html#a2fccf1c016c43e4fa4ee512311bf9d7d" target="_top" xlink:title="Class constructor. ">
<polygon fill="none" stroke="black" points="147.5,-50 147.5,-69 212.5,-69 212.5,-50 147.5,-50"/>
<text text-anchor="middle" x="180" y="-57" font-family="Helvetica,sans-Serif" font-size="10.00">FSM::FSM</text>
</a>
</g>
</g>
<!-- Node99&#45;&gt;Node103 -->
<g id="edge4" class="edge"><title>Node99&#45;&gt;Node103</title>
<path fill="none" stroke="midnightblue" d="M111.102,-47.7843C123.603,-49.9413 136.317,-52.1352 147.312,-54.0322"/>
<polygon fill="midnightblue" stroke="midnightblue" points="111.609,-44.3202 101.16,-46.0688 110.419,-51.2182 111.609,-44.3202"/>
</g>
<!-- Node104 -->
<g id="node6" class="node"><title>Node104</title>
<g id="a_node6"><a xlink:href="class_config.html#ad634dbd3d1afb02eac176fd4f0150614" target="_top" xlink:title="Initialize the eeprom memory. ">
<polygon fill="none" stroke="black" points="137,-0.5 137,-30.5 223,-30.5 223,-0.5 137,-0.5"/>
<text text-anchor="start" x="145" y="-18.5" font-family="Helvetica,sans-Serif" font-size="10.00">Config::initialize</text>
<text text-anchor="middle" x="180" y="-7.5" font-family="Helvetica,sans-Serif" font-size="10.00">_logger</text>
</a>
</g>
</g>
<!-- Node99&#45;&gt;Node104 -->
<g id="edge5" class="edge"><title>Node99&#45;&gt;Node104</title>
<path fill="none" stroke="midnightblue" d="M85.3445,-25.6191C101.133,-22.0878 120.085,-18.6997 136.797,-16.3871"/>
<polygon fill="midnightblue" stroke="midnightblue" points="84.4084,-22.2439 75.4818,-27.9505 86.0188,-29.0561 84.4084,-22.2439"/>
</g>
<!-- Node101 -->
<g id="node3" class="node"><title>Node101</title>
<g id="a_node3"><a xlink:href="class_f_s_m.html#a3819be8e9fe92b750f47b9731e92f254" target="_top" xlink:title="Call when a string from usart0 finish by &quot;\r\n&quot;. ">
<polygon fill="none" stroke="black" points="387,-47 387,-66 524,-66 524,-47 387,-47"/>
<text text-anchor="middle" x="455.5" y="-54" font-family="Helvetica,sans-Serif" font-size="10.00">FSM::character_processing</text>
</a>
</g>
</g>
<!-- Node100&#45;&gt;Node101 -->
<g id="edge2" class="edge"><title>Node100&#45;&gt;Node101</title>
<path fill="none" stroke="midnightblue" d="M361.633,-56.5C369.908,-56.5 378.513,-56.5 386.999,-56.5"/>
<polygon fill="midnightblue" stroke="midnightblue" points="361.362,-53.0001 351.362,-56.5 361.362,-60.0001 361.362,-53.0001"/>
</g>
<!-- Node102 -->
<g id="node4" class="node"><title>Node102</title>
<g id="a_node4"><a xlink:href="main_8cpp.html#ae66f6b31b5ad750f1fe042a706a4e3d4" target="_top" xlink:title="main">
<polygon fill="none" stroke="black" points="560,-47 560,-66 598,-66 598,-47 560,-47"/>
<text text-anchor="middle" x="579" y="-54" font-family="Helvetica,sans-Serif" font-size="10.00">main</text>
</a>
</g>
</g>
<!-- Node101&#45;&gt;Node102 -->
<g id="edge3" class="edge"><title>Node101&#45;&gt;Node102</title>
<path fill="none" stroke="midnightblue" d="M534.013,-56.5C543.457,-56.5 552.315,-56.5 559.572,-56.5"/>
<polygon fill="midnightblue" stroke="midnightblue" points="534.001,-53.0001 524.001,-56.5 534.001,-60.0001 534.001,-53.0001"/>
</g>
<!-- Node104&#45;&gt;Node99 -->
<g id="edge7" class="edge"><title>Node104&#45;&gt;Node99</title>
<path fill="none" stroke="midnightblue" d="M126.897,-31.1392C118.393,-32.7557 109.603,-34.2566 101.16,-35.5325"/>
<polygon fill="midnightblue" stroke="midnightblue" points="127.581,-34.5717 136.71,-29.1949 126.221,-27.7052 127.581,-34.5717"/>
</g>
<!-- Node104&#45;&gt;Node100 -->
<g id="edge6" class="edge"><title>Node104&#45;&gt;Node100</title>
<path fill="none" stroke="midnightblue" d="M233.137,-32.879C247.523,-37.6742 262.608,-42.7027 275.145,-46.8817"/>
<polygon fill="midnightblue" stroke="midnightblue" points="233.923,-29.4518 223.33,-29.6099 231.71,-36.0926 233.923,-29.4518"/>
</g>
</g>
</svg>
        <g id="navigator" transform="translate(0 0)" fill="#404254">
                <rect fill="#f2f5e9" fill-opacity="0.5" stroke="#606060" stroke-width=".5" x="0" y="0" width="60" height="60"/>
                <use id="zoomplus" xlink:href="#zoomPlus" x="17" y="9" onmousedown="handleZoom(evt,'in')"/>
                <use id="zoomminus" xlink:href="#zoomMin" x="42" y="9" onmousedown="handleZoom(evt,'out')"/>
                <use id="reset" xlink:href="#resetDef" x="30" y="36" onmousedown="handleReset()"/>
                <g id="arrowUp" xlink:href="#dirArrow" transform="translate(30 24)" onmousedown="handlePan(0,-1)">
                  <use xlink:href="#rim" fill="#404040">
                        <set attributeName="fill" to="#808080" begin="arrowUp.mouseover" end="arrowUp.mouseout"/>
                  </use>
                  <path fill="none" stroke="white" stroke-width="1.5" d="M0,-3.0v7 M-2.5,-0.5L0,-3.0L2.5,-0.5"/>
                </g>
                <g id="arrowRight" xlink:href="#dirArrow" transform="rotate(90) translate(36 -43)" onmousedown="handlePan(1,0)">
                  <use xlink:href="#rim" fill="#404040">
                        <set attributeName="fill" to="#808080" begin="arrowRight.mouseover" end="arrowRight.mouseout"/>
                  </use>
                  <path fill="none" stroke="white" stroke-width="1.5" d="M0,-3.0v7 M-2.5,-0.5L0,-3.0L2.5,-0.5"/>
                </g>
                <g id="arrowDown" xlink:href="#dirArrow" transform="rotate(180) translate(-30 -48)" onmousedown="handlePan(0,1)">
                  <use xlink:href="#rim" fill="#404040">
                        <set attributeName="fill" to="#808080" begin="arrowDown.mouseover" end="arrowDown.mouseout"/>
                  </use>
                  <path fill="none" stroke="white" stroke-width="1.5" d="M0,-3.0v7 M-2.5,-0.5L0,-3.0L2.5,-0.5"/>
                </g>
                <g id="arrowLeft" xlink:href="#dirArrow" transform="rotate(270) translate(-36 17)" onmousedown="handlePan(-1,0)">
                  <use xlink:href="#rim" fill="#404040">
                        <set attributeName="fill" to="#808080" begin="arrowLeft.mouseover" end="arrowLeft.mouseout"/>
                  </use>
                  <path fill="none" stroke="white" stroke-width="1.5" d="M0,-3.0v7 M-2.5,-0.5L0,-3.0L2.5,-0.5"/>
                </g>
        </g>
        <svg viewBox="0 0 15 15" width="100%" height="30px" preserveAspectRatio="xMaxYMin meet">
         <g id="arrow_out" transform="scale(0.3 0.3)">
          <a xlink:href="class_config_ab2f7c3fc31f5a2c4e115860474dd8f55_icgraph_org.svg" target="_base">
           <rect id="button" ry="5" rx="5" y="6" x="6" height="38" width="38"
                fill="#f2f5e9" fill-opacity="0.5" stroke="#606060" stroke-width="1.0"/>
           <path id="arrow"
             d="M 11.500037,31.436501 C 11.940474,20.09759 22.043105,11.32322 32.158766,21.979434 L 37.068811,17.246167 C 37.068811,17.246167 37.088388,32 37.088388,32 L 22.160133,31.978069 C 22.160133,31.978069 26.997745,27.140456 26.997745,27.140456 C 18.528582,18.264221 13.291696,25.230495 11.500037,31.436501 z"
             style="fill:#404040;"/>
          </a>
         </g>
        </svg>
</svg>
