<?xml version="1.0" encoding="UTF-8" standalone="no"?>
<!DOCTYPE svg PUBLIC "-//W3C//DTD SVG 1.1//EN"
 "http://www.w3.org/Graphics/SVG/1.1/DTD/svg11.dtd">
<!-- Generated by graphviz version 2.38.0 (20140413.2041)
 -->
<!-- Title: Power::set_i_offset Pages: 1 -->
<svg width="396pt" height="408pt"
 viewBox="0.00 0.00 396.00 408.00" xmlns="http://www.w3.org/2000/svg" xmlns:xlink="http://www.w3.org/1999/xlink">
<g id="graph0" class="graph" transform="scale(1 1) rotate(0) translate(4 404)">
<title>Power::set_i_offset</title>
<!-- Node81 -->
<g id="node1" class="node"><title>Node81</title>
<polygon fill="#bfbfbf" stroke="black" points="0,-190.5 0,-209.5 101,-209.5 101,-190.5 0,-190.5"/>
<text text-anchor="middle" x="50.5" y="-197.5" font-family="Helvetica,sans-Serif" font-size="10.00">Power::set_i_offset</text>
</g>
<!-- Node82 -->
<g id="node2" class="node"><title>Node82</title>
<g id="a_node2"><a xlink:href="class_power.html#a09a87034c397af2cfb7289fe1fbe5830" target="_top" xlink:title="This method calculate the mean RMS voltage, mean RMS current, active power, apparent power and power ...">
<polygon fill="none" stroke="black" points="155.5,-380.5 155.5,-399.5 238.5,-399.5 238.5,-380.5 155.5,-380.5"/>
<text text-anchor="middle" x="197" y="-387.5" font-family="Helvetica,sans-Serif" font-size="10.00">Power::calc_all</text>
</a>
</g>
</g>
<!-- Node81&#45;&gt;Node82 -->
<g id="edge1" class="edge"><title>Node81&#45;&gt;Node82</title>
<path fill="none" stroke="midnightblue" d="M53.5708,-209.765C60.2343,-238.797 83.8589,-325.384 137,-371 139.82,-373.42 142.952,-375.533 146.262,-377.378"/>
<polygon fill="midnightblue" stroke="midnightblue" points="144.805,-380.561 155.343,-381.661 147.791,-374.23 144.805,-380.561"/>
</g>
<!-- Node83 -->
<g id="node3" class="node"><title>Node83</title>
<g id="a_node3"><a xlink:href="class_power.html#ab6160d70ae5088f1923347e1e2c4a62a" target="_top" xlink:title="Initialize the eeprom memory. ">
<polygon fill="none" stroke="black" points="138,-342.5 138,-361.5 256,-361.5 256,-342.5 138,-342.5"/>
<text text-anchor="middle" x="197" y="-349.5" font-family="Helvetica,sans-Serif" font-size="10.00">Power::initialize_param</text>
</a>
</g>
</g>
<!-- Node81&#45;&gt;Node83 -->
<g id="edge2" class="edge"><title>Node81&#45;&gt;Node83</title>
<path fill="none" stroke="midnightblue" d="M55.0166,-209.648C64.399,-234.047 92.3906,-298.699 137,-333 139.438,-334.875 142.067,-336.567 144.814,-338.096"/>
<polygon fill="midnightblue" stroke="midnightblue" points="143.367,-341.283 153.899,-342.438 146.385,-334.968 143.367,-341.283"/>
</g>
<!-- Node84 -->
<g id="node4" class="node"><title>Node84</title>
<g id="a_node4"><a xlink:href="class_power.html#a56a921dc1756f980b6b28e024f2c913c" target="_top" xlink:title="Load saved parameters for sensors from the eeprom. ">
<polygon fill="none" stroke="black" points="146.5,-304.5 146.5,-323.5 247.5,-323.5 247.5,-304.5 146.5,-304.5"/>
<text text-anchor="middle" x="197" y="-311.5" font-family="Helvetica,sans-Serif" font-size="10.00">Power::load_param</text>
</a>
</g>
</g>
<!-- Node81&#45;&gt;Node84 -->
<g id="edge3" class="edge"><title>Node81&#45;&gt;Node84</title>
<path fill="none" stroke="midnightblue" d="M58.4502,-209.69C71.815,-227.715 102.817,-266.68 137,-290 142.831,-293.978 149.421,-297.464 156.031,-300.456"/>
<polygon fill="midnightblue" stroke="midnightblue" points="155.066,-303.847 165.642,-304.487 157.774,-297.392 155.066,-303.847"/>
</g>
<!-- Node85 -->
<g id="node5" class="node"><title>Node85</title>
<g id="a_node5"><a xlink:href="class_power.html#a3a915a3ea9b9017cae450959ef8af3de" target="_top" xlink:title="Power::print">
<polygon fill="none" stroke="black" points="306,-247.5 306,-266.5 375,-266.5 375,-247.5 306,-247.5"/>
<text text-anchor="middle" x="340.5" y="-254.5" font-family="Helvetica,sans-Serif" font-size="10.00">Power::print</text>
</a>
</g>
</g>
<!-- Node81&#45;&gt;Node85 -->
<g id="edge4" class="edge"><title>Node81&#45;&gt;Node85</title>
<path fill="none" stroke="midnightblue" d="M61.5061,-209.628C76.4817,-223.295 106.266,-247.694 137,-257 189.732,-272.966 253.791,-269.384 295.547,-264.204"/>
<polygon fill="midnightblue" stroke="midnightblue" points="296.208,-267.647 305.662,-262.864 295.289,-260.708 296.208,-267.647"/>
</g>
<!-- Node86 -->
<g id="node6" class="node"><title>Node86</title>
<g id="a_node6"><a xlink:href="class_power.html#a6c1622c43b34a31d8929674b33433c20" target="_top" xlink:title="The print_average method print the average&#39;s value in the string. ">
<polygon fill="none" stroke="black" points="142.5,-76.5 142.5,-95.5 251.5,-95.5 251.5,-76.5 142.5,-76.5"/>
<text text-anchor="middle" x="197" y="-83.5" font-family="Helvetica,sans-Serif" font-size="10.00">Power::print_average</text>
</a>
</g>
</g>
<!-- Node81&#45;&gt;Node86 -->
<g id="edge5" class="edge"><title>Node81&#45;&gt;Node86</title>
<path fill="none" stroke="midnightblue" d="M57.5642,-190.395C70.0845,-171.33 100.684,-128.523 137,-105 140.119,-102.98 143.47,-101.159 146.934,-99.5205"/>
<polygon fill="midnightblue" stroke="midnightblue" points="148.417,-102.694 156.283,-95.5971 145.708,-96.2391 148.417,-102.694"/>
</g>
<!-- Node87 -->
<g id="node7" class="node"><title>Node87</title>
<g id="a_node7"><a xlink:href="class_power.html#afd1c8cab1d4549eb45be61bdd34ae97d" target="_top" xlink:title="This method print the configuration for the power measurement. It&#39;s a good idea to overload this func...">
<polygon fill="none" stroke="black" points="146.5,-228.5 146.5,-247.5 247.5,-247.5 247.5,-228.5 146.5,-228.5"/>
<text text-anchor="middle" x="197" y="-235.5" font-family="Helvetica,sans-Serif" font-size="10.00">Power::print_config</text>
</a>
</g>
</g>
<!-- Node81&#45;&gt;Node87 -->
<g id="edge6" class="edge"><title>Node81&#45;&gt;Node87</title>
<path fill="none" stroke="midnightblue" d="M87.9635,-209.589C106.774,-214.536 129.915,-220.621 149.947,-225.889"/>
<polygon fill="midnightblue" stroke="midnightblue" points="149.237,-229.322 159.799,-228.48 151.018,-222.552 149.237,-229.322"/>
</g>
<!-- Node89 -->
<g id="node9" class="node"><title>Node89</title>
<g id="a_node9"><a xlink:href="class_power.html#acd77541eabe8feb58e0b73154268cdd2" target="_top" xlink:title="Power::print_data_array">
<polygon fill="none" stroke="black" points="137,-152.5 137,-171.5 257,-171.5 257,-152.5 137,-152.5"/>
<text text-anchor="middle" x="197" y="-159.5" font-family="Helvetica,sans-Serif" font-size="10.00">Power::print_data_array</text>
</a>
</g>
</g>
<!-- Node81&#45;&gt;Node89 -->
<g id="edge9" class="edge"><title>Node81&#45;&gt;Node89</title>
<path fill="none" stroke="midnightblue" d="M87.9635,-190.411C106.774,-185.464 129.915,-179.379 149.947,-174.111"/>
<polygon fill="midnightblue" stroke="midnightblue" points="151.018,-177.448 159.799,-171.52 149.237,-170.678 151.018,-177.448"/>
</g>
<!-- Node91 -->
<g id="node11" class="node"><title>Node91</title>
<g id="a_node11"><a xlink:href="class_power.html#a50f94a7bfd7a6d2aff52d4ed003c2cd6" target="_top" xlink:title="Power::read_dc_value">
<polygon fill="none" stroke="black" points="140.5,-38.5 140.5,-57.5 253.5,-57.5 253.5,-38.5 140.5,-38.5"/>
<text text-anchor="middle" x="197" y="-45.5" font-family="Helvetica,sans-Serif" font-size="10.00">Power::read_dc_value</text>
</a>
</g>
</g>
<!-- Node81&#45;&gt;Node91 -->
<g id="edge12" class="edge"><title>Node81&#45;&gt;Node91</title>
<path fill="none" stroke="midnightblue" d="M55.0166,-190.352C64.399,-165.953 92.3906,-101.301 137,-67 139.438,-65.1254 142.067,-63.4326 144.814,-61.9043"/>
<polygon fill="midnightblue" stroke="midnightblue" points="146.385,-65.0323 153.899,-57.5622 143.367,-58.7166 146.385,-65.0323"/>
</g>
<!-- Node92 -->
<g id="node12" class="node"><title>Node92</title>
<g id="a_node12"><a xlink:href="class_power.html#ace64df3181f3dfce89b8a1f8608e16eb" target="_top" xlink:title="Power::read_rms_value">
<polygon fill="none" stroke="black" points="137.5,-114.5 137.5,-133.5 256.5,-133.5 256.5,-114.5 137.5,-114.5"/>
<text text-anchor="middle" x="197" y="-121.5" font-family="Helvetica,sans-Serif" font-size="10.00">Power::read_rms_value</text>
</a>
</g>
</g>
<!-- Node81&#45;&gt;Node92 -->
<g id="edge13" class="edge"><title>Node81&#45;&gt;Node92</title>
<path fill="none" stroke="midnightblue" d="M63.5928,-190.356C79.5929,-177.978 109.046,-156.496 137,-143 141.431,-140.861 146.16,-138.88 150.941,-137.069"/>
<polygon fill="midnightblue" stroke="midnightblue" points="152.491,-140.233 160.747,-133.593 150.152,-133.635 152.491,-140.233"/>
</g>
<!-- Node94 -->
<g id="node14" class="node"><title>Node94</title>
<g id="a_node14"><a xlink:href="class_power.html#a50a207b74105ff65f34f8f8917eed65f" target="_top" xlink:title="Reads the VCC used during the ADC conversion. ">
<polygon fill="none" stroke="black" points="154,-190.5 154,-209.5 240,-209.5 240,-190.5 154,-190.5"/>
<text text-anchor="middle" x="197" y="-197.5" font-family="Helvetica,sans-Serif" font-size="10.00">Power::readVcc</text>
</a>
</g>
</g>
<!-- Node81&#45;&gt;Node94 -->
<g id="edge16" class="edge"><title>Node81&#45;&gt;Node94</title>
<path fill="none" stroke="midnightblue" d="M101.229,-200C114.89,-200 129.746,-200 143.555,-200"/>
<polygon fill="midnightblue" stroke="midnightblue" points="143.874,-203.5 153.874,-200 143.874,-196.5 143.874,-203.5"/>
</g>
<!-- Node95 -->
<g id="node15" class="node"><title>Node95</title>
<g id="a_node15"><a xlink:href="class_power.html#a5ccffd2344ef9aefbcdb780187d38ca3" target="_top" xlink:title="Update saved parameters for sensors in the eeprom. ">
<polygon fill="none" stroke="black" points="141,-0.5 141,-19.5 253,-19.5 253,-0.5 141,-0.5"/>
<text text-anchor="middle" x="197" y="-7.5" font-family="Helvetica,sans-Serif" font-size="10.00">Power::update_param</text>
</a>
</g>
</g>
<!-- Node81&#45;&gt;Node95 -->
<g id="edge18" class="edge"><title>Node81&#45;&gt;Node95</title>
<path fill="none" stroke="midnightblue" d="M53.5708,-190.235C60.2343,-161.203 83.8589,-74.6161 137,-29 138.965,-27.3134 141.081,-25.7761 143.304,-24.3747"/>
<polygon fill="midnightblue" stroke="midnightblue" points="145.1,-27.3842 152.305,-19.6163 141.829,-21.1957 145.1,-27.3842"/>
</g>
<!-- Node87&#45;&gt;Node85 -->
<g id="edge8" class="edge"><title>Node87&#45;&gt;Node85</title>
<path fill="none" stroke="midnightblue" d="M247.888,-244.699C263.403,-246.782 280.389,-249.063 295.475,-251.088"/>
<polygon fill="midnightblue" stroke="midnightblue" points="295.197,-254.582 305.573,-252.444 296.128,-247.645 295.197,-254.582"/>
</g>
<!-- Node88 -->
<g id="node8" class="node"><title>Node88</title>
<g id="a_node8"><a xlink:href="class_usart.html#ab236d7c399791bbe1431f85e9b60f601" target="_top" xlink:title="USART string sender function. ">
<polygon fill="none" stroke="black" points="308,-190.5 308,-209.5 373,-209.5 373,-190.5 308,-190.5"/>
<text text-anchor="middle" x="340.5" y="-197.5" font-family="Helvetica,sans-Serif" font-size="10.00">Usart::print</text>
</a>
</g>
</g>
<!-- Node87&#45;&gt;Node88 -->
<g id="edge7" class="edge"><title>Node87&#45;&gt;Node88</title>
<path fill="none" stroke="midnightblue" d="M233.706,-228.411C253.266,-223.158 277.606,-216.622 298.007,-211.143"/>
<polygon fill="midnightblue" stroke="midnightblue" points="298.917,-214.523 307.667,-208.549 297.102,-207.762 298.917,-214.523"/>
</g>
<!-- Node89&#45;&gt;Node88 -->
<g id="edge10" class="edge"><title>Node89&#45;&gt;Node88</title>
<path fill="none" stroke="midnightblue" d="M233.706,-171.589C253.266,-176.842 277.606,-183.378 298.007,-188.857"/>
<polygon fill="midnightblue" stroke="midnightblue" points="297.102,-192.238 307.667,-191.451 298.917,-185.477 297.102,-192.238"/>
</g>
<!-- Node90 -->
<g id="node10" class="node"><title>Node90</title>
<g id="a_node10"><a xlink:href="class_usart.html#a86c9264f48dabbc3d97fa32d2d02d22d" target="_top" xlink:title="USART char sender function. ">
<polygon fill="none" stroke="black" points="310.5,-152.5 310.5,-171.5 370.5,-171.5 370.5,-152.5 310.5,-152.5"/>
<text text-anchor="middle" x="340.5" y="-159.5" font-family="Helvetica,sans-Serif" font-size="10.00">Usart::set</text>
</a>
</g>
</g>
<!-- Node89&#45;&gt;Node90 -->
<g id="edge11" class="edge"><title>Node89&#45;&gt;Node90</title>
<path fill="none" stroke="midnightblue" d="M257.189,-162C271.65,-162 286.774,-162 300.054,-162"/>
<polygon fill="midnightblue" stroke="midnightblue" points="300.262,-165.5 310.262,-162 300.262,-158.5 300.262,-165.5"/>
</g>
<!-- Node92&#45;&gt;Node88 -->
<g id="edge15" class="edge"><title>Node92&#45;&gt;Node88</title>
<path fill="none" stroke="midnightblue" d="M237.326,-133.608C244.157,-136.119 250.99,-139.215 257,-143 276.686,-155.397 273.801,-167.861 293,-181 295.58,-182.765 298.348,-184.409 301.203,-185.93"/>
<polygon fill="midnightblue" stroke="midnightblue" points="299.954,-189.212 310.485,-190.371 302.975,-182.898 299.954,-189.212"/>
</g>
<!-- Node93 -->
<g id="node13" class="node"><title>Node93</title>
<g id="a_node13"><a xlink:href="class_power.html#a1e33445a6a18766a77c5304292efcb4f" target="_top" xlink:title="This method read return int value from the ADC channel. ">
<polygon fill="none" stroke="black" points="293,-114.5 293,-133.5 388,-133.5 388,-114.5 293,-114.5"/>
<text text-anchor="middle" x="340.5" y="-121.5" font-family="Helvetica,sans-Serif" font-size="10.00">Power::adc_value</text>
</a>
</g>
</g>
<!-- Node92&#45;&gt;Node93 -->
<g id="edge14" class="edge"><title>Node92&#45;&gt;Node93</title>
<path fill="none" stroke="midnightblue" d="M256.779,-124C265.309,-124 274.077,-124 282.569,-124"/>
<polygon fill="midnightblue" stroke="midnightblue" points="282.756,-127.5 292.756,-124 282.755,-120.5 282.756,-127.5"/>
</g>
<!-- Node94&#45;&gt;Node88 -->
<g id="edge17" class="edge"><title>Node94&#45;&gt;Node88</title>
<path fill="none" stroke="midnightblue" d="M240.072,-200C258.271,-200 279.518,-200 297.688,-200"/>
<polygon fill="midnightblue" stroke="midnightblue" points="297.705,-203.5 307.705,-200 297.705,-196.5 297.705,-203.5"/>
</g>
</g>
</svg>
