<?xml version="1.0" encoding="UTF-8" standalone="no"?>
<!DOCTYPE svg PUBLIC "-//W3C//DTD SVG 1.1//EN"
 "http://www.w3.org/Graphics/SVG/1.1/DTD/svg11.dtd">
<!-- Generated by graphviz version 2.38.0 (20140413.2041)
 -->
<!-- Title: Config::load_logger Pages: 1 -->
<svg width="379pt" height="39pt"
 viewBox="0.00 0.00 379.00 39.00" xmlns="http://www.w3.org/2000/svg" xmlns:xlink="http://www.w3.org/1999/xlink">
<g id="graph0" class="graph" transform="scale(1 1) rotate(0) translate(4 35)">
<title>Config::load_logger</title>
<!-- Node96 -->
<g id="node1" class="node"><title>Node96</title>
<polygon fill="#bfbfbf" stroke="black" points="0,-6 0,-25 101,-25 101,-6 0,-6"/>
<text text-anchor="middle" x="50.5" y="-13" font-family="Helvetica,sans-Serif" font-size="10.00">Config::load_logger</text>
</g>
<!-- Node97 -->
<g id="node2" class="node"><title>Node97</title>
<g id="a_node2"><a xlink:href="class_config.html#ad634dbd3d1afb02eac176fd4f0150614" target="_top" xlink:title="Initialize the eeprom memory. ">
<polygon fill="none" stroke="black" points="137,-0.5 137,-30.5 223,-30.5 223,-0.5 137,-0.5"/>
<text text-anchor="start" x="145" y="-18.5" font-family="Helvetica,sans-Serif" font-size="10.00">Config::initialize</text>
<text text-anchor="middle" x="180" y="-7.5" font-family="Helvetica,sans-Serif" font-size="10.00">_logger</text>
</a>
</g>
</g>
<!-- Node96&#45;&gt;Node97 -->
<g id="edge1" class="edge"><title>Node96&#45;&gt;Node97</title>
<path fill="none" stroke="midnightblue" d="M101.16,-8.89873C109.511,-8.71978 118.202,-8.70231 126.62,-8.84634"/>
<polygon fill="midnightblue" stroke="midnightblue" points="126.625,-12.3475 136.71,-9.1021 126.802,-5.34975 126.625,-12.3475"/>
</g>
<!-- Node97&#45;&gt;Node96 -->
<g id="edge2" class="edge"><title>Node97&#45;&gt;Node96</title>
<path fill="none" stroke="midnightblue" d="M136.71,-21.8979C128.527,-22.1763 119.81,-22.2896 111.193,-22.2378"/>
<polygon fill="midnightblue" stroke="midnightblue" points="111.207,-18.7378 101.16,-22.1013 111.111,-25.7371 111.207,-18.7378"/>
</g>
<!-- Node98 -->
<g id="node3" class="node"><title>Node98</title>
<g id="a_node3"><a xlink:href="class_config.html#a4cda6b3fcf08b798afe3bf1311450b0c" target="_top" xlink:title="Update saved config data in the eeprom. ">
<polygon fill="none" stroke="black" points="259,-6 259,-25 371,-25 371,-6 259,-6"/>
<text text-anchor="middle" x="315" y="-13" font-family="Helvetica,sans-Serif" font-size="10.00">Config::update_logger</text>
</a>
</g>
</g>
<!-- Node97&#45;&gt;Node98 -->
<g id="edge3" class="edge"><title>Node97&#45;&gt;Node98</title>
<path fill="none" stroke="midnightblue" d="M223.082,-15.5C231.178,-15.5 239.834,-15.5 248.468,-15.5"/>
<polygon fill="midnightblue" stroke="midnightblue" points="248.559,-19.0001 258.559,-15.5 248.559,-12.0001 248.559,-19.0001"/>
</g>
</g>
</svg>
