<?xml version="1.0" encoding="UTF-8" standalone="no"?>
<!DOCTYPE svg PUBLIC "-//W3C//DTD SVG 1.1//EN"
 "http://www.w3.org/Graphics/SVG/1.1/DTD/svg11.dtd">
<!-- Generated by graphviz version 2.38.0 (20140413.2041)
 -->
<!-- Title: FSM::character_processing Pages: 1 -->
<svg width="686pt" height="382pt"
 viewBox="0.00 0.00 686.00 382.00" xmlns="http://www.w3.org/2000/svg" xmlns:xlink="http://www.w3.org/1999/xlink">
<g id="graph0" class="graph" transform="scale(1 1) rotate(0) translate(4 378)">
<title>FSM::character_processing</title>
<!-- Node8 -->
<g id="node1" class="node"><title>Node8</title>
<polygon fill="#bfbfbf" stroke="black" points="0,-76.5 0,-95.5 137,-95.5 137,-76.5 0,-76.5"/>
<text text-anchor="middle" x="68.5" y="-83.5" font-family="Helvetica,sans-Serif" font-size="10.00">FSM::character_processing</text>
</g>
<!-- Node9 -->
<g id="node2" class="node"><title>Node9</title>
<g id="a_node2"><a xlink:href="class_config.html#a3f8d043789557191686ae632ebe6a571" target="_top" xlink:title="add c to the end of request ">
<polygon fill="none" stroke="black" points="307,-354.5 307,-373.5 422,-373.5 422,-354.5 307,-354.5"/>
<text text-anchor="middle" x="364.5" y="-361.5" font-family="Helvetica,sans-Serif" font-size="10.00">Config::addToRequest</text>
</a>
</g>
</g>
<!-- Node8&#45;&gt;Node9 -->
<g id="edge1" class="edge"><title>Node8&#45;&gt;Node9</title>
<path fill="none" stroke="midnightblue" d="M73.2526,-95.6699C84.5365,-123.717 120.639,-206.315 173,-257 218.923,-301.453 286.918,-333.742 328.038,-350.622"/>
<polygon fill="midnightblue" stroke="midnightblue" points="326.8,-353.897 337.384,-354.383 329.413,-347.403 326.8,-353.897"/>
</g>
<!-- Node10 -->
<g id="node3" class="node"><title>Node10</title>
<g id="a_node3"><a xlink:href="class_config.html#aad107d2aa88bbf57a728ec0c650a6f84" target="_top" xlink:title="Config::backspace">
<polygon fill="none" stroke="black" points="173,-38.5 173,-57.5 271,-57.5 271,-38.5 173,-38.5"/>
<text text-anchor="middle" x="222" y="-45.5" font-family="Helvetica,sans-Serif" font-size="10.00">Config::backspace</text>
</a>
</g>
</g>
<!-- Node8&#45;&gt;Node10 -->
<g id="edge2" class="edge"><title>Node8&#45;&gt;Node10</title>
<path fill="none" stroke="midnightblue" d="M107.73,-76.411C127.632,-71.4191 152.157,-65.2676 173.291,-59.9666"/>
<polygon fill="midnightblue" stroke="midnightblue" points="174.197,-63.3479 183.045,-57.5201 172.494,-56.5582 174.197,-63.3479"/>
</g>
<!-- Node11 -->
<g id="node4" class="node"><title>Node11</title>
<g id="a_node4"><a xlink:href="class_config.html#a5ae6c4f7255e895e7384fc2a4baab160" target="_top" xlink:title="Config::endString">
<polygon fill="none" stroke="black" points="176,-228.5 176,-247.5 268,-247.5 268,-228.5 176,-228.5"/>
<text text-anchor="middle" x="222" y="-235.5" font-family="Helvetica,sans-Serif" font-size="10.00">Config::endString</text>
</a>
</g>
</g>
<!-- Node8&#45;&gt;Node11 -->
<g id="edge3" class="edge"><title>Node8&#45;&gt;Node11</title>
<path fill="none" stroke="midnightblue" d="M78.977,-95.5083C104.059,-120.673 172.425,-189.265 204.267,-221.212"/>
<polygon fill="midnightblue" stroke="midnightblue" points="201.988,-223.883 211.527,-228.495 206.946,-218.942 201.988,-223.883"/>
</g>
<!-- Node14 -->
<g id="node7" class="node"><title>Node14</title>
<g id="a_node7"><a xlink:href="class_usart.html#ab236d7c399791bbe1431f85e9b60f601" target="_top" xlink:title="USART string sender function. ">
<polygon fill="none" stroke="black" points="609.5,-152.5 609.5,-171.5 674.5,-171.5 674.5,-152.5 609.5,-152.5"/>
<text text-anchor="middle" x="642" y="-159.5" font-family="Helvetica,sans-Serif" font-size="10.00">Usart::print</text>
</a>
</g>
</g>
<!-- Node8&#45;&gt;Node14 -->
<g id="edge22" class="edge"><title>Node8&#45;&gt;Node14</title>
<path fill="none" stroke="midnightblue" d="M137.214,-86.9531C234.29,-89.593 418.065,-99.3464 570,-135 583.778,-138.233 598.481,-143.5 610.912,-148.528"/>
<polygon fill="midnightblue" stroke="midnightblue" points="609.757,-151.838 620.334,-152.465 612.456,-145.38 609.757,-151.838"/>
</g>
<!-- Node23 -->
<g id="node16" class="node"><title>Node23</title>
<g id="a_node16"><a xlink:href="class_usart.html#a86c9264f48dabbc3d97fa32d2d02d22d" target="_top" xlink:title="USART char sender function. ">
<polygon fill="none" stroke="black" points="192,-0.5 192,-19.5 252,-19.5 252,-0.5 192,-0.5"/>
<text text-anchor="middle" x="222" y="-7.5" font-family="Helvetica,sans-Serif" font-size="10.00">Usart::set</text>
</a>
</g>
</g>
<!-- Node8&#45;&gt;Node23 -->
<g id="edge23" class="edge"><title>Node8&#45;&gt;Node23</title>
<path fill="none" stroke="midnightblue" d="M85.3072,-76.4723C105.331,-64.5964 141.08,-44.0334 173,-29 177.078,-27.0793 181.407,-25.1799 185.73,-23.3676"/>
<polygon fill="midnightblue" stroke="midnightblue" points="187.14,-26.5727 195.086,-19.5647 184.504,-20.0879 187.14,-26.5727"/>
</g>
<!-- Node11&#45;&gt;Node9 -->
<g id="edge4" class="edge"><title>Node11&#45;&gt;Node9</title>
<path fill="none" stroke="midnightblue" d="M228.744,-247.747C240.878,-267.593 270.983,-313.084 307,-340 312.21,-343.894 318.147,-347.295 324.169,-350.217"/>
<polygon fill="midnightblue" stroke="midnightblue" points="323.049,-353.549 333.608,-354.417 325.894,-347.154 323.049,-353.549"/>
</g>
<!-- Node12 -->
<g id="node5" class="node"><title>Node12</title>
<g id="a_node5"><a xlink:href="class_config.html#a890e1d585e9ae670a6cccaf196250870" target="_top" xlink:title="Config::atoc">
<polygon fill="none" stroke="black" points="329.5,-190.5 329.5,-209.5 399.5,-209.5 399.5,-190.5 329.5,-190.5"/>
<text text-anchor="middle" x="364.5" y="-197.5" font-family="Helvetica,sans-Serif" font-size="10.00">Config::atoc</text>
</a>
</g>
</g>
<!-- Node11&#45;&gt;Node12 -->
<g id="edge5" class="edge"><title>Node11&#45;&gt;Node12</title>
<path fill="none" stroke="midnightblue" d="M258.454,-228.411C276.868,-223.431 299.55,-217.296 319.118,-212.004"/>
<polygon fill="midnightblue" stroke="midnightblue" points="320.289,-215.313 329.029,-209.323 318.462,-208.555 320.289,-215.313"/>
</g>
<!-- Node13 -->
<g id="node6" class="node"><title>Node13</title>
<g id="a_node6"><a xlink:href="class_config.html#a975933ecde91dc436d4ca39464cfd25f" target="_top" xlink:title="display all config on USART0 ">
<polygon fill="none" stroke="black" points="323.5,-152.5 323.5,-171.5 405.5,-171.5 405.5,-152.5 323.5,-152.5"/>
<text text-anchor="middle" x="364.5" y="-159.5" font-family="Helvetica,sans-Serif" font-size="10.00">Config::display</text>
</a>
</g>
</g>
<!-- Node11&#45;&gt;Node13 -->
<g id="edge6" class="edge"><title>Node11&#45;&gt;Node13</title>
<path fill="none" stroke="midnightblue" d="M234.878,-228.395C250.594,-216.059 279.526,-194.622 307,-181 311.294,-178.871 315.883,-176.89 320.521,-175.074"/>
<polygon fill="midnightblue" stroke="midnightblue" points="321.848,-178.316 330.028,-171.583 319.435,-171.745 321.848,-178.316"/>
</g>
<!-- Node20 -->
<g id="node13" class="node"><title>Node20</title>
<g id="a_node13"><a xlink:href="class_config.html#ad634dbd3d1afb02eac176fd4f0150614" target="_top" xlink:title="Initialize the eeprom memory. ">
<polygon fill="none" stroke="black" points="321.5,-267 321.5,-297 407.5,-297 407.5,-267 321.5,-267"/>
<text text-anchor="start" x="329.5" y="-285" font-family="Helvetica,sans-Serif" font-size="10.00">Config::initialize</text>
<text text-anchor="middle" x="364.5" y="-274" font-family="Helvetica,sans-Serif" font-size="10.00">_logger</text>
</a>
</g>
</g>
<!-- Node11&#45;&gt;Node20 -->
<g id="edge16" class="edge"><title>Node11&#45;&gt;Node20</title>
<path fill="none" stroke="midnightblue" d="M253.486,-247.547C270.471,-252.866 292.079,-259.633 311.641,-265.759"/>
<polygon fill="midnightblue" stroke="midnightblue" points="310.759,-269.151 321.348,-268.799 312.851,-262.471 310.759,-269.151"/>
</g>
<!-- Node21 -->
<g id="node14" class="node"><title>Node21</title>
<g id="a_node14"><a xlink:href="class_config.html#ab2f7c3fc31f5a2c4e115860474dd8f55" target="_top" xlink:title="Load saved config data from the eeprom. ">
<polygon fill="none" stroke="black" points="463.5,-304.5 463.5,-323.5 564.5,-323.5 564.5,-304.5 463.5,-304.5"/>
<text text-anchor="middle" x="514" y="-311.5" font-family="Helvetica,sans-Serif" font-size="10.00">Config::load_logger</text>
</a>
</g>
</g>
<!-- Node11&#45;&gt;Node21 -->
<g id="edge20" class="edge"><title>Node11&#45;&gt;Node21</title>
<path fill="none" stroke="midnightblue" d="M230.821,-247.62C244.379,-263.466 273.981,-294.541 307,-307 353.859,-324.682 411.054,-325.122 453.278,-321.888"/>
<polygon fill="midnightblue" stroke="midnightblue" points="453.737,-325.361 463.402,-321.021 453.14,-318.387 453.737,-325.361"/>
</g>
<!-- Node22 -->
<g id="node15" class="node"><title>Node22</title>
<g id="a_node15"><a xlink:href="class_config.html#a4cda6b3fcf08b798afe3bf1311450b0c" target="_top" xlink:title="Update saved config data in the eeprom. ">
<polygon fill="none" stroke="black" points="458,-266.5 458,-285.5 570,-285.5 570,-266.5 458,-266.5"/>
<text text-anchor="middle" x="514" y="-273.5" font-family="Helvetica,sans-Serif" font-size="10.00">Config::update_logger</text>
</a>
</g>
</g>
<!-- Node11&#45;&gt;Node22 -->
<g id="edge21" class="edge"><title>Node11&#45;&gt;Node22</title>
<path fill="none" stroke="midnightblue" d="M268.201,-241.31C308.635,-244.564 369.453,-250.181 422,-258 434.071,-259.796 446.97,-262.106 459.149,-264.469"/>
<polygon fill="midnightblue" stroke="midnightblue" points="458.686,-267.945 469.175,-266.455 460.046,-261.078 458.686,-267.945"/>
</g>
<!-- Node13&#45;&gt;Node14 -->
<g id="edge7" class="edge"><title>Node13&#45;&gt;Node14</title>
<path fill="none" stroke="midnightblue" d="M403.037,-152.49C419.744,-148.726 439.732,-144.857 458,-143 507.523,-137.966 520.647,-136.511 570,-143 580.738,-144.412 592.16,-146.976 602.632,-149.773"/>
<polygon fill="midnightblue" stroke="midnightblue" points="601.754,-153.162 612.328,-152.497 603.647,-146.423 601.754,-153.162"/>
</g>
<!-- Node15 -->
<g id="node8" class="node"><title>Node15</title>
<g id="a_node8"><a xlink:href="class_sensor.html#a0e1288d8b8594192f9d65819c185764f" target="_top" xlink:title="This method print the sensor configuration for the sensor. It&#39;s a good idea to overload this function...">
<polygon fill="none" stroke="black" points="462,-190.5 462,-209.5 566,-209.5 566,-190.5 462,-190.5"/>
<text text-anchor="middle" x="514" y="-197.5" font-family="Helvetica,sans-Serif" font-size="10.00">Sensor::print_config</text>
</a>
</g>
</g>
<!-- Node13&#45;&gt;Node15 -->
<g id="edge8" class="edge"><title>Node13&#45;&gt;Node15</title>
<path fill="none" stroke="midnightblue" d="M402.72,-171.589C422.009,-176.558 445.758,-182.677 466.271,-187.961"/>
<polygon fill="midnightblue" stroke="midnightblue" points="465.49,-191.374 476.047,-190.48 467.237,-184.596 465.49,-191.374"/>
</g>
<!-- Node17 -->
<g id="node10" class="node"><title>Node17</title>
<g id="a_node10"><a xlink:href="class_r_t_c.html#a59f014e14e774bf372dcf0d5d64e6717" target="_top" xlink:title="RTC::print_config">
<polygon fill="none" stroke="black" points="467,-152.5 467,-171.5 561,-171.5 561,-152.5 467,-152.5"/>
<text text-anchor="middle" x="514" y="-159.5" font-family="Helvetica,sans-Serif" font-size="10.00">RTC::print_config</text>
</a>
</g>
</g>
<!-- Node13&#45;&gt;Node17 -->
<g id="edge11" class="edge"><title>Node13&#45;&gt;Node17</title>
<path fill="none" stroke="midnightblue" d="M405.805,-162C421.416,-162 439.563,-162 456.438,-162"/>
<polygon fill="midnightblue" stroke="midnightblue" points="456.747,-165.5 466.747,-162 456.747,-158.5 456.747,-165.5"/>
</g>
<!-- Node18 -->
<g id="node11" class="node"><title>Node18</title>
<g id="a_node11"><a xlink:href="class_power.html#afd1c8cab1d4549eb45be61bdd34ae97d" target="_top" xlink:title="This method print the configuration for the power measurement. It&#39;s a good idea to overload this func...">
<polygon fill="none" stroke="black" points="463.5,-228.5 463.5,-247.5 564.5,-247.5 564.5,-228.5 463.5,-228.5"/>
<text text-anchor="middle" x="514" y="-235.5" font-family="Helvetica,sans-Serif" font-size="10.00">Power::print_config</text>
</a>
</g>
</g>
<!-- Node13&#45;&gt;Node18 -->
<g id="edge13" class="edge"><title>Node13&#45;&gt;Node18</title>
<path fill="none" stroke="midnightblue" d="M402.563,-171.562C409.303,-174.096 416.069,-177.212 422,-181 441.606,-193.523 438.445,-206.396 458,-219 461.113,-221.006 464.462,-222.827 467.915,-224.475"/>
<polygon fill="midnightblue" stroke="midnightblue" points="466.64,-227.737 477.212,-228.442 469.387,-221.298 466.64,-227.737"/>
</g>
<!-- Node15&#45;&gt;Node14 -->
<g id="edge9" class="edge"><title>Node15&#45;&gt;Node14</title>
<path fill="none" stroke="midnightblue" d="M546.795,-190.411C562.762,-185.596 582.307,-179.701 599.447,-174.532"/>
<polygon fill="midnightblue" stroke="midnightblue" points="600.652,-177.824 609.215,-171.586 598.63,-171.122 600.652,-177.824"/>
</g>
<!-- Node16 -->
<g id="node9" class="node"><title>Node16</title>
<g id="a_node9"><a xlink:href="class_sensor.html#a9478b09a17b24105c0fe5b32e988224a" target="_top" xlink:title="Sensor::print">
<polygon fill="none" stroke="black" points="606,-190.5 606,-209.5 678,-209.5 678,-190.5 606,-190.5"/>
<text text-anchor="middle" x="642" y="-197.5" font-family="Helvetica,sans-Serif" font-size="10.00">Sensor::print</text>
</a>
</g>
</g>
<!-- Node15&#45;&gt;Node16 -->
<g id="edge10" class="edge"><title>Node15&#45;&gt;Node16</title>
<path fill="none" stroke="midnightblue" d="M566.249,-200C576.056,-200 586.256,-200 595.854,-200"/>
<polygon fill="midnightblue" stroke="midnightblue" points="595.986,-203.5 605.986,-200 595.986,-196.5 595.986,-203.5"/>
</g>
<!-- Node17&#45;&gt;Node14 -->
<g id="edge12" class="edge"><title>Node17&#45;&gt;Node14</title>
<path fill="none" stroke="midnightblue" d="M561.202,-162C573.588,-162 586.908,-162 599.049,-162"/>
<polygon fill="midnightblue" stroke="midnightblue" points="599.362,-165.5 609.362,-162 599.362,-158.5 599.362,-165.5"/>
</g>
<!-- Node18&#45;&gt;Node14 -->
<g id="edge14" class="edge"><title>Node18&#45;&gt;Node14</title>
<path fill="none" stroke="midnightblue" d="M550.788,-228.442C557.445,-225.897 564.141,-222.776 570,-219 589.555,-206.396 587.548,-195.17 606,-181 607.827,-179.597 609.771,-178.238 611.77,-176.934"/>
<polygon fill="midnightblue" stroke="midnightblue" points="613.903,-179.738 620.704,-171.615 610.322,-173.723 613.903,-179.738"/>
</g>
<!-- Node19 -->
<g id="node12" class="node"><title>Node19</title>
<g id="a_node12"><a xlink:href="class_power.html#a3a915a3ea9b9017cae450959ef8af3de" target="_top" xlink:title="Power::print">
<polygon fill="none" stroke="black" points="607.5,-228.5 607.5,-247.5 676.5,-247.5 676.5,-228.5 607.5,-228.5"/>
<text text-anchor="middle" x="642" y="-235.5" font-family="Helvetica,sans-Serif" font-size="10.00">Power::print</text>
</a>
</g>
</g>
<!-- Node18&#45;&gt;Node19 -->
<g id="edge15" class="edge"><title>Node18&#45;&gt;Node19</title>
<path fill="none" stroke="midnightblue" d="M564.799,-238C575.529,-238 586.795,-238 597.274,-238"/>
<polygon fill="midnightblue" stroke="midnightblue" points="597.441,-241.5 607.441,-238 597.441,-234.5 597.441,-241.5"/>
</g>
<!-- Node20&#45;&gt;Node21 -->
<g id="edge17" class="edge"><title>Node20&#45;&gt;Node21</title>
<path fill="none" stroke="midnightblue" d="M407.768,-284.999C431.431,-289.208 460.419,-295.68 481.974,-301.648"/>
<polygon fill="midnightblue" stroke="midnightblue" points="481.026,-305.017 491.605,-304.435 482.972,-298.293 481.026,-305.017"/>
</g>
<!-- Node20&#45;&gt;Node22 -->
<g id="edge19" class="edge"><title>Node20&#45;&gt;Node22</title>
<path fill="none" stroke="midnightblue" d="M407.768,-280.281C420.182,-279.776 434.061,-279.211 447.564,-278.662"/>
<polygon fill="midnightblue" stroke="midnightblue" points="447.936,-282.15 457.786,-278.246 447.652,-275.155 447.936,-282.15"/>
</g>
<!-- Node21&#45;&gt;Node20 -->
<g id="edge18" class="edge"><title>Node21&#45;&gt;Node20</title>
<path fill="none" stroke="midnightblue" d="M463.489,-309.674C448.325,-306.818 431.623,-303.207 416.37,-299.489"/>
<polygon fill="midnightblue" stroke="midnightblue" points="417.138,-296.073 406.587,-297.037 415.436,-302.863 417.138,-296.073"/>
</g>
</g>
</svg>
