<?xml version="1.0" encoding="UTF-8" standalone="no"?>
<!DOCTYPE svg PUBLIC "-//W3C//DTD SVG 1.1//EN"
 "http://www.w3.org/Graphics/SVG/1.1/DTD/svg11.dtd">
<!-- Generated by graphviz version 2.38.0 (20140413.2041)
 -->
<!-- Title: Config::execute Pages: 1 -->
<svg width="529pt" height="797pt"
 viewBox="0.00 0.00 529.00 797.00" xmlns="http://www.w3.org/2000/svg" xmlns:xlink="http://www.w3.org/1999/xlink">
<g id="graph0" class="graph" transform="scale(1 1) rotate(0) translate(4 793)">
<title>Config::execute</title>
<!-- Node47 -->
<g id="node1" class="node"><title>Node47</title>
<polygon fill="#bfbfbf" stroke="black" points="0,-247.5 0,-266.5 86,-266.5 86,-247.5 0,-247.5"/>
<text text-anchor="middle" x="43" y="-254.5" font-family="Helvetica,sans-Serif" font-size="10.00">Config::execute</text>
</g>
<!-- Node48 -->
<g id="node2" class="node"><title>Node48</title>
<g id="a_node2"><a xlink:href="class_config.html#a890e1d585e9ae670a6cccaf196250870" target="_top" xlink:title="Config::atoc">
<polygon fill="none" stroke="black" points="143,-769.5 143,-788.5 213,-788.5 213,-769.5 143,-769.5"/>
<text text-anchor="middle" x="178" y="-776.5" font-family="Helvetica,sans-Serif" font-size="10.00">Config::atoc</text>
</a>
</g>
</g>
<!-- Node47&#45;&gt;Node48 -->
<g id="edge1" class="edge"><title>Node47&#45;&gt;Node48</title>
<path fill="none" stroke="midnightblue" d="M44.2797,-266.783C46.2506,-329.448 59.8387,-674.467 122,-755 125.22,-759.171 129.314,-762.631 133.812,-765.498"/>
<polygon fill="midnightblue" stroke="midnightblue" points="132.364,-768.692 142.834,-770.311 135.658,-762.516 132.364,-768.692"/>
</g>
<!-- Node49 -->
<g id="node3" class="node"><title>Node49</title>
<g id="a_node3"><a xlink:href="class_config.html#a975933ecde91dc436d4ca39464cfd25f" target="_top" xlink:title="display all config on USART0 ">
<polygon fill="none" stroke="black" points="137,-617.5 137,-636.5 219,-636.5 219,-617.5 137,-617.5"/>
<text text-anchor="middle" x="178" y="-624.5" font-family="Helvetica,sans-Serif" font-size="10.00">Config::display</text>
</a>
</g>
</g>
<!-- Node47&#45;&gt;Node49 -->
<g id="edge2" class="edge"><title>Node47&#45;&gt;Node49</title>
<path fill="none" stroke="midnightblue" d="M47.4213,-266.518C65.059,-315.585 145.826,-540.275 170.088,-607.772"/>
<polygon fill="midnightblue" stroke="midnightblue" points="166.802,-608.977 173.479,-617.204 173.39,-606.609 166.802,-608.977"/>
</g>
<!-- Node50 -->
<g id="node4" class="node"><title>Node50</title>
<g id="a_node4"><a xlink:href="class_usart.html#ab236d7c399791bbe1431f85e9b60f601" target="_top" xlink:title="USART string sender function. ">
<polygon fill="none" stroke="black" points="441,-598.5 441,-617.5 506,-617.5 506,-598.5 441,-598.5"/>
<text text-anchor="middle" x="473.5" y="-605.5" font-family="Helvetica,sans-Serif" font-size="10.00">Usart::print</text>
</a>
</g>
</g>
<!-- Node47&#45;&gt;Node50 -->
<g id="edge12" class="edge"><title>Node47&#45;&gt;Node50</title>
<path fill="none" stroke="midnightblue" d="M44.8025,-266.615C49.4469,-320.312 74.3468,-582.942 122,-646 196.645,-744.775 279.739,-778.311 390,-722 410.232,-711.667 444.608,-656.183 461.9,-626.603"/>
<polygon fill="midnightblue" stroke="midnightblue" points="465.091,-628.076 467.065,-617.667 459.03,-624.574 465.091,-628.076"/>
</g>
<!-- Node56 -->
<g id="node10" class="node"><title>Node56</title>
<g id="a_node10"><a xlink:href="class_sensor.html#aad89726b9c769ca2dbf7b121bae54b2e" target="_top" xlink:title="Sensor::set_enable">
<polygon fill="none" stroke="black" points="127.5,-171.5 127.5,-190.5 228.5,-190.5 228.5,-171.5 127.5,-171.5"/>
<text text-anchor="middle" x="178" y="-178.5" font-family="Helvetica,sans-Serif" font-size="10.00">Sensor::set_enable</text>
</a>
</g>
</g>
<!-- Node47&#45;&gt;Node56 -->
<g id="edge13" class="edge"><title>Node47&#45;&gt;Node56</title>
<path fill="none" stroke="midnightblue" d="M54.9217,-247.365C69.399,-234.997 96.1394,-213.524 122,-200 125.985,-197.916 130.247,-195.982 134.57,-194.209"/>
<polygon fill="midnightblue" stroke="midnightblue" points="135.952,-197.428 144.044,-190.59 133.454,-190.889 135.952,-197.428"/>
</g>
<!-- Node58 -->
<g id="node12" class="node"><title>Node58</title>
<g id="a_node12"><a xlink:href="class_sensor.html#aed192cfaa131d7e89dadf6da01e9d609" target="_top" xlink:title="Sensor::set_factor">
<polygon fill="none" stroke="black" points="129.5,-133.5 129.5,-152.5 226.5,-152.5 226.5,-133.5 129.5,-133.5"/>
<text text-anchor="middle" x="178" y="-140.5" font-family="Helvetica,sans-Serif" font-size="10.00">Sensor::set_factor</text>
</a>
</g>
</g>
<!-- Node47&#45;&gt;Node58 -->
<g id="edge15" class="edge"><title>Node47&#45;&gt;Node58</title>
<path fill="none" stroke="midnightblue" d="M49.3576,-247.438C60.4657,-228.448 87.8439,-185.77 122,-162 124.736,-160.096 127.681,-158.367 130.735,-156.799"/>
<polygon fill="midnightblue" stroke="midnightblue" points="132.446,-159.867 140.126,-152.569 129.571,-153.485 132.446,-159.867"/>
</g>
<!-- Node59 -->
<g id="node13" class="node"><title>Node59</title>
<g id="a_node13"><a xlink:href="class_power.html#a3dc8a4eeb7a87fa3a73cad504187173d" target="_top" xlink:title="Power::set_i_factor">
<polygon fill="none" stroke="black" points="127.5,-209.5 127.5,-228.5 228.5,-228.5 228.5,-209.5 127.5,-209.5"/>
<text text-anchor="middle" x="178" y="-216.5" font-family="Helvetica,sans-Serif" font-size="10.00">Power::set_i_factor</text>
</a>
</g>
</g>
<!-- Node47&#45;&gt;Node59 -->
<g id="edge17" class="edge"><title>Node47&#45;&gt;Node59</title>
<path fill="none" stroke="midnightblue" d="M77.5615,-247.411C94.573,-242.551 115.432,-236.591 133.645,-231.387"/>
<polygon fill="midnightblue" stroke="midnightblue" points="134.796,-234.699 143.449,-228.586 132.872,-227.968 134.796,-234.699"/>
</g>
<!-- Node61 -->
<g id="node15" class="node"><title>Node61</title>
<g id="a_node15"><a xlink:href="class_power.html#a1e7595ee0b3b0439d979ffeab785d0d8" target="_top" xlink:title="Power::set_i_offset">
<polygon fill="none" stroke="black" points="127.5,-380.5 127.5,-399.5 228.5,-399.5 228.5,-380.5 127.5,-380.5"/>
<text text-anchor="middle" x="178" y="-387.5" font-family="Helvetica,sans-Serif" font-size="10.00">Power::set_i_offset</text>
</a>
</g>
</g>
<!-- Node47&#45;&gt;Node61 -->
<g id="edge19" class="edge"><title>Node47&#45;&gt;Node61</title>
<path fill="none" stroke="midnightblue" d="M50.5349,-266.641C63.0514,-284.689 91.8528,-324.252 122,-352 131.153,-360.425 142.284,-368.456 152.131,-374.947"/>
<polygon fill="midnightblue" stroke="midnightblue" points="150.41,-378.001 160.72,-380.442 154.182,-372.105 150.41,-378.001"/>
</g>
<!-- Node72 -->
<g id="node26" class="node"><title>Node72</title>
<g id="a_node26"><a xlink:href="class_sensor.html#ad713fef719161b27e6b93a0d3a371e0c" target="_top" xlink:title="Sensor::set_offset">
<polygon fill="none" stroke="black" points="129.5,-95.5 129.5,-114.5 226.5,-114.5 226.5,-95.5 129.5,-95.5"/>
<text text-anchor="middle" x="178" y="-102.5" font-family="Helvetica,sans-Serif" font-size="10.00">Sensor::set_offset</text>
</a>
</g>
</g>
<!-- Node47&#45;&gt;Node72 -->
<g id="edge36" class="edge"><title>Node47&#45;&gt;Node72</title>
<path fill="none" stroke="midnightblue" d="M47,-247.409C55.0712,-223.145 79.5561,-158.782 122,-124 124.051,-122.319 126.26,-120.783 128.572,-119.38"/>
<polygon fill="midnightblue" stroke="midnightblue" points="130.59,-122.279 137.892,-114.602 127.397,-116.05 130.59,-122.279"/>
</g>
<!-- Node73 -->
<g id="node27" class="node"><title>Node73</title>
<g id="a_node27"><a xlink:href="class_power.html#a131e857270e7cf3957e0d1508d0a0986" target="_top" xlink:title="Power::set_v_factor">
<polygon fill="none" stroke="black" points="126,-323.5 126,-342.5 230,-342.5 230,-323.5 126,-323.5"/>
<text text-anchor="middle" x="178" y="-330.5" font-family="Helvetica,sans-Serif" font-size="10.00">Power::set_v_factor</text>
</a>
</g>
</g>
<!-- Node47&#45;&gt;Node73 -->
<g id="edge38" class="edge"><title>Node47&#45;&gt;Node73</title>
<path fill="none" stroke="midnightblue" d="M54.9217,-266.635C69.399,-279.003 96.1394,-300.476 122,-314 125.985,-316.084 130.247,-318.018 134.57,-319.791"/>
<polygon fill="midnightblue" stroke="midnightblue" points="133.454,-323.111 144.044,-323.41 135.952,-316.572 133.454,-323.111"/>
</g>
<!-- Node74 -->
<g id="node28" class="node"><title>Node74</title>
<g id="a_node28"><a xlink:href="class_power.html#ad87d6ae7b5fb07b1a7d5fd2f70e878ce" target="_top" xlink:title="Power::set_v_offset">
<polygon fill="none" stroke="black" points="126,-285.5 126,-304.5 230,-304.5 230,-285.5 126,-285.5"/>
<text text-anchor="middle" x="178" y="-292.5" font-family="Helvetica,sans-Serif" font-size="10.00">Power::set_v_offset</text>
</a>
</g>
</g>
<!-- Node47&#45;&gt;Node74 -->
<g id="edge40" class="edge"><title>Node47&#45;&gt;Node74</title>
<path fill="none" stroke="midnightblue" d="M77.5615,-266.589C94.573,-271.449 115.432,-277.409 133.645,-282.613"/>
<polygon fill="midnightblue" stroke="midnightblue" points="132.872,-286.032 143.449,-285.414 134.796,-279.301 132.872,-286.032"/>
</g>
<!-- Node75 -->
<g id="node29" class="node"><title>Node75</title>
<g id="a_node29"><a xlink:href="class_power.html#a1281d3f600c6cc3227de7d22e68a96a0" target="_top" xlink:title="Power::set_v_phase">
<polygon fill="none" stroke="black" points="125,-247.5 125,-266.5 231,-266.5 231,-247.5 125,-247.5"/>
<text text-anchor="middle" x="178" y="-254.5" font-family="Helvetica,sans-Serif" font-size="10.00">Power::set_v_phase</text>
</a>
</g>
</g>
<!-- Node47&#45;&gt;Node75 -->
<g id="edge42" class="edge"><title>Node47&#45;&gt;Node75</title>
<path fill="none" stroke="midnightblue" d="M86.082,-257C95.2323,-257 105.099,-257 114.84,-257"/>
<polygon fill="midnightblue" stroke="midnightblue" points="114.912,-260.5 124.912,-257 114.912,-253.5 114.912,-260.5"/>
</g>
<!-- Node76 -->
<g id="node30" class="node"><title>Node76</title>
<g id="a_node30"><a xlink:href="class_config.html#a4cda6b3fcf08b798afe3bf1311450b0c" target="_top" xlink:title="Update saved config data in the eeprom. ">
<polygon fill="none" stroke="black" points="122,-57.5 122,-76.5 234,-76.5 234,-57.5 122,-57.5"/>
<text text-anchor="middle" x="178" y="-64.5" font-family="Helvetica,sans-Serif" font-size="10.00">Config::update_logger</text>
</a>
</g>
</g>
<!-- Node47&#45;&gt;Node76 -->
<g id="edge44" class="edge"><title>Node47&#45;&gt;Node76</title>
<path fill="none" stroke="midnightblue" d="M45.6603,-247.299C51.1002,-218.447 71.0517,-132.309 122,-86 123.731,-84.4265 125.599,-82.9823 127.565,-81.6567"/>
<polygon fill="midnightblue" stroke="midnightblue" points="129.658,-84.4971 136.69,-76.5725 126.251,-78.3821 129.658,-84.4971"/>
</g>
<!-- Node77 -->
<g id="node31" class="node"><title>Node77</title>
<g id="a_node31"><a xlink:href="class_r_t_c.html#a47c11140f33fe80ffb96fb5296859a25" target="_top" xlink:title="Function to update a register in the pcf8563 This function is use in the st_config class...">
<polygon fill="none" stroke="black" points="132,-19.5 132,-38.5 224,-38.5 224,-19.5 132,-19.5"/>
<text text-anchor="middle" x="178" y="-26.5" font-family="Helvetica,sans-Serif" font-size="10.00">RTC::update_reg</text>
</a>
</g>
</g>
<!-- Node47&#45;&gt;Node77 -->
<g id="edge45" class="edge"><title>Node47&#45;&gt;Node77</title>
<path fill="none" stroke="midnightblue" d="M44.7752,-247.109C47.8936,-214.042 62.4016,-106.151 122,-48 123.616,-46.4236 125.368,-44.9777 127.221,-43.6514"/>
<polygon fill="midnightblue" stroke="midnightblue" points="129.027,-46.6499 135.88,-38.5696 125.484,-40.6128 129.027,-46.6499"/>
</g>
<!-- Node49&#45;&gt;Node50 -->
<g id="edge3" class="edge"><title>Node49&#45;&gt;Node50</title>
<path fill="none" stroke="midnightblue" d="M219.195,-624.398C274.766,-620.8 374.569,-614.34 430.884,-610.694"/>
<polygon fill="midnightblue" stroke="midnightblue" points="431.12,-614.186 440.873,-610.047 430.667,-607.201 431.12,-614.186"/>
</g>
<!-- Node51 -->
<g id="node5" class="node"><title>Node51</title>
<g id="a_node5"><a xlink:href="class_sensor.html#a0e1288d8b8594192f9d65819c185764f" target="_top" xlink:title="This method print the sensor configuration for the sensor. It&#39;s a good idea to overload this function...">
<polygon fill="none" stroke="black" points="278,-693.5 278,-712.5 382,-712.5 382,-693.5 278,-693.5"/>
<text text-anchor="middle" x="330" y="-700.5" font-family="Helvetica,sans-Serif" font-size="10.00">Sensor::print_config</text>
</a>
</g>
</g>
<!-- Node49&#45;&gt;Node51 -->
<g id="edge4" class="edge"><title>Node49&#45;&gt;Node51</title>
<path fill="none" stroke="midnightblue" d="M191.977,-636.586C209.12,-648.9 240.592,-670.314 270,-684 274.697,-686.186 279.713,-688.221 284.764,-690.086"/>
<polygon fill="midnightblue" stroke="midnightblue" points="283.847,-693.473 294.442,-693.455 286.148,-686.862 283.847,-693.473"/>
</g>
<!-- Node53 -->
<g id="node7" class="node"><title>Node53</title>
<g id="a_node7"><a xlink:href="class_r_t_c.html#a59f014e14e774bf372dcf0d5d64e6717" target="_top" xlink:title="RTC::print_config">
<polygon fill="none" stroke="black" points="283,-655.5 283,-674.5 377,-674.5 377,-655.5 283,-655.5"/>
<text text-anchor="middle" x="330" y="-662.5" font-family="Helvetica,sans-Serif" font-size="10.00">RTC::print_config</text>
</a>
</g>
</g>
<!-- Node49&#45;&gt;Node53 -->
<g id="edge7" class="edge"><title>Node49&#45;&gt;Node53</title>
<path fill="none" stroke="midnightblue" d="M216.851,-636.589C236.467,-641.558 260.619,-647.677 281.479,-652.961"/>
<polygon fill="midnightblue" stroke="midnightblue" points="280.868,-656.417 291.421,-655.48 282.587,-649.631 280.868,-656.417"/>
</g>
<!-- Node54 -->
<g id="node8" class="node"><title>Node54</title>
<g id="a_node8"><a xlink:href="class_power.html#afd1c8cab1d4549eb45be61bdd34ae97d" target="_top" xlink:title="This method print the configuration for the power measurement. It&#39;s a good idea to overload this func...">
<polygon fill="none" stroke="black" points="279.5,-579.5 279.5,-598.5 380.5,-598.5 380.5,-579.5 279.5,-579.5"/>
<text text-anchor="middle" x="330" y="-586.5" font-family="Helvetica,sans-Serif" font-size="10.00">Power::print_config</text>
</a>
</g>
</g>
<!-- Node49&#45;&gt;Node54 -->
<g id="edge9" class="edge"><title>Node49&#45;&gt;Node54</title>
<path fill="none" stroke="midnightblue" d="M216.851,-617.411C236.467,-612.442 260.619,-606.323 281.479,-601.039"/>
<polygon fill="midnightblue" stroke="midnightblue" points="282.587,-604.369 291.421,-598.52 280.868,-597.583 282.587,-604.369"/>
</g>
<!-- Node51&#45;&gt;Node50 -->
<g id="edge5" class="edge"><title>Node51&#45;&gt;Node50</title>
<path fill="none" stroke="midnightblue" d="M368.873,-693.495C376.133,-690.935 383.493,-687.795 390,-684 417.034,-668.234 442.637,-642.313 457.953,-625.199"/>
<polygon fill="midnightblue" stroke="midnightblue" points="460.66,-627.421 464.607,-617.589 455.39,-622.814 460.66,-627.421"/>
</g>
<!-- Node52 -->
<g id="node6" class="node"><title>Node52</title>
<g id="a_node6"><a xlink:href="class_sensor.html#a9478b09a17b24105c0fe5b32e988224a" target="_top" xlink:title="Sensor::print">
<polygon fill="none" stroke="black" points="437.5,-693.5 437.5,-712.5 509.5,-712.5 509.5,-693.5 437.5,-693.5"/>
<text text-anchor="middle" x="473.5" y="-700.5" font-family="Helvetica,sans-Serif" font-size="10.00">Sensor::print</text>
</a>
</g>
</g>
<!-- Node51&#45;&gt;Node52 -->
<g id="edge6" class="edge"><title>Node51&#45;&gt;Node52</title>
<path fill="none" stroke="midnightblue" d="M382.085,-703C396.863,-703 412.885,-703 427.279,-703"/>
<polygon fill="midnightblue" stroke="midnightblue" points="427.432,-706.5 437.432,-703 427.432,-699.5 427.432,-706.5"/>
</g>
<!-- Node53&#45;&gt;Node50 -->
<g id="edge8" class="edge"><title>Node53&#45;&gt;Node50</title>
<path fill="none" stroke="midnightblue" d="M354.684,-655.459C377.845,-646.13 413.322,-631.838 439.295,-621.376"/>
<polygon fill="midnightblue" stroke="midnightblue" points="440.771,-624.555 448.739,-617.572 438.155,-618.062 440.771,-624.555"/>
</g>
<!-- Node54&#45;&gt;Node50 -->
<g id="edge10" class="edge"><title>Node54&#45;&gt;Node50</title>
<path fill="none" stroke="midnightblue" d="M380.888,-595.699C397.205,-597.89 415.149,-600.299 430.798,-602.4"/>
<polygon fill="midnightblue" stroke="midnightblue" points="430.333,-605.869 440.71,-603.731 431.265,-598.932 430.333,-605.869"/>
</g>
<!-- Node55 -->
<g id="node9" class="node"><title>Node55</title>
<g id="a_node9"><a xlink:href="class_power.html#a3a915a3ea9b9017cae450959ef8af3de" target="_top" xlink:title="Power::print">
<polygon fill="none" stroke="black" points="439,-560.5 439,-579.5 508,-579.5 508,-560.5 439,-560.5"/>
<text text-anchor="middle" x="473.5" y="-567.5" font-family="Helvetica,sans-Serif" font-size="10.00">Power::print</text>
</a>
</g>
</g>
<!-- Node54&#45;&gt;Node55 -->
<g id="edge11" class="edge"><title>Node54&#45;&gt;Node55</title>
<path fill="none" stroke="midnightblue" d="M380.888,-582.301C396.403,-580.218 413.389,-577.937 428.475,-575.912"/>
<polygon fill="midnightblue" stroke="midnightblue" points="429.128,-579.355 438.573,-574.556 428.197,-572.418 429.128,-579.355"/>
</g>
<!-- Node57 -->
<g id="node11" class="node"><title>Node57</title>
<g id="a_node11"><a xlink:href="class_sensor.html#abf05dcc164ceadf01fa48c32fbaf040a" target="_top" xlink:title="Update saved parameters for sensors in the eeprom. ">
<polygon fill="none" stroke="black" points="272.5,-133.5 272.5,-152.5 387.5,-152.5 387.5,-133.5 272.5,-133.5"/>
<text text-anchor="middle" x="330" y="-140.5" font-family="Helvetica,sans-Serif" font-size="10.00">Sensor::update_param</text>
</a>
</g>
</g>
<!-- Node56&#45;&gt;Node57 -->
<g id="edge14" class="edge"><title>Node56&#45;&gt;Node57</title>
<path fill="none" stroke="midnightblue" d="M216.851,-171.411C236.467,-166.442 260.619,-160.323 281.479,-155.039"/>
<polygon fill="midnightblue" stroke="midnightblue" points="282.587,-158.369 291.421,-152.52 280.868,-151.583 282.587,-158.369"/>
</g>
<!-- Node58&#45;&gt;Node57 -->
<g id="edge16" class="edge"><title>Node58&#45;&gt;Node57</title>
<path fill="none" stroke="midnightblue" d="M226.873,-143C238.08,-143 250.221,-143 262.089,-143"/>
<polygon fill="midnightblue" stroke="midnightblue" points="262.418,-146.5 272.418,-143 262.417,-139.5 262.418,-146.5"/>
</g>
<!-- Node60 -->
<g id="node14" class="node"><title>Node60</title>
<g id="a_node14"><a xlink:href="class_power.html#a5ccffd2344ef9aefbcdb780187d38ca3" target="_top" xlink:title="Update saved parameters for sensors in the eeprom. ">
<polygon fill="none" stroke="black" points="274,-199.5 274,-218.5 386,-218.5 386,-199.5 274,-199.5"/>
<text text-anchor="middle" x="330" y="-206.5" font-family="Helvetica,sans-Serif" font-size="10.00">Power::update_param</text>
</a>
</g>
</g>
<!-- Node59&#45;&gt;Node60 -->
<g id="edge18" class="edge"><title>Node59&#45;&gt;Node60</title>
<path fill="none" stroke="midnightblue" d="M228.531,-215.698C239.752,-214.95 251.835,-214.144 263.598,-213.36"/>
<polygon fill="midnightblue" stroke="midnightblue" points="264.078,-216.836 273.823,-212.678 263.612,-209.852 264.078,-216.836"/>
</g>
<!-- Node61&#45;&gt;Node54 -->
<g id="edge26" class="edge"><title>Node61&#45;&gt;Node54</title>
<path fill="none" stroke="midnightblue" d="M181.139,-399.85C188.193,-429.98 213.564,-521.773 270,-570 272.004,-571.713 274.165,-573.272 276.435,-574.691"/>
<polygon fill="midnightblue" stroke="midnightblue" points="275.14,-577.963 285.623,-579.498 278.385,-571.761 275.14,-577.963"/>
</g>
<!-- Node61&#45;&gt;Node55 -->
<g id="edge21" class="edge"><title>Node61&#45;&gt;Node55</title>
<path fill="none" stroke="midnightblue" d="M189.734,-399.58C206.029,-413.687 238.459,-440.094 270,-456 319.951,-481.19 342.588,-464.305 390,-494 409.717,-506.349 408.958,-516.163 426,-532 434.162,-539.585 443.614,-547.46 451.855,-554.061"/>
<polygon fill="midnightblue" stroke="midnightblue" points="449.884,-556.963 459.902,-560.412 454.221,-551.469 449.884,-556.963"/>
</g>
<!-- Node61&#45;&gt;Node60 -->
<g id="edge20" class="edge"><title>Node61&#45;&gt;Node60</title>
<path fill="none" stroke="midnightblue" d="M199.176,-380.491C210.918,-373.997 225.112,-364.335 234,-352 267.548,-305.441 230.014,-269.162 270,-228 271.406,-226.553 272.922,-225.216 274.526,-223.98"/>
<polygon fill="midnightblue" stroke="midnightblue" points="276.513,-226.866 283.156,-218.612 272.816,-220.922 276.513,-226.866"/>
</g>
<!-- Node62 -->
<g id="node16" class="node"><title>Node62</title>
<g id="a_node16"><a xlink:href="class_power.html#ace64df3181f3dfce89b8a1f8608e16eb" target="_top" xlink:title="Power::read_rms_value">
<polygon fill="none" stroke="black" points="270.5,-503.5 270.5,-522.5 389.5,-522.5 389.5,-503.5 270.5,-503.5"/>
<text text-anchor="middle" x="330" y="-510.5" font-family="Helvetica,sans-Serif" font-size="10.00">Power::read_rms_value</text>
</a>
</g>
</g>
<!-- Node61&#45;&gt;Node62 -->
<g id="edge22" class="edge"><title>Node61&#45;&gt;Node62</title>
<path fill="none" stroke="midnightblue" d="M185.669,-399.762C199.38,-419.185 232.606,-463.037 270,-489 275.737,-492.983 282.234,-496.462 288.767,-499.442"/>
<polygon fill="midnightblue" stroke="midnightblue" points="287.706,-502.793 298.28,-503.453 290.425,-496.343 287.706,-502.793"/>
</g>
<!-- Node64 -->
<g id="node18" class="node"><title>Node64</title>
<g id="a_node18"><a xlink:href="class_power.html#a50f94a7bfd7a6d2aff52d4ed003c2cd6" target="_top" xlink:title="Power::read_dc_value">
<polygon fill="none" stroke="black" points="273.5,-389.5 273.5,-408.5 386.5,-408.5 386.5,-389.5 273.5,-389.5"/>
<text text-anchor="middle" x="330" y="-396.5" font-family="Helvetica,sans-Serif" font-size="10.00">Power::read_dc_value</text>
</a>
</g>
</g>
<!-- Node61&#45;&gt;Node64 -->
<g id="edge25" class="edge"><title>Node61&#45;&gt;Node64</title>
<path fill="none" stroke="midnightblue" d="M228.531,-392.972C239.62,-393.637 251.551,-394.353 263.183,-395.051"/>
<polygon fill="midnightblue" stroke="midnightblue" points="263.107,-398.553 273.299,-395.658 263.526,-391.565 263.107,-398.553"/>
</g>
<!-- Node65 -->
<g id="node19" class="node"><title>Node65</title>
<g id="a_node19"><a xlink:href="class_power.html#a09a87034c397af2cfb7289fe1fbe5830" target="_top" xlink:title="This method calculate the mean RMS voltage, mean RMS current, active power, apparent power and power ...">
<polygon fill="none" stroke="black" points="288.5,-351.5 288.5,-370.5 371.5,-370.5 371.5,-351.5 288.5,-351.5"/>
<text text-anchor="middle" x="330" y="-358.5" font-family="Helvetica,sans-Serif" font-size="10.00">Power::calc_all</text>
</a>
</g>
</g>
<!-- Node61&#45;&gt;Node65 -->
<g id="edge27" class="edge"><title>Node61&#45;&gt;Node65</title>
<path fill="none" stroke="midnightblue" d="M228.531,-380.424C244.352,-377.365 261.888,-373.975 277.823,-370.894"/>
<polygon fill="midnightblue" stroke="midnightblue" points="278.875,-374.256 288.029,-368.921 277.546,-367.383 278.875,-374.256"/>
</g>
<!-- Node66 -->
<g id="node20" class="node"><title>Node66</title>
<g id="a_node20"><a xlink:href="class_power.html#a6c1622c43b34a31d8929674b33433c20" target="_top" xlink:title="The print_average method print the average&#39;s value in the string. ">
<polygon fill="none" stroke="black" points="275.5,-313.5 275.5,-332.5 384.5,-332.5 384.5,-313.5 275.5,-313.5"/>
<text text-anchor="middle" x="330" y="-320.5" font-family="Helvetica,sans-Serif" font-size="10.00">Power::print_average</text>
</a>
</g>
</g>
<!-- Node61&#45;&gt;Node66 -->
<g id="edge28" class="edge"><title>Node61&#45;&gt;Node66</title>
<path fill="none" stroke="midnightblue" d="M195.024,-380.451C212.886,-370.07 242.837,-353.435 270,-342 275.145,-339.834 280.627,-337.766 286.099,-335.844"/>
<polygon fill="midnightblue" stroke="midnightblue" points="287.503,-339.065 295.862,-332.555 285.268,-332.431 287.503,-339.065"/>
</g>
<!-- Node67 -->
<g id="node21" class="node"><title>Node67</title>
<g id="a_node21"><a xlink:href="class_power.html#acd77541eabe8feb58e0b73154268cdd2" target="_top" xlink:title="Power::print_data_array">
<polygon fill="none" stroke="black" points="270,-427.5 270,-446.5 390,-446.5 390,-427.5 270,-427.5"/>
<text text-anchor="middle" x="330" y="-434.5" font-family="Helvetica,sans-Serif" font-size="10.00">Power::print_data_array</text>
</a>
</g>
</g>
<!-- Node61&#45;&gt;Node67 -->
<g id="edge29" class="edge"><title>Node61&#45;&gt;Node67</title>
<path fill="none" stroke="midnightblue" d="M209.355,-399.511C232.254,-406.686 263.883,-416.597 288.87,-424.426"/>
<polygon fill="midnightblue" stroke="midnightblue" points="287.844,-427.772 298.433,-427.422 289.937,-421.092 287.844,-427.772"/>
</g>
<!-- Node69 -->
<g id="node23" class="node"><title>Node69</title>
<g id="a_node23"><a xlink:href="class_power.html#a56a921dc1756f980b6b28e024f2c913c" target="_top" xlink:title="Load saved parameters for sensors from the eeprom. ">
<polygon fill="none" stroke="black" points="279.5,-275.5 279.5,-294.5 380.5,-294.5 380.5,-275.5 279.5,-275.5"/>
<text text-anchor="middle" x="330" y="-282.5" font-family="Helvetica,sans-Serif" font-size="10.00">Power::load_param</text>
</a>
</g>
</g>
<!-- Node61&#45;&gt;Node69 -->
<g id="edge32" class="edge"><title>Node61&#45;&gt;Node69</title>
<path fill="none" stroke="midnightblue" d="M195.926,-380.299C207.376,-373.278 222.457,-363.103 234,-352 253.219,-333.514 248.288,-319.482 270,-304 272.716,-302.063 275.64,-300.317 278.68,-298.743"/>
<polygon fill="midnightblue" stroke="midnightblue" points="280.38,-301.817 288.065,-294.523 277.509,-295.433 280.38,-301.817"/>
</g>
<!-- Node70 -->
<g id="node24" class="node"><title>Node70</title>
<g id="a_node24"><a xlink:href="class_power.html#ab6160d70ae5088f1923347e1e2c4a62a" target="_top" xlink:title="Initialize the eeprom memory. ">
<polygon fill="none" stroke="black" points="271,-237.5 271,-256.5 389,-256.5 389,-237.5 271,-237.5"/>
<text text-anchor="middle" x="330" y="-244.5" font-family="Helvetica,sans-Serif" font-size="10.00">Power::initialize_param</text>
</a>
</g>
</g>
<!-- Node61&#45;&gt;Node70 -->
<g id="edge33" class="edge"><title>Node61&#45;&gt;Node70</title>
<path fill="none" stroke="midnightblue" d="M198.157,-380.416C209.813,-373.778 224.278,-363.99 234,-352 260.097,-319.815 239.483,-294.03 270,-266 271.706,-264.433 273.543,-262.995 275.476,-261.675"/>
<polygon fill="midnightblue" stroke="midnightblue" points="277.466,-264.572 284.463,-256.616 274.032,-258.472 277.466,-264.572"/>
</g>
<!-- Node71 -->
<g id="node25" class="node"><title>Node71</title>
<g id="a_node25"><a xlink:href="class_power.html#a50a207b74105ff65f34f8f8917eed65f" target="_top" xlink:title="Reads the VCC used during the ADC conversion. ">
<polygon fill="none" stroke="black" points="287,-541.5 287,-560.5 373,-560.5 373,-541.5 287,-541.5"/>
<text text-anchor="middle" x="330" y="-548.5" font-family="Helvetica,sans-Serif" font-size="10.00">Power::readVcc</text>
</a>
</g>
</g>
<!-- Node61&#45;&gt;Node71 -->
<g id="edge34" class="edge"><title>Node61&#45;&gt;Node71</title>
<path fill="none" stroke="midnightblue" d="M182.447,-399.551C192.118,-425.001 221.978,-495.02 270,-532 272.437,-533.876 275.064,-535.57 277.81,-537.1"/>
<polygon fill="midnightblue" stroke="midnightblue" points="276.362,-540.287 286.894,-541.444 279.383,-533.972 276.362,-540.287"/>
</g>
<!-- Node62&#45;&gt;Node50 -->
<g id="edge24" class="edge"><title>Node62&#45;&gt;Node50</title>
<path fill="none" stroke="midnightblue" d="M373.129,-522.526C379.144,-525.003 384.982,-528.11 390,-532 413.679,-550.359 403.039,-569.75 426,-589 427.988,-590.667 430.142,-592.203 432.397,-593.616"/>
<polygon fill="midnightblue" stroke="midnightblue" points="430.986,-596.831 441.452,-598.474 434.295,-590.662 430.986,-596.831"/>
</g>
<!-- Node63 -->
<g id="node17" class="node"><title>Node63</title>
<g id="a_node17"><a xlink:href="class_power.html#a1e33445a6a18766a77c5304292efcb4f" target="_top" xlink:title="This method read return int value from the ADC channel. ">
<polygon fill="none" stroke="black" points="426,-503.5 426,-522.5 521,-522.5 521,-503.5 426,-503.5"/>
<text text-anchor="middle" x="473.5" y="-510.5" font-family="Helvetica,sans-Serif" font-size="10.00">Power::adc_value</text>
</a>
</g>
</g>
<!-- Node62&#45;&gt;Node63 -->
<g id="edge23" class="edge"><title>Node62&#45;&gt;Node63</title>
<path fill="none" stroke="midnightblue" d="M389.779,-513C398.309,-513 407.077,-513 415.569,-513"/>
<polygon fill="midnightblue" stroke="midnightblue" points="415.756,-516.5 425.756,-513 415.755,-509.5 415.756,-516.5"/>
</g>
<!-- Node67&#45;&gt;Node50 -->
<g id="edge30" class="edge"><title>Node67&#45;&gt;Node50</title>
<path fill="none" stroke="midnightblue" d="M343.889,-446.618C357.053,-457.024 377.309,-474.731 390,-494 414.836,-531.708 394.485,-556.665 426,-589 427.811,-590.858 429.829,-592.541 431.981,-594.064"/>
<polygon fill="midnightblue" stroke="midnightblue" points="430.391,-597.187 440.796,-599.18 433.905,-591.133 430.391,-597.187"/>
</g>
<!-- Node68 -->
<g id="node22" class="node"><title>Node68</title>
<g id="a_node22"><a xlink:href="class_usart.html#a86c9264f48dabbc3d97fa32d2d02d22d" target="_top" xlink:title="USART char sender function. ">
<polygon fill="none" stroke="black" points="443.5,-427.5 443.5,-446.5 503.5,-446.5 503.5,-427.5 443.5,-427.5"/>
<text text-anchor="middle" x="473.5" y="-434.5" font-family="Helvetica,sans-Serif" font-size="10.00">Usart::set</text>
</a>
</g>
</g>
<!-- Node67&#45;&gt;Node68 -->
<g id="edge31" class="edge"><title>Node67&#45;&gt;Node68</title>
<path fill="none" stroke="midnightblue" d="M390.189,-437C404.65,-437 419.774,-437 433.054,-437"/>
<polygon fill="midnightblue" stroke="midnightblue" points="433.262,-440.5 443.262,-437 433.262,-433.5 433.262,-440.5"/>
</g>
<!-- Node71&#45;&gt;Node50 -->
<g id="edge35" class="edge"><title>Node71&#45;&gt;Node50</title>
<path fill="none" stroke="midnightblue" d="M364.138,-560.554C372.673,-563.318 381.768,-566.533 390,-570 406.673,-577.022 409.607,-581.347 426,-589 429.912,-590.826 434.049,-592.656 438.179,-594.421"/>
<polygon fill="midnightblue" stroke="midnightblue" points="437.114,-597.769 447.691,-598.386 439.807,-591.308 437.114,-597.769"/>
</g>
<!-- Node72&#45;&gt;Node57 -->
<g id="edge37" class="edge"><title>Node72&#45;&gt;Node57</title>
<path fill="none" stroke="midnightblue" d="M216.851,-114.589C236.467,-119.558 260.619,-125.677 281.479,-130.961"/>
<polygon fill="midnightblue" stroke="midnightblue" points="280.868,-134.417 291.421,-133.48 282.587,-127.631 280.868,-134.417"/>
</g>
<!-- Node73&#45;&gt;Node60 -->
<g id="edge39" class="edge"><title>Node73&#45;&gt;Node60</title>
<path fill="none" stroke="midnightblue" d="M219.701,-323.417C224.921,-320.957 229.874,-317.871 234,-314 264.22,-285.65 239.483,-256.03 270,-228 271.706,-226.433 273.543,-224.995 275.476,-223.675"/>
<polygon fill="midnightblue" stroke="midnightblue" points="277.466,-226.572 284.463,-218.616 274.032,-220.472 277.466,-226.572"/>
</g>
<!-- Node74&#45;&gt;Node60 -->
<g id="edge41" class="edge"><title>Node74&#45;&gt;Node60</title>
<path fill="none" stroke="midnightblue" d="M216.59,-285.396C222.726,-282.901 228.776,-279.809 234,-276 255.548,-260.29 248.288,-243.482 270,-228 272.716,-226.063 275.64,-224.317 278.68,-222.743"/>
<polygon fill="midnightblue" stroke="midnightblue" points="280.38,-225.817 288.065,-218.523 277.509,-219.433 280.38,-225.817"/>
</g>
<!-- Node75&#45;&gt;Node60 -->
<g id="edge43" class="edge"><title>Node75&#45;&gt;Node60</title>
<path fill="none" stroke="midnightblue" d="M208.994,-247.402C232.09,-240.011 264.222,-229.729 289.425,-221.664"/>
<polygon fill="midnightblue" stroke="midnightblue" points="290.6,-224.963 299.058,-218.582 288.467,-218.296 290.6,-224.963"/>
</g>
<!-- Node78 -->
<g id="node32" class="node"><title>Node78</title>
<g id="a_node32"><a xlink:href="class_t_w_i.html#a1f2dc98a8c2e00dca3a0c76ee1ea1020" target="_top" xlink:title="TWI::set_char">
<polygon fill="none" stroke="black" points="290.5,-38.5 290.5,-57.5 369.5,-57.5 369.5,-38.5 290.5,-38.5"/>
<text text-anchor="middle" x="330" y="-45.5" font-family="Helvetica,sans-Serif" font-size="10.00">TWI::set_char</text>
</a>
</g>
</g>
<!-- Node77&#45;&gt;Node78 -->
<g id="edge46" class="edge"><title>Node77&#45;&gt;Node78</title>
<path fill="none" stroke="midnightblue" d="M224.005,-34.7006C241.689,-36.9406 262.036,-39.5179 280.083,-41.8038"/>
<polygon fill="midnightblue" stroke="midnightblue" points="279.761,-45.2909 290.121,-43.0754 280.64,-38.3464 279.761,-45.2909"/>
</g>
<!-- Node82 -->
<g id="node36" class="node"><title>Node82</title>
<g id="a_node36"><a xlink:href="class_r_t_c.html#a85d7813e4900f346f811c0c01dc5cb89" target="_top" xlink:title="RTC::utoBCD">
<polygon fill="none" stroke="black" points="290.5,-0.5 290.5,-19.5 369.5,-19.5 369.5,-0.5 290.5,-0.5"/>
<text text-anchor="middle" x="330" y="-7.5" font-family="Helvetica,sans-Serif" font-size="10.00">RTC::utoBCD</text>
</a>
</g>
</g>
<!-- Node77&#45;&gt;Node82 -->
<g id="edge50" class="edge"><title>Node77&#45;&gt;Node82</title>
<path fill="none" stroke="midnightblue" d="M224.005,-23.2994C241.689,-21.0594 262.036,-18.4821 280.083,-16.1962"/>
<polygon fill="midnightblue" stroke="midnightblue" points="280.64,-19.6536 290.121,-14.9246 279.761,-12.7091 280.64,-19.6536"/>
</g>
<!-- Node79 -->
<g id="node33" class="node"><title>Node79</title>
<g id="a_node33"><a xlink:href="class_t_w_i.html#a130b2bf159b768c28ae0d4129c556711" target="_top" xlink:title="TWI::start">
<polygon fill="none" stroke="black" points="443,-76.5 443,-95.5 504,-95.5 504,-76.5 443,-76.5"/>
<text text-anchor="middle" x="473.5" y="-83.5" font-family="Helvetica,sans-Serif" font-size="10.00">TWI::start</text>
</a>
</g>
</g>
<!-- Node78&#45;&gt;Node79 -->
<g id="edge47" class="edge"><title>Node78&#45;&gt;Node79</title>
<path fill="none" stroke="midnightblue" d="M366.706,-57.589C386.829,-62.9929 412.011,-69.7557 432.758,-75.3274"/>
<polygon fill="midnightblue" stroke="midnightblue" points="431.98,-78.7422 442.546,-77.9557 433.796,-71.9818 431.98,-78.7422"/>
</g>
<!-- Node80 -->
<g id="node34" class="node"><title>Node80</title>
<g id="a_node34"><a xlink:href="class_t_w_i.html#a6bde06891e3037d407b28a4ecbc3386f" target="_top" xlink:title="TWI::get_status">
<polygon fill="none" stroke="black" points="430,-38.5 430,-57.5 517,-57.5 517,-38.5 430,-38.5"/>
<text text-anchor="middle" x="473.5" y="-45.5" font-family="Helvetica,sans-Serif" font-size="10.00">TWI::get_status</text>
</a>
</g>
</g>
<!-- Node78&#45;&gt;Node80 -->
<g id="edge48" class="edge"><title>Node78&#45;&gt;Node80</title>
<path fill="none" stroke="midnightblue" d="M369.665,-48C385.115,-48 403.155,-48 419.774,-48"/>
<polygon fill="midnightblue" stroke="midnightblue" points="419.901,-51.5001 429.901,-48 419.901,-44.5001 419.901,-51.5001"/>
</g>
<!-- Node81 -->
<g id="node35" class="node"><title>Node81</title>
<g id="a_node35"><a xlink:href="class_t_w_i.html#a3ed950888f040e24dc9dcb0ba65d17f1" target="_top" xlink:title="TWI::stop">
<polygon fill="none" stroke="black" points="443.5,-0.5 443.5,-19.5 503.5,-19.5 503.5,-0.5 443.5,-0.5"/>
<text text-anchor="middle" x="473.5" y="-7.5" font-family="Helvetica,sans-Serif" font-size="10.00">TWI::stop</text>
</a>
</g>
</g>
<!-- Node78&#45;&gt;Node81 -->
<g id="edge49" class="edge"><title>Node78&#45;&gt;Node81</title>
<path fill="none" stroke="midnightblue" d="M366.706,-38.411C387.11,-32.9315 412.717,-26.0549 433.626,-20.4396"/>
<polygon fill="midnightblue" stroke="midnightblue" points="434.72,-23.7698 443.47,-17.7959 432.905,-17.0094 434.72,-23.7698"/>
</g>
</g>
</svg>
