<?xml version="1.0" encoding="UTF-8" standalone="no"?>
<!DOCTYPE svg PUBLIC "-//W3C//DTD SVG 1.1//EN"
 "http://www.w3.org/Graphics/SVG/1.1/DTD/svg11.dtd">
<!-- Generated by graphviz version 2.38.0 (20140413.2041)
 -->
<!-- Title: Config::display Pages: 1 -->
<svg width="338pt" height="120pt"
 viewBox="0.00 0.00 338.00 119.53" xmlns="http://www.w3.org/2000/svg" xmlns:xlink="http://www.w3.org/1999/xlink">
<g id="graph0" class="graph" transform="scale(1 1) rotate(0) translate(4 115.529)">
<title>Config::display</title>
<!-- Node19 -->
<g id="node1" class="node"><title>Node19</title>
<polygon fill="#bfbfbf" stroke="black" points="0,-57.5 0,-76.5 82,-76.5 82,-57.5 0,-57.5"/>
<text text-anchor="middle" x="41" y="-64.5" font-family="Helvetica,sans-Serif" font-size="10.00">Config::display</text>
</g>
<!-- Node20 -->
<g id="node2" class="node"><title>Node20</title>
<g id="a_node2"><a xlink:href="class_usart.html#ab236d7c399791bbe1431f85e9b60f601" target="_top" xlink:title="USART string sender function. ">
<polygon fill="none" stroke="black" points="261.5,-76.5 261.5,-95.5 326.5,-95.5 326.5,-76.5 261.5,-76.5"/>
<text text-anchor="middle" x="294" y="-83.5" font-family="Helvetica,sans-Serif" font-size="10.00">Usart::print</text>
</a>
</g>
</g>
<!-- Node19&#45;&gt;Node20 -->
<g id="edge1" class="edge"><title>Node19&#45;&gt;Node20</title>
<path fill="none" stroke="midnightblue" d="M56.0807,-76.5608C70.7845,-85.9202 94.8849,-99.5433 118,-105 162.986,-115.62 176.172,-111.026 222,-105 232.738,-103.588 244.16,-101.024 254.632,-98.2267"/>
<polygon fill="midnightblue" stroke="midnightblue" points="255.647,-101.577 264.328,-95.5035 253.754,-94.8379 255.647,-101.577"/>
</g>
<!-- Node21 -->
<g id="node3" class="node"><title>Node21</title>
<g id="a_node3"><a xlink:href="class_sensor.html#a0e1288d8b8594192f9d65819c185764f" target="_top" xlink:title="This method print the sensor configuration for the sensor. It&#39;s a good idea to overload this function...">
<polygon fill="none" stroke="black" points="118,-38.5 118,-57.5 222,-57.5 222,-38.5 118,-38.5"/>
<text text-anchor="middle" x="170" y="-45.5" font-family="Helvetica,sans-Serif" font-size="10.00">Sensor::print_config</text>
</a>
</g>
</g>
<!-- Node19&#45;&gt;Node21 -->
<g id="edge2" class="edge"><title>Node19&#45;&gt;Node21</title>
<path fill="none" stroke="midnightblue" d="M82.1836,-60.9883C90.3317,-59.7693 99.0746,-58.4613 107.761,-57.1617"/>
<polygon fill="midnightblue" stroke="midnightblue" points="108.521,-60.5871 117.893,-55.6459 107.485,-53.6641 108.521,-60.5871"/>
</g>
<!-- Node23 -->
<g id="node5" class="node"><title>Node23</title>
<g id="a_node5"><a xlink:href="class_r_t_c.html#a59f014e14e774bf372dcf0d5d64e6717" target="_top" xlink:title="RTC::print_config">
<polygon fill="none" stroke="black" points="123,-76.5 123,-95.5 217,-95.5 217,-76.5 123,-76.5"/>
<text text-anchor="middle" x="170" y="-83.5" font-family="Helvetica,sans-Serif" font-size="10.00">RTC::print_config</text>
</a>
</g>
</g>
<!-- Node19&#45;&gt;Node23 -->
<g id="edge5" class="edge"><title>Node19&#45;&gt;Node23</title>
<path fill="none" stroke="midnightblue" d="M82.1836,-73.0117C91.885,-74.4631 102.43,-76.0407 112.718,-77.5799"/>
<polygon fill="midnightblue" stroke="midnightblue" points="112.473,-81.0821 122.881,-79.1003 113.509,-74.1591 112.473,-81.0821"/>
</g>
<!-- Node24 -->
<g id="node6" class="node"><title>Node24</title>
<g id="a_node6"><a xlink:href="class_power.html#afd1c8cab1d4549eb45be61bdd34ae97d" target="_top" xlink:title="This method print the configuration for the power measurement. It&#39;s a good idea to overload this func...">
<polygon fill="none" stroke="black" points="119.5,-0.5 119.5,-19.5 220.5,-19.5 220.5,-0.5 119.5,-0.5"/>
<text text-anchor="middle" x="170" y="-7.5" font-family="Helvetica,sans-Serif" font-size="10.00">Power::print_config</text>
</a>
</g>
</g>
<!-- Node19&#45;&gt;Node24 -->
<g id="edge7" class="edge"><title>Node19&#45;&gt;Node24</title>
<path fill="none" stroke="midnightblue" d="M59.8622,-57.3883C75.1026,-49.3529 97.7074,-37.823 118,-29 122.527,-27.0315 127.331,-25.075 132.11,-23.2077"/>
<polygon fill="midnightblue" stroke="midnightblue" points="133.687,-26.3528 141.788,-19.5247 131.197,-19.8105 133.687,-26.3528"/>
</g>
<!-- Node21&#45;&gt;Node20 -->
<g id="edge3" class="edge"><title>Node21&#45;&gt;Node20</title>
<path fill="none" stroke="midnightblue" d="M201.786,-57.589C217.101,-62.3594 235.817,-68.1888 252.3,-73.3229"/>
<polygon fill="midnightblue" stroke="midnightblue" points="251.636,-76.7818 262.224,-76.4141 253.717,-70.0985 251.636,-76.7818"/>
</g>
<!-- Node22 -->
<g id="node4" class="node"><title>Node22</title>
<g id="a_node4"><a xlink:href="class_sensor.html#a9478b09a17b24105c0fe5b32e988224a" target="_top" xlink:title="Sensor::print">
<polygon fill="none" stroke="black" points="258,-38.5 258,-57.5 330,-57.5 330,-38.5 258,-38.5"/>
<text text-anchor="middle" x="294" y="-45.5" font-family="Helvetica,sans-Serif" font-size="10.00">Sensor::print</text>
</a>
</g>
</g>
<!-- Node21&#45;&gt;Node22 -->
<g id="edge4" class="edge"><title>Node21&#45;&gt;Node22</title>
<path fill="none" stroke="midnightblue" d="M222.032,-48C230.48,-48 239.189,-48 247.489,-48"/>
<polygon fill="midnightblue" stroke="midnightblue" points="247.733,-51.5001 257.733,-48 247.733,-44.5001 247.733,-51.5001"/>
</g>
<!-- Node23&#45;&gt;Node20 -->
<g id="edge6" class="edge"><title>Node23&#45;&gt;Node20</title>
<path fill="none" stroke="midnightblue" d="M217.123,-86C228.27,-86 240.124,-86 251.067,-86"/>
<polygon fill="midnightblue" stroke="midnightblue" points="251.227,-89.5001 261.227,-86 251.227,-82.5001 251.227,-89.5001"/>
</g>
<!-- Node24&#45;&gt;Node20 -->
<g id="edge8" class="edge"><title>Node24&#45;&gt;Node20</title>
<path fill="none" stroke="midnightblue" d="M203.374,-19.5188C209.81,-22.1008 216.326,-25.2461 222,-29 241.402,-41.8373 239.548,-52.8304 258,-67 259.827,-68.4028 261.771,-69.7623 263.77,-71.0659"/>
<polygon fill="midnightblue" stroke="midnightblue" points="262.322,-74.2766 272.704,-76.3851 265.903,-68.2619 262.322,-74.2766"/>
</g>
<!-- Node25 -->
<g id="node7" class="node"><title>Node25</title>
<g id="a_node7"><a xlink:href="class_power.html#a3a915a3ea9b9017cae450959ef8af3de" target="_top" xlink:title="Power::print">
<polygon fill="none" stroke="black" points="259.5,-0.5 259.5,-19.5 328.5,-19.5 328.5,-0.5 259.5,-0.5"/>
<text text-anchor="middle" x="294" y="-7.5" font-family="Helvetica,sans-Serif" font-size="10.00">Power::print</text>
</a>
</g>
</g>
<!-- Node24&#45;&gt;Node25 -->
<g id="edge9" class="edge"><title>Node24&#45;&gt;Node25</title>
<path fill="none" stroke="midnightblue" d="M220.622,-10C230.112,-10 239.984,-10 249.273,-10"/>
<polygon fill="midnightblue" stroke="midnightblue" points="249.461,-13.5001 259.461,-10 249.461,-6.5001 249.461,-13.5001"/>
</g>
</g>
</svg>
