<?xml version="1.0" encoding="UTF-8" standalone="no"?>
<!DOCTYPE svg PUBLIC "-//W3C//DTD SVG 1.1//EN"
 "http://www.w3.org/Graphics/SVG/1.1/DTD/svg11.dtd">
<!-- Generated by graphviz version 2.38.0 (20140413.2041)
 -->
<!-- Title: Sensor::calc_average Pages: 1 -->
<svg width="404pt" height="66pt"
 viewBox="0.00 0.00 404.00 66.00" xmlns="http://www.w3.org/2000/svg" xmlns:xlink="http://www.w3.org/1999/xlink">
<g id="graph0" class="graph" transform="scale(1 1) rotate(0) translate(4 62)">
<title>Sensor::calc_average</title>
<!-- Node11 -->
<g id="node1" class="node"><title>Node11</title>
<polygon fill="#bfbfbf" stroke="black" points="0,-19.5 0,-38.5 111,-38.5 111,-19.5 0,-19.5"/>
<text text-anchor="middle" x="55.5" y="-26.5" font-family="Helvetica,sans-Serif" font-size="10.00">Sensor::calc_average</text>
</g>
<!-- Node12 -->
<g id="node2" class="node"><title>Node12</title>
<g id="a_node2"><a xlink:href="class_measure.html#a1518672dff4f81603a35bff08c20e9f5" target="_top" xlink:title="calcul average from the data array ">
<polygon fill="none" stroke="black" points="147,-38.5 147,-57.5 265,-57.5 265,-38.5 147,-38.5"/>
<text text-anchor="middle" x="206" y="-45.5" font-family="Helvetica,sans-Serif" font-size="10.00">Measure::calc_average</text>
</a>
</g>
</g>
<!-- Node11&#45;&gt;Node12 -->
<g id="edge1" class="edge"><title>Node11&#45;&gt;Node12</title>
<path fill="none" stroke="midnightblue" d="M121.544,-37.3221C129.971,-38.4004 138.559,-39.4992 146.865,-40.5618"/>
<polygon fill="midnightblue" stroke="midnightblue" points="121.737,-33.8184 111.374,-36.0209 120.849,-40.7618 121.737,-33.8184"/>
</g>
<!-- Node14 -->
<g id="node4" class="node"><title>Node14</title>
<g id="a_node4"><a xlink:href="class_sensor.html#ad713fef719161b27e6b93a0d3a371e0c" target="_top" xlink:title="Sensor::set_offset">
<polygon fill="none" stroke="black" points="157.5,-0.5 157.5,-19.5 254.5,-19.5 254.5,-0.5 157.5,-0.5"/>
<text text-anchor="middle" x="206" y="-7.5" font-family="Helvetica,sans-Serif" font-size="10.00">Sensor::set_offset</text>
</a>
</g>
</g>
<!-- Node11&#45;&gt;Node14 -->
<g id="edge3" class="edge"><title>Node11&#45;&gt;Node14</title>
<path fill="none" stroke="midnightblue" d="M121.377,-20.6992C133.413,-19.1592 145.783,-17.5765 157.195,-16.1165"/>
<polygon fill="midnightblue" stroke="midnightblue" points="120.849,-17.2382 111.374,-21.9791 121.737,-24.1816 120.849,-17.2382"/>
</g>
<!-- Node13 -->
<g id="node3" class="node"><title>Node13</title>
<g id="a_node3"><a xlink:href="class_measure.html#a754d2de10d1a44bb3b62ab162ceeaae2" target="_top" xlink:title="The execute method is the measure &quot;main function&quot; The execute function work as this scheme : ...">
<polygon fill="none" stroke="black" points="301,-38.5 301,-57.5 396,-57.5 396,-38.5 301,-38.5"/>
<text text-anchor="middle" x="348.5" y="-45.5" font-family="Helvetica,sans-Serif" font-size="10.00">Measure::execute</text>
</a>
</g>
</g>
<!-- Node12&#45;&gt;Node13 -->
<g id="edge2" class="edge"><title>Node12&#45;&gt;Node13</title>
<path fill="none" stroke="midnightblue" d="M275.366,-48C283.927,-48 292.525,-48 300.651,-48"/>
<polygon fill="midnightblue" stroke="midnightblue" points="275.364,-44.5001 265.364,-48 275.364,-51.5001 275.364,-44.5001"/>
</g>
<!-- Node15 -->
<g id="node5" class="node"><title>Node15</title>
<g id="a_node5"><a xlink:href="class_config.html#a2a806f322b0d533aabdb8e796d3b1033" target="_top" xlink:title="The execute method is the config &quot;main function&quot; In this method, sentence from the uart are process e...">
<polygon fill="none" stroke="black" points="305.5,-0.5 305.5,-19.5 391.5,-19.5 391.5,-0.5 305.5,-0.5"/>
<text text-anchor="middle" x="348.5" y="-7.5" font-family="Helvetica,sans-Serif" font-size="10.00">Config::execute</text>
</a>
</g>
</g>
<!-- Node14&#45;&gt;Node15 -->
<g id="edge4" class="edge"><title>Node14&#45;&gt;Node15</title>
<path fill="none" stroke="midnightblue" d="M264.754,-10C278.285,-10 292.454,-10 305.167,-10"/>
<polygon fill="midnightblue" stroke="midnightblue" points="264.567,-6.5001 254.567,-10 264.567,-13.5001 264.567,-6.5001"/>
</g>
</g>
</svg>
