<?xml version="1.0" encoding="UTF-8" standalone="no"?>
<!DOCTYPE svg PUBLIC "-//W3C//DTD SVG 1.1//EN"
 "http://www.w3.org/Graphics/SVG/1.1/DTD/svg11.dtd">
<!-- Generated by graphviz version 2.38.0 (20140413.2041)
 -->
<!-- Title: Measure::execute Pages: 1 -->
<svg width="269pt" height="312pt"
 viewBox="0.00 0.00 269.00 312.00" xmlns="http://www.w3.org/2000/svg" xmlns:xlink="http://www.w3.org/1999/xlink">
<g id="graph0" class="graph" transform="scale(1 1) rotate(0) translate(4 308)">
<title>Measure::execute</title>
<!-- Node10 -->
<g id="node1" class="node"><title>Node10</title>
<polygon fill="#bfbfbf" stroke="black" points="0,-142.5 0,-161.5 95,-161.5 95,-142.5 0,-142.5"/>
<text text-anchor="middle" x="47.5" y="-149.5" font-family="Helvetica,sans-Serif" font-size="10.00">Measure::execute</text>
</g>
<!-- Node11 -->
<g id="node2" class="node"><title>Node11</title>
<g id="a_node2"><a xlink:href="class_measure.html#a1518672dff4f81603a35bff08c20e9f5" target="_top" xlink:title="calcul average from the data array ">
<polygon fill="none" stroke="black" points="137,-284.5 137,-303.5 255,-303.5 255,-284.5 137,-284.5"/>
<text text-anchor="middle" x="196" y="-291.5" font-family="Helvetica,sans-Serif" font-size="10.00">Measure::calc_average</text>
</a>
</g>
</g>
<!-- Node10&#45;&gt;Node11 -->
<g id="edge1" class="edge"><title>Node10&#45;&gt;Node11</title>
<path fill="none" stroke="midnightblue" d="M52.2379,-161.656C61.7151,-184.85 88.9556,-244.068 131,-275 133.532,-276.863 136.247,-278.545 139.076,-280.062"/>
<polygon fill="midnightblue" stroke="midnightblue" points="137.874,-283.362 148.421,-284.373 140.806,-277.006 137.874,-283.362"/>
</g>
<!-- Node12 -->
<g id="node3" class="node"><title>Node12</title>
<g id="a_node3"><a xlink:href="class_measure.html#a333a5ff14469e98bed368fd3e268751f" target="_top" xlink:title="this method clear data value to save news ">
<polygon fill="none" stroke="black" points="143.5,-235 143.5,-265 248.5,-265 248.5,-235 143.5,-235"/>
<text text-anchor="start" x="151.5" y="-253" font-family="Helvetica,sans-Serif" font-size="10.00">Measure::clear_data</text>
<text text-anchor="middle" x="196" y="-242" font-family="Helvetica,sans-Serif" font-size="10.00">_array</text>
</a>
</g>
</g>
<!-- Node10&#45;&gt;Node12 -->
<g id="edge2" class="edge"><title>Node10&#45;&gt;Node12</title>
<path fill="none" stroke="midnightblue" d="M57.2225,-161.913C71.351,-177.449 100.725,-207.648 131,-226 133.654,-227.609 136.434,-229.14 139.287,-230.591"/>
<polygon fill="midnightblue" stroke="midnightblue" points="138.038,-233.872 148.577,-234.958 141.016,-227.537 138.038,-233.872"/>
</g>
<!-- Node13 -->
<g id="node4" class="node"><title>Node13</title>
<g id="a_node4"><a xlink:href="class_measure.html#adb3ffd40b37bda243c00893ffb208907" target="_top" xlink:title="this method initialize frequency measurement for anemometer and RPM ">
<polygon fill="none" stroke="black" points="148.5,-186 148.5,-216 243.5,-216 243.5,-186 148.5,-186"/>
<text text-anchor="start" x="156.5" y="-204" font-family="Helvetica,sans-Serif" font-size="10.00">Measure::freq_init</text>
<text text-anchor="middle" x="196" y="-193" font-family="Helvetica,sans-Serif" font-size="10.00">_measurement</text>
</a>
</g>
</g>
<!-- Node10&#45;&gt;Node13 -->
<g id="edge3" class="edge"><title>Node10&#45;&gt;Node13</title>
<path fill="none" stroke="midnightblue" d="M77.0945,-161.564C95.0749,-167.578 118.86,-175.533 140.356,-182.723"/>
<polygon fill="midnightblue" stroke="midnightblue" points="139.449,-186.11 150.043,-185.963 141.669,-179.472 139.449,-186.11"/>
</g>
<!-- Node14 -->
<g id="node5" class="node"><title>Node14</title>
<g id="a_node5"><a xlink:href="class_measure.html#a4390d770b19dbc51e5486fefe9f4b9d1" target="_top" xlink:title="read value from anemometer and RPM ">
<polygon fill="none" stroke="black" points="145.5,-137 145.5,-167 246.5,-167 246.5,-137 145.5,-137"/>
<text text-anchor="start" x="153.5" y="-155" font-family="Helvetica,sans-Serif" font-size="10.00">Measure::freq_read</text>
<text text-anchor="middle" x="196" y="-144" font-family="Helvetica,sans-Serif" font-size="10.00">_value</text>
</a>
</g>
</g>
<!-- Node10&#45;&gt;Node14 -->
<g id="edge4" class="edge"><title>Node10&#45;&gt;Node14</title>
<path fill="none" stroke="midnightblue" d="M95.2563,-152C108.002,-152 121.984,-152 135.341,-152"/>
<polygon fill="midnightblue" stroke="midnightblue" points="135.403,-155.5 145.403,-152 135.403,-148.5 135.403,-155.5"/>
</g>
<!-- Node15 -->
<g id="node6" class="node"><title>Node15</title>
<g id="a_node6"><a xlink:href="class_measure.html#a313b5845f14f7c62f37db11272145320" target="_top" xlink:title="read power value &#45; not define realy (see emonLib) ">
<polygon fill="none" stroke="black" points="141,-88 141,-118 251,-118 251,-88 141,-88"/>
<text text-anchor="start" x="149" y="-106" font-family="Helvetica,sans-Serif" font-size="10.00">Measure::power_read</text>
<text text-anchor="middle" x="196" y="-95" font-family="Helvetica,sans-Serif" font-size="10.00">_value</text>
</a>
</g>
</g>
<!-- Node10&#45;&gt;Node15 -->
<g id="edge5" class="edge"><title>Node10&#45;&gt;Node15</title>
<path fill="none" stroke="midnightblue" d="M77.0945,-142.436C95.0749,-136.422 118.86,-128.467 140.356,-121.277"/>
<polygon fill="midnightblue" stroke="midnightblue" points="141.669,-124.528 150.043,-118.037 139.449,-117.89 141.669,-124.528"/>
</g>
<!-- Node16 -->
<g id="node7" class="node"><title>Node16</title>
<g id="a_node7"><a xlink:href="class_measure.html#ae3c562d3b11c5e202366597b951e969b" target="_top" xlink:title="read the temperature value from one DS18b20 sensor ">
<polygon fill="none" stroke="black" points="140,-39 140,-69 252,-69 252,-39 140,-39"/>
<text text-anchor="start" x="148" y="-57" font-family="Helvetica,sans-Serif" font-size="10.00">Measure::temperature</text>
<text text-anchor="middle" x="196" y="-46" font-family="Helvetica,sans-Serif" font-size="10.00">_read_value</text>
</a>
</g>
</g>
<!-- Node10&#45;&gt;Node16 -->
<g id="edge6" class="edge"><title>Node10&#45;&gt;Node16</title>
<path fill="none" stroke="midnightblue" d="M57.2806,-142.278C71.4885,-127.031 100.97,-97.345 131,-79 134.191,-77.0509 137.559,-75.2042 141.015,-73.4643"/>
<polygon fill="midnightblue" stroke="midnightblue" points="142.733,-76.5245 150.301,-69.1103 139.761,-70.1865 142.733,-76.5245"/>
</g>
<!-- Node17 -->
<g id="node8" class="node"><title>Node17</title>
<g id="a_node8"><a xlink:href="class_measure.html#add6924662bc09f06abc3ec7b6dc2c94e" target="_top" xlink:title="read the windvane value en map it between 0 to 359 degres ">
<polygon fill="none" stroke="black" points="131,-0.5 131,-19.5 261,-19.5 261,-0.5 131,-0.5"/>
<text text-anchor="middle" x="196" y="-7.5" font-family="Helvetica,sans-Serif" font-size="10.00">Measure::windvane_value</text>
</a>
</g>
</g>
<!-- Node10&#45;&gt;Node17 -->
<g id="edge7" class="edge"><title>Node10&#45;&gt;Node17</title>
<path fill="none" stroke="midnightblue" d="M52.289,-142.461C61.8798,-119.54 89.3534,-60.9782 131,-30 134.167,-27.6443 137.618,-25.5618 141.222,-23.7214"/>
<polygon fill="midnightblue" stroke="midnightblue" points="142.707,-26.8912 150.42,-19.6277 139.861,-20.4958 142.707,-26.8912"/>
</g>
</g>
</svg>
