<?xml version="1.0" encoding="UTF-8" standalone="no"?>
<!DOCTYPE svg PUBLIC "-//W3C//DTD SVG 1.1//EN"
 "http://www.w3.org/Graphics/SVG/1.1/DTD/svg11.dtd">
<!-- Generated by graphviz version 2.38.0 (20140413.2041)
 -->
<!-- Title: Usart::set Pages: 1 -->
<!--zoomable 176 -->
<svg id="main" version="1.1" xmlns="http://www.w3.org/2000/svg" xmlns:xlink="http://www.w3.org/1999/xlink" xml:space="preserve" onload="init(evt)">
<style type="text/css"><![CDATA[
.edge:hover path { stroke: red; }
.edge:hover polygon { stroke: red; fill: red; }
]]></style>
<script type="text/javascript"><![CDATA[
var edges = document.getElementsByTagName('g');
if (edges && edges.length) {
  for (var i=0;i<edges.length;i++) {
    if (edges[i].id.substr(0,4)=='edge') {
      edges[i].setAttribute('class','edge');
    }
  }
}
]]></script>
        <defs>
                <circle id="rim" cx="0" cy="0" r="7"/>
                <circle id="rim2" cx="0" cy="0" r="3.5"/>
                <g id="zoomPlus">
                        <use xlink:href="#rim" fill="#404040">
                                <set attributeName="fill" to="#808080" begin="zoomplus.mouseover" end="zoomplus.mouseout"/>
                        </use>
                        <path d="M-4,0h8M0,-4v8" fill="none" stroke="white" stroke-width="1.5" pointer-events="none"/>
                </g>
                <g id="zoomMin">
                        <use xlink:href="#rim" fill="#404040">
                                <set attributeName="fill" to="#808080" begin="zoomminus.mouseover" end="zoomminus.mouseout"/>
                        </use>
                        <path d="M-4,0h8" fill="none" stroke="white" stroke-width="1.5" pointer-events="none"/>
                </g>
                <g id="dirArrow">
                        <path fill="none" stroke="white" stroke-width="1.5" d="M0,-3.0v7 M-2.5,-0.5L0,-3.0L2.5,-0.5"/>
                </g>
               <g id="resetDef">
                       <use xlink:href="#rim2" fill="#404040">
                               <set attributeName="fill" to="#808080" begin="reset.mouseover" end="reset.mouseout"/>
                       </use>
               </g>
        </defs>

<script type="text/javascript">
var viewWidth = 834;
var viewHeight = 176;
var sectionId = 'dynsection-2';
</script>
<script xlink:href="svgpan.js"/>
<svg id="graph" class="graph">
<g id="viewport">
<title>Usart::set</title>
<!-- Node33 -->
<g id="node1" class="node"><title>Node33</title>
<polygon fill="#bfbfbf" stroke="black" points="0,-60.5 0,-79.5 60,-79.5 60,-60.5 0,-60.5"/>
<text text-anchor="middle" x="30" y="-67.5" font-family="Helvetica,sans-Serif" font-size="10.00">Usart::set</text>
</g>
<!-- Node34 -->
<g id="node2" class="node"><title>Node34</title>
<g id="a_node2"><a xlink:href="class_f_s_m.html#a3819be8e9fe92b750f47b9731e92f254" target="_top" xlink:title="Call when a string from usart0 finish by &quot;\r\n&quot;. ">
<polygon fill="none" stroke="black" points="96,-126.5 96,-145.5 233,-145.5 233,-126.5 96,-126.5"/>
<text text-anchor="middle" x="164.5" y="-133.5" font-family="Helvetica,sans-Serif" font-size="10.00">FSM::character_processing</text>
</a>
</g>
</g>
<!-- Node33&#45;&gt;Node34 -->
<g id="edge1" class="edge"><title>Node33&#45;&gt;Node34</title>
<path fill="none" stroke="midnightblue" d="M50.0714,-86.0366C62.4976,-95.822 79.4282,-107.955 96,-116 104.576,-120.164 114.193,-123.647 123.419,-126.477"/>
<polygon fill="midnightblue" stroke="midnightblue" points="52.2263,-83.2781 42.2481,-79.7162 47.8273,-88.7231 52.2263,-83.2781"/>
</g>
<!-- Node36 -->
<g id="node4" class="node"><title>Node36</title>
<g id="a_node4"><a xlink:href="class_sensor.html#aa03d707dfa7562805b77f9040831418b" target="_top" xlink:title="Sensor::print_data\l_array">
<polygon fill="none" stroke="black" points="116.5,-77 116.5,-107 212.5,-107 212.5,-77 116.5,-77"/>
<text text-anchor="start" x="124.5" y="-95" font-family="Helvetica,sans-Serif" font-size="10.00">Sensor::print_data</text>
<text text-anchor="middle" x="164.5" y="-84" font-family="Helvetica,sans-Serif" font-size="10.00">_array</text>
</a>
</g>
</g>
<!-- Node33&#45;&gt;Node36 -->
<g id="edge3" class="edge"><title>Node33&#45;&gt;Node36</title>
<path fill="none" stroke="midnightblue" d="M70.1865,-76.5064C84.6421,-78.9066 101.174,-81.6515 116.266,-84.1575"/>
<polygon fill="midnightblue" stroke="midnightblue" points="70.5159,-73.0133 60.0777,-74.828 69.3693,-79.9188 70.5159,-73.0133"/>
</g>
<!-- Node46 -->
<g id="node14" class="node"><title>Node46</title>
<g id="a_node14"><a xlink:href="class_power.html#acd77541eabe8feb58e0b73154268cdd2" target="_top" xlink:title="Power::print_data_array">
<polygon fill="none" stroke="black" points="104.5,-38.5 104.5,-57.5 224.5,-57.5 224.5,-38.5 104.5,-38.5"/>
<text text-anchor="middle" x="164.5" y="-45.5" font-family="Helvetica,sans-Serif" font-size="10.00">Power::print_data_array</text>
</a>
</g>
</g>
<!-- Node33&#45;&gt;Node46 -->
<g id="edge16" class="edge"><title>Node33&#45;&gt;Node46</title>
<path fill="none" stroke="midnightblue" d="M70.0696,-63.513C81.395,-61.6325 94.0024,-59.5392 106.198,-57.5143"/>
<polygon fill="midnightblue" stroke="midnightblue" points="69.3693,-60.0812 60.0777,-65.172 70.5159,-66.9867 69.3693,-60.0812"/>
</g>
<!-- Node49 -->
<g id="node17" class="node"><title>Node49</title>
<g id="a_node17"><a xlink:href="classpower_d_c.html#aedca6b1fc36cfddd8876fadb387debe1" target="_top" xlink:title="powerDC::~powerDC">
<polygon fill="none" stroke="black" points="269,-0.5 269,-19.5 380,-19.5 380,-0.5 269,-0.5"/>
<text text-anchor="middle" x="324.5" y="-7.5" font-family="Helvetica,sans-Serif" font-size="10.00">powerDC::~powerDC</text>
</a>
</g>
</g>
<!-- Node33&#45;&gt;Node49 -->
<g id="edge20" class="edge"><title>Node33&#45;&gt;Node49</title>
<path fill="none" stroke="midnightblue" d="M50.6835,-54.0564C62.9563,-45.0507 79.5069,-34.5212 96,-29 152.752,-10.002 221.705,-6.80527 268.721,-7.37899"/>
<polygon fill="midnightblue" stroke="midnightblue" points="48.3918,-51.4024 42.565,-60.2511 52.6381,-56.9674 48.3918,-51.4024"/>
</g>
<!-- Node35 -->
<g id="node3" class="node"><title>Node35</title>
<g id="a_node3"><a xlink:href="main_8cpp.html#ae66f6b31b5ad750f1fe042a706a4e3d4" target="_top" xlink:title="main">
<polygon fill="none" stroke="black" points="305.5,-126.5 305.5,-145.5 343.5,-145.5 343.5,-126.5 305.5,-126.5"/>
<text text-anchor="middle" x="324.5" y="-133.5" font-family="Helvetica,sans-Serif" font-size="10.00">main</text>
</a>
</g>
</g>
<!-- Node34&#45;&gt;Node35 -->
<g id="edge2" class="edge"><title>Node34&#45;&gt;Node35</title>
<path fill="none" stroke="midnightblue" d="M243.637,-136C266.716,-136 289.893,-136 305.289,-136"/>
<polygon fill="midnightblue" stroke="midnightblue" points="243.423,-132.5 233.423,-136 243.423,-139.5 243.423,-132.5"/>
</g>
<!-- Node37 -->
<g id="node5" class="node"><title>Node37</title>
<g id="a_node5"><a xlink:href="class_sensor.html#a4e88d49608387ab4f65734913e514109" target="_top" xlink:title="Sensor::is_enable">
<polygon fill="none" stroke="black" points="277,-85.5 277,-104.5 372,-104.5 372,-85.5 277,-85.5"/>
<text text-anchor="middle" x="324.5" y="-92.5" font-family="Helvetica,sans-Serif" font-size="10.00">Sensor::is_enable</text>
</a>
</g>
</g>
<!-- Node36&#45;&gt;Node37 -->
<g id="edge4" class="edge"><title>Node36&#45;&gt;Node37</title>
<path fill="none" stroke="midnightblue" d="M223.121,-93.0941C240.825,-93.4302 260.079,-93.7958 276.944,-94.116"/>
<polygon fill="midnightblue" stroke="midnightblue" points="222.97,-89.5907 212.905,-92.9001 222.837,-96.5894 222.97,-89.5907"/>
</g>
<!-- Node38 -->
<g id="node6" class="node"><title>Node38</title>
<g id="a_node6"><a xlink:href="class_sensor.html#ae16fd0cbdda6cfed1deac36f5c7c0a8f" target="_top" xlink:title="This method calculate the average from the data array. ">
<polygon fill="none" stroke="black" points="423,-98.5 423,-117.5 534,-117.5 534,-98.5 423,-98.5"/>
<text text-anchor="middle" x="478.5" y="-105.5" font-family="Helvetica,sans-Serif" font-size="10.00">Sensor::calc_average</text>
</a>
</g>
</g>
<!-- Node37&#45;&gt;Node38 -->
<g id="edge5" class="edge"><title>Node37&#45;&gt;Node38</title>
<path fill="none" stroke="midnightblue" d="M382.508,-93.3166C400.62,-94.4944 420.269,-96.3451 436.972,-98.485"/>
<polygon fill="midnightblue" stroke="midnightblue" points="382.534,-89.8122 372.345,-92.7189 382.122,-96.8001 382.534,-89.8122"/>
</g>
<!-- Node41 -->
<g id="node9" class="node"><title>Node41</title>
<g id="a_node9"><a xlink:href="class_sensor.html#a38a47820684e5ff0f61ad32b8afbde45" target="_top" xlink:title="The print_average method print the average&#39;s value in the string. ">
<polygon fill="none" stroke="black" points="422.5,-60.5 422.5,-79.5 534.5,-79.5 534.5,-60.5 422.5,-60.5"/>
<text text-anchor="middle" x="478.5" y="-67.5" font-family="Helvetica,sans-Serif" font-size="10.00">Sensor::print_average</text>
</a>
</g>
</g>
<!-- Node37&#45;&gt;Node41 -->
<g id="edge9" class="edge"><title>Node37&#45;&gt;Node41</title>
<path fill="none" stroke="midnightblue" d="M361.524,-83.235C379.711,-79.3297 402.167,-75.4107 422.461,-72.536"/>
<polygon fill="midnightblue" stroke="midnightblue" points="360.618,-79.8512 351.63,-85.4603 362.154,-86.6806 360.618,-79.8512"/>
</g>
<!-- Node44 -->
<g id="node12" class="node"><title>Node44</title>
<g id="a_node12"><a xlink:href="class_anemometer.html#a9be3b4b392ef08ef29c769e6ce4bebf4" target="_top" xlink:title="Anemometer::read_value">
<polygon fill="none" stroke="black" points="416,-139.5 416,-158.5 541,-158.5 541,-139.5 416,-139.5"/>
<text text-anchor="middle" x="478.5" y="-146.5" font-family="Helvetica,sans-Serif" font-size="10.00">Anemometer::read_value</text>
</a>
</g>
</g>
<!-- Node37&#45;&gt;Node44 -->
<g id="edge13" class="edge"><title>Node37&#45;&gt;Node44</title>
<path fill="none" stroke="midnightblue" d="M361.921,-107.939C389.241,-117.645 426.023,-130.712 450.688,-139.475"/>
<polygon fill="midnightblue" stroke="midnightblue" points="362.919,-104.579 352.325,-104.53 360.576,-111.176 362.919,-104.579"/>
</g>
<!-- Node38&#45;&gt;Node37 -->
<g id="edge8" class="edge"><title>Node38&#45;&gt;Node37</title>
<path fill="none" stroke="midnightblue" d="M412.696,-109.142C396.935,-107.98 380.516,-106.367 366.233,-104.541"/>
<polygon fill="midnightblue" stroke="midnightblue" points="412.715,-112.651 422.93,-109.838 413.191,-105.667 412.715,-112.651"/>
</g>
<!-- Node39 -->
<g id="node7" class="node"><title>Node39</title>
<g id="a_node7"><a xlink:href="class_measure.html#a1518672dff4f81603a35bff08c20e9f5" target="_top" xlink:title="calcul average from the data array ">
<polygon fill="none" stroke="black" points="577,-98.5 577,-117.5 695,-117.5 695,-98.5 577,-98.5"/>
<text text-anchor="middle" x="636" y="-105.5" font-family="Helvetica,sans-Serif" font-size="10.00">Measure::calc_average</text>
</a>
</g>
</g>
<!-- Node38&#45;&gt;Node39 -->
<g id="edge6" class="edge"><title>Node38&#45;&gt;Node39</title>
<path fill="none" stroke="midnightblue" d="M544.52,-108C555.291,-108 566.398,-108 576.982,-108"/>
<polygon fill="midnightblue" stroke="midnightblue" points="544.324,-104.5 534.323,-108 544.323,-111.5 544.324,-104.5"/>
</g>
<!-- Node40 -->
<g id="node8" class="node"><title>Node40</title>
<g id="a_node8"><a xlink:href="class_measure.html#a754d2de10d1a44bb3b62ab162ceeaae2" target="_top" xlink:title="The execute method is the measure &quot;main function&quot; The execute function work as this scheme : ...">
<polygon fill="none" stroke="black" points="731,-120.5 731,-139.5 826,-139.5 826,-120.5 731,-120.5"/>
<text text-anchor="middle" x="778.5" y="-127.5" font-family="Helvetica,sans-Serif" font-size="10.00">Measure::execute</text>
</a>
</g>
</g>
<!-- Node39&#45;&gt;Node40 -->
<g id="edge7" class="edge"><title>Node39&#45;&gt;Node40</title>
<path fill="none" stroke="midnightblue" d="M705.366,-118.705C713.927,-120.045 722.525,-121.392 730.651,-122.664"/>
<polygon fill="midnightblue" stroke="midnightblue" points="705.785,-115.228 695.364,-117.139 704.702,-122.144 705.785,-115.228"/>
</g>
<!-- Node41&#45;&gt;Node37 -->
<g id="edge10" class="edge"><title>Node41&#45;&gt;Node37</title>
<path fill="none" stroke="midnightblue" d="M441.411,-81.7791C420.745,-86.2141 394.583,-90.6653 372.345,-93.5828"/>
<polygon fill="midnightblue" stroke="midnightblue" points="442.38,-85.1485 451.369,-79.54 440.845,-78.319 442.38,-85.1485"/>
</g>
<!-- Node42 -->
<g id="node10" class="node"><title>Node42</title>
<g id="a_node10"><a xlink:href="class_output.html#af4bc42d2d3bb3b2a98782f0df0eba133" target="_top" xlink:title="Output::usart0_print">
<polygon fill="none" stroke="black" points="584.5,-60.5 584.5,-79.5 687.5,-79.5 687.5,-60.5 584.5,-60.5"/>
<text text-anchor="middle" x="636" y="-67.5" font-family="Helvetica,sans-Serif" font-size="10.00">Output::usart0_print</text>
</a>
</g>
</g>
<!-- Node41&#45;&gt;Node42 -->
<g id="edge11" class="edge"><title>Node41&#45;&gt;Node42</title>
<path fill="none" stroke="midnightblue" d="M545.141,-70C558.245,-70 571.82,-70 584.327,-70"/>
<polygon fill="midnightblue" stroke="midnightblue" points="544.761,-66.5001 534.761,-70 544.761,-73.5001 544.761,-66.5001"/>
</g>
<!-- Node43 -->
<g id="node11" class="node"><title>Node43</title>
<g id="a_node11"><a xlink:href="class_output.html#a087f4330e641bb4682ab2862bca7a1af" target="_top" xlink:title="Output::execute">
<polygon fill="none" stroke="black" points="735.5,-60.5 735.5,-79.5 821.5,-79.5 821.5,-60.5 735.5,-60.5"/>
<text text-anchor="middle" x="778.5" y="-67.5" font-family="Helvetica,sans-Serif" font-size="10.00">Output::execute</text>
</a>
</g>
</g>
<!-- Node42&#45;&gt;Node43 -->
<g id="edge12" class="edge"><title>Node42&#45;&gt;Node43</title>
<path fill="none" stroke="midnightblue" d="M697.726,-70C710.349,-70 723.391,-70 735.179,-70"/>
<polygon fill="midnightblue" stroke="midnightblue" points="697.724,-66.5001 687.724,-70 697.724,-73.5001 697.724,-66.5001"/>
</g>
<!-- Node45 -->
<g id="node13" class="node"><title>Node45</title>
<g id="a_node13"><a xlink:href="class_measure.html#a4390d770b19dbc51e5486fefe9f4b9d1" target="_top" xlink:title="read value from anemometer and RPM ">
<polygon fill="none" stroke="black" points="585.5,-137 585.5,-167 686.5,-167 686.5,-137 585.5,-137"/>
<text text-anchor="start" x="593.5" y="-155" font-family="Helvetica,sans-Serif" font-size="10.00">Measure::freq_read</text>
<text text-anchor="middle" x="636" y="-144" font-family="Helvetica,sans-Serif" font-size="10.00">_value</text>
</a>
</g>
</g>
<!-- Node44&#45;&gt;Node45 -->
<g id="edge14" class="edge"><title>Node44&#45;&gt;Node45</title>
<path fill="none" stroke="midnightblue" d="M551.747,-150.394C563.088,-150.613 574.585,-150.834 585.268,-151.041"/>
<polygon fill="midnightblue" stroke="midnightblue" points="551.47,-146.888 541.405,-150.194 551.335,-153.887 551.47,-146.888"/>
</g>
<!-- Node45&#45;&gt;Node40 -->
<g id="edge15" class="edge"><title>Node45&#45;&gt;Node40</title>
<path fill="none" stroke="midnightblue" d="M696.472,-142.688C707.931,-140.893 719.782,-139.038 730.766,-137.318"/>
<polygon fill="midnightblue" stroke="midnightblue" points="695.873,-139.239 686.535,-144.244 696.956,-146.154 695.873,-139.239"/>
</g>
<!-- Node47 -->
<g id="node15" class="node"><title>Node47</title>
<g id="a_node15"><a xlink:href="class_power.html#a1e7595ee0b3b0439d979ffeab785d0d8" target="_top" xlink:title="Power::set_i_offset">
<polygon fill="none" stroke="black" points="274,-38.5 274,-57.5 375,-57.5 375,-38.5 274,-38.5"/>
<text text-anchor="middle" x="324.5" y="-45.5" font-family="Helvetica,sans-Serif" font-size="10.00">Power::set_i_offset</text>
</a>
</g>
</g>
<!-- Node46&#45;&gt;Node47 -->
<g id="edge17" class="edge"><title>Node46&#45;&gt;Node47</title>
<path fill="none" stroke="midnightblue" d="M235.164,-48C248.236,-48 261.653,-48 273.957,-48"/>
<polygon fill="midnightblue" stroke="midnightblue" points="234.783,-44.5001 224.783,-48 234.783,-51.5001 234.783,-44.5001"/>
</g>
<!-- Node46&#45;&gt;Node49 -->
<g id="edge19" class="edge"><title>Node46&#45;&gt;Node49</title>
<path fill="none" stroke="midnightblue" d="M215.262,-36.032C237.403,-30.7069 263.112,-24.5238 283.917,-19.5201"/>
<polygon fill="midnightblue" stroke="midnightblue" points="214.274,-32.6696 205.37,-38.411 215.911,-39.4755 214.274,-32.6696"/>
</g>
<!-- Node48 -->
<g id="node16" class="node"><title>Node48</title>
<g id="a_node16"><a xlink:href="class_config.html#a2a806f322b0d533aabdb8e796d3b1033" target="_top" xlink:title="The execute method is the config &quot;main function&quot; In this method, sentence from the uart are process e...">
<polygon fill="none" stroke="black" points="435.5,-22.5 435.5,-41.5 521.5,-41.5 521.5,-22.5 435.5,-22.5"/>
<text text-anchor="middle" x="478.5" y="-29.5" font-family="Helvetica,sans-Serif" font-size="10.00">Config::execute</text>
</a>
</g>
</g>
<!-- Node47&#45;&gt;Node48 -->
<g id="edge18" class="edge"><title>Node47&#45;&gt;Node48</title>
<path fill="none" stroke="midnightblue" d="M385.47,-41.6873C402.124,-39.9343 419.854,-38.068 435.26,-36.4463"/>
<polygon fill="midnightblue" stroke="midnightblue" points="384.849,-38.2333 375.27,-42.761 385.582,-45.1948 384.849,-38.2333"/>
</g>
</g>
</svg>
        <g id="navigator" transform="translate(0 0)" fill="#404254">
                <rect fill="#f2f5e9" fill-opacity="0.5" stroke="#606060" stroke-width=".5" x="0" y="0" width="60" height="60"/>
                <use id="zoomplus" xlink:href="#zoomPlus" x="17" y="9" onmousedown="handleZoom(evt,'in')"/>
                <use id="zoomminus" xlink:href="#zoomMin" x="42" y="9" onmousedown="handleZoom(evt,'out')"/>
                <use id="reset" xlink:href="#resetDef" x="30" y="36" onmousedown="handleReset()"/>
                <g id="arrowUp" xlink:href="#dirArrow" transform="translate(30 24)" onmousedown="handlePan(0,-1)">
                  <use xlink:href="#rim" fill="#404040">
                        <set attributeName="fill" to="#808080" begin="arrowUp.mouseover" end="arrowUp.mouseout"/>
                  </use>
                  <path fill="none" stroke="white" stroke-width="1.5" d="M0,-3.0v7 M-2.5,-0.5L0,-3.0L2.5,-0.5"/>
                </g>
                <g id="arrowRight" xlink:href="#dirArrow" transform="rotate(90) translate(36 -43)" onmousedown="handlePan(1,0)">
                  <use xlink:href="#rim" fill="#404040">
                        <set attributeName="fill" to="#808080" begin="arrowRight.mouseover" end="arrowRight.mouseout"/>
                  </use>
                  <path fill="none" stroke="white" stroke-width="1.5" d="M0,-3.0v7 M-2.5,-0.5L0,-3.0L2.5,-0.5"/>
                </g>
                <g id="arrowDown" xlink:href="#dirArrow" transform="rotate(180) translate(-30 -48)" onmousedown="handlePan(0,1)">
                  <use xlink:href="#rim" fill="#404040">
                        <set attributeName="fill" to="#808080" begin="arrowDown.mouseover" end="arrowDown.mouseout"/>
                  </use>
                  <path fill="none" stroke="white" stroke-width="1.5" d="M0,-3.0v7 M-2.5,-0.5L0,-3.0L2.5,-0.5"/>
                </g>
                <g id="arrowLeft" xlink:href="#dirArrow" transform="rotate(270) translate(-36 17)" onmousedown="handlePan(-1,0)">
                  <use xlink:href="#rim" fill="#404040">
                        <set attributeName="fill" to="#808080" begin="arrowLeft.mouseover" end="arrowLeft.mouseout"/>
                  </use>
                  <path fill="none" stroke="white" stroke-width="1.5" d="M0,-3.0v7 M-2.5,-0.5L0,-3.0L2.5,-0.5"/>
                </g>
        </g>
        <svg viewBox="0 0 15 15" width="100%" height="30px" preserveAspectRatio="xMaxYMin meet">
         <g id="arrow_out" transform="scale(0.3 0.3)">
          <a xlink:href="class_usart_a86c9264f48dabbc3d97fa32d2d02d22d_icgraph_org.svg" target="_base">
           <rect id="button" ry="5" rx="5" y="6" x="6" height="38" width="38"
                fill="#f2f5e9" fill-opacity="0.5" stroke="#606060" stroke-width="1.0"/>
           <path id="arrow"
             d="M 11.500037,31.436501 C 11.940474,20.09759 22.043105,11.32322 32.158766,21.979434 L 37.068811,17.246167 C 37.068811,17.246167 37.088388,32 37.088388,32 L 22.160133,31.978069 C 22.160133,31.978069 26.997745,27.140456 26.997745,27.140456 C 18.528582,18.264221 13.291696,25.230495 11.500037,31.436501 z"
             style="fill:#404040;"/>
          </a>
         </g>
        </svg>
</svg>
