<?xml version="1.0" encoding="UTF-8" standalone="no"?>
<!DOCTYPE svg PUBLIC "-//W3C//DTD SVG 1.1//EN"
 "http://www.w3.org/Graphics/SVG/1.1/DTD/svg11.dtd">
<!-- Generated by graphviz version 2.38.0 (20140413.2041)
 -->
<!-- Title: TWI::set_char Pages: 1 -->
<svg width="210pt" height="104pt"
 viewBox="0.00 0.00 210.00 104.00" xmlns="http://www.w3.org/2000/svg" xmlns:xlink="http://www.w3.org/1999/xlink">
<g id="graph0" class="graph" transform="scale(1 1) rotate(0) translate(4 100)">
<title>TWI::set_char</title>
<!-- Node55 -->
<g id="node1" class="node"><title>Node55</title>
<polygon fill="#bfbfbf" stroke="black" points="0,-38.5 0,-57.5 79,-57.5 79,-38.5 0,-38.5"/>
<text text-anchor="middle" x="39.5" y="-45.5" font-family="Helvetica,sans-Serif" font-size="10.00">TWI::set_char</text>
</g>
<!-- Node56 -->
<g id="node2" class="node"><title>Node56</title>
<g id="a_node2"><a xlink:href="class_t_w_i.html#a6bde06891e3037d407b28a4ecbc3386f" target="_top" xlink:title="TWI::get_status">
<polygon fill="none" stroke="black" points="115,-76.5 115,-95.5 202,-95.5 202,-76.5 115,-76.5"/>
<text text-anchor="middle" x="158.5" y="-83.5" font-family="Helvetica,sans-Serif" font-size="10.00">TWI::get_status</text>
</a>
</g>
</g>
<!-- Node55&#45;&gt;Node56 -->
<g id="edge1" class="edge"><title>Node55&#45;&gt;Node56</title>
<path fill="none" stroke="midnightblue" d="M70.024,-57.589C84.7119,-62.3594 102.66,-68.1888 118.468,-73.3229"/>
<polygon fill="midnightblue" stroke="midnightblue" points="117.393,-76.6538 127.985,-76.4141 119.556,-69.9961 117.393,-76.6538"/>
</g>
<!-- Node57 -->
<g id="node3" class="node"><title>Node57</title>
<g id="a_node3"><a xlink:href="class_t_w_i.html#a130b2bf159b768c28ae0d4129c556711" target="_top" xlink:title="TWI::start">
<polygon fill="none" stroke="black" points="128,-38.5 128,-57.5 189,-57.5 189,-38.5 128,-38.5"/>
<text text-anchor="middle" x="158.5" y="-45.5" font-family="Helvetica,sans-Serif" font-size="10.00">TWI::start</text>
</a>
</g>
</g>
<!-- Node55&#45;&gt;Node57 -->
<g id="edge2" class="edge"><title>Node55&#45;&gt;Node57</title>
<path fill="none" stroke="midnightblue" d="M79.1344,-48C91.5107,-48 105.233,-48 117.692,-48"/>
<polygon fill="midnightblue" stroke="midnightblue" points="117.802,-51.5001 127.802,-48 117.802,-44.5001 117.802,-51.5001"/>
</g>
<!-- Node58 -->
<g id="node4" class="node"><title>Node58</title>
<g id="a_node4"><a xlink:href="class_t_w_i.html#a3ed950888f040e24dc9dcb0ba65d17f1" target="_top" xlink:title="TWI::stop">
<polygon fill="none" stroke="black" points="128.5,-0.5 128.5,-19.5 188.5,-19.5 188.5,-0.5 128.5,-0.5"/>
<text text-anchor="middle" x="158.5" y="-7.5" font-family="Helvetica,sans-Serif" font-size="10.00">TWI::stop</text>
</a>
</g>
</g>
<!-- Node55&#45;&gt;Node58 -->
<g id="edge3" class="edge"><title>Node55&#45;&gt;Node58</title>
<path fill="none" stroke="midnightblue" d="M70.024,-38.411C84.8241,-33.6042 102.934,-27.7222 118.829,-22.5597"/>
<polygon fill="midnightblue" stroke="midnightblue" points="119.961,-25.8722 128.391,-19.4543 117.799,-19.2146 119.961,-25.8722"/>
</g>
</g>
</svg>
