<?xml version="1.0" encoding="UTF-8" standalone="no"?>
<!DOCTYPE svg PUBLIC "-//W3C//DTD SVG 1.1//EN"
 "http://www.w3.org/Graphics/SVG/1.1/DTD/svg11.dtd">
<!-- Generated by graphviz version 2.38.0 (20140413.2041)
 -->
<!-- Title: Output::usart0_print Pages: 1 -->
<svg width="259pt" height="104pt"
 viewBox="0.00 0.00 259.00 104.00" xmlns="http://www.w3.org/2000/svg" xmlns:xlink="http://www.w3.org/1999/xlink">
<g id="graph0" class="graph" transform="scale(1 1) rotate(0) translate(4 100)">
<title>Output::usart0_print</title>
<!-- Node24 -->
<g id="node1" class="node"><title>Node24</title>
<polygon fill="#bfbfbf" stroke="black" points="0,-38.5 0,-57.5 103,-57.5 103,-38.5 0,-38.5"/>
<text text-anchor="middle" x="51.5" y="-45.5" font-family="Helvetica,sans-Serif" font-size="10.00">Output::usart0_print</text>
</g>
<!-- Node25 -->
<g id="node2" class="node"><title>Node25</title>
<g id="a_node2"><a xlink:href="class_usart.html#ab236d7c399791bbe1431f85e9b60f601" target="_top" xlink:title="USART string sender function. ">
<polygon fill="none" stroke="black" points="162.5,-76.5 162.5,-95.5 227.5,-95.5 227.5,-76.5 162.5,-76.5"/>
<text text-anchor="middle" x="195" y="-83.5" font-family="Helvetica,sans-Serif" font-size="10.00">Usart::print</text>
</a>
</g>
</g>
<!-- Node24&#45;&gt;Node25 -->
<g id="edge1" class="edge"><title>Node24&#45;&gt;Node25</title>
<path fill="none" stroke="midnightblue" d="M88.2064,-57.589C107.766,-62.8418 132.106,-69.3784 152.507,-74.8571"/>
<polygon fill="midnightblue" stroke="midnightblue" points="151.602,-78.2379 162.167,-77.4513 153.417,-71.4774 151.602,-78.2379"/>
</g>
<!-- Node26 -->
<g id="node3" class="node"><title>Node26</title>
<g id="a_node3"><a xlink:href="class_sensor.html#a38a47820684e5ff0f61ad32b8afbde45" target="_top" xlink:title="The print_average method print the average&#39;s value in the string. ">
<polygon fill="none" stroke="black" points="139,-38.5 139,-57.5 251,-57.5 251,-38.5 139,-38.5"/>
<text text-anchor="middle" x="195" y="-45.5" font-family="Helvetica,sans-Serif" font-size="10.00">Sensor::print_average</text>
</a>
</g>
</g>
<!-- Node24&#45;&gt;Node26 -->
<g id="edge2" class="edge"><title>Node24&#45;&gt;Node26</title>
<path fill="none" stroke="midnightblue" d="M103.185,-48C111.507,-48 120.232,-48 128.846,-48"/>
<polygon fill="midnightblue" stroke="midnightblue" points="128.876,-51.5001 138.876,-48 128.876,-44.5001 128.876,-51.5001"/>
</g>
<!-- Node27 -->
<g id="node4" class="node"><title>Node27</title>
<g id="a_node4"><a xlink:href="class_power.html#a6c1622c43b34a31d8929674b33433c20" target="_top" xlink:title="The print_average method print the average&#39;s value in the string. ">
<polygon fill="none" stroke="black" points="140.5,-0.5 140.5,-19.5 249.5,-19.5 249.5,-0.5 140.5,-0.5"/>
<text text-anchor="middle" x="195" y="-7.5" font-family="Helvetica,sans-Serif" font-size="10.00">Power::print_average</text>
</a>
</g>
</g>
<!-- Node24&#45;&gt;Node27 -->
<g id="edge3" class="edge"><title>Node24&#45;&gt;Node27</title>
<path fill="none" stroke="midnightblue" d="M88.2064,-38.411C106.473,-33.5056 128.908,-27.4804 148.411,-22.2429"/>
<polygon fill="midnightblue" stroke="midnightblue" points="149.555,-25.5599 158.305,-19.5859 147.739,-18.7994 149.555,-25.5599"/>
</g>
</g>
</svg>
