<?xml version="1.0" encoding="UTF-8" standalone="no"?>
<!DOCTYPE svg PUBLIC "-//W3C//DTD SVG 1.1//EN"
 "http://www.w3.org/Graphics/SVG/1.1/DTD/svg11.dtd">
<!-- Generated by graphviz version 2.38.0 (20140413.2041)
 -->
<!-- Title: Power::read_dc_value Pages: 1 -->
<svg width="398pt" height="78pt"
 viewBox="0.00 0.00 398.00 77.50" xmlns="http://www.w3.org/2000/svg" xmlns:xlink="http://www.w3.org/1999/xlink">
<g id="graph0" class="graph" transform="scale(1 1) rotate(0) translate(4 73.5)">
<title>Power::read_dc_value</title>
<!-- Node61 -->
<g id="node1" class="node"><title>Node61</title>
<polygon fill="#bfbfbf" stroke="black" points="0,-22.5 0,-41.5 113,-41.5 113,-22.5 0,-22.5"/>
<text text-anchor="middle" x="56.5" y="-29.5" font-family="Helvetica,sans-Serif" font-size="10.00">Power::read_dc_value</text>
</g>
<!-- Node62 -->
<g id="node2" class="node"><title>Node62</title>
<g id="a_node2"><a xlink:href="class_measure.html#a313b5845f14f7c62f37db11272145320" target="_top" xlink:title="read power value &#45; not define realy (see emonLib) ">
<polygon fill="none" stroke="black" points="149,-39 149,-69 259,-69 259,-39 149,-39"/>
<text text-anchor="start" x="157" y="-57" font-family="Helvetica,sans-Serif" font-size="10.00">Measure::power_read</text>
<text text-anchor="middle" x="204" y="-46" font-family="Helvetica,sans-Serif" font-size="10.00">_value</text>
</a>
</g>
</g>
<!-- Node61&#45;&gt;Node62 -->
<g id="edge1" class="edge"><title>Node61&#45;&gt;Node62</title>
<path fill="none" stroke="midnightblue" d="M123.328,-41.9534C131.913,-43.2515 140.628,-44.5692 148.989,-45.8334"/>
<polygon fill="midnightblue" stroke="midnightblue" points="123.749,-38.4773 113.338,-40.4429 122.702,-45.3986 123.749,-38.4773"/>
</g>
<!-- Node64 -->
<g id="node4" class="node"><title>Node64</title>
<g id="a_node4"><a xlink:href="class_power.html#a1e7595ee0b3b0439d979ffeab785d0d8" target="_top" xlink:title="Power::set_i_offset">
<polygon fill="none" stroke="black" points="153.5,-0.5 153.5,-19.5 254.5,-19.5 254.5,-0.5 153.5,-0.5"/>
<text text-anchor="middle" x="204" y="-7.5" font-family="Helvetica,sans-Serif" font-size="10.00">Power::set_i_offset</text>
</a>
</g>
</g>
<!-- Node61&#45;&gt;Node64 -->
<g id="edge3" class="edge"><title>Node61&#45;&gt;Node64</title>
<path fill="none" stroke="midnightblue" d="M123.313,-22.049C133.375,-20.5274 143.617,-18.9789 153.258,-17.5211"/>
<polygon fill="midnightblue" stroke="midnightblue" points="122.702,-18.6014 113.338,-23.5571 123.749,-25.5227 122.702,-18.6014"/>
</g>
<!-- Node63 -->
<g id="node3" class="node"><title>Node63</title>
<g id="a_node3"><a xlink:href="class_measure.html#a754d2de10d1a44bb3b62ab162ceeaae2" target="_top" xlink:title="The execute method is the measure &quot;main function&quot; The execute function work as this scheme : ...">
<polygon fill="none" stroke="black" points="295,-44.5 295,-63.5 390,-63.5 390,-44.5 295,-44.5"/>
<text text-anchor="middle" x="342.5" y="-51.5" font-family="Helvetica,sans-Serif" font-size="10.00">Measure::execute</text>
</a>
</g>
</g>
<!-- Node62&#45;&gt;Node63 -->
<g id="edge2" class="edge"><title>Node62&#45;&gt;Node63</title>
<path fill="none" stroke="midnightblue" d="M269.355,-54C277.947,-54 286.621,-54 294.83,-54"/>
<polygon fill="midnightblue" stroke="midnightblue" points="269.341,-50.5001 259.341,-54 269.341,-57.5001 269.341,-50.5001"/>
</g>
<!-- Node65 -->
<g id="node5" class="node"><title>Node65</title>
<g id="a_node5"><a xlink:href="class_config.html#a2a806f322b0d533aabdb8e796d3b1033" target="_top" xlink:title="The execute method is the config &quot;main function&quot; In this method, sentence from the uart are process e...">
<polygon fill="none" stroke="black" points="299.5,-0.5 299.5,-19.5 385.5,-19.5 385.5,-0.5 299.5,-0.5"/>
<text text-anchor="middle" x="342.5" y="-7.5" font-family="Helvetica,sans-Serif" font-size="10.00">Config::execute</text>
</a>
</g>
</g>
<!-- Node64&#45;&gt;Node65 -->
<g id="edge4" class="edge"><title>Node64&#45;&gt;Node65</title>
<path fill="none" stroke="midnightblue" d="M264.769,-10C276.403,-10 288.371,-10 299.292,-10"/>
<polygon fill="midnightblue" stroke="midnightblue" points="264.666,-6.5001 254.666,-10 264.666,-13.5001 264.666,-6.5001"/>
</g>
</g>
</svg>
