<?xml version="1.0" encoding="UTF-8" standalone="no"?>
<!DOCTYPE svg PUBLIC "-//W3C//DTD SVG 1.1//EN"
 "http://www.w3.org/Graphics/SVG/1.1/DTD/svg11.dtd">
<!-- Generated by graphviz version 2.38.0 (20140413.2041)
 -->
<!-- Title: Sensor::load_param Pages: 1 -->
<svg width="689pt" height="116pt"
 viewBox="0.00 0.00 689.00 115.50" xmlns="http://www.w3.org/2000/svg" xmlns:xlink="http://www.w3.org/1999/xlink">
<g id="graph0" class="graph" transform="scale(1 1) rotate(0) translate(4 111.5)">
<title>Sensor::load_param</title>
<!-- Node64 -->
<g id="node1" class="node"><title>Node64</title>
<polygon fill="#bfbfbf" stroke="black" points="0,-38.5 0,-57.5 104,-57.5 104,-38.5 0,-38.5"/>
<text text-anchor="middle" x="52" y="-45.5" font-family="Helvetica,sans-Serif" font-size="10.00">Sensor::load_param</text>
</g>
<!-- Node65 -->
<g id="node2" class="node"><title>Node65</title>
<g id="a_node2"><a xlink:href="class_f_s_m.html#a2fccf1c016c43e4fa4ee512311bf9d7d" target="_top" xlink:title="Class constructor. ">
<polygon fill="none" stroke="black" points="155,-76.5 155,-95.5 220,-95.5 220,-76.5 155,-76.5"/>
<text text-anchor="middle" x="187.5" y="-83.5" font-family="Helvetica,sans-Serif" font-size="10.00">FSM::FSM</text>
</a>
</g>
</g>
<!-- Node64&#45;&gt;Node65 -->
<g id="edge1" class="edge"><title>Node64&#45;&gt;Node65</title>
<path fill="none" stroke="midnightblue" d="M96.3169,-60.3299C115.31,-65.7362 137.203,-71.9679 154.661,-76.9373"/>
<polygon fill="midnightblue" stroke="midnightblue" points="97.2639,-56.9605 86.6877,-57.589 95.3474,-63.6931 97.2639,-56.9605"/>
</g>
<!-- Node66 -->
<g id="node3" class="node"><title>Node66</title>
<g id="a_node3"><a xlink:href="class_sensor.html#a4e88d49608387ab4f65734913e514109" target="_top" xlink:title="Sensor::is_enable">
<polygon fill="none" stroke="black" points="140,-38.5 140,-57.5 235,-57.5 235,-38.5 140,-38.5"/>
<text text-anchor="middle" x="187.5" y="-45.5" font-family="Helvetica,sans-Serif" font-size="10.00">Sensor::is_enable</text>
</a>
</g>
</g>
<!-- Node64&#45;&gt;Node66 -->
<g id="edge2" class="edge"><title>Node64&#45;&gt;Node66</title>
<path fill="none" stroke="midnightblue" d="M114.286,-48C122.928,-48 131.692,-48 139.996,-48"/>
<polygon fill="midnightblue" stroke="midnightblue" points="114.233,-44.5001 104.233,-48 114.233,-51.5001 114.233,-44.5001"/>
</g>
<!-- Node75 -->
<g id="node12" class="node"><title>Node75</title>
<g id="a_node12"><a xlink:href="class_sensor.html#a15ed927071583a82e4ef79b9fb9fde9a" target="_top" xlink:title="Sensor::Sensor">
<polygon fill="none" stroke="black" points="145.5,-0.5 145.5,-19.5 229.5,-19.5 229.5,-0.5 145.5,-0.5"/>
<text text-anchor="middle" x="187.5" y="-7.5" font-family="Helvetica,sans-Serif" font-size="10.00">Sensor::Sensor</text>
</a>
</g>
</g>
<!-- Node64&#45;&gt;Node75 -->
<g id="edge14" class="edge"><title>Node64&#45;&gt;Node75</title>
<path fill="none" stroke="midnightblue" d="M96.53,-35.6094C114.812,-30.4055 135.749,-24.4459 152.823,-19.5859"/>
<polygon fill="midnightblue" stroke="midnightblue" points="95.3474,-32.3069 86.6877,-38.411 97.2639,-39.0395 95.3474,-32.3069"/>
</g>
<!-- Node67 -->
<g id="node4" class="node"><title>Node67</title>
<g id="a_node4"><a xlink:href="class_sensor.html#ae16fd0cbdda6cfed1deac36f5c7c0a8f" target="_top" xlink:title="This method calculate the average from the data array. ">
<polygon fill="none" stroke="black" points="278,-38.5 278,-57.5 389,-57.5 389,-38.5 278,-38.5"/>
<text text-anchor="middle" x="333.5" y="-45.5" font-family="Helvetica,sans-Serif" font-size="10.00">Sensor::calc_average</text>
</a>
</g>
</g>
<!-- Node66&#45;&gt;Node67 -->
<g id="edge3" class="edge"><title>Node66&#45;&gt;Node67</title>
<path fill="none" stroke="midnightblue" d="M245.368,-41.3843C256.103,-41.1912 267.307,-41.2063 277.968,-41.4298"/>
<polygon fill="midnightblue" stroke="midnightblue" points="245.163,-37.8882 235.253,-41.6333 245.336,-44.886 245.163,-37.8882"/>
</g>
<!-- Node70 -->
<g id="node7" class="node"><title>Node70</title>
<g id="a_node7"><a xlink:href="class_sensor.html#a38a47820684e5ff0f61ad32b8afbde45" target="_top" xlink:title="The print_average method print the average&#39;s value in the string. ">
<polygon fill="none" stroke="black" points="277.5,-0.5 277.5,-19.5 389.5,-19.5 389.5,-0.5 277.5,-0.5"/>
<text text-anchor="middle" x="333.5" y="-7.5" font-family="Helvetica,sans-Serif" font-size="10.00">Sensor::print_average</text>
</a>
</g>
</g>
<!-- Node66&#45;&gt;Node70 -->
<g id="edge7" class="edge"><title>Node66&#45;&gt;Node70</title>
<path fill="none" stroke="midnightblue" d="M216.527,-35.1283C233.829,-29.404 256.622,-23.0205 277.419,-17.9536"/>
<polygon fill="midnightblue" stroke="midnightblue" points="215.341,-31.8352 207.031,-38.4076 217.625,-38.4518 215.341,-31.8352"/>
</g>
<!-- Node73 -->
<g id="node10" class="node"><title>Node73</title>
<g id="a_node10"><a xlink:href="class_anemometer.html#a9be3b4b392ef08ef29c769e6ce4bebf4" target="_top" xlink:title="Anemometer::read_value">
<polygon fill="none" stroke="black" points="271,-79.5 271,-98.5 396,-98.5 396,-79.5 271,-79.5"/>
<text text-anchor="middle" x="333.5" y="-86.5" font-family="Helvetica,sans-Serif" font-size="10.00">Anemometer::read_value</text>
</a>
</g>
</g>
<!-- Node66&#45;&gt;Node73 -->
<g id="edge11" class="edge"><title>Node66&#45;&gt;Node73</title>
<path fill="none" stroke="midnightblue" d="M231.792,-60.3263C253.348,-66.4637 279.01,-73.7701 299.034,-79.4714"/>
<polygon fill="midnightblue" stroke="midnightblue" points="232.475,-56.8815 221.898,-57.5093 230.558,-63.614 232.475,-56.8815"/>
</g>
<!-- Node67&#45;&gt;Node66 -->
<g id="edge6" class="edge"><title>Node67&#45;&gt;Node66</title>
<path fill="none" stroke="midnightblue" d="M267.951,-54.7178C256.938,-54.8133 245.69,-54.6963 235.253,-54.3667"/>
<polygon fill="midnightblue" stroke="midnightblue" points="268.021,-58.2172 277.968,-54.5702 267.918,-51.218 268.021,-58.2172"/>
</g>
<!-- Node68 -->
<g id="node5" class="node"><title>Node68</title>
<g id="a_node5"><a xlink:href="class_measure.html#a1518672dff4f81603a35bff08c20e9f5" target="_top" xlink:title="calcul average from the data array ">
<polygon fill="none" stroke="black" points="432,-38.5 432,-57.5 550,-57.5 550,-38.5 432,-38.5"/>
<text text-anchor="middle" x="491" y="-45.5" font-family="Helvetica,sans-Serif" font-size="10.00">Measure::calc_average</text>
</a>
</g>
</g>
<!-- Node67&#45;&gt;Node68 -->
<g id="edge4" class="edge"><title>Node67&#45;&gt;Node68</title>
<path fill="none" stroke="midnightblue" d="M399.52,-48C410.291,-48 421.398,-48 431.982,-48"/>
<polygon fill="midnightblue" stroke="midnightblue" points="399.324,-44.5001 389.323,-48 399.323,-51.5001 399.324,-44.5001"/>
</g>
<!-- Node69 -->
<g id="node6" class="node"><title>Node69</title>
<g id="a_node6"><a xlink:href="class_measure.html#a754d2de10d1a44bb3b62ab162ceeaae2" target="_top" xlink:title="The execute method is the measure &quot;main function&quot; The execute function work as this scheme : ...">
<polygon fill="none" stroke="black" points="586,-60.5 586,-79.5 681,-79.5 681,-60.5 586,-60.5"/>
<text text-anchor="middle" x="633.5" y="-67.5" font-family="Helvetica,sans-Serif" font-size="10.00">Measure::execute</text>
</a>
</g>
</g>
<!-- Node68&#45;&gt;Node69 -->
<g id="edge5" class="edge"><title>Node68&#45;&gt;Node69</title>
<path fill="none" stroke="midnightblue" d="M560.366,-58.705C568.927,-60.0455 577.525,-61.3918 585.651,-62.6643"/>
<polygon fill="midnightblue" stroke="midnightblue" points="560.785,-55.2281 550.364,-57.1389 559.702,-62.1438 560.785,-55.2281"/>
</g>
<!-- Node70&#45;&gt;Node66 -->
<g id="edge8" class="edge"><title>Node70&#45;&gt;Node66</title>
<path fill="none" stroke="midnightblue" d="M304.352,-22.9116C284.716,-29.402 258.051,-36.733 235.253,-42.0292"/>
<polygon fill="midnightblue" stroke="midnightblue" points="305.611,-26.1799 313.922,-19.6094 303.327,-19.5628 305.611,-26.1799"/>
</g>
<!-- Node71 -->
<g id="node8" class="node"><title>Node71</title>
<g id="a_node8"><a xlink:href="class_output.html#af4bc42d2d3bb3b2a98782f0df0eba133" target="_top" xlink:title="Output::usart0_print">
<polygon fill="none" stroke="black" points="439.5,-0.5 439.5,-19.5 542.5,-19.5 542.5,-0.5 439.5,-0.5"/>
<text text-anchor="middle" x="491" y="-7.5" font-family="Helvetica,sans-Serif" font-size="10.00">Output::usart0_print</text>
</a>
</g>
</g>
<!-- Node70&#45;&gt;Node71 -->
<g id="edge9" class="edge"><title>Node70&#45;&gt;Node71</title>
<path fill="none" stroke="midnightblue" d="M400.141,-10C413.245,-10 426.82,-10 439.327,-10"/>
<polygon fill="midnightblue" stroke="midnightblue" points="399.761,-6.5001 389.761,-10 399.761,-13.5001 399.761,-6.5001"/>
</g>
<!-- Node72 -->
<g id="node9" class="node"><title>Node72</title>
<g id="a_node9"><a xlink:href="class_output.html#a087f4330e641bb4682ab2862bca7a1af" target="_top" xlink:title="Output::execute">
<polygon fill="none" stroke="black" points="590.5,-0.5 590.5,-19.5 676.5,-19.5 676.5,-0.5 590.5,-0.5"/>
<text text-anchor="middle" x="633.5" y="-7.5" font-family="Helvetica,sans-Serif" font-size="10.00">Output::execute</text>
</a>
</g>
</g>
<!-- Node71&#45;&gt;Node72 -->
<g id="edge10" class="edge"><title>Node71&#45;&gt;Node72</title>
<path fill="none" stroke="midnightblue" d="M552.726,-10C565.349,-10 578.391,-10 590.179,-10"/>
<polygon fill="midnightblue" stroke="midnightblue" points="552.724,-6.5001 542.724,-10 552.724,-13.5001 552.724,-6.5001"/>
</g>
<!-- Node74 -->
<g id="node11" class="node"><title>Node74</title>
<g id="a_node11"><a xlink:href="class_measure.html#a4390d770b19dbc51e5486fefe9f4b9d1" target="_top" xlink:title="read value from anemometer and RPM ">
<polygon fill="none" stroke="black" points="440.5,-77 440.5,-107 541.5,-107 541.5,-77 440.5,-77"/>
<text text-anchor="start" x="448.5" y="-95" font-family="Helvetica,sans-Serif" font-size="10.00">Measure::freq_read</text>
<text text-anchor="middle" x="491" y="-84" font-family="Helvetica,sans-Serif" font-size="10.00">_value</text>
</a>
</g>
</g>
<!-- Node73&#45;&gt;Node74 -->
<g id="edge12" class="edge"><title>Node73&#45;&gt;Node74</title>
<path fill="none" stroke="midnightblue" d="M406.747,-90.3938C418.088,-90.6126 429.585,-90.8344 440.268,-91.0405"/>
<polygon fill="midnightblue" stroke="midnightblue" points="406.47,-86.8879 396.405,-90.1943 406.335,-93.8866 406.47,-86.8879"/>
</g>
<!-- Node74&#45;&gt;Node69 -->
<g id="edge13" class="edge"><title>Node74&#45;&gt;Node69</title>
<path fill="none" stroke="midnightblue" d="M551.472,-82.6876C562.931,-80.8933 574.782,-79.0377 585.766,-77.3178"/>
<polygon fill="midnightblue" stroke="midnightblue" points="550.873,-79.2387 541.535,-84.2436 551.956,-86.1544 550.873,-79.2387"/>
</g>
</g>
</svg>
