<?xml version="1.0" encoding="UTF-8" standalone="no"?>
<!DOCTYPE svg PUBLIC "-//W3C//DTD SVG 1.1//EN"
 "http://www.w3.org/Graphics/SVG/1.1/DTD/svg11.dtd">
<!-- Generated by graphviz version 2.38.0 (20140413.2041)
 -->
<!-- Title: Usart::print Pages: 1 -->
<svg width="566pt" height="375pt"
 viewBox="0.00 0.00 566.00 374.66" xmlns="http://www.w3.org/2000/svg" xmlns:xlink="http://www.w3.org/1999/xlink">
<g id="graph0" class="graph" transform="scale(1 1) rotate(0) translate(4 370.66)">
<title>Usart::print</title>
<!-- Node5 -->
<g id="node1" class="node"><title>Node5</title>
<polygon fill="#bfbfbf" stroke="black" points="0,-171.5 0,-190.5 65,-190.5 65,-171.5 0,-171.5"/>
<text text-anchor="middle" x="32.5" y="-178.5" font-family="Helvetica,sans-Serif" font-size="10.00">Usart::print</text>
</g>
<!-- Node6 -->
<g id="node2" class="node"><title>Node6</title>
<g id="a_node2"><a xlink:href="class_f_s_m.html#a3819be8e9fe92b750f47b9731e92f254" target="_top" xlink:title="Call when a string from usart0 finish by &quot;\r\n&quot;. ">
<polygon fill="none" stroke="black" points="347,-285.5 347,-304.5 484,-304.5 484,-285.5 347,-285.5"/>
<text text-anchor="middle" x="415.5" y="-292.5" font-family="Helvetica,sans-Serif" font-size="10.00">FSM::character_processing</text>
</a>
</g>
</g>
<!-- Node5&#45;&gt;Node6 -->
<g id="edge1" class="edge"><title>Node5&#45;&gt;Node6</title>
<path fill="none" stroke="midnightblue" d="M38.5175,-200.464C46.6041,-227.308 65.3481,-274.677 101,-295 192.022,-346.886 323.419,-320.741 383.004,-304.577"/>
<polygon fill="midnightblue" stroke="midnightblue" points="41.8383,-199.344 35.7656,-190.662 35.0989,-201.236 41.8383,-199.344"/>
</g>
<!-- Node7 -->
<g id="node3" class="node"><title>Node7</title>
<g id="a_node3"><a xlink:href="main_8cpp.html#ae66f6b31b5ad750f1fe042a706a4e3d4" target="_top" xlink:title="main">
<polygon fill="none" stroke="black" points="520,-285.5 520,-304.5 558,-304.5 558,-285.5 520,-285.5"/>
<text text-anchor="middle" x="539" y="-292.5" font-family="Helvetica,sans-Serif" font-size="10.00">main</text>
</a>
</g>
</g>
<!-- Node5&#45;&gt;Node7 -->
<g id="edge10" class="edge"><title>Node5&#45;&gt;Node7</title>
<path fill="none" stroke="midnightblue" d="M36.7492,-200.651C43.0563,-231.992 60.1165,-292.739 101,-322 234.823,-417.781 454.845,-332.247 519.557,-303.571"/>
<polygon fill="midnightblue" stroke="midnightblue" points="40.1417,-199.747 34.8878,-190.547 33.2576,-201.016 40.1417,-199.747"/>
</g>
<!-- Node8 -->
<g id="node4" class="node"><title>Node8</title>
<g id="a_node4"><a xlink:href="class_config.html#a975933ecde91dc436d4ca39464cfd25f" target="_top" xlink:title="display all config on USART0 ">
<polygon fill="none" stroke="black" points="101,-266.5 101,-285.5 183,-285.5 183,-266.5 101,-266.5"/>
<text text-anchor="middle" x="142" y="-273.5" font-family="Helvetica,sans-Serif" font-size="10.00">Config::display</text>
</a>
</g>
</g>
<!-- Node5&#45;&gt;Node8 -->
<g id="edge3" class="edge"><title>Node5&#45;&gt;Node8</title>
<path fill="none" stroke="midnightblue" d="M47.8446,-198.586C60.7751,-213.794 80.8072,-235.819 101,-252 107.699,-257.368 115.708,-262.405 122.794,-266.466"/>
<polygon fill="midnightblue" stroke="midnightblue" points="50.2009,-195.948 41.1045,-190.516 44.8281,-200.435 50.2009,-195.948"/>
</g>
<!-- Node10 -->
<g id="node6" class="node"><title>Node10</title>
<g id="a_node6"><a xlink:href="class_config.html#a2a806f322b0d533aabdb8e796d3b1033" target="_top" xlink:title="The execute method is the config &quot;main function&quot; In this method sentence from the uart are process ei...">
<polygon fill="none" stroke="black" points="222,-228.5 222,-247.5 308,-247.5 308,-228.5 222,-228.5"/>
<text text-anchor="middle" x="265" y="-235.5" font-family="Helvetica,sans-Serif" font-size="10.00">Config::execute</text>
</a>
</g>
</g>
<!-- Node5&#45;&gt;Node10 -->
<g id="edge7" class="edge"><title>Node5&#45;&gt;Node10</title>
<path fill="none" stroke="midnightblue" d="M58.3995,-195.469C70.8238,-202.085 86.3051,-209.447 101,-214 140.891,-226.359 188.298,-232.428 221.673,-235.36"/>
<polygon fill="midnightblue" stroke="midnightblue" points="60.0081,-192.359 49.5581,-190.614 56.6386,-198.495 60.0081,-192.359"/>
</g>
<!-- Node11 -->
<g id="node7" class="node"><title>Node11</title>
<g id="a_node7"><a xlink:href="class_f_s_m.html#a8a6e956375ea383f83fdd076badbe5a7" target="_top" xlink:title="This method execute the next state. ">
<polygon fill="none" stroke="black" points="376.5,-228.5 376.5,-247.5 454.5,-247.5 454.5,-228.5 376.5,-228.5"/>
<text text-anchor="middle" x="415.5" y="-235.5" font-family="Helvetica,sans-Serif" font-size="10.00">FSM::execute</text>
</a>
</g>
</g>
<!-- Node5&#45;&gt;Node11 -->
<g id="edge8" class="edge"><title>Node5&#45;&gt;Node11</title>
<path fill="none" stroke="midnightblue" d="M75.1483,-186.103C129.508,-192.902 227.551,-205.634 311,-219 332.647,-222.467 356.742,-226.859 376.233,-230.546"/>
<polygon fill="midnightblue" stroke="midnightblue" points="75.5539,-182.627 65.198,-184.864 74.6888,-189.573 75.5539,-182.627"/>
</g>
<!-- Node12 -->
<g id="node8" class="node"><title>Node12</title>
<g id="a_node8"><a xlink:href="class_sleep.html#ab3745514302b8279de64428b3b60fd64" target="_top" xlink:title="Sleep::print">
<polygon fill="none" stroke="black" points="109,-152.5 109,-171.5 175,-171.5 175,-152.5 109,-152.5"/>
<text text-anchor="middle" x="142" y="-159.5" font-family="Helvetica,sans-Serif" font-size="10.00">Sleep::print</text>
</a>
</g>
</g>
<!-- Node5&#45;&gt;Node12 -->
<g id="edge11" class="edge"><title>Node5&#45;&gt;Node12</title>
<path fill="none" stroke="midnightblue" d="M75.1646,-173.636C86.3348,-171.662 98.2393,-169.558 108.81,-167.689"/>
<polygon fill="midnightblue" stroke="midnightblue" points="74.4103,-170.215 65.1721,-175.402 75.6287,-177.108 74.4103,-170.215"/>
</g>
<!-- Node13 -->
<g id="node9" class="node"><title>Node13</title>
<g id="a_node9"><a xlink:href="class_measure.html#adae8f3976b6e2657d084c9bfd884d2df" target="_top" xlink:title="Measure::print">
<polygon fill="none" stroke="black" points="102.5,-114.5 102.5,-133.5 181.5,-133.5 181.5,-114.5 102.5,-114.5"/>
<text text-anchor="middle" x="142" y="-121.5" font-family="Helvetica,sans-Serif" font-size="10.00">Measure::print</text>
</a>
</g>
</g>
<!-- Node5&#45;&gt;Node13 -->
<g id="edge12" class="edge"><title>Node5&#45;&gt;Node13</title>
<path fill="none" stroke="midnightblue" d="M58.6803,-166.277C71.2762,-159.053 86.8228,-150.346 101,-143 107.143,-139.817 113.911,-136.523 120.105,-133.591"/>
<polygon fill="midnightblue" stroke="midnightblue" points="56.6045,-163.434 49.6947,-171.466 60.1049,-169.496 56.6045,-163.434"/>
</g>
<!-- Node14 -->
<g id="node10" class="node"><title>Node14</title>
<g id="a_node10"><a xlink:href="class_output.html#ab262d6d691d31fdef115acdfc194e335" target="_top" xlink:title="Output::print">
<polygon fill="none" stroke="black" points="106.5,-76.5 106.5,-95.5 177.5,-95.5 177.5,-76.5 106.5,-76.5"/>
<text text-anchor="middle" x="142" y="-83.5" font-family="Helvetica,sans-Serif" font-size="10.00">Output::print</text>
</a>
</g>
</g>
<!-- Node5&#45;&gt;Node14 -->
<g id="edge13" class="edge"><title>Node5&#45;&gt;Node14</title>
<path fill="none" stroke="midnightblue" d="M46.0508,-163.136C58.4919,-146.431 78.8524,-121.628 101,-105 105.796,-101.4 111.382,-98.2293 116.833,-95.5613"/>
<polygon fill="midnightblue" stroke="midnightblue" points="43.0354,-161.332 39.9928,-171.481 48.7001,-165.445 43.0354,-161.332"/>
</g>
<!-- Node15 -->
<g id="node11" class="node"><title>Node15</title>
<g id="a_node11"><a xlink:href="class_idle.html#a5235a4af815c982ef662cabe5c77e7de" target="_top" xlink:title="Idle::print">
<polygon fill="none" stroke="black" points="113.5,-38.5 113.5,-57.5 170.5,-57.5 170.5,-38.5 113.5,-38.5"/>
<text text-anchor="middle" x="142" y="-45.5" font-family="Helvetica,sans-Serif" font-size="10.00">Idle::print</text>
</a>
</g>
</g>
<!-- Node5&#45;&gt;Node15 -->
<g id="edge14" class="edge"><title>Node5&#45;&gt;Node15</title>
<path fill="none" stroke="midnightblue" d="M40.5677,-162.134C50.6442,-137.444 71.2708,-94.1359 101,-67 105.088,-63.2683 110.041,-60.1327 115.049,-57.5531"/>
<polygon fill="midnightblue" stroke="midnightblue" points="37.2975,-160.886 36.8994,-171.473 43.813,-163.445 37.2975,-160.886"/>
</g>
<!-- Node16 -->
<g id="node12" class="node"><title>Node16</title>
<g id="a_node12"><a xlink:href="class_config.html#a73b87071343f2a21ce6a5cadc1d2c1ba" target="_top" xlink:title="Config::print">
<polygon fill="none" stroke="black" points="107,-0.5 107,-19.5 177,-19.5 177,-0.5 107,-0.5"/>
<text text-anchor="middle" x="142" y="-7.5" font-family="Helvetica,sans-Serif" font-size="10.00">Config::print</text>
</a>
</g>
</g>
<!-- Node5&#45;&gt;Node16 -->
<g id="edge15" class="edge"><title>Node5&#45;&gt;Node16</title>
<path fill="none" stroke="midnightblue" d="M37.5718,-161.323C45.0333,-129.71 63.68,-67.2851 101,-29 104.649,-25.2564 109.182,-22.1611 113.872,-19.6337"/>
<polygon fill="midnightblue" stroke="midnightblue" points="34.1453,-160.608 35.3868,-171.13 40.9778,-162.13 34.1453,-160.608"/>
</g>
<!-- Node6&#45;&gt;Node7 -->
<g id="edge2" class="edge"><title>Node6&#45;&gt;Node7</title>
<path fill="none" stroke="midnightblue" d="M494.013,-295C503.457,-295 512.315,-295 519.572,-295"/>
<polygon fill="midnightblue" stroke="midnightblue" points="494.001,-291.5 484.001,-295 494.001,-298.5 494.001,-291.5"/>
</g>
<!-- Node9 -->
<g id="node5" class="node"><title>Node9</title>
<g id="a_node5"><a xlink:href="class_config.html#a5ae6c4f7255e895e7384fc2a4baab160" target="_top" xlink:title="Config::endString">
<polygon fill="none" stroke="black" points="219,-266.5 219,-285.5 311,-285.5 311,-266.5 219,-266.5"/>
<text text-anchor="middle" x="265" y="-273.5" font-family="Helvetica,sans-Serif" font-size="10.00">Config::endString</text>
</a>
</g>
</g>
<!-- Node8&#45;&gt;Node9 -->
<g id="edge4" class="edge"><title>Node8&#45;&gt;Node9</title>
<path fill="none" stroke="midnightblue" d="M193.413,-276C201.859,-276 210.575,-276 218.877,-276"/>
<polygon fill="midnightblue" stroke="midnightblue" points="193.291,-272.5 183.291,-276 193.291,-279.5 193.291,-272.5"/>
</g>
<!-- Node8&#45;&gt;Node10 -->
<g id="edge6" class="edge"><title>Node8&#45;&gt;Node10</title>
<path fill="none" stroke="midnightblue" d="M183.377,-263.32C199.726,-258.185 218.288,-252.356 233.476,-247.586"/>
<polygon fill="midnightblue" stroke="midnightblue" points="182.025,-260.076 173.533,-266.411 184.123,-266.754 182.025,-260.076"/>
</g>
<!-- Node9&#45;&gt;Node6 -->
<g id="edge5" class="edge"><title>Node9&#45;&gt;Node6</title>
<path fill="none" stroke="midnightblue" d="M321.357,-283.083C329.717,-284.152 338.418,-285.266 346.999,-286.363"/>
<polygon fill="midnightblue" stroke="midnightblue" points="321.725,-279.601 311.362,-281.804 320.837,-286.545 321.725,-279.601"/>
</g>
<!-- Node11&#45;&gt;Node7 -->
<g id="edge9" class="edge"><title>Node11&#45;&gt;Node7</title>
<path fill="none" stroke="midnightblue" d="M446.169,-251.919C469.253,-262.749 500.532,-277.422 519.978,-286.545"/>
<polygon fill="midnightblue" stroke="midnightblue" points="447.376,-248.619 436.836,-247.541 444.403,-254.956 447.376,-248.619"/>
</g>
</g>
</svg>
