<?xml version="1.0" encoding="UTF-8" standalone="no"?>
<!DOCTYPE svg PUBLIC "-//W3C//DTD SVG 1.1//EN"
 "http://www.w3.org/Graphics/SVG/1.1/DTD/svg11.dtd">
<!-- Generated by graphviz version 2.38.0 (20140413.2041)
 -->
<!-- Title: RTC::get_date Pages: 1 -->
<svg width="321pt" height="218pt"
 viewBox="0.00 0.00 321.00 218.00" xmlns="http://www.w3.org/2000/svg" xmlns:xlink="http://www.w3.org/1999/xlink">
<g id="graph0" class="graph" transform="scale(1 1) rotate(0) translate(4 214)">
<title>RTC::get_date</title>
<!-- Node6 -->
<g id="node1" class="node"><title>Node6</title>
<polygon fill="#bfbfbf" stroke="black" points="0,-95.5 0,-114.5 81,-114.5 81,-95.5 0,-95.5"/>
<text text-anchor="middle" x="40.5" y="-102.5" font-family="Helvetica,sans-Serif" font-size="10.00">RTC::get_date</text>
</g>
<!-- Node7 -->
<g id="node2" class="node"><title>Node7</title>
<g id="a_node2"><a xlink:href="class_t_w_i.html#a3e375d4c03edae3f0c8263a330eddd8d" target="_top" xlink:title="TWI::receive">
<polygon fill="none" stroke="black" points="117,-95.5 117,-114.5 190,-114.5 190,-95.5 117,-95.5"/>
<text text-anchor="middle" x="153.5" y="-102.5" font-family="Helvetica,sans-Serif" font-size="10.00">TWI::receive</text>
</a>
</g>
</g>
<!-- Node6&#45;&gt;Node7 -->
<g id="edge1" class="edge"><title>Node6&#45;&gt;Node7</title>
<path fill="none" stroke="midnightblue" d="M81.26,-105C89.486,-105 98.2149,-105 106.638,-105"/>
<polygon fill="midnightblue" stroke="midnightblue" points="106.707,-108.5 116.707,-105 106.707,-101.5 106.707,-108.5"/>
</g>
<!-- Node8 -->
<g id="node3" class="node"><title>Node8</title>
<g id="a_node3"><a xlink:href="class_t_w_i.html#a130b2bf159b768c28ae0d4129c556711" target="_top" xlink:title="TWI::start">
<polygon fill="none" stroke="black" points="239,-190.5 239,-209.5 300,-209.5 300,-190.5 239,-190.5"/>
<text text-anchor="middle" x="269.5" y="-197.5" font-family="Helvetica,sans-Serif" font-size="10.00">TWI::start</text>
</a>
</g>
</g>
<!-- Node7&#45;&gt;Node8 -->
<g id="edge2" class="edge"><title>Node7&#45;&gt;Node8</title>
<path fill="none" stroke="midnightblue" d="M161.455,-114.559C173.238,-130.201 198.54,-161.473 226,-181 228.346,-182.669 230.863,-184.241 233.457,-185.711"/>
<polygon fill="midnightblue" stroke="midnightblue" points="231.941,-188.867 242.438,-190.309 235.131,-182.636 231.941,-188.867"/>
</g>
<!-- Node9 -->
<g id="node4" class="node"><title>Node9</title>
<g id="a_node4"><a xlink:href="class_t_w_i.html#a6bde06891e3037d407b28a4ecbc3386f" target="_top" xlink:title="TWI::get_status">
<polygon fill="none" stroke="black" points="226,-152.5 226,-171.5 313,-171.5 313,-152.5 226,-152.5"/>
<text text-anchor="middle" x="269.5" y="-159.5" font-family="Helvetica,sans-Serif" font-size="10.00">TWI::get_status</text>
</a>
</g>
</g>
<!-- Node7&#45;&gt;Node9 -->
<g id="edge3" class="edge"><title>Node7&#45;&gt;Node9</title>
<path fill="none" stroke="midnightblue" d="M171.668,-114.547C186.047,-122.441 207.18,-133.805 226,-143 229.574,-144.746 233.345,-146.523 237.105,-148.255"/>
<polygon fill="midnightblue" stroke="midnightblue" points="235.756,-151.486 246.309,-152.422 238.643,-145.109 235.756,-151.486"/>
</g>
<!-- Node10 -->
<g id="node5" class="node"><title>Node10</title>
<g id="a_node5"><a xlink:href="class_t_w_i.html#a29a1270e7b1ee2b573c1a32e3214ac57" target="_top" xlink:title="TWI::restart">
<polygon fill="none" stroke="black" points="235,-114.5 235,-133.5 304,-133.5 304,-114.5 235,-114.5"/>
<text text-anchor="middle" x="269.5" y="-121.5" font-family="Helvetica,sans-Serif" font-size="10.00">TWI::restart</text>
</a>
</g>
</g>
<!-- Node7&#45;&gt;Node10 -->
<g id="edge4" class="edge"><title>Node7&#45;&gt;Node10</title>
<path fill="none" stroke="midnightblue" d="M190.258,-110.96C201.156,-112.776 213.264,-114.794 224.634,-116.689"/>
<polygon fill="midnightblue" stroke="midnightblue" points="224.374,-120.194 234.813,-118.386 225.525,-113.289 224.374,-120.194"/>
</g>
<!-- Node11 -->
<g id="node6" class="node"><title>Node11</title>
<g id="a_node6"><a xlink:href="class_t_w_i.html#ab5cefdcf75964a3ce2ed54303de56614" target="_top" xlink:title="TWI::get_ack">
<polygon fill="none" stroke="black" points="231.5,-76.5 231.5,-95.5 307.5,-95.5 307.5,-76.5 231.5,-76.5"/>
<text text-anchor="middle" x="269.5" y="-83.5" font-family="Helvetica,sans-Serif" font-size="10.00">TWI::get_ack</text>
</a>
</g>
</g>
<!-- Node7&#45;&gt;Node11 -->
<g id="edge5" class="edge"><title>Node7&#45;&gt;Node11</title>
<path fill="none" stroke="midnightblue" d="M190.258,-99.0404C200.052,-97.408 210.823,-95.6128 221.158,-93.8903"/>
<polygon fill="midnightblue" stroke="midnightblue" points="222.007,-97.2972 231.295,-92.2008 220.856,-90.3925 222.007,-97.2972"/>
</g>
<!-- Node12 -->
<g id="node7" class="node"><title>Node12</title>
<g id="a_node7"><a xlink:href="class_t_w_i.html#a8fb1629575f81558db83b54955470136" target="_top" xlink:title="TWI::get_nack">
<polygon fill="none" stroke="black" points="229,-38.5 229,-57.5 310,-57.5 310,-38.5 229,-38.5"/>
<text text-anchor="middle" x="269.5" y="-45.5" font-family="Helvetica,sans-Serif" font-size="10.00">TWI::get_nack</text>
</a>
</g>
</g>
<!-- Node7&#45;&gt;Node12 -->
<g id="edge6" class="edge"><title>Node7&#45;&gt;Node12</title>
<path fill="none" stroke="midnightblue" d="M171.668,-95.4526C186.047,-87.5589 207.18,-76.1945 226,-67 229.574,-65.2538 233.345,-63.4767 237.105,-61.7452"/>
<polygon fill="midnightblue" stroke="midnightblue" points="238.643,-64.8909 246.309,-57.5784 235.756,-58.5139 238.643,-64.8909"/>
</g>
<!-- Node13 -->
<g id="node8" class="node"><title>Node13</title>
<g id="a_node8"><a xlink:href="class_t_w_i.html#a3ed950888f040e24dc9dcb0ba65d17f1" target="_top" xlink:title="TWI::stop">
<polygon fill="none" stroke="black" points="239.5,-0.5 239.5,-19.5 299.5,-19.5 299.5,-0.5 239.5,-0.5"/>
<text text-anchor="middle" x="269.5" y="-7.5" font-family="Helvetica,sans-Serif" font-size="10.00">TWI::stop</text>
</a>
</g>
</g>
<!-- Node7&#45;&gt;Node13 -->
<g id="edge7" class="edge"><title>Node7&#45;&gt;Node13</title>
<path fill="none" stroke="midnightblue" d="M161.455,-95.4405C173.238,-79.7989 198.54,-48.5274 226,-29 228.346,-27.3314 230.863,-25.7592 233.457,-24.289"/>
<polygon fill="midnightblue" stroke="midnightblue" points="235.131,-27.3636 242.438,-19.6909 231.941,-21.1327 235.131,-27.3636"/>
</g>
</g>
</svg>
