<?xml version="1.0" encoding="UTF-8" standalone="no"?>
<!DOCTYPE svg PUBLIC "-//W3C//DTD SVG 1.1//EN"
 "http://www.w3.org/Graphics/SVG/1.1/DTD/svg11.dtd">
<!-- Generated by graphviz version 2.38.0 (20140413.2041)
 -->
<!-- Title: Usart::set Pages: 1 -->
<svg width="500pt" height="116pt"
 viewBox="0.00 0.00 500.00 116.00" xmlns="http://www.w3.org/2000/svg" xmlns:xlink="http://www.w3.org/1999/xlink">
<g id="graph0" class="graph" transform="scale(1 1) rotate(0) translate(4 112)">
<title>Usart::set</title>
<!-- Node25 -->
<g id="node1" class="node"><title>Node25</title>
<polygon fill="#bfbfbf" stroke="black" points="0,-44.5 0,-63.5 60,-63.5 60,-44.5 0,-44.5"/>
<text text-anchor="middle" x="30" y="-51.5" font-family="Helvetica,sans-Serif" font-size="10.00">Usart::set</text>
</g>
<!-- Node26 -->
<g id="node2" class="node"><title>Node26</title>
<g id="a_node2"><a xlink:href="class_f_s_m.html#a3819be8e9fe92b750f47b9731e92f254" target="_top" xlink:title="Call when a string from usart0 finish by &quot;\r\n&quot;. ">
<polygon fill="none" stroke="black" points="96,-88.5 96,-107.5 233,-107.5 233,-88.5 96,-88.5"/>
<text text-anchor="middle" x="164.5" y="-95.5" font-family="Helvetica,sans-Serif" font-size="10.00">FSM::character_processing</text>
</a>
</g>
</g>
<!-- Node25&#45;&gt;Node26 -->
<g id="edge1" class="edge"><title>Node25&#45;&gt;Node26</title>
<path fill="none" stroke="midnightblue" d="M65.0915,-67.0659C75.0116,-70.7378 85.8974,-74.6422 96,-78 106.903,-81.6236 118.899,-85.2827 129.717,-88.4626"/>
<polygon fill="midnightblue" stroke="midnightblue" points="66.1505,-63.7253 55.558,-63.5005 63.6984,-70.2818 66.1505,-63.7253"/>
</g>
<!-- Node28 -->
<g id="node4" class="node"><title>Node28</title>
<g id="a_node4"><a xlink:href="class_sensor.html#aa03d707dfa7562805b77f9040831418b" target="_top" xlink:title="Sensor::print_data\l_array">
<polygon fill="none" stroke="black" points="116.5,-39 116.5,-69 212.5,-69 212.5,-39 116.5,-39"/>
<text text-anchor="start" x="124.5" y="-57" font-family="Helvetica,sans-Serif" font-size="10.00">Sensor::print_data</text>
<text text-anchor="middle" x="164.5" y="-46" font-family="Helvetica,sans-Serif" font-size="10.00">_array</text>
</a>
</g>
</g>
<!-- Node25&#45;&gt;Node28 -->
<g id="edge3" class="edge"><title>Node25&#45;&gt;Node28</title>
<path fill="none" stroke="midnightblue" d="M70.1865,-54C84.6421,-54 101.174,-54 116.266,-54"/>
<polygon fill="midnightblue" stroke="midnightblue" points="70.0777,-50.5001 60.0777,-54 70.0777,-57.5001 70.0777,-50.5001"/>
</g>
<!-- Node31 -->
<g id="node7" class="node"><title>Node31</title>
<g id="a_node7"><a xlink:href="class_power.html#acd77541eabe8feb58e0b73154268cdd2" target="_top" xlink:title="Power::print_data_array">
<polygon fill="none" stroke="black" points="104.5,-0.5 104.5,-19.5 224.5,-19.5 224.5,-0.5 104.5,-0.5"/>
<text text-anchor="middle" x="164.5" y="-7.5" font-family="Helvetica,sans-Serif" font-size="10.00">Power::print_data_array</text>
</a>
</g>
</g>
<!-- Node25&#45;&gt;Node31 -->
<g id="edge6" class="edge"><title>Node25&#45;&gt;Node31</title>
<path fill="none" stroke="midnightblue" d="M63.7019,-40.7423C73.9684,-36.764 85.392,-32.5245 96,-29 106.051,-25.6604 117.067,-22.3964 127.23,-19.5422"/>
<polygon fill="midnightblue" stroke="midnightblue" points="62.3053,-37.5304 54.2776,-44.4446 64.8649,-44.0457 62.3053,-37.5304"/>
</g>
<!-- Node27 -->
<g id="node3" class="node"><title>Node27</title>
<g id="a_node3"><a xlink:href="main_8cpp.html#ae66f6b31b5ad750f1fe042a706a4e3d4" target="_top" xlink:title="main">
<polygon fill="none" stroke="black" points="300.5,-88.5 300.5,-107.5 338.5,-107.5 338.5,-88.5 300.5,-88.5"/>
<text text-anchor="middle" x="319.5" y="-95.5" font-family="Helvetica,sans-Serif" font-size="10.00">main</text>
</a>
</g>
</g>
<!-- Node26&#45;&gt;Node27 -->
<g id="edge2" class="edge"><title>Node26&#45;&gt;Node27</title>
<path fill="none" stroke="midnightblue" d="M243.21,-98C264.623,-98 285.91,-98 300.358,-98"/>
<polygon fill="midnightblue" stroke="midnightblue" points="243.053,-94.5001 233.053,-98 243.053,-101.5 243.053,-94.5001"/>
</g>
<!-- Node29 -->
<g id="node5" class="node"><title>Node29</title>
<g id="a_node5"><a xlink:href="class_sensor.html#ad713fef719161b27e6b93a0d3a371e0c" target="_top" xlink:title="Sensor::set_offset">
<polygon fill="none" stroke="black" points="271,-41.5 271,-60.5 368,-60.5 368,-41.5 271,-41.5"/>
<text text-anchor="middle" x="319.5" y="-48.5" font-family="Helvetica,sans-Serif" font-size="10.00">Sensor::set_offset</text>
</a>
</g>
</g>
<!-- Node28&#45;&gt;Node29 -->
<g id="edge4" class="edge"><title>Node28&#45;&gt;Node29</title>
<path fill="none" stroke="midnightblue" d="M222.871,-52.8751C238.724,-52.5642 255.748,-52.2304 270.975,-51.9319"/>
<polygon fill="midnightblue" stroke="midnightblue" points="222.583,-49.38 212.653,-53.0754 222.72,-56.3786 222.583,-49.38"/>
</g>
<!-- Node30 -->
<g id="node6" class="node"><title>Node30</title>
<g id="a_node6"><a xlink:href="class_config.html#a2a806f322b0d533aabdb8e796d3b1033" target="_top" xlink:title="The execute method is the config &quot;main function&quot; In this method, sentence from the uart are process e...">
<polygon fill="none" stroke="black" points="406,-21.5 406,-40.5 492,-40.5 492,-21.5 406,-21.5"/>
<text text-anchor="middle" x="449" y="-28.5" font-family="Helvetica,sans-Serif" font-size="10.00">Config::execute</text>
</a>
</g>
</g>
<!-- Node29&#45;&gt;Node30 -->
<g id="edge5" class="edge"><title>Node29&#45;&gt;Node30</title>
<path fill="none" stroke="midnightblue" d="M378.278,-41.9368C387.533,-40.485 396.957,-39.0067 405.762,-37.6256"/>
<polygon fill="midnightblue" stroke="midnightblue" points="377.676,-38.4884 368.339,-43.4958 378.761,-45.4038 377.676,-38.4884"/>
</g>
<!-- Node32 -->
<g id="node8" class="node"><title>Node32</title>
<g id="a_node8"><a xlink:href="class_power.html#a1e7595ee0b3b0439d979ffeab785d0d8" target="_top" xlink:title="Power::set_i_offset">
<polygon fill="none" stroke="black" points="269,-2.5 269,-21.5 370,-21.5 370,-2.5 269,-2.5"/>
<text text-anchor="middle" x="319.5" y="-9.5" font-family="Helvetica,sans-Serif" font-size="10.00">Power::set_i_offset</text>
</a>
</g>
</g>
<!-- Node31&#45;&gt;Node32 -->
<g id="edge7" class="edge"><title>Node31&#45;&gt;Node32</title>
<path fill="none" stroke="midnightblue" d="M234.71,-10.9047C246.248,-11.0555 258.01,-11.2093 268.933,-11.3521"/>
<polygon fill="midnightblue" stroke="midnightblue" points="234.699,-7.40436 224.654,-10.7733 234.607,-14.4038 234.699,-7.40436"/>
</g>
<!-- Node32&#45;&gt;Node30 -->
<g id="edge8" class="edge"><title>Node32&#45;&gt;Node30</title>
<path fill="none" stroke="midnightblue" d="M380.193,-20.8954C388.81,-22.1796 397.527,-23.4786 405.71,-24.698"/>
<polygon fill="midnightblue" stroke="midnightblue" points="380.567,-17.4125 370.16,-19.4003 379.535,-24.3361 380.567,-17.4125"/>
</g>
</g>
</svg>
