<?xml version="1.0" encoding="UTF-8" standalone="no"?>
<!DOCTYPE svg PUBLIC "-//W3C//DTD SVG 1.1//EN"
 "http://www.w3.org/Graphics/SVG/1.1/DTD/svg11.dtd">
<!-- Generated by graphviz version 2.38.0 (20140413.2041)
 -->
<!-- Title: RTC::update_reg Pages: 1 -->
<svg width="338pt" height="104pt"
 viewBox="0.00 0.00 338.00 104.00" xmlns="http://www.w3.org/2000/svg" xmlns:xlink="http://www.w3.org/1999/xlink">
<g id="graph0" class="graph" transform="scale(1 1) rotate(0) translate(4 100)">
<title>RTC::update_reg</title>
<!-- Node43 -->
<g id="node1" class="node"><title>Node43</title>
<polygon fill="#bfbfbf" stroke="black" points="0,-19.5 0,-38.5 92,-38.5 92,-19.5 0,-19.5"/>
<text text-anchor="middle" x="46" y="-26.5" font-family="Helvetica,sans-Serif" font-size="10.00">RTC::update_reg</text>
</g>
<!-- Node44 -->
<g id="node2" class="node"><title>Node44</title>
<g id="a_node2"><a xlink:href="class_t_w_i.html#a1f2dc98a8c2e00dca3a0c76ee1ea1020" target="_top" xlink:title="TWI::set_char">
<polygon fill="none" stroke="black" points="128,-38.5 128,-57.5 207,-57.5 207,-38.5 128,-38.5"/>
<text text-anchor="middle" x="167.5" y="-45.5" font-family="Helvetica,sans-Serif" font-size="10.00">TWI::set_char</text>
</a>
</g>
</g>
<!-- Node43&#45;&gt;Node44 -->
<g id="edge1" class="edge"><title>Node43&#45;&gt;Node44</title>
<path fill="none" stroke="midnightblue" d="M92.1778,-36.1831C100.542,-37.5129 109.312,-38.9073 117.776,-40.253"/>
<polygon fill="midnightblue" stroke="midnightblue" points="117.475,-43.7491 127.9,-41.8628 118.574,-36.8359 117.475,-43.7491"/>
</g>
<!-- Node48 -->
<g id="node6" class="node"><title>Node48</title>
<g id="a_node6"><a xlink:href="class_r_t_c.html#a85d7813e4900f346f811c0c01dc5cb89" target="_top" xlink:title="RTC::utoBCD">
<polygon fill="none" stroke="black" points="128,-0.5 128,-19.5 207,-19.5 207,-0.5 128,-0.5"/>
<text text-anchor="middle" x="167.5" y="-7.5" font-family="Helvetica,sans-Serif" font-size="10.00">RTC::utoBCD</text>
</a>
</g>
</g>
<!-- Node43&#45;&gt;Node48 -->
<g id="edge5" class="edge"><title>Node43&#45;&gt;Node48</title>
<path fill="none" stroke="midnightblue" d="M92.1778,-21.8169C100.542,-20.4871 109.312,-19.0927 117.776,-17.747"/>
<polygon fill="midnightblue" stroke="midnightblue" points="118.574,-21.1641 127.9,-16.1372 117.475,-14.2509 118.574,-21.1641"/>
</g>
<!-- Node45 -->
<g id="node3" class="node"><title>Node45</title>
<g id="a_node3"><a xlink:href="class_t_w_i.html#a130b2bf159b768c28ae0d4129c556711" target="_top" xlink:title="TWI::start">
<polygon fill="none" stroke="black" points="256,-76.5 256,-95.5 317,-95.5 317,-76.5 256,-76.5"/>
<text text-anchor="middle" x="286.5" y="-83.5" font-family="Helvetica,sans-Serif" font-size="10.00">TWI::start</text>
</a>
</g>
</g>
<!-- Node44&#45;&gt;Node45 -->
<g id="edge2" class="edge"><title>Node44&#45;&gt;Node45</title>
<path fill="none" stroke="midnightblue" d="M198.024,-57.589C212.712,-62.3594 230.66,-68.1888 246.468,-73.3229"/>
<polygon fill="midnightblue" stroke="midnightblue" points="245.393,-76.6538 255.985,-76.4141 247.556,-69.9961 245.393,-76.6538"/>
</g>
<!-- Node46 -->
<g id="node4" class="node"><title>Node46</title>
<g id="a_node4"><a xlink:href="class_t_w_i.html#a6bde06891e3037d407b28a4ecbc3386f" target="_top" xlink:title="TWI::get_status">
<polygon fill="none" stroke="black" points="243,-38.5 243,-57.5 330,-57.5 330,-38.5 243,-38.5"/>
<text text-anchor="middle" x="286.5" y="-45.5" font-family="Helvetica,sans-Serif" font-size="10.00">TWI::get_status</text>
</a>
</g>
</g>
<!-- Node44&#45;&gt;Node46 -->
<g id="edge3" class="edge"><title>Node44&#45;&gt;Node46</title>
<path fill="none" stroke="midnightblue" d="M207.134,-48C215.363,-48 224.187,-48 232.838,-48"/>
<polygon fill="midnightblue" stroke="midnightblue" points="232.87,-51.5001 242.87,-48 232.87,-44.5001 232.87,-51.5001"/>
</g>
<!-- Node47 -->
<g id="node5" class="node"><title>Node47</title>
<g id="a_node5"><a xlink:href="class_t_w_i.html#a3ed950888f040e24dc9dcb0ba65d17f1" target="_top" xlink:title="TWI::stop">
<polygon fill="none" stroke="black" points="256.5,-0.5 256.5,-19.5 316.5,-19.5 316.5,-0.5 256.5,-0.5"/>
<text text-anchor="middle" x="286.5" y="-7.5" font-family="Helvetica,sans-Serif" font-size="10.00">TWI::stop</text>
</a>
</g>
</g>
<!-- Node44&#45;&gt;Node47 -->
<g id="edge4" class="edge"><title>Node44&#45;&gt;Node47</title>
<path fill="none" stroke="midnightblue" d="M198.024,-38.411C212.824,-33.6042 230.934,-27.7222 246.829,-22.5597"/>
<polygon fill="midnightblue" stroke="midnightblue" points="247.961,-25.8722 256.391,-19.4543 245.799,-19.2146 247.961,-25.8722"/>
</g>
</g>
</svg>
