<?xml version="1.0" encoding="UTF-8" standalone="no"?>
<!DOCTYPE svg PUBLIC "-//W3C//DTD SVG 1.1//EN"
 "http://www.w3.org/Graphics/SVG/1.1/DTD/svg11.dtd">
<!-- Generated by graphviz version 2.38.0 (20140413.2041)
 -->
<!-- Title: Sensor::is_enable Pages: 1 -->
<svg width="549pt" height="116pt"
 viewBox="0.00 0.00 549.00 115.50" xmlns="http://www.w3.org/2000/svg" xmlns:xlink="http://www.w3.org/1999/xlink">
<g id="graph0" class="graph" transform="scale(1 1) rotate(0) translate(4 111.5)">
<title>Sensor::is_enable</title>
<!-- Node54 -->
<g id="node1" class="node"><title>Node54</title>
<polygon fill="#bfbfbf" stroke="black" points="0,-38.5 0,-57.5 95,-57.5 95,-38.5 0,-38.5"/>
<text text-anchor="middle" x="47.5" y="-45.5" font-family="Helvetica,sans-Serif" font-size="10.00">Sensor::is_enable</text>
</g>
<!-- Node55 -->
<g id="node2" class="node"><title>Node55</title>
<g id="a_node2"><a xlink:href="class_sensor.html#ae16fd0cbdda6cfed1deac36f5c7c0a8f" target="_top" xlink:title="This method calculate the average from the data array. ">
<polygon fill="none" stroke="black" points="138,-38.5 138,-57.5 249,-57.5 249,-38.5 138,-38.5"/>
<text text-anchor="middle" x="193.5" y="-45.5" font-family="Helvetica,sans-Serif" font-size="10.00">Sensor::calc_average</text>
</a>
</g>
</g>
<!-- Node54&#45;&gt;Node55 -->
<g id="edge1" class="edge"><title>Node54&#45;&gt;Node55</title>
<path fill="none" stroke="midnightblue" d="M105.368,-41.3843C116.103,-41.1912 127.307,-41.2063 137.968,-41.4298"/>
<polygon fill="midnightblue" stroke="midnightblue" points="105.163,-37.8882 95.2527,-41.6333 105.336,-44.886 105.163,-37.8882"/>
</g>
<!-- Node58 -->
<g id="node5" class="node"><title>Node58</title>
<g id="a_node5"><a xlink:href="class_sensor.html#a38a47820684e5ff0f61ad32b8afbde45" target="_top" xlink:title="The print_average method print the average&#39;s value in the string. ">
<polygon fill="none" stroke="black" points="137.5,-0.5 137.5,-19.5 249.5,-19.5 249.5,-0.5 137.5,-0.5"/>
<text text-anchor="middle" x="193.5" y="-7.5" font-family="Helvetica,sans-Serif" font-size="10.00">Sensor::print_average</text>
</a>
</g>
</g>
<!-- Node54&#45;&gt;Node58 -->
<g id="edge5" class="edge"><title>Node54&#45;&gt;Node58</title>
<path fill="none" stroke="midnightblue" d="M76.527,-35.1283C93.8293,-29.404 116.622,-23.0205 137.419,-17.9536"/>
<polygon fill="midnightblue" stroke="midnightblue" points="75.3405,-31.8352 67.0307,-38.4076 77.6254,-38.4518 75.3405,-31.8352"/>
</g>
<!-- Node61 -->
<g id="node8" class="node"><title>Node61</title>
<g id="a_node8"><a xlink:href="class_anemometer.html#a9be3b4b392ef08ef29c769e6ce4bebf4" target="_top" xlink:title="Anemometer::read_value">
<polygon fill="none" stroke="black" points="131,-79.5 131,-98.5 256,-98.5 256,-79.5 131,-79.5"/>
<text text-anchor="middle" x="193.5" y="-86.5" font-family="Helvetica,sans-Serif" font-size="10.00">Anemometer::read_value</text>
</a>
</g>
</g>
<!-- Node54&#45;&gt;Node61 -->
<g id="edge9" class="edge"><title>Node54&#45;&gt;Node61</title>
<path fill="none" stroke="midnightblue" d="M91.7923,-60.3263C113.348,-66.4637 139.01,-73.7701 159.034,-79.4714"/>
<polygon fill="midnightblue" stroke="midnightblue" points="92.4747,-56.8815 81.8984,-57.5093 90.5577,-63.614 92.4747,-56.8815"/>
</g>
<!-- Node55&#45;&gt;Node54 -->
<g id="edge4" class="edge"><title>Node55&#45;&gt;Node54</title>
<path fill="none" stroke="midnightblue" d="M127.951,-54.7178C116.938,-54.8133 105.69,-54.6963 95.2527,-54.3667"/>
<polygon fill="midnightblue" stroke="midnightblue" points="128.021,-58.2172 137.968,-54.5702 127.918,-51.218 128.021,-58.2172"/>
</g>
<!-- Node56 -->
<g id="node3" class="node"><title>Node56</title>
<g id="a_node3"><a xlink:href="class_measure.html#a1518672dff4f81603a35bff08c20e9f5" target="_top" xlink:title="calcul average from the data array ">
<polygon fill="none" stroke="black" points="292,-38.5 292,-57.5 410,-57.5 410,-38.5 292,-38.5"/>
<text text-anchor="middle" x="351" y="-45.5" font-family="Helvetica,sans-Serif" font-size="10.00">Measure::calc_average</text>
</a>
</g>
</g>
<!-- Node55&#45;&gt;Node56 -->
<g id="edge2" class="edge"><title>Node55&#45;&gt;Node56</title>
<path fill="none" stroke="midnightblue" d="M259.52,-48C270.291,-48 281.398,-48 291.982,-48"/>
<polygon fill="midnightblue" stroke="midnightblue" points="259.324,-44.5001 249.323,-48 259.323,-51.5001 259.324,-44.5001"/>
</g>
<!-- Node57 -->
<g id="node4" class="node"><title>Node57</title>
<g id="a_node4"><a xlink:href="class_measure.html#a754d2de10d1a44bb3b62ab162ceeaae2" target="_top" xlink:title="The execute method is the measure &quot;main function&quot; The execute function work as this scheme : ...">
<polygon fill="none" stroke="black" points="446,-60.5 446,-79.5 541,-79.5 541,-60.5 446,-60.5"/>
<text text-anchor="middle" x="493.5" y="-67.5" font-family="Helvetica,sans-Serif" font-size="10.00">Measure::execute</text>
</a>
</g>
</g>
<!-- Node56&#45;&gt;Node57 -->
<g id="edge3" class="edge"><title>Node56&#45;&gt;Node57</title>
<path fill="none" stroke="midnightblue" d="M420.366,-58.705C428.927,-60.0455 437.525,-61.3918 445.651,-62.6643"/>
<polygon fill="midnightblue" stroke="midnightblue" points="420.785,-55.2281 410.364,-57.1389 419.702,-62.1438 420.785,-55.2281"/>
</g>
<!-- Node58&#45;&gt;Node54 -->
<g id="edge6" class="edge"><title>Node58&#45;&gt;Node54</title>
<path fill="none" stroke="midnightblue" d="M164.352,-22.9116C144.716,-29.402 118.051,-36.733 95.2527,-42.0292"/>
<polygon fill="midnightblue" stroke="midnightblue" points="165.611,-26.1799 173.922,-19.6094 163.327,-19.5628 165.611,-26.1799"/>
</g>
<!-- Node59 -->
<g id="node6" class="node"><title>Node59</title>
<g id="a_node6"><a xlink:href="class_output.html#af4bc42d2d3bb3b2a98782f0df0eba133" target="_top" xlink:title="Output::usart0_print">
<polygon fill="none" stroke="black" points="299.5,-0.5 299.5,-19.5 402.5,-19.5 402.5,-0.5 299.5,-0.5"/>
<text text-anchor="middle" x="351" y="-7.5" font-family="Helvetica,sans-Serif" font-size="10.00">Output::usart0_print</text>
</a>
</g>
</g>
<!-- Node58&#45;&gt;Node59 -->
<g id="edge7" class="edge"><title>Node58&#45;&gt;Node59</title>
<path fill="none" stroke="midnightblue" d="M260.141,-10C273.245,-10 286.82,-10 299.327,-10"/>
<polygon fill="midnightblue" stroke="midnightblue" points="259.761,-6.5001 249.761,-10 259.761,-13.5001 259.761,-6.5001"/>
</g>
<!-- Node60 -->
<g id="node7" class="node"><title>Node60</title>
<g id="a_node7"><a xlink:href="class_output.html#a087f4330e641bb4682ab2862bca7a1af" target="_top" xlink:title="Output::execute">
<polygon fill="none" stroke="black" points="450.5,-0.5 450.5,-19.5 536.5,-19.5 536.5,-0.5 450.5,-0.5"/>
<text text-anchor="middle" x="493.5" y="-7.5" font-family="Helvetica,sans-Serif" font-size="10.00">Output::execute</text>
</a>
</g>
</g>
<!-- Node59&#45;&gt;Node60 -->
<g id="edge8" class="edge"><title>Node59&#45;&gt;Node60</title>
<path fill="none" stroke="midnightblue" d="M412.726,-10C425.349,-10 438.391,-10 450.179,-10"/>
<polygon fill="midnightblue" stroke="midnightblue" points="412.724,-6.5001 402.724,-10 412.724,-13.5001 412.724,-6.5001"/>
</g>
<!-- Node62 -->
<g id="node9" class="node"><title>Node62</title>
<g id="a_node9"><a xlink:href="class_measure.html#a4390d770b19dbc51e5486fefe9f4b9d1" target="_top" xlink:title="read value from anemometer and RPM ">
<polygon fill="none" stroke="black" points="300.5,-77 300.5,-107 401.5,-107 401.5,-77 300.5,-77"/>
<text text-anchor="start" x="308.5" y="-95" font-family="Helvetica,sans-Serif" font-size="10.00">Measure::freq_read</text>
<text text-anchor="middle" x="351" y="-84" font-family="Helvetica,sans-Serif" font-size="10.00">_value</text>
</a>
</g>
</g>
<!-- Node61&#45;&gt;Node62 -->
<g id="edge10" class="edge"><title>Node61&#45;&gt;Node62</title>
<path fill="none" stroke="midnightblue" d="M266.747,-90.3938C278.088,-90.6126 289.585,-90.8344 300.268,-91.0405"/>
<polygon fill="midnightblue" stroke="midnightblue" points="266.47,-86.8879 256.405,-90.1943 266.335,-93.8866 266.47,-86.8879"/>
</g>
<!-- Node62&#45;&gt;Node57 -->
<g id="edge11" class="edge"><title>Node62&#45;&gt;Node57</title>
<path fill="none" stroke="midnightblue" d="M411.472,-82.6876C422.931,-80.8933 434.782,-79.0377 445.766,-77.3178"/>
<polygon fill="midnightblue" stroke="midnightblue" points="410.873,-79.2387 401.535,-84.2436 411.956,-86.1544 410.873,-79.2387"/>
</g>
</g>
</svg>
