<?xml version="1.0" encoding="UTF-8" standalone="no"?>
<!DOCTYPE svg PUBLIC "-//W3C//DTD SVG 1.1//EN"
 "http://www.w3.org/Graphics/SVG/1.1/DTD/svg11.dtd">
<!-- Generated by graphviz version 2.38.0 (20140413.2041)
 -->
<!-- Title: Output::execute Pages: 1 -->
<svg width="241pt" height="104pt"
 viewBox="0.00 0.00 241.00 104.00" xmlns="http://www.w3.org/2000/svg" xmlns:xlink="http://www.w3.org/1999/xlink">
<g id="graph0" class="graph" transform="scale(1 1) rotate(0) translate(4 100)">
<title>Output::execute</title>
<!-- Node4 -->
<g id="node1" class="node"><title>Node4</title>
<polygon fill="#bfbfbf" stroke="black" points="0,-38.5 0,-57.5 86,-57.5 86,-38.5 0,-38.5"/>
<text text-anchor="middle" x="43" y="-45.5" font-family="Helvetica,sans-Serif" font-size="10.00">Output::execute</text>
</g>
<!-- Node5 -->
<g id="node2" class="node"><title>Node5</title>
<g id="a_node2"><a xlink:href="class_output.html#a2d62a7d56d1731d8f100ad850642d04c" target="_top" xlink:title="Output::SDCard_print">
<polygon fill="none" stroke="black" points="122,-76.5 122,-95.5 233,-95.5 233,-76.5 122,-76.5"/>
<text text-anchor="middle" x="177.5" y="-83.5" font-family="Helvetica,sans-Serif" font-size="10.00">Output::SDCard_print</text>
</a>
</g>
</g>
<!-- Node4&#45;&gt;Node5 -->
<g id="edge1" class="edge"><title>Node4&#45;&gt;Node5</title>
<path fill="none" stroke="midnightblue" d="M77.4353,-57.589C94.3829,-62.4494 115.163,-68.4091 133.308,-73.6127"/>
<polygon fill="midnightblue" stroke="midnightblue" points="132.498,-77.0216 143.075,-76.4141 134.428,-70.2928 132.498,-77.0216"/>
</g>
<!-- Node6 -->
<g id="node3" class="node"><title>Node6</title>
<g id="a_node3"><a xlink:href="class_output.html#af4bc42d2d3bb3b2a98782f0df0eba133" target="_top" xlink:title="Output::usart0_print">
<polygon fill="none" stroke="black" points="126,-38.5 126,-57.5 229,-57.5 229,-38.5 126,-38.5"/>
<text text-anchor="middle" x="177.5" y="-45.5" font-family="Helvetica,sans-Serif" font-size="10.00">Output::usart0_print</text>
</a>
</g>
</g>
<!-- Node4&#45;&gt;Node6 -->
<g id="edge2" class="edge"><title>Node4&#45;&gt;Node6</title>
<path fill="none" stroke="midnightblue" d="M86.2881,-48C95.6191,-48 105.683,-48 115.587,-48"/>
<polygon fill="midnightblue" stroke="midnightblue" points="115.812,-51.5001 125.812,-48 115.812,-44.5001 115.812,-51.5001"/>
</g>
<!-- Node7 -->
<g id="node4" class="node"><title>Node7</title>
<g id="a_node4"><a xlink:href="class_output.html#a943b106620d1c711e838298a4c4233af" target="_top" xlink:title="Output::usart1_print">
<polygon fill="none" stroke="black" points="126,-0.5 126,-19.5 229,-19.5 229,-0.5 126,-0.5"/>
<text text-anchor="middle" x="177.5" y="-7.5" font-family="Helvetica,sans-Serif" font-size="10.00">Output::usart1_print</text>
</a>
</g>
</g>
<!-- Node4&#45;&gt;Node7 -->
<g id="edge3" class="edge"><title>Node4&#45;&gt;Node7</title>
<path fill="none" stroke="midnightblue" d="M77.4353,-38.411C94.3829,-33.5506 115.163,-27.5909 133.308,-22.3873"/>
<polygon fill="midnightblue" stroke="midnightblue" points="134.428,-25.7072 143.075,-19.5859 132.498,-18.9784 134.428,-25.7072"/>
</g>
</g>
</svg>
