<?xml version="1.0" encoding="UTF-8" standalone="no"?>
<!DOCTYPE svg PUBLIC "-//W3C//DTD SVG 1.1//EN"
 "http://www.w3.org/Graphics/SVG/1.1/DTD/svg11.dtd">
<!-- Generated by graphviz version 2.38.0 (20140413.2041)
 -->
<!-- Title: Sensor::print_average Pages: 1 -->
<!--zoomable 318 -->
<svg id="main" version="1.1" xmlns="http://www.w3.org/2000/svg" xmlns:xlink="http://www.w3.org/1999/xlink" xml:space="preserve" onload="init(evt)">
<style type="text/css"><![CDATA[
.edge:hover path { stroke: red; }
.edge:hover polygon { stroke: red; fill: red; }
]]></style>
<script type="text/javascript"><![CDATA[
var edges = document.getElementsByTagName('g');
if (edges && edges.length) {
  for (var i=0;i<edges.length;i++) {
    if (edges[i].id.substr(0,4)=='edge') {
      edges[i].setAttribute('class','edge');
    }
  }
}
]]></script>
        <defs>
                <circle id="rim" cx="0" cy="0" r="7"/>
                <circle id="rim2" cx="0" cy="0" r="3.5"/>
                <g id="zoomPlus">
                        <use xlink:href="#rim" fill="#404040">
                                <set attributeName="fill" to="#808080" begin="zoomplus.mouseover" end="zoomplus.mouseout"/>
                        </use>
                        <path d="M-4,0h8M0,-4v8" fill="none" stroke="white" stroke-width="1.5" pointer-events="none"/>
                </g>
                <g id="zoomMin">
                        <use xlink:href="#rim" fill="#404040">
                                <set attributeName="fill" to="#808080" begin="zoomminus.mouseover" end="zoomminus.mouseout"/>
                        </use>
                        <path d="M-4,0h8" fill="none" stroke="white" stroke-width="1.5" pointer-events="none"/>
                </g>
                <g id="dirArrow">
                        <path fill="none" stroke="white" stroke-width="1.5" d="M0,-3.0v7 M-2.5,-0.5L0,-3.0L2.5,-0.5"/>
                </g>
               <g id="resetDef">
                       <use xlink:href="#rim2" fill="#404040">
                               <set attributeName="fill" to="#808080" begin="reset.mouseover" end="reset.mouseout"/>
                       </use>
               </g>
        </defs>

<script type="text/javascript">
var viewWidth = 510;
var viewHeight = 318;
var sectionId = 'dynsection-10';
</script>
<script xlink:href="svgpan.js"/>
<svg id="graph" class="graph">
<g id="viewport">
<title>Sensor::print_average</title>
<!-- Node93 -->
<g id="node1" class="node"><title>Node93</title>
<polygon fill="#bfbfbf" stroke="black" points="0,-164.5 0,-183.5 112,-183.5 112,-164.5 0,-164.5"/>
<text text-anchor="middle" x="56" y="-171.5" font-family="Helvetica,sans-Serif" font-size="10.00">Sensor::print_average</text>
</g>
<!-- Node94 -->
<g id="node2" class="node"><title>Node94</title>
<g id="a_node2"><a xlink:href="class_sensor.html#a4e88d49608387ab4f65734913e514109" target="_top" xlink:title="Sensor::is_enable">
<polygon fill="none" stroke="black" points="148,-164.5 148,-183.5 243,-183.5 243,-164.5 148,-164.5"/>
<text text-anchor="middle" x="195.5" y="-171.5" font-family="Helvetica,sans-Serif" font-size="10.00">Sensor::is_enable</text>
</a>
</g>
</g>
<!-- Node93&#45;&gt;Node94 -->
<g id="edge1" class="edge"><title>Node93&#45;&gt;Node94</title>
<path fill="none" stroke="midnightblue" d="M112.134,-167.369C120.527,-167.221 129.201,-167.211 137.63,-167.34"/>
<polygon fill="midnightblue" stroke="midnightblue" points="137.678,-170.842 147.754,-167.567 137.835,-163.844 137.678,-170.842"/>
</g>
<!-- Node94&#45;&gt;Node93 -->
<g id="edge7" class="edge"><title>Node94&#45;&gt;Node93</title>
<path fill="none" stroke="midnightblue" d="M147.754,-180.433C139.523,-180.678 130.821,-180.781 122.194,-180.742"/>
<polygon fill="midnightblue" stroke="midnightblue" points="122.172,-177.242 112.134,-180.631 122.095,-184.241 122.172,-177.242"/>
</g>
<!-- Node95 -->
<g id="node3" class="node"><title>Node95</title>
<g id="a_node3"><a xlink:href="class_sensor.html#ae16fd0cbdda6cfed1deac36f5c7c0a8f" target="_top" xlink:title="This method calculate the average from the data array. ">
<polygon fill="none" stroke="black" points="281,-290.5 281,-309.5 392,-309.5 392,-290.5 281,-290.5"/>
<text text-anchor="middle" x="336.5" y="-297.5" font-family="Helvetica,sans-Serif" font-size="10.00">Sensor::calc_average</text>
</a>
</g>
</g>
<!-- Node94&#45;&gt;Node95 -->
<g id="edge2" class="edge"><title>Node94&#45;&gt;Node95</title>
<path fill="none" stroke="midnightblue" d="M204.48,-183.676C217.203,-203.594 244.234,-247.223 279,-272 288.58,-278.827 300.792,-283.338 311.41,-287.03"/>
<polygon fill="midnightblue" stroke="midnightblue" points="310.369,-290.374 320.963,-290.369 312.678,-283.766 310.369,-290.374"/>
</g>
<!-- Node96 -->
<g id="node4" class="node"><title>Node96</title>
<g id="a_node4"><a xlink:href="class_sensor.html#a4a9eb446ca4c73268ec6d93b959273f9" target="_top" xlink:title="Initialize the eeprom memory. ">
<polygon fill="none" stroke="black" points="292,-241 292,-271 381,-271 381,-241 292,-241"/>
<text text-anchor="start" x="300" y="-259" font-family="Helvetica,sans-Serif" font-size="10.00">Sensor::initialize</text>
<text text-anchor="middle" x="336.5" y="-248" font-family="Helvetica,sans-Serif" font-size="10.00">_param</text>
</a>
</g>
</g>
<!-- Node94&#45;&gt;Node96 -->
<g id="edge4" class="edge"><title>Node94&#45;&gt;Node96</title>
<path fill="none" stroke="midnightblue" d="M208.88,-183.657C224.614,-195.666 252.876,-216.367 279,-231 282.429,-232.921 286.034,-234.804 289.694,-236.62"/>
<polygon fill="midnightblue" stroke="midnightblue" points="288.305,-239.836 298.837,-240.984 291.32,-233.518 288.305,-239.836"/>
</g>
<!-- Node97 -->
<g id="node5" class="node"><title>Node97</title>
<g id="a_node5"><a xlink:href="class_sensor.html#a953410c8a76c3b718349000a11e6160e" target="_top" xlink:title="Load saved parameters for sensors from the eeprom. ">
<polygon fill="none" stroke="black" points="284.5,-202.5 284.5,-221.5 388.5,-221.5 388.5,-202.5 284.5,-202.5"/>
<text text-anchor="middle" x="336.5" y="-209.5" font-family="Helvetica,sans-Serif" font-size="10.00">Sensor::load_param</text>
</a>
</g>
</g>
<!-- Node94&#45;&gt;Node97 -->
<g id="edge5" class="edge"><title>Node94&#45;&gt;Node97</title>
<path fill="none" stroke="midnightblue" d="M231.576,-183.589C249.519,-188.494 271.558,-194.52 290.717,-199.757"/>
<polygon fill="midnightblue" stroke="midnightblue" points="289.867,-203.153 300.436,-202.414 291.713,-196.401 289.867,-203.153"/>
</g>
<!-- Node98 -->
<g id="node6" class="node"><title>Node98</title>
<g id="a_node6"><a xlink:href="class_sensor.html#a9478b09a17b24105c0fe5b32e988224a" target="_top" xlink:title="Sensor::print">
<polygon fill="none" stroke="black" points="430,-162.5 430,-181.5 502,-181.5 502,-162.5 430,-162.5"/>
<text text-anchor="middle" x="466" y="-169.5" font-family="Helvetica,sans-Serif" font-size="10.00">Sensor::print</text>
</a>
</g>
</g>
<!-- Node94&#45;&gt;Node98 -->
<g id="edge6" class="edge"><title>Node94&#45;&gt;Node98</title>
<path fill="none" stroke="midnightblue" d="M243.269,-173.652C292.925,-173.282 370.862,-172.701 419.881,-172.336"/>
<polygon fill="midnightblue" stroke="midnightblue" points="419.907,-175.836 429.881,-172.262 419.855,-168.836 419.907,-175.836"/>
</g>
<!-- Node99 -->
<g id="node7" class="node"><title>Node99</title>
<g id="a_node7"><a xlink:href="class_sensor.html#a0e1288d8b8594192f9d65819c185764f" target="_top" xlink:title="This method print the sensor configuration for the sensor. It&#39;s a good idea to overload this function...">
<polygon fill="none" stroke="black" points="284.5,-126.5 284.5,-145.5 388.5,-145.5 388.5,-126.5 284.5,-126.5"/>
<text text-anchor="middle" x="336.5" y="-133.5" font-family="Helvetica,sans-Serif" font-size="10.00">Sensor::print_config</text>
</a>
</g>
</g>
<!-- Node94&#45;&gt;Node99 -->
<g id="edge8" class="edge"><title>Node94&#45;&gt;Node99</title>
<path fill="none" stroke="midnightblue" d="M231.576,-164.411C249.519,-159.506 271.558,-153.48 290.717,-148.243"/>
<polygon fill="midnightblue" stroke="midnightblue" points="291.713,-151.599 300.436,-145.586 289.867,-144.847 291.713,-151.599"/>
</g>
<!-- Node101 -->
<g id="node9" class="node"><title>Node101</title>
<g id="a_node9"><a xlink:href="class_sensor.html#aa03d707dfa7562805b77f9040831418b" target="_top" xlink:title="Sensor::print_data\l_array">
<polygon fill="none" stroke="black" points="288.5,-77 288.5,-107 384.5,-107 384.5,-77 288.5,-77"/>
<text text-anchor="start" x="296.5" y="-95" font-family="Helvetica,sans-Serif" font-size="10.00">Sensor::print_data</text>
<text text-anchor="middle" x="336.5" y="-84" font-family="Helvetica,sans-Serif" font-size="10.00">_array</text>
</a>
</g>
</g>
<!-- Node94&#45;&gt;Node101 -->
<g id="edge11" class="edge"><title>Node94&#45;&gt;Node101</title>
<path fill="none" stroke="midnightblue" d="M208.88,-164.343C224.614,-152.334 252.876,-131.633 279,-117 282.429,-115.079 286.034,-113.196 289.694,-111.38"/>
<polygon fill="midnightblue" stroke="midnightblue" points="291.32,-114.482 298.837,-107.016 288.305,-108.164 291.32,-114.482"/>
</g>
<!-- Node103 -->
<g id="node11" class="node"><title>Node103</title>
<g id="a_node11"><a xlink:href="class_sensor.html#a59e815290b2883cea096c8bc613429c0" target="_top" xlink:title="Sensor::read_value">
<polygon fill="none" stroke="black" points="286,-38.5 286,-57.5 387,-57.5 387,-38.5 286,-38.5"/>
<text text-anchor="middle" x="336.5" y="-45.5" font-family="Helvetica,sans-Serif" font-size="10.00">Sensor::read_value</text>
</a>
</g>
</g>
<!-- Node94&#45;&gt;Node103 -->
<g id="edge14" class="edge"><title>Node94&#45;&gt;Node103</title>
<path fill="none" stroke="midnightblue" d="M201.519,-164.302C212.679,-143.648 241.551,-95.009 279,-68 282.231,-65.6699 285.759,-63.5895 289.423,-61.7362"/>
<polygon fill="midnightblue" stroke="midnightblue" points="291.016,-64.858 298.719,-57.5841 288.161,-58.4666 291.016,-64.858"/>
</g>
<!-- Node104 -->
<g id="node12" class="node"><title>Node104</title>
<g id="a_node12"><a xlink:href="class_sensor.html#abf05dcc164ceadf01fa48c32fbaf040a" target="_top" xlink:title="Update saved parameters for sensors in the eeprom. ">
<polygon fill="none" stroke="black" points="279,-0.5 279,-19.5 394,-19.5 394,-0.5 279,-0.5"/>
<text text-anchor="middle" x="336.5" y="-7.5" font-family="Helvetica,sans-Serif" font-size="10.00">Sensor::update_param</text>
</a>
</g>
</g>
<!-- Node94&#45;&gt;Node104 -->
<g id="edge15" class="edge"><title>Node94&#45;&gt;Node104</title>
<path fill="none" stroke="midnightblue" d="M199.324,-164.286C207.343,-138.395 232.721,-67.1143 279,-29 281.136,-27.2411 283.441,-25.6424 285.858,-24.1896"/>
<polygon fill="midnightblue" stroke="midnightblue" points="287.668,-27.1961 294.993,-19.5417 284.493,-20.9573 287.668,-27.1961"/>
</g>
<!-- Node95&#45;&gt;Node94 -->
<g id="edge3" class="edge"><title>Node95&#45;&gt;Node94</title>
<path fill="none" stroke="midnightblue" d="M280.799,-291.235C280.19,-290.832 279.59,-290.42 279,-290 243.249,-264.521 215.677,-219.107 203.434,-193.008"/>
<polygon fill="midnightblue" stroke="midnightblue" points="206.591,-191.493 199.385,-183.727 200.175,-194.292 206.591,-191.493"/>
</g>
<!-- Node99&#45;&gt;Node98 -->
<g id="edge10" class="edge"><title>Node99&#45;&gt;Node98</title>
<path fill="none" stroke="midnightblue" d="M371.333,-145.553C386.607,-149.865 404.843,-155.015 421.149,-159.619"/>
<polygon fill="midnightblue" stroke="midnightblue" points="420.434,-163.053 431.009,-162.403 422.336,-156.317 420.434,-163.053"/>
</g>
<!-- Node100 -->
<g id="node8" class="node"><title>Node100</title>
<g id="a_node8"><a xlink:href="class_usart.html#ab236d7c399791bbe1431f85e9b60f601" target="_top" xlink:title="USART string sender function. ">
<polygon fill="none" stroke="black" points="433.5,-123.5 433.5,-142.5 498.5,-142.5 498.5,-123.5 433.5,-123.5"/>
<text text-anchor="middle" x="466" y="-130.5" font-family="Helvetica,sans-Serif" font-size="10.00">Usart::print</text>
</a>
</g>
</g>
<!-- Node99&#45;&gt;Node100 -->
<g id="edge9" class="edge"><title>Node99&#45;&gt;Node100</title>
<path fill="none" stroke="midnightblue" d="M388.624,-134.797C400.07,-134.528 412.081,-134.245 423.101,-133.986"/>
<polygon fill="midnightblue" stroke="midnightblue" points="423.397,-137.48 433.312,-133.746 423.232,-130.482 423.397,-137.48"/>
</g>
<!-- Node101&#45;&gt;Node100 -->
<g id="edge12" class="edge"><title>Node101&#45;&gt;Node100</title>
<path fill="none" stroke="midnightblue" d="M384.252,-107.034C397.845,-111.405 412.549,-116.133 425.638,-120.343"/>
<polygon fill="midnightblue" stroke="midnightblue" points="424.697,-123.716 435.288,-123.446 426.839,-117.052 424.697,-123.716"/>
</g>
<!-- Node102 -->
<g id="node10" class="node"><title>Node102</title>
<g id="a_node10"><a xlink:href="class_usart.html#a86c9264f48dabbc3d97fa32d2d02d22d" target="_top" xlink:title="USART char sender function. ">
<polygon fill="none" stroke="black" points="436,-82.5 436,-101.5 496,-101.5 496,-82.5 436,-82.5"/>
<text text-anchor="middle" x="466" y="-89.5" font-family="Helvetica,sans-Serif" font-size="10.00">Usart::set</text>
</a>
</g>
</g>
<!-- Node101&#45;&gt;Node102 -->
<g id="edge13" class="edge"><title>Node101&#45;&gt;Node102</title>
<path fill="none" stroke="midnightblue" d="M384.614,-92C398.16,-92 412.783,-92 425.796,-92"/>
<polygon fill="midnightblue" stroke="midnightblue" points="425.835,-95.5001 435.835,-92 425.835,-88.5001 425.835,-95.5001"/>
</g>
</g>
</svg>
        <g id="navigator" transform="translate(0 0)" fill="#404254">
                <rect fill="#f2f5e9" fill-opacity="0.5" stroke="#606060" stroke-width=".5" x="0" y="0" width="60" height="60"/>
                <use id="zoomplus" xlink:href="#zoomPlus" x="17" y="9" onmousedown="handleZoom(evt,'in')"/>
                <use id="zoomminus" xlink:href="#zoomMin" x="42" y="9" onmousedown="handleZoom(evt,'out')"/>
                <use id="reset" xlink:href="#resetDef" x="30" y="36" onmousedown="handleReset()"/>
                <g id="arrowUp" xlink:href="#dirArrow" transform="translate(30 24)" onmousedown="handlePan(0,-1)">
                  <use xlink:href="#rim" fill="#404040">
                        <set attributeName="fill" to="#808080" begin="arrowUp.mouseover" end="arrowUp.mouseout"/>
                  </use>
                  <path fill="none" stroke="white" stroke-width="1.5" d="M0,-3.0v7 M-2.5,-0.5L0,-3.0L2.5,-0.5"/>
                </g>
                <g id="arrowRight" xlink:href="#dirArrow" transform="rotate(90) translate(36 -43)" onmousedown="handlePan(1,0)">
                  <use xlink:href="#rim" fill="#404040">
                        <set attributeName="fill" to="#808080" begin="arrowRight.mouseover" end="arrowRight.mouseout"/>
                  </use>
                  <path fill="none" stroke="white" stroke-width="1.5" d="M0,-3.0v7 M-2.5,-0.5L0,-3.0L2.5,-0.5"/>
                </g>
                <g id="arrowDown" xlink:href="#dirArrow" transform="rotate(180) translate(-30 -48)" onmousedown="handlePan(0,1)">
                  <use xlink:href="#rim" fill="#404040">
                        <set attributeName="fill" to="#808080" begin="arrowDown.mouseover" end="arrowDown.mouseout"/>
                  </use>
                  <path fill="none" stroke="white" stroke-width="1.5" d="M0,-3.0v7 M-2.5,-0.5L0,-3.0L2.5,-0.5"/>
                </g>
                <g id="arrowLeft" xlink:href="#dirArrow" transform="rotate(270) translate(-36 17)" onmousedown="handlePan(-1,0)">
                  <use xlink:href="#rim" fill="#404040">
                        <set attributeName="fill" to="#808080" begin="arrowLeft.mouseover" end="arrowLeft.mouseout"/>
                  </use>
                  <path fill="none" stroke="white" stroke-width="1.5" d="M0,-3.0v7 M-2.5,-0.5L0,-3.0L2.5,-0.5"/>
                </g>
        </g>
        <svg viewBox="0 0 15 15" width="100%" height="30px" preserveAspectRatio="xMaxYMin meet">
         <g id="arrow_out" transform="scale(0.3 0.3)">
          <a xlink:href="class_sensor_a38a47820684e5ff0f61ad32b8afbde45_cgraph_org.svg" target="_base">
           <rect id="button" ry="5" rx="5" y="6" x="6" height="38" width="38"
                fill="#f2f5e9" fill-opacity="0.5" stroke="#606060" stroke-width="1.0"/>
           <path id="arrow"
             d="M 11.500037,31.436501 C 11.940474,20.09759 22.043105,11.32322 32.158766,21.979434 L 37.068811,17.246167 C 37.068811,17.246167 37.088388,32 37.088388,32 L 22.160133,31.978069 C 22.160133,31.978069 26.997745,27.140456 26.997745,27.140456 C 18.528582,18.264221 13.291696,25.230495 11.500037,31.436501 z"
             style="fill:#404040;"/>
          </a>
         </g>
        </svg>
</svg>
