<?xml version="1.0" encoding="UTF-8" standalone="no"?>
<!DOCTYPE svg PUBLIC "-//W3C//DTD SVG 1.1//EN"
 "http://www.w3.org/Graphics/SVG/1.1/DTD/svg11.dtd">
<!-- Generated by graphviz version 2.38.0 (20140413.2041)
 -->
<!-- Title: Measure::calc_average Pages: 1 -->
<svg width="663pt" height="302pt"
 viewBox="0.00 0.00 663.00 301.58" xmlns="http://www.w3.org/2000/svg" xmlns:xlink="http://www.w3.org/1999/xlink">
<g id="graph0" class="graph" transform="scale(1 1) rotate(0) translate(4 297.578)">
<title>Measure::calc_average</title>
<!-- Node4 -->
<g id="node1" class="node"><title>Node4</title>
<polygon fill="#bfbfbf" stroke="black" points="0,-195 0,-214 118,-214 118,-195 0,-195"/>
<text text-anchor="middle" x="59" y="-202" font-family="Helvetica,sans-Serif" font-size="10.00">Measure::calc_average</text>
</g>
<!-- Node5 -->
<g id="node2" class="node"><title>Node5</title>
<g id="a_node2"><a xlink:href="class_power.html#a09a87034c397af2cfb7289fe1fbe5830" target="_top" xlink:title="This method calculate the mean RMS voltage, mean RMS current, active power, apparent power and power ...">
<polygon fill="none" stroke="black" points="168,-214 168,-233 251,-233 251,-214 168,-214"/>
<text text-anchor="middle" x="209.5" y="-221" font-family="Helvetica,sans-Serif" font-size="10.00">Power::calc_all</text>
</a>
</g>
</g>
<!-- Node4&#45;&gt;Node5 -->
<g id="edge1" class="edge"><title>Node4&#45;&gt;Node5</title>
<path fill="none" stroke="midnightblue" d="M118.265,-211.955C131.345,-213.628 145.119,-215.391 157.859,-217.021"/>
<polygon fill="midnightblue" stroke="midnightblue" points="157.457,-220.498 167.82,-218.295 158.346,-213.554 157.457,-220.498"/>
</g>
<!-- Node6 -->
<g id="node3" class="node"><title>Node6</title>
<g id="a_node3"><a xlink:href="class_sensor.html#ae16fd0cbdda6cfed1deac36f5c7c0a8f" target="_top" xlink:title="This method calculate the average from the data array. ">
<polygon fill="none" stroke="black" points="154,-176 154,-195 265,-195 265,-176 154,-176"/>
<text text-anchor="middle" x="209.5" y="-183" font-family="Helvetica,sans-Serif" font-size="10.00">Sensor::calc_average</text>
</a>
</g>
</g>
<!-- Node4&#45;&gt;Node6 -->
<g id="edge2" class="edge"><title>Node4&#45;&gt;Node6</title>
<path fill="none" stroke="midnightblue" d="M118.265,-197.045C126.584,-195.981 135.183,-194.881 143.619,-193.801"/>
<polygon fill="midnightblue" stroke="midnightblue" points="144.322,-197.24 153.797,-192.499 143.434,-190.297 144.322,-197.24"/>
</g>
<!-- Node7 -->
<g id="node4" class="node"><title>Node7</title>
<g id="a_node4"><a xlink:href="class_sensor.html#a4e88d49608387ab4f65734913e514109" target="_top" xlink:title="Sensor::is_enable">
<polygon fill="none" stroke="black" points="301,-176 301,-195 396,-195 396,-176 301,-176"/>
<text text-anchor="middle" x="348.5" y="-183" font-family="Helvetica,sans-Serif" font-size="10.00">Sensor::is_enable</text>
</a>
</g>
</g>
<!-- Node6&#45;&gt;Node7 -->
<g id="edge3" class="edge"><title>Node6&#45;&gt;Node7</title>
<path fill="none" stroke="midnightblue" d="M265.04,-178.876C273.421,-178.723 282.095,-178.709 290.528,-178.836"/>
<polygon fill="midnightblue" stroke="midnightblue" points="290.584,-182.338 300.659,-179.059 290.739,-175.339 290.584,-182.338"/>
</g>
<!-- Node7&#45;&gt;Node6 -->
<g id="edge9" class="edge"><title>Node7&#45;&gt;Node6</title>
<path fill="none" stroke="midnightblue" d="M300.659,-191.941C292.42,-192.184 283.714,-192.283 275.091,-192.24"/>
<polygon fill="midnightblue" stroke="midnightblue" points="275.08,-188.74 265.04,-192.124 274.998,-195.739 275.08,-188.74"/>
</g>
<!-- Node8 -->
<g id="node5" class="node"><title>Node8</title>
<g id="a_node5"><a xlink:href="class_sensor.html#a9478b09a17b24105c0fe5b32e988224a" target="_top" xlink:title="Sensor::print">
<polygon fill="none" stroke="black" points="583,-234 583,-253 655,-253 655,-234 583,-234"/>
<text text-anchor="middle" x="619" y="-241" font-family="Helvetica,sans-Serif" font-size="10.00">Sensor::print</text>
</a>
</g>
</g>
<!-- Node7&#45;&gt;Node8 -->
<g id="edge4" class="edge"><title>Node7&#45;&gt;Node8</title>
<path fill="none" stroke="midnightblue" d="M354.225,-195.156C364.816,-215.539 392.647,-262.554 432,-280.5 478.504,-301.707 497.356,-292.659 547,-280.5 564.441,-276.228 582.36,-266.845 595.833,-258.598"/>
<polygon fill="midnightblue" stroke="midnightblue" points="597.837,-261.471 604.39,-253.146 594.076,-255.568 597.837,-261.471"/>
</g>
<!-- Node9 -->
<g id="node6" class="node"><title>Node9</title>
<g id="a_node6"><a xlink:href="class_sensor.html#a59e815290b2883cea096c8bc613429c0" target="_top" xlink:title="Sensor::read_value">
<polygon fill="none" stroke="black" points="439,-252 439,-271 540,-271 540,-252 439,-252"/>
<text text-anchor="middle" x="489.5" y="-259" font-family="Helvetica,sans-Serif" font-size="10.00">Sensor::read_value</text>
</a>
</g>
</g>
<!-- Node7&#45;&gt;Node9 -->
<g id="edge5" class="edge"><title>Node7&#45;&gt;Node9</title>
<path fill="none" stroke="midnightblue" d="M361.135,-195.121C376.538,-207.474 404.918,-228.93 432,-242.5 436.285,-244.647 440.869,-246.639 445.503,-248.462"/>
<polygon fill="midnightblue" stroke="midnightblue" points="444.413,-251.79 455.006,-251.961 446.832,-245.221 444.413,-251.79"/>
</g>
<!-- Node10 -->
<g id="node7" class="node"><title>Node10</title>
<g id="a_node7"><a xlink:href="class_sensor.html#a0e1288d8b8594192f9d65819c185764f" target="_top" xlink:title="This method print the sensor configuration for the sensor. It&#39;s a good idea to overload this function...">
<polygon fill="none" stroke="black" points="437.5,-214 437.5,-233 541.5,-233 541.5,-214 437.5,-214"/>
<text text-anchor="middle" x="489.5" y="-221" font-family="Helvetica,sans-Serif" font-size="10.00">Sensor::print_config</text>
</a>
</g>
</g>
<!-- Node7&#45;&gt;Node10 -->
<g id="edge6" class="edge"><title>Node7&#45;&gt;Node10</title>
<path fill="none" stroke="midnightblue" d="M384.576,-195.089C402.519,-199.994 424.558,-206.02 443.717,-211.257"/>
<polygon fill="midnightblue" stroke="midnightblue" points="442.867,-214.653 453.436,-213.914 444.713,-207.901 442.867,-214.653"/>
</g>
<!-- Node12 -->
<g id="node9" class="node"><title>Node12</title>
<g id="a_node9"><a xlink:href="class_sensor.html#a38a47820684e5ff0f61ad32b8afbde45" target="_top" xlink:title="The print_average method print the average&#39;s value in the string. ">
<polygon fill="none" stroke="black" points="433.5,-176 433.5,-195 545.5,-195 545.5,-176 433.5,-176"/>
<text text-anchor="middle" x="489.5" y="-183" font-family="Helvetica,sans-Serif" font-size="10.00">Sensor::print_average</text>
</a>
</g>
</g>
<!-- Node7&#45;&gt;Node12 -->
<g id="edge10" class="edge"><title>Node7&#45;&gt;Node12</title>
<path fill="none" stroke="midnightblue" d="M396.172,-179.085C404.767,-178.824 413.887,-178.716 422.918,-178.76"/>
<polygon fill="midnightblue" stroke="midnightblue" points="423.005,-182.261 433.044,-178.874 423.084,-175.261 423.005,-182.261"/>
</g>
<!-- Node13 -->
<g id="node10" class="node"><title>Node13</title>
<g id="a_node10"><a xlink:href="class_sensor.html#aa03d707dfa7562805b77f9040831418b" target="_top" xlink:title="Sensor::print_data\l_array">
<polygon fill="none" stroke="black" points="441.5,-126.5 441.5,-156.5 537.5,-156.5 537.5,-126.5 441.5,-126.5"/>
<text text-anchor="start" x="449.5" y="-144.5" font-family="Helvetica,sans-Serif" font-size="10.00">Sensor::print_data</text>
<text text-anchor="middle" x="489.5" y="-133.5" font-family="Helvetica,sans-Serif" font-size="10.00">_array</text>
</a>
</g>
</g>
<!-- Node7&#45;&gt;Node13 -->
<g id="edge12" class="edge"><title>Node7&#45;&gt;Node13</title>
<path fill="none" stroke="midnightblue" d="M379.661,-175.953C394.887,-171.133 413.868,-165.125 431.696,-159.481"/>
<polygon fill="midnightblue" stroke="midnightblue" points="432.973,-162.748 441.45,-156.394 430.86,-156.075 432.973,-162.748"/>
</g>
<!-- Node15 -->
<g id="node12" class="node"><title>Node15</title>
<g id="a_node12"><a xlink:href="class_sensor.html#a953410c8a76c3b718349000a11e6160e" target="_top" xlink:title="Load saved parameters for sensors from the eeprom. ">
<polygon fill="none" stroke="black" points="437.5,-88 437.5,-107 541.5,-107 541.5,-88 437.5,-88"/>
<text text-anchor="middle" x="489.5" y="-95" font-family="Helvetica,sans-Serif" font-size="10.00">Sensor::load_param</text>
</a>
</g>
</g>
<!-- Node7&#45;&gt;Node15 -->
<g id="edge15" class="edge"><title>Node7&#45;&gt;Node15</title>
<path fill="none" stroke="midnightblue" d="M358.825,-175.908C373.303,-161.485 402.597,-134.132 432,-117.5 436.415,-115.002 441.198,-112.731 446.048,-110.69"/>
<polygon fill="midnightblue" stroke="midnightblue" points="447.334,-113.945 455.378,-107.05 444.79,-107.424 447.334,-113.945"/>
</g>
<!-- Node16 -->
<g id="node13" class="node"><title>Node16</title>
<g id="a_node13"><a xlink:href="class_sensor.html#abf05dcc164ceadf01fa48c32fbaf040a" target="_top" xlink:title="Update saved parameters for sensors in the eeprom. ">
<polygon fill="none" stroke="black" points="432,-50 432,-69 547,-69 547,-50 432,-50"/>
<text text-anchor="middle" x="489.5" y="-57" font-family="Helvetica,sans-Serif" font-size="10.00">Sensor::update_param</text>
</a>
</g>
</g>
<!-- Node7&#45;&gt;Node16 -->
<g id="edge16" class="edge"><title>Node7&#45;&gt;Node16</title>
<path fill="none" stroke="midnightblue" d="M354.295,-175.978C365.22,-155.22 393.987,-105.591 432,-78.5 434.697,-76.578 437.602,-74.8397 440.622,-73.2691"/>
<polygon fill="midnightblue" stroke="midnightblue" points="442.27,-76.3646 449.93,-69.0446 439.377,-69.9904 442.27,-76.3646"/>
</g>
<!-- Node17 -->
<g id="node14" class="node"><title>Node17</title>
<g id="a_node14"><a xlink:href="class_sensor.html#a4a9eb446ca4c73268ec6d93b959273f9" target="_top" xlink:title="Initialize the eeprom memory. ">
<polygon fill="none" stroke="black" points="445,-0.5 445,-30.5 534,-30.5 534,-0.5 445,-0.5"/>
<text text-anchor="start" x="453" y="-18.5" font-family="Helvetica,sans-Serif" font-size="10.00">Sensor::initialize</text>
<text text-anchor="middle" x="489.5" y="-7.5" font-family="Helvetica,sans-Serif" font-size="10.00">_param</text>
</a>
</g>
</g>
<!-- Node7&#45;&gt;Node17 -->
<g id="edge17" class="edge"><title>Node7&#45;&gt;Node17</title>
<path fill="none" stroke="midnightblue" d="M352.647,-175.646C361.291,-150.02 387.741,-80.5118 432,-40.5 433.713,-38.9512 435.538,-37.4861 437.443,-36.1015"/>
<polygon fill="midnightblue" stroke="midnightblue" points="439.647,-38.8485 446.218,-30.5372 435.898,-32.937 439.647,-38.8485"/>
</g>
<!-- Node10&#45;&gt;Node8 -->
<g id="edge8" class="edge"><title>Node10&#45;&gt;Node8</title>
<path fill="none" stroke="midnightblue" d="M541.624,-231.52C552.017,-233.15 562.875,-234.853 573.034,-236.447"/>
<polygon fill="midnightblue" stroke="midnightblue" points="572.496,-239.905 582.918,-237.997 573.581,-232.989 572.496,-239.905"/>
</g>
<!-- Node11 -->
<g id="node8" class="node"><title>Node11</title>
<g id="a_node8"><a xlink:href="class_usart.html#ab236d7c399791bbe1431f85e9b60f601" target="_top" xlink:title="USART string sender function. ">
<polygon fill="none" stroke="black" points="586.5,-193 586.5,-212 651.5,-212 651.5,-193 586.5,-193"/>
<text text-anchor="middle" x="619" y="-200" font-family="Helvetica,sans-Serif" font-size="10.00">Usart::print</text>
</a>
</g>
</g>
<!-- Node10&#45;&gt;Node11 -->
<g id="edge7" class="edge"><title>Node10&#45;&gt;Node11</title>
<path fill="none" stroke="midnightblue" d="M541.624,-215.079C553.188,-213.175 565.328,-211.175 576.441,-209.345"/>
<polygon fill="midnightblue" stroke="midnightblue" points="577.013,-212.798 586.312,-207.719 575.876,-205.891 577.013,-212.798"/>
</g>
<!-- Node12&#45;&gt;Node7 -->
<g id="edge11" class="edge"><title>Node12&#45;&gt;Node7</title>
<path fill="none" stroke="midnightblue" d="M433.044,-192.126C424.262,-192.283 415.167,-192.291 406.354,-192.15"/>
<polygon fill="midnightblue" stroke="midnightblue" points="406.25,-188.646 396.172,-191.915 406.088,-195.645 406.25,-188.646"/>
</g>
<!-- Node13&#45;&gt;Node11 -->
<g id="edge13" class="edge"><title>Node13&#45;&gt;Node11</title>
<path fill="none" stroke="midnightblue" d="M525.292,-156.55C532.5,-159.764 540.022,-163.19 547,-166.5 561.569,-173.411 577.607,-181.501 590.748,-188.259"/>
<polygon fill="midnightblue" stroke="midnightblue" points="589.252,-191.426 599.743,-192.909 592.467,-185.207 589.252,-191.426"/>
</g>
<!-- Node14 -->
<g id="node11" class="node"><title>Node14</title>
<g id="a_node11"><a xlink:href="class_usart.html#a86c9264f48dabbc3d97fa32d2d02d22d" target="_top" xlink:title="USART char sender function. ">
<polygon fill="none" stroke="black" points="589,-132 589,-151 649,-151 649,-132 589,-132"/>
<text text-anchor="middle" x="619" y="-139" font-family="Helvetica,sans-Serif" font-size="10.00">Usart::set</text>
</a>
</g>
</g>
<!-- Node13&#45;&gt;Node14 -->
<g id="edge14" class="edge"><title>Node13&#45;&gt;Node14</title>
<path fill="none" stroke="midnightblue" d="M537.614,-141.5C551.16,-141.5 565.783,-141.5 578.796,-141.5"/>
<polygon fill="midnightblue" stroke="midnightblue" points="578.835,-145 588.835,-141.5 578.835,-138 578.835,-145"/>
</g>
</g>
</svg>
