<?xml version="1.0" encoding="UTF-8" standalone="no"?>
<!DOCTYPE svg PUBLIC "-//W3C//DTD SVG 1.1//EN"
 "http://www.w3.org/Graphics/SVG/1.1/DTD/svg11.dtd">
<!-- Generated by graphviz version 2.38.0 (20140413.2041)
 -->
<!-- Title: TWI::stop Pages: 1 -->
<svg width="433pt" height="142pt"
 viewBox="0.00 0.00 433.00 142.00" xmlns="http://www.w3.org/2000/svg" xmlns:xlink="http://www.w3.org/1999/xlink">
<g id="graph0" class="graph" transform="scale(1 1) rotate(0) translate(4 138)">
<title>TWI::stop</title>
<!-- Node73 -->
<g id="node1" class="node"><title>Node73</title>
<polygon fill="#bfbfbf" stroke="black" points="0,-57.5 0,-76.5 60,-76.5 60,-57.5 0,-57.5"/>
<text text-anchor="middle" x="30" y="-64.5" font-family="Helvetica,sans-Serif" font-size="10.00">TWI::stop</text>
</g>
<!-- Node74 -->
<g id="node2" class="node"><title>Node74</title>
<g id="a_node2"><a xlink:href="class_t_w_i.html#af9e2b71e3b3b0f6cd2c003980c5cfc91" target="_top" xlink:title="TWI::get_char">
<polygon fill="none" stroke="black" points="96,-114.5 96,-133.5 175,-133.5 175,-114.5 96,-114.5"/>
<text text-anchor="middle" x="135.5" y="-121.5" font-family="Helvetica,sans-Serif" font-size="10.00">TWI::get_char</text>
</a>
</g>
</g>
<!-- Node73&#45;&gt;Node74 -->
<g id="edge1" class="edge"><title>Node73&#45;&gt;Node74</title>
<path fill="none" stroke="midnightblue" d="M55.2349,-81.7153C67.3612,-88.9377 82.3331,-97.6445 96,-105 101.907,-108.179 108.419,-111.471 114.381,-114.404"/>
<polygon fill="midnightblue" stroke="midnightblue" points="56.9614,-78.6696 46.5852,-76.5286 53.3615,-84.673 56.9614,-78.6696"/>
</g>
<!-- Node75 -->
<g id="node3" class="node"><title>Node75</title>
<g id="a_node3"><a xlink:href="class_t_w_i.html#ae409624835946cb6c455cd05839f021c" target="_top" xlink:title="TWI::print">
<polygon fill="none" stroke="black" points="105.5,-76.5 105.5,-95.5 165.5,-95.5 165.5,-76.5 105.5,-76.5"/>
<text text-anchor="middle" x="135.5" y="-83.5" font-family="Helvetica,sans-Serif" font-size="10.00">TWI::print</text>
</a>
</g>
</g>
<!-- Node73&#45;&gt;Node75 -->
<g id="edge2" class="edge"><title>Node73&#45;&gt;Node75</title>
<path fill="none" stroke="midnightblue" d="M70.0627,-74.1709C81.7355,-76.3138 94.326,-78.6251 105.254,-80.6312"/>
<polygon fill="midnightblue" stroke="midnightblue" points="70.5736,-70.7063 60.106,-72.3431 69.3096,-77.5913 70.5736,-70.7063"/>
</g>
<!-- Node76 -->
<g id="node4" class="node"><title>Node76</title>
<g id="a_node4"><a xlink:href="class_t_w_i.html#a3e375d4c03edae3f0c8263a330eddd8d" target="_top" xlink:title="TWI::receive">
<polygon fill="none" stroke="black" points="99,-38.5 99,-57.5 172,-57.5 172,-38.5 99,-38.5"/>
<text text-anchor="middle" x="135.5" y="-45.5" font-family="Helvetica,sans-Serif" font-size="10.00">TWI::receive</text>
</a>
</g>
</g>
<!-- Node73&#45;&gt;Node76 -->
<g id="edge3" class="edge"><title>Node73&#45;&gt;Node76</title>
<path fill="none" stroke="midnightblue" d="M70.0987,-59.8225C79.5867,-58.0807 89.6791,-56.228 98.9909,-54.5186"/>
<polygon fill="midnightblue" stroke="midnightblue" points="69.3096,-56.4087 60.106,-61.6569 70.5736,-63.2937 69.3096,-56.4087"/>
</g>
<!-- Node79 -->
<g id="node7" class="node"><title>Node79</title>
<g id="a_node7"><a xlink:href="class_t_w_i.html#a1f2dc98a8c2e00dca3a0c76ee1ea1020" target="_top" xlink:title="TWI::set_char">
<polygon fill="none" stroke="black" points="96,-0.5 96,-19.5 175,-19.5 175,-0.5 96,-0.5"/>
<text text-anchor="middle" x="135.5" y="-7.5" font-family="Helvetica,sans-Serif" font-size="10.00">TWI::set_char</text>
</a>
</g>
</g>
<!-- Node73&#45;&gt;Node79 -->
<g id="edge6" class="edge"><title>Node73&#45;&gt;Node79</title>
<path fill="none" stroke="midnightblue" d="M55.2349,-52.2847C67.3612,-45.0623 82.3331,-36.3555 96,-29 101.907,-25.8208 108.419,-22.5287 114.381,-19.5959"/>
<polygon fill="midnightblue" stroke="midnightblue" points="53.3615,-49.327 46.5852,-57.4714 56.9614,-55.3304 53.3615,-49.327"/>
</g>
<!-- Node77 -->
<g id="node5" class="node"><title>Node77</title>
<g id="a_node5"><a xlink:href="class_r_t_c.html#a6e75afc10029f384081b814c2450e0fa" target="_top" xlink:title="RTC::get_date">
<polygon fill="none" stroke="black" points="216.5,-38.5 216.5,-57.5 297.5,-57.5 297.5,-38.5 216.5,-38.5"/>
<text text-anchor="middle" x="257" y="-45.5" font-family="Helvetica,sans-Serif" font-size="10.00">RTC::get_date</text>
</a>
</g>
</g>
<!-- Node76&#45;&gt;Node77 -->
<g id="edge4" class="edge"><title>Node76&#45;&gt;Node77</title>
<path fill="none" stroke="midnightblue" d="M182.1,-48C193.334,-48 205.277,-48 216.212,-48"/>
<polygon fill="midnightblue" stroke="midnightblue" points="182.03,-44.5001 172.03,-48 182.03,-51.5001 182.03,-44.5001"/>
</g>
<!-- Node78 -->
<g id="node6" class="node"><title>Node78</title>
<g id="a_node6"><a xlink:href="main_8cpp.html#ae66f6b31b5ad750f1fe042a706a4e3d4" target="_top" xlink:title="main">
<polygon fill="none" stroke="black" points="363,-38.5 363,-57.5 401,-57.5 401,-38.5 363,-38.5"/>
<text text-anchor="middle" x="382" y="-45.5" font-family="Helvetica,sans-Serif" font-size="10.00">main</text>
</a>
</g>
</g>
<!-- Node77&#45;&gt;Node78 -->
<g id="edge5" class="edge"><title>Node77&#45;&gt;Node78</title>
<path fill="none" stroke="midnightblue" d="M307.859,-48C327.272,-48 348.291,-48 362.793,-48"/>
<polygon fill="midnightblue" stroke="midnightblue" points="307.595,-44.5001 297.595,-48 307.595,-51.5001 307.595,-44.5001"/>
</g>
<!-- Node80 -->
<g id="node8" class="node"><title>Node80</title>
<g id="a_node8"><a xlink:href="class_r_t_c.html#a47c11140f33fe80ffb96fb5296859a25" target="_top" xlink:title="Function to update a register in the pcf8563 This function is use in the st_config class...">
<polygon fill="none" stroke="black" points="211,-0.5 211,-19.5 303,-19.5 303,-0.5 211,-0.5"/>
<text text-anchor="middle" x="257" y="-7.5" font-family="Helvetica,sans-Serif" font-size="10.00">RTC::update_reg</text>
</a>
</g>
</g>
<!-- Node79&#45;&gt;Node80 -->
<g id="edge7" class="edge"><title>Node79&#45;&gt;Node80</title>
<path fill="none" stroke="midnightblue" d="M185.35,-10C193.749,-10 202.446,-10 210.746,-10"/>
<polygon fill="midnightblue" stroke="midnightblue" points="185.298,-6.5001 175.298,-10 185.298,-13.5001 185.298,-6.5001"/>
</g>
<!-- Node81 -->
<g id="node9" class="node"><title>Node81</title>
<g id="a_node9"><a xlink:href="class_config.html#a2a806f322b0d533aabdb8e796d3b1033" target="_top" xlink:title="The execute method is the config &quot;main function&quot; In this method, sentence from the uart are process e...">
<polygon fill="none" stroke="black" points="339,-0.5 339,-19.5 425,-19.5 425,-0.5 339,-0.5"/>
<text text-anchor="middle" x="382" y="-7.5" font-family="Helvetica,sans-Serif" font-size="10.00">Config::execute</text>
</a>
</g>
</g>
<!-- Node80&#45;&gt;Node81 -->
<g id="edge8" class="edge"><title>Node80&#45;&gt;Node81</title>
<path fill="none" stroke="midnightblue" d="M313.378,-10C321.903,-10 330.586,-10 338.765,-10"/>
<polygon fill="midnightblue" stroke="midnightblue" points="313.102,-6.5001 303.102,-10 313.102,-13.5001 313.102,-6.5001"/>
</g>
</g>
</svg>
