<?xml version="1.0" encoding="UTF-8" standalone="no"?>
<!DOCTYPE svg PUBLIC "-//W3C//DTD SVG 1.1//EN"
 "http://www.w3.org/Graphics/SVG/1.1/DTD/svg11.dtd">
<!-- Generated by graphviz version 2.38.0 (20140413.2041)
 -->
<!-- Title: TWI::receive Pages: 1 -->
<svg width="204pt" height="218pt"
 viewBox="0.00 0.00 204.00 218.00" xmlns="http://www.w3.org/2000/svg" xmlns:xlink="http://www.w3.org/1999/xlink">
<g id="graph0" class="graph" transform="scale(1 1) rotate(0) translate(4 214)">
<title>TWI::receive</title>
<!-- Node37 -->
<g id="node1" class="node"><title>Node37</title>
<polygon fill="#bfbfbf" stroke="black" points="0,-95.5 0,-114.5 73,-114.5 73,-95.5 0,-95.5"/>
<text text-anchor="middle" x="36.5" y="-102.5" font-family="Helvetica,sans-Serif" font-size="10.00">TWI::receive</text>
</g>
<!-- Node38 -->
<g id="node2" class="node"><title>Node38</title>
<g id="a_node2"><a xlink:href="class_t_w_i.html#ab5cefdcf75964a3ce2ed54303de56614" target="_top" xlink:title="TWI::get_ack">
<polygon fill="none" stroke="black" points="114.5,-190.5 114.5,-209.5 190.5,-209.5 190.5,-190.5 114.5,-190.5"/>
<text text-anchor="middle" x="152.5" y="-197.5" font-family="Helvetica,sans-Serif" font-size="10.00">TWI::get_ack</text>
</a>
</g>
</g>
<!-- Node37&#45;&gt;Node38 -->
<g id="edge1" class="edge"><title>Node37&#45;&gt;Node38</title>
<path fill="none" stroke="midnightblue" d="M44.4548,-114.559C56.2384,-130.201 81.54,-161.473 109,-181 111.346,-182.669 113.863,-184.241 116.457,-185.711"/>
<polygon fill="midnightblue" stroke="midnightblue" points="114.941,-188.867 125.438,-190.309 118.131,-182.636 114.941,-188.867"/>
</g>
<!-- Node39 -->
<g id="node3" class="node"><title>Node39</title>
<g id="a_node3"><a xlink:href="class_t_w_i.html#a8fb1629575f81558db83b54955470136" target="_top" xlink:title="TWI::get_nack">
<polygon fill="none" stroke="black" points="112,-152.5 112,-171.5 193,-171.5 193,-152.5 112,-152.5"/>
<text text-anchor="middle" x="152.5" y="-159.5" font-family="Helvetica,sans-Serif" font-size="10.00">TWI::get_nack</text>
</a>
</g>
</g>
<!-- Node37&#45;&gt;Node39 -->
<g id="edge2" class="edge"><title>Node37&#45;&gt;Node39</title>
<path fill="none" stroke="midnightblue" d="M54.6679,-114.547C69.0466,-122.441 90.1804,-133.805 109,-143 112.574,-144.746 116.345,-146.523 120.105,-148.255"/>
<polygon fill="midnightblue" stroke="midnightblue" points="118.756,-151.486 129.309,-152.422 121.643,-145.109 118.756,-151.486"/>
</g>
<!-- Node40 -->
<g id="node4" class="node"><title>Node40</title>
<g id="a_node4"><a xlink:href="class_t_w_i.html#a6bde06891e3037d407b28a4ecbc3386f" target="_top" xlink:title="TWI::get_status">
<polygon fill="none" stroke="black" points="109,-114.5 109,-133.5 196,-133.5 196,-114.5 109,-114.5"/>
<text text-anchor="middle" x="152.5" y="-121.5" font-family="Helvetica,sans-Serif" font-size="10.00">TWI::get_status</text>
</a>
</g>
</g>
<!-- Node37&#45;&gt;Node40 -->
<g id="edge3" class="edge"><title>Node37&#45;&gt;Node40</title>
<path fill="none" stroke="midnightblue" d="M73.2575,-110.96C81.33,-112.305 90.0657,-113.761 98.6738,-115.196"/>
<polygon fill="midnightblue" stroke="midnightblue" points="98.2336,-118.67 108.673,-116.862 99.3845,-111.766 98.2336,-118.67"/>
</g>
<!-- Node41 -->
<g id="node5" class="node"><title>Node41</title>
<g id="a_node5"><a xlink:href="class_t_w_i.html#a29a1270e7b1ee2b573c1a32e3214ac57" target="_top" xlink:title="TWI::restart">
<polygon fill="none" stroke="black" points="118,-76.5 118,-95.5 187,-95.5 187,-76.5 118,-76.5"/>
<text text-anchor="middle" x="152.5" y="-83.5" font-family="Helvetica,sans-Serif" font-size="10.00">TWI::restart</text>
</a>
</g>
</g>
<!-- Node37&#45;&gt;Node41 -->
<g id="edge4" class="edge"><title>Node37&#45;&gt;Node41</title>
<path fill="none" stroke="midnightblue" d="M73.2575,-99.0404C84.1561,-97.224 96.2638,-95.206 107.634,-93.311"/>
<polygon fill="midnightblue" stroke="midnightblue" points="108.525,-96.7109 117.813,-91.6145 107.374,-89.8062 108.525,-96.7109"/>
</g>
<!-- Node42 -->
<g id="node6" class="node"><title>Node42</title>
<g id="a_node6"><a xlink:href="class_t_w_i.html#a130b2bf159b768c28ae0d4129c556711" target="_top" xlink:title="TWI::start">
<polygon fill="none" stroke="black" points="122,-38.5 122,-57.5 183,-57.5 183,-38.5 122,-38.5"/>
<text text-anchor="middle" x="152.5" y="-45.5" font-family="Helvetica,sans-Serif" font-size="10.00">TWI::start</text>
</a>
</g>
</g>
<!-- Node37&#45;&gt;Node42 -->
<g id="edge5" class="edge"><title>Node37&#45;&gt;Node42</title>
<path fill="none" stroke="midnightblue" d="M54.6679,-95.4526C69.0466,-87.5589 90.1804,-76.1945 109,-67 112.574,-65.2538 116.345,-63.4767 120.105,-61.7452"/>
<polygon fill="midnightblue" stroke="midnightblue" points="121.643,-64.8909 129.309,-57.5784 118.756,-58.5139 121.643,-64.8909"/>
</g>
<!-- Node43 -->
<g id="node7" class="node"><title>Node43</title>
<g id="a_node7"><a xlink:href="class_t_w_i.html#a3ed950888f040e24dc9dcb0ba65d17f1" target="_top" xlink:title="TWI::stop">
<polygon fill="none" stroke="black" points="122.5,-0.5 122.5,-19.5 182.5,-19.5 182.5,-0.5 122.5,-0.5"/>
<text text-anchor="middle" x="152.5" y="-7.5" font-family="Helvetica,sans-Serif" font-size="10.00">TWI::stop</text>
</a>
</g>
</g>
<!-- Node37&#45;&gt;Node43 -->
<g id="edge6" class="edge"><title>Node37&#45;&gt;Node43</title>
<path fill="none" stroke="midnightblue" d="M44.4548,-95.4405C56.2384,-79.7989 81.54,-48.5274 109,-29 111.346,-27.3314 113.863,-25.7592 116.457,-24.289"/>
<polygon fill="midnightblue" stroke="midnightblue" points="118.131,-27.3636 125.438,-19.6909 114.941,-21.1327 118.131,-27.3636"/>
</g>
</g>
</svg>
