<?xml version="1.0" encoding="UTF-8" standalone="no"?>
<!DOCTYPE svg PUBLIC "-//W3C//DTD SVG 1.1//EN"
 "http://www.w3.org/Graphics/SVG/1.1/DTD/svg11.dtd">
<!-- Generated by graphviz version 2.38.0 (20140413.2041)
 -->
<!-- Title: Power::print_config Pages: 1 -->
<svg width="631pt" height="104pt"
 viewBox="0.00 0.00 631.00 104.00" xmlns="http://www.w3.org/2000/svg" xmlns:xlink="http://www.w3.org/1999/xlink">
<g id="graph0" class="graph" transform="scale(1 1) rotate(0) translate(4 100)">
<title>Power::print_config</title>
<!-- Node45 -->
<g id="node1" class="node"><title>Node45</title>
<polygon fill="#bfbfbf" stroke="black" points="0,-38.5 0,-57.5 101,-57.5 101,-38.5 0,-38.5"/>
<text text-anchor="middle" x="50.5" y="-45.5" font-family="Helvetica,sans-Serif" font-size="10.00">Power::print_config</text>
</g>
<!-- Node46 -->
<g id="node2" class="node"><title>Node46</title>
<g id="a_node2"><a xlink:href="class_config.html#a975933ecde91dc436d4ca39464cfd25f" target="_top" xlink:title="display all config on USART0 ">
<polygon fill="none" stroke="black" points="151.5,-76.5 151.5,-95.5 233.5,-95.5 233.5,-76.5 151.5,-76.5"/>
<text text-anchor="middle" x="192.5" y="-83.5" font-family="Helvetica,sans-Serif" font-size="10.00">Config::display</text>
</a>
</g>
</g>
<!-- Node45&#45;&gt;Node46 -->
<g id="edge1" class="edge"><title>Node45&#45;&gt;Node46</title>
<path fill="none" stroke="midnightblue" d="M96.6176,-60.2462C115.915,-65.484 138.112,-71.5091 156.183,-76.4141"/>
<polygon fill="midnightblue" stroke="midnightblue" points="97.3956,-56.8308 86.8279,-57.589 95.5619,-63.5864 97.3956,-56.8308"/>
</g>
<!-- Node51 -->
<g id="node7" class="node"><title>Node51</title>
<g id="a_node7"><a xlink:href="class_power.html#a1e7595ee0b3b0439d979ffeab785d0d8" target="_top" xlink:title="Power::set_i_offset">
<polygon fill="none" stroke="black" points="142,-38.5 142,-57.5 243,-57.5 243,-38.5 142,-38.5"/>
<text text-anchor="middle" x="192.5" y="-45.5" font-family="Helvetica,sans-Serif" font-size="10.00">Power::set_i_offset</text>
</a>
</g>
</g>
<!-- Node45&#45;&gt;Node51 -->
<g id="edge6" class="edge"><title>Node45&#45;&gt;Node51</title>
<path fill="none" stroke="midnightblue" d="M111.32,-48C121.518,-48 132.011,-48 141.907,-48"/>
<polygon fill="midnightblue" stroke="midnightblue" points="111.253,-44.5001 101.253,-48 111.253,-51.5001 111.253,-44.5001"/>
</g>
<!-- Node52 -->
<g id="node8" class="node"><title>Node52</title>
<g id="a_node8"><a xlink:href="classpower_d_c.html#aedca6b1fc36cfddd8876fadb387debe1" target="_top" xlink:title="powerDC::~powerDC">
<polygon fill="none" stroke="black" points="137,-0.5 137,-19.5 248,-19.5 248,-0.5 137,-0.5"/>
<text text-anchor="middle" x="192.5" y="-7.5" font-family="Helvetica,sans-Serif" font-size="10.00">powerDC::~powerDC</text>
</a>
</g>
</g>
<!-- Node45&#45;&gt;Node52 -->
<g id="edge8" class="edge"><title>Node45&#45;&gt;Node52</title>
<path fill="none" stroke="midnightblue" d="M96.6176,-35.7538C115.915,-30.516 138.112,-24.4909 156.183,-19.5859"/>
<polygon fill="midnightblue" stroke="midnightblue" points="95.5619,-32.4136 86.8279,-38.411 97.3956,-39.1692 95.5619,-32.4136"/>
</g>
<!-- Node47 -->
<g id="node3" class="node"><title>Node47</title>
<g id="a_node3"><a xlink:href="class_config.html#a5ae6c4f7255e895e7384fc2a4baab160" target="_top" xlink:title="Config::endString">
<polygon fill="none" stroke="black" points="284,-76.5 284,-95.5 376,-95.5 376,-76.5 284,-76.5"/>
<text text-anchor="middle" x="330" y="-83.5" font-family="Helvetica,sans-Serif" font-size="10.00">Config::endString</text>
</a>
</g>
</g>
<!-- Node46&#45;&gt;Node47 -->
<g id="edge2" class="edge"><title>Node46&#45;&gt;Node47</title>
<path fill="none" stroke="midnightblue" d="M244.037,-86C257.114,-86 271.106,-86 283.885,-86"/>
<polygon fill="midnightblue" stroke="midnightblue" points="243.788,-82.5001 233.788,-86 243.788,-89.5001 243.788,-82.5001"/>
</g>
<!-- Node50 -->
<g id="node6" class="node"><title>Node50</title>
<g id="a_node6"><a xlink:href="class_config.html#a2a806f322b0d533aabdb8e796d3b1033" target="_top" xlink:title="The execute method is the config &quot;main function&quot; In this method, sentence from the uart are process e...">
<polygon fill="none" stroke="black" points="287,-38.5 287,-57.5 373,-57.5 373,-38.5 287,-38.5"/>
<text text-anchor="middle" x="330" y="-45.5" font-family="Helvetica,sans-Serif" font-size="10.00">Config::execute</text>
</a>
</g>
</g>
<!-- Node46&#45;&gt;Node50 -->
<g id="edge5" class="edge"><title>Node46&#45;&gt;Node50</title>
<path fill="none" stroke="midnightblue" d="M237.425,-73.6817C256.041,-68.4607 277.409,-62.4684 294.819,-57.5859"/>
<polygon fill="midnightblue" stroke="midnightblue" points="236.376,-70.3407 227.692,-76.411 238.266,-77.0807 236.376,-70.3407"/>
</g>
<!-- Node48 -->
<g id="node4" class="node"><title>Node48</title>
<g id="a_node4"><a xlink:href="class_f_s_m.html#a3819be8e9fe92b750f47b9731e92f254" target="_top" xlink:title="Call when a string from usart0 finish by &quot;\r\n&quot;. ">
<polygon fill="none" stroke="black" points="412,-76.5 412,-95.5 549,-95.5 549,-76.5 412,-76.5"/>
<text text-anchor="middle" x="480.5" y="-83.5" font-family="Helvetica,sans-Serif" font-size="10.00">FSM::character_processing</text>
</a>
</g>
</g>
<!-- Node47&#45;&gt;Node48 -->
<g id="edge3" class="edge"><title>Node47&#45;&gt;Node48</title>
<path fill="none" stroke="midnightblue" d="M386.633,-86C394.908,-86 403.513,-86 411.999,-86"/>
<polygon fill="midnightblue" stroke="midnightblue" points="386.362,-82.5001 376.362,-86 386.362,-89.5001 386.362,-82.5001"/>
</g>
<!-- Node49 -->
<g id="node5" class="node"><title>Node49</title>
<g id="a_node5"><a xlink:href="main_8cpp.html#ae66f6b31b5ad750f1fe042a706a4e3d4" target="_top" xlink:title="main">
<polygon fill="none" stroke="black" points="585,-76.5 585,-95.5 623,-95.5 623,-76.5 585,-76.5"/>
<text text-anchor="middle" x="604" y="-83.5" font-family="Helvetica,sans-Serif" font-size="10.00">main</text>
</a>
</g>
</g>
<!-- Node48&#45;&gt;Node49 -->
<g id="edge4" class="edge"><title>Node48&#45;&gt;Node49</title>
<path fill="none" stroke="midnightblue" d="M559.013,-86C568.457,-86 577.315,-86 584.572,-86"/>
<polygon fill="midnightblue" stroke="midnightblue" points="559.001,-82.5001 549.001,-86 559.001,-89.5001 559.001,-82.5001"/>
</g>
<!-- Node51&#45;&gt;Node50 -->
<g id="edge7" class="edge"><title>Node51&#45;&gt;Node50</title>
<path fill="none" stroke="midnightblue" d="M253.432,-48C264.718,-48 276.298,-48 286.896,-48"/>
<polygon fill="midnightblue" stroke="midnightblue" points="253.186,-44.5001 243.186,-48 253.186,-51.5001 253.186,-44.5001"/>
</g>
</g>
</svg>
