<?xml version="1.0" encoding="UTF-8" standalone="no"?>
<!DOCTYPE svg PUBLIC "-//W3C//DTD SVG 1.1//EN"
 "http://www.w3.org/Graphics/SVG/1.1/DTD/svg11.dtd">
<!-- Generated by graphviz version 2.38.0 (20140413.2041)
 -->
<!-- Title: Measure::execute Pages: 1 -->
<svg width="823pt" height="402pt"
 viewBox="0.00 0.00 823.00 401.99" xmlns="http://www.w3.org/2000/svg" xmlns:xlink="http://www.w3.org/1999/xlink">
<g id="graph0" class="graph" transform="scale(1 1) rotate(0) translate(4 397.987)">
<title>Measure::execute</title>
<!-- Node23 -->
<g id="node1" class="node"><title>Node23</title>
<polygon fill="#bfbfbf" stroke="black" points="0,-159.5 0,-178.5 95,-178.5 95,-159.5 0,-159.5"/>
<text text-anchor="middle" x="47.5" y="-166.5" font-family="Helvetica,sans-Serif" font-size="10.00">Measure::execute</text>
</g>
<!-- Node24 -->
<g id="node2" class="node"><title>Node24</title>
<g id="a_node2"><a xlink:href="class_measure.html#a1518672dff4f81603a35bff08c20e9f5" target="_top" xlink:title="calcul average from the data array ">
<polygon fill="none" stroke="black" points="137,-323.5 137,-342.5 255,-342.5 255,-323.5 137,-323.5"/>
<text text-anchor="middle" x="196" y="-330.5" font-family="Helvetica,sans-Serif" font-size="10.00">Measure::calc_average</text>
</a>
</g>
</g>
<!-- Node23&#45;&gt;Node24 -->
<g id="edge1" class="edge"><title>Node23&#45;&gt;Node24</title>
<path fill="none" stroke="midnightblue" d="M51.2498,-178.806C59.085,-204.924 84.0462,-276.721 131,-314 133.298,-315.824 135.767,-317.474 138.351,-318.965"/>
<polygon fill="midnightblue" stroke="midnightblue" points="136.978,-322.189 147.497,-323.449 140.059,-315.904 136.978,-322.189"/>
</g>
<!-- Node38 -->
<g id="node16" class="node"><title>Node38</title>
<g id="a_node16"><a xlink:href="class_measure.html#a333a5ff14469e98bed368fd3e268751f" target="_top" xlink:title="this method clear data value to save news ">
<polygon fill="none" stroke="black" points="143.5,-274 143.5,-304 248.5,-304 248.5,-274 143.5,-274"/>
<text text-anchor="start" x="151.5" y="-292" font-family="Helvetica,sans-Serif" font-size="10.00">Measure::clear_data</text>
<text text-anchor="middle" x="196" y="-281" font-family="Helvetica,sans-Serif" font-size="10.00">_array</text>
</a>
</g>
</g>
<!-- Node23&#45;&gt;Node38 -->
<g id="edge19" class="edge"><title>Node23&#45;&gt;Node38</title>
<path fill="none" stroke="midnightblue" d="M54.5784,-178.721C66.8451,-197.616 96.3639,-239.583 131,-264 133.681,-265.89 136.525,-267.663 139.465,-269.321"/>
<polygon fill="midnightblue" stroke="midnightblue" points="138.014,-272.51 148.51,-273.957 141.207,-266.281 138.014,-272.51"/>
</g>
<!-- Node39 -->
<g id="node17" class="node"><title>Node39</title>
<g id="a_node17"><a xlink:href="class_measure.html#adb3ffd40b37bda243c00893ffb208907" target="_top" xlink:title="this method initialize frequency measurement for anemometer and RPM ">
<polygon fill="none" stroke="black" points="148.5,-225 148.5,-255 243.5,-255 243.5,-225 148.5,-225"/>
<text text-anchor="start" x="156.5" y="-243" font-family="Helvetica,sans-Serif" font-size="10.00">Measure::freq_init</text>
<text text-anchor="middle" x="196" y="-232" font-family="Helvetica,sans-Serif" font-size="10.00">_measurement</text>
</a>
</g>
</g>
<!-- Node23&#45;&gt;Node39 -->
<g id="edge20" class="edge"><title>Node23&#45;&gt;Node39</title>
<path fill="none" stroke="midnightblue" d="M64.285,-178.651C80.6447,-188.45 107.118,-203.742 131,-215 135.356,-217.054 139.931,-219.081 144.546,-221.04"/>
<polygon fill="midnightblue" stroke="midnightblue" points="143.44,-224.37 154.019,-224.951 146.111,-217.9 143.44,-224.37"/>
</g>
<!-- Node41 -->
<g id="node19" class="node"><title>Node41</title>
<g id="a_node19"><a xlink:href="class_measure.html#a4390d770b19dbc51e5486fefe9f4b9d1" target="_top" xlink:title="read value from anemometer and RPM ">
<polygon fill="none" stroke="black" points="145.5,-176 145.5,-206 246.5,-206 246.5,-176 145.5,-176"/>
<text text-anchor="start" x="153.5" y="-194" font-family="Helvetica,sans-Serif" font-size="10.00">Measure::freq_read</text>
<text text-anchor="middle" x="196" y="-183" font-family="Helvetica,sans-Serif" font-size="10.00">_value</text>
</a>
</g>
</g>
<!-- Node23&#45;&gt;Node41 -->
<g id="edge22" class="edge"><title>Node23&#45;&gt;Node41</title>
<path fill="none" stroke="midnightblue" d="M95.2563,-176.021C108.002,-177.935 121.984,-180.035 135.341,-182.041"/>
<polygon fill="midnightblue" stroke="midnightblue" points="134.994,-185.528 145.403,-183.552 136.033,-178.606 134.994,-185.528"/>
</g>
<!-- Node43 -->
<g id="node21" class="node"><title>Node43</title>
<g id="a_node21"><a xlink:href="class_r_t_c.html#ad0c4545ccad338b30faab6a125833843" target="_top" xlink:title="RTC::get_timestamp">
<polygon fill="none" stroke="black" points="142,-137.5 142,-156.5 250,-156.5 250,-137.5 142,-137.5"/>
<text text-anchor="middle" x="196" y="-144.5" font-family="Helvetica,sans-Serif" font-size="10.00">RTC::get_timestamp</text>
</a>
</g>
</g>
<!-- Node23&#45;&gt;Node43 -->
<g id="edge25" class="edge"><title>Node23&#45;&gt;Node43</title>
<path fill="none" stroke="midnightblue" d="M95.2563,-161.979C106.836,-160.24 119.436,-158.347 131.661,-156.512"/>
<polygon fill="midnightblue" stroke="midnightblue" points="132.442,-159.934 141.812,-154.987 131.403,-153.011 132.442,-159.934"/>
</g>
<!-- Node46 -->
<g id="node24" class="node"><title>Node46</title>
<g id="a_node24"><a xlink:href="class_measure.html#a313b5845f14f7c62f37db11272145320" target="_top" xlink:title="read power value &#45; not define realy (see emonLib) ">
<polygon fill="none" stroke="black" points="141,-88 141,-118 251,-118 251,-88 141,-88"/>
<text text-anchor="start" x="149" y="-106" font-family="Helvetica,sans-Serif" font-size="10.00">Measure::power_read</text>
<text text-anchor="middle" x="196" y="-95" font-family="Helvetica,sans-Serif" font-size="10.00">_value</text>
</a>
</g>
</g>
<!-- Node23&#45;&gt;Node46 -->
<g id="edge28" class="edge"><title>Node23&#45;&gt;Node46</title>
<path fill="none" stroke="midnightblue" d="M66.6281,-159.409C83.1977,-150.783 108.478,-137.972 131,-128 135.653,-125.94 140.532,-123.872 145.433,-121.857"/>
<polygon fill="midnightblue" stroke="midnightblue" points="146.869,-125.052 154.83,-118.061 144.247,-118.561 146.869,-125.052"/>
</g>
<!-- Node48 -->
<g id="node26" class="node"><title>Node48</title>
<g id="a_node26"><a xlink:href="class_measure.html#ae3c562d3b11c5e202366597b951e969b" target="_top" xlink:title="read the temperature value from one DS18b20 sensor ">
<polygon fill="none" stroke="black" points="140,-39 140,-69 252,-69 252,-39 140,-39"/>
<text text-anchor="start" x="148" y="-57" font-family="Helvetica,sans-Serif" font-size="10.00">Measure::temperature</text>
<text text-anchor="middle" x="196" y="-46" font-family="Helvetica,sans-Serif" font-size="10.00">_read_value</text>
</a>
</g>
</g>
<!-- Node23&#45;&gt;Node48 -->
<g id="edge30" class="edge"><title>Node23&#45;&gt;Node48</title>
<path fill="none" stroke="midnightblue" d="M54.844,-159.38C67.3512,-141.102 96.9522,-101.122 131,-78 133.147,-76.5417 135.395,-75.1573 137.71,-73.845"/>
<polygon fill="midnightblue" stroke="midnightblue" points="139.6,-76.8094 146.906,-69.1358 136.41,-70.579 139.6,-76.8094"/>
</g>
<!-- Node49 -->
<g id="node27" class="node"><title>Node49</title>
<g id="a_node27"><a xlink:href="class_measure.html#add6924662bc09f06abc3ec7b6dc2c94e" target="_top" xlink:title="read the windvane value en map it between 0 to 359 degres ">
<polygon fill="none" stroke="black" points="131,-0.5 131,-19.5 261,-19.5 261,-0.5 131,-0.5"/>
<text text-anchor="middle" x="196" y="-7.5" font-family="Helvetica,sans-Serif" font-size="10.00">Measure::windvane_value</text>
</a>
</g>
</g>
<!-- Node23&#45;&gt;Node49 -->
<g id="edge31" class="edge"><title>Node23&#45;&gt;Node49</title>
<path fill="none" stroke="midnightblue" d="M51.4719,-159.16C59.6933,-133.633 85.2114,-64.7898 131,-29 133.311,-27.1933 135.792,-25.5581 138.384,-24.0781"/>
<polygon fill="midnightblue" stroke="midnightblue" points="140.089,-27.1411 147.552,-19.621 137.029,-20.8456 140.089,-27.1411"/>
</g>
<!-- Node25 -->
<g id="node3" class="node"><title>Node25</title>
<g id="a_node3"><a xlink:href="class_power.html#a09a87034c397af2cfb7289fe1fbe5830" target="_top" xlink:title="This method calculate the mean RMS voltage, mean RMS current, active power, apparent power and power ...">
<polygon fill="none" stroke="black" points="318,-323.5 318,-342.5 401,-342.5 401,-323.5 318,-323.5"/>
<text text-anchor="middle" x="359.5" y="-330.5" font-family="Helvetica,sans-Serif" font-size="10.00">Power::calc_all</text>
</a>
</g>
</g>
<!-- Node24&#45;&gt;Node25 -->
<g id="edge2" class="edge"><title>Node24&#45;&gt;Node25</title>
<path fill="none" stroke="midnightblue" d="M255.305,-333C272.514,-333 291.201,-333 307.884,-333"/>
<polygon fill="midnightblue" stroke="midnightblue" points="307.981,-336.5 317.981,-333 307.981,-329.5 307.981,-336.5"/>
</g>
<!-- Node26 -->
<g id="node4" class="node"><title>Node26</title>
<g id="a_node4"><a xlink:href="class_sensor.html#ae16fd0cbdda6cfed1deac36f5c7c0a8f" target="_top" xlink:title="This method calculate the average from the data array. ">
<polygon fill="none" stroke="black" points="304,-276.5 304,-295.5 415,-295.5 415,-276.5 304,-276.5"/>
<text text-anchor="middle" x="359.5" y="-283.5" font-family="Helvetica,sans-Serif" font-size="10.00">Sensor::calc_average</text>
</a>
</g>
</g>
<!-- Node24&#45;&gt;Node26 -->
<g id="edge3" class="edge"><title>Node24&#45;&gt;Node26</title>
<path fill="none" stroke="midnightblue" d="M229.682,-323.489C254.446,-316.282 288.692,-306.316 315.65,-298.47"/>
<polygon fill="midnightblue" stroke="midnightblue" points="316.966,-301.732 325.59,-295.578 315.01,-295.011 316.966,-301.732"/>
</g>
<!-- Node27 -->
<g id="node5" class="node"><title>Node27</title>
<g id="a_node5"><a xlink:href="class_sensor.html#a4e88d49608387ab4f65734913e514109" target="_top" xlink:title="Sensor::is_enable">
<polygon fill="none" stroke="black" points="459.5,-276.5 459.5,-295.5 554.5,-295.5 554.5,-276.5 459.5,-276.5"/>
<text text-anchor="middle" x="507" y="-283.5" font-family="Helvetica,sans-Serif" font-size="10.00">Sensor::is_enable</text>
</a>
</g>
</g>
<!-- Node26&#45;&gt;Node27 -->
<g id="edge4" class="edge"><title>Node26&#45;&gt;Node27</title>
<path fill="none" stroke="midnightblue" d="M415.093,-279.44C426.206,-279.203 437.922,-279.188 449.113,-279.395"/>
<polygon fill="midnightblue" stroke="midnightblue" points="449.125,-282.896 459.209,-279.647 449.3,-275.898 449.125,-282.896"/>
</g>
<!-- Node27&#45;&gt;Node26 -->
<g id="edge10" class="edge"><title>Node27&#45;&gt;Node26</title>
<path fill="none" stroke="midnightblue" d="M459.209,-292.353C448.447,-292.696 436.812,-292.817 425.436,-292.715"/>
<polygon fill="midnightblue" stroke="midnightblue" points="425.144,-289.211 415.093,-292.56 425.039,-296.21 425.144,-289.211"/>
</g>
<!-- Node28 -->
<g id="node6" class="node"><title>Node28</title>
<g id="a_node6"><a xlink:href="class_sensor.html#a9478b09a17b24105c0fe5b32e988224a" target="_top" xlink:title="Sensor::print">
<polygon fill="none" stroke="black" points="743,-334.5 743,-353.5 815,-353.5 815,-334.5 743,-334.5"/>
<text text-anchor="middle" x="779" y="-341.5" font-family="Helvetica,sans-Serif" font-size="10.00">Sensor::print</text>
</a>
</g>
</g>
<!-- Node27&#45;&gt;Node28 -->
<g id="edge5" class="edge"><title>Node27&#45;&gt;Node28</title>
<path fill="none" stroke="midnightblue" d="M512.862,-295.662C523.743,-316.055 552.258,-363.091 592,-381 638.598,-401.999 657.356,-393.159 707,-381 724.441,-376.728 742.36,-367.345 755.833,-359.098"/>
<polygon fill="midnightblue" stroke="midnightblue" points="757.837,-361.971 764.39,-353.646 754.076,-356.068 757.837,-361.971"/>
</g>
<!-- Node29 -->
<g id="node7" class="node"><title>Node29</title>
<g id="a_node7"><a xlink:href="class_sensor.html#a59e815290b2883cea096c8bc613429c0" target="_top" xlink:title="Sensor::read_value">
<polygon fill="none" stroke="black" points="599,-352.5 599,-371.5 700,-371.5 700,-352.5 599,-352.5"/>
<text text-anchor="middle" x="649.5" y="-359.5" font-family="Helvetica,sans-Serif" font-size="10.00">Sensor::read_value</text>
</a>
</g>
</g>
<!-- Node27&#45;&gt;Node29 -->
<g id="edge6" class="edge"><title>Node27&#45;&gt;Node29</title>
<path fill="none" stroke="midnightblue" d="M519.878,-295.605C535.594,-307.941 564.526,-329.378 592,-343 596.294,-345.129 600.883,-347.11 605.521,-348.926"/>
<polygon fill="midnightblue" stroke="midnightblue" points="604.435,-352.255 615.028,-352.417 606.848,-345.684 604.435,-352.255"/>
</g>
<!-- Node30 -->
<g id="node8" class="node"><title>Node30</title>
<g id="a_node8"><a xlink:href="class_sensor.html#a0e1288d8b8594192f9d65819c185764f" target="_top" xlink:title="This method print the sensor configuration for the sensor. It&#39;s a good idea to overload this function...">
<polygon fill="none" stroke="black" points="597.5,-314.5 597.5,-333.5 701.5,-333.5 701.5,-314.5 597.5,-314.5"/>
<text text-anchor="middle" x="649.5" y="-321.5" font-family="Helvetica,sans-Serif" font-size="10.00">Sensor::print_config</text>
</a>
</g>
</g>
<!-- Node27&#45;&gt;Node30 -->
<g id="edge7" class="edge"><title>Node27&#45;&gt;Node30</title>
<path fill="none" stroke="midnightblue" d="M543.454,-295.589C561.591,-300.494 583.868,-306.52 603.233,-311.757"/>
<polygon fill="midnightblue" stroke="midnightblue" points="602.49,-315.182 613.057,-314.414 604.318,-308.425 602.49,-315.182"/>
</g>
<!-- Node32 -->
<g id="node10" class="node"><title>Node32</title>
<g id="a_node10"><a xlink:href="class_sensor.html#a38a47820684e5ff0f61ad32b8afbde45" target="_top" xlink:title="The print_average method print the average&#39;s value in the string. ">
<polygon fill="none" stroke="black" points="593.5,-276.5 593.5,-295.5 705.5,-295.5 705.5,-276.5 593.5,-276.5"/>
<text text-anchor="middle" x="649.5" y="-283.5" font-family="Helvetica,sans-Serif" font-size="10.00">Sensor::print_average</text>
</a>
</g>
</g>
<!-- Node27&#45;&gt;Node32 -->
<g id="edge11" class="edge"><title>Node27&#45;&gt;Node32</title>
<path fill="none" stroke="midnightblue" d="M554.784,-279.596C563.812,-279.32 573.425,-279.209 582.922,-279.263"/>
<polygon fill="midnightblue" stroke="midnightblue" points="583.109,-282.766 593.15,-279.387 583.193,-275.766 583.109,-282.766"/>
</g>
<!-- Node33 -->
<g id="node11" class="node"><title>Node33</title>
<g id="a_node11"><a xlink:href="class_sensor.html#aa03d707dfa7562805b77f9040831418b" target="_top" xlink:title="Sensor::print_data\l_array">
<polygon fill="none" stroke="black" points="601.5,-227 601.5,-257 697.5,-257 697.5,-227 601.5,-227"/>
<text text-anchor="start" x="609.5" y="-245" font-family="Helvetica,sans-Serif" font-size="10.00">Sensor::print_data</text>
<text text-anchor="middle" x="649.5" y="-234" font-family="Helvetica,sans-Serif" font-size="10.00">_array</text>
</a>
</g>
</g>
<!-- Node27&#45;&gt;Node33 -->
<g id="edge13" class="edge"><title>Node27&#45;&gt;Node33</title>
<path fill="none" stroke="midnightblue" d="M538.486,-276.453C554.084,-271.568 573.582,-265.462 591.813,-259.753"/>
<polygon fill="midnightblue" stroke="midnightblue" points="592.993,-263.051 601.49,-256.722 590.901,-256.371 592.993,-263.051"/>
</g>
<!-- Node35 -->
<g id="node13" class="node"><title>Node35</title>
<g id="a_node13"><a xlink:href="class_sensor.html#a953410c8a76c3b718349000a11e6160e" target="_top" xlink:title="Load saved parameters for sensors from the eeprom. ">
<polygon fill="none" stroke="black" points="597.5,-188.5 597.5,-207.5 701.5,-207.5 701.5,-188.5 597.5,-188.5"/>
<text text-anchor="middle" x="649.5" y="-195.5" font-family="Helvetica,sans-Serif" font-size="10.00">Sensor::load_param</text>
</a>
</g>
</g>
<!-- Node27&#45;&gt;Node35 -->
<g id="edge16" class="edge"><title>Node27&#45;&gt;Node35</title>
<path fill="none" stroke="midnightblue" d="M517.468,-276.21C532.175,-261.5 561.957,-233.649 592,-217 595.768,-214.912 599.804,-213.001 603.922,-211.264"/>
<polygon fill="midnightblue" stroke="midnightblue" points="605.525,-214.397 613.59,-207.527 603.001,-207.867 605.525,-214.397"/>
</g>
<!-- Node36 -->
<g id="node14" class="node"><title>Node36</title>
<g id="a_node14"><a xlink:href="class_sensor.html#abf05dcc164ceadf01fa48c32fbaf040a" target="_top" xlink:title="Update saved parameters for sensors in the eeprom. ">
<polygon fill="none" stroke="black" points="592,-150.5 592,-169.5 707,-169.5 707,-150.5 592,-150.5"/>
<text text-anchor="middle" x="649.5" y="-157.5" font-family="Helvetica,sans-Serif" font-size="10.00">Sensor::update_param</text>
</a>
</g>
</g>
<!-- Node27&#45;&gt;Node36 -->
<g id="edge17" class="edge"><title>Node27&#45;&gt;Node36</title>
<path fill="none" stroke="midnightblue" d="M512.929,-276.48C524.146,-255.728 553.609,-206.109 592,-179 594.705,-177.09 597.617,-175.36 600.641,-173.796"/>
<polygon fill="midnightblue" stroke="midnightblue" points="602.288,-176.893 609.958,-169.584 599.404,-170.514 602.288,-176.893"/>
</g>
<!-- Node37 -->
<g id="node15" class="node"><title>Node37</title>
<g id="a_node15"><a xlink:href="class_sensor.html#a4a9eb446ca4c73268ec6d93b959273f9" target="_top" xlink:title="Initialize the eeprom memory. ">
<polygon fill="none" stroke="black" points="605,-101 605,-131 694,-131 694,-101 605,-101"/>
<text text-anchor="start" x="613" y="-119" font-family="Helvetica,sans-Serif" font-size="10.00">Sensor::initialize</text>
<text text-anchor="middle" x="649.5" y="-108" font-family="Helvetica,sans-Serif" font-size="10.00">_param</text>
</a>
</g>
</g>
<!-- Node27&#45;&gt;Node37 -->
<g id="edge18" class="edge"><title>Node27&#45;&gt;Node37</title>
<path fill="none" stroke="midnightblue" d="M511.256,-276.146C520.181,-250.523 547.387,-181.018 592,-141 593.719,-139.458 595.549,-137.998 597.458,-136.618"/>
<polygon fill="midnightblue" stroke="midnightblue" points="599.66,-139.368 606.245,-131.068 595.922,-133.449 599.66,-139.368"/>
</g>
<!-- Node30&#45;&gt;Node28 -->
<g id="edge9" class="edge"><title>Node30&#45;&gt;Node28</title>
<path fill="none" stroke="midnightblue" d="M701.624,-332.02C712.017,-333.65 722.875,-335.353 733.034,-336.947"/>
<polygon fill="midnightblue" stroke="midnightblue" points="732.496,-340.405 742.918,-338.497 733.581,-333.489 732.496,-340.405"/>
</g>
<!-- Node31 -->
<g id="node9" class="node"><title>Node31</title>
<g id="a_node9"><a xlink:href="class_usart.html#ab236d7c399791bbe1431f85e9b60f601" target="_top" xlink:title="USART string sender function. ">
<polygon fill="none" stroke="black" points="746.5,-293.5 746.5,-312.5 811.5,-312.5 811.5,-293.5 746.5,-293.5"/>
<text text-anchor="middle" x="779" y="-300.5" font-family="Helvetica,sans-Serif" font-size="10.00">Usart::print</text>
</a>
</g>
</g>
<!-- Node30&#45;&gt;Node31 -->
<g id="edge8" class="edge"><title>Node30&#45;&gt;Node31</title>
<path fill="none" stroke="midnightblue" d="M701.624,-315.579C713.188,-313.675 725.328,-311.675 736.441,-309.845"/>
<polygon fill="midnightblue" stroke="midnightblue" points="737.013,-313.298 746.312,-308.219 735.876,-306.391 737.013,-313.298"/>
</g>
<!-- Node32&#45;&gt;Node27 -->
<g id="edge12" class="edge"><title>Node32&#45;&gt;Node27</title>
<path fill="none" stroke="midnightblue" d="M593.15,-292.613C583.926,-292.785 574.342,-292.795 565.076,-292.643"/>
<polygon fill="midnightblue" stroke="midnightblue" points="564.863,-289.138 554.784,-292.404 564.7,-296.136 564.863,-289.138"/>
</g>
<!-- Node33&#45;&gt;Node31 -->
<g id="edge14" class="edge"><title>Node33&#45;&gt;Node31</title>
<path fill="none" stroke="midnightblue" d="M685.292,-257.05C692.5,-260.264 700.022,-263.69 707,-267 721.569,-273.911 737.607,-282.001 750.748,-288.759"/>
<polygon fill="midnightblue" stroke="midnightblue" points="749.252,-291.926 759.743,-293.409 752.467,-285.707 749.252,-291.926"/>
</g>
<!-- Node34 -->
<g id="node12" class="node"><title>Node34</title>
<g id="a_node12"><a xlink:href="class_usart.html#a86c9264f48dabbc3d97fa32d2d02d22d" target="_top" xlink:title="USART char sender function. ">
<polygon fill="none" stroke="black" points="749,-232.5 749,-251.5 809,-251.5 809,-232.5 749,-232.5"/>
<text text-anchor="middle" x="779" y="-239.5" font-family="Helvetica,sans-Serif" font-size="10.00">Usart::set</text>
</a>
</g>
</g>
<!-- Node33&#45;&gt;Node34 -->
<g id="edge15" class="edge"><title>Node33&#45;&gt;Node34</title>
<path fill="none" stroke="midnightblue" d="M697.614,-242C711.16,-242 725.783,-242 738.796,-242"/>
<polygon fill="midnightblue" stroke="midnightblue" points="738.835,-245.5 748.835,-242 738.835,-238.5 738.835,-245.5"/>
</g>
<!-- Node40 -->
<g id="node18" class="node"><title>Node40</title>
<g id="a_node18"><a xlink:href="class_anemometer.html#a142b28b2f221433f1fefd7f26b4a40c1" target="_top" xlink:title="Anemometer::start">
<polygon fill="none" stroke="black" points="310.5,-230.5 310.5,-249.5 408.5,-249.5 408.5,-230.5 310.5,-230.5"/>
<text text-anchor="middle" x="359.5" y="-237.5" font-family="Helvetica,sans-Serif" font-size="10.00">Anemometer::start</text>
</a>
</g>
</g>
<!-- Node39&#45;&gt;Node40 -->
<g id="edge21" class="edge"><title>Node39&#45;&gt;Node40</title>
<path fill="none" stroke="midnightblue" d="M243.712,-240C261.398,-240 281.75,-240 300.359,-240"/>
<polygon fill="midnightblue" stroke="midnightblue" points="300.491,-243.5 310.49,-240 300.49,-236.5 300.491,-243.5"/>
</g>
<!-- Node42 -->
<g id="node20" class="node"><title>Node42</title>
<g id="a_node20"><a xlink:href="class_anemometer.html#a9be3b4b392ef08ef29c769e6ce4bebf4" target="_top" xlink:title="Anemometer::read_value">
<polygon fill="none" stroke="black" points="297,-187.5 297,-206.5 422,-206.5 422,-187.5 297,-187.5"/>
<text text-anchor="middle" x="359.5" y="-194.5" font-family="Helvetica,sans-Serif" font-size="10.00">Anemometer::read_value</text>
</a>
</g>
</g>
<!-- Node41&#45;&gt;Node42 -->
<g id="edge23" class="edge"><title>Node41&#45;&gt;Node42</title>
<path fill="none" stroke="midnightblue" d="M246.773,-192.849C259.402,-193.318 273.223,-193.832 286.707,-194.333"/>
<polygon fill="midnightblue" stroke="midnightblue" points="286.803,-197.839 296.926,-194.712 287.063,-190.843 286.803,-197.839"/>
</g>
<!-- Node42&#45;&gt;Node27 -->
<g id="edge24" class="edge"><title>Node42&#45;&gt;Node27</title>
<path fill="none" stroke="midnightblue" d="M390.069,-206.582C400.461,-210.454 412.027,-215.352 422,-221 446.457,-234.852 471.57,-255.253 487.887,-269.493"/>
<polygon fill="midnightblue" stroke="midnightblue" points="485.766,-272.29 495.568,-276.311 490.413,-267.055 485.766,-272.29"/>
</g>
<!-- Node44 -->
<g id="node22" class="node"><title>Node44</title>
<g id="a_node22"><a xlink:href="class_r_t_c.html#a20900a7f5bd95b1928bf2d08a0de687c" target="_top" xlink:title="RTC::time_to_epoch">
<polygon fill="none" stroke="black" points="306,-137.5 306,-156.5 413,-156.5 413,-137.5 306,-137.5"/>
<text text-anchor="middle" x="359.5" y="-144.5" font-family="Helvetica,sans-Serif" font-size="10.00">RTC::time_to_epoch</text>
</a>
</g>
</g>
<!-- Node43&#45;&gt;Node44 -->
<g id="edge26" class="edge"><title>Node43&#45;&gt;Node44</title>
<path fill="none" stroke="midnightblue" d="M250.329,-147C264.811,-147 280.628,-147 295.586,-147"/>
<polygon fill="midnightblue" stroke="midnightblue" points="295.778,-150.5 305.778,-147 295.778,-143.5 295.778,-150.5"/>
</g>
<!-- Node45 -->
<g id="node23" class="node"><title>Node45</title>
<g id="a_node23"><a xlink:href="class_r_t_c.html#ae36ee3d564befce64eff1e8f610cb6d6" target="_top" xlink:title="RTC::is_leap_year">
<polygon fill="none" stroke="black" points="458,-137.5 458,-156.5 556,-156.5 556,-137.5 458,-137.5"/>
<text text-anchor="middle" x="507" y="-144.5" font-family="Helvetica,sans-Serif" font-size="10.00">RTC::is_leap_year</text>
</a>
</g>
</g>
<!-- Node44&#45;&gt;Node45 -->
<g id="edge27" class="edge"><title>Node44&#45;&gt;Node45</title>
<path fill="none" stroke="midnightblue" d="M413.029,-147C424.247,-147 436.161,-147 447.585,-147"/>
<polygon fill="midnightblue" stroke="midnightblue" points="447.904,-150.5 457.904,-147 447.904,-143.5 447.904,-150.5"/>
</g>
<!-- Node47 -->
<g id="node25" class="node"><title>Node47</title>
<g id="a_node25"><a xlink:href="class_power.html#a50f94a7bfd7a6d2aff52d4ed003c2cd6" target="_top" xlink:title="Power::read_dc_value">
<polygon fill="none" stroke="black" points="303,-93.5 303,-112.5 416,-112.5 416,-93.5 303,-93.5"/>
<text text-anchor="middle" x="359.5" y="-100.5" font-family="Helvetica,sans-Serif" font-size="10.00">Power::read_dc_value</text>
</a>
</g>
</g>
<!-- Node46&#45;&gt;Node47 -->
<g id="edge29" class="edge"><title>Node46&#45;&gt;Node47</title>
<path fill="none" stroke="midnightblue" d="M251.226,-103C264.443,-103 278.727,-103 292.427,-103"/>
<polygon fill="midnightblue" stroke="midnightblue" points="292.763,-106.5 302.763,-103 292.763,-99.5001 292.763,-106.5"/>
</g>
<!-- Node50 -->
<g id="node28" class="node"><title>Node50</title>
<g id="a_node28"><a xlink:href="class_windvane.html#ae61d5d71151e53c900b2f10b5f7a9d67" target="_top" xlink:title="Windvane::read_value">
<polygon fill="none" stroke="black" points="303,-0.5 303,-19.5 416,-19.5 416,-0.5 303,-0.5"/>
<text text-anchor="middle" x="359.5" y="-7.5" font-family="Helvetica,sans-Serif" font-size="10.00">Windvane::read_value</text>
</a>
</g>
</g>
<!-- Node49&#45;&gt;Node50 -->
<g id="edge32" class="edge"><title>Node49&#45;&gt;Node50</title>
<path fill="none" stroke="midnightblue" d="M261.293,-10C271.585,-10 282.249,-10 292.578,-10"/>
<polygon fill="midnightblue" stroke="midnightblue" points="292.769,-13.5001 302.769,-10 292.769,-6.5001 292.769,-13.5001"/>
</g>
<!-- Node51 -->
<g id="node29" class="node"><title>Node51</title>
<g id="a_node29"><a xlink:href="class_sensor.html#ad46f537d694b7cd559a46fd187574164" target="_top" xlink:title="This method read return int value from the ADC channel. ">
<polygon fill="none" stroke="black" points="458,-0.5 458,-19.5 556,-19.5 556,-0.5 458,-0.5"/>
<text text-anchor="middle" x="507" y="-7.5" font-family="Helvetica,sans-Serif" font-size="10.00">Sensor::adc_value</text>
</a>
</g>
</g>
<!-- Node50&#45;&gt;Node51 -->
<g id="edge33" class="edge"><title>Node50&#45;&gt;Node51</title>
<path fill="none" stroke="midnightblue" d="M416.338,-10C426.556,-10 437.245,-10 447.537,-10"/>
<polygon fill="midnightblue" stroke="midnightblue" points="447.664,-13.5001 457.664,-10 447.664,-6.5001 447.664,-13.5001"/>
</g>
</g>
</svg>
