<?xml version="1.0" encoding="UTF-8" standalone="no"?>
<!DOCTYPE svg PUBLIC "-//W3C//DTD SVG 1.1//EN"
 "http://www.w3.org/Graphics/SVG/1.1/DTD/svg11.dtd">
<!-- Generated by graphviz version 2.38.0 (20140413.2041)
 -->
<!-- Title: FSM Pages: 1 -->
<!--zoomable 606 -->
<svg id="main" version="1.1" xmlns="http://www.w3.org/2000/svg" xmlns:xlink="http://www.w3.org/1999/xlink" xml:space="preserve" onload="init(evt)">
<style type="text/css"><![CDATA[
.edge:hover path { stroke: red; }
.edge:hover polygon { stroke: red; fill: red; }
]]></style>
<script type="text/javascript"><![CDATA[
var edges = document.getElementsByTagName('g');
if (edges && edges.length) {
  for (var i=0;i<edges.length;i++) {
    if (edges[i].id.substr(0,4)=='edge') {
      edges[i].setAttribute('class','edge');
    }
  }
}
]]></script>
        <defs>
                <circle id="rim" cx="0" cy="0" r="7"/>
                <circle id="rim2" cx="0" cy="0" r="3.5"/>
                <g id="zoomPlus">
                        <use xlink:href="#rim" fill="#404040">
                                <set attributeName="fill" to="#808080" begin="zoomplus.mouseover" end="zoomplus.mouseout"/>
                        </use>
                        <path d="M-4,0h8M0,-4v8" fill="none" stroke="white" stroke-width="1.5" pointer-events="none"/>
                </g>
                <g id="zoomMin">
                        <use xlink:href="#rim" fill="#404040">
                                <set attributeName="fill" to="#808080" begin="zoomminus.mouseover" end="zoomminus.mouseout"/>
                        </use>
                        <path d="M-4,0h8" fill="none" stroke="white" stroke-width="1.5" pointer-events="none"/>
                </g>
                <g id="dirArrow">
                        <path fill="none" stroke="white" stroke-width="1.5" d="M0,-3.0v7 M-2.5,-0.5L0,-3.0L2.5,-0.5"/>
                </g>
               <g id="resetDef">
                       <use xlink:href="#rim2" fill="#404040">
                               <set attributeName="fill" to="#808080" begin="reset.mouseover" end="reset.mouseout"/>
                       </use>
               </g>
        </defs>

<script type="text/javascript">
var viewWidth = 867;
var viewHeight = 606;
var sectionId = 'dynsection-0';
</script>
<script xlink:href="svgpan.js"/>
<svg id="graph" class="graph">
<g id="viewport">
<title>FSM</title>
<!-- Node0 -->
<g id="node1" class="node"><title>Node0</title>
<polygon fill="#bfbfbf" stroke="black" points="317.5,-0.5 317.5,-167.5 442.5,-167.5 442.5,-0.5 317.5,-0.5"/>
<text text-anchor="middle" x="380" y="-155.5" font-family="Helvetica,sans-Serif" font-size="10.00">FSM</text>
<polyline fill="none" stroke="black" points="317.5,-148.5 442.5,-148.5 "/>
<text text-anchor="start" x="325.5" y="-136.5" font-family="Helvetica,sans-Serif" font-size="10.00">+ flag_new_measure</text>
<text text-anchor="start" x="325.5" y="-125.5" font-family="Helvetica,sans-Serif" font-size="10.00">+ flag_data_averages</text>
<text text-anchor="start" x="325.5" y="-114.5" font-family="Helvetica,sans-Serif" font-size="10.00">_ready</text>
<text text-anchor="start" x="325.5" y="-103.5" font-family="Helvetica,sans-Serif" font-size="10.00">+ flag_config_request</text>
<text text-anchor="start" x="325.5" y="-92.5" font-family="Helvetica,sans-Serif" font-size="10.00">+ timestamp</text>
<text text-anchor="start" x="325.5" y="-81.5" font-family="Helvetica,sans-Serif" font-size="10.00">&#45; second_counter</text>
<polyline fill="none" stroke="black" points="317.5,-74.5 442.5,-74.5 "/>
<text text-anchor="start" x="325.5" y="-62.5" font-family="Helvetica,sans-Serif" font-size="10.00">+ FSM()</text>
<text text-anchor="start" x="325.5" y="-51.5" font-family="Helvetica,sans-Serif" font-size="10.00">+ new_State_definition()</text>
<text text-anchor="start" x="325.5" y="-40.5" font-family="Helvetica,sans-Serif" font-size="10.00">+ measurement_timing</text>
<text text-anchor="start" x="325.5" y="-29.5" font-family="Helvetica,sans-Serif" font-size="10.00">_control()</text>
<text text-anchor="start" x="325.5" y="-18.5" font-family="Helvetica,sans-Serif" font-size="10.00">+ execute()</text>
<text text-anchor="start" x="325.5" y="-7.5" font-family="Helvetica,sans-Serif" font-size="10.00">+ character_processing()</text>
</g>
<!-- Node1 -->
<g id="node2" class="node"><title>Node1</title>
<g id="a_node2"><a xlink:href="class_config.html" target="_top" xlink:title="The class Config inherits from the class State. This class manage input between the FSM...">
<polygon fill="none" stroke="black" points="2,-215.5 2,-404.5 106,-404.5 106,-215.5 2,-215.5"/>
<text text-anchor="middle" x="54" y="-392.5" font-family="Helvetica,sans-Serif" font-size="10.00">Config</text>
<polyline fill="none" stroke="black" points="2,-385.5 106,-385.5 "/>
<text text-anchor="start" x="10" y="-373.5" font-family="Helvetica,sans-Serif" font-size="10.00">&#45; request</text>
<text text-anchor="start" x="10" y="-362.5" font-family="Helvetica,sans-Serif" font-size="10.00">&#45; request_i</text>
<polyline fill="none" stroke="black" points="2,-355.5 106,-355.5 "/>
<text text-anchor="start" x="10" y="-343.5" font-family="Helvetica,sans-Serif" font-size="10.00">+ Config()</text>
<text text-anchor="start" x="10" y="-332.5" font-family="Helvetica,sans-Serif" font-size="10.00">+ ~Config()</text>
<text text-anchor="start" x="10" y="-321.5" font-family="Helvetica,sans-Serif" font-size="10.00">+ execute()</text>
<text text-anchor="start" x="10" y="-310.5" font-family="Helvetica,sans-Serif" font-size="10.00">+ print()</text>
<text text-anchor="start" x="10" y="-299.5" font-family="Helvetica,sans-Serif" font-size="10.00">+ backspace()</text>
<text text-anchor="start" x="10" y="-288.5" font-family="Helvetica,sans-Serif" font-size="10.00">+ endString()</text>
<text text-anchor="start" x="10" y="-277.5" font-family="Helvetica,sans-Serif" font-size="10.00">+ display()</text>
<text text-anchor="start" x="10" y="-266.5" font-family="Helvetica,sans-Serif" font-size="10.00">+ addToRequest()</text>
<text text-anchor="start" x="10" y="-255.5" font-family="Helvetica,sans-Serif" font-size="10.00">+ atoc()</text>
<text text-anchor="start" x="10" y="-244.5" font-family="Helvetica,sans-Serif" font-size="10.00">+ load_eeprom()</text>
<text text-anchor="start" x="10" y="-233.5" font-family="Helvetica,sans-Serif" font-size="10.00">+ update_epprom()</text>
<text text-anchor="start" x="10" y="-222.5" font-family="Helvetica,sans-Serif" font-size="10.00">+ initialize_eeprom()</text>
</a>
</g>
</g>
<!-- Node1&#45;&gt;Node0 -->
<g id="edge1" class="edge"><title>Node1&#45;&gt;Node0</title>
<path fill="none" stroke="#404040" d="M74.8433,-215.386C80.1163,-204.582 86.7229,-194.434 95,-186 151.044,-128.891 241.387,-103.982 305.316,-93.1756"/>
<polygon fill="none" stroke="#404040" points="305.481,-93.1493 310.776,-88.2532 317.331,-91.257 312.037,-96.1531 305.481,-93.1493"/>
<text text-anchor="middle" x="111.5" y="-189" font-family="Helvetica,sans-Serif" font-size="10.00"> &#45;config</text>
</g>
<!-- Node2 -->
<g id="node3" class="node"><title>Node2</title>
<g id="a_node3"><a xlink:href="class_state.html" target="_top" xlink:title="{State\n||+ State()\l+ ~State()\l+ execute()\l+ print()\l}">
<polygon fill="none" stroke="black" points="347,-480 347,-570 413,-570 413,-480 347,-480"/>
<text text-anchor="middle" x="380" y="-558" font-family="Helvetica,sans-Serif" font-size="10.00">State</text>
<polyline fill="none" stroke="black" points="347,-551 413,-551 "/>
<text text-anchor="middle" x="380" y="-539" font-family="Helvetica,sans-Serif" font-size="10.00"> </text>
<polyline fill="none" stroke="black" points="347,-532 413,-532 "/>
<text text-anchor="start" x="355" y="-520" font-family="Helvetica,sans-Serif" font-size="10.00">+ State()</text>
<text text-anchor="start" x="355" y="-509" font-family="Helvetica,sans-Serif" font-size="10.00">+ ~State()</text>
<text text-anchor="start" x="355" y="-498" font-family="Helvetica,sans-Serif" font-size="10.00">+ execute()</text>
<text text-anchor="start" x="355" y="-487" font-family="Helvetica,sans-Serif" font-size="10.00">+ print()</text>
</a>
</g>
</g>
<!-- Node2&#45;&gt;Node0 -->
<g id="edge11" class="edge"><title>Node2&#45;&gt;Node0</title>
<path fill="none" stroke="#404040" d="M346.855,-517.965C294.457,-506.443 194.026,-475.847 151,-405 107.166,-332.823 108.512,-287.977 151,-215 184.109,-158.133 252.381,-124.116 305.808,-105.232"/>
<polygon fill="none" stroke="#404040" points="305.95,-105.184 310.34,-99.4635 317.309,-101.316 312.919,-107.037 305.95,-105.184"/>
<text text-anchor="middle" x="175.5" y="-307.5" font-family="Helvetica,sans-Serif" font-size="10.00"> &#45;nextState</text>
</g>
<!-- Node2&#45;&gt;Node1 -->
<g id="edge2" class="edge"><title>Node2&#45;&gt;Node1</title>
<path fill="none" stroke="midnightblue" d="M336.63,-517.252C283.31,-507.098 192.362,-483.535 131,-434 120.61,-425.613 111.222,-415.427 102.866,-404.545"/>
<polygon fill="none" stroke="midnightblue" points="336.306,-520.751 346.772,-519.108 337.566,-513.865 336.306,-520.751"/>
</g>
<!-- Node5 -->
<g id="node6" class="node"><title>Node5</title>
<g id="a_node6"><a xlink:href="class_sleep.html" target="_top" xlink:title="{Sleep\n||+ Sleep()\l+ ~Sleep()\l+ execute()\l+ print()\l}">
<polygon fill="none" stroke="black" points="305,-265 305,-355 371,-355 371,-265 305,-265"/>
<text text-anchor="middle" x="338" y="-343" font-family="Helvetica,sans-Serif" font-size="10.00">Sleep</text>
<polyline fill="none" stroke="black" points="305,-336 371,-336 "/>
<text text-anchor="middle" x="338" y="-324" font-family="Helvetica,sans-Serif" font-size="10.00"> </text>
<polyline fill="none" stroke="black" points="305,-317 371,-317 "/>
<text text-anchor="start" x="313" y="-305" font-family="Helvetica,sans-Serif" font-size="10.00">+ Sleep()</text>
<text text-anchor="start" x="313" y="-294" font-family="Helvetica,sans-Serif" font-size="10.00">+ ~Sleep()</text>
<text text-anchor="start" x="313" y="-283" font-family="Helvetica,sans-Serif" font-size="10.00">+ execute()</text>
<text text-anchor="start" x="313" y="-272" font-family="Helvetica,sans-Serif" font-size="10.00">+ print()</text>
</a>
</g>
</g>
<!-- Node2&#45;&gt;Node5 -->
<g id="edge6" class="edge"><title>Node2&#45;&gt;Node5</title>
<path fill="none" stroke="midnightblue" d="M369.287,-469.669C362.282,-434.144 353.249,-388.335 346.691,-355.077"/>
<polygon fill="none" stroke="midnightblue" points="365.929,-470.732 371.298,-479.866 372.797,-469.378 365.929,-470.732"/>
</g>
<!-- Node6 -->
<g id="node7" class="node"><title>Node6</title>
<g id="a_node7"><a xlink:href="class_idle.html" target="_top" xlink:title="{Idle\n||+ Idle()\l+ ~Idle()\l+ execute()\l+ print()\l}">
<polygon fill="none" stroke="black" points="389,-265 389,-355 455,-355 455,-265 389,-265"/>
<text text-anchor="middle" x="422" y="-343" font-family="Helvetica,sans-Serif" font-size="10.00">Idle</text>
<polyline fill="none" stroke="black" points="389,-336 455,-336 "/>
<text text-anchor="middle" x="422" y="-324" font-family="Helvetica,sans-Serif" font-size="10.00"> </text>
<polyline fill="none" stroke="black" points="389,-317 455,-317 "/>
<text text-anchor="start" x="397" y="-305" font-family="Helvetica,sans-Serif" font-size="10.00">+ Idle()</text>
<text text-anchor="start" x="397" y="-294" font-family="Helvetica,sans-Serif" font-size="10.00">+ ~Idle()</text>
<text text-anchor="start" x="397" y="-283" font-family="Helvetica,sans-Serif" font-size="10.00">+ execute()</text>
<text text-anchor="start" x="397" y="-272" font-family="Helvetica,sans-Serif" font-size="10.00">+ print()</text>
</a>
</g>
</g>
<!-- Node2&#45;&gt;Node6 -->
<g id="edge8" class="edge"><title>Node2&#45;&gt;Node6</title>
<path fill="none" stroke="midnightblue" d="M390.713,-469.669C397.718,-434.144 406.751,-388.335 413.309,-355.077"/>
<polygon fill="none" stroke="midnightblue" points="387.203,-469.378 388.702,-479.866 394.071,-470.732 387.203,-469.378"/>
</g>
<!-- Node7 -->
<g id="node8" class="node"><title>Node7</title>
<g id="a_node8"><a xlink:href="class_measure.html" target="_top" xlink:title="The class Measure inherits from the class State. ">
<polygon fill="none" stroke="black" points="473.5,-221 473.5,-399 606.5,-399 606.5,-221 473.5,-221"/>
<text text-anchor="middle" x="540" y="-387" font-family="Helvetica,sans-Serif" font-size="10.00">Measure</text>
<polyline fill="none" stroke="black" points="473.5,-380 606.5,-380 "/>
<text text-anchor="start" x="481.5" y="-368" font-family="Helvetica,sans-Serif" font-size="10.00">+ flag_data_frequencies</text>
<text text-anchor="start" x="481.5" y="-357" font-family="Helvetica,sans-Serif" font-size="10.00">_ready</text>
<polyline fill="none" stroke="black" points="473.5,-350 606.5,-350 "/>
<text text-anchor="start" x="481.5" y="-338" font-family="Helvetica,sans-Serif" font-size="10.00">+ Measure()</text>
<text text-anchor="start" x="481.5" y="-327" font-family="Helvetica,sans-Serif" font-size="10.00">+ ~Measure()</text>
<text text-anchor="start" x="481.5" y="-316" font-family="Helvetica,sans-Serif" font-size="10.00">+ execute()</text>
<text text-anchor="start" x="481.5" y="-305" font-family="Helvetica,sans-Serif" font-size="10.00">+ print()</text>
<text text-anchor="start" x="481.5" y="-294" font-family="Helvetica,sans-Serif" font-size="10.00">&#45; clear_data_array()</text>
<text text-anchor="start" x="481.5" y="-283" font-family="Helvetica,sans-Serif" font-size="10.00">&#45; freq_init_measurement()</text>
<text text-anchor="start" x="481.5" y="-272" font-family="Helvetica,sans-Serif" font-size="10.00">&#45; windvane_value()</text>
<text text-anchor="start" x="481.5" y="-261" font-family="Helvetica,sans-Serif" font-size="10.00">&#45; power_read_value()</text>
<text text-anchor="start" x="481.5" y="-250" font-family="Helvetica,sans-Serif" font-size="10.00">&#45; temperature_read_value()</text>
<text text-anchor="start" x="481.5" y="-239" font-family="Helvetica,sans-Serif" font-size="10.00">&#45; freq_read_value()</text>
<text text-anchor="start" x="481.5" y="-228" font-family="Helvetica,sans-Serif" font-size="10.00">&#45; calc_average()</text>
</a>
</g>
</g>
<!-- Node2&#45;&gt;Node7 -->
<g id="edge10" class="edge"><title>Node2&#45;&gt;Node7</title>
<path fill="none" stroke="midnightblue" d="M419.295,-471.688C435.747,-449.787 455.328,-423.719 473.883,-399.019"/>
<polygon fill="none" stroke="midnightblue" points="416.36,-469.769 413.152,-479.866 421.957,-473.973 416.36,-469.769"/>
</g>
<!-- Node9 -->
<g id="node10" class="node"><title>Node9</title>
<g id="a_node10"><a xlink:href="class_output.html" target="_top" xlink:title="{Output\n|+ USART0\l+ USART1\l+ SD_CARD\l+ WIFI\l+ GPRS\l|+ Output()\l+ ~Output()\l+ execute()\l+ print()\l+ usart0_print()\l+ usart1_print()\l+ SDCard_print()\l}">
<polygon fill="none" stroke="black" points="767.5,-226.5 767.5,-393.5 858.5,-393.5 858.5,-226.5 767.5,-226.5"/>
<text text-anchor="middle" x="813" y="-381.5" font-family="Helvetica,sans-Serif" font-size="10.00">Output</text>
<polyline fill="none" stroke="black" points="767.5,-374.5 858.5,-374.5 "/>
<text text-anchor="start" x="775.5" y="-362.5" font-family="Helvetica,sans-Serif" font-size="10.00">+ USART0</text>
<text text-anchor="start" x="775.5" y="-351.5" font-family="Helvetica,sans-Serif" font-size="10.00">+ USART1</text>
<text text-anchor="start" x="775.5" y="-340.5" font-family="Helvetica,sans-Serif" font-size="10.00">+ SD_CARD</text>
<text text-anchor="start" x="775.5" y="-329.5" font-family="Helvetica,sans-Serif" font-size="10.00">+ WIFI</text>
<text text-anchor="start" x="775.5" y="-318.5" font-family="Helvetica,sans-Serif" font-size="10.00">+ GPRS</text>
<polyline fill="none" stroke="black" points="767.5,-311.5 858.5,-311.5 "/>
<text text-anchor="start" x="775.5" y="-299.5" font-family="Helvetica,sans-Serif" font-size="10.00">+ Output()</text>
<text text-anchor="start" x="775.5" y="-288.5" font-family="Helvetica,sans-Serif" font-size="10.00">+ ~Output()</text>
<text text-anchor="start" x="775.5" y="-277.5" font-family="Helvetica,sans-Serif" font-size="10.00">+ execute()</text>
<text text-anchor="start" x="775.5" y="-266.5" font-family="Helvetica,sans-Serif" font-size="10.00">+ print()</text>
<text text-anchor="start" x="775.5" y="-255.5" font-family="Helvetica,sans-Serif" font-size="10.00">+ usart0_print()</text>
<text text-anchor="start" x="775.5" y="-244.5" font-family="Helvetica,sans-Serif" font-size="10.00">+ usart1_print()</text>
<text text-anchor="start" x="775.5" y="-233.5" font-family="Helvetica,sans-Serif" font-size="10.00">+ SDCard_print()</text>
</a>
</g>
</g>
<!-- Node2&#45;&gt;Node9 -->
<g id="edge14" class="edge"><title>Node2&#45;&gt;Node9</title>
<path fill="none" stroke="midnightblue" d="M423.105,-520.487C498.577,-512.328 656.28,-486.119 758,-405 762.287,-401.581 766.308,-397.731 770.07,-393.59"/>
<polygon fill="none" stroke="midnightblue" points="422.607,-517.019 413.016,-521.522 423.321,-523.983 422.607,-517.019"/>
</g>
<!-- Node3 -->
<g id="node4" class="node"><title>Node3</title>
<g id="a_node4"><a xlink:href="class_date_time.html" target="_top" xlink:title="The DateTime class permit to have human readable format for the timestamp. ">
<polygon fill="none" stroke="black" points="0,-452.5 0,-597.5 88,-597.5 88,-452.5 0,-452.5"/>
<text text-anchor="middle" x="44" y="-585.5" font-family="Helvetica,sans-Serif" font-size="10.00">DateTime</text>
<polyline fill="none" stroke="black" points="0,-578.5 88,-578.5 "/>
<text text-anchor="start" x="8" y="-566.5" font-family="Helvetica,sans-Serif" font-size="10.00">&#45; m_second</text>
<text text-anchor="start" x="8" y="-555.5" font-family="Helvetica,sans-Serif" font-size="10.00">&#45; m_minute</text>
<text text-anchor="start" x="8" y="-544.5" font-family="Helvetica,sans-Serif" font-size="10.00">&#45; m_hour</text>
<text text-anchor="start" x="8" y="-533.5" font-family="Helvetica,sans-Serif" font-size="10.00">&#45; m_date</text>
<text text-anchor="start" x="8" y="-522.5" font-family="Helvetica,sans-Serif" font-size="10.00">&#45; m_month</text>
<text text-anchor="start" x="8" y="-511.5" font-family="Helvetica,sans-Serif" font-size="10.00">&#45; m_year</text>
<polyline fill="none" stroke="black" points="0,-504.5 88,-504.5 "/>
<text text-anchor="start" x="8" y="-492.5" font-family="Helvetica,sans-Serif" font-size="10.00">+ DateTime()</text>
<text text-anchor="start" x="8" y="-481.5" font-family="Helvetica,sans-Serif" font-size="10.00">+ toDateTime()</text>
<text text-anchor="start" x="8" y="-470.5" font-family="Helvetica,sans-Serif" font-size="10.00">+ getDateTime()</text>
<text text-anchor="start" x="8" y="-459.5" font-family="Helvetica,sans-Serif" font-size="10.00">&#45; isLeap()</text>
</a>
</g>
</g>
<!-- Node3&#45;&gt;Node1 -->
<g id="edge3" class="edge"><title>Node3&#45;&gt;Node1</title>
<path fill="none" stroke="#404040" d="M44.0889,-452.255C44.2826,-442.422 44.5736,-432.46 45,-423 45.0921,-420.957 45.1917,-418.893 45.2982,-416.814"/>
<polygon fill="none" stroke="#404040" points="45.3014,-416.755 41.6452,-410.54 45.9764,-404.774 49.6326,-410.99 45.3014,-416.755"/>
<text text-anchor="middle" x="74" y="-426" font-family="Helvetica,sans-Serif" font-size="10.00"> &#45;currentTime</text>
</g>
<!-- Node4 -->
<g id="node5" class="node"><title>Node4</title>
<g id="a_node5"><a xlink:href="class_usart.html" target="_top" xlink:title="This is the uart library for the atmega1284p. ">
<polygon fill="none" stroke="black" points="209.5,-232 209.5,-388 286.5,-388 286.5,-232 209.5,-232"/>
<text text-anchor="middle" x="248" y="-376" font-family="Helvetica,sans-Serif" font-size="10.00">Usart</text>
<polyline fill="none" stroke="black" points="209.5,-369 286.5,-369 "/>
<text text-anchor="start" x="217.5" y="-357" font-family="Helvetica,sans-Serif" font-size="10.00">+ flag_rx0</text>
<text text-anchor="start" x="217.5" y="-346" font-family="Helvetica,sans-Serif" font-size="10.00">+ flag_rx1</text>
<text text-anchor="start" x="217.5" y="-335" font-family="Helvetica,sans-Serif" font-size="10.00">+ data_udr0</text>
<text text-anchor="start" x="217.5" y="-324" font-family="Helvetica,sans-Serif" font-size="10.00">+ data_udr1</text>
<text text-anchor="start" x="217.5" y="-313" font-family="Helvetica,sans-Serif" font-size="10.00">+ BR_9600</text>
<text text-anchor="start" x="217.5" y="-302" font-family="Helvetica,sans-Serif" font-size="10.00">+ BR_57600</text>
<text text-anchor="start" x="217.5" y="-291" font-family="Helvetica,sans-Serif" font-size="10.00">+ BR_115200</text>
<text text-anchor="start" x="217.5" y="-280" font-family="Helvetica,sans-Serif" font-size="10.00">&#45; m_usart</text>
<polyline fill="none" stroke="black" points="209.5,-273 286.5,-273 "/>
<text text-anchor="start" x="217.5" y="-261" font-family="Helvetica,sans-Serif" font-size="10.00">+ Usart()</text>
<text text-anchor="start" x="217.5" y="-250" font-family="Helvetica,sans-Serif" font-size="10.00">+ set()</text>
<text text-anchor="start" x="217.5" y="-239" font-family="Helvetica,sans-Serif" font-size="10.00">+ print()</text>
</a>
</g>
</g>
<!-- Node4&#45;&gt;Node0 -->
<g id="edge4" class="edge"><title>Node4&#45;&gt;Node0</title>
<path fill="none" stroke="#404040" d="M286.529,-231.962C289.665,-226.185 292.843,-220.477 296,-215 302.972,-202.905 310.573,-190.365 318.262,-178.059"/>
<polygon fill="none" stroke="#404040" points="318.333,-177.945 318.147,-170.737 324.729,-167.792 324.916,-175 318.333,-177.945"/>
<text text-anchor="middle" x="329.5" y="-189" font-family="Helvetica,sans-Serif" font-size="10.00"> +uart0</text>
</g>
<!-- Node5&#45;&gt;Node0 -->
<g id="edge5" class="edge"><title>Node5&#45;&gt;Node0</title>
<path fill="none" stroke="#404040" d="M346.298,-264.745C350.857,-240.428 356.696,-209.285 362.229,-179.777"/>
<polygon fill="none" stroke="#404040" points="362.283,-179.49 359.457,-172.856 364.495,-167.696 367.32,-174.33 362.283,-179.49"/>
<text text-anchor="middle" x="376" y="-189" font-family="Helvetica,sans-Serif" font-size="10.00"> &#45;sleep</text>
</g>
<!-- Node6&#45;&gt;Node0 -->
<g id="edge7" class="edge"><title>Node6&#45;&gt;Node0</title>
<path fill="none" stroke="#404040" d="M413.702,-264.745C409.143,-240.428 403.304,-209.285 397.771,-179.777"/>
<polygon fill="none" stroke="#404040" points="397.717,-179.49 392.68,-174.33 395.505,-167.696 400.543,-172.856 397.717,-179.49"/>
<text text-anchor="middle" x="412" y="-189" font-family="Helvetica,sans-Serif" font-size="10.00"> &#45;idle</text>
</g>
<!-- Node7&#45;&gt;Node0 -->
<g id="edge9" class="edge"><title>Node7&#45;&gt;Node0</title>
<path fill="none" stroke="#404040" d="M476.993,-220.791C466.833,-206.566 456.289,-191.805 446.059,-177.482"/>
<polygon fill="none" stroke="#404040" points="446.01,-177.414 439.268,-174.857 439.035,-167.649 445.778,-170.207 446.01,-177.414"/>
<text text-anchor="middle" x="482" y="-189" font-family="Helvetica,sans-Serif" font-size="10.00"> &#45;measure</text>
</g>
<!-- Node8 -->
<g id="node9" class="node"><title>Node8</title>
<g id="a_node9"><a xlink:href="struct_eeprom.html" target="_top" xlink:title="The Eeprom structure regroup members need to be saved in the micro&#45;controler&#39;s eeprom. ">
<polygon fill="none" stroke="black" points="625,-248.5 625,-371.5 749,-371.5 749,-248.5 625,-248.5"/>
<text text-anchor="middle" x="687" y="-359.5" font-family="Helvetica,sans-Serif" font-size="10.00">Eeprom</text>
<polyline fill="none" stroke="black" points="625,-352.5 749,-352.5 "/>
<text text-anchor="start" x="633" y="-340.5" font-family="Helvetica,sans-Serif" font-size="10.00">+ structure_version</text>
<text text-anchor="start" x="633" y="-329.5" font-family="Helvetica,sans-Serif" font-size="10.00">+ measure_sample_conf</text>
<text text-anchor="start" x="633" y="-318.5" font-family="Helvetica,sans-Serif" font-size="10.00">+ measure_max</text>
<text text-anchor="start" x="633" y="-307.5" font-family="Helvetica,sans-Serif" font-size="10.00">+ measure_periode</text>
<text text-anchor="start" x="633" y="-296.5" font-family="Helvetica,sans-Serif" font-size="10.00">+ measure_counter</text>
<text text-anchor="start" x="633" y="-285.5" font-family="Helvetica,sans-Serif" font-size="10.00">+ sensors_enable</text>
<text text-anchor="start" x="633" y="-274.5" font-family="Helvetica,sans-Serif" font-size="10.00">+ output_enable</text>
<polyline fill="none" stroke="black" points="625,-267.5 749,-267.5 "/>
<text text-anchor="middle" x="687" y="-255.5" font-family="Helvetica,sans-Serif" font-size="10.00"> </text>
</a>
</g>
</g>
<!-- Node8&#45;&gt;Node0 -->
<g id="edge12" class="edge"><title>Node8&#45;&gt;Node0</title>
<path fill="none" stroke="#404040" d="M646.26,-248.097C636.813,-236.324 626.213,-224.661 615,-215 566.584,-173.282 502.642,-138.968 453.681,-116.09"/>
<polygon fill="none" stroke="#404040" points="453.427,-115.973 446.304,-117.097 442.527,-110.954 449.65,-109.83 453.427,-115.973"/>
<text text-anchor="middle" x="614" y="-189" font-family="Helvetica,sans-Serif" font-size="10.00"> +eeprom</text>
</g>
<!-- Node9&#45;&gt;Node0 -->
<g id="edge13" class="edge"><title>Node9&#45;&gt;Node0</title>
<path fill="none" stroke="#404040" d="M769.576,-226.111C765.953,-222.1 762.095,-218.355 758,-215 669.059,-142.142 536.922,-109.139 454.75,-94.9206"/>
<polygon fill="none" stroke="#404040" points="454.587,-94.8935 448.01,-97.8504 442.751,-92.9165 449.328,-89.9597 454.587,-94.8935"/>
<text text-anchor="middle" x="750" y="-189" font-family="Helvetica,sans-Serif" font-size="10.00"> &#45;output</text>
</g>
</g>
</svg>
        <g id="navigator" transform="translate(0 0)" fill="#404254">
                <rect fill="#f2f5e9" fill-opacity="0.5" stroke="#606060" stroke-width=".5" x="0" y="0" width="60" height="60"/>
                <use id="zoomplus" xlink:href="#zoomPlus" x="17" y="9" onmousedown="handleZoom(evt,'in')"/>
                <use id="zoomminus" xlink:href="#zoomMin" x="42" y="9" onmousedown="handleZoom(evt,'out')"/>
                <use id="reset" xlink:href="#resetDef" x="30" y="36" onmousedown="handleReset()"/>
                <g id="arrowUp" xlink:href="#dirArrow" transform="translate(30 24)" onmousedown="handlePan(0,-1)">
                  <use xlink:href="#rim" fill="#404040">
                        <set attributeName="fill" to="#808080" begin="arrowUp.mouseover" end="arrowUp.mouseout"/>
                  </use>
                  <path fill="none" stroke="white" stroke-width="1.5" d="M0,-3.0v7 M-2.5,-0.5L0,-3.0L2.5,-0.5"/>
                </g>
                <g id="arrowRight" xlink:href="#dirArrow" transform="rotate(90) translate(36 -43)" onmousedown="handlePan(1,0)">
                  <use xlink:href="#rim" fill="#404040">
                        <set attributeName="fill" to="#808080" begin="arrowRight.mouseover" end="arrowRight.mouseout"/>
                  </use>
                  <path fill="none" stroke="white" stroke-width="1.5" d="M0,-3.0v7 M-2.5,-0.5L0,-3.0L2.5,-0.5"/>
                </g>
                <g id="arrowDown" xlink:href="#dirArrow" transform="rotate(180) translate(-30 -48)" onmousedown="handlePan(0,1)">
                  <use xlink:href="#rim" fill="#404040">
                        <set attributeName="fill" to="#808080" begin="arrowDown.mouseover" end="arrowDown.mouseout"/>
                  </use>
                  <path fill="none" stroke="white" stroke-width="1.5" d="M0,-3.0v7 M-2.5,-0.5L0,-3.0L2.5,-0.5"/>
                </g>
                <g id="arrowLeft" xlink:href="#dirArrow" transform="rotate(270) translate(-36 17)" onmousedown="handlePan(-1,0)">
                  <use xlink:href="#rim" fill="#404040">
                        <set attributeName="fill" to="#808080" begin="arrowLeft.mouseover" end="arrowLeft.mouseout"/>
                  </use>
                  <path fill="none" stroke="white" stroke-width="1.5" d="M0,-3.0v7 M-2.5,-0.5L0,-3.0L2.5,-0.5"/>
                </g>
        </g>
        <svg viewBox="0 0 15 15" width="100%" height="30px" preserveAspectRatio="xMaxYMin meet">
         <g id="arrow_out" transform="scale(0.3 0.3)">
          <a xlink:href="class_f_s_m__coll__graph_org.svg" target="_base">
           <rect id="button" ry="5" rx="5" y="6" x="6" height="38" width="38"
                fill="#f2f5e9" fill-opacity="0.5" stroke="#606060" stroke-width="1.0"/>
           <path id="arrow"
             d="M 11.500037,31.436501 C 11.940474,20.09759 22.043105,11.32322 32.158766,21.979434 L 37.068811,17.246167 C 37.068811,17.246167 37.088388,32 37.088388,32 L 22.160133,31.978069 C 22.160133,31.978069 26.997745,27.140456 26.997745,27.140456 C 18.528582,18.264221 13.291696,25.230495 11.500037,31.436501 z"
             style="fill:#404040;"/>
          </a>
         </g>
        </svg>
</svg>
