<?xml version="1.0" encoding="UTF-8" standalone="no"?>
<!DOCTYPE svg PUBLIC "-//W3C//DTD SVG 1.1//EN"
 "http://www.w3.org/Graphics/SVG/1.1/DTD/svg11.dtd">
<!-- Generated by graphviz version 2.38.0 (20140413.2041)
 -->
<!-- Title: Measure::freq_read_value Pages: 1 -->
<svg width="660pt" height="340pt"
 viewBox="0.00 0.00 660.00 339.65" xmlns="http://www.w3.org/2000/svg" xmlns:xlink="http://www.w3.org/1999/xlink">
<g id="graph0" class="graph" transform="scale(1 1) rotate(0) translate(4 335.65)">
<title>Measure::freq_read_value</title>
<!-- Node57 -->
<g id="node1" class="node"><title>Node57</title>
<polygon fill="#bfbfbf" stroke="black" points="0,-170.5 0,-200.5 101,-200.5 101,-170.5 0,-170.5"/>
<text text-anchor="start" x="8" y="-188.5" font-family="Helvetica,sans-Serif" font-size="10.00">Measure::freq_read</text>
<text text-anchor="middle" x="50.5" y="-177.5" font-family="Helvetica,sans-Serif" font-size="10.00">_value</text>
</g>
<!-- Node58 -->
<g id="node2" class="node"><title>Node58</title>
<g id="a_node2"><a xlink:href="class_anemometer.html#a9be3b4b392ef08ef29c769e6ce4bebf4" target="_top" xlink:title="Anemometer::read_value">
<polygon fill="none" stroke="black" points="137,-176 137,-195 262,-195 262,-176 137,-176"/>
<text text-anchor="middle" x="199.5" y="-183" font-family="Helvetica,sans-Serif" font-size="10.00">Anemometer::read_value</text>
</a>
</g>
</g>
<!-- Node57&#45;&gt;Node58 -->
<g id="edge1" class="edge"><title>Node57&#45;&gt;Node58</title>
<path fill="none" stroke="midnightblue" d="M101.267,-185.5C109.469,-185.5 118.113,-185.5 126.724,-185.5"/>
<polygon fill="midnightblue" stroke="midnightblue" points="126.791,-189 136.791,-185.5 126.791,-182 126.791,-189"/>
</g>
<!-- Node59 -->
<g id="node3" class="node"><title>Node59</title>
<g id="a_node3"><a xlink:href="class_sensor.html#a4e88d49608387ab4f65734913e514109" target="_top" xlink:title="Sensor::is_enable">
<polygon fill="none" stroke="black" points="298,-176 298,-195 393,-195 393,-176 298,-176"/>
<text text-anchor="middle" x="345.5" y="-183" font-family="Helvetica,sans-Serif" font-size="10.00">Sensor::is_enable</text>
</a>
</g>
</g>
<!-- Node58&#45;&gt;Node59 -->
<g id="edge2" class="edge"><title>Node58&#45;&gt;Node59</title>
<path fill="none" stroke="midnightblue" d="M262.405,-185.5C270.859,-185.5 279.503,-185.5 287.857,-185.5"/>
<polygon fill="midnightblue" stroke="midnightblue" points="287.872,-189 297.872,-185.5 287.872,-182 287.872,-189"/>
</g>
<!-- Node60 -->
<g id="node4" class="node"><title>Node60</title>
<g id="a_node4"><a xlink:href="class_sensor.html#a9478b09a17b24105c0fe5b32e988224a" target="_top" xlink:title="Sensor::print">
<polygon fill="none" stroke="black" points="580,-282 580,-301 652,-301 652,-282 580,-282"/>
<text text-anchor="middle" x="616" y="-289" font-family="Helvetica,sans-Serif" font-size="10.00">Sensor::print</text>
</a>
</g>
</g>
<!-- Node59&#45;&gt;Node60 -->
<g id="edge3" class="edge"><title>Node59&#45;&gt;Node60</title>
<path fill="none" stroke="midnightblue" d="M349.009,-195.247C356.245,-221.072 379.851,-291.151 429,-318.5 479.647,-346.683 549.557,-322.757 587.616,-305.467"/>
<polygon fill="midnightblue" stroke="midnightblue" points="589.468,-308.463 597.02,-301.032 586.482,-302.132 589.468,-308.463"/>
</g>
<!-- Node61 -->
<g id="node5" class="node"><title>Node61</title>
<g id="a_node5"><a xlink:href="class_sensor.html#a59e815290b2883cea096c8bc613429c0" target="_top" xlink:title="Sensor::read_value">
<polygon fill="none" stroke="black" points="436,-290 436,-309 537,-309 537,-290 436,-290"/>
<text text-anchor="middle" x="486.5" y="-297" font-family="Helvetica,sans-Serif" font-size="10.00">Sensor::read_value</text>
</a>
</g>
</g>
<!-- Node59&#45;&gt;Node61 -->
<g id="edge4" class="edge"><title>Node59&#45;&gt;Node61</title>
<path fill="none" stroke="midnightblue" d="M352.292,-195.074C364.265,-214.085 393.606,-256.799 429,-280.5 431.926,-282.46 435.073,-284.234 438.33,-285.838"/>
<polygon fill="midnightblue" stroke="midnightblue" points="437.142,-289.138 447.708,-289.918 439.935,-282.719 437.142,-289.138"/>
</g>
<!-- Node62 -->
<g id="node6" class="node"><title>Node62</title>
<g id="a_node6"><a xlink:href="class_sensor.html#a0e1288d8b8594192f9d65819c185764f" target="_top" xlink:title="This method print the sensor configuration for the sensor. It&#39;s a good idea to overload this function...">
<polygon fill="none" stroke="black" points="434.5,-252 434.5,-271 538.5,-271 538.5,-252 434.5,-252"/>
<text text-anchor="middle" x="486.5" y="-259" font-family="Helvetica,sans-Serif" font-size="10.00">Sensor::print_config</text>
</a>
</g>
</g>
<!-- Node59&#45;&gt;Node62 -->
<g id="edge5" class="edge"><title>Node59&#45;&gt;Node62</title>
<path fill="none" stroke="midnightblue" d="M358.135,-195.121C373.538,-207.474 401.918,-228.93 429,-242.5 433.285,-244.647 437.869,-246.639 442.503,-248.462"/>
<polygon fill="midnightblue" stroke="midnightblue" points="441.413,-251.79 452.006,-251.961 443.832,-245.221 441.413,-251.79"/>
</g>
<!-- Node64 -->
<g id="node8" class="node"><title>Node64</title>
<g id="a_node8"><a xlink:href="class_sensor.html#ae16fd0cbdda6cfed1deac36f5c7c0a8f" target="_top" xlink:title="This method calculate the average from the data array. ">
<polygon fill="none" stroke="black" points="431,-214 431,-233 542,-233 542,-214 431,-214"/>
<text text-anchor="middle" x="486.5" y="-221" font-family="Helvetica,sans-Serif" font-size="10.00">Sensor::calc_average</text>
</a>
</g>
</g>
<!-- Node59&#45;&gt;Node64 -->
<g id="edge8" class="edge"><title>Node59&#45;&gt;Node64</title>
<path fill="none" stroke="midnightblue" d="M393.172,-191.844C414.733,-197.084 439.591,-204.185 458.079,-210.503"/>
<polygon fill="midnightblue" stroke="midnightblue" points="457.038,-213.847 467.633,-213.915 459.393,-207.255 457.038,-213.847"/>
</g>
<!-- Node65 -->
<g id="node9" class="node"><title>Node65</title>
<g id="a_node9"><a xlink:href="class_sensor.html#a38a47820684e5ff0f61ad32b8afbde45" target="_top" xlink:title="The print_average method print the average&#39;s value in the string. ">
<polygon fill="none" stroke="black" points="430.5,-176 430.5,-195 542.5,-195 542.5,-176 430.5,-176"/>
<text text-anchor="middle" x="486.5" y="-183" font-family="Helvetica,sans-Serif" font-size="10.00">Sensor::print_average</text>
</a>
</g>
</g>
<!-- Node59&#45;&gt;Node65 -->
<g id="edge10" class="edge"><title>Node59&#45;&gt;Node65</title>
<path fill="none" stroke="midnightblue" d="M393.172,-179.085C401.767,-178.824 410.887,-178.716 419.918,-178.76"/>
<polygon fill="midnightblue" stroke="midnightblue" points="420.005,-182.261 430.044,-178.874 420.084,-175.261 420.005,-182.261"/>
</g>
<!-- Node66 -->
<g id="node10" class="node"><title>Node66</title>
<g id="a_node10"><a xlink:href="class_sensor.html#aa03d707dfa7562805b77f9040831418b" target="_top" xlink:title="Sensor::print_data\l_array">
<polygon fill="none" stroke="black" points="438.5,-126.5 438.5,-156.5 534.5,-156.5 534.5,-126.5 438.5,-126.5"/>
<text text-anchor="start" x="446.5" y="-144.5" font-family="Helvetica,sans-Serif" font-size="10.00">Sensor::print_data</text>
<text text-anchor="middle" x="486.5" y="-133.5" font-family="Helvetica,sans-Serif" font-size="10.00">_array</text>
</a>
</g>
</g>
<!-- Node59&#45;&gt;Node66 -->
<g id="edge12" class="edge"><title>Node59&#45;&gt;Node66</title>
<path fill="none" stroke="midnightblue" d="M376.661,-175.953C391.887,-171.133 410.868,-165.125 428.696,-159.481"/>
<polygon fill="midnightblue" stroke="midnightblue" points="429.973,-162.748 438.45,-156.394 427.86,-156.075 429.973,-162.748"/>
</g>
<!-- Node68 -->
<g id="node12" class="node"><title>Node68</title>
<g id="a_node12"><a xlink:href="class_sensor.html#a953410c8a76c3b718349000a11e6160e" target="_top" xlink:title="Load saved parameters for sensors from the eeprom. ">
<polygon fill="none" stroke="black" points="434.5,-88 434.5,-107 538.5,-107 538.5,-88 434.5,-88"/>
<text text-anchor="middle" x="486.5" y="-95" font-family="Helvetica,sans-Serif" font-size="10.00">Sensor::load_param</text>
</a>
</g>
</g>
<!-- Node59&#45;&gt;Node68 -->
<g id="edge15" class="edge"><title>Node59&#45;&gt;Node68</title>
<path fill="none" stroke="midnightblue" d="M355.825,-175.908C370.303,-161.485 399.597,-134.132 429,-117.5 433.415,-115.002 438.198,-112.731 443.048,-110.69"/>
<polygon fill="midnightblue" stroke="midnightblue" points="444.334,-113.945 452.378,-107.05 441.79,-107.424 444.334,-113.945"/>
</g>
<!-- Node69 -->
<g id="node13" class="node"><title>Node69</title>
<g id="a_node13"><a xlink:href="class_sensor.html#abf05dcc164ceadf01fa48c32fbaf040a" target="_top" xlink:title="Update saved parameters for sensors in the eeprom. ">
<polygon fill="none" stroke="black" points="429,-50 429,-69 544,-69 544,-50 429,-50"/>
<text text-anchor="middle" x="486.5" y="-57" font-family="Helvetica,sans-Serif" font-size="10.00">Sensor::update_param</text>
</a>
</g>
</g>
<!-- Node59&#45;&gt;Node69 -->
<g id="edge16" class="edge"><title>Node59&#45;&gt;Node69</title>
<path fill="none" stroke="midnightblue" d="M351.295,-175.978C362.22,-155.22 390.987,-105.591 429,-78.5 431.697,-76.578 434.602,-74.8397 437.622,-73.2691"/>
<polygon fill="midnightblue" stroke="midnightblue" points="439.27,-76.3646 446.93,-69.0446 436.377,-69.9904 439.27,-76.3646"/>
</g>
<!-- Node70 -->
<g id="node14" class="node"><title>Node70</title>
<g id="a_node14"><a xlink:href="class_sensor.html#a4a9eb446ca4c73268ec6d93b959273f9" target="_top" xlink:title="Initialize the eeprom memory. ">
<polygon fill="none" stroke="black" points="442,-0.5 442,-30.5 531,-30.5 531,-0.5 442,-0.5"/>
<text text-anchor="start" x="450" y="-18.5" font-family="Helvetica,sans-Serif" font-size="10.00">Sensor::initialize</text>
<text text-anchor="middle" x="486.5" y="-7.5" font-family="Helvetica,sans-Serif" font-size="10.00">_param</text>
</a>
</g>
</g>
<!-- Node59&#45;&gt;Node70 -->
<g id="edge17" class="edge"><title>Node59&#45;&gt;Node70</title>
<path fill="none" stroke="midnightblue" d="M349.647,-175.646C358.291,-150.02 384.741,-80.5118 429,-40.5 430.713,-38.9512 432.538,-37.4861 434.443,-36.1015"/>
<polygon fill="midnightblue" stroke="midnightblue" points="436.647,-38.8485 443.218,-30.5372 432.898,-32.937 436.647,-38.8485"/>
</g>
<!-- Node62&#45;&gt;Node60 -->
<g id="edge7" class="edge"><title>Node62&#45;&gt;Node60</title>
<path fill="none" stroke="midnightblue" d="M528.192,-271.075C541.433,-274.19 556.208,-277.667 569.761,-280.856"/>
<polygon fill="midnightblue" stroke="midnightblue" points="569.305,-284.344 579.841,-283.227 570.909,-277.53 569.305,-284.344"/>
</g>
<!-- Node63 -->
<g id="node7" class="node"><title>Node63</title>
<g id="a_node7"><a xlink:href="class_usart.html#ab236d7c399791bbe1431f85e9b60f601" target="_top" xlink:title="USART string sender function. ">
<polygon fill="none" stroke="black" points="583.5,-222 583.5,-241 648.5,-241 648.5,-222 583.5,-222"/>
<text text-anchor="middle" x="616" y="-229" font-family="Helvetica,sans-Serif" font-size="10.00">Usart::print</text>
</a>
</g>
</g>
<!-- Node62&#45;&gt;Node63 -->
<g id="edge6" class="edge"><title>Node62&#45;&gt;Node63</title>
<path fill="none" stroke="midnightblue" d="M528.192,-251.925C542.502,-248.558 558.602,-244.77 573.016,-241.379"/>
<polygon fill="midnightblue" stroke="midnightblue" points="574.23,-244.688 583.163,-238.991 572.627,-237.875 574.23,-244.688"/>
</g>
<!-- Node64&#45;&gt;Node59 -->
<g id="edge9" class="edge"><title>Node64&#45;&gt;Node59</title>
<path fill="none" stroke="midnightblue" d="M430.789,-215.155C411.42,-210.226 390.445,-204.129 374.263,-198.614"/>
<polygon fill="midnightblue" stroke="midnightblue" points="374.982,-195.155 364.387,-195.092 372.631,-201.748 374.982,-195.155"/>
</g>
<!-- Node65&#45;&gt;Node59 -->
<g id="edge11" class="edge"><title>Node65&#45;&gt;Node59</title>
<path fill="none" stroke="midnightblue" d="M430.044,-192.126C421.262,-192.283 412.167,-192.291 403.354,-192.15"/>
<polygon fill="midnightblue" stroke="midnightblue" points="403.25,-188.646 393.172,-191.915 403.088,-195.645 403.25,-188.646"/>
</g>
<!-- Node66&#45;&gt;Node63 -->
<g id="edge13" class="edge"><title>Node66&#45;&gt;Node63</title>
<path fill="none" stroke="midnightblue" d="M526.073,-156.542C532.249,-159.519 538.433,-162.861 544,-166.5 564.814,-180.106 585.419,-199.854 599.026,-214.009"/>
<polygon fill="midnightblue" stroke="midnightblue" points="596.775,-216.724 606.177,-221.607 601.872,-211.926 596.775,-216.724"/>
</g>
<!-- Node67 -->
<g id="node11" class="node"><title>Node67</title>
<g id="a_node11"><a xlink:href="class_usart.html#a86c9264f48dabbc3d97fa32d2d02d22d" target="_top" xlink:title="USART char sender function. ">
<polygon fill="none" stroke="black" points="586,-132 586,-151 646,-151 646,-132 586,-132"/>
<text text-anchor="middle" x="616" y="-139" font-family="Helvetica,sans-Serif" font-size="10.00">Usart::set</text>
</a>
</g>
</g>
<!-- Node66&#45;&gt;Node67 -->
<g id="edge14" class="edge"><title>Node66&#45;&gt;Node67</title>
<path fill="none" stroke="midnightblue" d="M534.614,-141.5C548.16,-141.5 562.783,-141.5 575.796,-141.5"/>
<polygon fill="midnightblue" stroke="midnightblue" points="575.835,-145 585.835,-141.5 575.835,-138 575.835,-145"/>
</g>
</g>
</svg>
