<?xml version="1.0" encoding="UTF-8" standalone="no"?>
<!DOCTYPE svg PUBLIC "-//W3C//DTD SVG 1.1//EN"
 "http://www.w3.org/Graphics/SVG/1.1/DTD/svg11.dtd">
<!-- Generated by graphviz version 2.38.0 (20140413.2041)
 -->
<!-- Title: TWI::start Pages: 1 -->
<svg width="434pt" height="142pt"
 viewBox="0.00 0.00 434.00 142.00" xmlns="http://www.w3.org/2000/svg" xmlns:xlink="http://www.w3.org/1999/xlink">
<g id="graph0" class="graph" transform="scale(1 1) rotate(0) translate(4 138)">
<title>TWI::start</title>
<!-- Node63 -->
<g id="node1" class="node"><title>Node63</title>
<polygon fill="#bfbfbf" stroke="black" points="0,-57.5 0,-76.5 61,-76.5 61,-57.5 0,-57.5"/>
<text text-anchor="middle" x="30.5" y="-64.5" font-family="Helvetica,sans-Serif" font-size="10.00">TWI::start</text>
</g>
<!-- Node64 -->
<g id="node2" class="node"><title>Node64</title>
<g id="a_node2"><a xlink:href="class_t_w_i.html#af9e2b71e3b3b0f6cd2c003980c5cfc91" target="_top" xlink:title="TWI::get_char">
<polygon fill="none" stroke="black" points="97,-114.5 97,-133.5 176,-133.5 176,-114.5 97,-114.5"/>
<text text-anchor="middle" x="136.5" y="-121.5" font-family="Helvetica,sans-Serif" font-size="10.00">TWI::get_char</text>
</a>
</g>
</g>
<!-- Node63&#45;&gt;Node64 -->
<g id="edge1" class="edge"><title>Node63&#45;&gt;Node64</title>
<path fill="none" stroke="midnightblue" d="M55.9337,-81.6986C68.1564,-88.917 83.2423,-97.6252 97,-105 102.912,-108.169 109.426,-111.459 115.388,-114.392"/>
<polygon fill="midnightblue" stroke="midnightblue" points="57.599,-78.6169 47.2145,-76.5159 54.0222,-84.6341 57.599,-78.6169"/>
</g>
<!-- Node65 -->
<g id="node3" class="node"><title>Node65</title>
<g id="a_node3"><a xlink:href="class_t_w_i.html#ae409624835946cb6c455cd05839f021c" target="_top" xlink:title="TWI::print">
<polygon fill="none" stroke="black" points="106.5,-76.5 106.5,-95.5 166.5,-95.5 166.5,-76.5 106.5,-76.5"/>
<text text-anchor="middle" x="136.5" y="-83.5" font-family="Helvetica,sans-Serif" font-size="10.00">TWI::print</text>
</a>
</g>
</g>
<!-- Node63&#45;&gt;Node65 -->
<g id="edge2" class="edge"><title>Node63&#45;&gt;Node65</title>
<path fill="none" stroke="midnightblue" d="M71.017,-74.2195C82.7247,-76.3584 95.3296,-78.6612 106.262,-80.6585"/>
<polygon fill="midnightblue" stroke="midnightblue" points="71.4903,-70.7481 61.024,-72.3938 70.2322,-77.6341 71.4903,-70.7481"/>
</g>
<!-- Node66 -->
<g id="node4" class="node"><title>Node66</title>
<g id="a_node4"><a xlink:href="class_t_w_i.html#a3e375d4c03edae3f0c8263a330eddd8d" target="_top" xlink:title="TWI::receive">
<polygon fill="none" stroke="black" points="100,-38.5 100,-57.5 173,-57.5 173,-38.5 100,-38.5"/>
<text text-anchor="middle" x="136.5" y="-45.5" font-family="Helvetica,sans-Serif" font-size="10.00">TWI::receive</text>
</a>
</g>
</g>
<!-- Node63&#45;&gt;Node66 -->
<g id="edge3" class="edge"><title>Node63&#45;&gt;Node66</title>
<path fill="none" stroke="midnightblue" d="M71.0531,-59.774C80.5694,-58.0354 90.6767,-56.1889 99.9954,-54.4864"/>
<polygon fill="midnightblue" stroke="midnightblue" points="70.2322,-56.3659 61.024,-61.6062 71.4903,-63.2519 70.2322,-56.3659"/>
</g>
<!-- Node69 -->
<g id="node7" class="node"><title>Node69</title>
<g id="a_node7"><a xlink:href="class_t_w_i.html#a1f2dc98a8c2e00dca3a0c76ee1ea1020" target="_top" xlink:title="TWI::set_char">
<polygon fill="none" stroke="black" points="97,-0.5 97,-19.5 176,-19.5 176,-0.5 97,-0.5"/>
<text text-anchor="middle" x="136.5" y="-7.5" font-family="Helvetica,sans-Serif" font-size="10.00">TWI::set_char</text>
</a>
</g>
</g>
<!-- Node63&#45;&gt;Node69 -->
<g id="edge6" class="edge"><title>Node63&#45;&gt;Node69</title>
<path fill="none" stroke="midnightblue" d="M55.9337,-52.3014C68.1564,-45.083 83.2423,-36.3748 97,-29 102.912,-25.8307 109.426,-22.5414 115.388,-19.6083"/>
<polygon fill="midnightblue" stroke="midnightblue" points="54.0222,-49.3659 47.2145,-57.4841 57.599,-55.3831 54.0222,-49.3659"/>
</g>
<!-- Node67 -->
<g id="node5" class="node"><title>Node67</title>
<g id="a_node5"><a xlink:href="class_r_t_c.html#a6e75afc10029f384081b814c2450e0fa" target="_top" xlink:title="RTC::get_date">
<polygon fill="none" stroke="black" points="217.5,-38.5 217.5,-57.5 298.5,-57.5 298.5,-38.5 217.5,-38.5"/>
<text text-anchor="middle" x="258" y="-45.5" font-family="Helvetica,sans-Serif" font-size="10.00">RTC::get_date</text>
</a>
</g>
</g>
<!-- Node66&#45;&gt;Node67 -->
<g id="edge4" class="edge"><title>Node66&#45;&gt;Node67</title>
<path fill="none" stroke="midnightblue" d="M183.1,-48C194.334,-48 206.277,-48 217.212,-48"/>
<polygon fill="midnightblue" stroke="midnightblue" points="183.03,-44.5001 173.03,-48 183.03,-51.5001 183.03,-44.5001"/>
</g>
<!-- Node68 -->
<g id="node6" class="node"><title>Node68</title>
<g id="a_node6"><a xlink:href="main_8cpp.html#ae66f6b31b5ad750f1fe042a706a4e3d4" target="_top" xlink:title="main">
<polygon fill="none" stroke="black" points="364,-38.5 364,-57.5 402,-57.5 402,-38.5 364,-38.5"/>
<text text-anchor="middle" x="383" y="-45.5" font-family="Helvetica,sans-Serif" font-size="10.00">main</text>
</a>
</g>
</g>
<!-- Node67&#45;&gt;Node68 -->
<g id="edge5" class="edge"><title>Node67&#45;&gt;Node68</title>
<path fill="none" stroke="midnightblue" d="M308.859,-48C328.272,-48 349.291,-48 363.793,-48"/>
<polygon fill="midnightblue" stroke="midnightblue" points="308.595,-44.5001 298.595,-48 308.595,-51.5001 308.595,-44.5001"/>
</g>
<!-- Node70 -->
<g id="node8" class="node"><title>Node70</title>
<g id="a_node8"><a xlink:href="class_r_t_c.html#a47c11140f33fe80ffb96fb5296859a25" target="_top" xlink:title="Function to update a register in the pcf8563 This function is use in the st_config class...">
<polygon fill="none" stroke="black" points="212,-0.5 212,-19.5 304,-19.5 304,-0.5 212,-0.5"/>
<text text-anchor="middle" x="258" y="-7.5" font-family="Helvetica,sans-Serif" font-size="10.00">RTC::update_reg</text>
</a>
</g>
</g>
<!-- Node69&#45;&gt;Node70 -->
<g id="edge7" class="edge"><title>Node69&#45;&gt;Node70</title>
<path fill="none" stroke="midnightblue" d="M186.35,-10C194.749,-10 203.446,-10 211.746,-10"/>
<polygon fill="midnightblue" stroke="midnightblue" points="186.298,-6.5001 176.298,-10 186.298,-13.5001 186.298,-6.5001"/>
</g>
<!-- Node71 -->
<g id="node9" class="node"><title>Node71</title>
<g id="a_node9"><a xlink:href="class_config.html#a2a806f322b0d533aabdb8e796d3b1033" target="_top" xlink:title="The execute method is the config &quot;main function&quot; In this method, sentence from the uart are process e...">
<polygon fill="none" stroke="black" points="340,-0.5 340,-19.5 426,-19.5 426,-0.5 340,-0.5"/>
<text text-anchor="middle" x="383" y="-7.5" font-family="Helvetica,sans-Serif" font-size="10.00">Config::execute</text>
</a>
</g>
</g>
<!-- Node70&#45;&gt;Node71 -->
<g id="edge8" class="edge"><title>Node70&#45;&gt;Node71</title>
<path fill="none" stroke="midnightblue" d="M314.378,-10C322.903,-10 331.586,-10 339.765,-10"/>
<polygon fill="midnightblue" stroke="midnightblue" points="314.102,-6.5001 304.102,-10 314.102,-13.5001 314.102,-6.5001"/>
</g>
</g>
</svg>
