<?xml version="1.0" encoding="UTF-8" standalone="no"?>
<!DOCTYPE svg PUBLIC "-//W3C//DTD SVG 1.1//EN"
 "http://www.w3.org/Graphics/SVG/1.1/DTD/svg11.dtd">
<!-- Generated by graphviz version 2.38.0 (20140413.2041)
 -->
<!-- Title: Anemometer::read_value Pages: 1 -->
<svg width="523pt" height="340pt"
 viewBox="0.00 0.00 523.00 339.65" xmlns="http://www.w3.org/2000/svg" xmlns:xlink="http://www.w3.org/1999/xlink">
<g id="graph0" class="graph" transform="scale(1 1) rotate(0) translate(4 335.65)">
<title>Anemometer::read_value</title>
<!-- Node6 -->
<g id="node1" class="node"><title>Node6</title>
<polygon fill="#bfbfbf" stroke="black" points="0,-176 0,-195 125,-195 125,-176 0,-176"/>
<text text-anchor="middle" x="62.5" y="-183" font-family="Helvetica,sans-Serif" font-size="10.00">Anemometer::read_value</text>
</g>
<!-- Node7 -->
<g id="node2" class="node"><title>Node7</title>
<g id="a_node2"><a xlink:href="class_sensor.html#a4e88d49608387ab4f65734913e514109" target="_top" xlink:title="Sensor::is_enable">
<polygon fill="none" stroke="black" points="161,-176 161,-195 256,-195 256,-176 161,-176"/>
<text text-anchor="middle" x="208.5" y="-183" font-family="Helvetica,sans-Serif" font-size="10.00">Sensor::is_enable</text>
</a>
</g>
</g>
<!-- Node6&#45;&gt;Node7 -->
<g id="edge1" class="edge"><title>Node6&#45;&gt;Node7</title>
<path fill="none" stroke="midnightblue" d="M125.405,-185.5C133.859,-185.5 142.503,-185.5 150.857,-185.5"/>
<polygon fill="midnightblue" stroke="midnightblue" points="150.872,-189 160.872,-185.5 150.872,-182 150.872,-189"/>
</g>
<!-- Node8 -->
<g id="node3" class="node"><title>Node8</title>
<g id="a_node3"><a xlink:href="class_sensor.html#a9478b09a17b24105c0fe5b32e988224a" target="_top" xlink:title="Sensor::print">
<polygon fill="none" stroke="black" points="443,-282 443,-301 515,-301 515,-282 443,-282"/>
<text text-anchor="middle" x="479" y="-289" font-family="Helvetica,sans-Serif" font-size="10.00">Sensor::print</text>
</a>
</g>
</g>
<!-- Node7&#45;&gt;Node8 -->
<g id="edge2" class="edge"><title>Node7&#45;&gt;Node8</title>
<path fill="none" stroke="midnightblue" d="M212.009,-195.247C219.245,-221.072 242.851,-291.151 292,-318.5 342.647,-346.683 412.557,-322.757 450.616,-305.467"/>
<polygon fill="midnightblue" stroke="midnightblue" points="452.468,-308.463 460.02,-301.032 449.482,-302.132 452.468,-308.463"/>
</g>
<!-- Node9 -->
<g id="node4" class="node"><title>Node9</title>
<g id="a_node4"><a xlink:href="class_sensor.html#a59e815290b2883cea096c8bc613429c0" target="_top" xlink:title="Sensor::read_value">
<polygon fill="none" stroke="black" points="299,-290 299,-309 400,-309 400,-290 299,-290"/>
<text text-anchor="middle" x="349.5" y="-297" font-family="Helvetica,sans-Serif" font-size="10.00">Sensor::read_value</text>
</a>
</g>
</g>
<!-- Node7&#45;&gt;Node9 -->
<g id="edge3" class="edge"><title>Node7&#45;&gt;Node9</title>
<path fill="none" stroke="midnightblue" d="M215.292,-195.074C227.265,-214.085 256.606,-256.799 292,-280.5 294.926,-282.46 298.073,-284.234 301.33,-285.838"/>
<polygon fill="midnightblue" stroke="midnightblue" points="300.142,-289.138 310.708,-289.918 302.935,-282.719 300.142,-289.138"/>
</g>
<!-- Node10 -->
<g id="node5" class="node"><title>Node10</title>
<g id="a_node5"><a xlink:href="class_sensor.html#a0e1288d8b8594192f9d65819c185764f" target="_top" xlink:title="This method print the sensor configuration for the sensor. It&#39;s a good idea to overload this function...">
<polygon fill="none" stroke="black" points="297.5,-252 297.5,-271 401.5,-271 401.5,-252 297.5,-252"/>
<text text-anchor="middle" x="349.5" y="-259" font-family="Helvetica,sans-Serif" font-size="10.00">Sensor::print_config</text>
</a>
</g>
</g>
<!-- Node7&#45;&gt;Node10 -->
<g id="edge4" class="edge"><title>Node7&#45;&gt;Node10</title>
<path fill="none" stroke="midnightblue" d="M221.135,-195.121C236.538,-207.474 264.918,-228.93 292,-242.5 296.285,-244.647 300.869,-246.639 305.503,-248.462"/>
<polygon fill="midnightblue" stroke="midnightblue" points="304.413,-251.79 315.006,-251.961 306.832,-245.221 304.413,-251.79"/>
</g>
<!-- Node12 -->
<g id="node7" class="node"><title>Node12</title>
<g id="a_node7"><a xlink:href="class_sensor.html#ae16fd0cbdda6cfed1deac36f5c7c0a8f" target="_top" xlink:title="This method calculate the average from the data array. ">
<polygon fill="none" stroke="black" points="294,-214 294,-233 405,-233 405,-214 294,-214"/>
<text text-anchor="middle" x="349.5" y="-221" font-family="Helvetica,sans-Serif" font-size="10.00">Sensor::calc_average</text>
</a>
</g>
</g>
<!-- Node7&#45;&gt;Node12 -->
<g id="edge7" class="edge"><title>Node7&#45;&gt;Node12</title>
<path fill="none" stroke="midnightblue" d="M256.172,-191.844C277.733,-197.084 302.591,-204.185 321.079,-210.503"/>
<polygon fill="midnightblue" stroke="midnightblue" points="320.038,-213.847 330.633,-213.915 322.393,-207.255 320.038,-213.847"/>
</g>
<!-- Node13 -->
<g id="node8" class="node"><title>Node13</title>
<g id="a_node8"><a xlink:href="class_sensor.html#a38a47820684e5ff0f61ad32b8afbde45" target="_top" xlink:title="The print_average method print the average&#39;s value in the string. ">
<polygon fill="none" stroke="black" points="293.5,-176 293.5,-195 405.5,-195 405.5,-176 293.5,-176"/>
<text text-anchor="middle" x="349.5" y="-183" font-family="Helvetica,sans-Serif" font-size="10.00">Sensor::print_average</text>
</a>
</g>
</g>
<!-- Node7&#45;&gt;Node13 -->
<g id="edge9" class="edge"><title>Node7&#45;&gt;Node13</title>
<path fill="none" stroke="midnightblue" d="M256.172,-179.085C264.767,-178.824 273.887,-178.716 282.918,-178.76"/>
<polygon fill="midnightblue" stroke="midnightblue" points="283.005,-182.261 293.044,-178.874 283.084,-175.261 283.005,-182.261"/>
</g>
<!-- Node14 -->
<g id="node9" class="node"><title>Node14</title>
<g id="a_node9"><a xlink:href="class_sensor.html#aa03d707dfa7562805b77f9040831418b" target="_top" xlink:title="Sensor::print_data\l_array">
<polygon fill="none" stroke="black" points="301.5,-126.5 301.5,-156.5 397.5,-156.5 397.5,-126.5 301.5,-126.5"/>
<text text-anchor="start" x="309.5" y="-144.5" font-family="Helvetica,sans-Serif" font-size="10.00">Sensor::print_data</text>
<text text-anchor="middle" x="349.5" y="-133.5" font-family="Helvetica,sans-Serif" font-size="10.00">_array</text>
</a>
</g>
</g>
<!-- Node7&#45;&gt;Node14 -->
<g id="edge11" class="edge"><title>Node7&#45;&gt;Node14</title>
<path fill="none" stroke="midnightblue" d="M239.661,-175.953C254.887,-171.133 273.868,-165.125 291.696,-159.481"/>
<polygon fill="midnightblue" stroke="midnightblue" points="292.973,-162.748 301.45,-156.394 290.86,-156.075 292.973,-162.748"/>
</g>
<!-- Node16 -->
<g id="node11" class="node"><title>Node16</title>
<g id="a_node11"><a xlink:href="class_sensor.html#a953410c8a76c3b718349000a11e6160e" target="_top" xlink:title="Load saved parameters for sensors from the eeprom. ">
<polygon fill="none" stroke="black" points="297.5,-88 297.5,-107 401.5,-107 401.5,-88 297.5,-88"/>
<text text-anchor="middle" x="349.5" y="-95" font-family="Helvetica,sans-Serif" font-size="10.00">Sensor::load_param</text>
</a>
</g>
</g>
<!-- Node7&#45;&gt;Node16 -->
<g id="edge14" class="edge"><title>Node7&#45;&gt;Node16</title>
<path fill="none" stroke="midnightblue" d="M218.825,-175.908C233.303,-161.485 262.597,-134.132 292,-117.5 296.415,-115.002 301.198,-112.731 306.048,-110.69"/>
<polygon fill="midnightblue" stroke="midnightblue" points="307.334,-113.945 315.378,-107.05 304.79,-107.424 307.334,-113.945"/>
</g>
<!-- Node17 -->
<g id="node12" class="node"><title>Node17</title>
<g id="a_node12"><a xlink:href="class_sensor.html#abf05dcc164ceadf01fa48c32fbaf040a" target="_top" xlink:title="Update saved parameters for sensors in the eeprom. ">
<polygon fill="none" stroke="black" points="292,-50 292,-69 407,-69 407,-50 292,-50"/>
<text text-anchor="middle" x="349.5" y="-57" font-family="Helvetica,sans-Serif" font-size="10.00">Sensor::update_param</text>
</a>
</g>
</g>
<!-- Node7&#45;&gt;Node17 -->
<g id="edge15" class="edge"><title>Node7&#45;&gt;Node17</title>
<path fill="none" stroke="midnightblue" d="M214.295,-175.978C225.22,-155.22 253.987,-105.591 292,-78.5 294.697,-76.578 297.602,-74.8397 300.622,-73.2691"/>
<polygon fill="midnightblue" stroke="midnightblue" points="302.27,-76.3646 309.93,-69.0446 299.377,-69.9904 302.27,-76.3646"/>
</g>
<!-- Node18 -->
<g id="node13" class="node"><title>Node18</title>
<g id="a_node13"><a xlink:href="class_sensor.html#a4a9eb446ca4c73268ec6d93b959273f9" target="_top" xlink:title="Initialize the eeprom memory. ">
<polygon fill="none" stroke="black" points="305,-0.5 305,-30.5 394,-30.5 394,-0.5 305,-0.5"/>
<text text-anchor="start" x="313" y="-18.5" font-family="Helvetica,sans-Serif" font-size="10.00">Sensor::initialize</text>
<text text-anchor="middle" x="349.5" y="-7.5" font-family="Helvetica,sans-Serif" font-size="10.00">_param</text>
</a>
</g>
</g>
<!-- Node7&#45;&gt;Node18 -->
<g id="edge16" class="edge"><title>Node7&#45;&gt;Node18</title>
<path fill="none" stroke="midnightblue" d="M212.647,-175.646C221.291,-150.02 247.741,-80.5118 292,-40.5 293.713,-38.9512 295.538,-37.4861 297.443,-36.1015"/>
<polygon fill="midnightblue" stroke="midnightblue" points="299.647,-38.8485 306.218,-30.5372 295.898,-32.937 299.647,-38.8485"/>
</g>
<!-- Node10&#45;&gt;Node8 -->
<g id="edge6" class="edge"><title>Node10&#45;&gt;Node8</title>
<path fill="none" stroke="midnightblue" d="M391.192,-271.075C404.433,-274.19 419.208,-277.667 432.761,-280.856"/>
<polygon fill="midnightblue" stroke="midnightblue" points="432.305,-284.344 442.841,-283.227 433.909,-277.53 432.305,-284.344"/>
</g>
<!-- Node11 -->
<g id="node6" class="node"><title>Node11</title>
<g id="a_node6"><a xlink:href="class_usart.html#ab236d7c399791bbe1431f85e9b60f601" target="_top" xlink:title="USART string sender function. ">
<polygon fill="none" stroke="black" points="446.5,-222 446.5,-241 511.5,-241 511.5,-222 446.5,-222"/>
<text text-anchor="middle" x="479" y="-229" font-family="Helvetica,sans-Serif" font-size="10.00">Usart::print</text>
</a>
</g>
</g>
<!-- Node10&#45;&gt;Node11 -->
<g id="edge5" class="edge"><title>Node10&#45;&gt;Node11</title>
<path fill="none" stroke="midnightblue" d="M391.192,-251.925C405.502,-248.558 421.602,-244.77 436.016,-241.379"/>
<polygon fill="midnightblue" stroke="midnightblue" points="437.23,-244.688 446.163,-238.991 435.627,-237.875 437.23,-244.688"/>
</g>
<!-- Node12&#45;&gt;Node7 -->
<g id="edge8" class="edge"><title>Node12&#45;&gt;Node7</title>
<path fill="none" stroke="midnightblue" d="M293.789,-215.155C274.42,-210.226 253.445,-204.129 237.263,-198.614"/>
<polygon fill="midnightblue" stroke="midnightblue" points="237.982,-195.155 227.387,-195.092 235.631,-201.748 237.982,-195.155"/>
</g>
<!-- Node13&#45;&gt;Node7 -->
<g id="edge10" class="edge"><title>Node13&#45;&gt;Node7</title>
<path fill="none" stroke="midnightblue" d="M293.044,-192.126C284.262,-192.283 275.167,-192.291 266.354,-192.15"/>
<polygon fill="midnightblue" stroke="midnightblue" points="266.25,-188.646 256.172,-191.915 266.088,-195.645 266.25,-188.646"/>
</g>
<!-- Node14&#45;&gt;Node11 -->
<g id="edge12" class="edge"><title>Node14&#45;&gt;Node11</title>
<path fill="none" stroke="midnightblue" d="M389.073,-156.542C395.249,-159.519 401.433,-162.861 407,-166.5 427.814,-180.106 448.419,-199.854 462.026,-214.009"/>
<polygon fill="midnightblue" stroke="midnightblue" points="459.775,-216.724 469.177,-221.607 464.872,-211.926 459.775,-216.724"/>
</g>
<!-- Node15 -->
<g id="node10" class="node"><title>Node15</title>
<g id="a_node10"><a xlink:href="class_usart.html#a86c9264f48dabbc3d97fa32d2d02d22d" target="_top" xlink:title="USART char sender function. ">
<polygon fill="none" stroke="black" points="449,-132 449,-151 509,-151 509,-132 449,-132"/>
<text text-anchor="middle" x="479" y="-139" font-family="Helvetica,sans-Serif" font-size="10.00">Usart::set</text>
</a>
</g>
</g>
<!-- Node14&#45;&gt;Node15 -->
<g id="edge13" class="edge"><title>Node14&#45;&gt;Node15</title>
<path fill="none" stroke="midnightblue" d="M397.614,-141.5C411.16,-141.5 425.783,-141.5 438.796,-141.5"/>
<polygon fill="midnightblue" stroke="midnightblue" points="438.835,-145 448.835,-141.5 438.835,-138 438.835,-145"/>
</g>
</g>
</svg>
