<?xml version="1.0" encoding="UTF-8" standalone="no"?>
<!DOCTYPE svg PUBLIC "-//W3C//DTD SVG 1.1//EN"
 "http://www.w3.org/Graphics/SVG/1.1/DTD/svg11.dtd">
<!-- Generated by graphviz version 2.38.0 (20140413.2041)
 -->
<!-- Title: RTC::is_leap_year Pages: 1 -->
<svg width="515pt" height="28pt"
 viewBox="0.00 0.00 515.00 28.00" xmlns="http://www.w3.org/2000/svg" xmlns:xlink="http://www.w3.org/1999/xlink">
<g id="graph0" class="graph" transform="scale(1 1) rotate(0) translate(4 24)">
<title>RTC::is_leap_year</title>
<!-- Node26 -->
<g id="node1" class="node"><title>Node26</title>
<polygon fill="#bfbfbf" stroke="black" points="0,-0.5 0,-19.5 98,-19.5 98,-0.5 0,-0.5"/>
<text text-anchor="middle" x="49" y="-7.5" font-family="Helvetica,sans-Serif" font-size="10.00">RTC::is_leap_year</text>
</g>
<!-- Node27 -->
<g id="node2" class="node"><title>Node27</title>
<g id="a_node2"><a xlink:href="class_r_t_c.html#a20900a7f5bd95b1928bf2d08a0de687c" target="_top" xlink:title="RTC::time_to_epoch">
<polygon fill="none" stroke="black" points="134,-0.5 134,-19.5 241,-19.5 241,-0.5 134,-0.5"/>
<text text-anchor="middle" x="187.5" y="-7.5" font-family="Helvetica,sans-Serif" font-size="10.00">RTC::time_to_epoch</text>
</a>
</g>
</g>
<!-- Node26&#45;&gt;Node27 -->
<g id="edge1" class="edge"><title>Node26&#45;&gt;Node27</title>
<path fill="none" stroke="midnightblue" d="M108.284,-10C116.726,-10 125.376,-10 133.703,-10"/>
<polygon fill="midnightblue" stroke="midnightblue" points="108.125,-6.5001 98.1248,-10 108.125,-13.5001 108.125,-6.5001"/>
</g>
<!-- Node28 -->
<g id="node3" class="node"><title>Node28</title>
<g id="a_node3"><a xlink:href="class_r_t_c.html#ad0c4545ccad338b30faab6a125833843" target="_top" xlink:title="RTC::get_timestamp">
<polygon fill="none" stroke="black" points="277,-0.5 277,-19.5 385,-19.5 385,-0.5 277,-0.5"/>
<text text-anchor="middle" x="331" y="-7.5" font-family="Helvetica,sans-Serif" font-size="10.00">RTC::get_timestamp</text>
</a>
</g>
</g>
<!-- Node27&#45;&gt;Node28 -->
<g id="edge2" class="edge"><title>Node27&#45;&gt;Node28</title>
<path fill="none" stroke="midnightblue" d="M251.416,-10C259.888,-10 268.513,-10 276.795,-10"/>
<polygon fill="midnightblue" stroke="midnightblue" points="251.189,-6.5001 241.189,-10 251.189,-13.5001 251.189,-6.5001"/>
</g>
<!-- Node29 -->
<g id="node4" class="node"><title>Node29</title>
<g id="a_node4"><a xlink:href="class_output.html#a087f4330e641bb4682ab2862bca7a1af" target="_top" xlink:title="Output::execute">
<polygon fill="none" stroke="black" points="421,-0.5 421,-19.5 507,-19.5 507,-0.5 421,-0.5"/>
<text text-anchor="middle" x="464" y="-7.5" font-family="Helvetica,sans-Serif" font-size="10.00">Output::execute</text>
</a>
</g>
</g>
<!-- Node28&#45;&gt;Node29 -->
<g id="edge3" class="edge"><title>Node28&#45;&gt;Node29</title>
<path fill="none" stroke="midnightblue" d="M395.298,-10C403.88,-10 412.511,-10 420.604,-10"/>
<polygon fill="midnightblue" stroke="midnightblue" points="395.283,-6.5001 385.283,-10 395.283,-13.5001 395.283,-6.5001"/>
</g>
</g>
</svg>
