<?xml version="1.0" encoding="UTF-8" standalone="no"?>
<!DOCTYPE svg PUBLIC "-//W3C//DTD SVG 1.1//EN"
 "http://www.w3.org/Graphics/SVG/1.1/DTD/svg11.dtd">
<!-- Generated by graphviz version 2.38.0 (20140413.2041)
 -->
<!-- Title: Power::print Pages: 1 -->
<svg width="726pt" height="66pt"
 viewBox="0.00 0.00 726.00 66.00" xmlns="http://www.w3.org/2000/svg" xmlns:xlink="http://www.w3.org/1999/xlink">
<g id="graph0" class="graph" transform="scale(1 1) rotate(0) translate(4 62)">
<title>Power::print</title>
<!-- Node29 -->
<g id="node1" class="node"><title>Node29</title>
<polygon fill="#bfbfbf" stroke="black" points="0,-19.5 0,-38.5 69,-38.5 69,-19.5 0,-19.5"/>
<text text-anchor="middle" x="34.5" y="-26.5" font-family="Helvetica,sans-Serif" font-size="10.00">Power::print</text>
</g>
<!-- Node30 -->
<g id="node2" class="node"><title>Node30</title>
<g id="a_node2"><a xlink:href="class_power.html#afd1c8cab1d4549eb45be61bdd34ae97d" target="_top" xlink:title="This method print the configuration for the power measurement. It&#39;s a good idea to overload this func...">
<polygon fill="none" stroke="black" points="105,-0.5 105,-19.5 206,-19.5 206,-0.5 105,-0.5"/>
<text text-anchor="middle" x="155.5" y="-7.5" font-family="Helvetica,sans-Serif" font-size="10.00">Power::print_config</text>
</a>
</g>
</g>
<!-- Node29&#45;&gt;Node30 -->
<g id="edge1" class="edge"><title>Node29&#45;&gt;Node30</title>
<path fill="none" stroke="midnightblue" d="M79.4058,-21.9898C87.619,-20.6785 96.2588,-19.299 104.637,-17.9614"/>
<polygon fill="midnightblue" stroke="midnightblue" points="78.6054,-18.5732 69.2823,-23.6062 79.7091,-25.4857 78.6054,-18.5732"/>
</g>
<!-- Node31 -->
<g id="node3" class="node"><title>Node31</title>
<g id="a_node3"><a xlink:href="class_power.html#a1e7595ee0b3b0439d979ffeab785d0d8" target="_top" xlink:title="Power::set_i_offset">
<polygon fill="none" stroke="black" points="242,-38.5 242,-57.5 343,-57.5 343,-38.5 242,-38.5"/>
<text text-anchor="middle" x="292.5" y="-45.5" font-family="Helvetica,sans-Serif" font-size="10.00">Power::set_i_offset</text>
</a>
</g>
</g>
<!-- Node29&#45;&gt;Node31 -->
<g id="edge9" class="edge"><title>Node29&#45;&gt;Node31</title>
<path fill="none" stroke="midnightblue" d="M79.2998,-32.2508C124.442,-35.6011 194.696,-40.8153 241.867,-44.3163"/>
<polygon fill="midnightblue" stroke="midnightblue" points="79.4624,-28.7533 69.2308,-31.5035 78.9443,-35.7341 79.4624,-28.7533"/>
</g>
<!-- Node30&#45;&gt;Node31 -->
<g id="edge2" class="edge"><title>Node30&#45;&gt;Node31</title>
<path fill="none" stroke="midnightblue" d="M200.262,-22.3183C218.811,-27.5393 240.099,-33.5316 257.445,-38.4141"/>
<polygon fill="midnightblue" stroke="midnightblue" points="201.14,-18.9295 190.566,-19.589 199.244,-25.6677 201.14,-18.9295"/>
</g>
<!-- Node33 -->
<g id="node5" class="node"><title>Node33</title>
<g id="a_node5"><a xlink:href="class_config.html#a975933ecde91dc436d4ca39464cfd25f" target="_top" xlink:title="display all config on USART0 ">
<polygon fill="none" stroke="black" points="251.5,-0.5 251.5,-19.5 333.5,-19.5 333.5,-0.5 251.5,-0.5"/>
<text text-anchor="middle" x="292.5" y="-7.5" font-family="Helvetica,sans-Serif" font-size="10.00">Config::display</text>
</a>
</g>
</g>
<!-- Node30&#45;&gt;Node33 -->
<g id="edge4" class="edge"><title>Node30&#45;&gt;Node33</title>
<path fill="none" stroke="midnightblue" d="M216.287,-10C228.126,-10 240.286,-10 251.284,-10"/>
<polygon fill="midnightblue" stroke="midnightblue" points="216.002,-6.5001 206.002,-10 216.002,-13.5001 216.002,-6.5001"/>
</g>
<!-- Node32 -->
<g id="node4" class="node"><title>Node32</title>
<g id="a_node4"><a xlink:href="class_config.html#a2a806f322b0d533aabdb8e796d3b1033" target="_top" xlink:title="The execute method is the config &quot;main function&quot; In this method, sentence from the uart are process e...">
<polygon fill="none" stroke="black" points="382,-38.5 382,-57.5 468,-57.5 468,-38.5 382,-38.5"/>
<text text-anchor="middle" x="425" y="-45.5" font-family="Helvetica,sans-Serif" font-size="10.00">Config::execute</text>
</a>
</g>
</g>
<!-- Node31&#45;&gt;Node32 -->
<g id="edge3" class="edge"><title>Node31&#45;&gt;Node32</title>
<path fill="none" stroke="midnightblue" d="M353.448,-48C362.975,-48 372.653,-48 381.664,-48"/>
<polygon fill="midnightblue" stroke="midnightblue" points="353.209,-44.5001 343.209,-48 353.209,-51.5001 353.209,-44.5001"/>
</g>
<!-- Node33&#45;&gt;Node32 -->
<g id="edge8" class="edge"><title>Node33&#45;&gt;Node32</title>
<path fill="none" stroke="midnightblue" d="M336.052,-22.3906C353.923,-27.5945 374.39,-33.5541 391.08,-38.4141"/>
<polygon fill="midnightblue" stroke="midnightblue" points="337.01,-19.0244 326.431,-19.589 335.053,-25.7453 337.01,-19.0244"/>
</g>
<!-- Node34 -->
<g id="node6" class="node"><title>Node34</title>
<g id="a_node6"><a xlink:href="class_config.html#a5ae6c4f7255e895e7384fc2a4baab160" target="_top" xlink:title="Config::endString">
<polygon fill="none" stroke="black" points="379,-0.5 379,-19.5 471,-19.5 471,-0.5 379,-0.5"/>
<text text-anchor="middle" x="425" y="-7.5" font-family="Helvetica,sans-Serif" font-size="10.00">Config::endString</text>
</a>
</g>
</g>
<!-- Node33&#45;&gt;Node34 -->
<g id="edge5" class="edge"><title>Node33&#45;&gt;Node34</title>
<path fill="none" stroke="midnightblue" d="M343.989,-10C355.415,-10 367.477,-10 378.674,-10"/>
<polygon fill="midnightblue" stroke="midnightblue" points="343.719,-6.5001 333.719,-10 343.719,-13.5001 343.719,-6.5001"/>
</g>
<!-- Node35 -->
<g id="node7" class="node"><title>Node35</title>
<g id="a_node7"><a xlink:href="class_f_s_m.html#a3819be8e9fe92b750f47b9731e92f254" target="_top" xlink:title="Call when a string from usart0 finish by &quot;\r\n&quot;. ">
<polygon fill="none" stroke="black" points="507,-0.5 507,-19.5 644,-19.5 644,-0.5 507,-0.5"/>
<text text-anchor="middle" x="575.5" y="-7.5" font-family="Helvetica,sans-Serif" font-size="10.00">FSM::character_processing</text>
</a>
</g>
</g>
<!-- Node34&#45;&gt;Node35 -->
<g id="edge6" class="edge"><title>Node34&#45;&gt;Node35</title>
<path fill="none" stroke="midnightblue" d="M481.633,-10C489.908,-10 498.513,-10 506.999,-10"/>
<polygon fill="midnightblue" stroke="midnightblue" points="481.362,-6.5001 471.362,-10 481.362,-13.5001 481.362,-6.5001"/>
</g>
<!-- Node36 -->
<g id="node8" class="node"><title>Node36</title>
<g id="a_node8"><a xlink:href="main_8cpp.html#ae66f6b31b5ad750f1fe042a706a4e3d4" target="_top" xlink:title="main">
<polygon fill="none" stroke="black" points="680,-0.5 680,-19.5 718,-19.5 718,-0.5 680,-0.5"/>
<text text-anchor="middle" x="699" y="-7.5" font-family="Helvetica,sans-Serif" font-size="10.00">main</text>
</a>
</g>
</g>
<!-- Node35&#45;&gt;Node36 -->
<g id="edge7" class="edge"><title>Node35&#45;&gt;Node36</title>
<path fill="none" stroke="midnightblue" d="M654.013,-10C663.457,-10 672.315,-10 679.572,-10"/>
<polygon fill="midnightblue" stroke="midnightblue" points="654.001,-6.5001 644.001,-10 654.001,-13.5001 654.001,-6.5001"/>
</g>
</g>
</svg>
