<?xml version="1.0" encoding="UTF-8" standalone="no"?>
<!DOCTYPE svg PUBLIC "-//W3C//DTD SVG 1.1//EN"
 "http://www.w3.org/Graphics/SVG/1.1/DTD/svg11.dtd">
<!-- Generated by graphviz version 2.38.0 (20140413.2041)
 -->
<!-- Title: Windvane::read_value Pages: 1 -->
<svg width="418pt" height="28pt"
 viewBox="0.00 0.00 418.00 28.00" xmlns="http://www.w3.org/2000/svg" xmlns:xlink="http://www.w3.org/1999/xlink">
<g id="graph0" class="graph" transform="scale(1 1) rotate(0) translate(4 24)">
<title>Windvane::read_value</title>
<!-- Node8 -->
<g id="node1" class="node"><title>Node8</title>
<polygon fill="#bfbfbf" stroke="black" points="0,-0.5 0,-19.5 113,-19.5 113,-0.5 0,-0.5"/>
<text text-anchor="middle" x="56.5" y="-7.5" font-family="Helvetica,sans-Serif" font-size="10.00">Windvane::read_value</text>
</g>
<!-- Node9 -->
<g id="node2" class="node"><title>Node9</title>
<g id="a_node2"><a xlink:href="class_measure.html#add6924662bc09f06abc3ec7b6dc2c94e" target="_top" xlink:title="read the windvane value en map it between 0 to 359 degres ">
<polygon fill="none" stroke="black" points="149,-0.5 149,-19.5 279,-19.5 279,-0.5 149,-0.5"/>
<text text-anchor="middle" x="214" y="-7.5" font-family="Helvetica,sans-Serif" font-size="10.00">Measure::windvane_value</text>
</a>
</g>
</g>
<!-- Node8&#45;&gt;Node9 -->
<g id="edge1" class="edge"><title>Node8&#45;&gt;Node9</title>
<path fill="none" stroke="midnightblue" d="M123.402,-10C131.866,-10 140.523,-10 148.957,-10"/>
<polygon fill="midnightblue" stroke="midnightblue" points="123.2,-6.5001 113.2,-10 123.2,-13.5001 123.2,-6.5001"/>
</g>
<!-- Node10 -->
<g id="node3" class="node"><title>Node10</title>
<g id="a_node3"><a xlink:href="class_measure.html#a754d2de10d1a44bb3b62ab162ceeaae2" target="_top" xlink:title="The execute method is the measure &quot;main function&quot; The execute function work as this scheme : ...">
<polygon fill="none" stroke="black" points="315,-0.5 315,-19.5 410,-19.5 410,-0.5 315,-0.5"/>
<text text-anchor="middle" x="362.5" y="-7.5" font-family="Helvetica,sans-Serif" font-size="10.00">Measure::execute</text>
</a>
</g>
</g>
<!-- Node9&#45;&gt;Node10 -->
<g id="edge2" class="edge"><title>Node9&#45;&gt;Node10</title>
<path fill="none" stroke="midnightblue" d="M289.425,-10C298.102,-10 306.758,-10 314.904,-10"/>
<polygon fill="midnightblue" stroke="midnightblue" points="289.257,-6.5001 279.257,-10 289.257,-13.5001 289.257,-6.5001"/>
</g>
</g>
</svg>
