<?xml version="1.0" encoding="UTF-8" standalone="no"?>
<!DOCTYPE svg PUBLIC "-//W3C//DTD SVG 1.1//EN"
 "http://www.w3.org/Graphics/SVG/1.1/DTD/svg11.dtd">
<!-- Generated by graphviz version 2.38.0 (20140413.2041)
 -->
<!-- Title: Sensor::print_average Pages: 1 -->
<!--zoomable 107 -->
<svg id="main" version="1.1" xmlns="http://www.w3.org/2000/svg" xmlns:xlink="http://www.w3.org/1999/xlink" xml:space="preserve" onload="init(evt)">
<style type="text/css"><![CDATA[
.edge:hover path { stroke: red; }
.edge:hover polygon { stroke: red; fill: red; }
]]></style>
<script type="text/javascript"><![CDATA[
var edges = document.getElementsByTagName('g');
if (edges && edges.length) {
  for (var i=0;i<edges.length;i++) {
    if (edges[i].id.substr(0,4)=='edge') {
      edges[i].setAttribute('class','edge');
    }
  }
}
]]></script>
        <defs>
                <circle id="rim" cx="0" cy="0" r="7"/>
                <circle id="rim2" cx="0" cy="0" r="3.5"/>
                <g id="zoomPlus">
                        <use xlink:href="#rim" fill="#404040">
                                <set attributeName="fill" to="#808080" begin="zoomplus.mouseover" end="zoomplus.mouseout"/>
                        </use>
                        <path d="M-4,0h8M0,-4v8" fill="none" stroke="white" stroke-width="1.5" pointer-events="none"/>
                </g>
                <g id="zoomMin">
                        <use xlink:href="#rim" fill="#404040">
                                <set attributeName="fill" to="#808080" begin="zoomminus.mouseover" end="zoomminus.mouseout"/>
                        </use>
                        <path d="M-4,0h8" fill="none" stroke="white" stroke-width="1.5" pointer-events="none"/>
                </g>
                <g id="dirArrow">
                        <path fill="none" stroke="white" stroke-width="1.5" d="M0,-3.0v7 M-2.5,-0.5L0,-3.0L2.5,-0.5"/>
                </g>
               <g id="resetDef">
                       <use xlink:href="#rim2" fill="#404040">
                               <set attributeName="fill" to="#808080" begin="reset.mouseover" end="reset.mouseout"/>
                       </use>
               </g>
        </defs>

<script type="text/javascript">
var viewWidth = 705;
var viewHeight = 107;
var sectionId = 'dynsection-11';
</script>
<script xlink:href="svgpan.js"/>
<svg id="graph" class="graph">
<g id="viewport">
<title>Sensor::print_average</title>
<!-- Node105 -->
<g id="node1" class="node"><title>Node105</title>
<polygon fill="#bfbfbf" stroke="black" points="0,-66.5 0,-85.5 112,-85.5 112,-66.5 0,-66.5"/>
<text text-anchor="middle" x="56" y="-73.5" font-family="Helvetica,sans-Serif" font-size="10.00">Sensor::print_average</text>
</g>
<!-- Node106 -->
<g id="node2" class="node"><title>Node106</title>
<g id="a_node2"><a xlink:href="class_sensor.html#a4e88d49608387ab4f65734913e514109" target="_top" xlink:title="Sensor::is_enable">
<polygon fill="none" stroke="black" points="152,-66.5 152,-85.5 247,-85.5 247,-66.5 152,-66.5"/>
<text text-anchor="middle" x="199.5" y="-73.5" font-family="Helvetica,sans-Serif" font-size="10.00">Sensor::is_enable</text>
</a>
</g>
</g>
<!-- Node105&#45;&gt;Node106 -->
<g id="edge1" class="edge"><title>Node105&#45;&gt;Node106</title>
<path fill="none" stroke="midnightblue" d="M122.312,-69.2678C132.18,-69.2032 142.189,-69.3147 151.567,-69.6021"/>
<polygon fill="midnightblue" stroke="midnightblue" points="122.067,-65.7705 112.113,-69.3987 122.157,-72.7699 122.067,-65.7705"/>
</g>
<!-- Node112 -->
<g id="node8" class="node"><title>Node112</title>
<g id="a_node8"><a xlink:href="class_output.html#af4bc42d2d3bb3b2a98782f0df0eba133" target="_top" xlink:title="Output::usart0_print">
<polygon fill="none" stroke="black" points="148,-19.5 148,-38.5 251,-38.5 251,-19.5 148,-19.5"/>
<text text-anchor="middle" x="199.5" y="-26.5" font-family="Helvetica,sans-Serif" font-size="10.00">Output::usart0_print</text>
</a>
</g>
</g>
<!-- Node105&#45;&gt;Node112 -->
<g id="edge10" class="edge"><title>Node105&#45;&gt;Node112</title>
<path fill="none" stroke="midnightblue" d="M95.2315,-63.3012C118.582,-55.5452 147.972,-45.783 169.422,-38.6583"/>
<polygon fill="midnightblue" stroke="midnightblue" points="94.0215,-60.015 85.6346,-66.4888 96.2281,-66.6581 94.0215,-60.015"/>
</g>
<!-- Node106&#45;&gt;Node105 -->
<g id="edge6" class="edge"><title>Node106&#45;&gt;Node105</title>
<path fill="none" stroke="midnightblue" d="M141.291,-82.6389C131.663,-82.7987 121.687,-82.7861 112.113,-82.6013"/>
<polygon fill="midnightblue" stroke="midnightblue" points="141.652,-86.1315 151.567,-82.3979 141.487,-79.1334 141.652,-86.1315"/>
</g>
<!-- Node107 -->
<g id="node3" class="node"><title>Node107</title>
<g id="a_node3"><a xlink:href="class_sensor.html#ae16fd0cbdda6cfed1deac36f5c7c0a8f" target="_top" xlink:title="This method calculate the average from the data array. ">
<polygon fill="none" stroke="black" points="294,-76.5 294,-95.5 405,-95.5 405,-76.5 294,-76.5"/>
<text text-anchor="middle" x="349.5" y="-83.5" font-family="Helvetica,sans-Serif" font-size="10.00">Sensor::calc_average</text>
</a>
</g>
</g>
<!-- Node106&#45;&gt;Node107 -->
<g id="edge2" class="edge"><title>Node106&#45;&gt;Node107</title>
<path fill="none" stroke="midnightblue" d="M257.679,-73.2709C272.162,-73.974 287.552,-75.0999 301.469,-76.4875"/>
<polygon fill="midnightblue" stroke="midnightblue" points="257.466,-69.759 247.328,-72.8359 257.172,-76.7528 257.466,-69.759"/>
</g>
<!-- Node110 -->
<g id="node6" class="node"><title>Node110</title>
<g id="a_node6"><a xlink:href="class_anemometer.html#a9be3b4b392ef08ef29c769e6ce4bebf4" target="_top" xlink:title="Anemometer::read_value">
<polygon fill="none" stroke="black" points="287,-38.5 287,-57.5 412,-57.5 412,-38.5 287,-38.5"/>
<text text-anchor="middle" x="349.5" y="-45.5" font-family="Helvetica,sans-Serif" font-size="10.00">Anemometer::read_value</text>
</a>
</g>
</g>
<!-- Node106&#45;&gt;Node110 -->
<g id="edge7" class="edge"><title>Node106&#45;&gt;Node110</title>
<path fill="none" stroke="midnightblue" d="M257.402,-65.2347C270.82,-62.6963 285.03,-60.0078 298.136,-57.5284"/>
<polygon fill="midnightblue" stroke="midnightblue" points="256.503,-61.8426 247.328,-67.1406 257.804,-68.7206 256.503,-61.8426"/>
</g>
<!-- Node107&#45;&gt;Node106 -->
<g id="edge5" class="edge"><title>Node107&#45;&gt;Node106</title>
<path fill="none" stroke="midnightblue" d="M283.778,-88.3295C271.515,-87.6268 258.906,-86.65 247.328,-85.4922"/>
<polygon fill="midnightblue" stroke="midnightblue" points="283.802,-91.8353 293.968,-88.8534 284.161,-84.8445 283.802,-91.8353"/>
</g>
<!-- Node108 -->
<g id="node4" class="node"><title>Node108</title>
<g id="a_node4"><a xlink:href="class_measure.html#a1518672dff4f81603a35bff08c20e9f5" target="_top" xlink:title="calcul average from the data array ">
<polygon fill="none" stroke="black" points="448,-79.5 448,-98.5 566,-98.5 566,-79.5 448,-79.5"/>
<text text-anchor="middle" x="507" y="-86.5" font-family="Helvetica,sans-Serif" font-size="10.00">Measure::calc_average</text>
</a>
</g>
</g>
<!-- Node107&#45;&gt;Node108 -->
<g id="edge3" class="edge"><title>Node107&#45;&gt;Node108</title>
<path fill="none" stroke="midnightblue" d="M415.52,-87.2544C426.291,-87.4622 437.398,-87.6765 447.982,-87.8807"/>
<polygon fill="midnightblue" stroke="midnightblue" points="415.389,-83.7513 405.323,-87.0577 415.254,-90.75 415.389,-83.7513"/>
</g>
<!-- Node109 -->
<g id="node5" class="node"><title>Node109</title>
<g id="a_node5"><a xlink:href="class_measure.html#a754d2de10d1a44bb3b62ab162ceeaae2" target="_top" xlink:title="The execute method is the measure &quot;main function&quot; The execute function work as this scheme : ...">
<polygon fill="none" stroke="black" points="602,-57.5 602,-76.5 697,-76.5 697,-57.5 602,-57.5"/>
<text text-anchor="middle" x="649.5" y="-64.5" font-family="Helvetica,sans-Serif" font-size="10.00">Measure::execute</text>
</a>
</g>
</g>
<!-- Node108&#45;&gt;Node109 -->
<g id="edge4" class="edge"><title>Node108&#45;&gt;Node109</title>
<path fill="none" stroke="midnightblue" d="M576.366,-78.295C584.927,-76.9545 593.525,-75.6082 601.651,-74.3357"/>
<polygon fill="midnightblue" stroke="midnightblue" points="575.702,-74.8562 566.364,-79.8611 576.785,-81.7719 575.702,-74.8562"/>
</g>
<!-- Node111 -->
<g id="node7" class="node"><title>Node111</title>
<g id="a_node7"><a xlink:href="class_measure.html#a4390d770b19dbc51e5486fefe9f4b9d1" target="_top" xlink:title="read value from anemometer and RPM ">
<polygon fill="none" stroke="black" points="456.5,-30 456.5,-60 557.5,-60 557.5,-30 456.5,-30"/>
<text text-anchor="start" x="464.5" y="-48" font-family="Helvetica,sans-Serif" font-size="10.00">Measure::freq_read</text>
<text text-anchor="middle" x="507" y="-37" font-family="Helvetica,sans-Serif" font-size="10.00">_value</text>
</a>
</g>
</g>
<!-- Node110&#45;&gt;Node111 -->
<g id="edge8" class="edge"><title>Node110&#45;&gt;Node111</title>
<path fill="none" stroke="midnightblue" d="M422.747,-46.6062C434.088,-46.3874 445.585,-46.1656 456.268,-45.9595"/>
<polygon fill="midnightblue" stroke="midnightblue" points="422.335,-43.1134 412.405,-46.8057 422.47,-50.1121 422.335,-43.1134"/>
</g>
<!-- Node111&#45;&gt;Node109 -->
<g id="edge9" class="edge"><title>Node111&#45;&gt;Node109</title>
<path fill="none" stroke="midnightblue" d="M567.472,-54.3124C578.931,-56.1067 590.782,-57.9623 601.766,-59.6822"/>
<polygon fill="midnightblue" stroke="midnightblue" points="567.956,-50.8456 557.535,-52.7564 566.873,-57.7613 567.956,-50.8456"/>
</g>
<!-- Node113 -->
<g id="node9" class="node"><title>Node113</title>
<g id="a_node9"><a xlink:href="class_output.html#a087f4330e641bb4682ab2862bca7a1af" target="_top" xlink:title="Output::execute">
<polygon fill="none" stroke="black" points="306.5,-0.5 306.5,-19.5 392.5,-19.5 392.5,-0.5 306.5,-0.5"/>
<text text-anchor="middle" x="349.5" y="-7.5" font-family="Helvetica,sans-Serif" font-size="10.00">Output::execute</text>
</a>
</g>
</g>
<!-- Node112&#45;&gt;Node113 -->
<g id="edge11" class="edge"><title>Node112&#45;&gt;Node113</title>
<path fill="none" stroke="midnightblue" d="M261.284,-21.1967C276.33,-19.2651 292.13,-17.2367 306.084,-15.4452"/>
<polygon fill="midnightblue" stroke="midnightblue" points="260.492,-17.7695 251.019,-22.5144 261.384,-24.7125 260.492,-17.7695"/>
</g>
</g>
</svg>
        <g id="navigator" transform="translate(0 0)" fill="#404254">
                <rect fill="#f2f5e9" fill-opacity="0.5" stroke="#606060" stroke-width=".5" x="0" y="0" width="60" height="60"/>
                <use id="zoomplus" xlink:href="#zoomPlus" x="17" y="9" onmousedown="handleZoom(evt,'in')"/>
                <use id="zoomminus" xlink:href="#zoomMin" x="42" y="9" onmousedown="handleZoom(evt,'out')"/>
                <use id="reset" xlink:href="#resetDef" x="30" y="36" onmousedown="handleReset()"/>
                <g id="arrowUp" xlink:href="#dirArrow" transform="translate(30 24)" onmousedown="handlePan(0,-1)">
                  <use xlink:href="#rim" fill="#404040">
                        <set attributeName="fill" to="#808080" begin="arrowUp.mouseover" end="arrowUp.mouseout"/>
                  </use>
                  <path fill="none" stroke="white" stroke-width="1.5" d="M0,-3.0v7 M-2.5,-0.5L0,-3.0L2.5,-0.5"/>
                </g>
                <g id="arrowRight" xlink:href="#dirArrow" transform="rotate(90) translate(36 -43)" onmousedown="handlePan(1,0)">
                  <use xlink:href="#rim" fill="#404040">
                        <set attributeName="fill" to="#808080" begin="arrowRight.mouseover" end="arrowRight.mouseout"/>
                  </use>
                  <path fill="none" stroke="white" stroke-width="1.5" d="M0,-3.0v7 M-2.5,-0.5L0,-3.0L2.5,-0.5"/>
                </g>
                <g id="arrowDown" xlink:href="#dirArrow" transform="rotate(180) translate(-30 -48)" onmousedown="handlePan(0,1)">
                  <use xlink:href="#rim" fill="#404040">
                        <set attributeName="fill" to="#808080" begin="arrowDown.mouseover" end="arrowDown.mouseout"/>
                  </use>
                  <path fill="none" stroke="white" stroke-width="1.5" d="M0,-3.0v7 M-2.5,-0.5L0,-3.0L2.5,-0.5"/>
                </g>
                <g id="arrowLeft" xlink:href="#dirArrow" transform="rotate(270) translate(-36 17)" onmousedown="handlePan(-1,0)">
                  <use xlink:href="#rim" fill="#404040">
                        <set attributeName="fill" to="#808080" begin="arrowLeft.mouseover" end="arrowLeft.mouseout"/>
                  </use>
                  <path fill="none" stroke="white" stroke-width="1.5" d="M0,-3.0v7 M-2.5,-0.5L0,-3.0L2.5,-0.5"/>
                </g>
        </g>
        <svg viewBox="0 0 15 15" width="100%" height="30px" preserveAspectRatio="xMaxYMin meet">
         <g id="arrow_out" transform="scale(0.3 0.3)">
          <a xlink:href="class_sensor_a38a47820684e5ff0f61ad32b8afbde45_icgraph_org.svg" target="_base">
           <rect id="button" ry="5" rx="5" y="6" x="6" height="38" width="38"
                fill="#f2f5e9" fill-opacity="0.5" stroke="#606060" stroke-width="1.0"/>
           <path id="arrow"
             d="M 11.500037,31.436501 C 11.940474,20.09759 22.043105,11.32322 32.158766,21.979434 L 37.068811,17.246167 C 37.068811,17.246167 37.088388,32 37.088388,32 L 22.160133,31.978069 C 22.160133,31.978069 26.997745,27.140456 26.997745,27.140456 C 18.528582,18.264221 13.291696,25.230495 11.500037,31.436501 z"
             style="fill:#404040;"/>
          </a>
         </g>
        </svg>
</svg>
