<?xml version="1.0" encoding="UTF-8" standalone="no"?>
<!DOCTYPE svg PUBLIC "-//W3C//DTD SVG 1.1//EN"
 "http://www.w3.org/Graphics/SVG/1.1/DTD/svg11.dtd">
<!-- Generated by graphviz version 2.38.0 (20140413.2041)
 -->
<!-- Title: Output::execute Pages: 1 -->
<svg width="779pt" height="331pt"
 viewBox="0.00 0.00 779.00 331.00" xmlns="http://www.w3.org/2000/svg" xmlns:xlink="http://www.w3.org/1999/xlink">
<g id="graph0" class="graph" transform="scale(1 1) rotate(0) translate(4 327)">
<title>Output::execute</title>
<!-- Node4 -->
<g id="node1" class="node"><title>Node4</title>
<polygon fill="#bfbfbf" stroke="black" points="0,-57.5 0,-76.5 86,-76.5 86,-57.5 0,-57.5"/>
<text text-anchor="middle" x="43" y="-64.5" font-family="Helvetica,sans-Serif" font-size="10.00">Output::execute</text>
</g>
<!-- Node5 -->
<g id="node2" class="node"><title>Node5</title>
<g id="a_node2"><a xlink:href="class_output.html#a2d62a7d56d1731d8f100ad850642d04c" target="_top" xlink:title="Output::SDCard_print">
<polygon fill="none" stroke="black" points="122,-95.5 122,-114.5 233,-114.5 233,-95.5 122,-95.5"/>
<text text-anchor="middle" x="177.5" y="-102.5" font-family="Helvetica,sans-Serif" font-size="10.00">Output::SDCard_print</text>
</a>
</g>
</g>
<!-- Node4&#45;&gt;Node5 -->
<g id="edge1" class="edge"><title>Node4&#45;&gt;Node5</title>
<path fill="none" stroke="midnightblue" d="M77.4353,-76.589C94.3829,-81.4494 115.163,-87.4091 133.308,-92.6127"/>
<polygon fill="midnightblue" stroke="midnightblue" points="132.498,-96.0216 143.075,-95.4141 134.428,-89.2928 132.498,-96.0216"/>
</g>
<!-- Node6 -->
<g id="node3" class="node"><title>Node6</title>
<g id="a_node3"><a xlink:href="class_output.html#af4bc42d2d3bb3b2a98782f0df0eba133" target="_top" xlink:title="Output::usart0_print">
<polygon fill="none" stroke="black" points="126,-57.5 126,-76.5 229,-76.5 229,-57.5 126,-57.5"/>
<text text-anchor="middle" x="177.5" y="-64.5" font-family="Helvetica,sans-Serif" font-size="10.00">Output::usart0_print</text>
</a>
</g>
</g>
<!-- Node4&#45;&gt;Node6 -->
<g id="edge2" class="edge"><title>Node4&#45;&gt;Node6</title>
<path fill="none" stroke="midnightblue" d="M86.2881,-67C95.6191,-67 105.683,-67 115.587,-67"/>
<polygon fill="midnightblue" stroke="midnightblue" points="115.812,-70.5001 125.812,-67 115.812,-63.5001 115.812,-70.5001"/>
</g>
<!-- Node19 -->
<g id="node16" class="node"><title>Node19</title>
<g id="a_node16"><a xlink:href="class_output.html#a943b106620d1c711e838298a4c4233af" target="_top" xlink:title="Output::usart1_print">
<polygon fill="none" stroke="black" points="126,-19.5 126,-38.5 229,-38.5 229,-19.5 126,-19.5"/>
<text text-anchor="middle" x="177.5" y="-26.5" font-family="Helvetica,sans-Serif" font-size="10.00">Output::usart1_print</text>
</a>
</g>
</g>
<!-- Node4&#45;&gt;Node19 -->
<g id="edge20" class="edge"><title>Node4&#45;&gt;Node19</title>
<path fill="none" stroke="midnightblue" d="M77.4353,-57.411C94.3829,-52.5506 115.163,-46.5909 133.308,-41.3873"/>
<polygon fill="midnightblue" stroke="midnightblue" points="134.428,-44.7072 143.075,-38.5859 132.498,-37.9784 134.428,-44.7072"/>
</g>
<!-- Node7 -->
<g id="node4" class="node"><title>Node7</title>
<g id="a_node4"><a xlink:href="class_sensor.html#a38a47820684e5ff0f61ad32b8afbde45" target="_top" xlink:title="The print_average method print the average&#39;s value in the string. ">
<polygon fill="none" stroke="black" points="269,-120.5 269,-139.5 381,-139.5 381,-120.5 269,-120.5"/>
<text text-anchor="middle" x="325" y="-127.5" font-family="Helvetica,sans-Serif" font-size="10.00">Sensor::print_average</text>
</a>
</g>
</g>
<!-- Node6&#45;&gt;Node7 -->
<g id="edge3" class="edge"><title>Node6&#45;&gt;Node7</title>
<path fill="none" stroke="midnightblue" d="M207.866,-76.5444C216.073,-79.3987 224.947,-82.6622 233,-86 254.748,-95.0139 278.693,-106.664 296.56,-115.712"/>
<polygon fill="midnightblue" stroke="midnightblue" points="295.311,-119.004 305.808,-120.437 298.496,-112.77 295.311,-119.004"/>
</g>
<!-- Node12 -->
<g id="node9" class="node"><title>Node12</title>
<g id="a_node9"><a xlink:href="class_usart.html#ab236d7c399791bbe1431f85e9b60f601" target="_top" xlink:title="USART string sender function. ">
<polygon fill="none" stroke="black" points="702.5,-0.5 702.5,-19.5 767.5,-19.5 767.5,-0.5 702.5,-0.5"/>
<text text-anchor="middle" x="735" y="-7.5" font-family="Helvetica,sans-Serif" font-size="10.00">Usart::print</text>
</a>
</g>
</g>
<!-- Node6&#45;&gt;Node12 -->
<g id="edge19" class="edge"><title>Node6&#45;&gt;Node12</title>
<path fill="none" stroke="midnightblue" d="M221.16,-57.4641C289.649,-42.6942 428.566,-14.9506 548,-5 597.435,-0.881372 654.489,-3.50301 692.235,-6.26056"/>
<polygon fill="midnightblue" stroke="midnightblue" points="692.108,-9.76103 702.346,-7.03644 692.644,-2.78154 692.108,-9.76103"/>
</g>
<!-- Node8 -->
<g id="node5" class="node"><title>Node8</title>
<g id="a_node5"><a xlink:href="class_sensor.html#a4e88d49608387ab4f65734913e514109" target="_top" xlink:title="Sensor::is_enable">
<polygon fill="none" stroke="black" points="417,-120.5 417,-139.5 512,-139.5 512,-120.5 417,-120.5"/>
<text text-anchor="middle" x="464.5" y="-127.5" font-family="Helvetica,sans-Serif" font-size="10.00">Sensor::is_enable</text>
</a>
</g>
</g>
<!-- Node7&#45;&gt;Node8 -->
<g id="edge4" class="edge"><title>Node7&#45;&gt;Node8</title>
<path fill="none" stroke="midnightblue" d="M381.134,-123.369C389.527,-123.221 398.201,-123.211 406.63,-123.34"/>
<polygon fill="midnightblue" stroke="midnightblue" points="406.678,-126.842 416.754,-123.567 406.835,-119.844 406.678,-126.842"/>
</g>
<!-- Node8&#45;&gt;Node7 -->
<g id="edge12" class="edge"><title>Node8&#45;&gt;Node7</title>
<path fill="none" stroke="midnightblue" d="M416.754,-136.433C408.523,-136.678 399.821,-136.781 391.194,-136.742"/>
<polygon fill="midnightblue" stroke="midnightblue" points="391.172,-133.242 381.134,-136.631 391.095,-140.241 391.172,-133.242"/>
</g>
<!-- Node9 -->
<g id="node6" class="node"><title>Node9</title>
<g id="a_node6"><a xlink:href="class_sensor.html#a9478b09a17b24105c0fe5b32e988224a" target="_top" xlink:title="Sensor::print">
<polygon fill="none" stroke="black" points="699,-221.5 699,-240.5 771,-240.5 771,-221.5 699,-221.5"/>
<text text-anchor="middle" x="735" y="-228.5" font-family="Helvetica,sans-Serif" font-size="10.00">Sensor::print</text>
</a>
</g>
</g>
<!-- Node8&#45;&gt;Node9 -->
<g id="edge5" class="edge"><title>Node8&#45;&gt;Node9</title>
<path fill="none" stroke="midnightblue" d="M468.289,-139.611C476.07,-164.408 500.616,-230.388 548,-256 598.387,-283.235 667.279,-261.278 705.503,-244.845"/>
<polygon fill="midnightblue" stroke="midnightblue" points="707.278,-247.886 714.981,-240.612 704.423,-241.495 707.278,-247.886"/>
</g>
<!-- Node10 -->
<g id="node7" class="node"><title>Node10</title>
<g id="a_node7"><a xlink:href="class_sensor.html#a59e815290b2883cea096c8bc613429c0" target="_top" xlink:title="Sensor::read_value">
<polygon fill="none" stroke="black" points="555,-139.5 555,-158.5 656,-158.5 656,-139.5 555,-139.5"/>
<text text-anchor="middle" x="605.5" y="-146.5" font-family="Helvetica,sans-Serif" font-size="10.00">Sensor::read_value</text>
</a>
</g>
</g>
<!-- Node8&#45;&gt;Node10 -->
<g id="edge6" class="edge"><title>Node8&#45;&gt;Node10</title>
<path fill="none" stroke="midnightblue" d="M512.172,-136.38C522.679,-137.816 533.968,-139.359 544.923,-140.856"/>
<polygon fill="midnightblue" stroke="midnightblue" points="544.474,-144.327 554.856,-142.214 545.422,-137.392 544.474,-144.327"/>
</g>
<!-- Node11 -->
<g id="node8" class="node"><title>Node11</title>
<g id="a_node8"><a xlink:href="class_sensor.html#a0e1288d8b8594192f9d65819c185764f" target="_top" xlink:title="This method print the sensor configuration for the sensor. It&#39;s a good idea to overload this function...">
<polygon fill="none" stroke="black" points="553.5,-177.5 553.5,-196.5 657.5,-196.5 657.5,-177.5 553.5,-177.5"/>
<text text-anchor="middle" x="605.5" y="-184.5" font-family="Helvetica,sans-Serif" font-size="10.00">Sensor::print_config</text>
</a>
</g>
</g>
<!-- Node8&#45;&gt;Node11 -->
<g id="edge7" class="edge"><title>Node8&#45;&gt;Node11</title>
<path fill="none" stroke="midnightblue" d="M484.913,-139.659C501.471,-147.724 526.016,-159.27 548,-168 553.23,-170.077 558.787,-172.129 564.297,-174.072"/>
<polygon fill="midnightblue" stroke="midnightblue" points="563.486,-177.495 574.081,-177.436 565.762,-170.875 563.486,-177.495"/>
</g>
<!-- Node13 -->
<g id="node10" class="node"><title>Node13</title>
<g id="a_node10"><a xlink:href="class_sensor.html#ae16fd0cbdda6cfed1deac36f5c7c0a8f" target="_top" xlink:title="This method calculate the average from the data array. ">
<polygon fill="none" stroke="black" points="550,-101.5 550,-120.5 661,-120.5 661,-101.5 550,-101.5"/>
<text text-anchor="middle" x="605.5" y="-108.5" font-family="Helvetica,sans-Serif" font-size="10.00">Sensor::calc_average</text>
</a>
</g>
</g>
<!-- Node8&#45;&gt;Node13 -->
<g id="edge10" class="edge"><title>Node8&#45;&gt;Node13</title>
<path fill="none" stroke="midnightblue" d="M494.301,-120.47C507.478,-117.817 523.668,-115.222 539.541,-113.142"/>
<polygon fill="midnightblue" stroke="midnightblue" points="540.4,-116.562 549.891,-111.854 539.535,-109.616 540.4,-116.562"/>
</g>
<!-- Node14 -->
<g id="node11" class="node"><title>Node14</title>
<g id="a_node11"><a xlink:href="class_sensor.html#aa03d707dfa7562805b77f9040831418b" target="_top" xlink:title="Sensor::print_data\l_array">
<polygon fill="none" stroke="black" points="557.5,-14 557.5,-44 653.5,-44 653.5,-14 557.5,-14"/>
<text text-anchor="start" x="565.5" y="-32" font-family="Helvetica,sans-Serif" font-size="10.00">Sensor::print_data</text>
<text text-anchor="middle" x="605.5" y="-21" font-family="Helvetica,sans-Serif" font-size="10.00">_array</text>
</a>
</g>
</g>
<!-- Node8&#45;&gt;Node14 -->
<g id="edge13" class="edge"><title>Node8&#45;&gt;Node14</title>
<path fill="none" stroke="midnightblue" d="M474.297,-120.01C488.526,-104.316 518.037,-73.6518 548,-54 550.867,-52.1194 553.9,-50.3185 557.011,-48.607"/>
<polygon fill="midnightblue" stroke="midnightblue" points="558.625,-51.7129 565.917,-44.0274 555.424,-45.4876 558.625,-51.7129"/>
</g>
<!-- Node16 -->
<g id="node13" class="node"><title>Node16</title>
<g id="a_node13"><a xlink:href="class_sensor.html#a953410c8a76c3b718349000a11e6160e" target="_top" xlink:title="Load saved parameters for sensors from the eeprom. ">
<polygon fill="none" stroke="black" points="553.5,-63.5 553.5,-82.5 657.5,-82.5 657.5,-63.5 553.5,-63.5"/>
<text text-anchor="middle" x="605.5" y="-70.5" font-family="Helvetica,sans-Serif" font-size="10.00">Sensor::load_param</text>
</a>
</g>
</g>
<!-- Node8&#45;&gt;Node16 -->
<g id="edge16" class="edge"><title>Node8&#45;&gt;Node16</title>
<path fill="none" stroke="midnightblue" d="M484.913,-120.341C501.471,-112.276 526.016,-100.73 548,-92 553.23,-89.9231 558.787,-87.8713 564.297,-85.9277"/>
<polygon fill="midnightblue" stroke="midnightblue" points="565.762,-89.1249 574.081,-82.5638 563.486,-82.5051 565.762,-89.1249"/>
</g>
<!-- Node17 -->
<g id="node14" class="node"><title>Node17</title>
<g id="a_node14"><a xlink:href="class_sensor.html#abf05dcc164ceadf01fa48c32fbaf040a" target="_top" xlink:title="Update saved parameters for sensors in the eeprom. ">
<polygon fill="none" stroke="black" points="548,-303.5 548,-322.5 663,-322.5 663,-303.5 548,-303.5"/>
<text text-anchor="middle" x="605.5" y="-310.5" font-family="Helvetica,sans-Serif" font-size="10.00">Sensor::update_param</text>
</a>
</g>
</g>
<!-- Node8&#45;&gt;Node17 -->
<g id="edge17" class="edge"><title>Node8&#45;&gt;Node17</title>
<path fill="none" stroke="midnightblue" d="M467.999,-139.645C475.5,-166.809 500.307,-244.842 548,-289 552.154,-292.846 557.018,-296.13 562.117,-298.919"/>
<polygon fill="midnightblue" stroke="midnightblue" points="560.92,-302.227 571.448,-303.418 563.961,-295.922 560.92,-302.227"/>
</g>
<!-- Node18 -->
<g id="node15" class="node"><title>Node18</title>
<g id="a_node15"><a xlink:href="class_sensor.html#a4a9eb446ca4c73268ec6d93b959273f9" target="_top" xlink:title="Initialize the eeprom memory. ">
<polygon fill="none" stroke="black" points="561,-216 561,-246 650,-246 650,-216 561,-216"/>
<text text-anchor="start" x="569" y="-234" font-family="Helvetica,sans-Serif" font-size="10.00">Sensor::initialize</text>
<text text-anchor="middle" x="605.5" y="-223" font-family="Helvetica,sans-Serif" font-size="10.00">_param</text>
</a>
</g>
</g>
<!-- Node8&#45;&gt;Node18 -->
<g id="edge18" class="edge"><title>Node8&#45;&gt;Node18</title>
<path fill="none" stroke="midnightblue" d="M474.297,-139.99C488.526,-155.684 518.037,-186.348 548,-206 550.867,-207.881 553.9,-209.681 557.011,-211.393"/>
<polygon fill="midnightblue" stroke="midnightblue" points="555.424,-214.512 565.917,-215.973 558.625,-208.287 555.424,-214.512"/>
</g>
<!-- Node11&#45;&gt;Node9 -->
<g id="edge9" class="edge"><title>Node11&#45;&gt;Node9</title>
<path fill="none" stroke="midnightblue" d="M634.166,-196.547C652.461,-202.861 676.668,-211.215 696.663,-218.115"/>
<polygon fill="midnightblue" stroke="midnightblue" points="695.794,-221.518 706.388,-221.471 698.077,-214.9 695.794,-221.518"/>
</g>
<!-- Node11&#45;&gt;Node12 -->
<g id="edge8" class="edge"><title>Node11&#45;&gt;Node12</title>
<path fill="none" stroke="midnightblue" d="M650.246,-177.391C654.996,-174.939 659.403,-171.862 663,-168 706.495,-121.303 659.7,-79.2794 699,-29 699.814,-27.9582 700.702,-26.966 701.648,-26.0218"/>
<polygon fill="midnightblue" stroke="midnightblue" points="704.036,-28.5991 709.781,-19.6973 699.738,-23.0734 704.036,-28.5991"/>
</g>
<!-- Node13&#45;&gt;Node8 -->
<g id="edge11" class="edge"><title>Node13&#45;&gt;Node8</title>
<path fill="none" stroke="midnightblue" d="M575.569,-120.556C560.114,-123.663 540.541,-126.687 522.2,-128.897"/>
<polygon fill="midnightblue" stroke="midnightblue" points="521.713,-125.43 512.172,-130.036 522.503,-132.385 521.713,-125.43"/>
</g>
<!-- Node14&#45;&gt;Node12 -->
<g id="edge14" class="edge"><title>Node14&#45;&gt;Node12</title>
<path fill="none" stroke="midnightblue" d="M653.614,-21.9791C666.25,-20.0961 679.823,-18.0734 692.152,-16.2361"/>
<polygon fill="midnightblue" stroke="midnightblue" points="692.793,-19.6794 702.168,-14.7436 691.761,-12.7558 692.793,-19.6794"/>
</g>
<!-- Node15 -->
<g id="node12" class="node"><title>Node15</title>
<g id="a_node12"><a xlink:href="class_usart.html#a86c9264f48dabbc3d97fa32d2d02d22d" target="_top" xlink:title="USART char sender function. ">
<polygon fill="none" stroke="black" points="705,-38.5 705,-57.5 765,-57.5 765,-38.5 705,-38.5"/>
<text text-anchor="middle" x="735" y="-45.5" font-family="Helvetica,sans-Serif" font-size="10.00">Usart::set</text>
</a>
</g>
</g>
<!-- Node14&#45;&gt;Node15 -->
<g id="edge15" class="edge"><title>Node14&#45;&gt;Node15</title>
<path fill="none" stroke="midnightblue" d="M653.614,-36.0209C667.16,-38.0395 681.783,-40.2186 694.796,-42.1578"/>
<polygon fill="midnightblue" stroke="midnightblue" points="694.428,-45.6416 704.835,-43.6539 695.46,-38.7181 694.428,-45.6416"/>
</g>
</g>
</svg>
