<?xml version="1.0" encoding="UTF-8" standalone="no"?>
<!DOCTYPE svg PUBLIC "-//W3C//DTD SVG 1.1//EN"
 "http://www.w3.org/Graphics/SVG/1.1/DTD/svg11.dtd">
<!-- Generated by graphviz version 2.38.0 (20140413.2041)
 -->
<!-- Title: FSM::execute Pages: 1 -->
<svg width="202pt" height="104pt"
 viewBox="0.00 0.00 202.00 104.00" xmlns="http://www.w3.org/2000/svg" xmlns:xlink="http://www.w3.org/1999/xlink">
<g id="graph0" class="graph" transform="scale(1 1) rotate(0) translate(4 100)">
<title>FSM::execute</title>
<!-- Node18 -->
<g id="node1" class="node"><title>Node18</title>
<polygon fill="#bfbfbf" stroke="black" points="0,-38.5 0,-57.5 78,-57.5 78,-38.5 0,-38.5"/>
<text text-anchor="middle" x="39" y="-45.5" font-family="Helvetica,sans-Serif" font-size="10.00">FSM::execute</text>
</g>
<!-- Node19 -->
<g id="node2" class="node"><title>Node19</title>
<g id="a_node2"><a xlink:href="class_state.html#aa272f704a5f33920524fb57c80339b2f" target="_top" xlink:title="State::execute">
<polygon fill="none" stroke="black" points="114,-76.5 114,-95.5 194,-95.5 194,-76.5 114,-76.5"/>
<text text-anchor="middle" x="154" y="-83.5" font-family="Helvetica,sans-Serif" font-size="10.00">State::execute</text>
</a>
</g>
</g>
<!-- Node18&#45;&gt;Node19 -->
<g id="edge1" class="edge"><title>Node18&#45;&gt;Node19</title>
<path fill="none" stroke="midnightblue" d="M68.5147,-57.589C82.5666,-62.3144 99.7082,-68.0789 114.87,-73.1774"/>
<polygon fill="midnightblue" stroke="midnightblue" points="113.9,-76.544 124.494,-76.4141 116.132,-69.9091 113.9,-76.544"/>
</g>
<!-- Node20 -->
<g id="node3" class="node"><title>Node20</title>
<g id="a_node3"><a xlink:href="class_state.html#ac150b47c0f2b53152671d0698a890981" target="_top" xlink:title="State::print">
<polygon fill="none" stroke="black" points="121.5,-38.5 121.5,-57.5 186.5,-57.5 186.5,-38.5 121.5,-38.5"/>
<text text-anchor="middle" x="154" y="-45.5" font-family="Helvetica,sans-Serif" font-size="10.00">State::print</text>
</a>
</g>
</g>
<!-- Node18&#45;&gt;Node20 -->
<g id="edge2" class="edge"><title>Node18&#45;&gt;Node20</title>
<path fill="none" stroke="midnightblue" d="M78.2566,-48C88.8342,-48 100.367,-48 111.138,-48"/>
<polygon fill="midnightblue" stroke="midnightblue" points="111.175,-51.5001 121.175,-48 111.175,-44.5001 111.175,-51.5001"/>
</g>
<!-- Node21 -->
<g id="node4" class="node"><title>Node21</title>
<g id="a_node4"><a xlink:href="class_usart.html#ab236d7c399791bbe1431f85e9b60f601" target="_top" xlink:title="USART string sender function. ">
<polygon fill="none" stroke="black" points="121.5,-0.5 121.5,-19.5 186.5,-19.5 186.5,-0.5 121.5,-0.5"/>
<text text-anchor="middle" x="154" y="-7.5" font-family="Helvetica,sans-Serif" font-size="10.00">Usart::print</text>
</a>
</g>
</g>
<!-- Node18&#45;&gt;Node21 -->
<g id="edge3" class="edge"><title>Node18&#45;&gt;Node21</title>
<path fill="none" stroke="midnightblue" d="M68.5147,-38.411C82.5666,-33.6856 99.7082,-27.9211 114.87,-22.8226"/>
<polygon fill="midnightblue" stroke="midnightblue" points="116.132,-26.0909 124.494,-19.5859 113.9,-19.456 116.132,-26.0909"/>
</g>
</g>
</svg>
