<?xml version="1.0" encoding="UTF-8" standalone="no"?>
<!DOCTYPE svg PUBLIC "-//W3C//DTD SVG 1.1//EN"
 "http://www.w3.org/Graphics/SVG/1.1/DTD/svg11.dtd">
<!-- Generated by graphviz version 2.38.0 (20140413.2041)
 -->
<!-- Title: Power::print_config Pages: 1 -->
<svg width="621pt" height="66pt"
 viewBox="0.00 0.00 621.00 66.00" xmlns="http://www.w3.org/2000/svg" xmlns:xlink="http://www.w3.org/1999/xlink">
<g id="graph0" class="graph" transform="scale(1 1) rotate(0) translate(4 62)">
<title>Power::print_config</title>
<!-- Node46 -->
<g id="node1" class="node"><title>Node46</title>
<polygon fill="#bfbfbf" stroke="black" points="0,-19.5 0,-38.5 101,-38.5 101,-19.5 0,-19.5"/>
<text text-anchor="middle" x="50.5" y="-26.5" font-family="Helvetica,sans-Serif" font-size="10.00">Power::print_config</text>
</g>
<!-- Node47 -->
<g id="node2" class="node"><title>Node47</title>
<g id="a_node2"><a xlink:href="class_config.html#a975933ecde91dc436d4ca39464cfd25f" target="_top" xlink:title="display all config on USART0 ">
<polygon fill="none" stroke="black" points="146.5,-38.5 146.5,-57.5 228.5,-57.5 228.5,-38.5 146.5,-38.5"/>
<text text-anchor="middle" x="187.5" y="-45.5" font-family="Helvetica,sans-Serif" font-size="10.00">Config::display</text>
</a>
</g>
</g>
<!-- Node46&#45;&gt;Node47 -->
<g id="edge1" class="edge"><title>Node46&#45;&gt;Node47</title>
<path fill="none" stroke="midnightblue" d="M110.928,-37.364C122.88,-39.0461 135.175,-40.7765 146.284,-42.34"/>
<polygon fill="midnightblue" stroke="midnightblue" points="111.393,-33.8949 101.002,-35.967 110.417,-40.8266 111.393,-33.8949"/>
</g>
<!-- Node52 -->
<g id="node7" class="node"><title>Node52</title>
<g id="a_node7"><a xlink:href="class_power.html#a1e7595ee0b3b0439d979ffeab785d0d8" target="_top" xlink:title="Power::set_i_offset">
<polygon fill="none" stroke="black" points="137,-0.5 137,-19.5 238,-19.5 238,-0.5 137,-0.5"/>
<text text-anchor="middle" x="187.5" y="-7.5" font-family="Helvetica,sans-Serif" font-size="10.00">Power::set_i_offset</text>
</a>
</g>
</g>
<!-- Node46&#45;&gt;Node52 -->
<g id="edge6" class="edge"><title>Node46&#45;&gt;Node52</title>
<path fill="none" stroke="midnightblue" d="M110.928,-20.636C119.481,-19.4324 128.208,-18.204 136.552,-17.0298"/>
<polygon fill="midnightblue" stroke="midnightblue" points="110.417,-17.1734 101.002,-22.033 111.393,-24.1051 110.417,-17.1734"/>
</g>
<!-- Node48 -->
<g id="node3" class="node"><title>Node48</title>
<g id="a_node3"><a xlink:href="class_config.html#a5ae6c4f7255e895e7384fc2a4baab160" target="_top" xlink:title="Config::endString">
<polygon fill="none" stroke="black" points="274,-38.5 274,-57.5 366,-57.5 366,-38.5 274,-38.5"/>
<text text-anchor="middle" x="320" y="-45.5" font-family="Helvetica,sans-Serif" font-size="10.00">Config::endString</text>
</a>
</g>
</g>
<!-- Node47&#45;&gt;Node48 -->
<g id="edge2" class="edge"><title>Node47&#45;&gt;Node48</title>
<path fill="none" stroke="midnightblue" d="M238.989,-48C250.415,-48 262.477,-48 273.674,-48"/>
<polygon fill="midnightblue" stroke="midnightblue" points="238.719,-44.5001 228.719,-48 238.719,-51.5001 238.719,-44.5001"/>
</g>
<!-- Node51 -->
<g id="node6" class="node"><title>Node51</title>
<g id="a_node6"><a xlink:href="class_config.html#a2a806f322b0d533aabdb8e796d3b1033" target="_top" xlink:title="The execute method is the config &quot;main function&quot; In this method, sentence from the uart are process e...">
<polygon fill="none" stroke="black" points="277,-0.5 277,-19.5 363,-19.5 363,-0.5 277,-0.5"/>
<text text-anchor="middle" x="320" y="-7.5" font-family="Helvetica,sans-Serif" font-size="10.00">Config::execute</text>
</a>
</g>
</g>
<!-- Node47&#45;&gt;Node51 -->
<g id="edge5" class="edge"><title>Node47&#45;&gt;Node51</title>
<path fill="none" stroke="midnightblue" d="M231.052,-35.6094C248.923,-30.4055 269.39,-24.4459 286.08,-19.5859"/>
<polygon fill="midnightblue" stroke="midnightblue" points="230.053,-32.2547 221.431,-38.411 232.01,-38.9756 230.053,-32.2547"/>
</g>
<!-- Node49 -->
<g id="node4" class="node"><title>Node49</title>
<g id="a_node4"><a xlink:href="class_f_s_m.html#a3819be8e9fe92b750f47b9731e92f254" target="_top" xlink:title="Call when a string from usart0 finish by &quot;\r\n&quot;. ">
<polygon fill="none" stroke="black" points="402,-38.5 402,-57.5 539,-57.5 539,-38.5 402,-38.5"/>
<text text-anchor="middle" x="470.5" y="-45.5" font-family="Helvetica,sans-Serif" font-size="10.00">FSM::character_processing</text>
</a>
</g>
</g>
<!-- Node48&#45;&gt;Node49 -->
<g id="edge3" class="edge"><title>Node48&#45;&gt;Node49</title>
<path fill="none" stroke="midnightblue" d="M376.633,-48C384.908,-48 393.513,-48 401.999,-48"/>
<polygon fill="midnightblue" stroke="midnightblue" points="376.362,-44.5001 366.362,-48 376.362,-51.5001 376.362,-44.5001"/>
</g>
<!-- Node50 -->
<g id="node5" class="node"><title>Node50</title>
<g id="a_node5"><a xlink:href="main_8cpp.html#ae66f6b31b5ad750f1fe042a706a4e3d4" target="_top" xlink:title="main">
<polygon fill="none" stroke="black" points="575,-38.5 575,-57.5 613,-57.5 613,-38.5 575,-38.5"/>
<text text-anchor="middle" x="594" y="-45.5" font-family="Helvetica,sans-Serif" font-size="10.00">main</text>
</a>
</g>
</g>
<!-- Node49&#45;&gt;Node50 -->
<g id="edge4" class="edge"><title>Node49&#45;&gt;Node50</title>
<path fill="none" stroke="midnightblue" d="M549.013,-48C558.457,-48 567.315,-48 574.572,-48"/>
<polygon fill="midnightblue" stroke="midnightblue" points="549.001,-44.5001 539.001,-48 549.001,-51.5001 549.001,-44.5001"/>
</g>
<!-- Node52&#45;&gt;Node51 -->
<g id="edge7" class="edge"><title>Node52&#45;&gt;Node51</title>
<path fill="none" stroke="midnightblue" d="M248.448,-10C257.975,-10 267.653,-10 276.664,-10"/>
<polygon fill="midnightblue" stroke="midnightblue" points="248.209,-6.5001 238.209,-10 248.209,-13.5001 248.209,-6.5001"/>
</g>
</g>
</svg>
