<?xml version="1.0" encoding="UTF-8" standalone="no"?>
<!DOCTYPE svg PUBLIC "-//W3C//DTD SVG 1.1//EN"
 "http://www.w3.org/Graphics/SVG/1.1/DTD/svg11.dtd">
<!-- Generated by graphviz version 2.38.0 (20140413.2041)
 -->
<!-- Title: Config::initialize_eeprom Pages: 1 -->
<svg width="612pt" height="72pt"
 viewBox="0.00 0.00 612.00 71.50" xmlns="http://www.w3.org/2000/svg" xmlns:xlink="http://www.w3.org/1999/xlink">
<g id="graph0" class="graph" transform="scale(1 1) rotate(0) translate(4 67.5)">
<title>Config::initialize_eeprom</title>
<!-- Node46 -->
<g id="node1" class="node"><title>Node46</title>
<polygon fill="#bfbfbf" stroke="black" points="0,-0.5 0,-30.5 86,-30.5 86,-0.5 0,-0.5"/>
<text text-anchor="start" x="8" y="-18.5" font-family="Helvetica,sans-Serif" font-size="10.00">Config::initialize</text>
<text text-anchor="middle" x="43" y="-7.5" font-family="Helvetica,sans-Serif" font-size="10.00">_eeprom</text>
</g>
<!-- Node47 -->
<g id="node2" class="node"><title>Node47</title>
<g id="a_node2"><a xlink:href="class_config.html#a5ae6c4f7255e895e7384fc2a4baab160" target="_top" xlink:title="Config::endString">
<polygon fill="none" stroke="black" points="265,-44 265,-63 357,-63 357,-44 265,-44"/>
<text text-anchor="middle" x="311" y="-51" font-family="Helvetica,sans-Serif" font-size="10.00">Config::endString</text>
</a>
</g>
</g>
<!-- Node46&#45;&gt;Node47 -->
<g id="edge1" class="edge"><title>Node46&#45;&gt;Node47</title>
<path fill="none" stroke="midnightblue" d="M96.199,-29.2675C104.778,-31.2265 113.607,-33.0608 122,-34.5 170.5,-42.8168 226.709,-47.9105 264.941,-50.7028"/>
<polygon fill="midnightblue" stroke="midnightblue" points="96.8201,-25.818 86.2835,-26.9268 95.2118,-32.6308 96.8201,-25.818"/>
</g>
<!-- Node50 -->
<g id="node5" class="node"><title>Node50</title>
<g id="a_node5"><a xlink:href="class_config.html#ab55107c3371b6c41be6688c0989993c7" target="_top" xlink:title="Load saved config data from the eeprom. ">
<polygon fill="none" stroke="black" points="122,-6 122,-25 229,-25 229,-6 122,-6"/>
<text text-anchor="middle" x="175.5" y="-13" font-family="Helvetica,sans-Serif" font-size="10.00">Config::load_eeprom</text>
</a>
</g>
</g>
<!-- Node46&#45;&gt;Node50 -->
<g id="edge4" class="edge"><title>Node46&#45;&gt;Node50</title>
<path fill="none" stroke="midnightblue" d="M96.0606,-8.87409C104.457,-8.71413 113.157,-8.70882 121.574,-8.85816"/>
<polygon fill="midnightblue" stroke="midnightblue" points="95.911,-5.37676 86.0094,-9.14592 96.1003,-12.3742 95.911,-5.37676"/>
</g>
<!-- Node48 -->
<g id="node3" class="node"><title>Node48</title>
<g id="a_node3"><a xlink:href="class_f_s_m.html#a3819be8e9fe92b750f47b9731e92f254" target="_top" xlink:title="Call when a string from usart0 finish by &quot;\r\n&quot;. ">
<polygon fill="none" stroke="black" points="393,-44 393,-63 530,-63 530,-44 393,-44"/>
<text text-anchor="middle" x="461.5" y="-51" font-family="Helvetica,sans-Serif" font-size="10.00">FSM::character_processing</text>
</a>
</g>
</g>
<!-- Node47&#45;&gt;Node48 -->
<g id="edge2" class="edge"><title>Node47&#45;&gt;Node48</title>
<path fill="none" stroke="midnightblue" d="M367.633,-53.5C375.908,-53.5 384.513,-53.5 392.999,-53.5"/>
<polygon fill="midnightblue" stroke="midnightblue" points="367.362,-50.0001 357.362,-53.5 367.362,-57.0001 367.362,-50.0001"/>
</g>
<!-- Node49 -->
<g id="node4" class="node"><title>Node49</title>
<g id="a_node4"><a xlink:href="main_8cpp.html#ae66f6b31b5ad750f1fe042a706a4e3d4" target="_top" xlink:title="main">
<polygon fill="none" stroke="black" points="566,-44 566,-63 604,-63 604,-44 566,-44"/>
<text text-anchor="middle" x="585" y="-51" font-family="Helvetica,sans-Serif" font-size="10.00">main</text>
</a>
</g>
</g>
<!-- Node48&#45;&gt;Node49 -->
<g id="edge3" class="edge"><title>Node48&#45;&gt;Node49</title>
<path fill="none" stroke="midnightblue" d="M540.013,-53.5C549.457,-53.5 558.315,-53.5 565.572,-53.5"/>
<polygon fill="midnightblue" stroke="midnightblue" points="540.001,-50.0001 530.001,-53.5 540.001,-57.0001 540.001,-50.0001"/>
</g>
<!-- Node50&#45;&gt;Node46 -->
<g id="edge5" class="edge"><title>Node50&#45;&gt;Node46</title>
<path fill="none" stroke="midnightblue" d="M111.488,-22.2465C102.845,-22.2737 94.1496,-22.143 86.0094,-21.8541"/>
<polygon fill="midnightblue" stroke="midnightblue" points="111.61,-25.7455 121.574,-22.1418 111.538,-18.7459 111.61,-25.7455"/>
</g>
<!-- Node50&#45;&gt;Node47 -->
<g id="edge6" class="edge"><title>Node50&#45;&gt;Node47</title>
<path fill="none" stroke="midnightblue" d="M220.03,-27.8906C238.312,-33.0945 259.249,-39.0541 276.323,-43.9141"/>
<polygon fill="midnightblue" stroke="midnightblue" points="220.764,-24.4605 210.188,-25.089 218.847,-31.1931 220.764,-24.4605"/>
</g>
<!-- Node51 -->
<g id="node6" class="node"><title>Node51</title>
<g id="a_node6"><a xlink:href="class_f_s_m.html#a2fccf1c016c43e4fa4ee512311bf9d7d" target="_top" xlink:title="Class constructor. ">
<polygon fill="none" stroke="black" points="278.5,-6 278.5,-25 343.5,-25 343.5,-6 278.5,-6"/>
<text text-anchor="middle" x="311" y="-13" font-family="Helvetica,sans-Serif" font-size="10.00">FSM::FSM</text>
</a>
</g>
</g>
<!-- Node50&#45;&gt;Node51 -->
<g id="edge7" class="edge"><title>Node50&#45;&gt;Node51</title>
<path fill="none" stroke="midnightblue" d="M239.502,-15.5C252.992,-15.5 266.687,-15.5 278.373,-15.5"/>
<polygon fill="midnightblue" stroke="midnightblue" points="239.263,-12.0001 229.263,-15.5 239.263,-19.0001 239.263,-12.0001"/>
</g>
</g>
</svg>
