<?xml version="1.0" encoding="UTF-8" standalone="no"?>
<!DOCTYPE svg PUBLIC "-//W3C//DTD SVG 1.1//EN"
 "http://www.w3.org/Graphics/SVG/1.1/DTD/svg11.dtd">
<!-- Generated by graphviz version 2.38.0 (20140413.2041)
 -->
<!-- Title: Config::endString Pages: 1 -->
<!--zoomable 220 -->
<svg id="main" version="1.1" xmlns="http://www.w3.org/2000/svg" xmlns:xlink="http://www.w3.org/1999/xlink" xml:space="preserve" onload="init(evt)">
<style type="text/css"><![CDATA[
.edge:hover path { stroke: red; }
.edge:hover polygon { stroke: red; fill: red; }
]]></style>
<script type="text/javascript"><![CDATA[
var edges = document.getElementsByTagName('g');
if (edges && edges.length) {
  for (var i=0;i<edges.length;i++) {
    if (edges[i].id.substr(0,4)=='edge') {
      edges[i].setAttribute('class','edge');
    }
  }
}
]]></script>
        <defs>
                <circle id="rim" cx="0" cy="0" r="7"/>
                <circle id="rim2" cx="0" cy="0" r="3.5"/>
                <g id="zoomPlus">
                        <use xlink:href="#rim" fill="#404040">
                                <set attributeName="fill" to="#808080" begin="zoomplus.mouseover" end="zoomplus.mouseout"/>
                        </use>
                        <path d="M-4,0h8M0,-4v8" fill="none" stroke="white" stroke-width="1.5" pointer-events="none"/>
                </g>
                <g id="zoomMin">
                        <use xlink:href="#rim" fill="#404040">
                                <set attributeName="fill" to="#808080" begin="zoomminus.mouseover" end="zoomminus.mouseout"/>
                        </use>
                        <path d="M-4,0h8" fill="none" stroke="white" stroke-width="1.5" pointer-events="none"/>
                </g>
                <g id="dirArrow">
                        <path fill="none" stroke="white" stroke-width="1.5" d="M0,-3.0v7 M-2.5,-0.5L0,-3.0L2.5,-0.5"/>
                </g>
               <g id="resetDef">
                       <use xlink:href="#rim2" fill="#404040">
                               <set attributeName="fill" to="#808080" begin="reset.mouseover" end="reset.mouseout"/>
                       </use>
               </g>
        </defs>

<script type="text/javascript">
var viewWidth = 507;
var viewHeight = 220;
var sectionId = 'dynsection-6';
</script>
<script xlink:href="svgpan.js"/>
<svg id="graph" class="graph">
<g id="viewport">
<title>Config::endString</title>
<!-- Node31 -->
<g id="node1" class="node"><title>Node31</title>
<polygon fill="#bfbfbf" stroke="black" points="0,-97.682 0,-116.682 92,-116.682 92,-97.682 0,-97.682"/>
<text text-anchor="middle" x="46" y="-104.682" font-family="Helvetica,sans-Serif" font-size="10.00">Config::endString</text>
</g>
<!-- Node32 -->
<g id="node2" class="node"><title>Node32</title>
<g id="a_node2"><a xlink:href="class_config.html#a3f8d043789557191686ae632ebe6a571" target="_top" xlink:title="add c to the end of request ">
<polygon fill="none" stroke="black" points="128,-192.682 128,-211.682 243,-211.682 243,-192.682 128,-192.682"/>
<text text-anchor="middle" x="185.5" y="-199.682" font-family="Helvetica,sans-Serif" font-size="10.00">Config::addToRequest</text>
</a>
</g>
</g>
<!-- Node31&#45;&gt;Node32 -->
<g id="edge1" class="edge"><title>Node31&#45;&gt;Node32</title>
<path fill="none" stroke="midnightblue" d="M54.7364,-116.736C68.0969,-132.652 97.0523,-164.674 128,-183.182 131.449,-185.244 135.151,-187.118 138.95,-188.813"/>
<polygon fill="midnightblue" stroke="midnightblue" points="137.923,-192.173 148.507,-192.664 140.54,-185.68 137.923,-192.173"/>
</g>
<!-- Node33 -->
<g id="node3" class="node"><title>Node33</title>
<g id="a_node3"><a xlink:href="class_config.html#a890e1d585e9ae670a6cccaf196250870" target="_top" xlink:title="Config::atoc">
<polygon fill="none" stroke="black" points="150.5,-154.682 150.5,-173.682 220.5,-173.682 220.5,-154.682 150.5,-154.682"/>
<text text-anchor="middle" x="185.5" y="-161.682" font-family="Helvetica,sans-Serif" font-size="10.00">Config::atoc</text>
</a>
</g>
</g>
<!-- Node31&#45;&gt;Node33 -->
<g id="edge2" class="edge"><title>Node31&#45;&gt;Node33</title>
<path fill="none" stroke="midnightblue" d="M65.7152,-116.709C81.9619,-124.797 106.232,-136.449 128,-145.182 133.223,-147.277 138.776,-149.34 144.283,-151.288"/>
<polygon fill="midnightblue" stroke="midnightblue" points="143.471,-154.711 154.066,-154.657 145.75,-148.092 143.471,-154.711"/>
</g>
<!-- Node34 -->
<g id="node4" class="node"><title>Node34</title>
<g id="a_node4"><a xlink:href="class_config.html#a975933ecde91dc436d4ca39464cfd25f" target="_top" xlink:title="display all config on USART0 ">
<polygon fill="none" stroke="black" points="144.5,-116.682 144.5,-135.682 226.5,-135.682 226.5,-116.682 144.5,-116.682"/>
<text text-anchor="middle" x="185.5" y="-123.682" font-family="Helvetica,sans-Serif" font-size="10.00">Config::display</text>
</a>
</g>
</g>
<!-- Node31&#45;&gt;Node34 -->
<g id="edge3" class="edge"><title>Node31&#45;&gt;Node34</title>
<path fill="none" stroke="midnightblue" d="M92.0226,-113.403C105.504,-115.266 120.372,-117.321 134.172,-119.228"/>
<polygon fill="midnightblue" stroke="midnightblue" points="134.09,-122.749 144.475,-120.651 135.049,-115.815 134.09,-122.749"/>
</g>
<!-- Node41 -->
<g id="node11" class="node"><title>Node41</title>
<g id="a_node11"><a xlink:href="class_config.html#ad634dbd3d1afb02eac176fd4f0150614" target="_top" xlink:title="Initialize the eeprom memory. ">
<polygon fill="none" stroke="black" points="142.5,-29.182 142.5,-59.182 228.5,-59.182 228.5,-29.182 142.5,-29.182"/>
<text text-anchor="start" x="150.5" y="-47.182" font-family="Helvetica,sans-Serif" font-size="10.00">Config::initialize</text>
<text text-anchor="middle" x="185.5" y="-36.182" font-family="Helvetica,sans-Serif" font-size="10.00">_logger</text>
</a>
</g>
</g>
<!-- Node31&#45;&gt;Node41 -->
<g id="edge13" class="edge"><title>Node31&#45;&gt;Node41</title>
<path fill="none" stroke="midnightblue" d="M67.8833,-97.6137C87.6019,-88.579 117.75,-74.7657 142.452,-63.4475"/>
<polygon fill="midnightblue" stroke="midnightblue" points="143.987,-66.5944 151.62,-59.247 141.071,-60.2306 143.987,-66.5944"/>
</g>
<!-- Node42 -->
<g id="node12" class="node"><title>Node42</title>
<g id="a_node12"><a xlink:href="class_config.html#a4cda6b3fcf08b798afe3bf1311450b0c" target="_top" xlink:title="Update saved config data in the eeprom. ">
<polygon fill="none" stroke="black" points="279,-40.682 279,-59.682 391,-59.682 391,-40.682 279,-40.682"/>
<text text-anchor="middle" x="335" y="-47.682" font-family="Helvetica,sans-Serif" font-size="10.00">Config::update_logger</text>
</a>
</g>
</g>
<!-- Node31&#45;&gt;Node42 -->
<g id="edge18" class="edge"><title>Node31&#45;&gt;Node42</title>
<path fill="none" stroke="midnightblue" d="M92.1595,-98.213C141.795,-88.3552 221.675,-72.4905 275.932,-61.7147"/>
<polygon fill="midnightblue" stroke="midnightblue" points="276.625,-65.1455 285.752,-59.7644 275.261,-58.2796 276.625,-65.1455"/>
</g>
<!-- Node43 -->
<g id="node13" class="node"><title>Node43</title>
<g id="a_node13"><a xlink:href="class_config.html#ab2f7c3fc31f5a2c4e115860474dd8f55" target="_top" xlink:title="Load saved config data from the eeprom. ">
<polygon fill="none" stroke="black" points="284.5,-2.682 284.5,-21.682 385.5,-21.682 385.5,-2.682 284.5,-2.682"/>
<text text-anchor="middle" x="335" y="-9.682" font-family="Helvetica,sans-Serif" font-size="10.00">Config::load_logger</text>
</a>
</g>
</g>
<!-- Node31&#45;&gt;Node43 -->
<g id="edge17" class="edge"><title>Node31&#45;&gt;Node43</title>
<path fill="none" stroke="midnightblue" d="M52.3373,-97.4513C63.4659,-78.2917 91.2017,-36.0754 128,-19.182 173.763,1.8272 231.459,1.85467 274.142,-2.38095"/>
<polygon fill="midnightblue" stroke="midnightblue" points="273.782,-5.86239 284.104,-3.47322 274.545,1.09592 273.782,-5.86239"/>
</g>
<!-- Node35 -->
<g id="node5" class="node"><title>Node35</title>
<g id="a_node5"><a xlink:href="class_usart.html#ab236d7c399791bbe1431f85e9b60f601" target="_top" xlink:title="USART string sender function. ">
<polygon fill="none" stroke="black" points="430.5,-116.682 430.5,-135.682 495.5,-135.682 495.5,-116.682 430.5,-116.682"/>
<text text-anchor="middle" x="463" y="-123.682" font-family="Helvetica,sans-Serif" font-size="10.00">Usart::print</text>
</a>
</g>
</g>
<!-- Node34&#45;&gt;Node35 -->
<g id="edge4" class="edge"><title>Node34&#45;&gt;Node35</title>
<path fill="none" stroke="midnightblue" d="M226.56,-126.182C278.219,-126.182 367.642,-126.182 420.154,-126.182"/>
<polygon fill="midnightblue" stroke="midnightblue" points="420.458,-129.682 430.457,-126.182 420.457,-122.682 420.458,-129.682"/>
</g>
<!-- Node36 -->
<g id="node6" class="node"><title>Node36</title>
<g id="a_node6"><a xlink:href="class_sensor.html#a0e1288d8b8594192f9d65819c185764f" target="_top" xlink:title="This method print the sensor configuration for the sensor. It&#39;s a good idea to overload this function...">
<polygon fill="none" stroke="black" points="283,-192.682 283,-211.682 387,-211.682 387,-192.682 283,-192.682"/>
<text text-anchor="middle" x="335" y="-199.682" font-family="Helvetica,sans-Serif" font-size="10.00">Sensor::print_config</text>
</a>
</g>
</g>
<!-- Node34&#45;&gt;Node36 -->
<g id="edge5" class="edge"><title>Node34&#45;&gt;Node36</title>
<path fill="none" stroke="midnightblue" d="M223.563,-135.744C230.303,-138.278 237.069,-141.394 243,-145.182 262.606,-157.705 259.445,-170.578 279,-183.182 282.113,-185.188 285.462,-187.009 288.915,-188.657"/>
<polygon fill="midnightblue" stroke="midnightblue" points="287.64,-191.919 298.212,-192.624 290.387,-185.48 287.64,-191.919"/>
</g>
<!-- Node38 -->
<g id="node8" class="node"><title>Node38</title>
<g id="a_node8"><a xlink:href="class_r_t_c.html#a59f014e14e774bf372dcf0d5d64e6717" target="_top" xlink:title="RTC::print_config">
<polygon fill="none" stroke="black" points="288,-78.682 288,-97.682 382,-97.682 382,-78.682 288,-78.682"/>
<text text-anchor="middle" x="335" y="-85.682" font-family="Helvetica,sans-Serif" font-size="10.00">RTC::print_config</text>
</a>
</g>
</g>
<!-- Node34&#45;&gt;Node38 -->
<g id="edge8" class="edge"><title>Node34&#45;&gt;Node38</title>
<path fill="none" stroke="midnightblue" d="M223.72,-116.593C243.009,-111.624 266.758,-105.505 287.271,-100.221"/>
<polygon fill="midnightblue" stroke="midnightblue" points="288.237,-103.586 297.047,-97.702 286.49,-96.8076 288.237,-103.586"/>
</g>
<!-- Node39 -->
<g id="node9" class="node"><title>Node39</title>
<g id="a_node9"><a xlink:href="class_power.html#afd1c8cab1d4549eb45be61bdd34ae97d" target="_top" xlink:title="This method print the configuration for the power measurement. It&#39;s a good idea to overload this func...">
<polygon fill="none" stroke="black" points="284.5,-154.682 284.5,-173.682 385.5,-173.682 385.5,-154.682 284.5,-154.682"/>
<text text-anchor="middle" x="335" y="-161.682" font-family="Helvetica,sans-Serif" font-size="10.00">Power::print_config</text>
</a>
</g>
</g>
<!-- Node34&#45;&gt;Node39 -->
<g id="edge10" class="edge"><title>Node34&#45;&gt;Node39</title>
<path fill="none" stroke="midnightblue" d="M223.72,-135.771C243.009,-140.74 266.758,-146.859 287.271,-152.143"/>
<polygon fill="midnightblue" stroke="midnightblue" points="286.49,-155.556 297.047,-154.662 288.237,-148.778 286.49,-155.556"/>
</g>
<!-- Node36&#45;&gt;Node35 -->
<g id="edge6" class="edge"><title>Node36&#45;&gt;Node35</title>
<path fill="none" stroke="midnightblue" d="M371.788,-192.624C378.445,-190.079 385.141,-186.958 391,-183.182 410.555,-170.578 408.548,-159.352 427,-145.182 428.827,-143.779 430.771,-142.42 432.77,-141.116"/>
<polygon fill="midnightblue" stroke="midnightblue" points="434.903,-143.92 441.704,-135.797 431.322,-137.905 434.903,-143.92"/>
</g>
<!-- Node37 -->
<g id="node7" class="node"><title>Node37</title>
<g id="a_node7"><a xlink:href="class_sensor.html#a9478b09a17b24105c0fe5b32e988224a" target="_top" xlink:title="Sensor::print">
<polygon fill="none" stroke="black" points="427,-192.682 427,-211.682 499,-211.682 499,-192.682 427,-192.682"/>
<text text-anchor="middle" x="463" y="-199.682" font-family="Helvetica,sans-Serif" font-size="10.00">Sensor::print</text>
</a>
</g>
</g>
<!-- Node36&#45;&gt;Node37 -->
<g id="edge7" class="edge"><title>Node36&#45;&gt;Node37</title>
<path fill="none" stroke="midnightblue" d="M387.249,-202.182C397.056,-202.182 407.256,-202.182 416.854,-202.182"/>
<polygon fill="midnightblue" stroke="midnightblue" points="416.986,-205.682 426.986,-202.182 416.986,-198.682 416.986,-205.682"/>
</g>
<!-- Node38&#45;&gt;Node35 -->
<g id="edge9" class="edge"><title>Node38&#45;&gt;Node35</title>
<path fill="none" stroke="midnightblue" d="M367.795,-97.771C383.762,-102.586 403.307,-108.481 420.447,-113.65"/>
<polygon fill="midnightblue" stroke="midnightblue" points="419.63,-117.059 430.215,-116.596 421.652,-110.358 419.63,-117.059"/>
</g>
<!-- Node39&#45;&gt;Node35 -->
<g id="edge11" class="edge"><title>Node39&#45;&gt;Node35</title>
<path fill="none" stroke="midnightblue" d="M367.795,-154.593C383.762,-149.778 403.307,-143.883 420.447,-138.714"/>
<polygon fill="midnightblue" stroke="midnightblue" points="421.652,-142.006 430.215,-135.768 419.63,-135.304 421.652,-142.006"/>
</g>
<!-- Node40 -->
<g id="node10" class="node"><title>Node40</title>
<g id="a_node10"><a xlink:href="class_power.html#a3a915a3ea9b9017cae450959ef8af3de" target="_top" xlink:title="Power::print">
<polygon fill="none" stroke="black" points="428.5,-154.682 428.5,-173.682 497.5,-173.682 497.5,-154.682 428.5,-154.682"/>
<text text-anchor="middle" x="463" y="-161.682" font-family="Helvetica,sans-Serif" font-size="10.00">Power::print</text>
</a>
</g>
</g>
<!-- Node39&#45;&gt;Node40 -->
<g id="edge12" class="edge"><title>Node39&#45;&gt;Node40</title>
<path fill="none" stroke="midnightblue" d="M385.799,-164.182C396.529,-164.182 407.795,-164.182 418.274,-164.182"/>
<polygon fill="midnightblue" stroke="midnightblue" points="418.441,-167.682 428.441,-164.182 418.441,-160.682 418.441,-167.682"/>
</g>
<!-- Node41&#45;&gt;Node42 -->
<g id="edge14" class="edge"><title>Node41&#45;&gt;Node42</title>
<path fill="none" stroke="midnightblue" d="M228.768,-45.9014C241.182,-46.4063 255.061,-46.9709 268.564,-47.5202"/>
<polygon fill="midnightblue" stroke="midnightblue" points="268.652,-51.0266 278.786,-47.936 268.936,-44.0323 268.652,-51.0266"/>
</g>
<!-- Node41&#45;&gt;Node43 -->
<g id="edge15" class="edge"><title>Node41&#45;&gt;Node43</title>
<path fill="none" stroke="midnightblue" d="M227.587,-29.1448C242.062,-25.4113 258.64,-21.6427 274.334,-18.4871"/>
<polygon fill="midnightblue" stroke="midnightblue" points="275.343,-21.8565 284.489,-16.5085 274.004,-14.9857 275.343,-21.8565"/>
</g>
<!-- Node43&#45;&gt;Node41 -->
<g id="edge16" class="edge"><title>Node43&#45;&gt;Node41</title>
<path fill="none" stroke="midnightblue" d="M312.605,-21.7471C293.297,-27.6164 264.104,-34.4708 238.667,-39.3507"/>
<polygon fill="midnightblue" stroke="midnightblue" points="237.964,-35.9213 228.768,-41.1827 239.238,-42.8044 237.964,-35.9213"/>
</g>
</g>
</svg>
        <g id="navigator" transform="translate(0 0)" fill="#404254">
                <rect fill="#f2f5e9" fill-opacity="0.5" stroke="#606060" stroke-width=".5" x="0" y="0" width="60" height="60"/>
                <use id="zoomplus" xlink:href="#zoomPlus" x="17" y="9" onmousedown="handleZoom(evt,'in')"/>
                <use id="zoomminus" xlink:href="#zoomMin" x="42" y="9" onmousedown="handleZoom(evt,'out')"/>
                <use id="reset" xlink:href="#resetDef" x="30" y="36" onmousedown="handleReset()"/>
                <g id="arrowUp" xlink:href="#dirArrow" transform="translate(30 24)" onmousedown="handlePan(0,-1)">
                  <use xlink:href="#rim" fill="#404040">
                        <set attributeName="fill" to="#808080" begin="arrowUp.mouseover" end="arrowUp.mouseout"/>
                  </use>
                  <path fill="none" stroke="white" stroke-width="1.5" d="M0,-3.0v7 M-2.5,-0.5L0,-3.0L2.5,-0.5"/>
                </g>
                <g id="arrowRight" xlink:href="#dirArrow" transform="rotate(90) translate(36 -43)" onmousedown="handlePan(1,0)">
                  <use xlink:href="#rim" fill="#404040">
                        <set attributeName="fill" to="#808080" begin="arrowRight.mouseover" end="arrowRight.mouseout"/>
                  </use>
                  <path fill="none" stroke="white" stroke-width="1.5" d="M0,-3.0v7 M-2.5,-0.5L0,-3.0L2.5,-0.5"/>
                </g>
                <g id="arrowDown" xlink:href="#dirArrow" transform="rotate(180) translate(-30 -48)" onmousedown="handlePan(0,1)">
                  <use xlink:href="#rim" fill="#404040">
                        <set attributeName="fill" to="#808080" begin="arrowDown.mouseover" end="arrowDown.mouseout"/>
                  </use>
                  <path fill="none" stroke="white" stroke-width="1.5" d="M0,-3.0v7 M-2.5,-0.5L0,-3.0L2.5,-0.5"/>
                </g>
                <g id="arrowLeft" xlink:href="#dirArrow" transform="rotate(270) translate(-36 17)" onmousedown="handlePan(-1,0)">
                  <use xlink:href="#rim" fill="#404040">
                        <set attributeName="fill" to="#808080" begin="arrowLeft.mouseover" end="arrowLeft.mouseout"/>
                  </use>
                  <path fill="none" stroke="white" stroke-width="1.5" d="M0,-3.0v7 M-2.5,-0.5L0,-3.0L2.5,-0.5"/>
                </g>
        </g>
        <svg viewBox="0 0 15 15" width="100%" height="30px" preserveAspectRatio="xMaxYMin meet">
         <g id="arrow_out" transform="scale(0.3 0.3)">
          <a xlink:href="class_config_a5ae6c4f7255e895e7384fc2a4baab160_cgraph_org.svg" target="_base">
           <rect id="button" ry="5" rx="5" y="6" x="6" height="38" width="38"
                fill="#f2f5e9" fill-opacity="0.5" stroke="#606060" stroke-width="1.0"/>
           <path id="arrow"
             d="M 11.500037,31.436501 C 11.940474,20.09759 22.043105,11.32322 32.158766,21.979434 L 37.068811,17.246167 C 37.068811,17.246167 37.088388,32 37.088388,32 L 22.160133,31.978069 C 22.160133,31.978069 26.997745,27.140456 26.997745,27.140456 C 18.528582,18.264221 13.291696,25.230495 11.500037,31.436501 z"
             style="fill:#404040;"/>
          </a>
         </g>
        </svg>
</svg>
