<?xml version="1.0" encoding="UTF-8" standalone="no"?>
<!DOCTYPE svg PUBLIC "-//W3C//DTD SVG 1.1//EN"
 "http://www.w3.org/Graphics/SVG/1.1/DTD/svg11.dtd">
<!-- Generated by graphviz version 2.38.0 (20140413.2041)
 -->
<!-- Title: Sensor::update_param Pages: 1 -->
<svg width="378pt" height="66pt"
 viewBox="0.00 0.00 378.00 66.00" xmlns="http://www.w3.org/2000/svg" xmlns:xlink="http://www.w3.org/1999/xlink">
<g id="graph0" class="graph" transform="scale(1 1) rotate(0) translate(4 62)">
<title>Sensor::update_param</title>
<!-- Node80 -->
<g id="node1" class="node"><title>Node80</title>
<polygon fill="#bfbfbf" stroke="black" points="0,-19.5 0,-38.5 115,-38.5 115,-19.5 0,-19.5"/>
<text text-anchor="middle" x="57.5" y="-26.5" font-family="Helvetica,sans-Serif" font-size="10.00">Sensor::update_param</text>
</g>
<!-- Node81 -->
<g id="node2" class="node"><title>Node81</title>
<g id="a_node2"><a xlink:href="class_sensor.html#aed192cfaa131d7e89dadf6da01e9d609" target="_top" xlink:title="Sensor::set_factor">
<polygon fill="none" stroke="black" points="151,-38.5 151,-57.5 248,-57.5 248,-38.5 151,-38.5"/>
<text text-anchor="middle" x="199.5" y="-45.5" font-family="Helvetica,sans-Serif" font-size="10.00">Sensor::set_factor</text>
</a>
</g>
</g>
<!-- Node80&#45;&gt;Node81 -->
<g id="edge1" class="edge"><title>Node80&#45;&gt;Node81</title>
<path fill="none" stroke="midnightblue" d="M125.124,-38.0418C133.768,-39.2149 142.48,-40.3973 150.733,-41.5173"/>
<polygon fill="midnightblue" stroke="midnightblue" points="125.42,-34.55 115.04,-36.6733 124.478,-41.4864 125.42,-34.55"/>
</g>
<!-- Node83 -->
<g id="node4" class="node"><title>Node83</title>
<g id="a_node4"><a xlink:href="class_sensor.html#ad713fef719161b27e6b93a0d3a371e0c" target="_top" xlink:title="Sensor::set_offset">
<polygon fill="none" stroke="black" points="151,-0.5 151,-19.5 248,-19.5 248,-0.5 151,-0.5"/>
<text text-anchor="middle" x="199.5" y="-7.5" font-family="Helvetica,sans-Serif" font-size="10.00">Sensor::set_offset</text>
</a>
</g>
</g>
<!-- Node80&#45;&gt;Node83 -->
<g id="edge3" class="edge"><title>Node80&#45;&gt;Node83</title>
<path fill="none" stroke="midnightblue" d="M125.124,-19.9582C133.768,-18.7851 142.48,-17.6027 150.733,-16.4827"/>
<polygon fill="midnightblue" stroke="midnightblue" points="124.478,-16.5136 115.04,-21.3267 125.42,-23.45 124.478,-16.5136"/>
</g>
<!-- Node82 -->
<g id="node3" class="node"><title>Node82</title>
<g id="a_node3"><a xlink:href="class_config.html#a2a806f322b0d533aabdb8e796d3b1033" target="_top" xlink:title="The execute method is the config &quot;main function&quot; In this method, sentence from the uart are process e...">
<polygon fill="none" stroke="black" points="284,-19.5 284,-38.5 370,-38.5 370,-19.5 284,-19.5"/>
<text text-anchor="middle" x="327" y="-26.5" font-family="Helvetica,sans-Serif" font-size="10.00">Config::execute</text>
</a>
</g>
</g>
<!-- Node81&#45;&gt;Node82 -->
<g id="edge2" class="edge"><title>Node81&#45;&gt;Node82</title>
<path fill="none" stroke="midnightblue" d="M258.258,-39.2558C266.818,-37.9598 275.503,-36.645 283.67,-35.4085"/>
<polygon fill="midnightblue" stroke="midnightblue" points="257.668,-35.8052 248.304,-40.7627 258.715,-42.7263 257.668,-35.8052"/>
</g>
<!-- Node83&#45;&gt;Node82 -->
<g id="edge4" class="edge"><title>Node83&#45;&gt;Node82</title>
<path fill="none" stroke="midnightblue" d="M258.258,-18.7442C266.818,-20.0402 275.503,-21.355 283.67,-22.5915"/>
<polygon fill="midnightblue" stroke="midnightblue" points="258.715,-15.2737 248.304,-17.2373 257.668,-22.1948 258.715,-15.2737"/>
</g>
</g>
</svg>
