<?xml version="1.0" encoding="UTF-8" standalone="no"?>
<!DOCTYPE svg PUBLIC "-//W3C//DTD SVG 1.1//EN"
 "http://www.w3.org/Graphics/SVG/1.1/DTD/svg11.dtd">
<!-- Generated by graphviz version 2.38.0 (20140413.2041)
 -->
<!-- Title: TWI::get_status Pages: 1 -->
<svg width="460pt" height="142pt"
 viewBox="0.00 0.00 460.00 142.00" xmlns="http://www.w3.org/2000/svg" xmlns:xlink="http://www.w3.org/1999/xlink">
<g id="graph0" class="graph" transform="scale(1 1) rotate(0) translate(4 138)">
<title>TWI::get_status</title>
<!-- Node23 -->
<g id="node1" class="node"><title>Node23</title>
<polygon fill="#bfbfbf" stroke="black" points="0,-57.5 0,-76.5 87,-76.5 87,-57.5 0,-57.5"/>
<text text-anchor="middle" x="43.5" y="-64.5" font-family="Helvetica,sans-Serif" font-size="10.00">TWI::get_status</text>
</g>
<!-- Node24 -->
<g id="node2" class="node"><title>Node24</title>
<g id="a_node2"><a xlink:href="class_t_w_i.html#af9e2b71e3b3b0f6cd2c003980c5cfc91" target="_top" xlink:title="TWI::get_char">
<polygon fill="none" stroke="black" points="123,-114.5 123,-133.5 202,-133.5 202,-114.5 123,-114.5"/>
<text text-anchor="middle" x="162.5" y="-121.5" font-family="Helvetica,sans-Serif" font-size="10.00">TWI::get_char</text>
</a>
</g>
</g>
<!-- Node23&#45;&gt;Node24 -->
<g id="edge1" class="edge"><title>Node23&#45;&gt;Node24</title>
<path fill="none" stroke="midnightblue" d="M73.3132,-81.0372C94.6298,-91.4222 123.102,-105.293 141.853,-114.428"/>
<polygon fill="midnightblue" stroke="midnightblue" points="74.606,-77.7738 64.0832,-76.5405 71.5402,-84.0667 74.606,-77.7738"/>
</g>
<!-- Node25 -->
<g id="node3" class="node"><title>Node25</title>
<g id="a_node3"><a xlink:href="class_t_w_i.html#ae409624835946cb6c455cd05839f021c" target="_top" xlink:title="TWI::print">
<polygon fill="none" stroke="black" points="132.5,-76.5 132.5,-95.5 192.5,-95.5 192.5,-76.5 132.5,-76.5"/>
<text text-anchor="middle" x="162.5" y="-83.5" font-family="Helvetica,sans-Serif" font-size="10.00">TWI::print</text>
</a>
</g>
</g>
<!-- Node23&#45;&gt;Node25 -->
<g id="edge2" class="edge"><title>Node23&#45;&gt;Node25</title>
<path fill="none" stroke="midnightblue" d="M97.1046,-75.5426C109.2,-77.5068 121.634,-79.5261 132.312,-81.2601"/>
<polygon fill="midnightblue" stroke="midnightblue" points="97.5024,-72.0615 87.0707,-73.9132 96.3803,-78.9709 97.5024,-72.0615"/>
</g>
<!-- Node26 -->
<g id="node4" class="node"><title>Node26</title>
<g id="a_node4"><a xlink:href="class_t_w_i.html#a3e375d4c03edae3f0c8263a330eddd8d" target="_top" xlink:title="TWI::receive">
<polygon fill="none" stroke="black" points="126,-38.5 126,-57.5 199,-57.5 199,-38.5 126,-38.5"/>
<text text-anchor="middle" x="162.5" y="-45.5" font-family="Helvetica,sans-Serif" font-size="10.00">TWI::receive</text>
</a>
</g>
</g>
<!-- Node23&#45;&gt;Node26 -->
<g id="edge3" class="edge"><title>Node23&#45;&gt;Node26</title>
<path fill="none" stroke="midnightblue" d="M97.0446,-58.4671C106.735,-56.8934 116.647,-55.2839 125.699,-53.8138"/>
<polygon fill="midnightblue" stroke="midnightblue" points="96.3803,-55.0291 87.0707,-60.0868 97.5024,-61.9385 96.3803,-55.0291"/>
</g>
<!-- Node29 -->
<g id="node7" class="node"><title>Node29</title>
<g id="a_node7"><a xlink:href="class_t_w_i.html#a1f2dc98a8c2e00dca3a0c76ee1ea1020" target="_top" xlink:title="TWI::set_char">
<polygon fill="none" stroke="black" points="123,-0.5 123,-19.5 202,-19.5 202,-0.5 123,-0.5"/>
<text text-anchor="middle" x="162.5" y="-7.5" font-family="Helvetica,sans-Serif" font-size="10.00">TWI::set_char</text>
</a>
</g>
</g>
<!-- Node23&#45;&gt;Node29 -->
<g id="edge6" class="edge"><title>Node23&#45;&gt;Node29</title>
<path fill="none" stroke="midnightblue" d="M73.3132,-52.9628C94.6298,-42.5778 123.102,-28.7069 141.853,-19.5716"/>
<polygon fill="midnightblue" stroke="midnightblue" points="71.5402,-49.9333 64.0832,-57.4595 74.606,-56.2262 71.5402,-49.9333"/>
</g>
<!-- Node27 -->
<g id="node5" class="node"><title>Node27</title>
<g id="a_node5"><a xlink:href="class_r_t_c.html#a6e75afc10029f384081b814c2450e0fa" target="_top" xlink:title="RTC::get_date">
<polygon fill="none" stroke="black" points="243.5,-38.5 243.5,-57.5 324.5,-57.5 324.5,-38.5 243.5,-38.5"/>
<text text-anchor="middle" x="284" y="-45.5" font-family="Helvetica,sans-Serif" font-size="10.00">RTC::get_date</text>
</a>
</g>
</g>
<!-- Node26&#45;&gt;Node27 -->
<g id="edge4" class="edge"><title>Node26&#45;&gt;Node27</title>
<path fill="none" stroke="midnightblue" d="M209.1,-48C220.334,-48 232.277,-48 243.212,-48"/>
<polygon fill="midnightblue" stroke="midnightblue" points="209.03,-44.5001 199.03,-48 209.03,-51.5001 209.03,-44.5001"/>
</g>
<!-- Node28 -->
<g id="node6" class="node"><title>Node28</title>
<g id="a_node6"><a xlink:href="main_8cpp.html#ae66f6b31b5ad750f1fe042a706a4e3d4" target="_top" xlink:title="main">
<polygon fill="none" stroke="black" points="390,-38.5 390,-57.5 428,-57.5 428,-38.5 390,-38.5"/>
<text text-anchor="middle" x="409" y="-45.5" font-family="Helvetica,sans-Serif" font-size="10.00">main</text>
</a>
</g>
</g>
<!-- Node27&#45;&gt;Node28 -->
<g id="edge5" class="edge"><title>Node27&#45;&gt;Node28</title>
<path fill="none" stroke="midnightblue" d="M334.859,-48C354.272,-48 375.291,-48 389.793,-48"/>
<polygon fill="midnightblue" stroke="midnightblue" points="334.595,-44.5001 324.595,-48 334.595,-51.5001 334.595,-44.5001"/>
</g>
<!-- Node30 -->
<g id="node8" class="node"><title>Node30</title>
<g id="a_node8"><a xlink:href="class_r_t_c.html#a47c11140f33fe80ffb96fb5296859a25" target="_top" xlink:title="Function to update a register in the pcf8563 This function is use in the st_config class...">
<polygon fill="none" stroke="black" points="238,-0.5 238,-19.5 330,-19.5 330,-0.5 238,-0.5"/>
<text text-anchor="middle" x="284" y="-7.5" font-family="Helvetica,sans-Serif" font-size="10.00">RTC::update_reg</text>
</a>
</g>
</g>
<!-- Node29&#45;&gt;Node30 -->
<g id="edge7" class="edge"><title>Node29&#45;&gt;Node30</title>
<path fill="none" stroke="midnightblue" d="M212.35,-10C220.749,-10 229.446,-10 237.746,-10"/>
<polygon fill="midnightblue" stroke="midnightblue" points="212.298,-6.5001 202.298,-10 212.298,-13.5001 212.298,-6.5001"/>
</g>
<!-- Node31 -->
<g id="node9" class="node"><title>Node31</title>
<g id="a_node9"><a xlink:href="class_config.html#a2a806f322b0d533aabdb8e796d3b1033" target="_top" xlink:title="The execute method is the config &quot;main function&quot; In this method, sentence from the uart are process e...">
<polygon fill="none" stroke="black" points="366,-0.5 366,-19.5 452,-19.5 452,-0.5 366,-0.5"/>
<text text-anchor="middle" x="409" y="-7.5" font-family="Helvetica,sans-Serif" font-size="10.00">Config::execute</text>
</a>
</g>
</g>
<!-- Node30&#45;&gt;Node31 -->
<g id="edge8" class="edge"><title>Node30&#45;&gt;Node31</title>
<path fill="none" stroke="midnightblue" d="M340.378,-10C348.903,-10 357.586,-10 365.765,-10"/>
<polygon fill="midnightblue" stroke="midnightblue" points="340.102,-6.5001 330.102,-10 340.102,-13.5001 340.102,-6.5001"/>
</g>
</g>
</svg>
