<?xml version="1.0" encoding="UTF-8" standalone="no"?>
<!DOCTYPE svg PUBLIC "-//W3C//DTD SVG 1.1//EN"
 "http://www.w3.org/Graphics/SVG/1.1/DTD/svg11.dtd">
<!-- Generated by graphviz version 2.38.0 (20140413.2041)
 -->
<!-- Title: Sensor::set_offset Pages: 1 -->
<svg width="364pt" height="356pt"
 viewBox="0.00 0.00 364.00 356.00" xmlns="http://www.w3.org/2000/svg" xmlns:xlink="http://www.w3.org/1999/xlink">
<g id="graph0" class="graph" transform="scale(1 1) rotate(0) translate(4 352)">
<title>Sensor::set_offset</title>
<!-- Node65 -->
<g id="node1" class="node"><title>Node65</title>
<polygon fill="#bfbfbf" stroke="black" points="0,-164.5 0,-183.5 97,-183.5 97,-164.5 0,-164.5"/>
<text text-anchor="middle" x="48.5" y="-171.5" font-family="Helvetica,sans-Serif" font-size="10.00">Sensor::set_offset</text>
</g>
<!-- Node66 -->
<g id="node2" class="node"><title>Node66</title>
<g id="a_node2"><a xlink:href="class_sensor.html#ae16fd0cbdda6cfed1deac36f5c7c0a8f" target="_top" xlink:title="This method calculate the average from the data array. ">
<polygon fill="none" stroke="black" points="135,-328.5 135,-347.5 246,-347.5 246,-328.5 135,-328.5"/>
<text text-anchor="middle" x="190.5" y="-335.5" font-family="Helvetica,sans-Serif" font-size="10.00">Sensor::calc_average</text>
</a>
</g>
</g>
<!-- Node65&#45;&gt;Node66 -->
<g id="edge1" class="edge"><title>Node65&#45;&gt;Node66</title>
<path fill="none" stroke="midnightblue" d="M52.3938,-183.715C60.5989,-209.608 86.4844,-280.893 133,-319 135.14,-320.753 137.45,-322.348 139.869,-323.797"/>
<polygon fill="midnightblue" stroke="midnightblue" points="138.509,-327.032 149.011,-328.437 141.678,-320.79 138.509,-327.032"/>
</g>
<!-- Node67 -->
<g id="node3" class="node"><title>Node67</title>
<g id="a_node3"><a xlink:href="class_sensor.html#a4a9eb446ca4c73268ec6d93b959273f9" target="_top" xlink:title="Initialize the eeprom memory. ">
<polygon fill="none" stroke="black" points="146,-279 146,-309 235,-309 235,-279 146,-279"/>
<text text-anchor="start" x="154" y="-297" font-family="Helvetica,sans-Serif" font-size="10.00">Sensor::initialize</text>
<text text-anchor="middle" x="190.5" y="-286" font-family="Helvetica,sans-Serif" font-size="10.00">_param</text>
</a>
</g>
</g>
<!-- Node65&#45;&gt;Node67 -->
<g id="edge2" class="edge"><title>Node65&#45;&gt;Node67</title>
<path fill="none" stroke="midnightblue" d="M55.7778,-183.582C68.4133,-202.234 98.6581,-243.794 133,-269 135.351,-270.726 137.84,-272.366 140.411,-273.921"/>
<polygon fill="midnightblue" stroke="midnightblue" points="138.941,-277.108 149.387,-278.874 142.322,-270.979 138.941,-277.108"/>
</g>
<!-- Node68 -->
<g id="node4" class="node"><title>Node68</title>
<g id="a_node4"><a xlink:href="class_sensor.html#a953410c8a76c3b718349000a11e6160e" target="_top" xlink:title="Load saved parameters for sensors from the eeprom. ">
<polygon fill="none" stroke="black" points="138.5,-240.5 138.5,-259.5 242.5,-259.5 242.5,-240.5 138.5,-240.5"/>
<text text-anchor="middle" x="190.5" y="-247.5" font-family="Helvetica,sans-Serif" font-size="10.00">Sensor::load_param</text>
</a>
</g>
</g>
<!-- Node65&#45;&gt;Node68 -->
<g id="edge3" class="edge"><title>Node65&#45;&gt;Node68</title>
<path fill="none" stroke="midnightblue" d="M63.2923,-183.519C79.5377,-194.509 107.543,-212.768 133,-226 140.114,-229.698 147.927,-233.295 155.413,-236.531"/>
<polygon fill="midnightblue" stroke="midnightblue" points="154.069,-239.763 164.643,-240.418 156.785,-233.311 154.069,-239.763"/>
</g>
<!-- Node69 -->
<g id="node5" class="node"><title>Node69</title>
<g id="a_node5"><a xlink:href="class_sensor.html#a9478b09a17b24105c0fe5b32e988224a" target="_top" xlink:title="Sensor::print">
<polygon fill="none" stroke="black" points="284,-181.5 284,-200.5 356,-200.5 356,-181.5 284,-181.5"/>
<text text-anchor="middle" x="320" y="-188.5" font-family="Helvetica,sans-Serif" font-size="10.00">Sensor::print</text>
</a>
</g>
</g>
<!-- Node65&#45;&gt;Node69 -->
<g id="edge4" class="edge"><title>Node65&#45;&gt;Node69</title>
<path fill="none" stroke="midnightblue" d="M83.3306,-183.508C98.4021,-187.272 116.453,-191.141 133,-193 183.792,-198.706 196.894,-193.72 248,-193 256.328,-192.883 265.203,-192.688 273.758,-192.465"/>
<polygon fill="midnightblue" stroke="midnightblue" points="274.075,-195.958 283.975,-192.182 273.882,-188.96 274.075,-195.958"/>
</g>
<!-- Node70 -->
<g id="node6" class="node"><title>Node70</title>
<g id="a_node6"><a xlink:href="class_sensor.html#a38a47820684e5ff0f61ad32b8afbde45" target="_top" xlink:title="The print_average method print the average&#39;s value in the string. ">
<polygon fill="none" stroke="black" points="134.5,-164.5 134.5,-183.5 246.5,-183.5 246.5,-164.5 134.5,-164.5"/>
<text text-anchor="middle" x="190.5" y="-171.5" font-family="Helvetica,sans-Serif" font-size="10.00">Sensor::print_average</text>
</a>
</g>
</g>
<!-- Node65&#45;&gt;Node70 -->
<g id="edge5" class="edge"><title>Node65&#45;&gt;Node70</title>
<path fill="none" stroke="midnightblue" d="M97.2885,-174C105.921,-174 115.057,-174 124.091,-174"/>
<polygon fill="midnightblue" stroke="midnightblue" points="124.214,-177.5 134.214,-174 124.214,-170.5 124.214,-177.5"/>
</g>
<!-- Node71 -->
<g id="node7" class="node"><title>Node71</title>
<g id="a_node7"><a xlink:href="class_sensor.html#aa14d1a074d1079cff037fd01ed74897c" target="_top" xlink:title="This method print the sensor configuration for the sensor. It&#39;s a good idea to overload this function...">
<polygon fill="none" stroke="black" points="138.5,-126.5 138.5,-145.5 242.5,-145.5 242.5,-126.5 138.5,-126.5"/>
<text text-anchor="middle" x="190.5" y="-133.5" font-family="Helvetica,sans-Serif" font-size="10.00">Sensor::print_config</text>
</a>
</g>
</g>
<!-- Node65&#45;&gt;Node71 -->
<g id="edge6" class="edge"><title>Node65&#45;&gt;Node71</title>
<path fill="none" stroke="midnightblue" d="M84.8279,-164.411C102.901,-159.506 125.098,-153.48 144.395,-148.243"/>
<polygon fill="midnightblue" stroke="midnightblue" points="145.449,-151.583 154.183,-145.586 143.616,-144.828 145.449,-151.583"/>
</g>
<!-- Node73 -->
<g id="node9" class="node"><title>Node73</title>
<g id="a_node9"><a xlink:href="class_sensor.html#aa03d707dfa7562805b77f9040831418b" target="_top" xlink:title="Sensor::print_data\l_array">
<polygon fill="none" stroke="black" points="142.5,-77 142.5,-107 238.5,-107 238.5,-77 142.5,-77"/>
<text text-anchor="start" x="150.5" y="-95" font-family="Helvetica,sans-Serif" font-size="10.00">Sensor::print_data</text>
<text text-anchor="middle" x="190.5" y="-84" font-family="Helvetica,sans-Serif" font-size="10.00">_array</text>
</a>
</g>
</g>
<!-- Node65&#45;&gt;Node73 -->
<g id="edge9" class="edge"><title>Node65&#45;&gt;Node73</title>
<path fill="none" stroke="midnightblue" d="M62.0497,-164.358C77.9945,-152.364 106.619,-131.679 133,-117 136.434,-115.089 140.043,-113.213 143.706,-111.401"/>
<polygon fill="midnightblue" stroke="midnightblue" points="145.329,-114.504 152.853,-107.045 142.32,-108.184 145.329,-114.504"/>
</g>
<!-- Node75 -->
<g id="node11" class="node"><title>Node75</title>
<g id="a_node11"><a xlink:href="class_sensor.html#a59e815290b2883cea096c8bc613429c0" target="_top" xlink:title="Sensor::read_value">
<polygon fill="none" stroke="black" points="140,-38.5 140,-57.5 241,-57.5 241,-38.5 140,-38.5"/>
<text text-anchor="middle" x="190.5" y="-45.5" font-family="Helvetica,sans-Serif" font-size="10.00">Sensor::read_value</text>
</a>
</g>
</g>
<!-- Node65&#45;&gt;Node75 -->
<g id="edge12" class="edge"><title>Node65&#45;&gt;Node75</title>
<path fill="none" stroke="midnightblue" d="M54.6106,-164.304C65.9668,-143.655 95.2995,-95.0229 133,-68 136.238,-65.6794 139.77,-63.6056 143.437,-61.7567"/>
<polygon fill="midnightblue" stroke="midnightblue" points="145.029,-64.8792 152.739,-57.6115 142.18,-58.4854 145.029,-64.8792"/>
</g>
<!-- Node76 -->
<g id="node12" class="node"><title>Node76</title>
<g id="a_node12"><a xlink:href="class_sensor.html#abf05dcc164ceadf01fa48c32fbaf040a" target="_top" xlink:title="Update saved parameters for sensors in the eeprom. ">
<polygon fill="none" stroke="black" points="133,-0.5 133,-19.5 248,-19.5 248,-0.5 133,-0.5"/>
<text text-anchor="middle" x="190.5" y="-7.5" font-family="Helvetica,sans-Serif" font-size="10.00">Sensor::update_param</text>
</a>
</g>
</g>
<!-- Node65&#45;&gt;Node76 -->
<g id="edge13" class="edge"><title>Node65&#45;&gt;Node76</title>
<path fill="none" stroke="midnightblue" d="M52.3938,-164.285C60.5989,-138.392 86.4844,-67.1071 133,-29 135.14,-27.2467 137.45,-25.6524 139.869,-24.2029"/>
<polygon fill="midnightblue" stroke="midnightblue" points="141.678,-27.2103 149.011,-19.5635 138.509,-20.9682 141.678,-27.2103"/>
</g>
<!-- Node71&#45;&gt;Node69 -->
<g id="edge7" class="edge"><title>Node71&#45;&gt;Node69</title>
<path fill="none" stroke="midnightblue" d="M222.59,-145.556C230.933,-148.363 239.887,-151.6 248,-155 263.18,-161.361 279.602,-169.595 292.825,-176.583"/>
<polygon fill="midnightblue" stroke="midnightblue" points="291.358,-179.767 301.825,-181.405 294.664,-173.597 291.358,-179.767"/>
</g>
<!-- Node72 -->
<g id="node8" class="node"><title>Node72</title>
<g id="a_node8"><a xlink:href="class_usart.html#ab236d7c399791bbe1431f85e9b60f601" target="_top" xlink:title="USART string sender function. ">
<polygon fill="none" stroke="black" points="287.5,-123.5 287.5,-142.5 352.5,-142.5 352.5,-123.5 287.5,-123.5"/>
<text text-anchor="middle" x="320" y="-130.5" font-family="Helvetica,sans-Serif" font-size="10.00">Usart::print</text>
</a>
</g>
</g>
<!-- Node71&#45;&gt;Node72 -->
<g id="edge8" class="edge"><title>Node71&#45;&gt;Node72</title>
<path fill="none" stroke="midnightblue" d="M242.624,-134.797C254.07,-134.528 266.081,-134.245 277.101,-133.986"/>
<polygon fill="midnightblue" stroke="midnightblue" points="277.397,-137.48 287.312,-133.746 277.232,-130.482 277.397,-137.48"/>
</g>
<!-- Node73&#45;&gt;Node72 -->
<g id="edge10" class="edge"><title>Node73&#45;&gt;Node72</title>
<path fill="none" stroke="midnightblue" d="M238.252,-107.034C251.845,-111.405 266.549,-116.133 279.638,-120.343"/>
<polygon fill="midnightblue" stroke="midnightblue" points="278.697,-123.716 289.288,-123.446 280.839,-117.052 278.697,-123.716"/>
</g>
<!-- Node74 -->
<g id="node10" class="node"><title>Node74</title>
<g id="a_node10"><a xlink:href="class_usart.html#a86c9264f48dabbc3d97fa32d2d02d22d" target="_top" xlink:title="USART char sender function. ">
<polygon fill="none" stroke="black" points="290,-82.5 290,-101.5 350,-101.5 350,-82.5 290,-82.5"/>
<text text-anchor="middle" x="320" y="-89.5" font-family="Helvetica,sans-Serif" font-size="10.00">Usart::set</text>
</a>
</g>
</g>
<!-- Node73&#45;&gt;Node74 -->
<g id="edge11" class="edge"><title>Node73&#45;&gt;Node74</title>
<path fill="none" stroke="midnightblue" d="M238.614,-92C252.16,-92 266.783,-92 279.796,-92"/>
<polygon fill="midnightblue" stroke="midnightblue" points="279.835,-95.5001 289.835,-92 279.835,-88.5001 279.835,-95.5001"/>
</g>
</g>
</svg>
