<?xml version="1.0" encoding="UTF-8" standalone="no"?>
<!DOCTYPE svg PUBLIC "-//W3C//DTD SVG 1.1//EN"
 "http://www.w3.org/Graphics/SVG/1.1/DTD/svg11.dtd">
<!-- Generated by graphviz version 2.38.0 (20140413.2041)
 -->
<!-- Title: Sensor::print Pages: 1 -->
<!--zoomable 186 -->
<svg id="main" version="1.1" xmlns="http://www.w3.org/2000/svg" xmlns:xlink="http://www.w3.org/1999/xlink" xml:space="preserve" onload="init(evt)">
<style type="text/css"><![CDATA[
.edge:hover path { stroke: red; }
.edge:hover polygon { stroke: red; fill: red; }
]]></style>
<script type="text/javascript"><![CDATA[
var edges = document.getElementsByTagName('g');
if (edges && edges.length) {
  for (var i=0;i<edges.length;i++) {
    if (edges[i].id.substr(0,4)=='edge') {
      edges[i].setAttribute('class','edge');
    }
  }
}
]]></script>
        <defs>
                <circle id="rim" cx="0" cy="0" r="7"/>
                <circle id="rim2" cx="0" cy="0" r="3.5"/>
                <g id="zoomPlus">
                        <use xlink:href="#rim" fill="#404040">
                                <set attributeName="fill" to="#808080" begin="zoomplus.mouseover" end="zoomplus.mouseout"/>
                        </use>
                        <path d="M-4,0h8M0,-4v8" fill="none" stroke="white" stroke-width="1.5" pointer-events="none"/>
                </g>
                <g id="zoomMin">
                        <use xlink:href="#rim" fill="#404040">
                                <set attributeName="fill" to="#808080" begin="zoomminus.mouseover" end="zoomminus.mouseout"/>
                        </use>
                        <path d="M-4,0h8" fill="none" stroke="white" stroke-width="1.5" pointer-events="none"/>
                </g>
                <g id="dirArrow">
                        <path fill="none" stroke="white" stroke-width="1.5" d="M0,-3.0v7 M-2.5,-0.5L0,-3.0L2.5,-0.5"/>
                </g>
               <g id="resetDef">
                       <use xlink:href="#rim2" fill="#404040">
                               <set attributeName="fill" to="#808080" begin="reset.mouseover" end="reset.mouseout"/>
                       </use>
               </g>
        </defs>

<script type="text/javascript">
var viewWidth = 816;
var viewHeight = 186;
var sectionId = 'dynsection-9';
</script>
<script xlink:href="svgpan.js"/>
<svg id="graph" class="graph">
<g id="viewport">
<title>Sensor::print</title>
<!-- Node77 -->
<g id="node1" class="node"><title>Node77</title>
<polygon fill="#bfbfbf" stroke="black" points="0,-76.5 0,-95.5 72,-95.5 72,-76.5 0,-76.5"/>
<text text-anchor="middle" x="36" y="-83.5" font-family="Helvetica,sans-Serif" font-size="10.00">Sensor::print</text>
</g>
<!-- Node78 -->
<g id="node2" class="node"><title>Node78</title>
<g id="a_node2"><a xlink:href="class_sensor.html#a4e88d49608387ab4f65734913e514109" target="_top" xlink:title="Sensor::is_enable">
<polygon fill="none" stroke="black" points="248,-95.5 248,-114.5 343,-114.5 343,-95.5 248,-95.5"/>
<text text-anchor="middle" x="295.5" y="-102.5" font-family="Helvetica,sans-Serif" font-size="10.00">Sensor::is_enable</text>
</a>
</g>
</g>
<!-- Node77&#45;&gt;Node78 -->
<g id="edge1" class="edge"><title>Node77&#45;&gt;Node78</title>
<path fill="none" stroke="midnightblue" d="M82.3628,-89.3472C128.896,-92.7807 200.934,-98.0961 247.909,-101.562"/>
<polygon fill="midnightblue" stroke="midnightblue" points="82.4948,-85.8475 72.2644,-88.602 81.9797,-92.8285 82.4948,-85.8475"/>
</g>
<!-- Node87 -->
<g id="node11" class="node"><title>Node87</title>
<g id="a_node11"><a xlink:href="class_sensor.html#a0e1288d8b8594192f9d65819c185764f" target="_top" xlink:title="This method print the sensor configuration for the sensor. It&#39;s a good idea to overload this function...">
<polygon fill="none" stroke="black" points="108,-57.5 108,-76.5 212,-76.5 212,-57.5 108,-57.5"/>
<text text-anchor="middle" x="160" y="-64.5" font-family="Helvetica,sans-Serif" font-size="10.00">Sensor::print_config</text>
</a>
</g>
</g>
<!-- Node77&#45;&gt;Node87 -->
<g id="edge13" class="edge"><title>Node77&#45;&gt;Node87</title>
<path fill="none" stroke="midnightblue" d="M82.2331,-78.9555C90.5974,-77.6529 99.3863,-76.2841 107.91,-74.9566"/>
<polygon fill="midnightblue" stroke="midnightblue" points="81.6297,-75.5072 72.2875,-80.5044 82.707,-82.4238 81.6297,-75.5072"/>
</g>
<!-- Node79 -->
<g id="node3" class="node"><title>Node79</title>
<g id="a_node3"><a xlink:href="class_sensor.html#ae16fd0cbdda6cfed1deac36f5c7c0a8f" target="_top" xlink:title="This method calculate the average from the data array. ">
<polygon fill="none" stroke="black" points="386,-76.5 386,-95.5 497,-95.5 497,-76.5 386,-76.5"/>
<text text-anchor="middle" x="441.5" y="-83.5" font-family="Helvetica,sans-Serif" font-size="10.00">Sensor::calc_average</text>
</a>
</g>
</g>
<!-- Node78&#45;&gt;Node79 -->
<g id="edge2" class="edge"><title>Node78&#45;&gt;Node79</title>
<path fill="none" stroke="midnightblue" d="M336.5,-93.6036C351.804,-90.9388 369.531,-88.4493 385.965,-86.6253"/>
<polygon fill="midnightblue" stroke="midnightblue" points="335.54,-90.2213 326.337,-95.4705 336.805,-97.1061 335.54,-90.2213"/>
</g>
<!-- Node82 -->
<g id="node6" class="node"><title>Node82</title>
<g id="a_node6"><a xlink:href="class_sensor.html#a38a47820684e5ff0f61ad32b8afbde45" target="_top" xlink:title="The print_average method print the average&#39;s value in the string. ">
<polygon fill="none" stroke="black" points="385.5,-152.5 385.5,-171.5 497.5,-171.5 497.5,-152.5 385.5,-152.5"/>
<text text-anchor="middle" x="441.5" y="-159.5" font-family="Helvetica,sans-Serif" font-size="10.00">Sensor::print_average</text>
</a>
</g>
</g>
<!-- Node78&#45;&gt;Node82 -->
<g id="edge6" class="edge"><title>Node78&#45;&gt;Node82</title>
<path fill="none" stroke="midnightblue" d="M341.924,-118.53C353.854,-123.701 366.799,-129.329 379,-134 396.116,-140.553 416.541,-146.507 429.012,-152.307"/>
<polygon fill="midnightblue" stroke="midnightblue" points="343.177,-115.258 332.609,-114.508 340.402,-121.685 343.177,-115.258"/>
</g>
<!-- Node85 -->
<g id="node9" class="node"><title>Node85</title>
<g id="a_node9"><a xlink:href="class_anemometer.html#a9be3b4b392ef08ef29c769e6ce4bebf4" target="_top" xlink:title="Anemometer::read_value">
<polygon fill="none" stroke="black" points="379,-114.5 379,-133.5 504,-133.5 504,-114.5 379,-114.5"/>
<text text-anchor="middle" x="441.5" y="-121.5" font-family="Helvetica,sans-Serif" font-size="10.00">Anemometer::read_value</text>
</a>
</g>
</g>
<!-- Node78&#45;&gt;Node85 -->
<g id="edge10" class="edge"><title>Node78&#45;&gt;Node85</title>
<path fill="none" stroke="midnightblue" d="M353.288,-112.493C361.658,-113.597 370.316,-114.74 378.78,-115.856"/>
<polygon fill="midnightblue" stroke="midnightblue" points="353.625,-109.007 343.253,-111.169 352.709,-115.947 353.625,-109.007"/>
</g>
<!-- Node79&#45;&gt;Node78 -->
<g id="edge5" class="edge"><title>Node79&#45;&gt;Node78</title>
<path fill="none" stroke="midnightblue" d="M400.672,-97.3665C382.88,-100.47 361.788,-103.338 343.253,-105.198"/>
<polygon fill="midnightblue" stroke="midnightblue" points="401.52,-100.769 410.722,-95.5181 400.254,-93.8848 401.52,-100.769"/>
</g>
<!-- Node80 -->
<g id="node4" class="node"><title>Node80</title>
<g id="a_node4"><a xlink:href="class_measure.html#a1518672dff4f81603a35bff08c20e9f5" target="_top" xlink:title="calcul average from the data array ">
<polygon fill="none" stroke="black" points="549.5,-70.5 549.5,-89.5 667.5,-89.5 667.5,-70.5 549.5,-70.5"/>
<text text-anchor="middle" x="608.5" y="-77.5" font-family="Helvetica,sans-Serif" font-size="10.00">Measure::calc_average</text>
</a>
</g>
</g>
<!-- Node79&#45;&gt;Node80 -->
<g id="edge3" class="edge"><title>Node79&#45;&gt;Node80</title>
<path fill="none" stroke="midnightblue" d="M507.795,-83.6256C521.537,-83.1259 535.946,-82.602 549.403,-82.1126"/>
<polygon fill="midnightblue" stroke="midnightblue" points="507.309,-80.1409 497.443,-84.0021 507.563,-87.1363 507.309,-80.1409"/>
</g>
<!-- Node81 -->
<g id="node5" class="node"><title>Node81</title>
<g id="a_node5"><a xlink:href="class_measure.html#a754d2de10d1a44bb3b62ab162ceeaae2" target="_top" xlink:title="The execute method is the measure &quot;main function&quot; The execute function work as this scheme : ...">
<polygon fill="none" stroke="black" points="713,-92.5 713,-111.5 808,-111.5 808,-92.5 713,-92.5"/>
<text text-anchor="middle" x="760.5" y="-99.5" font-family="Helvetica,sans-Serif" font-size="10.00">Measure::execute</text>
</a>
</g>
</g>
<!-- Node80&#45;&gt;Node81 -->
<g id="edge4" class="edge"><title>Node80&#45;&gt;Node81</title>
<path fill="none" stroke="midnightblue" d="M678.099,-90.0611C689.771,-91.7731 701.651,-93.5155 712.598,-95.1211"/>
<polygon fill="midnightblue" stroke="midnightblue" points="678.326,-86.557 667.923,-88.5688 677.31,-93.4829 678.326,-86.557"/>
</g>
<!-- Node82&#45;&gt;Node78 -->
<g id="edge7" class="edge"><title>Node82&#45;&gt;Node78</title>
<path fill="none" stroke="midnightblue" d="M375.885,-150.655C345.552,-138.528 318.412,-124.838 305.01,-114.811"/>
<polygon fill="midnightblue" stroke="midnightblue" points="374.801,-153.989 385.389,-154.363 377.345,-147.468 374.801,-153.989"/>
</g>
<!-- Node83 -->
<g id="node7" class="node"><title>Node83</title>
<g id="a_node7"><a xlink:href="class_output.html#af4bc42d2d3bb3b2a98782f0df0eba133" target="_top" xlink:title="Output::usart0_print">
<polygon fill="none" stroke="black" points="557,-158.5 557,-177.5 660,-177.5 660,-158.5 557,-158.5"/>
<text text-anchor="middle" x="608.5" y="-165.5" font-family="Helvetica,sans-Serif" font-size="10.00">Output::usart0_print</text>
</a>
</g>
</g>
<!-- Node82&#45;&gt;Node83 -->
<g id="edge8" class="edge"><title>Node82&#45;&gt;Node83</title>
<path fill="none" stroke="midnightblue" d="M507.918,-164.379C524.238,-164.972 541.491,-165.6 556.968,-166.162"/>
<polygon fill="midnightblue" stroke="midnightblue" points="508.022,-160.88 497.902,-164.015 507.768,-167.876 508.022,-160.88"/>
</g>
<!-- Node84 -->
<g id="node8" class="node"><title>Node84</title>
<g id="a_node8"><a xlink:href="class_output.html#a087f4330e641bb4682ab2862bca7a1af" target="_top" xlink:title="Output::execute">
<polygon fill="none" stroke="black" points="717.5,-158.5 717.5,-177.5 803.5,-177.5 803.5,-158.5 717.5,-158.5"/>
<text text-anchor="middle" x="760.5" y="-165.5" font-family="Helvetica,sans-Serif" font-size="10.00">Output::execute</text>
</a>
</g>
</g>
<!-- Node83&#45;&gt;Node84 -->
<g id="edge9" class="edge"><title>Node83&#45;&gt;Node84</title>
<path fill="none" stroke="midnightblue" d="M670.455,-168C686.166,-168 702.73,-168 717.255,-168"/>
<polygon fill="midnightblue" stroke="midnightblue" points="670.283,-164.5 660.283,-168 670.283,-171.5 670.283,-164.5"/>
</g>
<!-- Node86 -->
<g id="node10" class="node"><title>Node86</title>
<g id="a_node10"><a xlink:href="class_measure.html#a4390d770b19dbc51e5486fefe9f4b9d1" target="_top" xlink:title="read value from anemometer and RPM ">
<polygon fill="none" stroke="black" points="558,-109 558,-139 659,-139 659,-109 558,-109"/>
<text text-anchor="start" x="566" y="-127" font-family="Helvetica,sans-Serif" font-size="10.00">Measure::freq_read</text>
<text text-anchor="middle" x="608.5" y="-116" font-family="Helvetica,sans-Serif" font-size="10.00">_value</text>
</a>
</g>
</g>
<!-- Node85&#45;&gt;Node86 -->
<g id="edge11" class="edge"><title>Node85&#45;&gt;Node86</title>
<path fill="none" stroke="midnightblue" d="M514.455,-124C529.103,-124 544.203,-124 557.864,-124"/>
<polygon fill="midnightblue" stroke="midnightblue" points="514.409,-120.5 504.409,-124 514.409,-127.5 514.409,-120.5"/>
</g>
<!-- Node86&#45;&gt;Node81 -->
<g id="edge12" class="edge"><title>Node86&#45;&gt;Node81</title>
<path fill="none" stroke="midnightblue" d="M668.964,-115.279C683.541,-113.141 698.937,-110.883 712.817,-108.847"/>
<polygon fill="midnightblue" stroke="midnightblue" points="668.418,-111.821 659.031,-116.735 669.433,-118.747 668.418,-111.821"/>
</g>
<!-- Node87&#45;&gt;Node78 -->
<g id="edge14" class="edge"><title>Node87&#45;&gt;Node78</title>
<path fill="none" stroke="midnightblue" d="M204.53,-79.3906C222.812,-84.5945 243.749,-90.5541 260.823,-95.4141"/>
<polygon fill="midnightblue" stroke="midnightblue" points="205.264,-75.9605 194.688,-76.589 203.347,-82.6931 205.264,-75.9605"/>
</g>
<!-- Node88 -->
<g id="node12" class="node"><title>Node88</title>
<g id="a_node12"><a xlink:href="class_config.html#a975933ecde91dc436d4ca39464cfd25f" target="_top" xlink:title="display all config on USART0 ">
<polygon fill="none" stroke="black" points="254.5,-38.5 254.5,-57.5 336.5,-57.5 336.5,-38.5 254.5,-38.5"/>
<text text-anchor="middle" x="295.5" y="-45.5" font-family="Helvetica,sans-Serif" font-size="10.00">Config::display</text>
</a>
</g>
</g>
<!-- Node87&#45;&gt;Node88 -->
<g id="edge15" class="edge"><title>Node87&#45;&gt;Node88</title>
<path fill="none" stroke="midnightblue" d="M222.18,-58.2927C233.11,-56.7371 244.241,-55.153 254.389,-53.7087"/>
<polygon fill="midnightblue" stroke="midnightblue" points="221.64,-54.8343 212.233,-59.7084 222.626,-61.7644 221.64,-54.8343"/>
</g>
<!-- Node89 -->
<g id="node13" class="node"><title>Node89</title>
<g id="a_node13"><a xlink:href="class_config.html#a5ae6c4f7255e895e7384fc2a4baab160" target="_top" xlink:title="Config::endString">
<polygon fill="none" stroke="black" points="395.5,-0.5 395.5,-19.5 487.5,-19.5 487.5,-0.5 395.5,-0.5"/>
<text text-anchor="middle" x="441.5" y="-7.5" font-family="Helvetica,sans-Serif" font-size="10.00">Config::endString</text>
</a>
</g>
</g>
<!-- Node88&#45;&gt;Node89 -->
<g id="edge16" class="edge"><title>Node88&#45;&gt;Node89</title>
<path fill="none" stroke="midnightblue" d="M342.672,-35.8157C362.664,-30.54 385.719,-24.4562 404.424,-19.5201"/>
<polygon fill="midnightblue" stroke="midnightblue" points="341.613,-32.4752 332.837,-38.411 343.399,-39.2435 341.613,-32.4752"/>
</g>
<!-- Node92 -->
<g id="node16" class="node"><title>Node92</title>
<g id="a_node16"><a xlink:href="class_config.html#a2a806f322b0d533aabdb8e796d3b1033" target="_top" xlink:title="The execute method is the config &quot;main function&quot; In this method, sentence from the uart are process e...">
<polygon fill="none" stroke="black" points="398.5,-38.5 398.5,-57.5 484.5,-57.5 484.5,-38.5 398.5,-38.5"/>
<text text-anchor="middle" x="441.5" y="-45.5" font-family="Helvetica,sans-Serif" font-size="10.00">Config::execute</text>
</a>
</g>
</g>
<!-- Node88&#45;&gt;Node92 -->
<g id="edge19" class="edge"><title>Node88&#45;&gt;Node92</title>
<path fill="none" stroke="midnightblue" d="M346.824,-48C363.646,-48 382.209,-48 398.342,-48"/>
<polygon fill="midnightblue" stroke="midnightblue" points="346.612,-44.5001 336.612,-48 346.612,-51.5001 346.612,-44.5001"/>
</g>
<!-- Node90 -->
<g id="node14" class="node"><title>Node90</title>
<g id="a_node14"><a xlink:href="class_f_s_m.html#a3819be8e9fe92b750f47b9731e92f254" target="_top" xlink:title="Call when a string from usart0 finish by &quot;\r\n&quot;. ">
<polygon fill="none" stroke="black" points="540,-0.5 540,-19.5 677,-19.5 677,-0.5 540,-0.5"/>
<text text-anchor="middle" x="608.5" y="-7.5" font-family="Helvetica,sans-Serif" font-size="10.00">FSM::character_processing</text>
</a>
</g>
</g>
<!-- Node89&#45;&gt;Node90 -->
<g id="edge17" class="edge"><title>Node89&#45;&gt;Node90</title>
<path fill="none" stroke="midnightblue" d="M497.685,-10C511.208,-10 525.834,-10 539.867,-10"/>
<polygon fill="midnightblue" stroke="midnightblue" points="497.587,-6.5001 487.587,-10 497.587,-13.5001 497.587,-6.5001"/>
</g>
<!-- Node91 -->
<g id="node15" class="node"><title>Node91</title>
<g id="a_node15"><a xlink:href="main_8cpp.html#ae66f6b31b5ad750f1fe042a706a4e3d4" target="_top" xlink:title="main">
<polygon fill="none" stroke="black" points="741.5,-0.5 741.5,-19.5 779.5,-19.5 779.5,-0.5 741.5,-0.5"/>
<text text-anchor="middle" x="760.5" y="-7.5" font-family="Helvetica,sans-Serif" font-size="10.00">main</text>
</a>
</g>
</g>
<!-- Node90&#45;&gt;Node91 -->
<g id="edge18" class="edge"><title>Node90&#45;&gt;Node91</title>
<path fill="none" stroke="midnightblue" d="M687.046,-10C707.441,-10 727.584,-10 741.434,-10"/>
<polygon fill="midnightblue" stroke="midnightblue" points="687.04,-6.5001 677.04,-10 687.04,-13.5001 687.04,-6.5001"/>
</g>
</g>
</svg>
        <g id="navigator" transform="translate(0 0)" fill="#404254">
                <rect fill="#f2f5e9" fill-opacity="0.5" stroke="#606060" stroke-width=".5" x="0" y="0" width="60" height="60"/>
                <use id="zoomplus" xlink:href="#zoomPlus" x="17" y="9" onmousedown="handleZoom(evt,'in')"/>
                <use id="zoomminus" xlink:href="#zoomMin" x="42" y="9" onmousedown="handleZoom(evt,'out')"/>
                <use id="reset" xlink:href="#resetDef" x="30" y="36" onmousedown="handleReset()"/>
                <g id="arrowUp" xlink:href="#dirArrow" transform="translate(30 24)" onmousedown="handlePan(0,-1)">
                  <use xlink:href="#rim" fill="#404040">
                        <set attributeName="fill" to="#808080" begin="arrowUp.mouseover" end="arrowUp.mouseout"/>
                  </use>
                  <path fill="none" stroke="white" stroke-width="1.5" d="M0,-3.0v7 M-2.5,-0.5L0,-3.0L2.5,-0.5"/>
                </g>
                <g id="arrowRight" xlink:href="#dirArrow" transform="rotate(90) translate(36 -43)" onmousedown="handlePan(1,0)">
                  <use xlink:href="#rim" fill="#404040">
                        <set attributeName="fill" to="#808080" begin="arrowRight.mouseover" end="arrowRight.mouseout"/>
                  </use>
                  <path fill="none" stroke="white" stroke-width="1.5" d="M0,-3.0v7 M-2.5,-0.5L0,-3.0L2.5,-0.5"/>
                </g>
                <g id="arrowDown" xlink:href="#dirArrow" transform="rotate(180) translate(-30 -48)" onmousedown="handlePan(0,1)">
                  <use xlink:href="#rim" fill="#404040">
                        <set attributeName="fill" to="#808080" begin="arrowDown.mouseover" end="arrowDown.mouseout"/>
                  </use>
                  <path fill="none" stroke="white" stroke-width="1.5" d="M0,-3.0v7 M-2.5,-0.5L0,-3.0L2.5,-0.5"/>
                </g>
                <g id="arrowLeft" xlink:href="#dirArrow" transform="rotate(270) translate(-36 17)" onmousedown="handlePan(-1,0)">
                  <use xlink:href="#rim" fill="#404040">
                        <set attributeName="fill" to="#808080" begin="arrowLeft.mouseover" end="arrowLeft.mouseout"/>
                  </use>
                  <path fill="none" stroke="white" stroke-width="1.5" d="M0,-3.0v7 M-2.5,-0.5L0,-3.0L2.5,-0.5"/>
                </g>
        </g>
        <svg viewBox="0 0 15 15" width="100%" height="30px" preserveAspectRatio="xMaxYMin meet">
         <g id="arrow_out" transform="scale(0.3 0.3)">
          <a xlink:href="class_sensor_a9478b09a17b24105c0fe5b32e988224a_icgraph_org.svg" target="_base">
           <rect id="button" ry="5" rx="5" y="6" x="6" height="38" width="38"
                fill="#f2f5e9" fill-opacity="0.5" stroke="#606060" stroke-width="1.0"/>
           <path id="arrow"
             d="M 11.500037,31.436501 C 11.940474,20.09759 22.043105,11.32322 32.158766,21.979434 L 37.068811,17.246167 C 37.068811,17.246167 37.088388,32 37.088388,32 L 22.160133,31.978069 C 22.160133,31.978069 26.997745,27.140456 26.997745,27.140456 C 18.528582,18.264221 13.291696,25.230495 11.500037,31.436501 z"
             style="fill:#404040;"/>
          </a>
         </g>
        </svg>
</svg>
