<?xml version="1.0" encoding="UTF-8" standalone="no"?>
<!DOCTYPE svg PUBLIC "-//W3C//DTD SVG 1.1//EN"
 "http://www.w3.org/Graphics/SVG/1.1/DTD/svg11.dtd">
<!-- Generated by graphviz version 2.38.0 (20140413.2041)
 -->
<!-- Title: Power::load_param Pages: 1 -->
<svg width="372pt" height="104pt"
 viewBox="0.00 0.00 372.00 104.00" xmlns="http://www.w3.org/2000/svg" xmlns:xlink="http://www.w3.org/1999/xlink">
<g id="graph0" class="graph" transform="scale(1 1) rotate(0) translate(4 100)">
<title>Power::load_param</title>
<!-- Node22 -->
<g id="node1" class="node"><title>Node22</title>
<polygon fill="#bfbfbf" stroke="black" points="0,-38.5 0,-57.5 101,-57.5 101,-38.5 0,-38.5"/>
<text text-anchor="middle" x="50.5" y="-45.5" font-family="Helvetica,sans-Serif" font-size="10.00">Power::load_param</text>
</g>
<!-- Node23 -->
<g id="node2" class="node"><title>Node23</title>
<g id="a_node2"><a xlink:href="class_power.html#abbef246caaa88630e3c02ce5ade952ff" target="_top" xlink:title="Power::Power">
<polygon fill="none" stroke="black" points="150.5,-76.5 150.5,-95.5 228.5,-95.5 228.5,-76.5 150.5,-76.5"/>
<text text-anchor="middle" x="189.5" y="-83.5" font-family="Helvetica,sans-Serif" font-size="10.00">Power::Power</text>
</a>
</g>
</g>
<!-- Node22&#45;&gt;Node23 -->
<g id="edge1" class="edge"><title>Node22&#45;&gt;Node23</title>
<path fill="none" stroke="midnightblue" d="M95.9108,-60.3183C114.734,-65.5393 136.338,-71.5316 153.94,-76.4141"/>
<polygon fill="midnightblue" stroke="midnightblue" points="96.6426,-56.8892 86.0709,-57.589 94.7716,-63.6346 96.6426,-56.8892"/>
</g>
<!-- Node24 -->
<g id="node3" class="node"><title>Node24</title>
<g id="a_node3"><a xlink:href="classpower_d_c.html#a524844eb5c45b1ca73a553102e7c8f63" target="_top" xlink:title="powerDC::powerDC">
<polygon fill="none" stroke="black" points="137,-38.5 137,-57.5 242,-57.5 242,-38.5 137,-38.5"/>
<text text-anchor="middle" x="189.5" y="-45.5" font-family="Helvetica,sans-Serif" font-size="10.00">powerDC::powerDC</text>
</a>
</g>
</g>
<!-- Node22&#45;&gt;Node24 -->
<g id="edge2" class="edge"><title>Node22&#45;&gt;Node24</title>
<path fill="none" stroke="midnightblue" d="M111.455,-48C119.839,-48 128.398,-48 136.616,-48"/>
<polygon fill="midnightblue" stroke="midnightblue" points="111.348,-44.5001 101.348,-48 111.348,-51.5001 111.348,-44.5001"/>
</g>
<!-- Node25 -->
<g id="node4" class="node"><title>Node25</title>
<g id="a_node4"><a xlink:href="class_power.html#a1e7595ee0b3b0439d979ffeab785d0d8" target="_top" xlink:title="Power::set_i_offset">
<polygon fill="none" stroke="black" points="139,-0.5 139,-19.5 240,-19.5 240,-0.5 139,-0.5"/>
<text text-anchor="middle" x="189.5" y="-7.5" font-family="Helvetica,sans-Serif" font-size="10.00">Power::set_i_offset</text>
</a>
</g>
</g>
<!-- Node22&#45;&gt;Node25 -->
<g id="edge3" class="edge"><title>Node22&#45;&gt;Node25</title>
<path fill="none" stroke="midnightblue" d="M95.9108,-35.6817C114.734,-30.4607 136.338,-24.4684 153.94,-19.5859"/>
<polygon fill="midnightblue" stroke="midnightblue" points="94.7716,-32.3654 86.0709,-38.411 96.6426,-39.1108 94.7716,-32.3654"/>
</g>
<!-- Node26 -->
<g id="node5" class="node"><title>Node26</title>
<g id="a_node5"><a xlink:href="class_config.html#a2a806f322b0d533aabdb8e796d3b1033" target="_top" xlink:title="The execute method is the config &quot;main function&quot; In this method, sentence from the uart are process e...">
<polygon fill="none" stroke="black" points="278,-0.5 278,-19.5 364,-19.5 364,-0.5 278,-0.5"/>
<text text-anchor="middle" x="321" y="-7.5" font-family="Helvetica,sans-Serif" font-size="10.00">Config::execute</text>
</a>
</g>
</g>
<!-- Node25&#45;&gt;Node26 -->
<g id="edge4" class="edge"><title>Node25&#45;&gt;Node26</title>
<path fill="none" stroke="midnightblue" d="M250.216,-10C259.534,-10 268.991,-10 277.81,-10"/>
<polygon fill="midnightblue" stroke="midnightblue" points="250.198,-6.5001 240.198,-10 250.198,-13.5001 250.198,-6.5001"/>
</g>
</g>
</svg>
