<?xml version="1.0" encoding="UTF-8" standalone="no"?>
<!DOCTYPE svg PUBLIC "-//W3C//DTD SVG 1.1//EN"
 "http://www.w3.org/Graphics/SVG/1.1/DTD/svg11.dtd">
<!-- Generated by graphviz version 2.38.0 (20140413.2041)
 -->
<!-- Title: Config::atoc Pages: 1 -->
<svg width="568pt" height="47pt"
 viewBox="0.00 0.00 568.00 47.00" xmlns="http://www.w3.org/2000/svg" xmlns:xlink="http://www.w3.org/1999/xlink">
<g id="graph0" class="graph" transform="scale(1 1) rotate(0) translate(4 43)">
<title>Config::atoc</title>
<!-- Node10 -->
<g id="node1" class="node"><title>Node10</title>
<polygon fill="#bfbfbf" stroke="black" points="0,-19.5 0,-38.5 70,-38.5 70,-19.5 0,-19.5"/>
<text text-anchor="middle" x="35" y="-26.5" font-family="Helvetica,sans-Serif" font-size="10.00">Config::atoc</text>
</g>
<!-- Node11 -->
<g id="node2" class="node"><title>Node11</title>
<g id="a_node2"><a xlink:href="class_config.html#a78ed6d7c25fb2d139420c803ad10bb36" target="_top" xlink:title="Config::endLine">
<polygon fill="none" stroke="black" points="228,-19.5 228,-38.5 313,-38.5 313,-19.5 228,-19.5"/>
<text text-anchor="middle" x="270.5" y="-26.5" font-family="Helvetica,sans-Serif" font-size="10.00">Config::endLine</text>
</a>
</g>
</g>
<!-- Node10&#45;&gt;Node11 -->
<g id="edge1" class="edge"><title>Node10&#45;&gt;Node11</title>
<path fill="none" stroke="midnightblue" d="M80.4961,-29C122.922,-29 186.324,-29 227.797,-29"/>
<polygon fill="midnightblue" stroke="midnightblue" points="80.4538,-25.5001 70.4537,-29 80.4537,-32.5001 80.4538,-25.5001"/>
</g>
<!-- Node14 -->
<g id="node5" class="node"><title>Node14</title>
<g id="a_node5"><a xlink:href="class_config.html#a2a806f322b0d533aabdb8e796d3b1033" target="_top" xlink:title="Main state function. ">
<polygon fill="none" stroke="black" points="106,-0.5 106,-19.5 192,-19.5 192,-0.5 106,-0.5"/>
<text text-anchor="middle" x="149" y="-7.5" font-family="Helvetica,sans-Serif" font-size="10.00">Config::execute</text>
</a>
</g>
</g>
<!-- Node10&#45;&gt;Node14 -->
<g id="edge4" class="edge"><title>Node10&#45;&gt;Node14</title>
<path fill="none" stroke="midnightblue" d="M80.2102,-21.5001C88.6012,-20.0766 97.3622,-18.5903 105.693,-17.1772"/>
<polygon fill="midnightblue" stroke="midnightblue" points="79.486,-18.0728 70.2123,-23.1961 80.6568,-24.9742 79.486,-18.0728"/>
</g>
<!-- Node12 -->
<g id="node3" class="node"><title>Node12</title>
<g id="a_node3"><a xlink:href="class_f_s_m.html#a3819be8e9fe92b750f47b9731e92f254" target="_top" xlink:title="This method read the last char receive by the UART0 and check what is need to do. ...">
<polygon fill="none" stroke="black" points="349,-19.5 349,-38.5 486,-38.5 486,-19.5 349,-19.5"/>
<text text-anchor="middle" x="417.5" y="-26.5" font-family="Helvetica,sans-Serif" font-size="10.00">FSM::character_processing</text>
</a>
</g>
</g>
<!-- Node11&#45;&gt;Node12 -->
<g id="edge2" class="edge"><title>Node11&#45;&gt;Node12</title>
<path fill="none" stroke="midnightblue" d="M323.323,-29C331.629,-29 340.329,-29 348.937,-29"/>
<polygon fill="midnightblue" stroke="midnightblue" points="323.051,-25.5001 313.051,-29 323.051,-32.5001 323.051,-25.5001"/>
</g>
<!-- Node13 -->
<g id="node4" class="node"><title>Node13</title>
<g id="a_node4"><a xlink:href="main_8cpp.html#ae66f6b31b5ad750f1fe042a706a4e3d4" target="_top" xlink:title="main">
<polygon fill="none" stroke="black" points="522,-19.5 522,-38.5 560,-38.5 560,-19.5 522,-19.5"/>
<text text-anchor="middle" x="541" y="-26.5" font-family="Helvetica,sans-Serif" font-size="10.00">main</text>
</a>
</g>
</g>
<!-- Node12&#45;&gt;Node13 -->
<g id="edge3" class="edge"><title>Node12&#45;&gt;Node13</title>
<path fill="none" stroke="midnightblue" d="M496.013,-29C505.457,-29 514.315,-29 521.572,-29"/>
<polygon fill="midnightblue" stroke="midnightblue" points="496.001,-25.5001 486.001,-29 496.001,-32.5001 496.001,-25.5001"/>
</g>
<!-- Node14&#45;&gt;Node11 -->
<g id="edge5" class="edge"><title>Node14&#45;&gt;Node11</title>
<path fill="none" stroke="midnightblue" d="M202.069,-18.2787C210.656,-19.644 219.457,-21.0435 227.749,-22.3618"/>
<polygon fill="midnightblue" stroke="midnightblue" points="202.557,-14.8124 192.131,-16.6987 201.458,-21.7256 202.557,-14.8124"/>
</g>
</g>
</svg>
