<?xml version="1.0" encoding="UTF-8" standalone="no"?>
<!DOCTYPE svg PUBLIC "-//W3C//DTD SVG 1.1//EN"
 "http://www.w3.org/Graphics/SVG/1.1/DTD/svg11.dtd">
<!-- Generated by graphviz version 2.38.0 (20140413.2041)
 -->
<!-- Title: Config::execute Pages: 1 -->
<svg width="349pt" height="142pt"
 viewBox="0.00 0.00 349.00 142.00" xmlns="http://www.w3.org/2000/svg" xmlns:xlink="http://www.w3.org/1999/xlink">
<g id="graph0" class="graph" transform="scale(1 1) rotate(0) translate(4 138)">
<title>Config::execute</title>
<!-- Node37 -->
<g id="node1" class="node"><title>Node37</title>
<polygon fill="#bfbfbf" stroke="black" points="0,-57.5 0,-76.5 86,-76.5 86,-57.5 0,-57.5"/>
<text text-anchor="middle" x="43" y="-64.5" font-family="Helvetica,sans-Serif" font-size="10.00">Config::execute</text>
</g>
<!-- Node38 -->
<g id="node2" class="node"><title>Node38</title>
<g id="a_node2"><a xlink:href="class_config.html#a890e1d585e9ae670a6cccaf196250870" target="_top" xlink:title="Config::atoc">
<polygon fill="none" stroke="black" points="146,-114.5 146,-133.5 216,-133.5 216,-114.5 146,-114.5"/>
<text text-anchor="middle" x="181" y="-121.5" font-family="Helvetica,sans-Serif" font-size="10.00">Config::atoc</text>
</a>
</g>
</g>
<!-- Node37&#45;&gt;Node38 -->
<g id="edge1" class="edge"><title>Node37&#45;&gt;Node38</title>
<path fill="none" stroke="midnightblue" d="M61.9622,-76.6234C77.5697,-84.7727 100.919,-96.4587 122,-105 127.217,-107.114 132.767,-109.169 138.286,-111.098"/>
<polygon fill="midnightblue" stroke="midnightblue" points="137.516,-114.532 148.11,-114.42 139.758,-107.901 137.516,-114.532"/>
</g>
<!-- Node39 -->
<g id="node3" class="node"><title>Node39</title>
<g id="a_node3"><a xlink:href="class_config.html#a975933ecde91dc436d4ca39464cfd25f" target="_top" xlink:title="display all config on USART0 ">
<polygon fill="none" stroke="black" points="140,-76.5 140,-95.5 222,-95.5 222,-76.5 140,-76.5"/>
<text text-anchor="middle" x="181" y="-83.5" font-family="Helvetica,sans-Serif" font-size="10.00">Config::display</text>
</a>
</g>
</g>
<!-- Node37&#45;&gt;Node39 -->
<g id="edge2" class="edge"><title>Node37&#45;&gt;Node39</title>
<path fill="none" stroke="midnightblue" d="M86.2858,-72.9076C99.9642,-74.8185 115.271,-76.9569 129.484,-78.9426"/>
<polygon fill="midnightblue" stroke="midnightblue" points="129.213,-82.4387 139.601,-80.356 130.182,-75.506 129.213,-82.4387"/>
</g>
<!-- Node40 -->
<g id="node4" class="node"><title>Node40</title>
<g id="a_node4"><a xlink:href="class_usart.html#ab236d7c399791bbe1431f85e9b60f601" target="_top" xlink:title="USART string sender function. ">
<polygon fill="none" stroke="black" points="276,-57.5 276,-76.5 341,-76.5 341,-57.5 276,-57.5"/>
<text text-anchor="middle" x="308.5" y="-64.5" font-family="Helvetica,sans-Serif" font-size="10.00">Usart::print</text>
</a>
</g>
</g>
<!-- Node37&#45;&gt;Node40 -->
<g id="edge4" class="edge"><title>Node37&#45;&gt;Node40</title>
<path fill="none" stroke="midnightblue" d="M86.0437,-67C135.317,-67 216.47,-67 265.657,-67"/>
<polygon fill="midnightblue" stroke="midnightblue" points="265.943,-70.5001 275.943,-67 265.943,-63.5001 265.943,-70.5001"/>
</g>
<!-- Node41 -->
<g id="node5" class="node"><title>Node41</title>
<g id="a_node5"><a xlink:href="class_config.html#a5fefd76d384c0a710ea0dd0d71d5d05b" target="_top" xlink:title="Update saved config data in the eeprom. ">
<polygon fill="none" stroke="black" points="122,-0.5 122,-19.5 240,-19.5 240,-0.5 122,-0.5"/>
<text text-anchor="middle" x="181" y="-7.5" font-family="Helvetica,sans-Serif" font-size="10.00">Config::update_epprom</text>
</a>
</g>
</g>
<!-- Node37&#45;&gt;Node41 -->
<g id="edge5" class="edge"><title>Node37&#45;&gt;Node41</title>
<path fill="none" stroke="midnightblue" d="M66.5079,-57.4219C82.0779,-50.8099 103.281,-41.8324 122,-34 130.237,-30.5534 139.143,-26.8544 147.446,-23.4177"/>
<polygon fill="midnightblue" stroke="midnightblue" points="148.935,-26.5895 156.839,-19.5347 146.261,-20.1204 148.935,-26.5895"/>
</g>
<!-- Node39&#45;&gt;Node40 -->
<g id="edge3" class="edge"><title>Node39&#45;&gt;Node40</title>
<path fill="none" stroke="midnightblue" d="M222.054,-79.936C236.023,-77.8212 251.727,-75.4437 265.825,-73.3094"/>
<polygon fill="midnightblue" stroke="midnightblue" points="266.395,-76.763 275.759,-71.8054 265.348,-69.8418 266.395,-76.763"/>
</g>
</g>
</svg>
