<?xml version="1.0" encoding="UTF-8" standalone="no"?>
<!DOCTYPE svg PUBLIC "-//W3C//DTD SVG 1.1//EN"
 "http://www.w3.org/Graphics/SVG/1.1/DTD/svg11.dtd">
<!-- Generated by graphviz version 2.38.0 (20140413.2041)
 -->
<!-- Title: Output::usart0_print Pages: 1 -->
<!--zoomable 335 -->
<svg id="main" version="1.1" xmlns="http://www.w3.org/2000/svg" xmlns:xlink="http://www.w3.org/1999/xlink" xml:space="preserve" onload="init(evt)">
<style type="text/css"><![CDATA[
.edge:hover path { stroke: red; }
.edge:hover polygon { stroke: red; fill: red; }
]]></style>
<script type="text/javascript"><![CDATA[
var edges = document.getElementsByTagName('g');
if (edges && edges.length) {
  for (var i=0;i<edges.length;i++) {
    if (edges[i].id.substr(0,4)=='edge') {
      edges[i].setAttribute('class','edge');
    }
  }
}
]]></script>
        <defs>
                <circle id="rim" cx="0" cy="0" r="7"/>
                <circle id="rim2" cx="0" cy="0" r="3.5"/>
                <g id="zoomPlus">
                        <use xlink:href="#rim" fill="#404040">
                                <set attributeName="fill" to="#808080" begin="zoomplus.mouseover" end="zoomplus.mouseout"/>
                        </use>
                        <path d="M-4,0h8M0,-4v8" fill="none" stroke="white" stroke-width="1.5" pointer-events="none"/>
                </g>
                <g id="zoomMin">
                        <use xlink:href="#rim" fill="#404040">
                                <set attributeName="fill" to="#808080" begin="zoomminus.mouseover" end="zoomminus.mouseout"/>
                        </use>
                        <path d="M-4,0h8" fill="none" stroke="white" stroke-width="1.5" pointer-events="none"/>
                </g>
                <g id="dirArrow">
                        <path fill="none" stroke="white" stroke-width="1.5" d="M0,-3.0v7 M-2.5,-0.5L0,-3.0L2.5,-0.5"/>
                </g>
               <g id="resetDef">
                       <use xlink:href="#rim2" fill="#404040">
                               <set attributeName="fill" to="#808080" begin="reset.mouseover" end="reset.mouseout"/>
                       </use>
               </g>
        </defs>

<script type="text/javascript">
var viewWidth = 649;
var viewHeight = 335;
var sectionId = 'dynsection-5';
</script>
<script xlink:href="svgpan.js"/>
<svg id="graph" class="graph">
<g id="viewport">
<title>Output::usart0_print</title>
<!-- Node30 -->
<g id="node1" class="node"><title>Node30</title>
<polygon fill="#bfbfbf" stroke="black" points="0,-232.5 0,-251.5 103,-251.5 103,-232.5 0,-232.5"/>
<text text-anchor="middle" x="51.5" y="-239.5" font-family="Helvetica,sans-Serif" font-size="10.00">Output::usart0_print</text>
</g>
<!-- Node31 -->
<g id="node2" class="node"><title>Node31</title>
<g id="a_node2"><a xlink:href="class_usart.html#ab236d7c399791bbe1431f85e9b60f601" target="_top" xlink:title="USART string sender function. ">
<polygon fill="none" stroke="black" points="572.5,-265.5 572.5,-284.5 637.5,-284.5 637.5,-265.5 572.5,-265.5"/>
<text text-anchor="middle" x="605" y="-272.5" font-family="Helvetica,sans-Serif" font-size="10.00">Usart::print</text>
</a>
</g>
</g>
<!-- Node30&#45;&gt;Node31 -->
<g id="edge1" class="edge"><title>Node30&#45;&gt;Node31</title>
<path fill="none" stroke="midnightblue" d="M86.3899,-251.612C150.488,-269.236 294.163,-306.097 418,-319 468.836,-324.297 484.225,-334.275 533,-319 551.589,-313.178 552.415,-304.218 569,-294 571.347,-292.554 573.812,-291.097 576.302,-289.669"/>
<polygon fill="midnightblue" stroke="midnightblue" points="578.221,-292.606 585.257,-284.685 574.817,-286.49 578.221,-292.606"/>
</g>
<!-- Node32 -->
<g id="node3" class="node"><title>Node32</title>
<g id="a_node3"><a xlink:href="class_sensor.html#a38a47820684e5ff0f61ad32b8afbde45" target="_top" xlink:title="The print_average method print the average&#39;s value in the string. ">
<polygon fill="none" stroke="black" points="139,-136.5 139,-155.5 251,-155.5 251,-136.5 139,-136.5"/>
<text text-anchor="middle" x="195" y="-143.5" font-family="Helvetica,sans-Serif" font-size="10.00">Sensor::print_average</text>
</a>
</g>
</g>
<!-- Node30&#45;&gt;Node32 -->
<g id="edge2" class="edge"><title>Node30&#45;&gt;Node32</title>
<path fill="none" stroke="midnightblue" d="M66.5849,-232.444C91.1648,-215.768 142.079,-181.226 171.563,-161.222"/>
<polygon fill="midnightblue" stroke="midnightblue" points="173.662,-164.028 179.972,-155.517 169.732,-158.235 173.662,-164.028"/>
</g>
<!-- Node33 -->
<g id="node4" class="node"><title>Node33</title>
<g id="a_node4"><a xlink:href="class_sensor.html#a4e88d49608387ab4f65734913e514109" target="_top" xlink:title="Sensor::is_enable">
<polygon fill="none" stroke="black" points="287,-136.5 287,-155.5 382,-155.5 382,-136.5 287,-136.5"/>
<text text-anchor="middle" x="334.5" y="-143.5" font-family="Helvetica,sans-Serif" font-size="10.00">Sensor::is_enable</text>
</a>
</g>
</g>
<!-- Node32&#45;&gt;Node33 -->
<g id="edge3" class="edge"><title>Node32&#45;&gt;Node33</title>
<path fill="none" stroke="midnightblue" d="M251.134,-139.369C259.527,-139.221 268.201,-139.211 276.63,-139.34"/>
<polygon fill="midnightblue" stroke="midnightblue" points="276.678,-142.842 286.754,-139.567 276.835,-135.844 276.678,-142.842"/>
</g>
<!-- Node33&#45;&gt;Node32 -->
<g id="edge11" class="edge"><title>Node33&#45;&gt;Node32</title>
<path fill="none" stroke="midnightblue" d="M286.754,-152.433C278.523,-152.678 269.821,-152.781 261.194,-152.742"/>
<polygon fill="midnightblue" stroke="midnightblue" points="261.172,-149.242 251.134,-152.631 261.095,-156.241 261.172,-149.242"/>
</g>
<!-- Node34 -->
<g id="node5" class="node"><title>Node34</title>
<g id="a_node5"><a xlink:href="class_sensor.html#a9478b09a17b24105c0fe5b32e988224a" target="_top" xlink:title="Sensor::print">
<polygon fill="none" stroke="black" points="569,-95.5 569,-114.5 641,-114.5 641,-95.5 569,-95.5"/>
<text text-anchor="middle" x="605" y="-102.5" font-family="Helvetica,sans-Serif" font-size="10.00">Sensor::print</text>
</a>
</g>
</g>
<!-- Node33&#45;&gt;Node34 -->
<g id="edge4" class="edge"><title>Node33&#45;&gt;Node34</title>
<path fill="none" stroke="midnightblue" d="M349.623,-136.428C365.463,-126.321 392.308,-111.032 418,-105 464.982,-93.9692 520.499,-95.8177 558.574,-99.2673"/>
<polygon fill="midnightblue" stroke="midnightblue" points="558.535,-102.78 568.829,-100.273 559.219,-95.8136 558.535,-102.78"/>
</g>
<!-- Node35 -->
<g id="node6" class="node"><title>Node35</title>
<g id="a_node6"><a xlink:href="class_sensor.html#a59e815290b2883cea096c8bc613429c0" target="_top" xlink:title="Sensor::read_value">
<polygon fill="none" stroke="black" points="425,-38.5 425,-57.5 526,-57.5 526,-38.5 425,-38.5"/>
<text text-anchor="middle" x="475.5" y="-45.5" font-family="Helvetica,sans-Serif" font-size="10.00">Sensor::read_value</text>
</a>
</g>
</g>
<!-- Node33&#45;&gt;Node35 -->
<g id="edge5" class="edge"><title>Node33&#45;&gt;Node35</title>
<path fill="none" stroke="midnightblue" d="M344.318,-136.24C358.576,-120.914 388.126,-90.9972 418,-72 424.042,-68.1577 430.805,-64.6791 437.493,-61.6379"/>
<polygon fill="midnightblue" stroke="midnightblue" points="439.332,-64.6579 447.147,-57.5039 436.576,-58.2231 439.332,-64.6579"/>
</g>
<!-- Node36 -->
<g id="node7" class="node"><title>Node36</title>
<g id="a_node7"><a xlink:href="class_sensor.html#a0e1288d8b8594192f9d65819c185764f" target="_top" xlink:title="This method print the sensor configuration for the sensor. It&#39;s a good idea to overload this function...">
<polygon fill="none" stroke="black" points="423.5,-114.5 423.5,-133.5 527.5,-133.5 527.5,-114.5 423.5,-114.5"/>
<text text-anchor="middle" x="475.5" y="-121.5" font-family="Helvetica,sans-Serif" font-size="10.00">Sensor::print_config</text>
</a>
</g>
</g>
<!-- Node33&#45;&gt;Node36 -->
<g id="edge6" class="edge"><title>Node33&#45;&gt;Node36</title>
<path fill="none" stroke="midnightblue" d="M382.172,-138.613C392.213,-137.024 402.969,-135.321 413.464,-133.66"/>
<polygon fill="midnightblue" stroke="midnightblue" points="414.084,-137.106 423.414,-132.086 412.99,-130.192 414.084,-137.106"/>
</g>
<!-- Node37 -->
<g id="node8" class="node"><title>Node37</title>
<g id="a_node8"><a xlink:href="class_sensor.html#ae16fd0cbdda6cfed1deac36f5c7c0a8f" target="_top" xlink:title="This method calculate the average from the data array. ">
<polygon fill="none" stroke="black" points="420,-0.5 420,-19.5 531,-19.5 531,-0.5 420,-0.5"/>
<text text-anchor="middle" x="475.5" y="-7.5" font-family="Helvetica,sans-Serif" font-size="10.00">Sensor::calc_average</text>
</a>
</g>
</g>
<!-- Node33&#45;&gt;Node37 -->
<g id="edge9" class="edge"><title>Node33&#45;&gt;Node37</title>
<path fill="none" stroke="midnightblue" d="M337.99,-136.41C345.834,-113.702 371.81,-59.1951 411.626,-25.2327"/>
<polygon fill="midnightblue" stroke="midnightblue" points="414.141,-27.7037 419.773,-18.7296 409.774,-22.233 414.141,-27.7037"/>
</g>
<!-- Node38 -->
<g id="node9" class="node"><title>Node38</title>
<g id="a_node9"><a xlink:href="class_sensor.html#aa03d707dfa7562805b77f9040831418b" target="_top" xlink:title="Sensor::print_data\l_array">
<polygon fill="none" stroke="black" points="427.5,-279 427.5,-309 523.5,-309 523.5,-279 427.5,-279"/>
<text text-anchor="start" x="435.5" y="-297" font-family="Helvetica,sans-Serif" font-size="10.00">Sensor::print_data</text>
<text text-anchor="middle" x="475.5" y="-286" font-family="Helvetica,sans-Serif" font-size="10.00">_array</text>
</a>
</g>
</g>
<!-- Node33&#45;&gt;Node38 -->
<g id="edge12" class="edge"><title>Node33&#45;&gt;Node38</title>
<path fill="none" stroke="midnightblue" d="M339.653,-155.652C349.85,-178.33 378.217,-235.608 418,-269 419.977,-270.659 422.081,-272.228 424.272,-273.707"/>
<polygon fill="midnightblue" stroke="midnightblue" points="422.684,-276.836 433.06,-278.98 426.286,-270.834 422.684,-276.836"/>
</g>
<!-- Node40 -->
<g id="node11" class="node"><title>Node40</title>
<g id="a_node11"><a xlink:href="class_sensor.html#a953410c8a76c3b718349000a11e6160e" target="_top" xlink:title="Load saved parameters for sensors from the eeprom. ">
<polygon fill="none" stroke="black" points="423.5,-240.5 423.5,-259.5 527.5,-259.5 527.5,-240.5 423.5,-240.5"/>
<text text-anchor="middle" x="475.5" y="-247.5" font-family="Helvetica,sans-Serif" font-size="10.00">Sensor::load_param</text>
</a>
</g>
</g>
<!-- Node33&#45;&gt;Node40 -->
<g id="edge15" class="edge"><title>Node33&#45;&gt;Node40</title>
<path fill="none" stroke="midnightblue" d="M342.328,-155.606C355.201,-173.049 384.77,-210.057 418,-231 421.304,-233.082 424.861,-234.963 428.525,-236.657"/>
<polygon fill="midnightblue" stroke="midnightblue" points="427.193,-239.894 437.771,-240.491 429.875,-233.428 427.193,-239.894"/>
</g>
<!-- Node41 -->
<g id="node12" class="node"><title>Node41</title>
<g id="a_node12"><a xlink:href="class_sensor.html#abf05dcc164ceadf01fa48c32fbaf040a" target="_top" xlink:title="Update saved parameters for sensors in the eeprom. ">
<polygon fill="none" stroke="black" points="418,-202.5 418,-221.5 533,-221.5 533,-202.5 418,-202.5"/>
<text text-anchor="middle" x="475.5" y="-209.5" font-family="Helvetica,sans-Serif" font-size="10.00">Sensor::update_param</text>
</a>
</g>
</g>
<!-- Node33&#45;&gt;Node41 -->
<g id="edge16" class="edge"><title>Node33&#45;&gt;Node41</title>
<path fill="none" stroke="midnightblue" d="M350.909,-155.626C367.184,-165.545 393.791,-181.06 418,-192 423.406,-194.443 429.207,-196.79 434.958,-198.962"/>
<polygon fill="midnightblue" stroke="midnightblue" points="433.918,-202.308 444.512,-202.44 436.313,-195.731 433.918,-202.308"/>
</g>
<!-- Node42 -->
<g id="node13" class="node"><title>Node42</title>
<g id="a_node13"><a xlink:href="class_sensor.html#a4a9eb446ca4c73268ec6d93b959273f9" target="_top" xlink:title="Initialize the eeprom memory. ">
<polygon fill="none" stroke="black" points="431,-153 431,-183 520,-183 520,-153 431,-153"/>
<text text-anchor="start" x="439" y="-171" font-family="Helvetica,sans-Serif" font-size="10.00">Sensor::initialize</text>
<text text-anchor="middle" x="475.5" y="-160" font-family="Helvetica,sans-Serif" font-size="10.00">_param</text>
</a>
</g>
</g>
<!-- Node33&#45;&gt;Node42 -->
<g id="edge17" class="edge"><title>Node33&#45;&gt;Node42</title>
<path fill="none" stroke="midnightblue" d="M382.172,-153.387C394.494,-155.337 407.893,-157.458 420.564,-159.463"/>
<polygon fill="midnightblue" stroke="midnightblue" points="420.112,-162.935 430.536,-161.042 421.206,-156.021 420.112,-162.935"/>
</g>
<!-- Node36&#45;&gt;Node31 -->
<g id="edge7" class="edge"><title>Node36&#45;&gt;Node31</title>
<path fill="none" stroke="midnightblue" d="M517.381,-133.57C523.004,-136.037 528.412,-139.129 533,-143 569.152,-173.503 589.761,-227.242 598.673,-255.838"/>
<polygon fill="midnightblue" stroke="midnightblue" points="595.328,-256.872 601.523,-265.467 602.04,-254.884 595.328,-256.872"/>
</g>
<!-- Node36&#45;&gt;Node34 -->
<g id="edge8" class="edge"><title>Node36&#45;&gt;Node34</title>
<path fill="none" stroke="midnightblue" d="M527.624,-116.381C537.908,-114.849 548.649,-113.248 558.717,-111.748"/>
<polygon fill="midnightblue" stroke="midnightblue" points="559.543,-115.164 568.918,-110.228 558.511,-108.24 559.543,-115.164"/>
</g>
<!-- Node37&#45;&gt;Node33 -->
<g id="edge10" class="edge"><title>Node37&#45;&gt;Node33</title>
<path fill="none" stroke="midnightblue" d="M459.374,-19.6653C447.245,-23.9267 430.28,-28.8468 418,-38 385.423,-62.2817 360.809,-103.263 347.274,-127.37"/>
<polygon fill="midnightblue" stroke="midnightblue" points="344.117,-125.844 342.318,-136.285 350.235,-129.245 344.117,-125.844"/>
</g>
<!-- Node38&#45;&gt;Node31 -->
<g id="edge13" class="edge"><title>Node38&#45;&gt;Node31</title>
<path fill="none" stroke="midnightblue" d="M523.614,-286.979C536.25,-285.096 549.823,-283.073 562.152,-281.236"/>
<polygon fill="midnightblue" stroke="midnightblue" points="562.793,-284.679 572.168,-279.744 561.761,-277.756 562.793,-284.679"/>
</g>
<!-- Node39 -->
<g id="node10" class="node"><title>Node39</title>
<g id="a_node10"><a xlink:href="class_usart.html#a86c9264f48dabbc3d97fa32d2d02d22d" target="_top" xlink:title="USART char sender function. ">
<polygon fill="none" stroke="black" points="575,-303.5 575,-322.5 635,-322.5 635,-303.5 575,-303.5"/>
<text text-anchor="middle" x="605" y="-310.5" font-family="Helvetica,sans-Serif" font-size="10.00">Usart::set</text>
</a>
</g>
</g>
<!-- Node38&#45;&gt;Node39 -->
<g id="edge14" class="edge"><title>Node38&#45;&gt;Node39</title>
<path fill="none" stroke="midnightblue" d="M523.614,-301.021C537.16,-303.039 551.783,-305.219 564.796,-307.158"/>
<polygon fill="midnightblue" stroke="midnightblue" points="564.428,-310.642 574.835,-308.654 565.46,-303.718 564.428,-310.642"/>
</g>
</g>
</svg>
        <g id="navigator" transform="translate(0 0)" fill="#404254">
                <rect fill="#f2f5e9" fill-opacity="0.5" stroke="#606060" stroke-width=".5" x="0" y="0" width="60" height="60"/>
                <use id="zoomplus" xlink:href="#zoomPlus" x="17" y="9" onmousedown="handleZoom(evt,'in')"/>
                <use id="zoomminus" xlink:href="#zoomMin" x="42" y="9" onmousedown="handleZoom(evt,'out')"/>
                <use id="reset" xlink:href="#resetDef" x="30" y="36" onmousedown="handleReset()"/>
                <g id="arrowUp" xlink:href="#dirArrow" transform="translate(30 24)" onmousedown="handlePan(0,-1)">
                  <use xlink:href="#rim" fill="#404040">
                        <set attributeName="fill" to="#808080" begin="arrowUp.mouseover" end="arrowUp.mouseout"/>
                  </use>
                  <path fill="none" stroke="white" stroke-width="1.5" d="M0,-3.0v7 M-2.5,-0.5L0,-3.0L2.5,-0.5"/>
                </g>
                <g id="arrowRight" xlink:href="#dirArrow" transform="rotate(90) translate(36 -43)" onmousedown="handlePan(1,0)">
                  <use xlink:href="#rim" fill="#404040">
                        <set attributeName="fill" to="#808080" begin="arrowRight.mouseover" end="arrowRight.mouseout"/>
                  </use>
                  <path fill="none" stroke="white" stroke-width="1.5" d="M0,-3.0v7 M-2.5,-0.5L0,-3.0L2.5,-0.5"/>
                </g>
                <g id="arrowDown" xlink:href="#dirArrow" transform="rotate(180) translate(-30 -48)" onmousedown="handlePan(0,1)">
                  <use xlink:href="#rim" fill="#404040">
                        <set attributeName="fill" to="#808080" begin="arrowDown.mouseover" end="arrowDown.mouseout"/>
                  </use>
                  <path fill="none" stroke="white" stroke-width="1.5" d="M0,-3.0v7 M-2.5,-0.5L0,-3.0L2.5,-0.5"/>
                </g>
                <g id="arrowLeft" xlink:href="#dirArrow" transform="rotate(270) translate(-36 17)" onmousedown="handlePan(-1,0)">
                  <use xlink:href="#rim" fill="#404040">
                        <set attributeName="fill" to="#808080" begin="arrowLeft.mouseover" end="arrowLeft.mouseout"/>
                  </use>
                  <path fill="none" stroke="white" stroke-width="1.5" d="M0,-3.0v7 M-2.5,-0.5L0,-3.0L2.5,-0.5"/>
                </g>
        </g>
        <svg viewBox="0 0 15 15" width="100%" height="30px" preserveAspectRatio="xMaxYMin meet">
         <g id="arrow_out" transform="scale(0.3 0.3)">
          <a xlink:href="class_output_af4bc42d2d3bb3b2a98782f0df0eba133_cgraph_org.svg" target="_base">
           <rect id="button" ry="5" rx="5" y="6" x="6" height="38" width="38"
                fill="#f2f5e9" fill-opacity="0.5" stroke="#606060" stroke-width="1.0"/>
           <path id="arrow"
             d="M 11.500037,31.436501 C 11.940474,20.09759 22.043105,11.32322 32.158766,21.979434 L 37.068811,17.246167 C 37.068811,17.246167 37.088388,32 37.088388,32 L 22.160133,31.978069 C 22.160133,31.978069 26.997745,27.140456 26.997745,27.140456 C 18.528582,18.264221 13.291696,25.230495 11.500037,31.436501 z"
             style="fill:#404040;"/>
          </a>
         </g>
        </svg>
</svg>
