<?xml version="1.0" encoding="UTF-8" standalone="no"?>
<!DOCTYPE svg PUBLIC "-//W3C//DTD SVG 1.1//EN"
 "http://www.w3.org/Graphics/SVG/1.1/DTD/svg11.dtd">
<!-- Generated by graphviz version 2.38.0 (20140413.2041)
 -->
<!-- Title: Config::endLine Pages: 1 -->
<svg width="499pt" height="306pt"
 viewBox="0.00 0.00 499.00 306.00" xmlns="http://www.w3.org/2000/svg" xmlns:xlink="http://www.w3.org/1999/xlink">
<g id="graph0" class="graph" transform="scale(1 1) rotate(0) translate(4 302)">
<title>Config::endLine</title>
<!-- Node26 -->
<g id="node1" class="node"><title>Node26</title>
<polygon fill="#bfbfbf" stroke="black" points="0,-145.5 0,-164.5 85,-164.5 85,-145.5 0,-145.5"/>
<text text-anchor="middle" x="42.5" y="-152.5" font-family="Helvetica,sans-Serif" font-size="10.00">Config::endLine</text>
</g>
<!-- Node27 -->
<g id="node2" class="node"><title>Node27</title>
<g id="a_node2"><a xlink:href="class_config.html#a3f8d043789557191686ae632ebe6a571" target="_top" xlink:title="add c to the end of request ">
<polygon fill="none" stroke="black" points="121,-278.5 121,-297.5 236,-297.5 236,-278.5 121,-278.5"/>
<text text-anchor="middle" x="178.5" y="-285.5" font-family="Helvetica,sans-Serif" font-size="10.00">Config::addToRequest</text>
</a>
</g>
</g>
<!-- Node26&#45;&gt;Node27 -->
<g id="edge1" class="edge"><title>Node26&#45;&gt;Node27</title>
<path fill="none" stroke="midnightblue" d="M48.1144,-164.814C58.404,-185.742 85.1709,-235.192 121,-264 125.905,-267.944 131.555,-271.346 137.344,-274.246"/>
<polygon fill="midnightblue" stroke="midnightblue" points="135.917,-277.441 146.469,-278.395 138.814,-271.069 135.917,-277.441"/>
</g>
<!-- Node28 -->
<g id="node3" class="node"><title>Node28</title>
<g id="a_node3"><a xlink:href="class_config.html#a890e1d585e9ae670a6cccaf196250870" target="_top" xlink:title="Config::atoc">
<polygon fill="none" stroke="black" points="296,-240.5 296,-259.5 366,-259.5 366,-240.5 296,-240.5"/>
<text text-anchor="middle" x="331" y="-247.5" font-family="Helvetica,sans-Serif" font-size="10.00">Config::atoc</text>
</a>
</g>
</g>
<!-- Node26&#45;&gt;Node28 -->
<g id="edge2" class="edge"><title>Node26&#45;&gt;Node28</title>
<path fill="none" stroke="midnightblue" d="M52.9715,-164.935C66.6221,-178.595 93.2506,-202.861 121,-215 174.672,-238.478 242.436,-246.291 285.996,-248.842"/>
<polygon fill="midnightblue" stroke="midnightblue" points="285.818,-252.337 295.986,-249.359 286.181,-245.347 285.818,-252.337"/>
</g>
<!-- Node29 -->
<g id="node4" class="node"><title>Node29</title>
<g id="a_node4"><a xlink:href="class_config.html#a975933ecde91dc436d4ca39464cfd25f" target="_top" xlink:title="display all config on USART0 ">
<polygon fill="none" stroke="black" points="290,-202.5 290,-221.5 372,-221.5 372,-202.5 290,-202.5"/>
<text text-anchor="middle" x="331" y="-209.5" font-family="Helvetica,sans-Serif" font-size="10.00">Config::display</text>
</a>
</g>
</g>
<!-- Node26&#45;&gt;Node29 -->
<g id="edge3" class="edge"><title>Node26&#45;&gt;Node29</title>
<path fill="none" stroke="midnightblue" d="M58.8535,-164.633C74.0239,-173.633 98.2019,-186.61 121,-193 173.829,-207.807 236.822,-211.768 279.743,-212.52"/>
<polygon fill="midnightblue" stroke="midnightblue" points="279.891,-216.022 289.934,-212.645 279.977,-209.023 279.891,-216.022"/>
</g>
<!-- Node31 -->
<g id="node6" class="node"><title>Node31</title>
<g id="a_node6"><a xlink:href="class_config.html#a2a806f322b0d533aabdb8e796d3b1033" target="_top" xlink:title="Main state function. ">
<polygon fill="none" stroke="black" points="135.5,-164.5 135.5,-183.5 221.5,-183.5 221.5,-164.5 135.5,-164.5"/>
<text text-anchor="middle" x="178.5" y="-171.5" font-family="Helvetica,sans-Serif" font-size="10.00">Config::execute</text>
</a>
</g>
</g>
<!-- Node26&#45;&gt;Node31 -->
<g id="edge5" class="edge"><title>Node26&#45;&gt;Node31</title>
<path fill="none" stroke="midnightblue" d="M85.1639,-160.908C97.8982,-162.713 112.064,-164.722 125.401,-166.613"/>
<polygon fill="midnightblue" stroke="midnightblue" points="125.008,-170.092 135.4,-168.031 125.991,-163.161 125.008,-170.092"/>
</g>
<!-- Node32 -->
<g id="node7" class="node"><title>Node32</title>
<g id="a_node7"><a xlink:href="class_config.html#a5fefd76d384c0a710ea0dd0d71d5d05b" target="_top" xlink:title="Update saved config data in the eeprom. ">
<polygon fill="none" stroke="black" points="272,-126.5 272,-145.5 390,-145.5 390,-126.5 272,-126.5"/>
<text text-anchor="middle" x="331" y="-133.5" font-family="Helvetica,sans-Serif" font-size="10.00">Config::update_epprom</text>
</a>
</g>
</g>
<!-- Node26&#45;&gt;Node32 -->
<g id="edge14" class="edge"><title>Node26&#45;&gt;Node32</title>
<path fill="none" stroke="midnightblue" d="M85.1596,-152.237C131.474,-149.166 206.978,-144.159 261.91,-140.516"/>
<polygon fill="midnightblue" stroke="midnightblue" points="262.17,-144.006 271.916,-139.852 261.706,-137.021 262.17,-144.006"/>
</g>
<!-- Node33 -->
<g id="node8" class="node"><title>Node33</title>
<g id="a_node8"><a xlink:href="class_config.html#af2fee2ffae339b1e8ead1cd413e44ee3" target="_top" xlink:title="Clear the eeprom memory. ">
<polygon fill="none" stroke="black" points="135.5,-39 135.5,-69 221.5,-69 221.5,-39 135.5,-39"/>
<text text-anchor="start" x="143.5" y="-57" font-family="Helvetica,sans-Serif" font-size="10.00">Config::initialize</text>
<text text-anchor="middle" x="178.5" y="-46" font-family="Helvetica,sans-Serif" font-size="10.00">_eeprom</text>
</a>
</g>
</g>
<!-- Node26&#45;&gt;Node33 -->
<g id="edge10" class="edge"><title>Node26&#45;&gt;Node33</title>
<path fill="none" stroke="midnightblue" d="M52.3832,-145.434C66.1458,-130.961 93.8723,-103.158 121,-84 125.882,-80.5524 131.208,-77.2286 136.575,-74.1289"/>
<polygon fill="midnightblue" stroke="midnightblue" points="138.526,-77.0495 145.577,-69.1417 135.134,-70.9264 138.526,-77.0495"/>
</g>
<!-- Node34 -->
<g id="node9" class="node"><title>Node34</title>
<g id="a_node9"><a xlink:href="class_config.html#ab55107c3371b6c41be6688c0989993c7" target="_top" xlink:title="Load saved config data from the eeprom. ">
<polygon fill="none" stroke="black" points="125,-0.5 125,-19.5 232,-19.5 232,-0.5 125,-0.5"/>
<text text-anchor="middle" x="178.5" y="-7.5" font-family="Helvetica,sans-Serif" font-size="10.00">Config::load_eeprom</text>
</a>
</g>
</g>
<!-- Node26&#45;&gt;Node34 -->
<g id="edge11" class="edge"><title>Node26&#45;&gt;Node34</title>
<path fill="none" stroke="midnightblue" d="M46.8433,-145.207C55.3732,-121.666 80.1974,-61.4513 121,-29 123.278,-27.1883 125.737,-25.5453 128.311,-24.0559"/>
<polygon fill="midnightblue" stroke="midnightblue" points="129.989,-27.1307 137.402,-19.5613 126.887,-20.8556 129.989,-27.1307"/>
</g>
<!-- Node35 -->
<g id="node10" class="node"><title>Node35</title>
<g id="a_node10"><a xlink:href="class_config.html#a73b87071343f2a21ce6a5cadc1d2c1ba" target="_top" xlink:title="Config::print">
<polygon fill="none" stroke="black" points="296,-88.5 296,-107.5 366,-107.5 366,-88.5 296,-88.5"/>
<text text-anchor="middle" x="331" y="-95.5" font-family="Helvetica,sans-Serif" font-size="10.00">Config::print</text>
</a>
</g>
</g>
<!-- Node26&#45;&gt;Node35 -->
<g id="edge12" class="edge"><title>Node26&#45;&gt;Node35</title>
<path fill="none" stroke="midnightblue" d="M85.2862,-145.619C96.842,-143.083 109.396,-140.383 121,-138 177.834,-126.33 243.594,-113.924 285.938,-106.078"/>
<polygon fill="midnightblue" stroke="midnightblue" points="286.719,-109.493 295.916,-104.233 285.446,-102.609 286.719,-109.493"/>
</g>
<!-- Node30 -->
<g id="node5" class="node"><title>Node30</title>
<g id="a_node5"><a xlink:href="class_usart.html#ab236d7c399791bbe1431f85e9b60f601" target="_top" xlink:title="USART string sender function. ">
<polygon fill="none" stroke="black" points="426,-164.5 426,-183.5 491,-183.5 491,-164.5 426,-164.5"/>
<text text-anchor="middle" x="458.5" y="-171.5" font-family="Helvetica,sans-Serif" font-size="10.00">Usart::print</text>
</a>
</g>
</g>
<!-- Node29&#45;&gt;Node30 -->
<g id="edge4" class="edge"><title>Node29&#45;&gt;Node30</title>
<path fill="none" stroke="midnightblue" d="M363.669,-202.411C379.573,-197.596 399.04,-191.701 416.111,-186.532"/>
<polygon fill="midnightblue" stroke="midnightblue" points="417.285,-189.834 425.841,-183.586 415.256,-183.134 417.285,-189.834"/>
</g>
<!-- Node31&#45;&gt;Node28 -->
<g id="edge7" class="edge"><title>Node31&#45;&gt;Node28</title>
<path fill="none" stroke="midnightblue" d="M192.727,-183.546C210.194,-195.818 242.227,-217.186 272,-231 276.686,-233.174 281.69,-235.209 286.722,-237.079"/>
<polygon fill="midnightblue" stroke="midnightblue" points="285.761,-240.451 296.356,-240.466 288.082,-233.847 285.761,-240.451"/>
</g>
<!-- Node31&#45;&gt;Node29 -->
<g id="edge6" class="edge"><title>Node31&#45;&gt;Node29</title>
<path fill="none" stroke="midnightblue" d="M217.478,-183.589C237.159,-188.558 261.391,-194.677 282.321,-199.961"/>
<polygon fill="midnightblue" stroke="midnightblue" points="281.743,-203.425 292.296,-202.48 283.457,-196.638 281.743,-203.425"/>
</g>
<!-- Node31&#45;&gt;Node30 -->
<g id="edge9" class="edge"><title>Node31&#45;&gt;Node30</title>
<path fill="none" stroke="midnightblue" d="M221.722,-174C274.159,-174 363.072,-174 415.435,-174"/>
<polygon fill="midnightblue" stroke="midnightblue" points="415.714,-177.5 425.714,-174 415.714,-170.5 415.714,-177.5"/>
</g>
<!-- Node31&#45;&gt;Node32 -->
<g id="edge8" class="edge"><title>Node31&#45;&gt;Node32</title>
<path fill="none" stroke="midnightblue" d="M217.478,-164.411C237.159,-159.442 261.391,-153.323 282.321,-148.039"/>
<polygon fill="midnightblue" stroke="midnightblue" points="283.457,-151.362 292.296,-145.52 281.743,-144.575 283.457,-151.362"/>
</g>
<!-- Node35&#45;&gt;Node30 -->
<g id="edge13" class="edge"><title>Node35&#45;&gt;Node30</title>
<path fill="none" stroke="midnightblue" d="M366.051,-106.737C374.157,-109.466 382.597,-112.87 390,-117 409.3,-127.768 428.259,-144.473 441.146,-157.02"/>
<polygon fill="midnightblue" stroke="midnightblue" points="438.787,-159.61 448.334,-164.204 443.735,-154.659 438.787,-159.61"/>
</g>
</g>
</svg>
