<?xml version="1.0" encoding="UTF-8" standalone="no"?>
<!DOCTYPE svg PUBLIC "-//W3C//DTD SVG 1.1//EN"
 "http://www.w3.org/Graphics/SVG/1.1/DTD/svg11.dtd">
<!-- Generated by graphviz version 2.38.0 (20140413.2041)
 -->
<!-- Title: RTC::get_timestamp Pages: 1 -->
<svg width="393pt" height="28pt"
 viewBox="0.00 0.00 393.00 28.00" xmlns="http://www.w3.org/2000/svg" xmlns:xlink="http://www.w3.org/1999/xlink">
<g id="graph0" class="graph" transform="scale(1 1) rotate(0) translate(4 24)">
<title>RTC::get_timestamp</title>
<!-- Node20 -->
<g id="node1" class="node"><title>Node20</title>
<polygon fill="#bfbfbf" stroke="black" points="0,-0.5 0,-19.5 108,-19.5 108,-0.5 0,-0.5"/>
<text text-anchor="middle" x="54" y="-7.5" font-family="Helvetica,sans-Serif" font-size="10.00">RTC::get_timestamp</text>
</g>
<!-- Node21 -->
<g id="node2" class="node"><title>Node21</title>
<g id="a_node2"><a xlink:href="class_r_t_c.html#a20900a7f5bd95b1928bf2d08a0de687c" target="_top" xlink:title="RTC::time_to_epoch">
<polygon fill="none" stroke="black" points="144,-0.5 144,-19.5 251,-19.5 251,-0.5 144,-0.5"/>
<text text-anchor="middle" x="197.5" y="-7.5" font-family="Helvetica,sans-Serif" font-size="10.00">RTC::time_to_epoch</text>
</a>
</g>
</g>
<!-- Node20&#45;&gt;Node21 -->
<g id="edge1" class="edge"><title>Node20&#45;&gt;Node21</title>
<path fill="none" stroke="midnightblue" d="M108.092,-10C116.343,-10 124.937,-10 133.384,-10"/>
<polygon fill="midnightblue" stroke="midnightblue" points="133.581,-13.5001 143.581,-10 133.581,-6.5001 133.581,-13.5001"/>
</g>
<!-- Node22 -->
<g id="node3" class="node"><title>Node22</title>
<g id="a_node3"><a xlink:href="class_r_t_c.html#ae36ee3d564befce64eff1e8f610cb6d6" target="_top" xlink:title="RTC::is_leap_year">
<polygon fill="none" stroke="black" points="287,-0.5 287,-19.5 385,-19.5 385,-0.5 287,-0.5"/>
<text text-anchor="middle" x="336" y="-7.5" font-family="Helvetica,sans-Serif" font-size="10.00">RTC::is_leap_year</text>
</a>
</g>
</g>
<!-- Node21&#45;&gt;Node22 -->
<g id="edge2" class="edge"><title>Node21&#45;&gt;Node22</title>
<path fill="none" stroke="midnightblue" d="M251.274,-10C259.595,-10 268.239,-10 276.677,-10"/>
<polygon fill="midnightblue" stroke="midnightblue" points="276.83,-13.5001 286.83,-10 276.83,-6.5001 276.83,-13.5001"/>
</g>
</g>
</svg>
