<?xml version="1.0" encoding="UTF-8" standalone="no"?>
<!DOCTYPE svg PUBLIC "-//W3C//DTD SVG 1.1//EN"
 "http://www.w3.org/Graphics/SVG/1.1/DTD/svg11.dtd">
<!-- Generated by graphviz version 2.38.0 (20140413.2041)
 -->
<!-- Title: Sensor::print Pages: 1 -->
<svg width="728pt" height="66pt"
 viewBox="0.00 0.00 728.00 66.00" xmlns="http://www.w3.org/2000/svg" xmlns:xlink="http://www.w3.org/1999/xlink">
<g id="graph0" class="graph" transform="scale(1 1) rotate(0) translate(4 62)">
<title>Sensor::print</title>
<!-- Node27 -->
<g id="node1" class="node"><title>Node27</title>
<polygon fill="#bfbfbf" stroke="black" points="0,-19.5 0,-38.5 72,-38.5 72,-19.5 0,-19.5"/>
<text text-anchor="middle" x="36" y="-26.5" font-family="Helvetica,sans-Serif" font-size="10.00">Sensor::print</text>
</g>
<!-- Node28 -->
<g id="node2" class="node"><title>Node28</title>
<g id="a_node2"><a xlink:href="class_sensor.html#aa14d1a074d1079cff037fd01ed74897c" target="_top" xlink:title="This method print the sensor configuration for the sensor. It&#39;s a good idea to overload this function...">
<polygon fill="none" stroke="black" points="108,-0.5 108,-19.5 212,-19.5 212,-0.5 108,-0.5"/>
<text text-anchor="middle" x="160" y="-7.5" font-family="Helvetica,sans-Serif" font-size="10.00">Sensor::print_config</text>
</a>
</g>
</g>
<!-- Node27&#45;&gt;Node28 -->
<g id="edge1" class="edge"><title>Node27&#45;&gt;Node28</title>
<path fill="none" stroke="midnightblue" d="M82.2331,-21.9555C90.5974,-20.6529 99.3863,-19.2841 107.91,-17.9566"/>
<polygon fill="midnightblue" stroke="midnightblue" points="81.6297,-18.5072 72.2875,-23.5044 82.707,-25.4238 81.6297,-18.5072"/>
</g>
<!-- Node29 -->
<g id="node3" class="node"><title>Node29</title>
<g id="a_node3"><a xlink:href="class_sensor.html#ad713fef719161b27e6b93a0d3a371e0c" target="_top" xlink:title="Sensor::set_offset">
<polygon fill="none" stroke="black" points="248,-38.5 248,-57.5 345,-57.5 345,-38.5 248,-38.5"/>
<text text-anchor="middle" x="296.5" y="-45.5" font-family="Helvetica,sans-Serif" font-size="10.00">Sensor::set_offset</text>
</a>
</g>
</g>
<!-- Node27&#45;&gt;Node29 -->
<g id="edge9" class="edge"><title>Node27&#45;&gt;Node29</title>
<path fill="none" stroke="midnightblue" d="M82.1921,-32.3217C128.556,-35.7295 200.404,-41.0104 247.698,-44.4865"/>
<polygon fill="midnightblue" stroke="midnightblue" points="82.3612,-28.8247 72.1315,-31.5822 81.848,-35.8059 82.3612,-28.8247"/>
</g>
<!-- Node28&#45;&gt;Node29 -->
<g id="edge2" class="edge"><title>Node28&#45;&gt;Node29</title>
<path fill="none" stroke="midnightblue" d="M204.6,-22.3183C223.08,-27.5393 244.289,-33.5316 261.571,-38.4141"/>
<polygon fill="midnightblue" stroke="midnightblue" points="205.515,-18.9398 194.94,-19.589 203.612,-25.6761 205.515,-18.9398"/>
</g>
<!-- Node31 -->
<g id="node5" class="node"><title>Node31</title>
<g id="a_node5"><a xlink:href="class_config.html#a975933ecde91dc436d4ca39464cfd25f" target="_top" xlink:title="display all config on USART0 ">
<polygon fill="none" stroke="black" points="255.5,-0.5 255.5,-19.5 337.5,-19.5 337.5,-0.5 255.5,-0.5"/>
<text text-anchor="middle" x="296.5" y="-7.5" font-family="Helvetica,sans-Serif" font-size="10.00">Config::display</text>
</a>
</g>
</g>
<!-- Node28&#45;&gt;Node31 -->
<g id="edge4" class="edge"><title>Node28&#45;&gt;Node31</title>
<path fill="none" stroke="midnightblue" d="M222.387,-10C233.549,-10 244.928,-10 255.282,-10"/>
<polygon fill="midnightblue" stroke="midnightblue" points="222.232,-6.5001 212.232,-10 222.232,-13.5001 222.232,-6.5001"/>
</g>
<!-- Node30 -->
<g id="node4" class="node"><title>Node30</title>
<g id="a_node4"><a xlink:href="class_config.html#a2a806f322b0d533aabdb8e796d3b1033" target="_top" xlink:title="The execute method is the config &quot;main function&quot; In this method, sentence from the uart are process e...">
<polygon fill="none" stroke="black" points="384,-38.5 384,-57.5 470,-57.5 470,-38.5 384,-38.5"/>
<text text-anchor="middle" x="427" y="-45.5" font-family="Helvetica,sans-Serif" font-size="10.00">Config::execute</text>
</a>
</g>
</g>
<!-- Node29&#45;&gt;Node30 -->
<g id="edge3" class="edge"><title>Node29&#45;&gt;Node30</title>
<path fill="none" stroke="midnightblue" d="M355.507,-48C364.97,-48 374.616,-48 383.613,-48"/>
<polygon fill="midnightblue" stroke="midnightblue" points="355.349,-44.5001 345.349,-48 355.349,-51.5001 355.349,-44.5001"/>
</g>
<!-- Node31&#45;&gt;Node30 -->
<g id="edge8" class="edge"><title>Node31&#45;&gt;Node30</title>
<path fill="none" stroke="midnightblue" d="M339.889,-22.5353C357.37,-27.7048 377.302,-33.5991 393.584,-38.4141"/>
<polygon fill="midnightblue" stroke="midnightblue" points="340.508,-19.0686 329.926,-19.589 338.523,-25.7812 340.508,-19.0686"/>
</g>
<!-- Node32 -->
<g id="node6" class="node"><title>Node32</title>
<g id="a_node6"><a xlink:href="class_config.html#a5ae6c4f7255e895e7384fc2a4baab160" target="_top" xlink:title="Config::endString">
<polygon fill="none" stroke="black" points="381,-0.5 381,-19.5 473,-19.5 473,-0.5 381,-0.5"/>
<text text-anchor="middle" x="427" y="-7.5" font-family="Helvetica,sans-Serif" font-size="10.00">Config::endString</text>
</a>
</g>
</g>
<!-- Node31&#45;&gt;Node32 -->
<g id="edge5" class="edge"><title>Node31&#45;&gt;Node32</title>
<path fill="none" stroke="midnightblue" d="M348.007,-10C358.868,-10 370.279,-10 380.917,-10"/>
<polygon fill="midnightblue" stroke="midnightblue" points="347.806,-6.5001 337.806,-10 347.806,-13.5001 347.806,-6.5001"/>
</g>
<!-- Node33 -->
<g id="node7" class="node"><title>Node33</title>
<g id="a_node7"><a xlink:href="class_f_s_m.html#a3819be8e9fe92b750f47b9731e92f254" target="_top" xlink:title="Call when a string from usart0 finish by &quot;\r\n&quot;. ">
<polygon fill="none" stroke="black" points="509,-0.5 509,-19.5 646,-19.5 646,-0.5 509,-0.5"/>
<text text-anchor="middle" x="577.5" y="-7.5" font-family="Helvetica,sans-Serif" font-size="10.00">FSM::character_processing</text>
</a>
</g>
</g>
<!-- Node32&#45;&gt;Node33 -->
<g id="edge6" class="edge"><title>Node32&#45;&gt;Node33</title>
<path fill="none" stroke="midnightblue" d="M483.633,-10C491.908,-10 500.513,-10 508.999,-10"/>
<polygon fill="midnightblue" stroke="midnightblue" points="483.362,-6.5001 473.362,-10 483.362,-13.5001 483.362,-6.5001"/>
</g>
<!-- Node34 -->
<g id="node8" class="node"><title>Node34</title>
<g id="a_node8"><a xlink:href="main_8cpp.html#ae66f6b31b5ad750f1fe042a706a4e3d4" target="_top" xlink:title="main">
<polygon fill="none" stroke="black" points="682,-0.5 682,-19.5 720,-19.5 720,-0.5 682,-0.5"/>
<text text-anchor="middle" x="701" y="-7.5" font-family="Helvetica,sans-Serif" font-size="10.00">main</text>
</a>
</g>
</g>
<!-- Node33&#45;&gt;Node34 -->
<g id="edge7" class="edge"><title>Node33&#45;&gt;Node34</title>
<path fill="none" stroke="midnightblue" d="M656.013,-10C665.457,-10 674.315,-10 681.572,-10"/>
<polygon fill="midnightblue" stroke="midnightblue" points="656.001,-6.5001 646.001,-10 656.001,-13.5001 656.001,-6.5001"/>
</g>
</g>
</svg>
