<?xml version="1.0" encoding="UTF-8" standalone="no"?>
<!DOCTYPE svg PUBLIC "-//W3C//DTD SVG 1.1//EN"
 "http://www.w3.org/Graphics/SVG/1.1/DTD/svg11.dtd">
<!-- Generated by graphviz version 2.38.0 (20140413.2041)
 -->
<!-- Title: Power::update_param Pages: 1 -->
<svg width="384pt" height="180pt"
 viewBox="0.00 0.00 384.00 180.00" xmlns="http://www.w3.org/2000/svg" xmlns:xlink="http://www.w3.org/1999/xlink">
<g id="graph0" class="graph" transform="scale(1 1) rotate(0) translate(4 176)">
<title>Power::update_param</title>
<!-- Node104 -->
<g id="node1" class="node"><title>Node104</title>
<polygon fill="#bfbfbf" stroke="black" points="0,-76.5 0,-95.5 112,-95.5 112,-76.5 0,-76.5"/>
<text text-anchor="middle" x="56" y="-83.5" font-family="Helvetica,sans-Serif" font-size="10.00">Power::update_param</text>
</g>
<!-- Node105 -->
<g id="node2" class="node"><title>Node105</title>
<g id="a_node2"><a xlink:href="class_power.html#a3dc8a4eeb7a87fa3a73cad504187173d" target="_top" xlink:title="Power::set_i_factor">
<polygon fill="none" stroke="black" points="150.5,-152.5 150.5,-171.5 251.5,-171.5 251.5,-152.5 150.5,-152.5"/>
<text text-anchor="middle" x="201" y="-159.5" font-family="Helvetica,sans-Serif" font-size="10.00">Power::set_i_factor</text>
</a>
</g>
</g>
<!-- Node104&#45;&gt;Node105 -->
<g id="edge1" class="edge"><title>Node104&#45;&gt;Node105</title>
<path fill="none" stroke="midnightblue" d="M78.9381,-101.571C96.9177,-113.877 123.33,-130.932 148,-143 155.166,-146.505 163.152,-149.735 170.672,-152.499"/>
<polygon fill="midnightblue" stroke="midnightblue" points="80.5703,-98.4441 70.3585,-95.6209 76.5809,-104.196 80.5703,-98.4441"/>
</g>
<!-- Node107 -->
<g id="node4" class="node"><title>Node107</title>
<g id="a_node4"><a xlink:href="class_power.html#a1e7595ee0b3b0439d979ffeab785d0d8" target="_top" xlink:title="Power::set_i_offset">
<polygon fill="none" stroke="black" points="150.5,-114.5 150.5,-133.5 251.5,-133.5 251.5,-114.5 150.5,-114.5"/>
<text text-anchor="middle" x="201" y="-121.5" font-family="Helvetica,sans-Serif" font-size="10.00">Power::set_i_offset</text>
</a>
</g>
</g>
<!-- Node104&#45;&gt;Node107 -->
<g id="edge3" class="edge"><title>Node104&#45;&gt;Node107</title>
<path fill="none" stroke="midnightblue" d="M102.813,-98.1742C122.587,-103.429 145.384,-109.487 163.927,-114.414"/>
<polygon fill="midnightblue" stroke="midnightblue" points="103.648,-94.7747 93.0849,-95.589 101.851,-101.54 103.648,-94.7747"/>
</g>
<!-- Node108 -->
<g id="node5" class="node"><title>Node108</title>
<g id="a_node5"><a xlink:href="class_power.html#a131e857270e7cf3957e0d1508d0a0986" target="_top" xlink:title="Power::set_v_factor">
<polygon fill="none" stroke="black" points="149,-76.5 149,-95.5 253,-95.5 253,-76.5 149,-76.5"/>
<text text-anchor="middle" x="201" y="-83.5" font-family="Helvetica,sans-Serif" font-size="10.00">Power::set_v_factor</text>
</a>
</g>
</g>
<!-- Node104&#45;&gt;Node108 -->
<g id="edge5" class="edge"><title>Node104&#45;&gt;Node108</title>
<path fill="none" stroke="midnightblue" d="M122.487,-86C131.249,-86 140.133,-86 148.607,-86"/>
<polygon fill="midnightblue" stroke="midnightblue" points="122.288,-82.5001 112.288,-86 122.287,-89.5001 122.288,-82.5001"/>
</g>
<!-- Node109 -->
<g id="node6" class="node"><title>Node109</title>
<g id="a_node6"><a xlink:href="class_power.html#ad87d6ae7b5fb07b1a7d5fd2f70e878ce" target="_top" xlink:title="Power::set_v_offset">
<polygon fill="none" stroke="black" points="149,-38.5 149,-57.5 253,-57.5 253,-38.5 149,-38.5"/>
<text text-anchor="middle" x="201" y="-45.5" font-family="Helvetica,sans-Serif" font-size="10.00">Power::set_v_offset</text>
</a>
</g>
</g>
<!-- Node104&#45;&gt;Node109 -->
<g id="edge7" class="edge"><title>Node104&#45;&gt;Node109</title>
<path fill="none" stroke="midnightblue" d="M102.813,-73.8258C122.587,-68.5713 145.384,-62.5134 163.927,-57.5859"/>
<polygon fill="midnightblue" stroke="midnightblue" points="101.851,-70.4601 93.0849,-76.411 103.648,-77.2253 101.851,-70.4601"/>
</g>
<!-- Node110 -->
<g id="node7" class="node"><title>Node110</title>
<g id="a_node7"><a xlink:href="class_power.html#a1281d3f600c6cc3227de7d22e68a96a0" target="_top" xlink:title="Power::set_v_phase">
<polygon fill="none" stroke="black" points="148,-0.5 148,-19.5 254,-19.5 254,-0.5 148,-0.5"/>
<text text-anchor="middle" x="201" y="-7.5" font-family="Helvetica,sans-Serif" font-size="10.00">Power::set_v_phase</text>
</a>
</g>
</g>
<!-- Node104&#45;&gt;Node110 -->
<g id="edge9" class="edge"><title>Node104&#45;&gt;Node110</title>
<path fill="none" stroke="midnightblue" d="M78.9381,-70.4285C96.9177,-58.1228 123.33,-41.0679 148,-29 155.166,-25.4945 163.152,-22.2649 170.672,-19.5007"/>
<polygon fill="midnightblue" stroke="midnightblue" points="76.5809,-67.804 70.3585,-76.3791 80.5703,-73.5559 76.5809,-67.804"/>
</g>
<!-- Node106 -->
<g id="node3" class="node"><title>Node106</title>
<g id="a_node3"><a xlink:href="class_config.html#a2a806f322b0d533aabdb8e796d3b1033" target="_top" xlink:title="The execute method is the config &quot;main function&quot; In this method, sentence from the uart are process e...">
<polygon fill="none" stroke="black" points="290,-76.5 290,-95.5 376,-95.5 376,-76.5 290,-76.5"/>
<text text-anchor="middle" x="333" y="-83.5" font-family="Helvetica,sans-Serif" font-size="10.00">Config::execute</text>
</a>
</g>
</g>
<!-- Node105&#45;&gt;Node106 -->
<g id="edge2" class="edge"><title>Node105&#45;&gt;Node106</title>
<path fill="none" stroke="midnightblue" d="M242.125,-148.643C246.207,-146.899 250.233,-145.013 254,-143 279.74,-129.248 306.524,-107.857 321.041,-95.5651"/>
<polygon fill="midnightblue" stroke="midnightblue" points="240.588,-145.487 232.596,-152.443 243.181,-151.989 240.588,-145.487"/>
</g>
<!-- Node107&#45;&gt;Node106 -->
<g id="edge4" class="edge"><title>Node107&#45;&gt;Node106</title>
<path fill="none" stroke="midnightblue" d="M244.884,-111.465C262.569,-106.295 282.734,-100.401 299.206,-95.5859"/>
<polygon fill="midnightblue" stroke="midnightblue" points="243.421,-108.246 234.804,-114.411 245.385,-114.965 243.421,-108.246"/>
</g>
<!-- Node108&#45;&gt;Node106 -->
<g id="edge6" class="edge"><title>Node108&#45;&gt;Node106</title>
<path fill="none" stroke="midnightblue" d="M263.161,-86C272.226,-86 281.391,-86 289.947,-86"/>
<polygon fill="midnightblue" stroke="midnightblue" points="263.006,-82.5001 253.006,-86 263.006,-89.5001 263.006,-82.5001"/>
</g>
<!-- Node109&#45;&gt;Node106 -->
<g id="edge8" class="edge"><title>Node109&#45;&gt;Node106</title>
<path fill="none" stroke="midnightblue" d="M244.884,-60.5353C262.569,-65.7048 282.734,-71.5991 299.206,-76.4141"/>
<polygon fill="midnightblue" stroke="midnightblue" points="245.385,-57.0353 234.804,-57.589 243.421,-63.7542 245.385,-57.0353"/>
</g>
<!-- Node110&#45;&gt;Node106 -->
<g id="edge10" class="edge"><title>Node110&#45;&gt;Node106</title>
<path fill="none" stroke="midnightblue" d="M242.125,-23.3574C246.207,-25.1008 250.233,-26.9873 254,-29 279.74,-42.7525 306.524,-64.1427 321.041,-76.4349"/>
<polygon fill="midnightblue" stroke="midnightblue" points="243.181,-20.0105 232.596,-19.557 240.588,-26.5125 243.181,-20.0105"/>
</g>
</g>
</svg>
