<?xml version="1.0" encoding="UTF-8" standalone="no"?>
<!DOCTYPE svg PUBLIC "-//W3C//DTD SVG 1.1//EN"
 "http://www.w3.org/Graphics/SVG/1.1/DTD/svg11.dtd">
<!-- Generated by graphviz version 2.38.0 (20140413.2041)
 -->
<!-- Title: Config::execute Pages: 1 -->
<!--zoomable 926 -->
<svg id="main" version="1.1" xmlns="http://www.w3.org/2000/svg" xmlns:xlink="http://www.w3.org/1999/xlink" xml:space="preserve" onload="init(evt)">
<style type="text/css"><![CDATA[
.edge:hover path { stroke: red; }
.edge:hover polygon { stroke: red; fill: red; }
]]></style>
<script type="text/javascript"><![CDATA[
var edges = document.getElementsByTagName('g');
if (edges && edges.length) {
  for (var i=0;i<edges.length;i++) {
    if (edges[i].id.substr(0,4)=='edge') {
      edges[i].setAttribute('class','edge');
    }
  }
}
]]></script>
        <defs>
                <circle id="rim" cx="0" cy="0" r="7"/>
                <circle id="rim2" cx="0" cy="0" r="3.5"/>
                <g id="zoomPlus">
                        <use xlink:href="#rim" fill="#404040">
                                <set attributeName="fill" to="#808080" begin="zoomplus.mouseover" end="zoomplus.mouseout"/>
                        </use>
                        <path d="M-4,0h8M0,-4v8" fill="none" stroke="white" stroke-width="1.5" pointer-events="none"/>
                </g>
                <g id="zoomMin">
                        <use xlink:href="#rim" fill="#404040">
                                <set attributeName="fill" to="#808080" begin="zoomminus.mouseover" end="zoomminus.mouseout"/>
                        </use>
                        <path d="M-4,0h8" fill="none" stroke="white" stroke-width="1.5" pointer-events="none"/>
                </g>
                <g id="dirArrow">
                        <path fill="none" stroke="white" stroke-width="1.5" d="M0,-3.0v7 M-2.5,-0.5L0,-3.0L2.5,-0.5"/>
                </g>
               <g id="resetDef">
                       <use xlink:href="#rim2" fill="#404040">
                               <set attributeName="fill" to="#808080" begin="reset.mouseover" end="reset.mouseout"/>
                       </use>
               </g>
        </defs>

<script type="text/javascript">
var viewWidth = 529;
var viewHeight = 926;
var sectionId = 'dynsection-8';
</script>
<script xlink:href="svgpan.js"/>
<svg id="graph" class="graph">
<g id="viewport">
<title>Config::execute</title>
<!-- Node47 -->
<g id="node1" class="node"><title>Node47</title>
<polygon fill="#bfbfbf" stroke="black" points="0,-437.5 0,-456.5 86,-456.5 86,-437.5 0,-437.5"/>
<text text-anchor="middle" x="43" y="-444.5" font-family="Helvetica,sans-Serif" font-size="10.00">Config::execute</text>
</g>
<!-- Node48 -->
<g id="node2" class="node"><title>Node48</title>
<g id="a_node2"><a xlink:href="class_config.html#a890e1d585e9ae670a6cccaf196250870" target="_top" xlink:title="Config::atoc">
<polygon fill="none" stroke="black" points="143,-784.5 143,-803.5 213,-803.5 213,-784.5 143,-784.5"/>
<text text-anchor="middle" x="178" y="-791.5" font-family="Helvetica,sans-Serif" font-size="10.00">Config::atoc</text>
</a>
</g>
</g>
<!-- Node47&#45;&gt;Node48 -->
<g id="edge1" class="edge"><title>Node47&#45;&gt;Node48</title>
<path fill="none" stroke="midnightblue" d="M45.0594,-456.778C50.5684,-505.946 77.4095,-725.754 122,-775 125.261,-778.602 129.238,-781.52 133.547,-783.886"/>
<polygon fill="midnightblue" stroke="midnightblue" points="132.177,-787.108 142.734,-788.006 135.042,-780.721 132.177,-787.108"/>
</g>
<!-- Node49 -->
<g id="node3" class="node"><title>Node49</title>
<g id="a_node3"><a xlink:href="class_config.html#a975933ecde91dc436d4ca39464cfd25f" target="_top" xlink:title="display all config on USART0 ">
<polygon fill="none" stroke="black" points="137,-494.5 137,-513.5 219,-513.5 219,-494.5 137,-494.5"/>
<text text-anchor="middle" x="178" y="-501.5" font-family="Helvetica,sans-Serif" font-size="10.00">Config::display</text>
</a>
</g>
</g>
<!-- Node47&#45;&gt;Node49 -->
<g id="edge2" class="edge"><title>Node47&#45;&gt;Node49</title>
<path fill="none" stroke="midnightblue" d="M61.9972,-456.538C77.6265,-464.634 100.988,-476.29 122,-485 127.074,-487.104 132.474,-489.171 137.833,-491.122"/>
<polygon fill="midnightblue" stroke="midnightblue" points="136.759,-494.455 147.354,-494.492 139.095,-487.856 136.759,-494.455"/>
</g>
<!-- Node50 -->
<g id="node4" class="node"><title>Node50</title>
<g id="a_node4"><a xlink:href="class_usart.html#ab236d7c399791bbe1431f85e9b60f601" target="_top" xlink:title="USART string sender function. ">
<polygon fill="none" stroke="black" points="441,-475.5 441,-494.5 506,-494.5 506,-475.5 441,-475.5"/>
<text text-anchor="middle" x="473.5" y="-482.5" font-family="Helvetica,sans-Serif" font-size="10.00">Usart::print</text>
</a>
</g>
</g>
<!-- Node47&#45;&gt;Node50 -->
<g id="edge12" class="edge"><title>Node47&#45;&gt;Node50</title>
<path fill="none" stroke="midnightblue" d="M51.3721,-456.566C64.1232,-472.5 91.8417,-504.547 122,-523 181.223,-559.237 201.489,-561.74 270,-573 322.627,-581.65 341.062,-594.202 390,-573 422.661,-558.85 448.32,-524.698 461.876,-503.341"/>
<polygon fill="midnightblue" stroke="midnightblue" points="465.02,-504.908 467.235,-494.547 459.043,-501.265 465.02,-504.908"/>
</g>
<!-- Node56 -->
<g id="node10" class="node"><title>Node56</title>
<g id="a_node10"><a xlink:href="class_sensor.html#aed192cfaa131d7e89dadf6da01e9d609" target="_top" xlink:title="Sensor::set_factor">
<polygon fill="none" stroke="black" points="129.5,-746.5 129.5,-765.5 226.5,-765.5 226.5,-746.5 129.5,-746.5"/>
<text text-anchor="middle" x="178" y="-753.5" font-family="Helvetica,sans-Serif" font-size="10.00">Sensor::set_factor</text>
</a>
</g>
</g>
<!-- Node47&#45;&gt;Node56 -->
<g id="edge13" class="edge"><title>Node47&#45;&gt;Node56</title>
<path fill="none" stroke="midnightblue" d="M43.5851,-456.508C42.376,-496.43 43.0659,-652.348 122,-737 123.369,-738.468 124.857,-739.823 126.438,-741.074"/>
<polygon fill="midnightblue" stroke="midnightblue" points="124.665,-744.094 134.984,-746.493 128.413,-738.182 124.665,-744.094"/>
</g>
<!-- Node58 -->
<g id="node12" class="node"><title>Node58</title>
<g id="a_node12"><a xlink:href="class_power.html#a3dc8a4eeb7a87fa3a73cad504187173d" target="_top" xlink:title="Power::set_i_factor">
<polygon fill="none" stroke="black" points="127.5,-456.5 127.5,-475.5 228.5,-475.5 228.5,-456.5 127.5,-456.5"/>
<text text-anchor="middle" x="178" y="-463.5" font-family="Helvetica,sans-Serif" font-size="10.00">Power::set_i_factor</text>
</a>
</g>
</g>
<!-- Node47&#45;&gt;Node58 -->
<g id="edge15" class="edge"><title>Node47&#45;&gt;Node58</title>
<path fill="none" stroke="midnightblue" d="M86.082,-453.012C96.0016,-454.429 106.763,-455.966 117.295,-457.471"/>
<polygon fill="midnightblue" stroke="midnightblue" points="116.892,-460.949 127.287,-458.898 117.882,-454.019 116.892,-460.949"/>
</g>
<!-- Node60 -->
<g id="node14" class="node"><title>Node60</title>
<g id="a_node14"><a xlink:href="class_power.html#a1e7595ee0b3b0439d979ffeab785d0d8" target="_top" xlink:title="Power::set_i_offset">
<polygon fill="none" stroke="black" points="127.5,-285.5 127.5,-304.5 228.5,-304.5 228.5,-285.5 127.5,-285.5"/>
<text text-anchor="middle" x="178" y="-292.5" font-family="Helvetica,sans-Serif" font-size="10.00">Power::set_i_offset</text>
</a>
</g>
</g>
<!-- Node47&#45;&gt;Node60 -->
<g id="edge17" class="edge"><title>Node47&#45;&gt;Node60</title>
<path fill="none" stroke="midnightblue" d="M49.0386,-437.279C60.1609,-416.444 88.5014,-366.651 122,-333 130.651,-324.309 141.53,-316.32 151.324,-309.932"/>
<polygon fill="midnightblue" stroke="midnightblue" points="153.306,-312.821 159.918,-304.543 149.587,-306.89 153.306,-312.821"/>
</g>
<!-- Node70 -->
<g id="node24" class="node"><title>Node70</title>
<g id="a_node24"><a xlink:href="class_sensor.html#ad713fef719161b27e6b93a0d3a371e0c" target="_top" xlink:title="Sensor::set_offset">
<polygon fill="none" stroke="black" points="129.5,-708.5 129.5,-727.5 226.5,-727.5 226.5,-708.5 129.5,-708.5"/>
<text text-anchor="middle" x="178" y="-715.5" font-family="Helvetica,sans-Serif" font-size="10.00">Sensor::set_offset</text>
</a>
</g>
</g>
<!-- Node47&#45;&gt;Node70 -->
<g id="edge32" class="edge"><title>Node47&#45;&gt;Node70</title>
<path fill="none" stroke="midnightblue" d="M48.7469,-456.68C60.9171,-481.496 94.2281,-549.417 122,-606 138.14,-638.884 156.956,-677.194 167.87,-699.413"/>
<polygon fill="midnightblue" stroke="midnightblue" points="164.74,-700.98 172.29,-708.412 171.023,-697.894 164.74,-700.98"/>
</g>
<!-- Node77 -->
<g id="node31" class="node"><title>Node77</title>
<g id="a_node31"><a xlink:href="class_power.html#a131e857270e7cf3957e0d1508d0a0986" target="_top" xlink:title="Power::set_v_factor">
<polygon fill="none" stroke="black" points="126,-418.5 126,-437.5 230,-437.5 230,-418.5 126,-418.5"/>
<text text-anchor="middle" x="178" y="-425.5" font-family="Helvetica,sans-Serif" font-size="10.00">Power::set_v_factor</text>
</a>
</g>
</g>
<!-- Node47&#45;&gt;Node77 -->
<g id="edge44" class="edge"><title>Node47&#45;&gt;Node77</title>
<path fill="none" stroke="midnightblue" d="M86.082,-440.988C95.5569,-439.635 105.8,-438.171 115.877,-436.732"/>
<polygon fill="midnightblue" stroke="midnightblue" points="116.46,-440.184 125.864,-435.305 115.47,-433.255 116.46,-440.184"/>
</g>
<!-- Node78 -->
<g id="node32" class="node"><title>Node78</title>
<g id="a_node32"><a xlink:href="class_power.html#ad87d6ae7b5fb07b1a7d5fd2f70e878ce" target="_top" xlink:title="Power::set_v_offset">
<polygon fill="none" stroke="black" points="126,-380.5 126,-399.5 230,-399.5 230,-380.5 126,-380.5"/>
<text text-anchor="middle" x="178" y="-387.5" font-family="Helvetica,sans-Serif" font-size="10.00">Power::set_v_offset</text>
</a>
</g>
</g>
<!-- Node47&#45;&gt;Node78 -->
<g id="edge46" class="edge"><title>Node47&#45;&gt;Node78</title>
<path fill="none" stroke="midnightblue" d="M61.9972,-437.462C77.6265,-429.366 100.988,-417.71 122,-409 127.074,-406.896 132.474,-404.829 137.833,-402.878"/>
<polygon fill="midnightblue" stroke="midnightblue" points="139.095,-406.144 147.354,-399.508 136.759,-399.545 139.095,-406.144"/>
</g>
<!-- Node79 -->
<g id="node33" class="node"><title>Node79</title>
<g id="a_node33"><a xlink:href="class_power.html#a1281d3f600c6cc3227de7d22e68a96a0" target="_top" xlink:title="Power::set_v_phase">
<polygon fill="none" stroke="black" points="125,-342.5 125,-361.5 231,-361.5 231,-342.5 125,-342.5"/>
<text text-anchor="middle" x="178" y="-349.5" font-family="Helvetica,sans-Serif" font-size="10.00">Power::set_v_phase</text>
</a>
</g>
</g>
<!-- Node47&#45;&gt;Node79 -->
<g id="edge48" class="edge"><title>Node47&#45;&gt;Node79</title>
<path fill="none" stroke="midnightblue" d="M51.3859,-437.457C64.1572,-421.555 91.9048,-389.556 122,-371 125.339,-368.941 128.93,-367.07 132.621,-365.377"/>
<polygon fill="midnightblue" stroke="midnightblue" points="134.011,-368.589 141.91,-361.529 131.332,-362.122 134.011,-368.589"/>
</g>
<!-- Node80 -->
<g id="node34" class="node"><title>Node80</title>
<g id="a_node34"><a xlink:href="class_config.html#a4cda6b3fcf08b798afe3bf1311450b0c" target="_top" xlink:title="Update saved config data in the eeprom. ">
<polygon fill="none" stroke="black" points="122,-247.5 122,-266.5 234,-266.5 234,-247.5 122,-247.5"/>
<text text-anchor="middle" x="178" y="-254.5" font-family="Helvetica,sans-Serif" font-size="10.00">Config::update_logger</text>
</a>
</g>
</g>
<!-- Node47&#45;&gt;Node80 -->
<g id="edge50" class="edge"><title>Node47&#45;&gt;Node80</title>
<path fill="none" stroke="midnightblue" d="M45.6603,-437.299C51.1002,-408.447 71.0517,-322.309 122,-276 123.731,-274.427 125.599,-272.982 127.565,-271.657"/>
<polygon fill="midnightblue" stroke="midnightblue" points="129.658,-274.497 136.69,-266.572 126.251,-268.382 129.658,-274.497"/>
</g>
<!-- Node81 -->
<g id="node35" class="node"><title>Node81</title>
<g id="a_node35"><a xlink:href="class_r_t_c.html#a47c11140f33fe80ffb96fb5296859a25" target="_top" xlink:title="Function to update a register in the pcf8563 This function is use in the st_config class...">
<polygon fill="none" stroke="black" points="132,-38.5 132,-57.5 224,-57.5 224,-38.5 132,-38.5"/>
<text text-anchor="middle" x="178" y="-45.5" font-family="Helvetica,sans-Serif" font-size="10.00">RTC::update_reg</text>
</a>
</g>
</g>
<!-- Node47&#45;&gt;Node81 -->
<g id="edge51" class="edge"><title>Node47&#45;&gt;Node81</title>
<path fill="none" stroke="midnightblue" d="M47.2877,-437.137C64.754,-384.738 146.768,-138.696 170.532,-67.4034"/>
<polygon fill="midnightblue" stroke="midnightblue" points="173.985,-68.1119 173.827,-57.5182 167.345,-65.8982 173.985,-68.1119"/>
</g>
<!-- Node49&#45;&gt;Node50 -->
<g id="edge3" class="edge"><title>Node49&#45;&gt;Node50</title>
<path fill="none" stroke="midnightblue" d="M215.92,-494.491C232.354,-490.726 252.02,-486.857 270,-485 325.332,-479.285 389.624,-480.635 430.662,-482.499"/>
<polygon fill="midnightblue" stroke="midnightblue" points="430.67,-486.004 440.829,-482.993 431.01,-479.012 430.67,-486.004"/>
</g>
<!-- Node51 -->
<g id="node5" class="node"><title>Node51</title>
<g id="a_node5"><a xlink:href="class_sensor.html#aa14d1a074d1079cff037fd01ed74897c" target="_top" xlink:title="This method print the sensor configuration for the sensor. It&#39;s a good idea to overload this function...">
<polygon fill="none" stroke="black" points="278,-620.5 278,-639.5 382,-639.5 382,-620.5 278,-620.5"/>
<text text-anchor="middle" x="330" y="-627.5" font-family="Helvetica,sans-Serif" font-size="10.00">Sensor::print_config</text>
</a>
</g>
</g>
<!-- Node49&#45;&gt;Node51 -->
<g id="edge4" class="edge"><title>Node49&#45;&gt;Node51</title>
<path fill="none" stroke="midnightblue" d="M190.77,-513.887C216.51,-535.509 278.021,-587.177 309.586,-613.693"/>
<polygon fill="midnightblue" stroke="midnightblue" points="307.376,-616.407 317.284,-620.159 311.879,-611.047 307.376,-616.407"/>
</g>
<!-- Node53 -->
<g id="node7" class="node"><title>Node53</title>
<g id="a_node7"><a xlink:href="class_r_t_c.html#a59f014e14e774bf372dcf0d5d64e6717" target="_top" xlink:title="RTC::print_config">
<polygon fill="none" stroke="black" points="283,-494.5 283,-513.5 377,-513.5 377,-494.5 283,-494.5"/>
<text text-anchor="middle" x="330" y="-501.5" font-family="Helvetica,sans-Serif" font-size="10.00">RTC::print_config</text>
</a>
</g>
</g>
<!-- Node49&#45;&gt;Node53 -->
<g id="edge7" class="edge"><title>Node49&#45;&gt;Node53</title>
<path fill="none" stroke="midnightblue" d="M219.197,-504C235.592,-504 254.838,-504 272.598,-504"/>
<polygon fill="midnightblue" stroke="midnightblue" points="272.851,-507.5 282.851,-504 272.851,-500.5 272.851,-507.5"/>
</g>
<!-- Node54 -->
<g id="node8" class="node"><title>Node54</title>
<g id="a_node8"><a xlink:href="class_power.html#afd1c8cab1d4549eb45be61bdd34ae97d" target="_top" xlink:title="This method print the configuration for the power measurement. It&#39;s a good idea to overload this func...">
<polygon fill="none" stroke="black" points="279.5,-418.5 279.5,-437.5 380.5,-437.5 380.5,-418.5 279.5,-418.5"/>
<text text-anchor="middle" x="330" y="-425.5" font-family="Helvetica,sans-Serif" font-size="10.00">Power::print_config</text>
</a>
</g>
</g>
<!-- Node49&#45;&gt;Node54 -->
<g id="edge9" class="edge"><title>Node49&#45;&gt;Node54</title>
<path fill="none" stroke="midnightblue" d="M213.711,-494.433C220.667,-491.854 227.751,-488.723 234,-485 252.647,-473.891 251.658,-463.606 270,-452 276.296,-448.016 283.365,-444.467 290.363,-441.4"/>
<polygon fill="midnightblue" stroke="midnightblue" points="291.87,-444.564 299.784,-437.52 289.204,-438.092 291.87,-444.564"/>
</g>
<!-- Node51&#45;&gt;Node50 -->
<g id="edge5" class="edge"><title>Node51&#45;&gt;Node50</title>
<path fill="none" stroke="midnightblue" d="M364.097,-620.457C373.092,-616.861 382.429,-612.114 390,-606 425.274,-577.513 451.437,-529.999 464.066,-503.79"/>
<polygon fill="midnightblue" stroke="midnightblue" points="467.31,-505.115 468.37,-494.573 460.968,-502.153 467.31,-505.115"/>
</g>
<!-- Node52 -->
<g id="node6" class="node"><title>Node52</title>
<g id="a_node6"><a xlink:href="class_sensor.html#a9478b09a17b24105c0fe5b32e988224a" target="_top" xlink:title="Sensor::print">
<polygon fill="none" stroke="black" points="437.5,-740.5 437.5,-759.5 509.5,-759.5 509.5,-740.5 437.5,-740.5"/>
<text text-anchor="middle" x="473.5" y="-747.5" font-family="Helvetica,sans-Serif" font-size="10.00">Sensor::print</text>
</a>
</g>
</g>
<!-- Node51&#45;&gt;Node52 -->
<g id="edge6" class="edge"><title>Node51&#45;&gt;Node52</title>
<path fill="none" stroke="midnightblue" d="M369.309,-639.523C376.533,-642.257 383.768,-645.701 390,-650 421.63,-671.821 447.766,-709.016 461.667,-731.372"/>
<polygon fill="midnightblue" stroke="midnightblue" points="458.847,-733.473 467.013,-740.224 464.839,-729.854 458.847,-733.473"/>
</g>
<!-- Node53&#45;&gt;Node50 -->
<g id="edge8" class="edge"><title>Node53&#45;&gt;Node50</title>
<path fill="none" stroke="midnightblue" d="M377.332,-497.779C394.553,-495.466 413.974,-492.859 430.759,-490.605"/>
<polygon fill="midnightblue" stroke="midnightblue" points="431.382,-494.053 440.827,-489.253 430.45,-487.115 431.382,-494.053"/>
</g>
<!-- Node54&#45;&gt;Node50 -->
<g id="edge10" class="edge"><title>Node54&#45;&gt;Node50</title>
<path fill="none" stroke="midnightblue" d="M354.684,-437.541C377.845,-446.87 413.322,-461.162 439.295,-471.624"/>
<polygon fill="midnightblue" stroke="midnightblue" points="438.155,-474.938 448.739,-475.428 440.771,-468.445 438.155,-474.938"/>
</g>
<!-- Node55 -->
<g id="node9" class="node"><title>Node55</title>
<g id="a_node9"><a xlink:href="class_power.html#a3a915a3ea9b9017cae450959ef8af3de" target="_top" xlink:title="Power::print">
<polygon fill="none" stroke="black" points="439,-280.5 439,-299.5 508,-299.5 508,-280.5 439,-280.5"/>
<text text-anchor="middle" x="473.5" y="-287.5" font-family="Helvetica,sans-Serif" font-size="10.00">Power::print</text>
</a>
</g>
</g>
<!-- Node54&#45;&gt;Node55 -->
<g id="edge11" class="edge"><title>Node54&#45;&gt;Node55</title>
<path fill="none" stroke="midnightblue" d="M372.676,-418.405C378.818,-415.933 384.814,-412.846 390,-409 399.562,-401.91 440.135,-340.17 460.598,-308.529"/>
<polygon fill="midnightblue" stroke="midnightblue" points="463.768,-310.07 466.246,-299.769 457.885,-306.277 463.768,-310.07"/>
</g>
<!-- Node57 -->
<g id="node11" class="node"><title>Node57</title>
<g id="a_node11"><a xlink:href="class_sensor.html#abf05dcc164ceadf01fa48c32fbaf040a" target="_top" xlink:title="Update saved parameters for sensors in the eeprom. ">
<polygon fill="none" stroke="black" points="272.5,-898.5 272.5,-917.5 387.5,-917.5 387.5,-898.5 272.5,-898.5"/>
<text text-anchor="middle" x="330" y="-905.5" font-family="Helvetica,sans-Serif" font-size="10.00">Sensor::update_param</text>
</a>
</g>
</g>
<!-- Node56&#45;&gt;Node57 -->
<g id="edge14" class="edge"><title>Node56&#45;&gt;Node57</title>
<path fill="none" stroke="midnightblue" d="M220.535,-765.566C225.507,-768.026 230.169,-771.116 234,-775 269.829,-811.32 235.16,-846.731 270,-884 273.589,-887.84 277.88,-891.081 282.487,-893.813"/>
<polygon fill="midnightblue" stroke="midnightblue" points="281.137,-897.053 291.637,-898.465 284.309,-890.813 281.137,-897.053"/>
</g>
<!-- Node59 -->
<g id="node13" class="node"><title>Node59</title>
<g id="a_node13"><a xlink:href="class_power.html#a5ccffd2344ef9aefbcdb780187d38ca3" target="_top" xlink:title="Update saved parameters for sensors in the eeprom. ">
<polygon fill="none" stroke="black" points="274,-380.5 274,-399.5 386,-399.5 386,-380.5 274,-380.5"/>
<text text-anchor="middle" x="330" y="-387.5" font-family="Helvetica,sans-Serif" font-size="10.00">Power::update_param</text>
</a>
</g>
</g>
<!-- Node58&#45;&gt;Node59 -->
<g id="edge16" class="edge"><title>Node58&#45;&gt;Node59</title>
<path fill="none" stroke="midnightblue" d="M214.788,-456.442C221.445,-453.897 228.141,-450.776 234,-447 253.555,-434.396 250.314,-421.397 270,-409 273.193,-406.989 276.618,-405.173 280.151,-403.536"/>
<polygon fill="midnightblue" stroke="midnightblue" points="281.764,-406.657 289.674,-399.608 279.095,-400.185 281.764,-406.657"/>
</g>
<!-- Node60&#45;&gt;Node54 -->
<g id="edge22" class="edge"><title>Node60&#45;&gt;Node54</title>
<path fill="none" stroke="midnightblue" d="M197.707,-304.59C209.333,-311.292 223.93,-321.148 234,-333 258.2,-361.483 241.9,-384.356 270,-409 271.947,-410.707 274.049,-412.262 276.26,-413.677"/>
<polygon fill="midnightblue" stroke="midnightblue" points="274.76,-416.844 285.229,-418.472 278.06,-410.67 274.76,-416.844"/>
</g>
<!-- Node60&#45;&gt;Node55 -->
<g id="edge19" class="edge"><title>Node60&#45;&gt;Node55</title>
<path fill="none" stroke="midnightblue" d="M209.291,-285.465C217.412,-282.658 226.122,-279.416 234,-276 250.599,-268.803 252.439,-261.35 270,-257 321.769,-244.177 337.629,-246.914 390,-257 409.193,-260.696 429.597,-268.817 445.311,-276.078"/>
<polygon fill="midnightblue" stroke="midnightblue" points="443.905,-279.285 454.437,-280.44 446.924,-272.97 443.905,-279.285"/>
</g>
<!-- Node60&#45;&gt;Node59 -->
<g id="edge18" class="edge"><title>Node60&#45;&gt;Node59</title>
<path fill="none" stroke="midnightblue" d="M194.561,-304.515C205.932,-311.757 221.486,-322.276 234,-333 251.665,-348.138 250.314,-358.603 270,-371 273.193,-373.011 276.618,-374.827 280.151,-376.464"/>
<polygon fill="midnightblue" stroke="midnightblue" points="279.095,-379.815 289.674,-380.392 281.764,-373.343 279.095,-379.815"/>
</g>
<!-- Node61 -->
<g id="node15" class="node"><title>Node61</title>
<g id="a_node15"><a xlink:href="class_power.html#ace64df3181f3dfce89b8a1f8608e16eb" target="_top" xlink:title="Power::read_rms_value">
<polygon fill="none" stroke="black" points="270.5,-190.5 270.5,-209.5 389.5,-209.5 389.5,-190.5 270.5,-190.5"/>
<text text-anchor="middle" x="330" y="-197.5" font-family="Helvetica,sans-Serif" font-size="10.00">Power::read_rms_value</text>
</a>
</g>
</g>
<!-- Node60&#45;&gt;Node61 -->
<g id="edge20" class="edge"><title>Node60&#45;&gt;Node61</title>
<path fill="none" stroke="midnightblue" d="M217,-285.444C223.023,-282.95 228.929,-279.846 234,-276 256.395,-259.013 248.069,-241.583 270,-224 274.982,-220.005 280.719,-216.592 286.617,-213.7"/>
<polygon fill="midnightblue" stroke="midnightblue" points="288.203,-216.826 295.931,-209.578 285.37,-210.424 288.203,-216.826"/>
</g>
<!-- Node63 -->
<g id="node17" class="node"><title>Node63</title>
<g id="a_node17"><a xlink:href="class_power.html#a09a87034c397af2cfb7289fe1fbe5830" target="_top" xlink:title="This method calculate the mean RMS voltage, mean RMS current, active power, apparent power and power ...">
<polygon fill="none" stroke="black" points="288.5,-152.5 288.5,-171.5 371.5,-171.5 371.5,-152.5 288.5,-152.5"/>
<text text-anchor="middle" x="330" y="-159.5" font-family="Helvetica,sans-Serif" font-size="10.00">Power::calc_all</text>
</a>
</g>
</g>
<!-- Node60&#45;&gt;Node63 -->
<g id="edge23" class="edge"><title>Node60&#45;&gt;Node63</title>
<path fill="none" stroke="midnightblue" d="M220.102,-285.412C225.201,-282.955 230.013,-279.87 234,-276 266.397,-244.549 237.274,-212.108 270,-181 272.735,-178.4 275.827,-176.157 279.128,-174.22"/>
<polygon fill="midnightblue" stroke="midnightblue" points="280.792,-177.302 288.249,-169.776 277.727,-171.009 280.792,-177.302"/>
</g>
<!-- Node64 -->
<g id="node18" class="node"><title>Node64</title>
<g id="a_node18"><a xlink:href="class_power.html#a6c1622c43b34a31d8929674b33433c20" target="_top" xlink:title="The print_average method print the average&#39;s value in the string. ">
<polygon fill="none" stroke="black" points="275.5,-114.5 275.5,-133.5 384.5,-133.5 384.5,-114.5 275.5,-114.5"/>
<text text-anchor="middle" x="330" y="-121.5" font-family="Helvetica,sans-Serif" font-size="10.00">Power::print_average</text>
</a>
</g>
</g>
<!-- Node60&#45;&gt;Node64 -->
<g id="edge24" class="edge"><title>Node60&#45;&gt;Node64</title>
<path fill="none" stroke="midnightblue" d="M221.01,-285.487C225.847,-283.02 230.345,-279.913 234,-276 275.799,-231.245 227.732,-187.312 270,-143 271.393,-141.54 272.898,-140.192 274.492,-138.947"/>
<polygon fill="midnightblue" stroke="midnightblue" points="276.482,-141.83 283.087,-133.546 272.758,-135.903 276.482,-141.83"/>
</g>
<!-- Node65 -->
<g id="node19" class="node"><title>Node65</title>
<g id="a_node19"><a xlink:href="class_power.html#acd77541eabe8feb58e0b73154268cdd2" target="_top" xlink:title="Power::print_data_array">
<polygon fill="none" stroke="black" points="270,-304.5 270,-323.5 390,-323.5 390,-304.5 270,-304.5"/>
<text text-anchor="middle" x="330" y="-311.5" font-family="Helvetica,sans-Serif" font-size="10.00">Power::print_data_array</text>
</a>
</g>
</g>
<!-- Node60&#45;&gt;Node65 -->
<g id="edge25" class="edge"><title>Node60&#45;&gt;Node65</title>
<path fill="none" stroke="midnightblue" d="M228.531,-301.274C238.555,-302.544 249.267,-303.901 259.825,-305.238"/>
<polygon fill="midnightblue" stroke="midnightblue" points="259.511,-308.726 269.872,-306.51 260.391,-301.781 259.511,-308.726"/>
</g>
<!-- Node67 -->
<g id="node21" class="node"><title>Node67</title>
<g id="a_node21"><a xlink:href="class_power.html#a56a921dc1756f980b6b28e024f2c913c" target="_top" xlink:title="Load saved parameters for sensors from the eeprom. ">
<polygon fill="none" stroke="black" points="279.5,-76.5 279.5,-95.5 380.5,-95.5 380.5,-76.5 279.5,-76.5"/>
<text text-anchor="middle" x="330" y="-83.5" font-family="Helvetica,sans-Serif" font-size="10.00">Power::load_param</text>
</a>
</g>
</g>
<!-- Node60&#45;&gt;Node67 -->
<g id="edge28" class="edge"><title>Node60&#45;&gt;Node67</title>
<path fill="none" stroke="midnightblue" d="M221.765,-285.395C226.359,-282.942 230.592,-279.864 234,-276 285.377,-217.756 218.012,-162.7 270,-105 271.189,-103.681 272.469,-102.453 273.824,-101.31"/>
<polygon fill="midnightblue" stroke="midnightblue" points="275.926,-104.115 282.292,-95.6467 272.034,-98.2964 275.926,-104.115"/>
</g>
<!-- Node68 -->
<g id="node22" class="node"><title>Node68</title>
<g id="a_node22"><a xlink:href="class_power.html#ab6160d70ae5088f1923347e1e2c4a62a" target="_top" xlink:title="Initialize the eeprom memory. ">
<polygon fill="none" stroke="black" points="271,-266.5 271,-285.5 389,-285.5 389,-266.5 271,-266.5"/>
<text text-anchor="middle" x="330" y="-273.5" font-family="Helvetica,sans-Serif" font-size="10.00">Power::initialize_param</text>
</a>
</g>
</g>
<!-- Node60&#45;&gt;Node68 -->
<g id="edge29" class="edge"><title>Node60&#45;&gt;Node68</title>
<path fill="none" stroke="midnightblue" d="M228.531,-288.726C238.92,-287.41 250.048,-286.001 260.976,-284.616"/>
<polygon fill="midnightblue" stroke="midnightblue" points="261.449,-288.085 270.93,-283.356 260.569,-281.14 261.449,-288.085"/>
</g>
<!-- Node69 -->
<g id="node23" class="node"><title>Node69</title>
<g id="a_node23"><a xlink:href="class_power.html#a50a207b74105ff65f34f8f8917eed65f" target="_top" xlink:title="Reads the VCC used during the ADC conversion. ">
<polygon fill="none" stroke="black" points="287,-342.5 287,-361.5 373,-361.5 373,-342.5 287,-342.5"/>
<text text-anchor="middle" x="330" y="-349.5" font-family="Helvetica,sans-Serif" font-size="10.00">Power::readVcc</text>
</a>
</g>
</g>
<!-- Node60&#45;&gt;Node69 -->
<g id="edge30" class="edge"><title>Node60&#45;&gt;Node69</title>
<path fill="none" stroke="midnightblue" d="M200.493,-304.576C218.806,-312.59 245.907,-324.108 270,-333 275.691,-335.1 281.737,-337.197 287.705,-339.19"/>
<polygon fill="midnightblue" stroke="midnightblue" points="287.007,-342.644 297.6,-342.428 289.185,-335.991 287.007,-342.644"/>
</g>
<!-- Node62 -->
<g id="node16" class="node"><title>Node62</title>
<g id="a_node16"><a xlink:href="class_power.html#a1e33445a6a18766a77c5304292efcb4f" target="_top" xlink:title="This method read return int value from the ADC channel. ">
<polygon fill="none" stroke="black" points="426,-190.5 426,-209.5 521,-209.5 521,-190.5 426,-190.5"/>
<text text-anchor="middle" x="473.5" y="-197.5" font-family="Helvetica,sans-Serif" font-size="10.00">Power::adc_value</text>
</a>
</g>
</g>
<!-- Node61&#45;&gt;Node62 -->
<g id="edge21" class="edge"><title>Node61&#45;&gt;Node62</title>
<path fill="none" stroke="midnightblue" d="M389.779,-200C398.309,-200 407.077,-200 415.569,-200"/>
<polygon fill="midnightblue" stroke="midnightblue" points="415.756,-203.5 425.756,-200 415.755,-196.5 415.756,-203.5"/>
</g>
<!-- Node65&#45;&gt;Node50 -->
<g id="edge26" class="edge"><title>Node65&#45;&gt;Node50</title>
<path fill="none" stroke="midnightblue" d="M374.273,-323.625C379.93,-326.079 385.362,-329.152 390,-333 390.36,-333.299 440.285,-425.485 462.286,-466.129"/>
<polygon fill="midnightblue" stroke="midnightblue" points="459.277,-467.922 467.116,-475.051 465.433,-464.59 459.277,-467.922"/>
</g>
<!-- Node66 -->
<g id="node20" class="node"><title>Node66</title>
<g id="a_node20"><a xlink:href="class_usart.html#a86c9264f48dabbc3d97fa32d2d02d22d" target="_top" xlink:title="USART char sender function. ">
<polygon fill="none" stroke="black" points="443.5,-370.5 443.5,-389.5 503.5,-389.5 503.5,-370.5 443.5,-370.5"/>
<text text-anchor="middle" x="473.5" y="-377.5" font-family="Helvetica,sans-Serif" font-size="10.00">Usart::set</text>
</a>
</g>
</g>
<!-- Node65&#45;&gt;Node66 -->
<g id="edge27" class="edge"><title>Node65&#45;&gt;Node66</title>
<path fill="none" stroke="midnightblue" d="M364.834,-323.574C373.186,-326.296 382.022,-329.488 390,-333 410.683,-342.105 432.874,-354.937 449.025,-364.893"/>
<polygon fill="midnightblue" stroke="midnightblue" points="447.447,-368.034 457.78,-370.373 451.16,-362.101 447.447,-368.034"/>
</g>
<!-- Node69&#45;&gt;Node50 -->
<g id="edge31" class="edge"><title>Node69&#45;&gt;Node50</title>
<path fill="none" stroke="midnightblue" d="M372.3,-361.565C378.558,-364.046 384.688,-367.144 390,-371 424.926,-396.355 450.936,-441.004 463.703,-466.244"/>
<polygon fill="midnightblue" stroke="midnightblue" points="460.678,-468.024 468.215,-475.47 466.966,-464.949 460.678,-468.024"/>
</g>
<!-- Node70&#45;&gt;Node51 -->
<g id="edge36" class="edge"><title>Node70&#45;&gt;Node51</title>
<path fill="none" stroke="midnightblue" d="M189.452,-708.428C205.64,-694.031 238.233,-666.712 270,-650 274.846,-647.451 280.082,-645.128 285.365,-643.041"/>
<polygon fill="midnightblue" stroke="midnightblue" points="286.68,-646.287 294.851,-639.542 284.258,-639.719 286.68,-646.287"/>
</g>
<!-- Node70&#45;&gt;Node52 -->
<g id="edge34" class="edge"><title>Node70&#45;&gt;Node52</title>
<path fill="none" stroke="midnightblue" d="M220.583,-727.52C225.547,-729.986 230.194,-733.091 234,-737 271.065,-775.07 227.144,-819.592 270,-851 313.017,-882.527 341.814,-873.858 390,-851 425.798,-834.018 451.206,-793.056 463.7,-768.835"/>
<polygon fill="midnightblue" stroke="midnightblue" points="466.972,-770.115 468.257,-759.599 460.694,-767.018 466.972,-770.115"/>
</g>
<!-- Node70&#45;&gt;Node57 -->
<g id="edge33" class="edge"><title>Node70&#45;&gt;Node57</title>
<path fill="none" stroke="midnightblue" d="M221.372,-727.571C226.09,-730.029 230.461,-733.118 234,-737 279.314,-786.71 226.037,-833.091 270,-884 273.218,-887.727 277.102,-890.884 281.323,-893.555"/>
<polygon fill="midnightblue" stroke="midnightblue" points="279.885,-896.756 290.354,-898.386 283.187,-890.583 279.885,-896.756"/>
</g>
<!-- Node71 -->
<g id="node25" class="node"><title>Node71</title>
<g id="a_node25"><a xlink:href="class_sensor.html#a59e815290b2883cea096c8bc613429c0" target="_top" xlink:title="Sensor::read_value">
<polygon fill="none" stroke="black" points="279.5,-822.5 279.5,-841.5 380.5,-841.5 380.5,-822.5 279.5,-822.5"/>
<text text-anchor="middle" x="330" y="-829.5" font-family="Helvetica,sans-Serif" font-size="10.00">Sensor::read_value</text>
</a>
</g>
</g>
<!-- Node70&#45;&gt;Node71 -->
<g id="edge35" class="edge"><title>Node70&#45;&gt;Node71</title>
<path fill="none" stroke="midnightblue" d="M219.259,-727.628C224.605,-730.085 229.711,-733.158 234,-737 261.838,-761.939 241.9,-788.356 270,-813 271.947,-814.707 274.049,-816.262 276.26,-817.677"/>
<polygon fill="midnightblue" stroke="midnightblue" points="274.76,-820.844 285.229,-822.472 278.06,-814.67 274.76,-820.844"/>
</g>
<!-- Node72 -->
<g id="node26" class="node"><title>Node72</title>
<g id="a_node26"><a xlink:href="class_sensor.html#ae16fd0cbdda6cfed1deac36f5c7c0a8f" target="_top" xlink:title="This method calculate the average from the data array. ">
<polygon fill="none" stroke="black" points="274.5,-784.5 274.5,-803.5 385.5,-803.5 385.5,-784.5 274.5,-784.5"/>
<text text-anchor="middle" x="330" y="-791.5" font-family="Helvetica,sans-Serif" font-size="10.00">Sensor::calc_average</text>
</a>
</g>
</g>
<!-- Node70&#45;&gt;Node72 -->
<g id="edge37" class="edge"><title>Node70&#45;&gt;Node72</title>
<path fill="none" stroke="midnightblue" d="M214.788,-727.558C221.445,-730.103 228.141,-733.224 234,-737 253.555,-749.604 250.314,-762.603 270,-775 273.193,-777.011 276.618,-778.827 280.151,-780.464"/>
<polygon fill="midnightblue" stroke="midnightblue" points="279.095,-783.815 289.674,-784.392 281.764,-777.343 279.095,-783.815"/>
</g>
<!-- Node73 -->
<g id="node27" class="node"><title>Node73</title>
<g id="a_node27"><a xlink:href="class_sensor.html#a38a47820684e5ff0f61ad32b8afbde45" target="_top" xlink:title="The print_average method print the average&#39;s value in the string. ">
<polygon fill="none" stroke="black" points="274,-746.5 274,-765.5 386,-765.5 386,-746.5 274,-746.5"/>
<text text-anchor="middle" x="330" y="-753.5" font-family="Helvetica,sans-Serif" font-size="10.00">Sensor::print_average</text>
</a>
</g>
</g>
<!-- Node70&#45;&gt;Node73 -->
<g id="edge38" class="edge"><title>Node70&#45;&gt;Node73</title>
<path fill="none" stroke="midnightblue" d="M216.851,-727.589C236.467,-732.558 260.619,-738.677 281.479,-743.961"/>
<polygon fill="midnightblue" stroke="midnightblue" points="280.868,-747.417 291.421,-746.48 282.587,-740.631 280.868,-747.417"/>
</g>
<!-- Node74 -->
<g id="node28" class="node"><title>Node74</title>
<g id="a_node28"><a xlink:href="class_sensor.html#aa03d707dfa7562805b77f9040831418b" target="_top" xlink:title="Sensor::print_data\l_array">
<polygon fill="none" stroke="black" points="282,-533 282,-563 378,-563 378,-533 282,-533"/>
<text text-anchor="start" x="290" y="-551" font-family="Helvetica,sans-Serif" font-size="10.00">Sensor::print_data</text>
<text text-anchor="middle" x="330" y="-540" font-family="Helvetica,sans-Serif" font-size="10.00">_array</text>
</a>
</g>
</g>
<!-- Node70&#45;&gt;Node74 -->
<g id="edge39" class="edge"><title>Node70&#45;&gt;Node74</title>
<path fill="none" stroke="midnightblue" d="M186.884,-708.422C202.481,-689.544 238.497,-646.295 270,-611 282.196,-597.336 296.196,-582.358 307.496,-570.436"/>
<polygon fill="midnightblue" stroke="midnightblue" points="310.13,-572.745 314.487,-563.088 305.059,-567.921 310.13,-572.745"/>
</g>
<!-- Node75 -->
<g id="node29" class="node"><title>Node75</title>
<g id="a_node29"><a xlink:href="class_sensor.html#a953410c8a76c3b718349000a11e6160e" target="_top" xlink:title="Load saved parameters for sensors from the eeprom. ">
<polygon fill="none" stroke="black" points="278,-708.5 278,-727.5 382,-727.5 382,-708.5 278,-708.5"/>
<text text-anchor="middle" x="330" y="-715.5" font-family="Helvetica,sans-Serif" font-size="10.00">Sensor::load_param</text>
</a>
</g>
</g>
<!-- Node70&#45;&gt;Node75 -->
<g id="edge42" class="edge"><title>Node70&#45;&gt;Node75</title>
<path fill="none" stroke="midnightblue" d="M226.873,-718C239.855,-718 254.089,-718 267.701,-718"/>
<polygon fill="midnightblue" stroke="midnightblue" points="267.957,-721.5 277.957,-718 267.957,-714.5 267.957,-721.5"/>
</g>
<!-- Node76 -->
<g id="node30" class="node"><title>Node76</title>
<g id="a_node30"><a xlink:href="class_sensor.html#a4a9eb446ca4c73268ec6d93b959273f9" target="_top" xlink:title="Initialize the eeprom memory. ">
<polygon fill="none" stroke="black" points="285.5,-659 285.5,-689 374.5,-689 374.5,-659 285.5,-659"/>
<text text-anchor="start" x="293.5" y="-677" font-family="Helvetica,sans-Serif" font-size="10.00">Sensor::initialize</text>
<text text-anchor="middle" x="330" y="-666" font-family="Helvetica,sans-Serif" font-size="10.00">_param</text>
</a>
</g>
</g>
<!-- Node70&#45;&gt;Node76 -->
<g id="edge43" class="edge"><title>Node70&#45;&gt;Node76</title>
<path fill="none" stroke="midnightblue" d="M211.548,-708.453C230.303,-702.951 254.339,-695.901 275.776,-689.612"/>
<polygon fill="midnightblue" stroke="midnightblue" points="276.803,-692.959 285.414,-686.785 274.833,-686.242 276.803,-692.959"/>
</g>
<!-- Node74&#45;&gt;Node50 -->
<g id="edge40" class="edge"><title>Node74&#45;&gt;Node50</title>
<path fill="none" stroke="midnightblue" d="M366.957,-532.973C374.583,-529.727 382.572,-526.283 390,-523 407.677,-515.186 427.338,-506.144 443.031,-498.841"/>
<polygon fill="midnightblue" stroke="midnightblue" points="444.655,-501.946 452.237,-494.545 441.695,-495.602 444.655,-501.946"/>
</g>
<!-- Node74&#45;&gt;Node66 -->
<g id="edge41" class="edge"><title>Node74&#45;&gt;Node66</title>
<path fill="none" stroke="midnightblue" d="M375.431,-532.976C380.66,-530.139 385.667,-526.832 390,-523 400.45,-513.758 442.723,-435.862 462.37,-399.084"/>
<polygon fill="midnightblue" stroke="midnightblue" points="465.654,-400.364 467.267,-389.892 459.476,-397.073 465.654,-400.364"/>
</g>
<!-- Node77&#45;&gt;Node59 -->
<g id="edge45" class="edge"><title>Node77&#45;&gt;Node59</title>
<path fill="none" stroke="midnightblue" d="M216.851,-418.411C236.467,-413.442 260.619,-407.323 281.479,-402.039"/>
<polygon fill="midnightblue" stroke="midnightblue" points="282.587,-405.369 291.421,-399.52 280.868,-398.583 282.587,-405.369"/>
</g>
<!-- Node78&#45;&gt;Node59 -->
<g id="edge47" class="edge"><title>Node78&#45;&gt;Node59</title>
<path fill="none" stroke="midnightblue" d="M230.202,-390C240.989,-390 252.508,-390 263.731,-390"/>
<polygon fill="midnightblue" stroke="midnightblue" points="263.926,-393.5 273.926,-390 263.926,-386.5 263.926,-393.5"/>
</g>
<!-- Node79&#45;&gt;Node59 -->
<g id="edge49" class="edge"><title>Node79&#45;&gt;Node59</title>
<path fill="none" stroke="midnightblue" d="M216.851,-361.589C236.467,-366.558 260.619,-372.677 281.479,-377.961"/>
<polygon fill="midnightblue" stroke="midnightblue" points="280.868,-381.417 291.421,-380.48 282.587,-374.631 280.868,-381.417"/>
</g>
<!-- Node82 -->
<g id="node36" class="node"><title>Node82</title>
<g id="a_node36"><a xlink:href="class_t_w_i.html#a1f2dc98a8c2e00dca3a0c76ee1ea1020" target="_top" xlink:title="TWI::set_char">
<polygon fill="none" stroke="black" points="290.5,-38.5 290.5,-57.5 369.5,-57.5 369.5,-38.5 290.5,-38.5"/>
<text text-anchor="middle" x="330" y="-45.5" font-family="Helvetica,sans-Serif" font-size="10.00">TWI::set_char</text>
</a>
</g>
</g>
<!-- Node81&#45;&gt;Node82 -->
<g id="edge52" class="edge"><title>Node81&#45;&gt;Node82</title>
<path fill="none" stroke="midnightblue" d="M224.005,-48C241.689,-48 262.036,-48 280.083,-48"/>
<polygon fill="midnightblue" stroke="midnightblue" points="280.121,-51.5001 290.121,-48 280.121,-44.5001 280.121,-51.5001"/>
</g>
<!-- Node86 -->
<g id="node40" class="node"><title>Node86</title>
<g id="a_node40"><a xlink:href="class_r_t_c.html#a85d7813e4900f346f811c0c01dc5cb89" target="_top" xlink:title="RTC::utoBCD">
<polygon fill="none" stroke="black" points="290.5,-0.5 290.5,-19.5 369.5,-19.5 369.5,-0.5 290.5,-0.5"/>
<text text-anchor="middle" x="330" y="-7.5" font-family="Helvetica,sans-Serif" font-size="10.00">RTC::utoBCD</text>
</a>
</g>
</g>
<!-- Node81&#45;&gt;Node86 -->
<g id="edge56" class="edge"><title>Node81&#45;&gt;Node86</title>
<path fill="none" stroke="midnightblue" d="M216.851,-38.411C236.467,-33.4417 260.619,-27.3233 281.479,-22.0387"/>
<polygon fill="midnightblue" stroke="midnightblue" points="282.587,-25.3687 291.421,-19.5201 280.868,-18.5831 282.587,-25.3687"/>
</g>
<!-- Node83 -->
<g id="node37" class="node"><title>Node83</title>
<g id="a_node37"><a xlink:href="class_t_w_i.html#a130b2bf159b768c28ae0d4129c556711" target="_top" xlink:title="TWI::start">
<polygon fill="none" stroke="black" points="443,-38.5 443,-57.5 504,-57.5 504,-38.5 443,-38.5"/>
<text text-anchor="middle" x="473.5" y="-45.5" font-family="Helvetica,sans-Serif" font-size="10.00">TWI::start</text>
</a>
</g>
</g>
<!-- Node82&#45;&gt;Node83 -->
<g id="edge53" class="edge"><title>Node82&#45;&gt;Node83</title>
<path fill="none" stroke="midnightblue" d="M369.665,-48C389.225,-48 412.936,-48 432.659,-48"/>
<polygon fill="midnightblue" stroke="midnightblue" points="432.859,-51.5001 442.859,-48 432.858,-44.5001 432.859,-51.5001"/>
</g>
<!-- Node84 -->
<g id="node38" class="node"><title>Node84</title>
<g id="a_node38"><a xlink:href="class_t_w_i.html#a6bde06891e3037d407b28a4ecbc3386f" target="_top" xlink:title="TWI::get_status">
<polygon fill="none" stroke="black" points="430,-0.5 430,-19.5 517,-19.5 517,-0.5 430,-0.5"/>
<text text-anchor="middle" x="473.5" y="-7.5" font-family="Helvetica,sans-Serif" font-size="10.00">TWI::get_status</text>
</a>
</g>
</g>
<!-- Node82&#45;&gt;Node84 -->
<g id="edge54" class="edge"><title>Node82&#45;&gt;Node84</title>
<path fill="none" stroke="midnightblue" d="M366.706,-38.411C384.973,-33.5056 407.408,-27.4804 426.911,-22.2429"/>
<polygon fill="midnightblue" stroke="midnightblue" points="428.055,-25.5599 436.805,-19.5859 426.239,-18.7994 428.055,-25.5599"/>
</g>
<!-- Node85 -->
<g id="node39" class="node"><title>Node85</title>
<g id="a_node39"><a xlink:href="class_t_w_i.html#a3ed950888f040e24dc9dcb0ba65d17f1" target="_top" xlink:title="TWI::stop">
<polygon fill="none" stroke="black" points="443.5,-76.5 443.5,-95.5 503.5,-95.5 503.5,-76.5 443.5,-76.5"/>
<text text-anchor="middle" x="473.5" y="-83.5" font-family="Helvetica,sans-Serif" font-size="10.00">TWI::stop</text>
</a>
</g>
</g>
<!-- Node82&#45;&gt;Node85 -->
<g id="edge55" class="edge"><title>Node82&#45;&gt;Node85</title>
<path fill="none" stroke="midnightblue" d="M366.706,-57.589C387.11,-63.0685 412.717,-69.9451 433.626,-75.5604"/>
<polygon fill="midnightblue" stroke="midnightblue" points="432.905,-78.9906 443.47,-78.2041 434.72,-72.2302 432.905,-78.9906"/>
</g>
</g>
</svg>
        <g id="navigator" transform="translate(0 0)" fill="#404254">
                <rect fill="#f2f5e9" fill-opacity="0.5" stroke="#606060" stroke-width=".5" x="0" y="0" width="60" height="60"/>
                <use id="zoomplus" xlink:href="#zoomPlus" x="17" y="9" onmousedown="handleZoom(evt,'in')"/>
                <use id="zoomminus" xlink:href="#zoomMin" x="42" y="9" onmousedown="handleZoom(evt,'out')"/>
                <use id="reset" xlink:href="#resetDef" x="30" y="36" onmousedown="handleReset()"/>
                <g id="arrowUp" xlink:href="#dirArrow" transform="translate(30 24)" onmousedown="handlePan(0,-1)">
                  <use xlink:href="#rim" fill="#404040">
                        <set attributeName="fill" to="#808080" begin="arrowUp.mouseover" end="arrowUp.mouseout"/>
                  </use>
                  <path fill="none" stroke="white" stroke-width="1.5" d="M0,-3.0v7 M-2.5,-0.5L0,-3.0L2.5,-0.5"/>
                </g>
                <g id="arrowRight" xlink:href="#dirArrow" transform="rotate(90) translate(36 -43)" onmousedown="handlePan(1,0)">
                  <use xlink:href="#rim" fill="#404040">
                        <set attributeName="fill" to="#808080" begin="arrowRight.mouseover" end="arrowRight.mouseout"/>
                  </use>
                  <path fill="none" stroke="white" stroke-width="1.5" d="M0,-3.0v7 M-2.5,-0.5L0,-3.0L2.5,-0.5"/>
                </g>
                <g id="arrowDown" xlink:href="#dirArrow" transform="rotate(180) translate(-30 -48)" onmousedown="handlePan(0,1)">
                  <use xlink:href="#rim" fill="#404040">
                        <set attributeName="fill" to="#808080" begin="arrowDown.mouseover" end="arrowDown.mouseout"/>
                  </use>
                  <path fill="none" stroke="white" stroke-width="1.5" d="M0,-3.0v7 M-2.5,-0.5L0,-3.0L2.5,-0.5"/>
                </g>
                <g id="arrowLeft" xlink:href="#dirArrow" transform="rotate(270) translate(-36 17)" onmousedown="handlePan(-1,0)">
                  <use xlink:href="#rim" fill="#404040">
                        <set attributeName="fill" to="#808080" begin="arrowLeft.mouseover" end="arrowLeft.mouseout"/>
                  </use>
                  <path fill="none" stroke="white" stroke-width="1.5" d="M0,-3.0v7 M-2.5,-0.5L0,-3.0L2.5,-0.5"/>
                </g>
        </g>
        <svg viewBox="0 0 15 15" width="100%" height="30px" preserveAspectRatio="xMaxYMin meet">
         <g id="arrow_out" transform="scale(0.3 0.3)">
          <a xlink:href="class_config_a2a806f322b0d533aabdb8e796d3b1033_cgraph_org.svg" target="_base">
           <rect id="button" ry="5" rx="5" y="6" x="6" height="38" width="38"
                fill="#f2f5e9" fill-opacity="0.5" stroke="#606060" stroke-width="1.0"/>
           <path id="arrow"
             d="M 11.500037,31.436501 C 11.940474,20.09759 22.043105,11.32322 32.158766,21.979434 L 37.068811,17.246167 C 37.068811,17.246167 37.088388,32 37.088388,32 L 22.160133,31.978069 C 22.160133,31.978069 26.997745,27.140456 26.997745,27.140456 C 18.528582,18.264221 13.291696,25.230495 11.500037,31.436501 z"
             style="fill:#404040;"/>
          </a>
         </g>
        </svg>
</svg>
