<?xml version="1.0" encoding="UTF-8" standalone="no"?>
<!DOCTYPE svg PUBLIC "-//W3C//DTD SVG 1.1//EN"
 "http://www.w3.org/Graphics/SVG/1.1/DTD/svg11.dtd">
<!-- Generated by graphviz version 2.38.0 (20140413.2041)
 -->
<!-- Title: Graphical Class Hierarchy Pages: 1 -->
<svg width="163pt" height="66pt"
 viewBox="0.00 0.00 163.00 66.00" xmlns="http://www.w3.org/2000/svg" xmlns:xlink="http://www.w3.org/1999/xlink">
<g id="graph0" class="graph" transform="scale(1 1) rotate(0) translate(4 62)">
<title>Graphical Class Hierarchy</title>
<!-- Node0 -->
<g id="node1" class="node"><title>Node0</title>
<g id="a_node1"><a xlink:href="class_sensor.html" target="_top" xlink:title="The sensor class is the base container for sensor, need to create a inherited class from sensor...">
<polygon fill="none" stroke="black" points="0,-19.5 0,-38.5 47,-38.5 47,-19.5 0,-19.5"/>
<text text-anchor="middle" x="23.5" y="-26.5" font-family="Helvetica,sans-Serif" font-size="10.00">Sensor</text>
</a>
</g>
</g>
<!-- Node1 -->
<g id="node2" class="node"><title>Node1</title>
<g id="a_node2"><a xlink:href="class_anemometer.html" target="_top" xlink:title="Anemometer">
<polygon fill="none" stroke="black" points="83,-38.5 83,-57.5 155,-57.5 155,-38.5 83,-38.5"/>
<text text-anchor="middle" x="119" y="-45.5" font-family="Helvetica,sans-Serif" font-size="10.00">Anemometer</text>
</a>
</g>
</g>
<!-- Node0&#45;&gt;Node1 -->
<g id="edge1" class="edge"><title>Node0&#45;&gt;Node1</title>
<path fill="none" stroke="midnightblue" d="M57.1894,-35.6428C65.4724,-37.3259 74.4046,-39.141 82.8057,-40.8482"/>
<polygon fill="midnightblue" stroke="midnightblue" points="57.6305,-32.1609 47.1337,-33.5994 56.2364,-39.0207 57.6305,-32.1609"/>
</g>
<!-- Node2 -->
<g id="node3" class="node"><title>Node2</title>
<g id="a_node3"><a xlink:href="class_windvane.html" target="_top" xlink:title="Windvane">
<polygon fill="none" stroke="black" points="89,-0.5 89,-19.5 149,-19.5 149,-0.5 89,-0.5"/>
<text text-anchor="middle" x="119" y="-7.5" font-family="Helvetica,sans-Serif" font-size="10.00">Windvane</text>
</a>
</g>
</g>
<!-- Node0&#45;&gt;Node2 -->
<g id="edge2" class="edge"><title>Node0&#45;&gt;Node2</title>
<path fill="none" stroke="midnightblue" d="M57.05,-22.3856C67.3932,-20.2837 78.7609,-17.9737 88.8486,-15.9238"/>
<polygon fill="midnightblue" stroke="midnightblue" points="56.2364,-18.9793 47.1337,-24.4006 57.6305,-25.8391 56.2364,-18.9793"/>
</g>
</g>
</svg>
