<?xml version="1.0" encoding="UTF-8" standalone="no"?>
<!DOCTYPE svg PUBLIC "-//W3C//DTD SVG 1.1//EN"
 "http://www.w3.org/Graphics/SVG/1.1/DTD/svg11.dtd">
<!-- Generated by graphviz version 2.38.0 (20140413.2041)
 -->
<!-- Title: Graphical Class Hierarchy Pages: 1 -->
<svg width="138pt" height="180pt"
 viewBox="0.00 0.00 138.00 180.00" xmlns="http://www.w3.org/2000/svg" xmlns:xlink="http://www.w3.org/1999/xlink">
<g id="graph0" class="graph" transform="scale(1 1) rotate(0) translate(4 176)">
<title>Graphical Class Hierarchy</title>
<!-- Node0 -->
<g id="node1" class="node"><title>Node0</title>
<g id="a_node1"><a xlink:href="class_state.html" target="_top" xlink:title="State">
<polygon fill="none" stroke="black" points="0,-76.5 0,-95.5 40,-95.5 40,-76.5 0,-76.5"/>
<text text-anchor="middle" x="20" y="-83.5" font-family="Helvetica,sans-Serif" font-size="10.00">State</text>
</a>
</g>
</g>
<!-- Node1 -->
<g id="node2" class="node"><title>Node1</title>
<g id="a_node2"><a xlink:href="class_config.html" target="_top" xlink:title="The class Config inherits from the class State. This class manage input between the FSM...">
<polygon fill="none" stroke="black" points="80.5,-152.5 80.5,-171.5 125.5,-171.5 125.5,-152.5 80.5,-152.5"/>
<text text-anchor="middle" x="103" y="-159.5" font-family="Helvetica,sans-Serif" font-size="10.00">Config</text>
</a>
</g>
</g>
<!-- Node0&#45;&gt;Node1 -->
<g id="edge1" class="edge"><title>Node0&#45;&gt;Node1</title>
<path fill="none" stroke="midnightblue" d="M36.4475,-103.524C47.0917,-115.21 61.8222,-130.636 76,-143 79.7079,-146.234 83.9389,-149.489 87.8952,-152.37"/>
<polygon fill="midnightblue" stroke="midnightblue" points="38.7719,-100.874 29.4855,-95.7741 33.5644,-105.552 38.7719,-100.874"/>
</g>
<!-- Node2 -->
<g id="node3" class="node"><title>Node2</title>
<g id="a_node3"><a xlink:href="class_idle.html" target="_top" xlink:title="Idle">
<polygon fill="none" stroke="black" points="87,-114.5 87,-133.5 119,-133.5 119,-114.5 87,-114.5"/>
<text text-anchor="middle" x="103" y="-121.5" font-family="Helvetica,sans-Serif" font-size="10.00">Idle</text>
</a>
</g>
</g>
<!-- Node0&#45;&gt;Node2 -->
<g id="edge2" class="edge"><title>Node0&#45;&gt;Node2</title>
<path fill="none" stroke="midnightblue" d="M49.4413,-99.3428C62.0929,-105.278 76.472,-112.024 86.9884,-116.958"/>
<polygon fill="midnightblue" stroke="midnightblue" points="50.7357,-96.0841 40.1959,-95.0055 47.7626,-102.421 50.7357,-96.0841"/>
</g>
<!-- Node3 -->
<g id="node4" class="node"><title>Node3</title>
<g id="a_node4"><a xlink:href="class_measure.html" target="_top" xlink:title="The class Measure inherits from the class State. ">
<polygon fill="none" stroke="black" points="76,-76.5 76,-95.5 130,-95.5 130,-76.5 76,-76.5"/>
<text text-anchor="middle" x="103" y="-83.5" font-family="Helvetica,sans-Serif" font-size="10.00">Measure</text>
</a>
</g>
</g>
<!-- Node0&#45;&gt;Node3 -->
<g id="edge3" class="edge"><title>Node0&#45;&gt;Node3</title>
<path fill="none" stroke="midnightblue" d="M50.3049,-86C58.6722,-86 67.7313,-86 75.8938,-86"/>
<polygon fill="midnightblue" stroke="midnightblue" points="50.1959,-82.5001 40.1959,-86 50.1958,-89.5001 50.1959,-82.5001"/>
</g>
<!-- Node4 -->
<g id="node5" class="node"><title>Node4</title>
<g id="a_node5"><a xlink:href="class_output.html" target="_top" xlink:title="Output">
<polygon fill="none" stroke="black" points="80,-38.5 80,-57.5 126,-57.5 126,-38.5 80,-38.5"/>
<text text-anchor="middle" x="103" y="-45.5" font-family="Helvetica,sans-Serif" font-size="10.00">Output</text>
</a>
</g>
</g>
<!-- Node0&#45;&gt;Node4 -->
<g id="edge4" class="edge"><title>Node0&#45;&gt;Node4</title>
<path fill="none" stroke="midnightblue" d="M49.4705,-72.6435C60.0392,-67.6853 71.81,-62.1632 81.5259,-57.6051"/>
<polygon fill="midnightblue" stroke="midnightblue" points="47.7626,-69.5786 40.1959,-76.9945 50.7357,-75.9159 47.7626,-69.5786"/>
</g>
<!-- Node5 -->
<g id="node6" class="node"><title>Node5</title>
<g id="a_node6"><a xlink:href="class_sleep.html" target="_top" xlink:title="Sleep">
<polygon fill="none" stroke="black" points="82.5,-0.5 82.5,-19.5 123.5,-19.5 123.5,-0.5 82.5,-0.5"/>
<text text-anchor="middle" x="103" y="-7.5" font-family="Helvetica,sans-Serif" font-size="10.00">Sleep</text>
</a>
</g>
</g>
<!-- Node0&#45;&gt;Node5 -->
<g id="edge5" class="edge"><title>Node0&#45;&gt;Node5</title>
<path fill="none" stroke="midnightblue" d="M36.4475,-68.4756C47.0917,-56.7902 61.8222,-41.364 76,-29 79.7079,-25.7664 83.9389,-22.5108 87.8952,-19.6304"/>
<polygon fill="midnightblue" stroke="midnightblue" points="33.5644,-66.4477 29.4855,-76.2259 38.7719,-71.1256 33.5644,-66.4477"/>
</g>
</g>
</svg>
