<?xml version="1.0" encoding="UTF-8" standalone="no"?>
<!DOCTYPE svg PUBLIC "-//W3C//DTD SVG 1.1//EN"
 "http://www.w3.org/Graphics/SVG/1.1/DTD/svg11.dtd">
<!-- Generated by graphviz version 2.38.0 (20140413.2041)
 -->
<!-- Title: main Pages: 1 -->
<svg width="792pt" height="582pt"
 viewBox="0.00 0.00 792.00 582.00" xmlns="http://www.w3.org/2000/svg" xmlns:xlink="http://www.w3.org/1999/xlink">
<g id="graph0" class="graph" transform="scale(1 1) rotate(0) translate(4 578)">
<title>main</title>
<!-- Node0 -->
<g id="node1" class="node"><title>Node0</title>
<polygon fill="#bfbfbf" stroke="black" points="0,-114.5 0,-133.5 38,-133.5 38,-114.5 0,-114.5"/>
<text text-anchor="middle" x="19" y="-121.5" font-family="Helvetica,sans-Serif" font-size="10.00">main</text>
</g>
<!-- Node1 -->
<g id="node2" class="node"><title>Node1</title>
<g id="a_node2"><a xlink:href="class_f_s_m.html#a3819be8e9fe92b750f47b9731e92f254" target="_top" xlink:title="Call when a string from usart0 finish by &quot;\r\n&quot;. ">
<polygon fill="none" stroke="black" points="74,-342.5 74,-361.5 211,-361.5 211,-342.5 74,-342.5"/>
<text text-anchor="middle" x="142.5" y="-349.5" font-family="Helvetica,sans-Serif" font-size="10.00">FSM::character_processing</text>
</a>
</g>
</g>
<!-- Node0&#45;&gt;Node1 -->
<g id="edge1" class="edge"><title>Node0&#45;&gt;Node1</title>
<path fill="none" stroke="midnightblue" d="M25.066,-133.507C43.4763,-168.054 107.042,-287.338 131.656,-333.528"/>
<polygon fill="midnightblue" stroke="midnightblue" points="128.621,-335.274 136.412,-342.453 134.798,-331.982 128.621,-335.274"/>
</g>
<!-- Node17 -->
<g id="node18" class="node"><title>Node17</title>
<g id="a_node18"><a xlink:href="class_f_s_m.html#a8a6e956375ea383f83fdd076badbe5a7" target="_top" xlink:title="This method execute the next state. ">
<polygon fill="none" stroke="black" points="103.5,-171.5 103.5,-190.5 181.5,-190.5 181.5,-171.5 103.5,-171.5"/>
<text text-anchor="middle" x="142.5" y="-178.5" font-family="Helvetica,sans-Serif" font-size="10.00">FSM::execute</text>
</a>
</g>
</g>
<!-- Node0&#45;&gt;Node17 -->
<g id="edge25" class="edge"><title>Node0&#45;&gt;Node17</title>
<path fill="none" stroke="midnightblue" d="M31.2932,-133.68C41.7534,-142.208 58.0562,-154.42 74,-162 80.1313,-164.915 86.7944,-167.462 93.4667,-169.662"/>
<polygon fill="midnightblue" stroke="midnightblue" points="92.6014,-173.057 103.188,-172.641 94.6521,-166.365 92.6014,-173.057"/>
</g>
<!-- Node19 -->
<g id="node20" class="node"><title>Node19</title>
<g id="a_node20"><a xlink:href="class_r_t_c.html#a6e75afc10029f384081b814c2450e0fa" target="_top" xlink:title="RTC::get_date">
<polygon fill="none" stroke="black" points="102,-133.5 102,-152.5 183,-152.5 183,-133.5 102,-133.5"/>
<text text-anchor="middle" x="142.5" y="-140.5" font-family="Helvetica,sans-Serif" font-size="10.00">RTC::get_date</text>
</a>
</g>
</g>
<!-- Node0&#45;&gt;Node19 -->
<g id="edge27" class="edge"><title>Node0&#45;&gt;Node19</title>
<path fill="none" stroke="midnightblue" d="M38.1898,-126.844C52.3868,-129.065 72.816,-132.259 91.7656,-135.223"/>
<polygon fill="midnightblue" stroke="midnightblue" points="91.3738,-138.704 101.795,-136.791 92.4554,-131.788 91.3738,-138.704"/>
</g>
<!-- Node27 -->
<g id="node28" class="node"><title>Node27</title>
<g id="a_node28"><a xlink:href="class_r_t_c.html#a64fff0b6517be73f463e7741a8f0a200" target="_top" xlink:title="RTC::get_second">
<polygon fill="none" stroke="black" points="249,-73.5 249,-92.5 343,-92.5 343,-73.5 249,-73.5"/>
<text text-anchor="middle" x="296" y="-80.5" font-family="Helvetica,sans-Serif" font-size="10.00">RTC::get_second</text>
</a>
</g>
</g>
<!-- Node0&#45;&gt;Node27 -->
<g id="edge35" class="edge"><title>Node0&#45;&gt;Node27</title>
<path fill="none" stroke="midnightblue" d="M38.0435,-121.31C78.1132,-115.336 175.918,-100.754 238.644,-91.4022"/>
<polygon fill="midnightblue" stroke="midnightblue" points="239.403,-94.8278 248.777,-89.8914 238.371,-87.9043 239.403,-94.8278"/>
</g>
<!-- Node28 -->
<g id="node29" class="node"><title>Node28</title>
<g id="a_node29"><a xlink:href="class_f_s_m.html#a96c6ea489297a70669bef5d29b3d889c" target="_top" xlink:title="This method control if a new measure is needed. ">
<polygon fill="none" stroke="black" points="75.5,-46 75.5,-76 209.5,-76 209.5,-46 75.5,-46"/>
<text text-anchor="start" x="83.5" y="-64" font-family="Helvetica,sans-Serif" font-size="10.00">FSM::measurement_timing</text>
<text text-anchor="middle" x="142.5" y="-53" font-family="Helvetica,sans-Serif" font-size="10.00">_control</text>
</a>
</g>
</g>
<!-- Node0&#45;&gt;Node28 -->
<g id="edge36" class="edge"><title>Node0&#45;&gt;Node28</title>
<path fill="none" stroke="midnightblue" d="M34.8251,-114.217C45.5075,-107.348 60.3806,-98.1492 74,-91 81.0257,-87.312 88.5985,-83.6543 96.0434,-80.2275"/>
<polygon fill="midnightblue" stroke="midnightblue" points="97.6793,-83.3293 105.354,-76.0257 94.7999,-76.9489 97.6793,-83.3293"/>
</g>
<!-- Node29 -->
<g id="node30" class="node"><title>Node29</title>
<g id="a_node30"><a xlink:href="class_f_s_m.html#a22fc8c194ad489ef718067ab60bcebd6" target="_top" xlink:title="This method define the next state from hardware and software flags. ">
<polygon fill="none" stroke="black" points="75.5,-7.5 75.5,-26.5 209.5,-26.5 209.5,-7.5 75.5,-7.5"/>
<text text-anchor="middle" x="142.5" y="-14.5" font-family="Helvetica,sans-Serif" font-size="10.00">FSM::new_State_definition</text>
</a>
</g>
</g>
<!-- Node0&#45;&gt;Node29 -->
<g id="edge38" class="edge"><title>Node0&#45;&gt;Node29</title>
<path fill="none" stroke="midnightblue" d="M23.1878,-114.426C29.7259,-96.2863 46.4051,-56.8646 74,-36 76.4929,-34.1151 79.1647,-32.4171 81.9543,-30.8876"/>
<polygon fill="midnightblue" stroke="midnightblue" points="83.6246,-33.9701 91.1904,-26.5532 80.6507,-27.6332 83.6246,-33.9701"/>
</g>
<!-- Node2 -->
<g id="node3" class="node"><title>Node2</title>
<g id="a_node3"><a xlink:href="class_config.html#a3f8d043789557191686ae632ebe6a571" target="_top" xlink:title="add c to the end of request ">
<polygon fill="none" stroke="black" points="381,-554.5 381,-573.5 496,-573.5 496,-554.5 381,-554.5"/>
<text text-anchor="middle" x="438.5" y="-561.5" font-family="Helvetica,sans-Serif" font-size="10.00">Config::addToRequest</text>
</a>
</g>
</g>
<!-- Node1&#45;&gt;Node2 -->
<g id="edge2" class="edge"><title>Node1&#45;&gt;Node2</title>
<path fill="none" stroke="midnightblue" d="M150.014,-361.606C165.004,-383.142 203.972,-435.978 247,-469 295.618,-506.312 361.183,-535.147 401.34,-550.831"/>
<polygon fill="midnightblue" stroke="midnightblue" points="400.141,-554.12 410.731,-554.44 402.652,-547.586 400.141,-554.12"/>
</g>
<!-- Node3 -->
<g id="node4" class="node"><title>Node3</title>
<g id="a_node4"><a xlink:href="class_usart.html#a86c9264f48dabbc3d97fa32d2d02d22d" target="_top" xlink:title="USART char sender function. ">
<polygon fill="none" stroke="black" points="266,-361.5 266,-380.5 326,-380.5 326,-361.5 266,-361.5"/>
<text text-anchor="middle" x="296" y="-368.5" font-family="Helvetica,sans-Serif" font-size="10.00">Usart::set</text>
</a>
</g>
</g>
<!-- Node1&#45;&gt;Node3 -->
<g id="edge3" class="edge"><title>Node1&#45;&gt;Node3</title>
<path fill="none" stroke="midnightblue" d="M211.274,-360.5C226.593,-362.421 242.351,-364.397 256.006,-366.11"/>
<polygon fill="midnightblue" stroke="midnightblue" points="255.639,-369.591 265.997,-367.363 256.51,-362.645 255.639,-369.591"/>
</g>
<!-- Node4 -->
<g id="node5" class="node"><title>Node4</title>
<g id="a_node5"><a xlink:href="class_config.html#aad107d2aa88bbf57a728ec0c650a6f84" target="_top" xlink:title="Config::backspace">
<polygon fill="none" stroke="black" points="247,-323.5 247,-342.5 345,-342.5 345,-323.5 247,-323.5"/>
<text text-anchor="middle" x="296" y="-330.5" font-family="Helvetica,sans-Serif" font-size="10.00">Config::backspace</text>
</a>
</g>
</g>
<!-- Node1&#45;&gt;Node4 -->
<g id="edge4" class="edge"><title>Node1&#45;&gt;Node4</title>
<path fill="none" stroke="midnightblue" d="M211.274,-343.5C219.788,-342.433 228.437,-341.348 236.786,-340.301"/>
<polygon fill="midnightblue" stroke="midnightblue" points="237.304,-343.763 246.791,-339.046 236.433,-336.818 237.304,-343.763"/>
</g>
<!-- Node5 -->
<g id="node6" class="node"><title>Node5</title>
<g id="a_node6"><a xlink:href="class_usart.html#ab236d7c399791bbe1431f85e9b60f601" target="_top" xlink:title="USART string sender function. ">
<polygon fill="none" stroke="black" points="695.5,-304.5 695.5,-323.5 760.5,-323.5 760.5,-304.5 695.5,-304.5"/>
<text text-anchor="middle" x="728" y="-311.5" font-family="Helvetica,sans-Serif" font-size="10.00">Usart::print</text>
</a>
</g>
</g>
<!-- Node1&#45;&gt;Node5 -->
<g id="edge5" class="edge"><title>Node1&#45;&gt;Node5</title>
<path fill="none" stroke="midnightblue" d="M166.592,-342.353C187.347,-333.964 218.811,-321.942 247,-314 371.334,-278.969 403.453,-269.729 532,-257 577.997,-252.445 591.575,-244.235 636,-257 663.463,-264.891 690.663,-283.767 708.069,-297.645"/>
<polygon fill="midnightblue" stroke="midnightblue" points="706.284,-300.708 716.228,-304.362 710.733,-295.304 706.284,-300.708"/>
</g>
<!-- Node6 -->
<g id="node7" class="node"><title>Node6</title>
<g id="a_node7"><a xlink:href="class_config.html#a5ae6c4f7255e895e7384fc2a4baab160" target="_top" xlink:title="Config::endString">
<polygon fill="none" stroke="black" points="250,-440.5 250,-459.5 342,-459.5 342,-440.5 250,-440.5"/>
<text text-anchor="middle" x="296" y="-447.5" font-family="Helvetica,sans-Serif" font-size="10.00">Config::endString</text>
</a>
</g>
</g>
<!-- Node1&#45;&gt;Node6 -->
<g id="edge6" class="edge"><title>Node1&#45;&gt;Node6</title>
<path fill="none" stroke="midnightblue" d="M158.302,-361.575C184.596,-378.583 239.649,-414.195 271.281,-434.657"/>
<polygon fill="midnightblue" stroke="midnightblue" points="269.616,-437.748 279.913,-440.241 273.418,-431.871 269.616,-437.748"/>
</g>
<!-- Node6&#45;&gt;Node2 -->
<g id="edge17" class="edge"><title>Node6&#45;&gt;Node2</title>
<path fill="none" stroke="midnightblue" d="M303.822,-459.65C316.941,-477.608 347.383,-516.465 381,-540 386.631,-543.942 393.011,-547.421 399.406,-550.421"/>
<polygon fill="midnightblue" stroke="midnightblue" points="398.133,-553.684 408.699,-554.47 400.929,-547.267 398.133,-553.684"/>
</g>
<!-- Node7 -->
<g id="node8" class="node"><title>Node7</title>
<g id="a_node8"><a xlink:href="class_config.html#a975933ecde91dc436d4ca39464cfd25f" target="_top" xlink:title="display all config on USART0 ">
<polygon fill="none" stroke="black" points="397.5,-342.5 397.5,-361.5 479.5,-361.5 479.5,-342.5 397.5,-342.5"/>
<text text-anchor="middle" x="438.5" y="-349.5" font-family="Helvetica,sans-Serif" font-size="10.00">Config::display</text>
</a>
</g>
</g>
<!-- Node6&#45;&gt;Node7 -->
<g id="edge7" class="edge"><title>Node6&#45;&gt;Node7</title>
<path fill="none" stroke="midnightblue" d="M310.728,-440.425C335.007,-423.49 385.73,-388.11 415.124,-367.607"/>
<polygon fill="midnightblue" stroke="midnightblue" points="417.309,-370.351 423.509,-361.759 413.304,-364.609 417.309,-370.351"/>
</g>
<!-- Node13 -->
<g id="node14" class="node"><title>Node13</title>
<g id="a_node14"><a xlink:href="class_config.html#a890e1d585e9ae670a6cccaf196250870" target="_top" xlink:title="Config::atoc">
<polygon fill="none" stroke="black" points="403.5,-440.5 403.5,-459.5 473.5,-459.5 473.5,-440.5 403.5,-440.5"/>
<text text-anchor="middle" x="438.5" y="-447.5" font-family="Helvetica,sans-Serif" font-size="10.00">Config::atoc</text>
</a>
</g>
</g>
<!-- Node6&#45;&gt;Node13 -->
<g id="edge18" class="edge"><title>Node6&#45;&gt;Node13</title>
<path fill="none" stroke="midnightblue" d="M342.228,-450C358.417,-450 376.644,-450 392.788,-450"/>
<polygon fill="midnightblue" stroke="midnightblue" points="393.054,-453.5 403.054,-450 393.054,-446.5 393.054,-453.5"/>
</g>
<!-- Node14 -->
<g id="node15" class="node"><title>Node14</title>
<g id="a_node15"><a xlink:href="class_config.html#ab2f7c3fc31f5a2c4e115860474dd8f55" target="_top" xlink:title="Load saved config data from the eeprom. ">
<polygon fill="none" stroke="black" points="388,-478.5 388,-497.5 489,-497.5 489,-478.5 388,-478.5"/>
<text text-anchor="middle" x="438.5" y="-485.5" font-family="Helvetica,sans-Serif" font-size="10.00">Config::load_logger</text>
</a>
</g>
</g>
<!-- Node6&#45;&gt;Node14 -->
<g id="edge19" class="edge"><title>Node6&#45;&gt;Node14</title>
<path fill="none" stroke="midnightblue" d="M332.454,-459.589C350.591,-464.494 372.868,-470.52 392.233,-475.757"/>
<polygon fill="midnightblue" stroke="midnightblue" points="391.49,-479.182 402.057,-478.414 393.318,-472.425 391.49,-479.182"/>
</g>
<!-- Node15 -->
<g id="node16" class="node"><title>Node15</title>
<g id="a_node16"><a xlink:href="class_config.html#ad634dbd3d1afb02eac176fd4f0150614" target="_top" xlink:title="Initialize the eeprom memory. ">
<polygon fill="none" stroke="black" points="541,-473 541,-503 627,-503 627,-473 541,-473"/>
<text text-anchor="start" x="549" y="-491" font-family="Helvetica,sans-Serif" font-size="10.00">Config::initialize</text>
<text text-anchor="middle" x="584" y="-480" font-family="Helvetica,sans-Serif" font-size="10.00">_logger</text>
</a>
</g>
</g>
<!-- Node6&#45;&gt;Node15 -->
<g id="edge24" class="edge"><title>Node6&#45;&gt;Node15</title>
<path fill="none" stroke="midnightblue" d="M306.796,-459.625C321.467,-473.288 350.676,-497.683 381,-507 430.303,-522.149 489.292,-513.752 530.756,-503.788"/>
<polygon fill="midnightblue" stroke="midnightblue" points="531.795,-507.136 540.64,-501.304 530.089,-500.348 531.795,-507.136"/>
</g>
<!-- Node16 -->
<g id="node17" class="node"><title>Node16</title>
<g id="a_node17"><a xlink:href="class_config.html#a4cda6b3fcf08b798afe3bf1311450b0c" target="_top" xlink:title="Update saved config data in the eeprom. ">
<polygon fill="none" stroke="black" points="672,-448.5 672,-467.5 784,-467.5 784,-448.5 672,-448.5"/>
<text text-anchor="middle" x="728" y="-455.5" font-family="Helvetica,sans-Serif" font-size="10.00">Config::update_logger</text>
</a>
</g>
</g>
<!-- Node6&#45;&gt;Node16 -->
<g id="edge23" class="edge"><title>Node6&#45;&gt;Node16</title>
<path fill="none" stroke="midnightblue" d="M331.037,-440.492C346.199,-436.728 364.358,-432.859 381,-431 481.812,-419.741 599.671,-434.968 668.555,-446.714"/>
<polygon fill="midnightblue" stroke="midnightblue" points="668.315,-450.225 678.767,-448.492 669.515,-443.329 668.315,-450.225"/>
</g>
<!-- Node7&#45;&gt;Node5 -->
<g id="edge8" class="edge"><title>Node7&#45;&gt;Node5</title>
<path fill="none" stroke="midnightblue" d="M479.858,-342.747C496.005,-339.298 514.817,-335.594 532,-333 584.641,-325.052 645.803,-319.72 685.39,-316.777"/>
<polygon fill="midnightblue" stroke="midnightblue" points="685.745,-320.261 695.465,-316.045 685.237,-313.279 685.745,-320.261"/>
</g>
<!-- Node8 -->
<g id="node9" class="node"><title>Node8</title>
<g id="a_node9"><a xlink:href="class_sensor.html#a0e1288d8b8594192f9d65819c185764f" target="_top" xlink:title="This method print the sensor configuration for the sensor. It&#39;s a good idea to overload this function...">
<polygon fill="none" stroke="black" points="532,-380.5 532,-399.5 636,-399.5 636,-380.5 532,-380.5"/>
<text text-anchor="middle" x="584" y="-387.5" font-family="Helvetica,sans-Serif" font-size="10.00">Sensor::print_config</text>
</a>
</g>
</g>
<!-- Node7&#45;&gt;Node8 -->
<g id="edge9" class="edge"><title>Node7&#45;&gt;Node8</title>
<path fill="none" stroke="midnightblue" d="M475.711,-361.589C494.321,-366.517 517.197,-372.575 537.039,-377.829"/>
<polygon fill="midnightblue" stroke="midnightblue" points="536.238,-381.238 546.8,-380.414 538.03,-374.471 536.238,-381.238"/>
</g>
<!-- Node10 -->
<g id="node11" class="node"><title>Node10</title>
<g id="a_node11"><a xlink:href="class_power.html#afd1c8cab1d4549eb45be61bdd34ae97d" target="_top" xlink:title="This method print the configuration for the power measurement. It&#39;s a good idea to overload this func...">
<polygon fill="none" stroke="black" points="533.5,-342.5 533.5,-361.5 634.5,-361.5 634.5,-342.5 533.5,-342.5"/>
<text text-anchor="middle" x="584" y="-349.5" font-family="Helvetica,sans-Serif" font-size="10.00">Power::print_config</text>
</a>
</g>
</g>
<!-- Node7&#45;&gt;Node10 -->
<g id="edge12" class="edge"><title>Node7&#45;&gt;Node10</title>
<path fill="none" stroke="midnightblue" d="M479.855,-352C493.196,-352 508.341,-352 522.838,-352"/>
<polygon fill="midnightblue" stroke="midnightblue" points="523.245,-355.5 533.245,-352 523.245,-348.5 523.245,-355.5"/>
</g>
<!-- Node12 -->
<g id="node13" class="node"><title>Node12</title>
<g id="a_node13"><a xlink:href="class_r_t_c.html#a59f014e14e774bf372dcf0d5d64e6717" target="_top" xlink:title="RTC::print_config">
<polygon fill="none" stroke="black" points="537,-266.5 537,-285.5 631,-285.5 631,-266.5 537,-266.5"/>
<text text-anchor="middle" x="584" y="-273.5" font-family="Helvetica,sans-Serif" font-size="10.00">RTC::print_config</text>
</a>
</g>
</g>
<!-- Node7&#45;&gt;Node12 -->
<g id="edge15" class="edge"><title>Node7&#45;&gt;Node12</title>
<path fill="none" stroke="midnightblue" d="M455.681,-342.434C473.994,-331.717 504.818,-314.013 532,-300 538.487,-296.656 545.522,-293.224 552.236,-290.038"/>
<polygon fill="midnightblue" stroke="midnightblue" points="554.17,-292.997 561.742,-285.586 551.201,-286.658 554.17,-292.997"/>
</g>
<!-- Node8&#45;&gt;Node5 -->
<g id="edge10" class="edge"><title>Node8&#45;&gt;Node5</title>
<path fill="none" stroke="midnightblue" d="M617.374,-380.481C623.81,-377.899 630.326,-374.754 636,-371 655.402,-358.163 652.445,-345.604 672,-333 676.295,-330.232 681.039,-327.816 685.888,-325.721"/>
<polygon fill="midnightblue" stroke="midnightblue" points="687.2,-328.966 695.251,-322.08 684.663,-322.442 687.2,-328.966"/>
</g>
<!-- Node9 -->
<g id="node10" class="node"><title>Node9</title>
<g id="a_node10"><a xlink:href="class_sensor.html#a9478b09a17b24105c0fe5b32e988224a" target="_top" xlink:title="Sensor::print">
<polygon fill="none" stroke="black" points="692,-380.5 692,-399.5 764,-399.5 764,-380.5 692,-380.5"/>
<text text-anchor="middle" x="728" y="-387.5" font-family="Helvetica,sans-Serif" font-size="10.00">Sensor::print</text>
</a>
</g>
</g>
<!-- Node8&#45;&gt;Node9 -->
<g id="edge11" class="edge"><title>Node8&#45;&gt;Node9</title>
<path fill="none" stroke="midnightblue" d="M636.265,-390C651.096,-390 667.175,-390 681.62,-390"/>
<polygon fill="midnightblue" stroke="midnightblue" points="681.808,-393.5 691.808,-390 681.808,-386.5 681.808,-393.5"/>
</g>
<!-- Node10&#45;&gt;Node5 -->
<g id="edge13" class="edge"><title>Node10&#45;&gt;Node5</title>
<path fill="none" stroke="midnightblue" d="M620.833,-342.411C640.461,-337.158 664.888,-330.622 685.361,-325.143"/>
<polygon fill="midnightblue" stroke="midnightblue" points="686.3,-328.515 695.055,-322.549 684.49,-321.753 686.3,-328.515"/>
</g>
<!-- Node11 -->
<g id="node12" class="node"><title>Node11</title>
<g id="a_node12"><a xlink:href="class_power.html#a3a915a3ea9b9017cae450959ef8af3de" target="_top" xlink:title="Power::print">
<polygon fill="none" stroke="black" points="693.5,-342.5 693.5,-361.5 762.5,-361.5 762.5,-342.5 693.5,-342.5"/>
<text text-anchor="middle" x="728" y="-349.5" font-family="Helvetica,sans-Serif" font-size="10.00">Power::print</text>
</a>
</g>
</g>
<!-- Node10&#45;&gt;Node11 -->
<g id="edge14" class="edge"><title>Node10&#45;&gt;Node11</title>
<path fill="none" stroke="midnightblue" d="M634.665,-352C650.39,-352 667.655,-352 682.958,-352"/>
<polygon fill="midnightblue" stroke="midnightblue" points="683.196,-355.5 693.196,-352 683.196,-348.5 683.196,-355.5"/>
</g>
<!-- Node12&#45;&gt;Node5 -->
<g id="edge16" class="edge"><title>Node12&#45;&gt;Node5</title>
<path fill="none" stroke="midnightblue" d="M620.833,-285.589C640.461,-290.842 664.888,-297.378 685.361,-302.857"/>
<polygon fill="midnightblue" stroke="midnightblue" points="684.49,-306.247 695.055,-305.451 686.3,-299.485 684.49,-306.247"/>
</g>
<!-- Node14&#45;&gt;Node15 -->
<g id="edge20" class="edge"><title>Node14&#45;&gt;Node15</title>
<path fill="none" stroke="midnightblue" d="M489.287,-481.539C502.704,-481.175 517.255,-481.155 530.801,-481.478"/>
<polygon fill="midnightblue" stroke="midnightblue" points="530.823,-484.98 540.927,-481.792 531.04,-477.983 530.823,-484.98"/>
</g>
<!-- Node15&#45;&gt;Node14 -->
<g id="edge22" class="edge"><title>Node15&#45;&gt;Node14</title>
<path fill="none" stroke="midnightblue" d="M540.927,-494.208C527.908,-494.711 513.306,-494.864 499.325,-494.666"/>
<polygon fill="midnightblue" stroke="midnightblue" points="499.356,-491.166 489.287,-494.461 499.213,-498.165 499.356,-491.166"/>
</g>
<!-- Node15&#45;&gt;Node16 -->
<g id="edge21" class="edge"><title>Node15&#45;&gt;Node16</title>
<path fill="none" stroke="midnightblue" d="M627.22,-479.08C641.169,-476.133 656.903,-472.809 671.682,-469.687"/>
<polygon fill="midnightblue" stroke="midnightblue" points="672.667,-473.056 681.727,-467.565 671.22,-466.207 672.667,-473.056"/>
</g>
<!-- Node18 -->
<g id="node19" class="node"><title>Node18</title>
<g id="a_node19"><a xlink:href="class_state.html#aa272f704a5f33920524fb57c80339b2f" target="_top" xlink:title="State::execute">
<polygon fill="none" stroke="black" points="256,-171.5 256,-190.5 336,-190.5 336,-171.5 256,-171.5"/>
<text text-anchor="middle" x="296" y="-178.5" font-family="Helvetica,sans-Serif" font-size="10.00">State::execute</text>
</a>
</g>
</g>
<!-- Node17&#45;&gt;Node18 -->
<g id="edge26" class="edge"><title>Node17&#45;&gt;Node18</title>
<path fill="none" stroke="midnightblue" d="M181.73,-181C201.152,-181 224.976,-181 245.756,-181"/>
<polygon fill="midnightblue" stroke="midnightblue" points="245.991,-184.5 255.991,-181 245.991,-177.5 245.991,-184.5"/>
</g>
<!-- Node20 -->
<g id="node21" class="node"><title>Node20</title>
<g id="a_node21"><a xlink:href="class_t_w_i.html#a3e375d4c03edae3f0c8263a330eddd8d" target="_top" xlink:title="TWI::receive">
<polygon fill="none" stroke="black" points="259.5,-114.5 259.5,-133.5 332.5,-133.5 332.5,-114.5 259.5,-114.5"/>
<text text-anchor="middle" x="296" y="-121.5" font-family="Helvetica,sans-Serif" font-size="10.00">TWI::receive</text>
</a>
</g>
</g>
<!-- Node19&#45;&gt;Node20 -->
<g id="edge28" class="edge"><title>Node19&#45;&gt;Node20</title>
<path fill="none" stroke="midnightblue" d="M183.305,-138.008C203.572,-135.466 228.307,-132.364 249.345,-129.726"/>
<polygon fill="midnightblue" stroke="midnightblue" points="249.853,-133.19 259.339,-128.472 248.982,-126.244 249.853,-133.19"/>
</g>
<!-- Node21 -->
<g id="node22" class="node"><title>Node21</title>
<g id="a_node22"><a xlink:href="class_t_w_i.html#a130b2bf159b768c28ae0d4129c556711" target="_top" xlink:title="TWI::start">
<polygon fill="none" stroke="black" points="408,-76.5 408,-95.5 469,-95.5 469,-76.5 408,-76.5"/>
<text text-anchor="middle" x="438.5" y="-83.5" font-family="Helvetica,sans-Serif" font-size="10.00">TWI::start</text>
</a>
</g>
</g>
<!-- Node20&#45;&gt;Node21 -->
<g id="edge29" class="edge"><title>Node20&#45;&gt;Node21</title>
<path fill="none" stroke="midnightblue" d="M332.454,-114.411C352.434,-109.007 377.439,-102.244 398.039,-96.6726"/>
<polygon fill="midnightblue" stroke="midnightblue" points="399.018,-100.034 407.757,-94.0443 397.19,-93.2766 399.018,-100.034"/>
</g>
<!-- Node22 -->
<g id="node23" class="node"><title>Node22</title>
<g id="a_node23"><a xlink:href="class_t_w_i.html#a6bde06891e3037d407b28a4ecbc3386f" target="_top" xlink:title="TWI::get_status">
<polygon fill="none" stroke="black" points="395,-38.5 395,-57.5 482,-57.5 482,-38.5 395,-38.5"/>
<text text-anchor="middle" x="438.5" y="-45.5" font-family="Helvetica,sans-Serif" font-size="10.00">TWI::get_status</text>
</a>
</g>
</g>
<!-- Node20&#45;&gt;Node22 -->
<g id="edge30" class="edge"><title>Node20&#45;&gt;Node22</title>
<path fill="none" stroke="midnightblue" d="M322.291,-114.349C329.886,-110.947 338.042,-106.766 345,-102 363.411,-89.3899 361.951,-78.6232 381,-67 384.382,-64.9365 388.016,-63.0653 391.75,-61.375"/>
<polygon fill="midnightblue" stroke="midnightblue" points="393.218,-64.5564 401.156,-57.5396 390.575,-58.0746 393.218,-64.5564"/>
</g>
<!-- Node23 -->
<g id="node24" class="node"><title>Node23</title>
<g id="a_node24"><a xlink:href="class_t_w_i.html#a29a1270e7b1ee2b573c1a32e3214ac57" target="_top" xlink:title="TWI::restart">
<polygon fill="none" stroke="black" points="404,-0.5 404,-19.5 473,-19.5 473,-0.5 404,-0.5"/>
<text text-anchor="middle" x="438.5" y="-7.5" font-family="Helvetica,sans-Serif" font-size="10.00">TWI::restart</text>
</a>
</g>
</g>
<!-- Node20&#45;&gt;Node23 -->
<g id="edge31" class="edge"><title>Node20&#45;&gt;Node23</title>
<path fill="none" stroke="midnightblue" d="M326.16,-114.469C332.915,-111.278 339.676,-107.175 345,-102 370.94,-76.786 353.768,-52.8132 381,-29 384.94,-25.5544 389.529,-22.7287 394.356,-20.4124"/>
<polygon fill="midnightblue" stroke="midnightblue" points="395.883,-23.5696 403.825,-16.5568 393.243,-17.0865 395.883,-23.5696"/>
</g>
<!-- Node24 -->
<g id="node25" class="node"><title>Node24</title>
<g id="a_node25"><a xlink:href="class_t_w_i.html#ab5cefdcf75964a3ce2ed54303de56614" target="_top" xlink:title="TWI::get_ack">
<polygon fill="none" stroke="black" points="400.5,-190.5 400.5,-209.5 476.5,-209.5 476.5,-190.5 400.5,-190.5"/>
<text text-anchor="middle" x="438.5" y="-197.5" font-family="Helvetica,sans-Serif" font-size="10.00">TWI::get_ack</text>
</a>
</g>
</g>
<!-- Node20&#45;&gt;Node24 -->
<g id="edge32" class="edge"><title>Node20&#45;&gt;Node24</title>
<path fill="none" stroke="midnightblue" d="M308.878,-133.605C324.594,-145.941 353.526,-167.378 381,-181 385.294,-183.129 389.883,-185.11 394.521,-186.926"/>
<polygon fill="midnightblue" stroke="midnightblue" points="393.435,-190.255 404.028,-190.417 395.848,-183.684 393.435,-190.255"/>
</g>
<!-- Node25 -->
<g id="node26" class="node"><title>Node25</title>
<g id="a_node26"><a xlink:href="class_t_w_i.html#a8fb1629575f81558db83b54955470136" target="_top" xlink:title="TWI::get_nack">
<polygon fill="none" stroke="black" points="398,-152.5 398,-171.5 479,-171.5 479,-152.5 398,-152.5"/>
<text text-anchor="middle" x="438.5" y="-159.5" font-family="Helvetica,sans-Serif" font-size="10.00">TWI::get_nack</text>
</a>
</g>
</g>
<!-- Node20&#45;&gt;Node25 -->
<g id="edge33" class="edge"><title>Node20&#45;&gt;Node25</title>
<path fill="none" stroke="midnightblue" d="M332.454,-133.589C350.591,-138.494 372.868,-144.52 392.233,-149.757"/>
<polygon fill="midnightblue" stroke="midnightblue" points="391.49,-153.182 402.057,-152.414 393.318,-146.425 391.49,-153.182"/>
</g>
<!-- Node26 -->
<g id="node27" class="node"><title>Node26</title>
<g id="a_node27"><a xlink:href="class_t_w_i.html#a3ed950888f040e24dc9dcb0ba65d17f1" target="_top" xlink:title="TWI::stop">
<polygon fill="none" stroke="black" points="408.5,-114.5 408.5,-133.5 468.5,-133.5 468.5,-114.5 408.5,-114.5"/>
<text text-anchor="middle" x="438.5" y="-121.5" font-family="Helvetica,sans-Serif" font-size="10.00">TWI::stop</text>
</a>
</g>
</g>
<!-- Node20&#45;&gt;Node26 -->
<g id="edge34" class="edge"><title>Node20&#45;&gt;Node26</title>
<path fill="none" stroke="midnightblue" d="M332.818,-124C352.757,-124 377.613,-124 398.101,-124"/>
<polygon fill="midnightblue" stroke="midnightblue" points="398.367,-127.5 408.367,-124 398.367,-120.5 398.367,-127.5"/>
</g>
<!-- Node28&#45;&gt;Node27 -->
<g id="edge37" class="edge"><title>Node28&#45;&gt;Node27</title>
<path fill="none" stroke="midnightblue" d="M209.509,-70.5855C219.23,-71.9971 229.168,-73.4403 238.669,-74.82"/>
<polygon fill="midnightblue" stroke="midnightblue" points="238.377,-78.3142 248.777,-76.2877 239.383,-71.3869 238.377,-78.3142"/>
</g>
</g>
</svg>
