<?xml version="1.0" encoding="UTF-8" standalone="no"?>
<!DOCTYPE svg PUBLIC "-//W3C//DTD SVG 1.1//EN"
 "http://www.w3.org/Graphics/SVG/1.1/DTD/svg11.dtd">
<!-- Generated by graphviz version 2.38.0 (20140413.2041)
 -->
<!-- Title: main.h Pages: 1 -->
<!--zoomable 252 -->
<svg id="main" version="1.1" xmlns="http://www.w3.org/2000/svg" xmlns:xlink="http://www.w3.org/1999/xlink" xml:space="preserve" onload="init(evt)">
<style type="text/css"><![CDATA[
.edge:hover path { stroke: red; }
.edge:hover polygon { stroke: red; fill: red; }
]]></style>
<script type="text/javascript"><![CDATA[
var edges = document.getElementsByTagName('g');
if (edges && edges.length) {
  for (var i=0;i<edges.length;i++) {
    if (edges[i].id.substr(0,4)=='edge') {
      edges[i].setAttribute('class','edge');
    }
  }
}
]]></script>
        <defs>
                <circle id="rim" cx="0" cy="0" r="7"/>
                <circle id="rim2" cx="0" cy="0" r="3.5"/>
                <g id="zoomPlus">
                        <use xlink:href="#rim" fill="#404040">
                                <set attributeName="fill" to="#808080" begin="zoomplus.mouseover" end="zoomplus.mouseout"/>
                        </use>
                        <path d="M-4,0h8M0,-4v8" fill="none" stroke="white" stroke-width="1.5" pointer-events="none"/>
                </g>
                <g id="zoomMin">
                        <use xlink:href="#rim" fill="#404040">
                                <set attributeName="fill" to="#808080" begin="zoomminus.mouseover" end="zoomminus.mouseout"/>
                        </use>
                        <path d="M-4,0h8" fill="none" stroke="white" stroke-width="1.5" pointer-events="none"/>
                </g>
                <g id="dirArrow">
                        <path fill="none" stroke="white" stroke-width="1.5" d="M0,-3.0v7 M-2.5,-0.5L0,-3.0L2.5,-0.5"/>
                </g>
               <g id="resetDef">
                       <use xlink:href="#rim2" fill="#404040">
                               <set attributeName="fill" to="#808080" begin="reset.mouseover" end="reset.mouseout"/>
                       </use>
               </g>
        </defs>

<script type="text/javascript">
var viewWidth = 1030;
var viewHeight = 252;
var sectionId = 'dynsection-0';
</script>
<script xlink:href="svgpan.js"/>
<svg id="graph" class="graph">
<g id="viewport">
<title>main.h</title>
<!-- Node1 -->
<g id="node1" class="node"><title>Node1</title>
<polygon fill="#bfbfbf" stroke="black" points="555,-224.5 555,-243.5 601,-243.5 601,-224.5 555,-224.5"/>
<text text-anchor="middle" x="578" y="-231.5" font-family="Helvetica,sans-Serif" font-size="10.00">main.h</text>
</g>
<!-- Node2 -->
<g id="node2" class="node"><title>Node2</title>
<g id="a_node2"><a xlink:href="_sensor_8h.html" target="_top" xlink:title="This class is the base class of sensor. ">
<polygon fill="none" stroke="black" points="233,-168.5 233,-187.5 289,-187.5 289,-168.5 233,-168.5"/>
<text text-anchor="middle" x="261" y="-175.5" font-family="Helvetica,sans-Serif" font-size="10.00">Sensor.h</text>
</a>
</g>
</g>
<!-- Node1&#45;&gt;Node2 -->
<g id="edge1" class="edge"><title>Node1&#45;&gt;Node2</title>
<path fill="none" stroke="midnightblue" d="M544.842,-227.352C482.301,-216.698 347.948,-193.811 289.327,-183.825"/>
<polygon fill="midnightblue" stroke="midnightblue" points="544.501,-230.844 554.947,-229.073 545.677,-223.943 544.501,-230.844"/>
</g>
<!-- Node6 -->
<g id="node6" class="node"><title>Node6</title>
<g id="a_node6"><a xlink:href="_f_s_m_8cpp.html" target="_top" xlink:title="Brief description of file. ">
<polygon fill="none" stroke="black" points="0,-0.5 0,-19.5 56,-19.5 56,-0.5 0,-0.5"/>
<text text-anchor="middle" x="28" y="-7.5" font-family="Helvetica,sans-Serif" font-size="10.00">FSM.cpp</text>
</a>
</g>
</g>
<!-- Node1&#45;&gt;Node6 -->
<g id="edge28" class="edge"><title>Node1&#45;&gt;Node6</title>
<path fill="none" stroke="midnightblue" d="M544.681,-231.96C463.212,-228.965 256.138,-218.488 195,-188 113.336,-147.276 50.5903,-49.2648 32.9761,-19.6307"/>
<polygon fill="midnightblue" stroke="midnightblue" points="544.753,-235.465 554.87,-232.32 545,-228.469 544.753,-235.465"/>
</g>
<!-- Node7 -->
<g id="node7" class="node"><title>Node7</title>
<g id="a_node7"><a xlink:href="main_8cpp.html" target="_top" xlink:title="This is the main file, is the firmware&#39;s body. ">
<polygon fill="none" stroke="black" points="74,-0.5 74,-19.5 130,-19.5 130,-0.5 74,-0.5"/>
<text text-anchor="middle" x="102" y="-7.5" font-family="Helvetica,sans-Serif" font-size="10.00">main.cpp</text>
</a>
</g>
</g>
<!-- Node1&#45;&gt;Node7 -->
<g id="edge29" class="edge"><title>Node1&#45;&gt;Node7</title>
<path fill="none" stroke="midnightblue" d="M544.525,-232.181C466.953,-229.745 277.446,-220.539 224,-188 155.143,-146.079 115.629,-48.8908 104.962,-19.5431"/>
<polygon fill="midnightblue" stroke="midnightblue" points="544.603,-235.685 554.702,-232.482 544.81,-228.688 544.603,-235.685"/>
</g>
<!-- Node11 -->
<g id="node11" class="node"><title>Node11</title>
<g id="a_node11"><a xlink:href="st___config_8cpp.html" target="_top" xlink:title="st_Config.cpp">
<polygon fill="none" stroke="black" points="601.5,-0.5 601.5,-19.5 678.5,-19.5 678.5,-0.5 601.5,-0.5"/>
<text text-anchor="middle" x="640" y="-7.5" font-family="Helvetica,sans-Serif" font-size="10.00">st_Config.cpp</text>
</a>
</g>
</g>
<!-- Node1&#45;&gt;Node11 -->
<g id="edge30" class="edge"><title>Node1&#45;&gt;Node11</title>
<path fill="none" stroke="midnightblue" d="M586.842,-215.279C596.382,-195.455 611.362,-162.16 620,-132 631.784,-90.8574 637.393,-39.7286 639.259,-19.6583"/>
<polygon fill="midnightblue" stroke="midnightblue" points="583.665,-213.809 582.412,-224.329 589.952,-216.886 583.665,-213.809"/>
</g>
<!-- Node12 -->
<g id="node12" class="node"><title>Node12</title>
<g id="a_node12"><a xlink:href="st___measure_8cpp.html" target="_top" xlink:title="st_Measure.cpp">
<polygon fill="none" stroke="black" points="342,-0.5 342,-19.5 428,-19.5 428,-0.5 342,-0.5"/>
<text text-anchor="middle" x="385" y="-7.5" font-family="Helvetica,sans-Serif" font-size="10.00">st_Measure.cpp</text>
</a>
</g>
</g>
<!-- Node1&#45;&gt;Node12 -->
<g id="edge31" class="edge"><title>Node1&#45;&gt;Node12</title>
<path fill="none" stroke="midnightblue" d="M558.414,-218.31C534.485,-199.794 493.545,-166.228 464,-132 430.886,-93.6375 400.843,-40.4789 389.642,-19.7595"/>
<polygon fill="midnightblue" stroke="midnightblue" points="556.338,-221.129 566.408,-224.425 560.591,-215.569 556.338,-221.129"/>
</g>
<!-- Node13 -->
<g id="node13" class="node"><title>Node13</title>
<g id="a_node13"><a xlink:href="st___output_8cpp.html" target="_top" xlink:title="st_Output.cpp">
<polygon fill="none" stroke="black" points="697,-0.5 697,-19.5 775,-19.5 775,-0.5 697,-0.5"/>
<text text-anchor="middle" x="736" y="-7.5" font-family="Helvetica,sans-Serif" font-size="10.00">st_Output.cpp</text>
</a>
</g>
</g>
<!-- Node1&#45;&gt;Node13 -->
<g id="edge32" class="edge"><title>Node1&#45;&gt;Node13</title>
<path fill="none" stroke="midnightblue" d="M593.384,-216.801C601.068,-208.438 610.336,-197.93 618,-188 665.613,-126.311 714.901,-46.07 730.757,-19.7663"/>
<polygon fill="midnightblue" stroke="midnightblue" points="590.606,-214.647 586.345,-224.347 595.725,-219.421 590.606,-214.647"/>
</g>
<!-- Node14 -->
<g id="node14" class="node"><title>Node14</title>
<g id="a_node14"><a xlink:href="st___sleep_8cpp.html" target="_top" xlink:title="st_Sleep.cpp">
<polygon fill="none" stroke="black" points="793,-0.5 793,-19.5 867,-19.5 867,-0.5 793,-0.5"/>
<text text-anchor="middle" x="830" y="-7.5" font-family="Helvetica,sans-Serif" font-size="10.00">st_Sleep.cpp</text>
</a>
</g>
</g>
<!-- Node1&#45;&gt;Node14 -->
<g id="edge33" class="edge"><title>Node1&#45;&gt;Node14</title>
<path fill="none" stroke="midnightblue" d="M598.909,-218.456C610.893,-209.904 626.075,-198.7 639,-188 712.48,-127.171 794.586,-46.3724 821.181,-19.846"/>
<polygon fill="midnightblue" stroke="midnightblue" points="596.606,-215.798 590.458,-224.426 600.645,-221.515 596.606,-215.798"/>
</g>
<!-- Node15 -->
<g id="node15" class="node"><title>Node15</title>
<g id="a_node15"><a xlink:href="_state_8cpp.html" target="_top" xlink:title="Brief description of file. ">
<polygon fill="none" stroke="black" points="885.5,-0.5 885.5,-19.5 944.5,-19.5 944.5,-0.5 885.5,-0.5"/>
<text text-anchor="middle" x="915" y="-7.5" font-family="Helvetica,sans-Serif" font-size="10.00">State.cpp</text>
</a>
</g>
</g>
<!-- Node1&#45;&gt;Node15 -->
<g id="edge34" class="edge"><title>Node1&#45;&gt;Node15</title>
<path fill="none" stroke="midnightblue" d="M605.592,-219.728C622.718,-211.207 645.004,-199.598 664,-188 760.481,-129.094 869.299,-46.3662 903.855,-19.6685"/>
<polygon fill="midnightblue" stroke="midnightblue" points="603.596,-216.809 596.169,-224.365 606.687,-223.09 603.596,-216.809"/>
</g>
<!-- Node16 -->
<g id="node16" class="node"><title>Node16</title>
<g id="a_node16"><a xlink:href="_usart_8cpp.html" target="_top" xlink:title="This is the uart library for the atmega1284p. ">
<polygon fill="none" stroke="black" points="962.5,-0.5 962.5,-19.5 1021.5,-19.5 1021.5,-0.5 962.5,-0.5"/>
<text text-anchor="middle" x="992" y="-7.5" font-family="Helvetica,sans-Serif" font-size="10.00">Usart.cpp</text>
</a>
</g>
</g>
<!-- Node1&#45;&gt;Node16 -->
<g id="edge35" class="edge"><title>Node1&#45;&gt;Node16</title>
<path fill="none" stroke="midnightblue" d="M610.678,-221.964C634.264,-213.606 666.639,-201.319 694,-188 809.242,-131.903 939.012,-46.622 979.356,-19.5557"/>
<polygon fill="midnightblue" stroke="midnightblue" points="609.433,-218.692 601.149,-225.297 611.744,-225.299 609.433,-218.692"/>
</g>
<!-- Node19 -->
<g id="node19" class="node"><title>Node19</title>
<g id="a_node19"><a xlink:href="_power_8h.html" target="_top" xlink:title="Power.h">
<polygon fill="none" stroke="black" points="473.5,-112.5 473.5,-131.5 526.5,-131.5 526.5,-112.5 473.5,-112.5"/>
<text text-anchor="middle" x="500" y="-119.5" font-family="Helvetica,sans-Serif" font-size="10.00">Power.h</text>
</a>
</g>
</g>
<!-- Node1&#45;&gt;Node19 -->
<g id="edge22" class="edge"><title>Node1&#45;&gt;Node19</title>
<path fill="none" stroke="midnightblue" d="M565.915,-215.957C549.011,-192.118 518.939,-149.709 506.092,-131.591"/>
<polygon fill="midnightblue" stroke="midnightblue" points="563.24,-218.236 571.879,-224.368 568.95,-214.187 563.24,-218.236"/>
</g>
<!-- Node20 -->
<g id="node20" class="node"><title>Node20</title>
<g id="a_node20"><a xlink:href="st___config_8h.html" target="_top" xlink:title="st_Config.h">
<polygon fill="none" stroke="black" points="544.5,-112.5 544.5,-131.5 611.5,-131.5 611.5,-112.5 544.5,-112.5"/>
<text text-anchor="middle" x="578" y="-119.5" font-family="Helvetica,sans-Serif" font-size="10.00">st_Config.h</text>
</a>
</g>
</g>
<!-- Node1&#45;&gt;Node20 -->
<g id="edge25" class="edge"><title>Node1&#45;&gt;Node20</title>
<path fill="none" stroke="midnightblue" d="M578,-214.348C578,-190.254 578,-149.308 578,-131.591"/>
<polygon fill="midnightblue" stroke="midnightblue" points="574.5,-214.368 578,-224.368 581.5,-214.369 574.5,-214.368"/>
</g>
<!-- Node3 -->
<g id="node3" class="node"><title>Node3</title>
<g id="a_node3"><a xlink:href="_anemometer_8h.html" target="_top" xlink:title="Brief description of file. ">
<polygon fill="none" stroke="black" points="313,-112.5 313,-131.5 393,-131.5 393,-112.5 313,-112.5"/>
<text text-anchor="middle" x="353" y="-119.5" font-family="Helvetica,sans-Serif" font-size="10.00">Anemometer.h</text>
</a>
</g>
</g>
<!-- Node2&#45;&gt;Node3 -->
<g id="edge2" class="edge"><title>Node2&#45;&gt;Node3</title>
<path fill="none" stroke="midnightblue" d="M284.55,-163.177C301.479,-153.241 323.783,-140.149 338.255,-131.655"/>
<polygon fill="midnightblue" stroke="midnightblue" points="282.634,-160.243 275.781,-168.324 286.177,-166.28 282.634,-160.243"/>
</g>
<!-- Node2&#45;&gt;Node6 -->
<g id="edge20" class="edge"><title>Node2&#45;&gt;Node6</title>
<path fill="none" stroke="midnightblue" d="M240.558,-162.436C193.316,-128.779 77.7378,-46.4355 40.0783,-19.6051"/>
<polygon fill="midnightblue" stroke="midnightblue" points="238.626,-165.357 248.801,-168.309 242.687,-159.656 238.626,-165.357"/>
</g>
<!-- Node10 -->
<g id="node10" class="node"><title>Node10</title>
<g id="a_node10"><a xlink:href="_sensor_8cpp.html" target="_top" xlink:title="Brief description of file. ">
<polygon fill="none" stroke="black" points="148,-0.5 148,-19.5 214,-19.5 214,-0.5 148,-0.5"/>
<text text-anchor="middle" x="181" y="-7.5" font-family="Helvetica,sans-Serif" font-size="10.00">Sensor.cpp</text>
</a>
</g>
</g>
<!-- Node2&#45;&gt;Node10 -->
<g id="edge21" class="edge"><title>Node2&#45;&gt;Node10</title>
<path fill="none" stroke="midnightblue" d="M242.65,-161.506C234.118,-153.462 224.455,-143.024 218,-132 195.579,-93.7078 185.504,-40.5085 182.251,-19.7688"/>
<polygon fill="midnightblue" stroke="midnightblue" points="240.566,-164.339 250.341,-168.424 245.247,-159.134 240.566,-164.339"/>
</g>
<!-- Node17 -->
<g id="node17" class="node"><title>Node17</title>
<g id="a_node17"><a xlink:href="_windvane_8h.html" target="_top" xlink:title="Brief description of file. ">
<polygon fill="none" stroke="black" points="227,-112.5 227,-131.5 295,-131.5 295,-112.5 227,-112.5"/>
<text text-anchor="middle" x="261" y="-119.5" font-family="Helvetica,sans-Serif" font-size="10.00">Windvane.h</text>
</a>
</g>
</g>
<!-- Node2&#45;&gt;Node17 -->
<g id="edge17" class="edge"><title>Node2&#45;&gt;Node17</title>
<path fill="none" stroke="midnightblue" d="M261,-157.805C261,-148.91 261,-138.78 261,-131.751"/>
<polygon fill="midnightblue" stroke="midnightblue" points="257.5,-158.083 261,-168.083 264.5,-158.083 257.5,-158.083"/>
</g>
<!-- Node4 -->
<g id="node4" class="node"><title>Node4</title>
<g id="a_node4"><a xlink:href="_f_s_m_8h.html" target="_top" xlink:title="The FSM is the finish state machine mechanism. ">
<polygon fill="none" stroke="black" points="458,-56.5 458,-75.5 504,-75.5 504,-56.5 458,-56.5"/>
<text text-anchor="middle" x="481" y="-63.5" font-family="Helvetica,sans-Serif" font-size="10.00">FSM.h</text>
</a>
</g>
</g>
<!-- Node3&#45;&gt;Node4 -->
<g id="edge3" class="edge"><title>Node3&#45;&gt;Node4</title>
<path fill="none" stroke="midnightblue" d="M382.623,-108.503C406.619,-98.3795 439.784,-84.388 460.813,-75.5164"/>
<polygon fill="midnightblue" stroke="midnightblue" points="381.135,-105.332 373.282,-112.444 383.856,-111.781 381.135,-105.332"/>
</g>
<!-- Node5 -->
<g id="node5" class="node"><title>Node5</title>
<g id="a_node5"><a xlink:href="_anemometer_8cpp.html" target="_top" xlink:title="Brief description of file. ">
<polygon fill="none" stroke="black" points="232.5,-0.5 232.5,-19.5 323.5,-19.5 323.5,-0.5 232.5,-0.5"/>
<text text-anchor="middle" x="278" y="-7.5" font-family="Helvetica,sans-Serif" font-size="10.00">Anemometer.cpp</text>
</a>
</g>
</g>
<!-- Node3&#45;&gt;Node5 -->
<g id="edge16" class="edge"><title>Node3&#45;&gt;Node5</title>
<path fill="none" stroke="midnightblue" d="M341.316,-103.657C332.472,-90.5487 320.007,-72.1188 309,-56 300.333,-43.3083 290.221,-28.6592 283.964,-19.6125"/>
<polygon fill="midnightblue" stroke="midnightblue" points="338.552,-105.818 347.045,-112.153 344.356,-101.905 338.552,-105.818"/>
</g>
<!-- Node4&#45;&gt;Node5 -->
<g id="edge4" class="edge"><title>Node4&#45;&gt;Node5</title>
<path fill="none" stroke="midnightblue" d="M447.631,-56.1234C409.501,-45.9805 347.54,-29.4984 309.994,-19.5108"/>
<polygon fill="midnightblue" stroke="midnightblue" points="447.15,-59.6171 457.713,-58.8055 448.949,-52.8524 447.15,-59.6171"/>
</g>
<!-- Node4&#45;&gt;Node6 -->
<g id="edge5" class="edge"><title>Node4&#45;&gt;Node6</title>
<path fill="none" stroke="midnightblue" d="M447.756,-62.8877C376.96,-58.0646 206.231,-44.706 65,-20 62.1347,-19.4988 59.1613,-18.904 56.2017,-18.2626"/>
<polygon fill="midnightblue" stroke="midnightblue" points="447.64,-66.3877 457.852,-63.5634 448.108,-59.4033 447.64,-66.3877"/>
</g>
<!-- Node4&#45;&gt;Node7 -->
<g id="edge6" class="edge"><title>Node4&#45;&gt;Node7</title>
<path fill="none" stroke="midnightblue" d="M447.371,-61.7907C385.85,-55.65 251.178,-40.9603 139,-20 136.141,-19.4657 133.171,-18.8493 130.214,-18.1946"/>
<polygon fill="midnightblue" stroke="midnightblue" points="447.346,-65.305 457.641,-62.8038 448.033,-58.3389 447.346,-65.305"/>
</g>
<!-- Node8 -->
<g id="node8" class="node"><title>Node8</title>
<g id="a_node8"><a xlink:href="_power_8cpp.html" target="_top" xlink:title="Power.cpp">
<polygon fill="none" stroke="black" points="520.5,-0.5 520.5,-19.5 583.5,-19.5 583.5,-0.5 520.5,-0.5"/>
<text text-anchor="middle" x="552" y="-7.5" font-family="Helvetica,sans-Serif" font-size="10.00">Power.cpp</text>
</a>
</g>
</g>
<!-- Node4&#45;&gt;Node8 -->
<g id="edge7" class="edge"><title>Node4&#45;&gt;Node8</title>
<path fill="none" stroke="midnightblue" d="M500.59,-50.1008C513.368,-40.3824 529.613,-28.0269 540.385,-19.8339"/>
<polygon fill="midnightblue" stroke="midnightblue" points="498.248,-47.4844 492.407,-56.324 502.486,-53.0561 498.248,-47.4844"/>
</g>
<!-- Node9 -->
<g id="node9" class="node"><title>Node9</title>
<g id="a_node9"><a xlink:href="_r_t_c_8cpp.html" target="_top" xlink:title="Brief description of file. ">
<polygon fill="none" stroke="black" points="446,-0.5 446,-19.5 502,-19.5 502,-0.5 446,-0.5"/>
<text text-anchor="middle" x="474" y="-7.5" font-family="Helvetica,sans-Serif" font-size="10.00">RTC.cpp</text>
</a>
</g>
</g>
<!-- Node4&#45;&gt;Node9 -->
<g id="edge8" class="edge"><title>Node4&#45;&gt;Node9</title>
<path fill="none" stroke="midnightblue" d="M478.55,-46.1005C477.388,-37.1357 476.056,-26.8579 475.134,-19.7511"/>
<polygon fill="midnightblue" stroke="midnightblue" points="475.088,-46.6159 479.844,-56.083 482.029,-45.716 475.088,-46.6159"/>
</g>
<!-- Node4&#45;&gt;Node10 -->
<g id="edge9" class="edge"><title>Node4&#45;&gt;Node10</title>
<path fill="none" stroke="midnightblue" d="M447.751,-59.6201C398.541,-51.5629 303.462,-35.6319 223,-20 220.218,-19.4596 217.337,-18.8813 214.447,-18.2883"/>
<polygon fill="midnightblue" stroke="midnightblue" points="447.385,-63.1067 457.818,-61.2633 448.513,-56.1981 447.385,-63.1067"/>
</g>
<!-- Node4&#45;&gt;Node11 -->
<g id="edge10" class="edge"><title>Node4&#45;&gt;Node11</title>
<path fill="none" stroke="midnightblue" d="M513.71,-53.891C543.672,-43.7152 587.4,-28.8642 614.75,-19.5756"/>
<polygon fill="midnightblue" stroke="midnightblue" points="512.463,-50.618 504.12,-57.1479 514.714,-57.2461 512.463,-50.618"/>
</g>
<!-- Node4&#45;&gt;Node12 -->
<g id="edge11" class="edge"><title>Node4&#45;&gt;Node12</title>
<path fill="none" stroke="midnightblue" d="M456.426,-51.1774C438.761,-41.2407 415.487,-28.1492 400.386,-19.6545"/>
<polygon fill="midnightblue" stroke="midnightblue" points="455.144,-54.4718 465.576,-56.324 458.576,-48.3708 455.144,-54.4718"/>
</g>
<!-- Node4&#45;&gt;Node13 -->
<g id="edge12" class="edge"><title>Node4&#45;&gt;Node13</title>
<path fill="none" stroke="midnightblue" d="M514.016,-58.0083C560.891,-48.082 646.589,-29.9342 696.685,-19.3256"/>
<polygon fill="midnightblue" stroke="midnightblue" points="513.137,-54.6168 504.079,-60.1126 514.587,-61.4649 513.137,-54.6168"/>
</g>
<!-- Node4&#45;&gt;Node14 -->
<g id="edge13" class="edge"><title>Node4&#45;&gt;Node14</title>
<path fill="none" stroke="midnightblue" d="M514.275,-60.5658C570.136,-53.0081 686.262,-36.81 784,-20 786.887,-19.5034 789.872,-18.9686 792.87,-18.416"/>
<polygon fill="midnightblue" stroke="midnightblue" points="513.689,-57.113 504.246,-61.9173 514.624,-64.0503 513.689,-57.113"/>
</g>
<!-- Node4&#45;&gt;Node15 -->
<g id="edge14" class="edge"><title>Node4&#45;&gt;Node15</title>
<path fill="none" stroke="midnightblue" d="M514.433,-62.4789C582.717,-57.0468 742.987,-42.8486 876,-20 879.013,-19.4824 882.143,-18.8768 885.26,-18.2288"/>
<polygon fill="midnightblue" stroke="midnightblue" points="513.977,-59.0038 504.282,-63.2754 514.525,-65.9823 513.977,-59.0038"/>
</g>
<!-- Node4&#45;&gt;Node16 -->
<g id="edge15" class="edge"><title>Node4&#45;&gt;Node16</title>
<path fill="none" stroke="midnightblue" d="M514.414,-63.4056C592.032,-59.3574 790.378,-47.0275 954,-20 956.676,-19.558 959.443,-19.0345 962.208,-18.4656"/>
<polygon fill="midnightblue" stroke="midnightblue" points="514.087,-59.9176 504.279,-63.9225 514.444,-66.9085 514.087,-59.9176"/>
</g>
<!-- Node17&#45;&gt;Node4 -->
<g id="edge18" class="edge"><title>Node17&#45;&gt;Node4</title>
<path fill="none" stroke="midnightblue" d="M305.111,-110.173C351.242,-98.8497 421.855,-81.5174 457.975,-72.6515"/>
<polygon fill="midnightblue" stroke="midnightblue" points="304.252,-106.78 295.375,-112.562 305.921,-113.578 304.252,-106.78"/>
</g>
<!-- Node18 -->
<g id="node18" class="node"><title>Node18</title>
<g id="a_node18"><a xlink:href="_windvane_8cpp.html" target="_top" xlink:title="Brief description of file. ">
<polygon fill="none" stroke="black" points="221.5,-56.5 221.5,-75.5 300.5,-75.5 300.5,-56.5 221.5,-56.5"/>
<text text-anchor="middle" x="261" y="-63.5" font-family="Helvetica,sans-Serif" font-size="10.00">Windvane.cpp</text>
</a>
</g>
</g>
<!-- Node17&#45;&gt;Node18 -->
<g id="edge19" class="edge"><title>Node17&#45;&gt;Node18</title>
<path fill="none" stroke="midnightblue" d="M261,-101.805C261,-92.9102 261,-82.7798 261,-75.7511"/>
<polygon fill="midnightblue" stroke="midnightblue" points="257.5,-102.083 261,-112.083 264.5,-102.083 257.5,-102.083"/>
</g>
<!-- Node19&#45;&gt;Node4 -->
<g id="edge23" class="edge"><title>Node19&#45;&gt;Node4</title>
<path fill="none" stroke="midnightblue" d="M493.454,-102.396C490.276,-93.362 486.607,-82.936 484.079,-75.7511"/>
<polygon fill="midnightblue" stroke="midnightblue" points="490.242,-103.812 496.863,-112.083 496.845,-101.488 490.242,-103.812"/>
</g>
<!-- Node19&#45;&gt;Node8 -->
<g id="edge24" class="edge"><title>Node19&#45;&gt;Node8</title>
<path fill="none" stroke="midnightblue" d="M508.358,-103.32C519.68,-79.3697 539.45,-37.5484 547.939,-19.5914"/>
<polygon fill="midnightblue" stroke="midnightblue" points="505.19,-101.832 504.08,-112.368 511.518,-104.824 505.19,-101.832"/>
</g>
<!-- Node20&#45;&gt;Node4 -->
<g id="edge26" class="edge"><title>Node20&#45;&gt;Node4</title>
<path fill="none" stroke="midnightblue" d="M553.665,-107.453C535.757,-97.4835 511.946,-84.2279 496.546,-75.6545"/>
<polygon fill="midnightblue" stroke="midnightblue" points="551.975,-110.518 562.415,-112.324 555.38,-104.402 551.975,-110.518"/>
</g>
<!-- Node20&#45;&gt;Node11 -->
<g id="edge27" class="edge"><title>Node20&#45;&gt;Node11</title>
<path fill="none" stroke="midnightblue" d="M587.785,-103.64C601.254,-79.7436 624.991,-37.6286 635.158,-19.5914"/>
<polygon fill="midnightblue" stroke="midnightblue" points="584.726,-101.938 582.865,-112.368 590.824,-105.376 584.726,-101.938"/>
</g>
</g>
</svg>
        <g id="navigator" transform="translate(0 0)" fill="#404254">
                <rect fill="#f2f5e9" fill-opacity="0.5" stroke="#606060" stroke-width=".5" x="0" y="0" width="60" height="60"/>
                <use id="zoomplus" xlink:href="#zoomPlus" x="17" y="9" onmousedown="handleZoom(evt,'in')"/>
                <use id="zoomminus" xlink:href="#zoomMin" x="42" y="9" onmousedown="handleZoom(evt,'out')"/>
                <use id="reset" xlink:href="#resetDef" x="30" y="36" onmousedown="handleReset()"/>
                <g id="arrowUp" xlink:href="#dirArrow" transform="translate(30 24)" onmousedown="handlePan(0,-1)">
                  <use xlink:href="#rim" fill="#404040">
                        <set attributeName="fill" to="#808080" begin="arrowUp.mouseover" end="arrowUp.mouseout"/>
                  </use>
                  <path fill="none" stroke="white" stroke-width="1.5" d="M0,-3.0v7 M-2.5,-0.5L0,-3.0L2.5,-0.5"/>
                </g>
                <g id="arrowRight" xlink:href="#dirArrow" transform="rotate(90) translate(36 -43)" onmousedown="handlePan(1,0)">
                  <use xlink:href="#rim" fill="#404040">
                        <set attributeName="fill" to="#808080" begin="arrowRight.mouseover" end="arrowRight.mouseout"/>
                  </use>
                  <path fill="none" stroke="white" stroke-width="1.5" d="M0,-3.0v7 M-2.5,-0.5L0,-3.0L2.5,-0.5"/>
                </g>
                <g id="arrowDown" xlink:href="#dirArrow" transform="rotate(180) translate(-30 -48)" onmousedown="handlePan(0,1)">
                  <use xlink:href="#rim" fill="#404040">
                        <set attributeName="fill" to="#808080" begin="arrowDown.mouseover" end="arrowDown.mouseout"/>
                  </use>
                  <path fill="none" stroke="white" stroke-width="1.5" d="M0,-3.0v7 M-2.5,-0.5L0,-3.0L2.5,-0.5"/>
                </g>
                <g id="arrowLeft" xlink:href="#dirArrow" transform="rotate(270) translate(-36 17)" onmousedown="handlePan(-1,0)">
                  <use xlink:href="#rim" fill="#404040">
                        <set attributeName="fill" to="#808080" begin="arrowLeft.mouseover" end="arrowLeft.mouseout"/>
                  </use>
                  <path fill="none" stroke="white" stroke-width="1.5" d="M0,-3.0v7 M-2.5,-0.5L0,-3.0L2.5,-0.5"/>
                </g>
        </g>
        <svg viewBox="0 0 15 15" width="100%" height="30px" preserveAspectRatio="xMaxYMin meet">
         <g id="arrow_out" transform="scale(0.3 0.3)">
          <a xlink:href="main_8h__dep__incl_org.svg" target="_base">
           <rect id="button" ry="5" rx="5" y="6" x="6" height="38" width="38"
                fill="#f2f5e9" fill-opacity="0.5" stroke="#606060" stroke-width="1.0"/>
           <path id="arrow"
             d="M 11.500037,31.436501 C 11.940474,20.09759 22.043105,11.32322 32.158766,21.979434 L 37.068811,17.246167 C 37.068811,17.246167 37.088388,32 37.088388,32 L 22.160133,31.978069 C 22.160133,31.978069 26.997745,27.140456 26.997745,27.140456 C 18.528582,18.264221 13.291696,25.230495 11.500037,31.436501 z"
             style="fill:#404040;"/>
          </a>
         </g>
        </svg>
</svg>
