<?xml version="1.0" encoding="UTF-8" standalone="no"?>
<!DOCTYPE svg PUBLIC "-//W3C//DTD SVG 1.1//EN"
 "http://www.w3.org/Graphics/SVG/1.1/DTD/svg11.dtd">
<!-- Generated by graphviz version 2.38.0 (20140413.2041)
 -->
<!-- Title: main.h Pages: 1 -->
<svg width="1126pt" height="252pt"
 viewBox="0.00 0.00 1125.50 252.00" xmlns="http://www.w3.org/2000/svg" xmlns:xlink="http://www.w3.org/1999/xlink">
<g id="graph0" class="graph" transform="scale(1 1) rotate(0) translate(4 248)">
<title>main.h</title>
<!-- Node1 -->
<g id="node1" class="node"><title>Node1</title>
<polygon fill="#bfbfbf" stroke="black" points="648,-224.5 648,-243.5 694,-243.5 694,-224.5 648,-224.5"/>
<text text-anchor="middle" x="671" y="-231.5" font-family="Helvetica,sans-Serif" font-size="10.00">main.h</text>
</g>
<!-- Node2 -->
<g id="node2" class="node"><title>Node2</title>
<g id="a_node2"><a xlink:href="_sensor_8h.html" target="_top" xlink:title="This class is the base class of sensor. ">
<polygon fill="none" stroke="black" points="362,-168.5 362,-187.5 418,-187.5 418,-168.5 362,-168.5"/>
<text text-anchor="middle" x="390" y="-175.5" font-family="Helvetica,sans-Serif" font-size="10.00">Sensor.h</text>
</a>
</g>
</g>
<!-- Node1&#45;&gt;Node2 -->
<g id="edge1" class="edge"><title>Node1&#45;&gt;Node2</title>
<path fill="none" stroke="midnightblue" d="M637.431,-226.549C581.495,-215.8 470.232,-194.418 418.135,-184.407"/>
<polygon fill="midnightblue" stroke="midnightblue" points="637.045,-230.039 647.525,-228.489 638.366,-223.165 637.045,-230.039"/>
</g>
<!-- Node6 -->
<g id="node6" class="node"><title>Node6</title>
<g id="a_node6"><a xlink:href="_f_s_m_8cpp.html" target="_top" xlink:title="Brief description of file. ">
<polygon fill="none" stroke="black" points="0,-0.5 0,-19.5 56,-19.5 56,-0.5 0,-0.5"/>
<text text-anchor="middle" x="28" y="-7.5" font-family="Helvetica,sans-Serif" font-size="10.00">FSM.cpp</text>
</a>
</g>
</g>
<!-- Node1&#45;&gt;Node6 -->
<g id="edge30" class="edge"><title>Node1&#45;&gt;Node6</title>
<path fill="none" stroke="midnightblue" d="M637.819,-232.971C552.737,-231.578 321.906,-219.399 157,-132 118.652,-111.676 108.225,-106.144 77,-76 58.4955,-58.1362 41.5359,-32.8194 33.2773,-19.6758"/>
<polygon fill="midnightblue" stroke="midnightblue" points="637.878,-236.472 647.92,-233.096 637.964,-229.472 637.878,-236.472"/>
</g>
<!-- Node7 -->
<g id="node7" class="node"><title>Node7</title>
<g id="a_node7"><a xlink:href="main_8cpp.html" target="_top" xlink:title="This is the main file, is the firmware&#39;s body. ">
<polygon fill="none" stroke="black" points="445,-0.5 445,-19.5 501,-19.5 501,-0.5 445,-0.5"/>
<text text-anchor="middle" x="473" y="-7.5" font-family="Helvetica,sans-Serif" font-size="10.00">main.cpp</text>
</a>
</g>
</g>
<!-- Node1&#45;&gt;Node7 -->
<g id="edge31" class="edge"><title>Node1&#45;&gt;Node7</title>
<path fill="none" stroke="midnightblue" d="M638.061,-226.077C593.629,-214.817 515.929,-187.92 480,-132 456.91,-96.0628 466.038,-41.035 470.807,-19.7904"/>
<polygon fill="midnightblue" stroke="midnightblue" points="637.26,-229.485 647.803,-228.43 638.904,-222.68 637.26,-229.485"/>
</g>
<!-- Node11 -->
<g id="node11" class="node"><title>Node11</title>
<g id="a_node11"><a xlink:href="st___config_8cpp.html" target="_top" xlink:title="st_Config.cpp">
<polygon fill="none" stroke="black" points="697.5,-0.5 697.5,-19.5 774.5,-19.5 774.5,-0.5 697.5,-0.5"/>
<text text-anchor="middle" x="736" y="-7.5" font-family="Helvetica,sans-Serif" font-size="10.00">st_Config.cpp</text>
</a>
</g>
</g>
<!-- Node1&#45;&gt;Node11 -->
<g id="edge32" class="edge"><title>Node1&#45;&gt;Node11</title>
<path fill="none" stroke="midnightblue" d="M676.392,-214.585C689.699,-169.135 723.725,-52.9236 733.399,-19.8837"/>
<polygon fill="midnightblue" stroke="midnightblue" points="672.999,-213.717 673.548,-224.297 679.717,-215.684 672.999,-213.717"/>
</g>
<!-- Node12 -->
<g id="node12" class="node"><title>Node12</title>
<g id="a_node12"><a xlink:href="st___measure_8cpp.html" target="_top" xlink:title="st_Measure.cpp">
<polygon fill="none" stroke="black" points="593,-0.5 593,-19.5 679,-19.5 679,-0.5 593,-0.5"/>
<text text-anchor="middle" x="636" y="-7.5" font-family="Helvetica,sans-Serif" font-size="10.00">st_Measure.cpp</text>
</a>
</g>
</g>
<!-- Node1&#45;&gt;Node12 -->
<g id="edge33" class="edge"><title>Node1&#45;&gt;Node12</title>
<path fill="none" stroke="midnightblue" d="M670.165,-214.146C668.436,-181.561 663.52,-112.75 651,-56 648.161,-43.1332 643.012,-28.7718 639.549,-19.8101"/>
<polygon fill="midnightblue" stroke="midnightblue" points="666.683,-214.604 670.666,-224.422 673.675,-214.263 666.683,-214.604"/>
</g>
<!-- Node13 -->
<g id="node13" class="node"><title>Node13</title>
<g id="a_node13"><a xlink:href="st___output_8cpp.html" target="_top" xlink:title="st_Output.cpp">
<polygon fill="none" stroke="black" points="793,-0.5 793,-19.5 871,-19.5 871,-0.5 793,-0.5"/>
<text text-anchor="middle" x="832" y="-7.5" font-family="Helvetica,sans-Serif" font-size="10.00">st_Output.cpp</text>
</a>
</g>
</g>
<!-- Node1&#45;&gt;Node13 -->
<g id="edge34" class="edge"><title>Node1&#45;&gt;Node13</title>
<path fill="none" stroke="midnightblue" d="M683.327,-216.002C715.528,-171.601 801.343,-53.2729 825.557,-19.8837"/>
<polygon fill="midnightblue" stroke="midnightblue" points="680.349,-214.147 677.311,-224.297 686.016,-218.257 680.349,-214.147"/>
</g>
<!-- Node14 -->
<g id="node14" class="node"><title>Node14</title>
<g id="a_node14"><a xlink:href="st___sleep_8cpp.html" target="_top" xlink:title="st_Sleep.cpp">
<polygon fill="none" stroke="black" points="889,-0.5 889,-19.5 963,-19.5 963,-0.5 889,-0.5"/>
<text text-anchor="middle" x="926" y="-7.5" font-family="Helvetica,sans-Serif" font-size="10.00">st_Sleep.cpp</text>
</a>
</g>
</g>
<!-- Node1&#45;&gt;Node14 -->
<g id="edge35" class="edge"><title>Node1&#45;&gt;Node14</title>
<path fill="none" stroke="midnightblue" d="M689.524,-218.141C700.261,-209.455 713.99,-198.221 726,-188 800.506,-124.593 888.061,-45.4657 916.54,-19.607"/>
<polygon fill="midnightblue" stroke="midnightblue" points="687.233,-215.492 681.644,-224.493 691.626,-220.942 687.233,-215.492"/>
</g>
<!-- Node15 -->
<g id="node15" class="node"><title>Node15</title>
<g id="a_node15"><a xlink:href="_state_8cpp.html" target="_top" xlink:title="Brief description of file. ">
<polygon fill="none" stroke="black" points="981.5,-0.5 981.5,-19.5 1040.5,-19.5 1040.5,-0.5 981.5,-0.5"/>
<text text-anchor="middle" x="1011" y="-7.5" font-family="Helvetica,sans-Serif" font-size="10.00">State.cpp</text>
</a>
</g>
</g>
<!-- Node1&#45;&gt;Node15 -->
<g id="edge36" class="edge"><title>Node1&#45;&gt;Node15</title>
<path fill="none" stroke="midnightblue" d="M696.363,-219.455C712.255,-210.791 733.055,-199.127 751,-188 849.153,-127.138 962.589,-46.0279 999.06,-19.6684"/>
<polygon fill="midnightblue" stroke="midnightblue" points="694.299,-216.592 687.171,-224.43 697.631,-222.748 694.299,-216.592"/>
</g>
<!-- Node16 -->
<g id="node16" class="node"><title>Node16</title>
<g id="a_node16"><a xlink:href="_usart_8cpp.html" target="_top" xlink:title="This is the uart library for the atmega1284p. ">
<polygon fill="none" stroke="black" points="1058.5,-0.5 1058.5,-19.5 1117.5,-19.5 1117.5,-0.5 1058.5,-0.5"/>
<text text-anchor="middle" x="1088" y="-7.5" font-family="Helvetica,sans-Serif" font-size="10.00">Usart.cpp</text>
</a>
</g>
</g>
<!-- Node1&#45;&gt;Node16 -->
<g id="edge37" class="edge"><title>Node1&#45;&gt;Node16</title>
<path fill="none" stroke="midnightblue" d="M703.852,-220.726C725.744,-212.234 754.981,-200.288 780,-188 897.632,-130.223 1032.2,-46.4065 1074.53,-19.5903"/>
<polygon fill="midnightblue" stroke="midnightblue" points="702.433,-217.522 694.352,-224.373 704.942,-224.056 702.433,-217.522"/>
</g>
<!-- Node19 -->
<g id="node19" class="node"><title>Node19</title>
<g id="a_node19"><a xlink:href="_power_8h.html" target="_top" xlink:title="Power.h">
<polygon fill="none" stroke="black" points="205.5,-112.5 205.5,-131.5 258.5,-131.5 258.5,-112.5 205.5,-112.5"/>
<text text-anchor="middle" x="232" y="-119.5" font-family="Helvetica,sans-Serif" font-size="10.00">Power.h</text>
</a>
</g>
</g>
<!-- Node1&#45;&gt;Node19 -->
<g id="edge22" class="edge"><title>Node1&#45;&gt;Node19</title>
<path fill="none" stroke="midnightblue" d="M637.401,-232.102C578.416,-229.687 453.009,-220.783 353,-188 310.626,-174.11 265.594,-145.829 244.397,-131.593"/>
<polygon fill="midnightblue" stroke="midnightblue" points="637.498,-235.608 647.621,-232.482 637.758,-228.613 637.498,-235.608"/>
</g>
<!-- Node22 -->
<g id="node22" class="node"><title>Node22</title>
<g id="a_node22"><a xlink:href="st___config_8h.html" target="_top" xlink:title="st_Config.h">
<polygon fill="none" stroke="black" points="575.5,-112.5 575.5,-131.5 642.5,-131.5 642.5,-112.5 575.5,-112.5"/>
<text text-anchor="middle" x="609" y="-119.5" font-family="Helvetica,sans-Serif" font-size="10.00">st_Config.h</text>
</a>
</g>
</g>
<!-- Node1&#45;&gt;Node22 -->
<g id="edge27" class="edge"><title>Node1&#45;&gt;Node22</title>
<path fill="none" stroke="midnightblue" d="M661.215,-215.64C647.746,-191.744 624.009,-149.629 613.842,-131.591"/>
<polygon fill="midnightblue" stroke="midnightblue" points="658.176,-217.376 666.135,-224.368 664.274,-213.938 658.176,-217.376"/>
</g>
<!-- Node3 -->
<g id="node3" class="node"><title>Node3</title>
<g id="a_node3"><a xlink:href="_anemometer_8h.html" target="_top" xlink:title="Brief description of file. ">
<polygon fill="none" stroke="black" points="350,-112.5 350,-131.5 430,-131.5 430,-112.5 350,-112.5"/>
<text text-anchor="middle" x="390" y="-119.5" font-family="Helvetica,sans-Serif" font-size="10.00">Anemometer.h</text>
</a>
</g>
</g>
<!-- Node2&#45;&gt;Node3 -->
<g id="edge2" class="edge"><title>Node2&#45;&gt;Node3</title>
<path fill="none" stroke="midnightblue" d="M390,-157.805C390,-148.91 390,-138.78 390,-131.751"/>
<polygon fill="midnightblue" stroke="midnightblue" points="386.5,-158.083 390,-168.083 393.5,-158.083 386.5,-158.083"/>
</g>
<!-- Node2&#45;&gt;Node6 -->
<g id="edge20" class="edge"><title>Node2&#45;&gt;Node6</title>
<path fill="none" stroke="midnightblue" d="M351.983,-172.702C311.798,-167.141 247.264,-155.266 196,-132 128.574,-101.399 60.8781,-41.6962 37.0064,-19.5423"/>
<polygon fill="midnightblue" stroke="midnightblue" points="351.526,-176.172 361.899,-174.014 352.445,-169.233 351.526,-176.172"/>
</g>
<!-- Node10 -->
<g id="node10" class="node"><title>Node10</title>
<g id="a_node10"><a xlink:href="_sensor_8cpp.html" target="_top" xlink:title="Brief description of file. ">
<polygon fill="none" stroke="black" points="251,-0.5 251,-19.5 317,-19.5 317,-0.5 251,-0.5"/>
<text text-anchor="middle" x="284" y="-7.5" font-family="Helvetica,sans-Serif" font-size="10.00">Sensor.cpp</text>
</a>
</g>
</g>
<!-- Node2&#45;&gt;Node10 -->
<g id="edge21" class="edge"><title>Node2&#45;&gt;Node10</title>
<path fill="none" stroke="midnightblue" d="M370.317,-161.98C360.614,-153.867 349.256,-143.227 341,-132 313.073,-94.0242 293.595,-40.1909 286.727,-19.5283"/>
<polygon fill="midnightblue" stroke="midnightblue" points="368.314,-164.861 378.297,-168.41 372.706,-159.41 368.314,-164.861"/>
</g>
<!-- Node17 -->
<g id="node17" class="node"><title>Node17</title>
<g id="a_node17"><a xlink:href="_windvane_8h.html" target="_top" xlink:title="Brief description of file. ">
<polygon fill="none" stroke="black" points="489,-112.5 489,-131.5 557,-131.5 557,-112.5 489,-112.5"/>
<text text-anchor="middle" x="523" y="-119.5" font-family="Helvetica,sans-Serif" font-size="10.00">Windvane.h</text>
</a>
</g>
</g>
<!-- Node2&#45;&gt;Node17 -->
<g id="edge17" class="edge"><title>Node2&#45;&gt;Node17</title>
<path fill="none" stroke="midnightblue" d="M420.448,-164.638C445.407,-154.504 480.077,-140.427 502.024,-131.516"/>
<polygon fill="midnightblue" stroke="midnightblue" points="419.023,-161.439 411.074,-168.444 421.656,-167.924 419.023,-161.439"/>
</g>
<!-- Node4 -->
<g id="node4" class="node"><title>Node4</title>
<g id="a_node4"><a xlink:href="_f_s_m_8h.html" target="_top" xlink:title="The FSM is the finish state machine mechanism. ">
<polygon fill="none" stroke="black" points="499,-56.5 499,-75.5 545,-75.5 545,-56.5 499,-56.5"/>
<text text-anchor="middle" x="522" y="-63.5" font-family="Helvetica,sans-Serif" font-size="10.00">FSM.h</text>
</a>
</g>
</g>
<!-- Node3&#45;&gt;Node4 -->
<g id="edge3" class="edge"><title>Node3&#45;&gt;Node4</title>
<path fill="none" stroke="midnightblue" d="M420.219,-108.638C444.99,-98.504 479.4,-84.4274 501.182,-75.5164"/>
<polygon fill="midnightblue" stroke="midnightblue" points="418.846,-105.418 410.916,-112.444 421.497,-111.897 418.846,-105.418"/>
</g>
<!-- Node5 -->
<g id="node5" class="node"><title>Node5</title>
<g id="a_node5"><a xlink:href="_anemometer_8cpp.html" target="_top" xlink:title="Brief description of file. ">
<polygon fill="none" stroke="black" points="335.5,-0.5 335.5,-19.5 426.5,-19.5 426.5,-0.5 335.5,-0.5"/>
<text text-anchor="middle" x="381" y="-7.5" font-family="Helvetica,sans-Serif" font-size="10.00">Anemometer.cpp</text>
</a>
</g>
</g>
<!-- Node3&#45;&gt;Node5 -->
<g id="edge16" class="edge"><title>Node3&#45;&gt;Node5</title>
<path fill="none" stroke="midnightblue" d="M388.474,-102.348C386.503,-78.2538 383.152,-37.3079 381.703,-19.5914"/>
<polygon fill="midnightblue" stroke="midnightblue" points="384.99,-102.687 389.294,-112.368 391.967,-102.116 384.99,-102.687"/>
</g>
<!-- Node4&#45;&gt;Node5 -->
<g id="edge4" class="edge"><title>Node4&#45;&gt;Node5</title>
<path fill="none" stroke="midnightblue" d="M490.071,-52.772C463.586,-42.6287 426.608,-28.4669 403.237,-19.5164"/>
<polygon fill="midnightblue" stroke="midnightblue" points="489.068,-56.1355 499.658,-56.4435 491.571,-49.5985 489.068,-56.1355"/>
</g>
<!-- Node4&#45;&gt;Node6 -->
<g id="edge5" class="edge"><title>Node4&#45;&gt;Node6</title>
<path fill="none" stroke="midnightblue" d="M488.163,-63.298C412.092,-59.1165 221.941,-46.6785 65,-20 62.1323,-19.5125 59.1574,-18.9268 56.1968,-18.2909"/>
<polygon fill="midnightblue" stroke="midnightblue" points="488.368,-66.814 498.542,-63.8558 488.744,-59.8241 488.368,-66.814"/>
</g>
<!-- Node4&#45;&gt;Node7 -->
<g id="edge6" class="edge"><title>Node4&#45;&gt;Node7</title>
<path fill="none" stroke="midnightblue" d="M506.966,-48.4314C498.378,-38.9673 487.957,-27.4827 480.941,-19.7511"/>
<polygon fill="midnightblue" stroke="midnightblue" points="504.597,-51.0293 513.909,-56.083 509.781,-46.3254 504.597,-51.0293"/>
</g>
<!-- Node8 -->
<g id="node8" class="node"><title>Node8</title>
<g id="a_node8"><a xlink:href="_power_8cpp.html" target="_top" xlink:title="Power.cpp">
<polygon fill="none" stroke="black" points="169.5,-0.5 169.5,-19.5 232.5,-19.5 232.5,-0.5 169.5,-0.5"/>
<text text-anchor="middle" x="201" y="-7.5" font-family="Helvetica,sans-Serif" font-size="10.00">Power.cpp</text>
</a>
</g>
</g>
<!-- Node4&#45;&gt;Node8 -->
<g id="edge7" class="edge"><title>Node4&#45;&gt;Node8</title>
<path fill="none" stroke="midnightblue" d="M488.591,-60.257C435.984,-52.6477 330.695,-36.848 242,-20 238.993,-19.4288 235.869,-18.8028 232.748,-18.1553"/>
<polygon fill="midnightblue" stroke="midnightblue" points="488.294,-63.7502 498.691,-61.7107 489.291,-56.8216 488.294,-63.7502"/>
</g>
<!-- Node9 -->
<g id="node9" class="node"><title>Node9</title>
<g id="a_node9"><a xlink:href="_r_t_c_8cpp.html" target="_top" xlink:title="Brief description of file. ">
<polygon fill="none" stroke="black" points="519,-0.5 519,-19.5 575,-19.5 575,-0.5 519,-0.5"/>
<text text-anchor="middle" x="547" y="-7.5" font-family="Helvetica,sans-Serif" font-size="10.00">RTC.cpp</text>
</a>
</g>
</g>
<!-- Node4&#45;&gt;Node9 -->
<g id="edge8" class="edge"><title>Node4&#45;&gt;Node9</title>
<path fill="none" stroke="midnightblue" d="M530.341,-46.9827C534.585,-37.8168 539.55,-27.0922 542.949,-19.7511"/>
<polygon fill="midnightblue" stroke="midnightblue" points="527.153,-45.5379 526.128,-56.083 533.506,-48.4788 527.153,-45.5379"/>
</g>
<!-- Node4&#45;&gt;Node10 -->
<g id="edge9" class="edge"><title>Node4&#45;&gt;Node10</title>
<path fill="none" stroke="midnightblue" d="M488.827,-57.4733C443.467,-47.1815 362.556,-28.8236 317.188,-18.53"/>
<polygon fill="midnightblue" stroke="midnightblue" points="488.22,-60.9244 498.746,-59.7239 489.769,-54.0979 488.22,-60.9244"/>
</g>
<!-- Node4&#45;&gt;Node11 -->
<g id="edge10" class="edge"><title>Node4&#45;&gt;Node11</title>
<path fill="none" stroke="midnightblue" d="M554.793,-55.8505C610.864,-41.1091 665.234,-27.8746 700,-19.5441"/>
<polygon fill="midnightblue" stroke="midnightblue" points="553.823,-52.4865 545.048,-58.4234 555.61,-59.2546 553.823,-52.4865"/>
</g>
<!-- Node4&#45;&gt;Node12 -->
<g id="edge11" class="edge"><title>Node4&#45;&gt;Node12</title>
<path fill="none" stroke="midnightblue" d="M549.242,-52.096C570.54,-42.0073 599.542,-28.2697 618.021,-19.5164"/>
<polygon fill="midnightblue" stroke="midnightblue" points="547.603,-48.9995 540.064,-56.4435 550.599,-55.3257 547.603,-48.9995"/>
</g>
<!-- Node4&#45;&gt;Node13 -->
<g id="edge12" class="edge"><title>Node4&#45;&gt;Node13</title>
<path fill="none" stroke="midnightblue" d="M555.35,-55.9135C656.402,-34.2001 684.61,-36.7666 783,-20 786.24,-19.4479 789.598,-18.8613 792.967,-18.2628"/>
<polygon fill="midnightblue" stroke="midnightblue" points="554.366,-52.5457 545.338,-58.092 555.854,-59.3856 554.366,-52.5457"/>
</g>
<!-- Node4&#45;&gt;Node14 -->
<g id="edge13" class="edge"><title>Node4&#45;&gt;Node14</title>
<path fill="none" stroke="midnightblue" d="M555.371,-56.0235C698.886,-28.7767 739.139,-41.5193 880,-20 882.896,-19.5576 885.887,-19.0616 888.889,-18.5359"/>
<polygon fill="midnightblue" stroke="midnightblue" points="554.467,-52.6333 545.312,-57.9659 555.795,-59.5063 554.467,-52.6333"/>
</g>
<!-- Node4&#45;&gt;Node15 -->
<g id="edge14" class="edge"><title>Node4&#45;&gt;Node15</title>
<path fill="none" stroke="midnightblue" d="M555.303,-56.0952C739.263,-23.5218 791.047,-48.5259 972,-20 975.02,-19.5239 978.154,-18.9456 981.274,-18.3143"/>
<polygon fill="midnightblue" stroke="midnightblue" points="554.52,-52.6799 545.3,-57.8996 555.762,-59.5687 554.52,-52.6799"/>
</g>
<!-- Node4&#45;&gt;Node16 -->
<g id="edge15" class="edge"><title>Node4&#45;&gt;Node16</title>
<path fill="none" stroke="midnightblue" d="M555.462,-56.0986C773.561,-18.9503 834.848,-53.0686 1050,-20 1052.68,-19.588 1055.45,-19.0851 1058.22,-18.5296"/>
<polygon fill="midnightblue" stroke="midnightblue" points="554.548,-52.7048 545.293,-57.8625 555.744,-59.6018 554.548,-52.7048"/>
</g>
<!-- Node17&#45;&gt;Node4 -->
<g id="edge18" class="edge"><title>Node17&#45;&gt;Node4</title>
<path fill="none" stroke="midnightblue" d="M522.645,-101.805C522.48,-92.9102 522.292,-82.7798 522.162,-75.7511"/>
<polygon fill="midnightblue" stroke="midnightblue" points="519.15,-102.15 522.835,-112.083 526.149,-102.02 519.15,-102.15"/>
</g>
<!-- Node18 -->
<g id="node18" class="node"><title>Node18</title>
<g id="a_node18"><a xlink:href="_windvane_8cpp.html" target="_top" xlink:title="Brief description of file. ">
<polygon fill="none" stroke="black" points="563.5,-56.5 563.5,-75.5 642.5,-75.5 642.5,-56.5 563.5,-56.5"/>
<text text-anchor="middle" x="603" y="-63.5" font-family="Helvetica,sans-Serif" font-size="10.00">Windvane.cpp</text>
</a>
</g>
</g>
<!-- Node17&#45;&gt;Node18 -->
<g id="edge19" class="edge"><title>Node17&#45;&gt;Node18</title>
<path fill="none" stroke="midnightblue" d="M544.301,-106.622C558.915,-96.7574 577.827,-83.9919 590.179,-75.6545"/>
<polygon fill="midnightblue" stroke="midnightblue" points="542.184,-103.828 535.853,-112.324 546.1,-109.63 542.184,-103.828"/>
</g>
<!-- Node19&#45;&gt;Node4 -->
<g id="edge23" class="edge"><title>Node19&#45;&gt;Node4</title>
<path fill="none" stroke="midnightblue" d="M268.393,-114.223C328.937,-102.95 448.651,-80.6581 498.92,-71.2977"/>
<polygon fill="midnightblue" stroke="midnightblue" points="267.695,-110.793 258.504,-116.065 268.976,-117.675 267.695,-110.793"/>
</g>
<!-- Node19&#45;&gt;Node8 -->
<g id="edge26" class="edge"><title>Node19&#45;&gt;Node8</title>
<path fill="none" stroke="midnightblue" d="M226.835,-102.674C220.058,-78.6248 208.437,-37.3881 203.421,-19.5914"/>
<polygon fill="midnightblue" stroke="midnightblue" points="223.486,-103.693 229.567,-112.368 230.224,-101.794 223.486,-103.693"/>
</g>
<!-- Node20 -->
<g id="node20" class="node"><title>Node20</title>
<g id="a_node20"><a xlink:href="power_d_c_8h.html" target="_top" xlink:title="Brief description of file. ">
<polygon fill="none" stroke="black" points="129,-56.5 129,-75.5 195,-75.5 195,-56.5 129,-56.5"/>
<text text-anchor="middle" x="162" y="-63.5" font-family="Helvetica,sans-Serif" font-size="10.00">powerDC.h</text>
</a>
</g>
</g>
<!-- Node19&#45;&gt;Node20 -->
<g id="edge24" class="edge"><title>Node19&#45;&gt;Node20</title>
<path fill="none" stroke="midnightblue" d="M212.686,-106.101C200.088,-96.3824 184.072,-84.0269 173.451,-75.8339"/>
<polygon fill="midnightblue" stroke="midnightblue" points="210.698,-108.987 220.753,-112.324 214.973,-103.445 210.698,-108.987"/>
</g>
<!-- Node21 -->
<g id="node21" class="node"><title>Node21</title>
<g id="a_node21"><a xlink:href="power_d_c_8cpp.html" target="_top" xlink:title="Brief description of file. ">
<polygon fill="none" stroke="black" points="74.5,-0.5 74.5,-19.5 151.5,-19.5 151.5,-0.5 74.5,-0.5"/>
<text text-anchor="middle" x="113" y="-7.5" font-family="Helvetica,sans-Serif" font-size="10.00">powerDC.cpp</text>
</a>
</g>
</g>
<!-- Node20&#45;&gt;Node21 -->
<g id="edge25" class="edge"><title>Node20&#45;&gt;Node21</title>
<path fill="none" stroke="midnightblue" d="M146.966,-48.4314C138.378,-38.9673 127.957,-27.4827 120.941,-19.7511"/>
<polygon fill="midnightblue" stroke="midnightblue" points="144.597,-51.0293 153.909,-56.083 149.781,-46.3254 144.597,-51.0293"/>
</g>
<!-- Node22&#45;&gt;Node4 -->
<g id="edge28" class="edge"><title>Node22&#45;&gt;Node4</title>
<path fill="none" stroke="midnightblue" d="M586.284,-106.901C570.331,-96.9986 549.503,-84.0705 535.943,-75.6545"/>
<polygon fill="midnightblue" stroke="midnightblue" points="584.68,-110.024 595.022,-112.324 588.371,-104.077 584.68,-110.024"/>
</g>
<!-- Node22&#45;&gt;Node11 -->
<g id="edge29" class="edge"><title>Node22&#45;&gt;Node11</title>
<path fill="none" stroke="midnightblue" d="M626.531,-105.816C653.58,-82.3874 704.608,-38.1898 726.081,-19.5914"/>
<polygon fill="midnightblue" stroke="midnightblue" points="624.233,-103.176 618.965,-112.368 628.816,-108.467 624.233,-103.176"/>
</g>
</g>
</svg>
