<?xml version="1.0" encoding="UTF-8" standalone="no"?>
<!DOCTYPE svg PUBLIC "-//W3C//DTD SVG 1.1//EN"
 "http://www.w3.org/Graphics/SVG/1.1/DTD/svg11.dtd">
<!-- Generated by graphviz version 2.38.0 (20140413.2041)
 -->
<!-- Title: main Pages: 1 -->
<svg width="608pt" height="508pt"
 viewBox="0.00 0.00 608.00 508.00" xmlns="http://www.w3.org/2000/svg" xmlns:xlink="http://www.w3.org/1999/xlink">
<g id="graph0" class="graph" transform="scale(1 1) rotate(0) translate(4 504)">
<title>main</title>
<!-- Node0 -->
<g id="node1" class="node"><title>Node0</title>
<polygon fill="#bfbfbf" stroke="black" points="0,-88.5 0,-107.5 38,-107.5 38,-88.5 0,-88.5"/>
<text text-anchor="middle" x="19" y="-95.5" font-family="Helvetica,sans-Serif" font-size="10.00">main</text>
</g>
<!-- Node1 -->
<g id="node2" class="node"><title>Node1</title>
<g id="a_node2"><a xlink:href="class_f_s_m.html#a3819be8e9fe92b750f47b9731e92f254" target="_top" xlink:title="Call when a string from usart0 finish by &quot;\r\n&quot;. ">
<polygon fill="none" stroke="black" points="74,-347.5 74,-366.5 211,-366.5 211,-347.5 74,-347.5"/>
<text text-anchor="middle" x="142.5" y="-354.5" font-family="Helvetica,sans-Serif" font-size="10.00">FSM::character_processing</text>
</a>
</g>
</g>
<!-- Node0&#45;&gt;Node1 -->
<g id="edge1" class="edge"><title>Node0&#45;&gt;Node1</title>
<path fill="none" stroke="midnightblue" d="M24.4683,-107.525C42.2921,-145.52 108.508,-286.67 132.634,-338.1"/>
<polygon fill="midnightblue" stroke="midnightblue" points="129.575,-339.821 136.991,-347.388 135.913,-336.848 129.575,-339.821"/>
</g>
<!-- Node5 -->
<g id="node6" class="node"><title>Node5</title>
<g id="a_node6"><a xlink:href="class_usart.html#ab236d7c399791bbe1431f85e9b60f601" target="_top" xlink:title="USART string sender function. ">
<polygon fill="none" stroke="black" points="535,-164.5 535,-183.5 600,-183.5 600,-164.5 535,-164.5"/>
<text text-anchor="middle" x="567.5" y="-171.5" font-family="Helvetica,sans-Serif" font-size="10.00">Usart::print</text>
</a>
</g>
</g>
<!-- Node0&#45;&gt;Node5 -->
<g id="edge20" class="edge"><title>Node0&#45;&gt;Node5</title>
<path fill="none" stroke="midnightblue" d="M38.1657,-105.668C48.49,-109.699 61.7626,-114.344 74,-117 259.327,-157.228 312.482,-120.717 499,-155 508.321,-156.713 518.214,-159.141 527.47,-161.691"/>
<polygon fill="midnightblue" stroke="midnightblue" points="526.63,-165.091 537.207,-164.478 528.556,-158.361 526.63,-165.091"/>
</g>
<!-- Node12 -->
<g id="node13" class="node"><title>Node12</title>
<g id="a_node13"><a xlink:href="class_f_s_m.html#a8a6e956375ea383f83fdd076badbe5a7" target="_top" xlink:title="This method execute the next state. ">
<polygon fill="none" stroke="black" points="103.5,-88.5 103.5,-107.5 181.5,-107.5 181.5,-88.5 103.5,-88.5"/>
<text text-anchor="middle" x="142.5" y="-95.5" font-family="Helvetica,sans-Serif" font-size="10.00">FSM::execute</text>
</a>
</g>
</g>
<!-- Node0&#45;&gt;Node12 -->
<g id="edge14" class="edge"><title>Node0&#45;&gt;Node12</title>
<path fill="none" stroke="midnightblue" d="M38.1898,-98C52.7235,-98 73.7884,-98 93.1112,-98"/>
<polygon fill="midnightblue" stroke="midnightblue" points="93.3126,-101.5 103.313,-98 93.3125,-94.5001 93.3126,-101.5"/>
</g>
<!-- Node15 -->
<g id="node16" class="node"><title>Node15</title>
<g id="a_node16"><a xlink:href="class_f_s_m.html#a96c6ea489297a70669bef5d29b3d889c" target="_top" xlink:title="This method control if a new measure is needed. ">
<polygon fill="none" stroke="black" points="75.5,-39 75.5,-69 209.5,-69 209.5,-39 75.5,-39"/>
<text text-anchor="start" x="83.5" y="-57" font-family="Helvetica,sans-Serif" font-size="10.00">FSM::measurement_timing</text>
<text text-anchor="middle" x="142.5" y="-46" font-family="Helvetica,sans-Serif" font-size="10.00">_control</text>
</a>
</g>
</g>
<!-- Node0&#45;&gt;Node15 -->
<g id="edge18" class="edge"><title>Node0&#45;&gt;Node15</title>
<path fill="none" stroke="midnightblue" d="M38.1898,-91.4128C52.0577,-86.3906 71.8719,-79.2151 90.4451,-72.489"/>
<polygon fill="midnightblue" stroke="midnightblue" points="91.7958,-75.7224 100.007,-69.0264 89.4123,-69.1407 91.7958,-75.7224"/>
</g>
<!-- Node16 -->
<g id="node17" class="node"><title>Node16</title>
<g id="a_node17"><a xlink:href="class_f_s_m.html#afca5ddfd799b975405998f984afd34f8" target="_top" xlink:title="This method define the next state from hardware and software flags. ">
<polygon fill="none" stroke="black" points="78,-0.5 78,-19.5 207,-19.5 207,-0.5 78,-0.5"/>
<text text-anchor="middle" x="142.5" y="-7.5" font-family="Helvetica,sans-Serif" font-size="10.00">FSM::newState_definition</text>
</a>
</g>
</g>
<!-- Node0&#45;&gt;Node16 -->
<g id="edge19" class="edge"><title>Node0&#45;&gt;Node16</title>
<path fill="none" stroke="midnightblue" d="M24.8947,-88.3946C33.0262,-73.4122 50.7514,-44.5853 74,-29 77.0621,-26.9472 80.3442,-25.1143 83.7515,-23.4778"/>
<polygon fill="midnightblue" stroke="midnightblue" points="85.1367,-26.6922 92.9977,-19.589 82.4229,-20.2397 85.1367,-26.6922"/>
</g>
<!-- Node2 -->
<g id="node3" class="node"><title>Node2</title>
<g id="a_node3"><a xlink:href="class_config.html#a3f8d043789557191686ae632ebe6a571" target="_top" xlink:title="add c to the end of request ">
<polygon fill="none" stroke="black" points="382.5,-164.5 382.5,-183.5 497.5,-183.5 497.5,-164.5 382.5,-164.5"/>
<text text-anchor="middle" x="440" y="-171.5" font-family="Helvetica,sans-Serif" font-size="10.00">Config::addToRequest</text>
</a>
</g>
</g>
<!-- Node1&#45;&gt;Node2 -->
<g id="edge2" class="edge"><title>Node1&#45;&gt;Node2</title>
<path fill="none" stroke="midnightblue" d="M154.566,-347.44C187.113,-319.766 286.195,-238.659 381,-193 385.421,-190.871 390.141,-188.89 394.907,-187.074"/>
<polygon fill="midnightblue" stroke="midnightblue" points="396.434,-190.245 404.672,-183.582 394.077,-183.653 396.434,-190.245"/>
</g>
<!-- Node3 -->
<g id="node4" class="node"><title>Node3</title>
<g id="a_node4"><a xlink:href="class_usart.html#a86c9264f48dabbc3d97fa32d2d02d22d" target="_top" xlink:title="USART char sender function. ">
<polygon fill="none" stroke="black" points="266,-480.5 266,-499.5 326,-499.5 326,-480.5 266,-480.5"/>
<text text-anchor="middle" x="296" y="-487.5" font-family="Helvetica,sans-Serif" font-size="10.00">Usart::set</text>
</a>
</g>
</g>
<!-- Node1&#45;&gt;Node3 -->
<g id="edge3" class="edge"><title>Node1&#45;&gt;Node3</title>
<path fill="none" stroke="midnightblue" d="M149.88,-366.612C164.594,-388.111 203.034,-440.58 247,-471 250.054,-473.113 253.377,-475.04 256.802,-476.785"/>
<polygon fill="midnightblue" stroke="midnightblue" points="255.441,-480.012 265.991,-480.986 258.351,-473.645 255.441,-480.012"/>
</g>
<!-- Node4 -->
<g id="node5" class="node"><title>Node4</title>
<g id="a_node5"><a xlink:href="class_config.html#aad107d2aa88bbf57a728ec0c650a6f84" target="_top" xlink:title="Config::backspace">
<polygon fill="none" stroke="black" points="247,-442.5 247,-461.5 345,-461.5 345,-442.5 247,-442.5"/>
<text text-anchor="middle" x="296" y="-449.5" font-family="Helvetica,sans-Serif" font-size="10.00">Config::backspace</text>
</a>
</g>
</g>
<!-- Node1&#45;&gt;Node4 -->
<g id="edge4" class="edge"><title>Node1&#45;&gt;Node4</title>
<path fill="none" stroke="midnightblue" d="M156.196,-366.556C175.351,-380.776 213.02,-407.978 247,-428 252.689,-431.352 258.907,-434.688 264.926,-437.759"/>
<polygon fill="midnightblue" stroke="midnightblue" points="263.601,-441.01 274.113,-442.332 266.721,-434.743 263.601,-441.01"/>
</g>
<!-- Node1&#45;&gt;Node5 -->
<g id="edge5" class="edge"><title>Node1&#45;&gt;Node5</title>
<path fill="none" stroke="midnightblue" d="M161.226,-366.514C217.197,-395.117 392.733,-473.656 499,-395 532.131,-370.477 555.566,-242.925 563.523,-193.549"/>
<polygon fill="midnightblue" stroke="midnightblue" points="567.005,-193.941 565.098,-183.519 560.089,-192.855 567.005,-193.941"/>
</g>
<!-- Node6 -->
<g id="node7" class="node"><title>Node6</title>
<g id="a_node7"><a xlink:href="class_config.html#a5ae6c4f7255e895e7384fc2a4baab160" target="_top" xlink:title="Config::endString">
<polygon fill="none" stroke="black" points="250,-290.5 250,-309.5 342,-309.5 342,-290.5 250,-290.5"/>
<text text-anchor="middle" x="296" y="-297.5" font-family="Helvetica,sans-Serif" font-size="10.00">Config::endString</text>
</a>
</g>
</g>
<!-- Node1&#45;&gt;Node6 -->
<g id="edge6" class="edge"><title>Node1&#45;&gt;Node6</title>
<path fill="none" stroke="midnightblue" d="M168.858,-347.459C193.874,-338.047 232.31,-323.586 260.181,-313.1"/>
<polygon fill="midnightblue" stroke="midnightblue" points="261.433,-316.369 269.56,-309.572 258.968,-309.817 261.433,-316.369"/>
</g>
<!-- Node6&#45;&gt;Node2 -->
<g id="edge9" class="edge"><title>Node6&#45;&gt;Node2</title>
<path fill="none" stroke="midnightblue" d="M303.547,-290.259C319.643,-266.56 361.268,-206.818 381,-193 383.734,-191.085 386.673,-189.354 389.726,-187.791"/>
<polygon fill="midnightblue" stroke="midnightblue" points="391.432,-190.862 399.133,-183.585 388.575,-184.471 391.432,-190.862"/>
</g>
<!-- Node7 -->
<g id="node8" class="node"><title>Node7</title>
<g id="a_node8"><a xlink:href="class_config.html#a975933ecde91dc436d4ca39464cfd25f" target="_top" xlink:title="display all config on USART0 ">
<polygon fill="none" stroke="black" points="399,-202.5 399,-221.5 481,-221.5 481,-202.5 399,-202.5"/>
<text text-anchor="middle" x="440" y="-209.5" font-family="Helvetica,sans-Serif" font-size="10.00">Config::display</text>
</a>
</g>
</g>
<!-- Node6&#45;&gt;Node7 -->
<g id="edge7" class="edge"><title>Node6&#45;&gt;Node7</title>
<path fill="none" stroke="midnightblue" d="M306.512,-290.39C321.278,-275.943 351.136,-248.56 381,-232 385.541,-229.482 390.456,-227.198 395.438,-225.149"/>
<polygon fill="midnightblue" stroke="midnightblue" points="396.918,-228.331 405.019,-221.502 394.428,-221.789 396.918,-228.331"/>
</g>
<!-- Node8 -->
<g id="node9" class="node"><title>Node8</title>
<g id="a_node9"><a xlink:href="class_config.html#a890e1d585e9ae670a6cccaf196250870" target="_top" xlink:title="Config::atoc">
<polygon fill="none" stroke="black" points="405,-366.5 405,-385.5 475,-385.5 475,-366.5 405,-366.5"/>
<text text-anchor="middle" x="440" y="-373.5" font-family="Helvetica,sans-Serif" font-size="10.00">Config::atoc</text>
</a>
</g>
</g>
<!-- Node6&#45;&gt;Node8 -->
<g id="edge10" class="edge"><title>Node6&#45;&gt;Node8</title>
<path fill="none" stroke="midnightblue" d="M308.861,-309.638C324.56,-322.01 353.473,-343.486 381,-357 385.579,-359.248 390.487,-361.322 395.438,-363.209"/>
<polygon fill="midnightblue" stroke="midnightblue" points="394.343,-366.534 404.937,-366.602 396.697,-359.942 394.343,-366.534"/>
</g>
<!-- Node9 -->
<g id="node10" class="node"><title>Node9</title>
<g id="a_node10"><a xlink:href="class_config.html#ab55107c3371b6c41be6688c0989993c7" target="_top" xlink:title="Load saved config data from the eeprom. ">
<polygon fill="none" stroke="black" points="386.5,-328.5 386.5,-347.5 493.5,-347.5 493.5,-328.5 386.5,-328.5"/>
<text text-anchor="middle" x="440" y="-335.5" font-family="Helvetica,sans-Serif" font-size="10.00">Config::load_eeprom</text>
</a>
</g>
</g>
<!-- Node6&#45;&gt;Node9 -->
<g id="edge11" class="edge"><title>Node6&#45;&gt;Node9</title>
<path fill="none" stroke="midnightblue" d="M332.833,-309.589C351.163,-314.494 373.678,-320.52 393.25,-325.757"/>
<polygon fill="midnightblue" stroke="midnightblue" points="392.614,-329.21 403.179,-328.414 394.424,-322.448 392.614,-329.21"/>
</g>
<!-- Node10 -->
<g id="node11" class="node"><title>Node10</title>
<g id="a_node11"><a xlink:href="class_config.html#a5fefd76d384c0a710ea0dd0d71d5d05b" target="_top" xlink:title="Update saved config data in the eeprom. ">
<polygon fill="none" stroke="black" points="381,-290.5 381,-309.5 499,-309.5 499,-290.5 381,-290.5"/>
<text text-anchor="middle" x="440" y="-297.5" font-family="Helvetica,sans-Serif" font-size="10.00">Config::update_epprom</text>
</a>
</g>
</g>
<!-- Node6&#45;&gt;Node10 -->
<g id="edge12" class="edge"><title>Node6&#45;&gt;Node10</title>
<path fill="none" stroke="midnightblue" d="M342.32,-300C351.416,-300 361.163,-300 370.839,-300"/>
<polygon fill="midnightblue" stroke="midnightblue" points="370.866,-303.5 380.866,-300 370.866,-296.5 370.866,-303.5"/>
</g>
<!-- Node11 -->
<g id="node12" class="node"><title>Node11</title>
<g id="a_node12"><a xlink:href="class_config.html#af2fee2ffae339b1e8ead1cd413e44ee3" target="_top" xlink:title="Initialize the eeprom memory. ">
<polygon fill="none" stroke="black" points="397,-241 397,-271 483,-271 483,-241 397,-241"/>
<text text-anchor="start" x="405" y="-259" font-family="Helvetica,sans-Serif" font-size="10.00">Config::initialize</text>
<text text-anchor="middle" x="440" y="-248" font-family="Helvetica,sans-Serif" font-size="10.00">_eeprom</text>
</a>
</g>
</g>
<!-- Node6&#45;&gt;Node11 -->
<g id="edge13" class="edge"><title>Node6&#45;&gt;Node11</title>
<path fill="none" stroke="midnightblue" d="M327.812,-290.453C345.196,-285.066 367.374,-278.194 387.341,-272.007"/>
<polygon fill="midnightblue" stroke="midnightblue" points="388.42,-275.337 396.936,-269.034 386.348,-268.651 388.42,-275.337"/>
</g>
<!-- Node7&#45;&gt;Node5 -->
<g id="edge8" class="edge"><title>Node7&#45;&gt;Node5</title>
<path fill="none" stroke="midnightblue" d="M472.669,-202.411C488.573,-197.596 508.04,-191.701 525.111,-186.532"/>
<polygon fill="midnightblue" stroke="midnightblue" points="526.285,-189.834 534.841,-183.586 524.256,-183.134 526.285,-189.834"/>
</g>
<!-- Node12&#45;&gt;Node5 -->
<g id="edge16" class="edge"><title>Node12&#45;&gt;Node5</title>
<path fill="none" stroke="midnightblue" d="M181.602,-93.54C248.373,-87.2336 389.804,-80.6601 499,-122 518.747,-129.476 537.457,-144.78 550.149,-156.86"/>
<polygon fill="midnightblue" stroke="midnightblue" points="548.004,-159.662 557.57,-164.217 552.932,-154.691 548.004,-159.662"/>
</g>
<!-- Node13 -->
<g id="node14" class="node"><title>Node13</title>
<g id="a_node14"><a xlink:href="class_state.html#ac150b47c0f2b53152671d0698a890981" target="_top" xlink:title="State::print">
<polygon fill="none" stroke="black" points="263.5,-50.5 263.5,-69.5 328.5,-69.5 328.5,-50.5 263.5,-50.5"/>
<text text-anchor="middle" x="296" y="-57.5" font-family="Helvetica,sans-Serif" font-size="10.00">State::print</text>
</a>
</g>
</g>
<!-- Node12&#45;&gt;Node13 -->
<g id="edge15" class="edge"><title>Node12&#45;&gt;Node13</title>
<path fill="none" stroke="midnightblue" d="M181.73,-88.411C203.622,-82.9198 231.109,-76.0256 253.522,-70.4037"/>
<polygon fill="midnightblue" stroke="midnightblue" points="254.577,-73.7476 263.425,-67.9198 252.874,-66.9579 254.577,-73.7476"/>
</g>
<!-- Node14 -->
<g id="node15" class="node"><title>Node14</title>
<g id="a_node15"><a xlink:href="class_state.html#aa272f704a5f33920524fb57c80339b2f" target="_top" xlink:title="State::execute">
<polygon fill="none" stroke="black" points="256,-12.5 256,-31.5 336,-31.5 336,-12.5 256,-12.5"/>
<text text-anchor="middle" x="296" y="-19.5" font-family="Helvetica,sans-Serif" font-size="10.00">State::execute</text>
</a>
</g>
</g>
<!-- Node12&#45;&gt;Node14 -->
<g id="edge17" class="edge"><title>Node12&#45;&gt;Node14</title>
<path fill="none" stroke="midnightblue" d="M181.715,-90.3427C191.68,-87.3831 202.108,-83.3732 211,-78 230.637,-66.1335 227.91,-53.727 247,-41 249.759,-39.1606 252.723,-37.4559 255.776,-35.8856"/>
<polygon fill="midnightblue" stroke="midnightblue" points="257.477,-38.9548 265.081,-31.5768 254.536,-32.6028 257.477,-38.9548"/>
</g>
</g>
</svg>
