<?xml version="1.0" encoding="UTF-8" standalone="no"?>
<!DOCTYPE svg PUBLIC "-//W3C//DTD SVG 1.1//EN"
 "http://www.w3.org/Graphics/SVG/1.1/DTD/svg11.dtd">
<!-- Generated by graphviz version 2.38.0 (20140413.2041)
 -->
<!-- Title: main.h Pages: 1 -->
<svg width="523pt" height="196pt"
 viewBox="0.00 0.00 522.50 196.00" xmlns="http://www.w3.org/2000/svg" xmlns:xlink="http://www.w3.org/1999/xlink">
<g id="graph0" class="graph" transform="scale(1 1) rotate(0) translate(4 192)">
<title>main.h</title>
<!-- Node1 -->
<g id="node1" class="node"><title>Node1</title>
<polygon fill="#bfbfbf" stroke="black" points="250,-168.5 250,-187.5 296,-187.5 296,-168.5 250,-168.5"/>
<text text-anchor="middle" x="273" y="-175.5" font-family="Helvetica,sans-Serif" font-size="10.00">main.h</text>
</g>
<!-- Node2 -->
<g id="node2" class="node"><title>Node2</title>
<g id="a_node2"><a xlink:href="_config_8h.html" target="_top" xlink:title="This file declare the Config class. ">
<polygon fill="none" stroke="black" points="56.5,-112.5 56.5,-131.5 109.5,-131.5 109.5,-112.5 56.5,-112.5"/>
<text text-anchor="middle" x="83" y="-119.5" font-family="Helvetica,sans-Serif" font-size="10.00">Config.h</text>
</a>
</g>
</g>
<!-- Node1&#45;&gt;Node2 -->
<g id="edge1" class="edge"><title>Node1&#45;&gt;Node2</title>
<path fill="none" stroke="midnightblue" d="M239.889,-167.59C202.87,-157.068 143.653,-140.238 109.544,-130.544"/>
<polygon fill="midnightblue" stroke="midnightblue" points="239.126,-171.011 249.702,-170.379 241.04,-164.278 239.126,-171.011"/>
</g>
<!-- Node4 -->
<g id="node4" class="node"><title>Node4</title>
<g id="a_node4"><a xlink:href="_config_8cpp.html" target="_top" xlink:title="This file define the Config class. ">
<polygon fill="none" stroke="black" points="0,-0.5 0,-19.5 64,-19.5 64,-0.5 0,-0.5"/>
<text text-anchor="middle" x="32" y="-7.5" font-family="Helvetica,sans-Serif" font-size="10.00">Config.cpp</text>
</a>
</g>
</g>
<!-- Node1&#45;&gt;Node4 -->
<g id="edge10" class="edge"><title>Node1&#45;&gt;Node4</title>
<path fill="none" stroke="midnightblue" d="M239.799,-175.046C183.456,-171.003 72.7135,-159.668 47,-132 17.4593,-100.214 25.6111,-41.7438 30.0315,-19.7088"/>
<polygon fill="midnightblue" stroke="midnightblue" points="239.763,-178.552 249.977,-175.739 240.238,-171.568 239.763,-178.552"/>
</g>
<!-- Node5 -->
<g id="node5" class="node"><title>Node5</title>
<g id="a_node5"><a xlink:href="_f_s_m_8cpp.html" target="_top" xlink:title="Brief description of file. ">
<polygon fill="none" stroke="black" points="82,-0.5 82,-19.5 138,-19.5 138,-0.5 82,-0.5"/>
<text text-anchor="middle" x="110" y="-7.5" font-family="Helvetica,sans-Serif" font-size="10.00">FSM.cpp</text>
</a>
</g>
</g>
<!-- Node1&#45;&gt;Node5 -->
<g id="edge11" class="edge"><title>Node1&#45;&gt;Node5</title>
<path fill="none" stroke="midnightblue" d="M252.031,-162.533C226.507,-144.277 182.984,-111.011 152,-76 135.795,-57.6884 121.403,-32.5605 114.437,-19.5635"/>
<polygon fill="midnightblue" stroke="midnightblue" points="250.071,-165.433 260.258,-168.342 254.108,-159.715 250.071,-165.433"/>
</g>
<!-- Node6 -->
<g id="node6" class="node"><title>Node6</title>
<g id="a_node6"><a xlink:href="main_8cpp.html" target="_top" xlink:title="This is the main file, is the firmware&#39;s body. ">
<polygon fill="none" stroke="black" points="156,-0.5 156,-19.5 212,-19.5 212,-0.5 156,-0.5"/>
<text text-anchor="middle" x="184" y="-7.5" font-family="Helvetica,sans-Serif" font-size="10.00">main.cpp</text>
</a>
</g>
</g>
<!-- Node1&#45;&gt;Node6 -->
<g id="edge12" class="edge"><title>Node1&#45;&gt;Node6</title>
<path fill="none" stroke="midnightblue" d="M265.669,-158.897C255.638,-134.786 236.526,-91.0964 216,-56 208.257,-42.7598 197.693,-28.4917 190.858,-19.6526"/>
<polygon fill="midnightblue" stroke="midnightblue" points="262.463,-160.304 269.5,-168.224 268.938,-157.644 262.463,-160.304"/>
</g>
<!-- Node7 -->
<g id="node7" class="node"><title>Node7</title>
<g id="a_node7"><a xlink:href="_measure_8cpp.html" target="_top" xlink:title="The class Measure inherits from the class State. ">
<polygon fill="none" stroke="black" points="230.5,-0.5 230.5,-19.5 303.5,-19.5 303.5,-0.5 230.5,-0.5"/>
<text text-anchor="middle" x="267" y="-7.5" font-family="Helvetica,sans-Serif" font-size="10.00">Measure.cpp</text>
</a>
</g>
</g>
<!-- Node1&#45;&gt;Node7 -->
<g id="edge13" class="edge"><title>Node1&#45;&gt;Node7</title>
<path fill="none" stroke="midnightblue" d="M272.311,-157.93C271.009,-121.92 268.237,-45.2312 267.31,-19.5681"/>
<polygon fill="midnightblue" stroke="midnightblue" points="268.818,-158.208 272.677,-168.075 275.814,-157.955 268.818,-158.208"/>
</g>
<!-- Node8 -->
<g id="node8" class="node"><title>Node8</title>
<g id="a_node8"><a xlink:href="_output_8cpp.html" target="_top" xlink:title="The class Output inherits from the class State. ">
<polygon fill="none" stroke="black" points="321.5,-0.5 321.5,-19.5 386.5,-19.5 386.5,-0.5 321.5,-0.5"/>
<text text-anchor="middle" x="354" y="-7.5" font-family="Helvetica,sans-Serif" font-size="10.00">Output.cpp</text>
</a>
</g>
</g>
<!-- Node1&#45;&gt;Node8 -->
<g id="edge14" class="edge"><title>Node1&#45;&gt;Node8</title>
<path fill="none" stroke="midnightblue" d="M281.854,-158.856C299.226,-123.252 337.188,-45.4534 349.819,-19.5681"/>
<polygon fill="midnightblue" stroke="midnightblue" points="278.595,-157.553 277.355,-168.075 284.886,-160.623 278.595,-157.553"/>
</g>
<!-- Node9 -->
<g id="node9" class="node"><title>Node9</title>
<g id="a_node9"><a xlink:href="_usart_8cpp.html" target="_top" xlink:title="This is the uart library for the atmega1284p. ">
<polygon fill="none" stroke="black" points="404.5,-0.5 404.5,-19.5 463.5,-19.5 463.5,-0.5 404.5,-0.5"/>
<text text-anchor="middle" x="434" y="-7.5" font-family="Helvetica,sans-Serif" font-size="10.00">Usart.cpp</text>
</a>
</g>
</g>
<!-- Node1&#45;&gt;Node9 -->
<g id="edge17" class="edge"><title>Node1&#45;&gt;Node9</title>
<path fill="none" stroke="midnightblue" d="M288.856,-160.651C322.523,-125.939 400.153,-45.8978 425.69,-19.5681"/>
<polygon fill="midnightblue" stroke="midnightblue" points="286.106,-158.46 281.656,-168.075 291.131,-163.333 286.106,-158.46"/>
</g>
<!-- Node10 -->
<g id="node10" class="node"><title>Node10</title>
<g id="a_node10"><a xlink:href="_sleep_8cpp.html" target="_top" xlink:title="Brief description of file. ">
<polygon fill="none" stroke="black" points="377,-112.5 377,-131.5 437,-131.5 437,-112.5 377,-112.5"/>
<text text-anchor="middle" x="407" y="-119.5" font-family="Helvetica,sans-Serif" font-size="10.00">Sleep.cpp</text>
</a>
</g>
</g>
<!-- Node1&#45;&gt;Node10 -->
<g id="edge15" class="edge"><title>Node1&#45;&gt;Node10</title>
<path fill="none" stroke="midnightblue" d="M303.677,-164.638C328.823,-154.504 363.754,-140.427 385.867,-131.516"/>
<polygon fill="midnightblue" stroke="midnightblue" points="302.2,-161.459 294.233,-168.444 304.816,-167.952 302.2,-161.459"/>
</g>
<!-- Node11 -->
<g id="node11" class="node"><title>Node11</title>
<g id="a_node11"><a xlink:href="_state_8cpp.html" target="_top" xlink:title="Brief description of file. ">
<polygon fill="none" stroke="black" points="455.5,-112.5 455.5,-131.5 514.5,-131.5 514.5,-112.5 455.5,-112.5"/>
<text text-anchor="middle" x="485" y="-119.5" font-family="Helvetica,sans-Serif" font-size="10.00">State.cpp</text>
</a>
</g>
</g>
<!-- Node1&#45;&gt;Node11 -->
<g id="edge16" class="edge"><title>Node1&#45;&gt;Node11</title>
<path fill="none" stroke="midnightblue" d="M305.826,-168.639C346.652,-158.24 415.762,-140.636 455.152,-130.603"/>
<polygon fill="midnightblue" stroke="midnightblue" points="304.918,-165.258 296.091,-171.118 306.646,-172.042 304.918,-165.258"/>
</g>
<!-- Node3 -->
<g id="node3" class="node"><title>Node3</title>
<g id="a_node3"><a xlink:href="_f_s_m_8h.html" target="_top" xlink:title="The FSM is the finish state machine mechanism. ">
<polygon fill="none" stroke="black" points="161,-56.5 161,-75.5 207,-75.5 207,-56.5 161,-56.5"/>
<text text-anchor="middle" x="184" y="-63.5" font-family="Helvetica,sans-Serif" font-size="10.00">FSM.h</text>
</a>
</g>
</g>
<!-- Node2&#45;&gt;Node3 -->
<g id="edge2" class="edge"><title>Node2&#45;&gt;Node3</title>
<path fill="none" stroke="midnightblue" d="M108.083,-107.59C126.757,-97.6052 151.704,-84.2672 167.813,-75.6545"/>
<polygon fill="midnightblue" stroke="midnightblue" points="106.396,-104.522 99.2274,-112.324 109.696,-110.696 106.396,-104.522"/>
</g>
<!-- Node2&#45;&gt;Node4 -->
<g id="edge9" class="edge"><title>Node2&#45;&gt;Node4</title>
<path fill="none" stroke="midnightblue" d="M74.6537,-102.998C63.5258,-78.9968 44.2717,-37.4683 35.9833,-19.5914"/>
<polygon fill="midnightblue" stroke="midnightblue" points="71.6165,-104.768 78.9981,-112.368 77.9671,-101.824 71.6165,-104.768"/>
</g>
<!-- Node3&#45;&gt;Node4 -->
<g id="edge3" class="edge"><title>Node3&#45;&gt;Node4</title>
<path fill="none" stroke="midnightblue" d="M151.35,-53.4005C122.727,-43.2321 81.7812,-28.6854 56.0573,-19.5467"/>
<polygon fill="midnightblue" stroke="midnightblue" points="150.32,-56.7489 160.914,-56.7986 152.663,-50.1528 150.32,-56.7489"/>
</g>
<!-- Node3&#45;&gt;Node5 -->
<g id="edge4" class="edge"><title>Node3&#45;&gt;Node5</title>
<path fill="none" stroke="midnightblue" d="M163.966,-50.3804C150.591,-40.6204 133.441,-28.1057 122.106,-19.8339"/>
<polygon fill="midnightblue" stroke="midnightblue" points="161.97,-53.2565 172.111,-56.324 166.096,-47.602 161.97,-53.2565"/>
</g>
<!-- Node3&#45;&gt;Node6 -->
<g id="edge5" class="edge"><title>Node3&#45;&gt;Node6</title>
<path fill="none" stroke="midnightblue" d="M184,-45.8045C184,-36.9102 184,-26.7798 184,-19.7511"/>
<polygon fill="midnightblue" stroke="midnightblue" points="180.5,-46.083 184,-56.083 187.5,-46.083 180.5,-46.083"/>
</g>
<!-- Node3&#45;&gt;Node7 -->
<g id="edge6" class="edge"><title>Node3&#45;&gt;Node7</title>
<path fill="none" stroke="midnightblue" d="M206.099,-50.6221C221.262,-40.7574 240.883,-27.9919 253.698,-19.6545"/>
<polygon fill="midnightblue" stroke="midnightblue" points="203.809,-47.9367 197.335,-56.324 207.626,-53.8042 203.809,-47.9367"/>
</g>
<!-- Node3&#45;&gt;Node8 -->
<g id="edge7" class="edge"><title>Node3&#45;&gt;Node8</title>
<path fill="none" stroke="midnightblue" d="M217.095,-54.4876C249.185,-44.2943 297.268,-29.0209 327.081,-19.5509"/>
<polygon fill="midnightblue" stroke="midnightblue" points="215.752,-51.2415 207.281,-57.6048 217.872,-57.913 215.752,-51.2415"/>
</g>
<!-- Node3&#45;&gt;Node9 -->
<g id="edge8" class="edge"><title>Node3&#45;&gt;Node9</title>
<path fill="none" stroke="midnightblue" d="M217.152,-58.2132C258.922,-49.6049 332.882,-34.1714 396,-20 398.646,-19.4059 401.393,-18.7778 404.145,-18.1407"/>
<polygon fill="midnightblue" stroke="midnightblue" points="216.342,-54.8065 207.253,-60.2498 217.753,-61.6629 216.342,-54.8065"/>
</g>
</g>
</svg>
