<?xml version="1.0" encoding="UTF-8" standalone="no"?>
<!DOCTYPE svg PUBLIC "-//W3C//DTD SVG 1.1//EN"
 "http://www.w3.org/Graphics/SVG/1.1/DTD/svg11.dtd">
<!-- Generated by graphviz version 2.38.0 (20140413.2041)
 -->
<!-- Title: main.cpp Pages: 1 -->
<!--zoomable 252 -->
<svg id="main" version="1.1" xmlns="http://www.w3.org/2000/svg" xmlns:xlink="http://www.w3.org/1999/xlink" xml:space="preserve" onload="init(evt)">
<style type="text/css"><![CDATA[
.edge:hover path { stroke: red; }
.edge:hover polygon { stroke: red; fill: red; }
]]></style>
<script type="text/javascript"><![CDATA[
var edges = document.getElementsByTagName('g');
if (edges && edges.length) {
  for (var i=0;i<edges.length;i++) {
    if (edges[i].id.substr(0,4)=='edge') {
      edges[i].setAttribute('class','edge');
    }
  }
}
]]></script>
        <defs>
                <circle id="rim" cx="0" cy="0" r="7"/>
                <circle id="rim2" cx="0" cy="0" r="3.5"/>
                <g id="zoomPlus">
                        <use xlink:href="#rim" fill="#404040">
                                <set attributeName="fill" to="#808080" begin="zoomplus.mouseover" end="zoomplus.mouseout"/>
                        </use>
                        <path d="M-4,0h8M0,-4v8" fill="none" stroke="white" stroke-width="1.5" pointer-events="none"/>
                </g>
                <g id="zoomMin">
                        <use xlink:href="#rim" fill="#404040">
                                <set attributeName="fill" to="#808080" begin="zoomminus.mouseover" end="zoomminus.mouseout"/>
                        </use>
                        <path d="M-4,0h8" fill="none" stroke="white" stroke-width="1.5" pointer-events="none"/>
                </g>
                <g id="dirArrow">
                        <path fill="none" stroke="white" stroke-width="1.5" d="M0,-3.0v7 M-2.5,-0.5L0,-3.0L2.5,-0.5"/>
                </g>
               <g id="resetDef">
                       <use xlink:href="#rim2" fill="#404040">
                               <set attributeName="fill" to="#808080" begin="reset.mouseover" end="reset.mouseout"/>
                       </use>
               </g>
        </defs>

<script type="text/javascript">
var viewWidth = 1330;
var viewHeight = 252;
var sectionId = 'dynsection-0';
</script>
<script xlink:href="svgpan.js"/>
<svg id="graph" class="graph">
<g id="viewport">
<title>main.cpp</title>
<!-- Node0 -->
<g id="node1" class="node"><title>Node0</title>
<polygon fill="#bfbfbf" stroke="black" points="241.5,-224.5 241.5,-243.5 297.5,-243.5 297.5,-224.5 241.5,-224.5"/>
<text text-anchor="middle" x="269.5" y="-231.5" font-family="Helvetica,sans-Serif" font-size="10.00">main.cpp</text>
</g>
<!-- Node1 -->
<g id="node2" class="node"><title>Node1</title>
<polygon fill="none" stroke="#bfbfbf" points="0,-168.5 0,-187.5 49,-187.5 49,-168.5 0,-168.5"/>
<text text-anchor="middle" x="24.5" y="-175.5" font-family="Helvetica,sans-Serif" font-size="10.00">avr/io.h</text>
</g>
<!-- Node0&#45;&gt;Node1 -->
<g id="edge1" class="edge"><title>Node0&#45;&gt;Node1</title>
<path fill="none" stroke="midnightblue" d="M241.415,-227.463C202.709,-219.734 130.572,-204.979 59.3824,-188.119"/>
<polygon fill="midnightblue" stroke="midnightblue" points="59.8862,-184.641 49.3472,-185.726 58.2629,-191.45 59.8862,-184.641"/>
</g>
<!-- Node2 -->
<g id="node3" class="node"><title>Node2</title>
<polygon fill="none" stroke="#bfbfbf" points="67.5,-168.5 67.5,-187.5 131.5,-187.5 131.5,-168.5 67.5,-168.5"/>
<text text-anchor="middle" x="99.5" y="-175.5" font-family="Helvetica,sans-Serif" font-size="10.00">util/delay.h</text>
</g>
<!-- Node0&#45;&gt;Node2 -->
<g id="edge2" class="edge"><title>Node0&#45;&gt;Node2</title>
<path fill="none" stroke="midnightblue" d="M242.563,-224.444C213.84,-215.32 168.171,-200.813 136.179,-190.651"/>
<polygon fill="midnightblue" stroke="midnightblue" points="136.901,-187.208 126.311,-187.516 134.782,-193.88 136.901,-187.208"/>
</g>
<!-- Node3 -->
<g id="node4" class="node"><title>Node3</title>
<polygon fill="none" stroke="#bfbfbf" points="149.5,-168.5 149.5,-187.5 201.5,-187.5 201.5,-168.5 149.5,-168.5"/>
<text text-anchor="middle" x="175.5" y="-175.5" font-family="Helvetica,sans-Serif" font-size="10.00">stddef.h</text>
</g>
<!-- Node0&#45;&gt;Node3 -->
<g id="edge3" class="edge"><title>Node0&#45;&gt;Node3</title>
<path fill="none" stroke="midnightblue" d="M254.397,-224.324C239.597,-215.822 216.806,-202.729 199.518,-192.797"/>
<polygon fill="midnightblue" stroke="midnightblue" points="200.98,-189.601 190.565,-187.655 197.493,-195.671 200.98,-189.601"/>
</g>
<!-- Node4 -->
<g id="node5" class="node"><title>Node4</title>
<polygon fill="none" stroke="#bfbfbf" points="219.5,-168.5 219.5,-187.5 267.5,-187.5 267.5,-168.5 219.5,-168.5"/>
<text text-anchor="middle" x="243.5" y="-175.5" font-family="Helvetica,sans-Serif" font-size="10.00">stdlib.h</text>
</g>
<!-- Node0&#45;&gt;Node4 -->
<g id="edge4" class="edge"><title>Node0&#45;&gt;Node4</title>
<path fill="none" stroke="midnightblue" d="M265.207,-224.083C261.648,-216.691 256.478,-205.953 252.076,-196.811"/>
<polygon fill="midnightblue" stroke="midnightblue" points="255.205,-195.243 247.713,-187.751 248.898,-198.279 255.205,-195.243"/>
</g>
<!-- Node5 -->
<g id="node6" class="node"><title>Node5</title>
<g id="a_node6"><a xlink:href="main_8h.html" target="_top" xlink:title="The main.h file regroup global constant declaration. ">
<polygon fill="none" stroke="black" points="570.5,-0.5 570.5,-19.5 638.5,-19.5 638.5,-0.5 570.5,-0.5"/>
<text text-anchor="middle" x="604.5" y="-7.5" font-family="Helvetica,sans-Serif" font-size="10.00">../lib/main.h</text>
</a>
</g>
</g>
<!-- Node0&#45;&gt;Node5 -->
<g id="edge5" class="edge"><title>Node0&#45;&gt;Node5</title>
<path fill="none" stroke="midnightblue" d="M270.238,-224.334C272.564,-202.4 281.673,-144.147 314.5,-112 382.694,-45.2171 497.341,-22.4453 560.114,-14.7892"/>
<polygon fill="midnightblue" stroke="midnightblue" points="560.562,-18.2609 570.099,-13.6461 559.766,-11.3063 560.562,-18.2609"/>
</g>
<!-- Node6 -->
<g id="node7" class="node"><title>Node6</title>
<g id="a_node7"><a xlink:href="_f_s_m_8h.html" target="_top" xlink:title="The FSM is the finish state machine mechanism. ">
<polygon fill="none" stroke="black" points="738.5,-168.5 738.5,-187.5 806.5,-187.5 806.5,-168.5 738.5,-168.5"/>
<text text-anchor="middle" x="772.5" y="-175.5" font-family="Helvetica,sans-Serif" font-size="10.00">../lib/FSM.h</text>
</a>
</g>
</g>
<!-- Node0&#45;&gt;Node6 -->
<g id="edge6" class="edge"><title>Node0&#45;&gt;Node6</title>
<path fill="none" stroke="midnightblue" d="M297.621,-229.981C380.947,-221.036 627.02,-194.618 728.242,-183.751"/>
<polygon fill="midnightblue" stroke="midnightblue" points="728.862,-187.205 738.431,-182.658 728.114,-180.245 728.862,-187.205"/>
</g>
<!-- Node7 -->
<g id="node8" class="node"><title>Node7</title>
<g id="a_node8"><a xlink:href="_usart_8h.html" target="_top" xlink:title="This is the uart library for the atmega1284p. ">
<polygon fill="none" stroke="black" points="324,-112.5 324,-131.5 395,-131.5 395,-112.5 324,-112.5"/>
<text text-anchor="middle" x="359.5" y="-119.5" font-family="Helvetica,sans-Serif" font-size="10.00">../lib/Usart.h</text>
</a>
</g>
</g>
<!-- Node0&#45;&gt;Node7 -->
<g id="edge28" class="edge"><title>Node0&#45;&gt;Node7</title>
<path fill="none" stroke="midnightblue" d="M277.659,-224.198C285.879,-215.243 298.839,-200.886 309.5,-188 322.773,-171.957 337.199,-153.03 347.129,-139.75"/>
<polygon fill="midnightblue" stroke="midnightblue" points="350.058,-141.677 353.215,-131.564 344.44,-137.501 350.058,-141.677"/>
</g>
<!-- Node14 -->
<g id="node15" class="node"><title>Node14</title>
<g id="a_node15"><a xlink:href="_state_8h.html" target="_top" xlink:title="Brief description of file. ">
<polygon fill="none" stroke="black" points="1064.5,-56.5 1064.5,-75.5 1134.5,-75.5 1134.5,-56.5 1064.5,-56.5"/>
<text text-anchor="middle" x="1099.5" y="-63.5" font-family="Helvetica,sans-Serif" font-size="10.00">../lib/State.h</text>
</a>
</g>
</g>
<!-- Node0&#45;&gt;Node14 -->
<g id="edge27" class="edge"><title>Node0&#45;&gt;Node14</title>
<path fill="none" stroke="midnightblue" d="M297.666,-232.493C457.118,-229.335 1241.91,-209.89 1311.5,-132 1360.06,-77.6437 1220.82,-68.136 1145.01,-66.87"/>
<polygon fill="midnightblue" stroke="midnightblue" points="1144.8,-63.3673 1134.76,-66.7422 1144.72,-70.3667 1144.8,-63.3673"/>
</g>
<!-- Node6&#45;&gt;Node7 -->
<g id="edge7" class="edge"><title>Node6&#45;&gt;Node7</title>
<path fill="none" stroke="midnightblue" d="M738.386,-173.701C674.92,-167.374 534.213,-152.466 405.362,-132.026"/>
<polygon fill="midnightblue" stroke="midnightblue" points="405.745,-128.543 395.317,-130.418 404.638,-135.455 405.745,-128.543"/>
</g>
<!-- Node8 -->
<g id="node9" class="node"><title>Node8</title>
<g id="a_node9"><a xlink:href="_t_w_i_8h.html" target="_top" xlink:title="Brief description of file. ">
<polygon fill="none" stroke="black" points="787,-112.5 787,-131.5 852,-131.5 852,-112.5 787,-112.5"/>
<text text-anchor="middle" x="819.5" y="-119.5" font-family="Helvetica,sans-Serif" font-size="10.00">../lib/TWI.h</text>
</a>
</g>
</g>
<!-- Node6&#45;&gt;Node8 -->
<g id="edge8" class="edge"><title>Node6&#45;&gt;Node8</title>
<path fill="none" stroke="midnightblue" d="M780.261,-168.083C787.037,-160.298 797.043,-148.801 805.255,-139.367"/>
<polygon fill="midnightblue" stroke="midnightblue" points="807.958,-141.592 811.883,-131.751 802.678,-136.996 807.958,-141.592"/>
</g>
<!-- Node9 -->
<g id="node10" class="node"><title>Node9</title>
<g id="a_node10"><a xlink:href="_r_t_c_8h.html" target="_top" xlink:title="The RTC class regroup methods and parameters to use the Real Time Clock : pcf8563. ">
<polygon fill="none" stroke="black" points="870.5,-112.5 870.5,-131.5 938.5,-131.5 938.5,-112.5 870.5,-112.5"/>
<text text-anchor="middle" x="904.5" y="-119.5" font-family="Helvetica,sans-Serif" font-size="10.00">../lib/RTC.h</text>
</a>
</g>
</g>
<!-- Node6&#45;&gt;Node9 -->
<g id="edge9" class="edge"><title>Node6&#45;&gt;Node9</title>
<path fill="none" stroke="midnightblue" d="M793.416,-168.444C815.236,-159.517 849.65,-145.439 874.392,-135.317"/>
<polygon fill="midnightblue" stroke="midnightblue" points="875.752,-138.542 883.682,-131.516 873.101,-132.063 875.752,-138.542"/>
</g>
<!-- Node10 -->
<g id="node11" class="node"><title>Node10</title>
<g id="a_node11"><a xlink:href="_windvane_8h.html" target="_top" xlink:title="Brief description of file. ">
<polygon fill="none" stroke="black" points="413.5,-112.5 413.5,-131.5 503.5,-131.5 503.5,-112.5 413.5,-112.5"/>
<text text-anchor="middle" x="458.5" y="-119.5" font-family="Helvetica,sans-Serif" font-size="10.00">../lib/Windvane.h</text>
</a>
</g>
</g>
<!-- Node6&#45;&gt;Node10 -->
<g id="edge10" class="edge"><title>Node6&#45;&gt;Node10</title>
<path fill="none" stroke="midnightblue" d="M738.299,-171.118C684.209,-161.816 578.42,-143.623 513.548,-132.467"/>
<polygon fill="midnightblue" stroke="midnightblue" points="513.951,-128.985 503.502,-130.739 512.764,-135.884 513.951,-128.985"/>
</g>
<!-- Node12 -->
<g id="node13" class="node"><title>Node12</title>
<g id="a_node13"><a xlink:href="_anemometer_8h.html" target="_top" xlink:title="Brief description of file. ">
<polygon fill="none" stroke="black" points="521.5,-112.5 521.5,-131.5 623.5,-131.5 623.5,-112.5 521.5,-112.5"/>
<text text-anchor="middle" x="572.5" y="-119.5" font-family="Helvetica,sans-Serif" font-size="10.00">../lib/Anemometer.h</text>
</a>
</g>
</g>
<!-- Node6&#45;&gt;Node12 -->
<g id="edge13" class="edge"><title>Node6&#45;&gt;Node12</title>
<path fill="none" stroke="midnightblue" d="M740.809,-168.444C706.432,-159.162 651.423,-144.309 613.711,-134.127"/>
<polygon fill="midnightblue" stroke="midnightblue" points="614.609,-130.744 604.042,-131.516 612.784,-137.502 614.609,-130.744"/>
</g>
<!-- Node13 -->
<g id="node14" class="node"><title>Node13</title>
<g id="a_node14"><a xlink:href="_power_8h.html" target="_top" xlink:title="../lib/Power.h">
<polygon fill="none" stroke="black" points="614.5,-56.5 614.5,-75.5 688.5,-75.5 688.5,-56.5 614.5,-56.5"/>
<text text-anchor="middle" x="651.5" y="-63.5" font-family="Helvetica,sans-Serif" font-size="10.00">../lib/Power.h</text>
</a>
</g>
</g>
<!-- Node6&#45;&gt;Node13 -->
<g id="edge15" class="edge"><title>Node6&#45;&gt;Node13</title>
<path fill="none" stroke="midnightblue" d="M738.202,-169.794C715.964,-163.424 687.981,-151.938 670.5,-132 659.247,-119.165 654.646,-99.9816 652.772,-85.7788"/>
<polygon fill="midnightblue" stroke="midnightblue" points="656.241,-85.2823 651.779,-75.6727 649.274,-85.9671 656.241,-85.2823"/>
</g>
<!-- Node6&#45;&gt;Node14 -->
<g id="edge17" class="edge"><title>Node6&#45;&gt;Node14</title>
<path fill="none" stroke="midnightblue" d="M806.778,-170.651C842.6,-163.449 900.084,-150.286 947.5,-132 965.307,-125.133 968.154,-119.96 985.5,-112 1012.12,-99.786 1043.06,-87.6982 1065.99,-79.1313"/>
<polygon fill="midnightblue" stroke="midnightblue" points="1067.44,-82.3263 1075.61,-75.5703 1065.01,-75.7623 1067.44,-82.3263"/>
</g>
<!-- Node15 -->
<g id="node16" class="node"><title>Node15</title>
<g id="a_node16"><a xlink:href="st___config_8h.html" target="_top" xlink:title="../lib/st_Config.h">
<polygon fill="none" stroke="black" points="680,-112.5 680,-131.5 769,-131.5 769,-112.5 680,-112.5"/>
<text text-anchor="middle" x="724.5" y="-119.5" font-family="Helvetica,sans-Serif" font-size="10.00">../lib/st_Config.h</text>
</a>
</g>
</g>
<!-- Node6&#45;&gt;Node15 -->
<g id="edge18" class="edge"><title>Node6&#45;&gt;Node15</title>
<path fill="none" stroke="midnightblue" d="M764.574,-168.083C757.654,-160.298 747.435,-148.801 739.048,-139.367"/>
<polygon fill="midnightblue" stroke="midnightblue" points="741.538,-136.9 732.279,-131.751 736.306,-141.55 741.538,-136.9"/>
</g>
<!-- Node16 -->
<g id="node17" class="node"><title>Node16</title>
<g id="a_node17"><a xlink:href="st___measure_8h.html" target="_top" xlink:title="../lib/st_Measure.h">
<polygon fill="none" stroke="black" points="994.5,-112.5 994.5,-131.5 1092.5,-131.5 1092.5,-112.5 994.5,-112.5"/>
<text text-anchor="middle" x="1043.5" y="-119.5" font-family="Helvetica,sans-Serif" font-size="10.00">../lib/st_Measure.h</text>
</a>
</g>
</g>
<!-- Node6&#45;&gt;Node16 -->
<g id="edge21" class="edge"><title>Node6&#45;&gt;Node16</title>
<path fill="none" stroke="midnightblue" d="M806.548,-170.216C852.853,-160.989 936.142,-144.392 990.618,-133.537"/>
<polygon fill="midnightblue" stroke="midnightblue" points="991.316,-136.967 1000.44,-131.58 989.948,-130.102 991.316,-136.967"/>
</g>
<!-- Node17 -->
<g id="node18" class="node"><title>Node17</title>
<g id="a_node18"><a xlink:href="st___output_8h.html" target="_top" xlink:title="../lib/st_Output.h">
<polygon fill="none" stroke="black" points="1111,-112.5 1111,-131.5 1200,-131.5 1200,-112.5 1111,-112.5"/>
<text text-anchor="middle" x="1155.5" y="-119.5" font-family="Helvetica,sans-Serif" font-size="10.00">../lib/st_Output.h</text>
</a>
</g>
</g>
<!-- Node6&#45;&gt;Node17 -->
<g id="edge23" class="edge"><title>Node6&#45;&gt;Node17</title>
<path fill="none" stroke="midnightblue" d="M806.648,-172.663C864.771,-165.21 986.886,-149.236 1100.79,-132.069"/>
<polygon fill="midnightblue" stroke="midnightblue" points="1101.36,-135.523 1110.73,-130.566 1100.32,-128.601 1101.36,-135.523"/>
</g>
<!-- Node18 -->
<g id="node19" class="node"><title>Node18</title>
<g id="a_node19"><a xlink:href="st___sleep_8h.html" target="_top" xlink:title="../lib/st_Sleep.h">
<polygon fill="none" stroke="black" points="1218,-112.5 1218,-131.5 1303,-131.5 1303,-112.5 1218,-112.5"/>
<text text-anchor="middle" x="1260.5" y="-119.5" font-family="Helvetica,sans-Serif" font-size="10.00">../lib/st_Sleep.h</text>
</a>
</g>
</g>
<!-- Node6&#45;&gt;Node18 -->
<g id="edge25" class="edge"><title>Node6&#45;&gt;Node18</title>
<path fill="none" stroke="midnightblue" d="M806.515,-174.288C878.47,-168.381 1051.59,-153.263 1207.71,-132.014"/>
<polygon fill="midnightblue" stroke="midnightblue" points="1208.54,-135.433 1217.97,-130.605 1207.59,-128.498 1208.54,-135.433"/>
</g>
<!-- Node11 -->
<g id="node12" class="node"><title>Node11</title>
<g id="a_node12"><a xlink:href="_sensor_8h.html" target="_top" xlink:title="This class is the base class of sensor. ">
<polygon fill="none" stroke="black" points="519,-56.5 519,-75.5 596,-75.5 596,-56.5 519,-56.5"/>
<text text-anchor="middle" x="557.5" y="-63.5" font-family="Helvetica,sans-Serif" font-size="10.00">../lib/Sensor.h</text>
</a>
</g>
</g>
<!-- Node10&#45;&gt;Node11 -->
<g id="edge11" class="edge"><title>Node10&#45;&gt;Node11</title>
<path fill="none" stroke="midnightblue" d="M474.406,-112.324C490.138,-103.743 514.442,-90.486 532.709,-80.5224"/>
<polygon fill="midnightblue" stroke="midnightblue" points="534.53,-83.5157 541.633,-75.6545 531.178,-77.3704 534.53,-83.5157"/>
</g>
<!-- Node11&#45;&gt;Node5 -->
<g id="edge12" class="edge"><title>Node11&#45;&gt;Node5</title>
<path fill="none" stroke="midnightblue" d="M565.261,-56.083C572.037,-48.2982 582.043,-36.8015 590.255,-27.3665"/>
<polygon fill="midnightblue" stroke="midnightblue" points="592.958,-29.592 596.883,-19.7511 587.678,-24.9963 592.958,-29.592"/>
</g>
<!-- Node12&#45;&gt;Node11 -->
<g id="edge14" class="edge"><title>Node12&#45;&gt;Node11</title>
<path fill="none" stroke="midnightblue" d="M570.023,-112.083C568.014,-104.849 565.114,-94.4087 562.61,-85.3968"/>
<polygon fill="midnightblue" stroke="midnightblue" points="565.98,-84.4495 559.931,-75.7511 559.235,-86.323 565.98,-84.4495"/>
</g>
<!-- Node13&#45;&gt;Node5 -->
<g id="edge16" class="edge"><title>Node13&#45;&gt;Node5</title>
<path fill="none" stroke="midnightblue" d="M643.739,-56.083C636.963,-48.2982 626.957,-36.8015 618.745,-27.3665"/>
<polygon fill="midnightblue" stroke="midnightblue" points="621.322,-24.9963 612.117,-19.7511 616.042,-29.592 621.322,-24.9963"/>
</g>
<!-- Node15&#45;&gt;Node5 -->
<g id="edge19" class="edge"><title>Node15&#45;&gt;Node5</title>
<path fill="none" stroke="midnightblue" d="M722.958,-112.346C720.133,-98.7731 712.939,-72.3449 697.5,-56 683.263,-40.9275 662.921,-30.2918 644.891,-23.1591"/>
<polygon fill="midnightblue" stroke="midnightblue" points="645.758,-19.7478 635.165,-19.5509 643.324,-26.3108 645.758,-19.7478"/>
</g>
<!-- Node15&#45;&gt;Node14 -->
<g id="edge20" class="edge"><title>Node15&#45;&gt;Node14</title>
<path fill="none" stroke="midnightblue" d="M769.018,-113.343C771.887,-112.88 774.733,-112.428 777.5,-112 875.844,-96.7815 991.45,-81.1819 1053.9,-72.9438"/>
<polygon fill="midnightblue" stroke="midnightblue" points="1054.73,-76.3644 1064.19,-71.5895 1053.82,-69.4243 1054.73,-76.3644"/>
</g>
<!-- Node16&#45;&gt;Node14 -->
<g id="edge22" class="edge"><title>Node16&#45;&gt;Node14</title>
<path fill="none" stroke="midnightblue" d="M1052.5,-112.324C1060.69,-104.42 1073.01,-92.5482 1082.97,-82.9377"/>
<polygon fill="midnightblue" stroke="midnightblue" points="1085.57,-85.2947 1090.34,-75.8339 1080.71,-80.2558 1085.57,-85.2947"/>
</g>
<!-- Node17&#45;&gt;Node14 -->
<g id="edge24" class="edge"><title>Node17&#45;&gt;Node14</title>
<path fill="none" stroke="midnightblue" d="M1146.5,-112.324C1138.31,-104.42 1125.99,-92.5482 1116.03,-82.9377"/>
<polygon fill="midnightblue" stroke="midnightblue" points="1118.29,-80.2558 1108.66,-75.8339 1113.43,-85.2947 1118.29,-80.2558"/>
</g>
<!-- Node18&#45;&gt;Node14 -->
<g id="edge26" class="edge"><title>Node18&#45;&gt;Node14</title>
<path fill="none" stroke="midnightblue" d="M1234.99,-112.444C1207.9,-103.359 1164.91,-88.9388 1134.63,-78.7831"/>
<polygon fill="midnightblue" stroke="midnightblue" points="1135.49,-75.3781 1124.89,-75.5164 1133.26,-82.0148 1135.49,-75.3781"/>
</g>
</g>
</svg>
        <g id="navigator" transform="translate(0 0)" fill="#404254">
                <rect fill="#f2f5e9" fill-opacity="0.5" stroke="#606060" stroke-width=".5" x="0" y="0" width="60" height="60"/>
                <use id="zoomplus" xlink:href="#zoomPlus" x="17" y="9" onmousedown="handleZoom(evt,'in')"/>
                <use id="zoomminus" xlink:href="#zoomMin" x="42" y="9" onmousedown="handleZoom(evt,'out')"/>
                <use id="reset" xlink:href="#resetDef" x="30" y="36" onmousedown="handleReset()"/>
                <g id="arrowUp" xlink:href="#dirArrow" transform="translate(30 24)" onmousedown="handlePan(0,-1)">
                  <use xlink:href="#rim" fill="#404040">
                        <set attributeName="fill" to="#808080" begin="arrowUp.mouseover" end="arrowUp.mouseout"/>
                  </use>
                  <path fill="none" stroke="white" stroke-width="1.5" d="M0,-3.0v7 M-2.5,-0.5L0,-3.0L2.5,-0.5"/>
                </g>
                <g id="arrowRight" xlink:href="#dirArrow" transform="rotate(90) translate(36 -43)" onmousedown="handlePan(1,0)">
                  <use xlink:href="#rim" fill="#404040">
                        <set attributeName="fill" to="#808080" begin="arrowRight.mouseover" end="arrowRight.mouseout"/>
                  </use>
                  <path fill="none" stroke="white" stroke-width="1.5" d="M0,-3.0v7 M-2.5,-0.5L0,-3.0L2.5,-0.5"/>
                </g>
                <g id="arrowDown" xlink:href="#dirArrow" transform="rotate(180) translate(-30 -48)" onmousedown="handlePan(0,1)">
                  <use xlink:href="#rim" fill="#404040">
                        <set attributeName="fill" to="#808080" begin="arrowDown.mouseover" end="arrowDown.mouseout"/>
                  </use>
                  <path fill="none" stroke="white" stroke-width="1.5" d="M0,-3.0v7 M-2.5,-0.5L0,-3.0L2.5,-0.5"/>
                </g>
                <g id="arrowLeft" xlink:href="#dirArrow" transform="rotate(270) translate(-36 17)" onmousedown="handlePan(-1,0)">
                  <use xlink:href="#rim" fill="#404040">
                        <set attributeName="fill" to="#808080" begin="arrowLeft.mouseover" end="arrowLeft.mouseout"/>
                  </use>
                  <path fill="none" stroke="white" stroke-width="1.5" d="M0,-3.0v7 M-2.5,-0.5L0,-3.0L2.5,-0.5"/>
                </g>
        </g>
        <svg viewBox="0 0 15 15" width="100%" height="30px" preserveAspectRatio="xMaxYMin meet">
         <g id="arrow_out" transform="scale(0.3 0.3)">
          <a xlink:href="main_8cpp__incl_org.svg" target="_base">
           <rect id="button" ry="5" rx="5" y="6" x="6" height="38" width="38"
                fill="#f2f5e9" fill-opacity="0.5" stroke="#606060" stroke-width="1.0"/>
           <path id="arrow"
             d="M 11.500037,31.436501 C 11.940474,20.09759 22.043105,11.32322 32.158766,21.979434 L 37.068811,17.246167 C 37.068811,17.246167 37.088388,32 37.088388,32 L 22.160133,31.978069 C 22.160133,31.978069 26.997745,27.140456 26.997745,27.140456 C 18.528582,18.264221 13.291696,25.230495 11.500037,31.436501 z"
             style="fill:#404040;"/>
          </a>
         </g>
        </svg>
</svg>
