<?xml version="1.0" encoding="UTF-8" standalone="no"?>
<!DOCTYPE svg PUBLIC "-//W3C//DTD SVG 1.1//EN"
 "http://www.w3.org/Graphics/SVG/1.1/DTD/svg11.dtd">
<!-- Generated by graphviz version 2.38.0 (20140413.2041)
 -->
<!-- Title: main Pages: 1 -->
<!--zoomable 425 -->
<svg id="main" version="1.1" xmlns="http://www.w3.org/2000/svg" xmlns:xlink="http://www.w3.org/1999/xlink" xml:space="preserve" onload="init(evt)">
<style type="text/css"><![CDATA[
.edge:hover path { stroke: red; }
.edge:hover polygon { stroke: red; fill: red; }
]]></style>
<script type="text/javascript"><![CDATA[
var edges = document.getElementsByTagName('g');
if (edges && edges.length) {
  for (var i=0;i<edges.length;i++) {
    if (edges[i].id.substr(0,4)=='edge') {
      edges[i].setAttribute('class','edge');
    }
  }
}
]]></script>
        <defs>
                <circle id="rim" cx="0" cy="0" r="7"/>
                <circle id="rim2" cx="0" cy="0" r="3.5"/>
                <g id="zoomPlus">
                        <use xlink:href="#rim" fill="#404040">
                                <set attributeName="fill" to="#808080" begin="zoomplus.mouseover" end="zoomplus.mouseout"/>
                        </use>
                        <path d="M-4,0h8M0,-4v8" fill="none" stroke="white" stroke-width="1.5" pointer-events="none"/>
                </g>
                <g id="zoomMin">
                        <use xlink:href="#rim" fill="#404040">
                                <set attributeName="fill" to="#808080" begin="zoomminus.mouseover" end="zoomminus.mouseout"/>
                        </use>
                        <path d="M-4,0h8" fill="none" stroke="white" stroke-width="1.5" pointer-events="none"/>
                </g>
                <g id="dirArrow">
                        <path fill="none" stroke="white" stroke-width="1.5" d="M0,-3.0v7 M-2.5,-0.5L0,-3.0L2.5,-0.5"/>
                </g>
               <g id="resetDef">
                       <use xlink:href="#rim2" fill="#404040">
                               <set attributeName="fill" to="#808080" begin="reset.mouseover" end="reset.mouseout"/>
                       </use>
               </g>
        </defs>

<script type="text/javascript">
var viewWidth = 780;
var viewHeight = 425;
var sectionId = 'dynsection-0';
</script>
<script xlink:href="svgpan.js"/>
<svg id="graph" class="graph">
<g id="viewport">
<title>main</title>
<!-- Node0 -->
<g id="node1" class="node"><title>Node0</title>
<polygon fill="#bfbfbf" stroke="black" points="0,-88.5 0,-107.5 38,-107.5 38,-88.5 0,-88.5"/>
<text text-anchor="middle" x="19" y="-95.5" font-family="Helvetica,sans-Serif" font-size="10.00">main</text>
</g>
<!-- Node1 -->
<g id="node2" class="node"><title>Node1</title>
<g id="a_node2"><a xlink:href="class_f_s_m.html#a3819be8e9fe92b750f47b9731e92f254" target="_top" xlink:title="Call when a string from usart0 finish by &quot;\r\n&quot;. ">
<polygon fill="none" stroke="black" points="74,-221.5 74,-240.5 211,-240.5 211,-221.5 74,-221.5"/>
<text text-anchor="middle" x="142.5" y="-228.5" font-family="Helvetica,sans-Serif" font-size="10.00">FSM::character_processing</text>
</a>
</g>
</g>
<!-- Node0&#45;&gt;Node1 -->
<g id="edge1" class="edge"><title>Node0&#45;&gt;Node1</title>
<path fill="none" stroke="midnightblue" d="M28.738,-107.565C49.0425,-129.791 99.6491,-185.188 125.601,-213.597"/>
<polygon fill="midnightblue" stroke="midnightblue" points="123.185,-216.14 132.513,-221.163 128.353,-211.419 123.185,-216.14"/>
</g>
<!-- Node5 -->
<g id="node6" class="node"><title>Node5</title>
<g id="a_node6"><a xlink:href="class_usart.html#ab236d7c399791bbe1431f85e9b60f601" target="_top" xlink:title="USART string sender function. ">
<polygon fill="none" stroke="black" points="542.5,-145.5 542.5,-164.5 607.5,-164.5 607.5,-145.5 542.5,-145.5"/>
<text text-anchor="middle" x="575" y="-152.5" font-family="Helvetica,sans-Serif" font-size="10.00">Usart::print</text>
</a>
</g>
</g>
<!-- Node0&#45;&gt;Node5 -->
<g id="edge23" class="edge"><title>Node0&#45;&gt;Node5</title>
<path fill="none" stroke="midnightblue" d="M38.1522,-105.731C48.4723,-109.782 61.7452,-114.425 74,-117 241.045,-152.096 445.515,-155.723 532.091,-155.498"/>
<polygon fill="midnightblue" stroke="midnightblue" points="532.313,-158.997 542.297,-155.451 532.281,-151.997 532.313,-158.997"/>
</g>
<!-- Node12 -->
<g id="node13" class="node"><title>Node12</title>
<g id="a_node13"><a xlink:href="class_f_s_m.html#a8a6e956375ea383f83fdd076badbe5a7" target="_top" xlink:title="This method execute the next state. ">
<polygon fill="none" stroke="black" points="103.5,-88.5 103.5,-107.5 181.5,-107.5 181.5,-88.5 103.5,-88.5"/>
<text text-anchor="middle" x="142.5" y="-95.5" font-family="Helvetica,sans-Serif" font-size="10.00">FSM::execute</text>
</a>
</g>
</g>
<!-- Node0&#45;&gt;Node12 -->
<g id="edge17" class="edge"><title>Node0&#45;&gt;Node12</title>
<path fill="none" stroke="midnightblue" d="M38.1898,-98C52.7235,-98 73.7884,-98 93.1112,-98"/>
<polygon fill="midnightblue" stroke="midnightblue" points="93.3126,-101.5 103.313,-98 93.3125,-94.5001 93.3126,-101.5"/>
</g>
<!-- Node15 -->
<g id="node16" class="node"><title>Node15</title>
<g id="a_node16"><a xlink:href="class_f_s_m.html#a96c6ea489297a70669bef5d29b3d889c" target="_top" xlink:title="This method control if a new measure is needed. ">
<polygon fill="none" stroke="black" points="75.5,-39 75.5,-69 209.5,-69 209.5,-39 75.5,-39"/>
<text text-anchor="start" x="83.5" y="-57" font-family="Helvetica,sans-Serif" font-size="10.00">FSM::measurement_timing</text>
<text text-anchor="middle" x="142.5" y="-46" font-family="Helvetica,sans-Serif" font-size="10.00">_control</text>
</a>
</g>
</g>
<!-- Node0&#45;&gt;Node15 -->
<g id="edge21" class="edge"><title>Node0&#45;&gt;Node15</title>
<path fill="none" stroke="midnightblue" d="M38.1898,-91.4128C52.0577,-86.3906 71.8719,-79.2151 90.4451,-72.489"/>
<polygon fill="midnightblue" stroke="midnightblue" points="91.7958,-75.7224 100.007,-69.0264 89.4123,-69.1407 91.7958,-75.7224"/>
</g>
<!-- Node16 -->
<g id="node17" class="node"><title>Node16</title>
<g id="a_node17"><a xlink:href="class_f_s_m.html#a22fc8c194ad489ef718067ab60bcebd6" target="_top" xlink:title="This method define the next state from hardware and software flags. ">
<polygon fill="none" stroke="black" points="75.5,-0.5 75.5,-19.5 209.5,-19.5 209.5,-0.5 75.5,-0.5"/>
<text text-anchor="middle" x="142.5" y="-7.5" font-family="Helvetica,sans-Serif" font-size="10.00">FSM::new_State_definition</text>
</a>
</g>
</g>
<!-- Node0&#45;&gt;Node16 -->
<g id="edge22" class="edge"><title>Node0&#45;&gt;Node16</title>
<path fill="none" stroke="midnightblue" d="M24.8947,-88.3946C33.0262,-73.4122 50.7514,-44.5853 74,-29 77.0621,-26.9472 80.3442,-25.1143 83.7515,-23.4778"/>
<polygon fill="midnightblue" stroke="midnightblue" points="85.1367,-26.6922 92.9977,-19.589 82.4229,-20.2397 85.1367,-26.6922"/>
</g>
<!-- Node2 -->
<g id="node3" class="node"><title>Node2</title>
<g id="a_node3"><a xlink:href="class_config.html#a3f8d043789557191686ae632ebe6a571" target="_top" xlink:title="add c to the end of request ">
<polygon fill="none" stroke="black" points="381,-202.5 381,-221.5 496,-221.5 496,-202.5 381,-202.5"/>
<text text-anchor="middle" x="438.5" y="-209.5" font-family="Helvetica,sans-Serif" font-size="10.00">Config::addToRequest</text>
</a>
</g>
</g>
<!-- Node1&#45;&gt;Node2 -->
<g id="edge2" class="edge"><title>Node1&#45;&gt;Node2</title>
<path fill="none" stroke="midnightblue" d="M211.319,-226.617C259.189,-223.523 323.028,-219.398 370.675,-216.319"/>
<polygon fill="midnightblue" stroke="midnightblue" points="371.136,-219.796 380.889,-215.659 370.684,-212.811 371.136,-219.796"/>
</g>
<!-- Node3 -->
<g id="node4" class="node"><title>Node3</title>
<g id="a_node4"><a xlink:href="class_usart.html#a86c9264f48dabbc3d97fa32d2d02d22d" target="_top" xlink:title="USART char sender function. ">
<polygon fill="none" stroke="black" points="266,-316.5 266,-335.5 326,-335.5 326,-316.5 266,-316.5"/>
<text text-anchor="middle" x="296" y="-323.5" font-family="Helvetica,sans-Serif" font-size="10.00">Usart::set</text>
</a>
</g>
</g>
<!-- Node1&#45;&gt;Node3 -->
<g id="edge3" class="edge"><title>Node1&#45;&gt;Node3</title>
<path fill="none" stroke="midnightblue" d="M154.639,-240.689C172.93,-256.24 210.909,-287.042 247,-307 250.474,-308.921 254.183,-310.746 257.942,-312.451"/>
<polygon fill="midnightblue" stroke="midnightblue" points="256.71,-315.731 267.281,-316.428 259.452,-309.29 256.71,-315.731"/>
</g>
<!-- Node4 -->
<g id="node5" class="node"><title>Node4</title>
<g id="a_node5"><a xlink:href="class_config.html#aad107d2aa88bbf57a728ec0c650a6f84" target="_top" xlink:title="Config::backspace">
<polygon fill="none" stroke="black" points="247,-278.5 247,-297.5 345,-297.5 345,-278.5 247,-278.5"/>
<text text-anchor="middle" x="296" y="-285.5" font-family="Helvetica,sans-Serif" font-size="10.00">Config::backspace</text>
</a>
</g>
</g>
<!-- Node1&#45;&gt;Node4 -->
<g id="edge4" class="edge"><title>Node1&#45;&gt;Node4</title>
<path fill="none" stroke="midnightblue" d="M168.858,-240.541C193.874,-249.953 232.31,-264.414 260.181,-274.9"/>
<polygon fill="midnightblue" stroke="midnightblue" points="258.968,-278.183 269.56,-278.428 261.433,-271.631 258.968,-278.183"/>
</g>
<!-- Node1&#45;&gt;Node5 -->
<g id="edge5" class="edge"><title>Node1&#45;&gt;Node5</title>
<path fill="none" stroke="midnightblue" d="M197.587,-221.452C284.685,-206.075 454.156,-176.157 532.476,-162.331"/>
<polygon fill="midnightblue" stroke="midnightblue" points="533.219,-165.754 542.458,-160.568 532.002,-158.86 533.219,-165.754"/>
</g>
<!-- Node6 -->
<g id="node7" class="node"><title>Node6</title>
<g id="a_node7"><a xlink:href="class_config.html#a5ae6c4f7255e895e7384fc2a4baab160" target="_top" xlink:title="Config::endString">
<polygon fill="none" stroke="black" points="250,-240.5 250,-259.5 342,-259.5 342,-240.5 250,-240.5"/>
<text text-anchor="middle" x="296" y="-247.5" font-family="Helvetica,sans-Serif" font-size="10.00">Config::endString</text>
</a>
</g>
</g>
<!-- Node1&#45;&gt;Node6 -->
<g id="edge6" class="edge"><title>Node1&#45;&gt;Node6</title>
<path fill="none" stroke="midnightblue" d="M211.274,-239.5C220.776,-240.691 230.447,-241.904 239.681,-243.062"/>
<polygon fill="midnightblue" stroke="midnightblue" points="239.53,-246.571 249.888,-244.342 240.401,-239.625 239.53,-246.571"/>
</g>
<!-- Node6&#45;&gt;Node2 -->
<g id="edge9" class="edge"><title>Node6&#45;&gt;Node2</title>
<path fill="none" stroke="midnightblue" d="M332.454,-240.411C350.591,-235.506 372.868,-229.48 392.233,-224.243"/>
<polygon fill="midnightblue" stroke="midnightblue" points="393.318,-227.575 402.057,-221.586 391.49,-220.818 393.318,-227.575"/>
</g>
<!-- Node7 -->
<g id="node8" class="node"><title>Node7</title>
<g id="a_node8"><a xlink:href="class_config.html#a975933ecde91dc436d4ca39464cfd25f" target="_top" xlink:title="display all config on USART0 ">
<polygon fill="none" stroke="black" points="397.5,-240.5 397.5,-259.5 479.5,-259.5 479.5,-240.5 397.5,-240.5"/>
<text text-anchor="middle" x="438.5" y="-247.5" font-family="Helvetica,sans-Serif" font-size="10.00">Config::display</text>
</a>
</g>
</g>
<!-- Node6&#45;&gt;Node7 -->
<g id="edge7" class="edge"><title>Node6&#45;&gt;Node7</title>
<path fill="none" stroke="midnightblue" d="M342.228,-250C356.43,-250 372.201,-250 386.758,-250"/>
<polygon fill="midnightblue" stroke="midnightblue" points="387.103,-253.5 397.103,-250 387.103,-246.5 387.103,-253.5"/>
</g>
<!-- Node8 -->
<g id="node9" class="node"><title>Node8</title>
<g id="a_node9"><a xlink:href="class_config.html#a890e1d585e9ae670a6cccaf196250870" target="_top" xlink:title="Config::atoc">
<polygon fill="none" stroke="black" points="403.5,-354.5 403.5,-373.5 473.5,-373.5 473.5,-354.5 403.5,-354.5"/>
<text text-anchor="middle" x="438.5" y="-361.5" font-family="Helvetica,sans-Serif" font-size="10.00">Config::atoc</text>
</a>
</g>
</g>
<!-- Node6&#45;&gt;Node8 -->
<g id="edge10" class="edge"><title>Node6&#45;&gt;Node8</title>
<path fill="none" stroke="midnightblue" d="M330.93,-259.652C336.038,-262.128 340.944,-265.202 345,-269 372.279,-294.549 353.059,-320.175 381,-345 384.866,-348.435 389.375,-351.252 394.129,-353.563"/>
<polygon fill="midnightblue" stroke="midnightblue" points="392.89,-356.838 403.469,-357.411 395.556,-350.366 392.89,-356.838"/>
</g>
<!-- Node9 -->
<g id="node10" class="node"><title>Node9</title>
<g id="a_node10"><a xlink:href="class_config.html#ab55107c3371b6c41be6688c0989993c7" target="_top" xlink:title="Load saved config data from the eeprom. ">
<polygon fill="none" stroke="black" points="385,-316.5 385,-335.5 492,-335.5 492,-316.5 385,-316.5"/>
<text text-anchor="middle" x="438.5" y="-323.5" font-family="Helvetica,sans-Serif" font-size="10.00">Config::load_eeprom</text>
</a>
</g>
</g>
<!-- Node6&#45;&gt;Node9 -->
<g id="edge11" class="edge"><title>Node6&#45;&gt;Node9</title>
<path fill="none" stroke="midnightblue" d="M326.006,-259.506C332.478,-262.159 339.151,-265.338 345,-269 363.396,-280.519 362.748,-290.254 381,-302 386.961,-305.836 393.639,-309.299 400.258,-312.324"/>
<polygon fill="midnightblue" stroke="midnightblue" points="399.255,-315.702 409.825,-316.434 402.019,-309.271 399.255,-315.702"/>
</g>
<!-- Node10 -->
<g id="node11" class="node"><title>Node10</title>
<g id="a_node11"><a xlink:href="class_config.html#af2fee2ffae339b1e8ead1cd413e44ee3" target="_top" xlink:title="Initialize the eeprom memory. ">
<polygon fill="none" stroke="black" points="532,-311 532,-341 618,-341 618,-311 532,-311"/>
<text text-anchor="start" x="540" y="-329" font-family="Helvetica,sans-Serif" font-size="10.00">Config::initialize</text>
<text text-anchor="middle" x="575" y="-318" font-family="Helvetica,sans-Serif" font-size="10.00">_eeprom</text>
</a>
</g>
</g>
<!-- Node6&#45;&gt;Node10 -->
<g id="edge16" class="edge"><title>Node6&#45;&gt;Node10</title>
<path fill="none" stroke="midnightblue" d="M331.802,-259.548C379.778,-272.712 466.598,-296.532 522.212,-311.791"/>
<polygon fill="midnightblue" stroke="midnightblue" points="521.307,-315.172 531.877,-314.443 523.159,-308.421 521.307,-315.172"/>
</g>
<!-- Node11 -->
<g id="node12" class="node"><title>Node11</title>
<g id="a_node12"><a xlink:href="class_config.html#a5fefd76d384c0a710ea0dd0d71d5d05b" target="_top" xlink:title="Update saved config data in the eeprom. ">
<polygon fill="none" stroke="black" points="654,-354.5 654,-373.5 772,-373.5 772,-354.5 654,-354.5"/>
<text text-anchor="middle" x="713" y="-361.5" font-family="Helvetica,sans-Serif" font-size="10.00">Config::update_epprom</text>
</a>
</g>
</g>
<!-- Node6&#45;&gt;Node11 -->
<g id="edge15" class="edge"><title>Node6&#45;&gt;Node11</title>
<path fill="none" stroke="midnightblue" d="M332.367,-259.69C337.056,-262.141 341.457,-265.196 345,-269 381.213,-307.881 338.144,-351.592 381,-383 472.223,-449.856 618.407,-402.891 681.443,-377.442"/>
<polygon fill="midnightblue" stroke="midnightblue" points="682.921,-380.618 690.825,-373.563 680.246,-374.149 682.921,-380.618"/>
</g>
<!-- Node7&#45;&gt;Node5 -->
<g id="edge8" class="edge"><title>Node7&#45;&gt;Node5</title>
<path fill="none" stroke="midnightblue" d="M475.847,-240.466C482.793,-237.908 489.818,-234.777 496,-231 521.693,-215.304 545.602,-189.728 560.006,-172.637"/>
<polygon fill="midnightblue" stroke="midnightblue" points="562.989,-174.519 566.631,-164.57 557.579,-170.077 562.989,-174.519"/>
</g>
<!-- Node9&#45;&gt;Node10 -->
<g id="edge12" class="edge"><title>Node9&#45;&gt;Node10</title>
<path fill="none" stroke="midnightblue" d="M492.272,-319.391C501.892,-319.201 511.928,-319.203 521.539,-319.397"/>
<polygon fill="midnightblue" stroke="midnightblue" points="521.668,-322.902 531.762,-319.683 521.864,-315.905 521.668,-322.902"/>
</g>
<!-- Node10&#45;&gt;Node9 -->
<g id="edge14" class="edge"><title>Node10&#45;&gt;Node9</title>
<path fill="none" stroke="midnightblue" d="M531.762,-332.317C522.469,-332.653 512.434,-332.794 502.521,-332.738"/>
<polygon fill="midnightblue" stroke="midnightblue" points="502.315,-329.235 492.272,-332.609 502.227,-336.235 502.315,-329.235"/>
</g>
<!-- Node10&#45;&gt;Node11 -->
<g id="edge13" class="edge"><title>Node10&#45;&gt;Node11</title>
<path fill="none" stroke="midnightblue" d="M618.286,-337.815C634.171,-342.254 652.251,-347.305 668.265,-351.78"/>
<polygon fill="midnightblue" stroke="midnightblue" points="667.358,-355.16 677.931,-354.481 669.242,-348.419 667.358,-355.16"/>
</g>
<!-- Node12&#45;&gt;Node5 -->
<g id="edge19" class="edge"><title>Node12&#45;&gt;Node5</title>
<path fill="none" stroke="midnightblue" d="M181.679,-96.5047C247.034,-94.8473 384.126,-95.3198 496,-122 513.716,-126.225 532.549,-134.087 547.271,-141.078"/>
<polygon fill="midnightblue" stroke="midnightblue" points="545.778,-144.244 556.298,-145.499 548.857,-137.957 545.778,-144.244"/>
</g>
<!-- Node13 -->
<g id="node14" class="node"><title>Node13</title>
<g id="a_node14"><a xlink:href="class_state.html#ac150b47c0f2b53152671d0698a890981" target="_top" xlink:title="State::print">
<polygon fill="none" stroke="black" points="263.5,-50.5 263.5,-69.5 328.5,-69.5 328.5,-50.5 263.5,-50.5"/>
<text text-anchor="middle" x="296" y="-57.5" font-family="Helvetica,sans-Serif" font-size="10.00">State::print</text>
</a>
</g>
</g>
<!-- Node12&#45;&gt;Node13 -->
<g id="edge18" class="edge"><title>Node12&#45;&gt;Node13</title>
<path fill="none" stroke="midnightblue" d="M181.73,-88.411C203.622,-82.9198 231.109,-76.0256 253.522,-70.4037"/>
<polygon fill="midnightblue" stroke="midnightblue" points="254.577,-73.7476 263.425,-67.9198 252.874,-66.9579 254.577,-73.7476"/>
</g>
<!-- Node14 -->
<g id="node15" class="node"><title>Node14</title>
<g id="a_node15"><a xlink:href="class_state.html#aa272f704a5f33920524fb57c80339b2f" target="_top" xlink:title="State::execute">
<polygon fill="none" stroke="black" points="256,-12.5 256,-31.5 336,-31.5 336,-12.5 256,-12.5"/>
<text text-anchor="middle" x="296" y="-19.5" font-family="Helvetica,sans-Serif" font-size="10.00">State::execute</text>
</a>
</g>
</g>
<!-- Node12&#45;&gt;Node14 -->
<g id="edge20" class="edge"><title>Node12&#45;&gt;Node14</title>
<path fill="none" stroke="midnightblue" d="M181.715,-90.3427C191.68,-87.3831 202.108,-83.3732 211,-78 230.637,-66.1335 227.91,-53.727 247,-41 249.759,-39.1606 252.723,-37.4559 255.776,-35.8856"/>
<polygon fill="midnightblue" stroke="midnightblue" points="257.477,-38.9548 265.081,-31.5768 254.536,-32.6028 257.477,-38.9548"/>
</g>
</g>
</svg>
        <g id="navigator" transform="translate(0 0)" fill="#404254">
                <rect fill="#f2f5e9" fill-opacity="0.5" stroke="#606060" stroke-width=".5" x="0" y="0" width="60" height="60"/>
                <use id="zoomplus" xlink:href="#zoomPlus" x="17" y="9" onmousedown="handleZoom(evt,'in')"/>
                <use id="zoomminus" xlink:href="#zoomMin" x="42" y="9" onmousedown="handleZoom(evt,'out')"/>
                <use id="reset" xlink:href="#resetDef" x="30" y="36" onmousedown="handleReset()"/>
                <g id="arrowUp" xlink:href="#dirArrow" transform="translate(30 24)" onmousedown="handlePan(0,-1)">
                  <use xlink:href="#rim" fill="#404040">
                        <set attributeName="fill" to="#808080" begin="arrowUp.mouseover" end="arrowUp.mouseout"/>
                  </use>
                  <path fill="none" stroke="white" stroke-width="1.5" d="M0,-3.0v7 M-2.5,-0.5L0,-3.0L2.5,-0.5"/>
                </g>
                <g id="arrowRight" xlink:href="#dirArrow" transform="rotate(90) translate(36 -43)" onmousedown="handlePan(1,0)">
                  <use xlink:href="#rim" fill="#404040">
                        <set attributeName="fill" to="#808080" begin="arrowRight.mouseover" end="arrowRight.mouseout"/>
                  </use>
                  <path fill="none" stroke="white" stroke-width="1.5" d="M0,-3.0v7 M-2.5,-0.5L0,-3.0L2.5,-0.5"/>
                </g>
                <g id="arrowDown" xlink:href="#dirArrow" transform="rotate(180) translate(-30 -48)" onmousedown="handlePan(0,1)">
                  <use xlink:href="#rim" fill="#404040">
                        <set attributeName="fill" to="#808080" begin="arrowDown.mouseover" end="arrowDown.mouseout"/>
                  </use>
                  <path fill="none" stroke="white" stroke-width="1.5" d="M0,-3.0v7 M-2.5,-0.5L0,-3.0L2.5,-0.5"/>
                </g>
                <g id="arrowLeft" xlink:href="#dirArrow" transform="rotate(270) translate(-36 17)" onmousedown="handlePan(-1,0)">
                  <use xlink:href="#rim" fill="#404040">
                        <set attributeName="fill" to="#808080" begin="arrowLeft.mouseover" end="arrowLeft.mouseout"/>
                  </use>
                  <path fill="none" stroke="white" stroke-width="1.5" d="M0,-3.0v7 M-2.5,-0.5L0,-3.0L2.5,-0.5"/>
                </g>
        </g>
        <svg viewBox="0 0 15 15" width="100%" height="30px" preserveAspectRatio="xMaxYMin meet">
         <g id="arrow_out" transform="scale(0.3 0.3)">
          <a xlink:href="main_8cpp_ae66f6b31b5ad750f1fe042a706a4e3d4_cgraph_org.svg" target="_base">
           <rect id="button" ry="5" rx="5" y="6" x="6" height="38" width="38"
                fill="#f2f5e9" fill-opacity="0.5" stroke="#606060" stroke-width="1.0"/>
           <path id="arrow"
             d="M 11.500037,31.436501 C 11.940474,20.09759 22.043105,11.32322 32.158766,21.979434 L 37.068811,17.246167 C 37.068811,17.246167 37.088388,32 37.088388,32 L 22.160133,31.978069 C 22.160133,31.978069 26.997745,27.140456 26.997745,27.140456 C 18.528582,18.264221 13.291696,25.230495 11.500037,31.436501 z"
             style="fill:#404040;"/>
          </a>
         </g>
        </svg>
</svg>
