<?xml version="1.0" encoding="UTF-8" standalone="no"?>
<!DOCTYPE svg PUBLIC "-//W3C//DTD SVG 1.1//EN"
 "http://www.w3.org/Graphics/SVG/1.1/DTD/svg11.dtd">
<!-- Generated by graphviz version 2.38.0 (20140413.2041)
 -->
<!-- Title: main.cpp Pages: 1 -->
<!--zoomable 196 -->
<svg id="main" version="1.1" xmlns="http://www.w3.org/2000/svg" xmlns:xlink="http://www.w3.org/1999/xlink" xml:space="preserve" onload="init(evt)">
<style type="text/css"><![CDATA[
.edge:hover path { stroke: red; }
.edge:hover polygon { stroke: red; fill: red; }
]]></style>
<script type="text/javascript"><![CDATA[
var edges = document.getElementsByTagName('g');
if (edges && edges.length) {
  for (var i=0;i<edges.length;i++) {
    if (edges[i].id.substr(0,4)=='edge') {
      edges[i].setAttribute('class','edge');
    }
  }
}
]]></script>
        <defs>
                <circle id="rim" cx="0" cy="0" r="7"/>
                <circle id="rim2" cx="0" cy="0" r="3.5"/>
                <g id="zoomPlus">
                        <use xlink:href="#rim" fill="#404040">
                                <set attributeName="fill" to="#808080" begin="zoomplus.mouseover" end="zoomplus.mouseout"/>
                        </use>
                        <path d="M-4,0h8M0,-4v8" fill="none" stroke="white" stroke-width="1.5" pointer-events="none"/>
                </g>
                <g id="zoomMin">
                        <use xlink:href="#rim" fill="#404040">
                                <set attributeName="fill" to="#808080" begin="zoomminus.mouseover" end="zoomminus.mouseout"/>
                        </use>
                        <path d="M-4,0h8" fill="none" stroke="white" stroke-width="1.5" pointer-events="none"/>
                </g>
                <g id="dirArrow">
                        <path fill="none" stroke="white" stroke-width="1.5" d="M0,-3.0v7 M-2.5,-0.5L0,-3.0L2.5,-0.5"/>
                </g>
               <g id="resetDef">
                       <use xlink:href="#rim2" fill="#404040">
                               <set attributeName="fill" to="#808080" begin="reset.mouseover" end="reset.mouseout"/>
                       </use>
               </g>
        </defs>

<script type="text/javascript">
var viewWidth = 838;
var viewHeight = 196;
var sectionId = 'dynsection-0';
</script>
<script xlink:href="svgpan.js"/>
<svg id="graph" class="graph">
<g id="viewport">
<title>main.cpp</title>
<!-- Node0 -->
<g id="node1" class="node"><title>Node0</title>
<polygon fill="#bfbfbf" stroke="black" points="241.5,-168.5 241.5,-187.5 297.5,-187.5 297.5,-168.5 241.5,-168.5"/>
<text text-anchor="middle" x="269.5" y="-175.5" font-family="Helvetica,sans-Serif" font-size="10.00">main.cpp</text>
</g>
<!-- Node1 -->
<g id="node2" class="node"><title>Node1</title>
<polygon fill="none" stroke="#bfbfbf" points="0,-112.5 0,-131.5 49,-131.5 49,-112.5 0,-112.5"/>
<text text-anchor="middle" x="24.5" y="-119.5" font-family="Helvetica,sans-Serif" font-size="10.00">avr/io.h</text>
</g>
<!-- Node0&#45;&gt;Node1 -->
<g id="edge1" class="edge"><title>Node0&#45;&gt;Node1</title>
<path fill="none" stroke="midnightblue" d="M241.415,-171.463C202.709,-163.734 130.572,-148.979 59.3824,-132.119"/>
<polygon fill="midnightblue" stroke="midnightblue" points="59.8862,-128.641 49.3472,-129.726 58.2629,-135.45 59.8862,-128.641"/>
</g>
<!-- Node2 -->
<g id="node3" class="node"><title>Node2</title>
<polygon fill="none" stroke="#bfbfbf" points="67.5,-112.5 67.5,-131.5 131.5,-131.5 131.5,-112.5 67.5,-112.5"/>
<text text-anchor="middle" x="99.5" y="-119.5" font-family="Helvetica,sans-Serif" font-size="10.00">util/delay.h</text>
</g>
<!-- Node0&#45;&gt;Node2 -->
<g id="edge2" class="edge"><title>Node0&#45;&gt;Node2</title>
<path fill="none" stroke="midnightblue" d="M242.563,-168.444C213.84,-159.32 168.171,-144.813 136.179,-134.651"/>
<polygon fill="midnightblue" stroke="midnightblue" points="136.901,-131.208 126.311,-131.516 134.782,-137.88 136.901,-131.208"/>
</g>
<!-- Node3 -->
<g id="node4" class="node"><title>Node3</title>
<polygon fill="none" stroke="#bfbfbf" points="149.5,-112.5 149.5,-131.5 201.5,-131.5 201.5,-112.5 149.5,-112.5"/>
<text text-anchor="middle" x="175.5" y="-119.5" font-family="Helvetica,sans-Serif" font-size="10.00">stddef.h</text>
</g>
<!-- Node0&#45;&gt;Node3 -->
<g id="edge3" class="edge"><title>Node0&#45;&gt;Node3</title>
<path fill="none" stroke="midnightblue" d="M254.397,-168.324C239.597,-159.822 216.806,-146.729 199.518,-136.797"/>
<polygon fill="midnightblue" stroke="midnightblue" points="200.98,-133.601 190.565,-131.655 197.493,-139.671 200.98,-133.601"/>
</g>
<!-- Node4 -->
<g id="node5" class="node"><title>Node4</title>
<polygon fill="none" stroke="#bfbfbf" points="219.5,-112.5 219.5,-131.5 267.5,-131.5 267.5,-112.5 219.5,-112.5"/>
<text text-anchor="middle" x="243.5" y="-119.5" font-family="Helvetica,sans-Serif" font-size="10.00">stdlib.h</text>
</g>
<!-- Node0&#45;&gt;Node4 -->
<g id="edge4" class="edge"><title>Node0&#45;&gt;Node4</title>
<path fill="none" stroke="midnightblue" d="M265.207,-168.083C261.648,-160.691 256.478,-149.953 252.076,-140.811"/>
<polygon fill="midnightblue" stroke="midnightblue" points="255.205,-139.243 247.713,-131.751 248.898,-142.279 255.205,-139.243"/>
</g>
<!-- Node5 -->
<g id="node6" class="node"><title>Node5</title>
<g id="a_node6"><a xlink:href="main_8h.html" target="_top" xlink:title="../lib/main.h">
<polygon fill="none" stroke="black" points="290.5,-0.5 290.5,-19.5 358.5,-19.5 358.5,-0.5 290.5,-0.5"/>
<text text-anchor="middle" x="324.5" y="-7.5" font-family="Helvetica,sans-Serif" font-size="10.00">../lib/main.h</text>
</a>
</g>
</g>
<!-- Node0&#45;&gt;Node5 -->
<g id="edge5" class="edge"><title>Node0&#45;&gt;Node5</title>
<path fill="none" stroke="midnightblue" d="M272.457,-168.075C281.152,-141.832 306.759,-64.5453 318.498,-29.1165"/>
<polygon fill="midnightblue" stroke="midnightblue" points="321.838,-30.1615 321.661,-19.5681 315.194,-27.9598 321.838,-30.1615"/>
</g>
<!-- Node6 -->
<g id="node7" class="node"><title>Node6</title>
<g id="a_node7"><a xlink:href="_f_s_m_8h.html" target="_top" xlink:title="The FSM is the finish state machine mechanism. ">
<polygon fill="none" stroke="black" points="482.5,-112.5 482.5,-131.5 550.5,-131.5 550.5,-112.5 482.5,-112.5"/>
<text text-anchor="middle" x="516.5" y="-119.5" font-family="Helvetica,sans-Serif" font-size="10.00">../lib/FSM.h</text>
</a>
</g>
</g>
<!-- Node0&#45;&gt;Node6 -->
<g id="edge6" class="edge"><title>Node0&#45;&gt;Node6</title>
<path fill="none" stroke="midnightblue" d="M297.834,-170.806C340.512,-161.475 421.661,-143.734 472.201,-132.685"/>
<polygon fill="midnightblue" stroke="midnightblue" points="473.166,-136.056 482.188,-130.501 471.671,-129.218 473.166,-136.056"/>
</g>
<!-- Node7 -->
<g id="node8" class="node"><title>Node7</title>
<g id="a_node8"><a xlink:href="_usart_8h.html" target="_top" xlink:title="Brief description of file. ">
<polygon fill="none" stroke="black" points="324,-56.5 324,-75.5 395,-75.5 395,-56.5 324,-56.5"/>
<text text-anchor="middle" x="359.5" y="-63.5" font-family="Helvetica,sans-Serif" font-size="10.00">../lib/Usart.h</text>
</a>
</g>
</g>
<!-- Node0&#45;&gt;Node7 -->
<g id="edge20" class="edge"><title>Node0&#45;&gt;Node7</title>
<path fill="none" stroke="midnightblue" d="M277.659,-168.198C285.879,-159.243 298.839,-144.886 309.5,-132 322.773,-115.957 337.199,-97.03 347.129,-83.7505"/>
<polygon fill="midnightblue" stroke="midnightblue" points="350.058,-85.6773 353.215,-75.564 344.44,-81.5006 350.058,-85.6773"/>
</g>
<!-- Node10 -->
<g id="node11" class="node"><title>Node10</title>
<g id="a_node11"><a xlink:href="_state_8h.html" target="_top" xlink:title="Brief description of file. ">
<polygon fill="none" stroke="black" points="600.5,-0.5 600.5,-19.5 670.5,-19.5 670.5,-0.5 600.5,-0.5"/>
<text text-anchor="middle" x="635.5" y="-7.5" font-family="Helvetica,sans-Serif" font-size="10.00">../lib/State.h</text>
</a>
</g>
</g>
<!-- Node0&#45;&gt;Node10 -->
<g id="edge19" class="edge"><title>Node0&#45;&gt;Node10</title>
<path fill="none" stroke="midnightblue" d="M297.608,-176.451C400.576,-173.787 754.641,-158.66 821.5,-76 861.063,-27.0874 747.786,-14.906 680.853,-11.9242"/>
<polygon fill="midnightblue" stroke="midnightblue" points="680.668,-8.41436 670.539,-11.5204 680.394,-15.409 680.668,-8.41436"/>
</g>
<!-- Node6&#45;&gt;Node7 -->
<g id="edge7" class="edge"><title>Node6&#45;&gt;Node7</title>
<path fill="none" stroke="midnightblue" d="M491.623,-112.444C465.211,-103.359 423.285,-88.9388 393.758,-78.7831"/>
<polygon fill="midnightblue" stroke="midnightblue" points="394.855,-75.4593 384.261,-75.5164 392.579,-82.0787 394.855,-75.4593"/>
</g>
<!-- Node8 -->
<g id="node9" class="node"><title>Node8</title>
<g id="a_node9"><a xlink:href="_config_8h.html" target="_top" xlink:title="This file declare the Config class. ">
<polygon fill="none" stroke="black" points="413,-56.5 413,-75.5 488,-75.5 488,-56.5 413,-56.5"/>
<text text-anchor="middle" x="450.5" y="-63.5" font-family="Helvetica,sans-Serif" font-size="10.00">../lib/Config.h</text>
</a>
</g>
</g>
<!-- Node6&#45;&gt;Node8 -->
<g id="edge8" class="edge"><title>Node6&#45;&gt;Node8</title>
<path fill="none" stroke="midnightblue" d="M505.896,-112.324C496.044,-104.263 481.149,-92.0765 469.285,-82.3695"/>
<polygon fill="midnightblue" stroke="midnightblue" points="471.253,-79.4575 461.297,-75.8339 466.82,-84.8752 471.253,-79.4575"/>
</g>
<!-- Node6&#45;&gt;Node10 -->
<g id="edge18" class="edge"><title>Node6&#45;&gt;Node10</title>
<path fill="none" stroke="midnightblue" d="M516.793,-112.34C517.696,-98.7581 521.298,-72.3183 535.5,-56 549.827,-39.5377 571.374,-28.7955 590.803,-21.9516"/>
<polygon fill="midnightblue" stroke="midnightblue" points="592.006,-25.2408 600.424,-18.8078 589.831,-18.587 592.006,-25.2408"/>
</g>
<!-- Node11 -->
<g id="node12" class="node"><title>Node11</title>
<g id="a_node12"><a xlink:href="_measure_8h.html" target="_top" xlink:title="../lib/Measure.h">
<polygon fill="none" stroke="black" points="544.5,-56.5 544.5,-75.5 628.5,-75.5 628.5,-56.5 544.5,-56.5"/>
<text text-anchor="middle" x="586.5" y="-63.5" font-family="Helvetica,sans-Serif" font-size="10.00">../lib/Measure.h</text>
</a>
</g>
</g>
<!-- Node6&#45;&gt;Node11 -->
<g id="edge12" class="edge"><title>Node6&#45;&gt;Node11</title>
<path fill="none" stroke="midnightblue" d="M527.747,-112.324C538.297,-104.185 554.301,-91.8395 566.942,-82.0874"/>
<polygon fill="midnightblue" stroke="midnightblue" points="569.269,-84.7132 575.049,-75.8339 564.993,-79.1707 569.269,-84.7132"/>
</g>
<!-- Node12 -->
<g id="node13" class="node"><title>Node12</title>
<g id="a_node13"><a xlink:href="_output_8h.html" target="_top" xlink:title="../lib/Output.h">
<polygon fill="none" stroke="black" points="646.5,-56.5 646.5,-75.5 722.5,-75.5 722.5,-56.5 646.5,-56.5"/>
<text text-anchor="middle" x="684.5" y="-63.5" font-family="Helvetica,sans-Serif" font-size="10.00">../lib/Output.h</text>
</a>
</g>
</g>
<!-- Node6&#45;&gt;Node12 -->
<g id="edge14" class="edge"><title>Node6&#45;&gt;Node12</title>
<path fill="none" stroke="midnightblue" d="M543.12,-112.444C571.506,-103.32 616.637,-88.8133 648.253,-78.6509"/>
<polygon fill="midnightblue" stroke="midnightblue" points="649.555,-81.9087 658.004,-75.5164 647.413,-75.2445 649.555,-81.9087"/>
</g>
<!-- Node13 -->
<g id="node14" class="node"><title>Node13</title>
<g id="a_node14"><a xlink:href="_sleep_8h.html" target="_top" xlink:title="../lib/Sleep.h">
<polygon fill="none" stroke="black" points="741,-56.5 741,-75.5 812,-75.5 812,-56.5 741,-56.5"/>
<text text-anchor="middle" x="776.5" y="-63.5" font-family="Helvetica,sans-Serif" font-size="10.00">../lib/Sleep.h</text>
</a>
</g>
</g>
<!-- Node6&#45;&gt;Node13 -->
<g id="edge16" class="edge"><title>Node6&#45;&gt;Node13</title>
<path fill="none" stroke="midnightblue" d="M550.758,-113.885C597.038,-104.273 679.646,-87.1159 731.067,-76.4361"/>
<polygon fill="midnightblue" stroke="midnightblue" points="731.836,-79.8511 740.916,-74.3906 730.413,-72.9973 731.836,-79.8511"/>
</g>
<!-- Node8&#45;&gt;Node5 -->
<g id="edge9" class="edge"><title>Node8&#45;&gt;Node5</title>
<path fill="none" stroke="midnightblue" d="M430.535,-56.4435C409.891,-47.5961 377.437,-33.6875 353.868,-23.5865"/>
<polygon fill="midnightblue" stroke="midnightblue" points="354.942,-20.2387 344.372,-19.5164 352.184,-26.6727 354.942,-20.2387"/>
</g>
<!-- Node9 -->
<g id="node10" class="node"><title>Node9</title>
<g id="a_node10"><a xlink:href="_date_time_8h.html" target="_top" xlink:title="../lib/DateTime.h">
<polygon fill="none" stroke="black" points="406,-0.5 406,-19.5 495,-19.5 495,-0.5 406,-0.5"/>
<text text-anchor="middle" x="450.5" y="-7.5" font-family="Helvetica,sans-Serif" font-size="10.00">../lib/DateTime.h</text>
</a>
</g>
</g>
<!-- Node8&#45;&gt;Node9 -->
<g id="edge10" class="edge"><title>Node8&#45;&gt;Node9</title>
<path fill="none" stroke="midnightblue" d="M450.5,-56.083C450.5,-49.0059 450.5,-38.8611 450.5,-29.9865"/>
<polygon fill="midnightblue" stroke="midnightblue" points="454,-29.751 450.5,-19.7511 447,-29.7511 454,-29.751"/>
</g>
<!-- Node8&#45;&gt;Node10 -->
<g id="edge11" class="edge"><title>Node8&#45;&gt;Node10</title>
<path fill="none" stroke="midnightblue" d="M479.814,-56.4435C511.342,-47.2406 561.631,-32.5617 596.486,-22.3879"/>
<polygon fill="midnightblue" stroke="midnightblue" points="597.705,-25.6783 606.323,-19.5164 595.743,-18.9587 597.705,-25.6783"/>
</g>
<!-- Node11&#45;&gt;Node10 -->
<g id="edge13" class="edge"><title>Node11&#45;&gt;Node10</title>
<path fill="none" stroke="midnightblue" d="M594.591,-56.083C601.655,-48.2982 612.088,-36.8015 620.649,-27.3665"/>
<polygon fill="midnightblue" stroke="midnightblue" points="623.431,-29.5087 627.559,-19.7511 618.247,-24.8047 623.431,-29.5087"/>
</g>
<!-- Node12&#45;&gt;Node10 -->
<g id="edge15" class="edge"><title>Node12&#45;&gt;Node10</title>
<path fill="none" stroke="midnightblue" d="M676.409,-56.083C669.345,-48.2982 658.912,-36.8015 650.351,-27.3665"/>
<polygon fill="midnightblue" stroke="midnightblue" points="652.753,-24.8047 643.441,-19.7511 647.569,-29.5087 652.753,-24.8047"/>
</g>
<!-- Node13&#45;&gt;Node10 -->
<g id="edge17" class="edge"><title>Node13&#45;&gt;Node10</title>
<path fill="none" stroke="midnightblue" d="M754.158,-56.4435C730.747,-47.4776 693.764,-33.314 667.31,-23.1827"/>
<polygon fill="midnightblue" stroke="midnightblue" points="668.328,-19.8245 657.737,-19.5164 665.824,-26.3615 668.328,-19.8245"/>
</g>
</g>
</svg>
        <g id="navigator" transform="translate(0 0)" fill="#404254">
                <rect fill="#f2f5e9" fill-opacity="0.5" stroke="#606060" stroke-width=".5" x="0" y="0" width="60" height="60"/>
                <use id="zoomplus" xlink:href="#zoomPlus" x="17" y="9" onmousedown="handleZoom(evt,'in')"/>
                <use id="zoomminus" xlink:href="#zoomMin" x="42" y="9" onmousedown="handleZoom(evt,'out')"/>
                <use id="reset" xlink:href="#resetDef" x="30" y="36" onmousedown="handleReset()"/>
                <g id="arrowUp" xlink:href="#dirArrow" transform="translate(30 24)" onmousedown="handlePan(0,-1)">
                  <use xlink:href="#rim" fill="#404040">
                        <set attributeName="fill" to="#808080" begin="arrowUp.mouseover" end="arrowUp.mouseout"/>
                  </use>
                  <path fill="none" stroke="white" stroke-width="1.5" d="M0,-3.0v7 M-2.5,-0.5L0,-3.0L2.5,-0.5"/>
                </g>
                <g id="arrowRight" xlink:href="#dirArrow" transform="rotate(90) translate(36 -43)" onmousedown="handlePan(1,0)">
                  <use xlink:href="#rim" fill="#404040">
                        <set attributeName="fill" to="#808080" begin="arrowRight.mouseover" end="arrowRight.mouseout"/>
                  </use>
                  <path fill="none" stroke="white" stroke-width="1.5" d="M0,-3.0v7 M-2.5,-0.5L0,-3.0L2.5,-0.5"/>
                </g>
                <g id="arrowDown" xlink:href="#dirArrow" transform="rotate(180) translate(-30 -48)" onmousedown="handlePan(0,1)">
                  <use xlink:href="#rim" fill="#404040">
                        <set attributeName="fill" to="#808080" begin="arrowDown.mouseover" end="arrowDown.mouseout"/>
                  </use>
                  <path fill="none" stroke="white" stroke-width="1.5" d="M0,-3.0v7 M-2.5,-0.5L0,-3.0L2.5,-0.5"/>
                </g>
                <g id="arrowLeft" xlink:href="#dirArrow" transform="rotate(270) translate(-36 17)" onmousedown="handlePan(-1,0)">
                  <use xlink:href="#rim" fill="#404040">
                        <set attributeName="fill" to="#808080" begin="arrowLeft.mouseover" end="arrowLeft.mouseout"/>
                  </use>
                  <path fill="none" stroke="white" stroke-width="1.5" d="M0,-3.0v7 M-2.5,-0.5L0,-3.0L2.5,-0.5"/>
                </g>
        </g>
        <svg viewBox="0 0 15 15" width="100%" height="30px" preserveAspectRatio="xMaxYMin meet">
         <g id="arrow_out" transform="scale(0.3 0.3)">
          <a xlink:href="main_8cpp__incl_org.svg" target="_base">
           <rect id="button" ry="5" rx="5" y="6" x="6" height="38" width="38"
                fill="#f2f5e9" fill-opacity="0.5" stroke="#606060" stroke-width="1.0"/>
           <path id="arrow"
             d="M 11.500037,31.436501 C 11.940474,20.09759 22.043105,11.32322 32.158766,21.979434 L 37.068811,17.246167 C 37.068811,17.246167 37.088388,32 37.088388,32 L 22.160133,31.978069 C 22.160133,31.978069 26.997745,27.140456 26.997745,27.140456 C 18.528582,18.264221 13.291696,25.230495 11.500037,31.436501 z"
             style="fill:#404040;"/>
          </a>
         </g>
        </svg>
</svg>
