<?xml version="1.0" encoding="UTF-8" standalone="no"?>
<!DOCTYPE svg PUBLIC "-//W3C//DTD SVG 1.1//EN"
 "http://www.w3.org/Graphics/SVG/1.1/DTD/svg11.dtd">
<!-- Generated by graphviz version 2.38.0 (20140413.2041)
 -->
<!-- Title: main Pages: 1 -->
<svg width="792pt" height="598pt"
 viewBox="0.00 0.00 792.00 597.93" xmlns="http://www.w3.org/2000/svg" xmlns:xlink="http://www.w3.org/1999/xlink">
<g id="graph0" class="graph" transform="scale(1 1) rotate(0) translate(4 593.932)">
<title>main</title>
<!-- Node0 -->
<g id="node1" class="node"><title>Node0</title>
<polygon fill="#bfbfbf" stroke="black" points="0,-152.5 0,-171.5 38,-171.5 38,-152.5 0,-152.5"/>
<text text-anchor="middle" x="19" y="-159.5" font-family="Helvetica,sans-Serif" font-size="10.00">main</text>
</g>
<!-- Node1 -->
<g id="node2" class="node"><title>Node1</title>
<g id="a_node2"><a xlink:href="class_f_s_m.html#a3819be8e9fe92b750f47b9731e92f254" target="_top" xlink:title="Call when a string from usart0 finish by &quot;\r\n&quot;. ">
<polygon fill="none" stroke="black" points="74,-323.5 74,-342.5 211,-342.5 211,-323.5 74,-323.5"/>
<text text-anchor="middle" x="142.5" y="-330.5" font-family="Helvetica,sans-Serif" font-size="10.00">FSM::character_processing</text>
</a>
</g>
</g>
<!-- Node0&#45;&gt;Node1 -->
<g id="edge1" class="edge"><title>Node0&#45;&gt;Node1</title>
<path fill="none" stroke="midnightblue" d="M25.2072,-171.765C34.3391,-188.625 54.1631,-224.071 74,-252 90.4282,-275.13 111.705,-299.942 125.938,-315.921"/>
<polygon fill="midnightblue" stroke="midnightblue" points="123.388,-318.32 132.676,-323.417 128.594,-313.64 123.388,-318.32"/>
</g>
<!-- Node5 -->
<g id="node6" class="node"><title>Node5</title>
<g id="a_node6"><a xlink:href="class_usart.html#ab236d7c399791bbe1431f85e9b60f601" target="_top" xlink:title="USART string sender function. ">
<polygon fill="none" stroke="black" points="695.5,-399.5 695.5,-418.5 760.5,-418.5 760.5,-399.5 695.5,-399.5"/>
<text text-anchor="middle" x="728" y="-406.5" font-family="Helvetica,sans-Serif" font-size="10.00">Usart::print</text>
</a>
</g>
</g>
<!-- Node0&#45;&gt;Node5 -->
<g id="edge39" class="edge"><title>Node0&#45;&gt;Node5</title>
<path fill="none" stroke="midnightblue" d="M25.8968,-171.716C34.5734,-185.024 52.1419,-208.466 74,-219 162.809,-261.8 196.415,-238 295,-238 295,-238 295,-238 439.5,-238 558.983,-238 672.109,-348.447 711.923,-391.815"/>
<polygon fill="midnightblue" stroke="midnightblue" points="709.392,-394.235 718.689,-399.316 714.59,-389.547 709.392,-394.235"/>
</g>
<!-- Node17 -->
<g id="node18" class="node"><title>Node17</title>
<g id="a_node18"><a xlink:href="class_f_s_m.html#a8a6e956375ea383f83fdd076badbe5a7" target="_top" xlink:title="This method execute the next state. ">
<polygon fill="none" stroke="black" points="103.5,-190.5 103.5,-209.5 181.5,-209.5 181.5,-190.5 103.5,-190.5"/>
<text text-anchor="middle" x="142.5" y="-197.5" font-family="Helvetica,sans-Serif" font-size="10.00">FSM::execute</text>
</a>
</g>
</g>
<!-- Node0&#45;&gt;Node17 -->
<g id="edge25" class="edge"><title>Node0&#45;&gt;Node17</title>
<path fill="none" stroke="midnightblue" d="M38.3963,-168.801C48.7927,-172.562 62.0607,-177.223 74,-181 81.1829,-183.272 88.8375,-185.556 96.3159,-187.713"/>
<polygon fill="midnightblue" stroke="midnightblue" points="95.415,-191.096 105.991,-190.464 97.3297,-184.362 95.415,-191.096"/>
</g>
<!-- Node19 -->
<g id="node20" class="node"><title>Node19</title>
<g id="a_node20"><a xlink:href="class_r_t_c.html#a6e75afc10029f384081b814c2450e0fa" target="_top" xlink:title="RTC::get_date">
<polygon fill="none" stroke="black" points="102,-152.5 102,-171.5 183,-171.5 183,-152.5 102,-152.5"/>
<text text-anchor="middle" x="142.5" y="-159.5" font-family="Helvetica,sans-Serif" font-size="10.00">RTC::get_date</text>
</a>
</g>
</g>
<!-- Node0&#45;&gt;Node19 -->
<g id="edge27" class="edge"><title>Node0&#45;&gt;Node19</title>
<path fill="none" stroke="midnightblue" d="M38.1898,-162C52.3868,-162 72.816,-162 91.7656,-162"/>
<polygon fill="midnightblue" stroke="midnightblue" points="91.7946,-165.5 101.795,-162 91.7945,-158.5 91.7946,-165.5"/>
</g>
<!-- Node27 -->
<g id="node28" class="node"><title>Node27</title>
<g id="a_node28"><a xlink:href="class_r_t_c.html#a64fff0b6517be73f463e7741a8f0a200" target="_top" xlink:title="RTC::get_second">
<polygon fill="none" stroke="black" points="249,-70.5 249,-89.5 343,-89.5 343,-70.5 249,-70.5"/>
<text text-anchor="middle" x="296" y="-77.5" font-family="Helvetica,sans-Serif" font-size="10.00">RTC::get_second</text>
</a>
</g>
</g>
<!-- Node0&#45;&gt;Node27 -->
<g id="edge35" class="edge"><title>Node0&#45;&gt;Node27</title>
<path fill="none" stroke="midnightblue" d="M24.2833,-152.29C31.789,-136.607 48.9399,-106.134 74,-93 125.061,-66.2381 192.156,-66.3737 238.966,-71.0748"/>
<polygon fill="midnightblue" stroke="midnightblue" points="238.605,-74.5561 248.928,-72.1746 239.373,-67.5984 238.605,-74.5561"/>
</g>
<!-- Node28 -->
<g id="node29" class="node"><title>Node28</title>
<g id="a_node29"><a xlink:href="class_f_s_m.html#a96c6ea489297a70669bef5d29b3d889c" target="_top" xlink:title="This method control if a new measure is needed. ">
<polygon fill="none" stroke="black" points="75.5,-103 75.5,-133 209.5,-133 209.5,-103 75.5,-103"/>
<text text-anchor="start" x="83.5" y="-121" font-family="Helvetica,sans-Serif" font-size="10.00">FSM::measurement_timing</text>
<text text-anchor="middle" x="142.5" y="-110" font-family="Helvetica,sans-Serif" font-size="10.00">_control</text>
</a>
</g>
</g>
<!-- Node0&#45;&gt;Node28 -->
<g id="edge36" class="edge"><title>Node0&#45;&gt;Node28</title>
<path fill="none" stroke="midnightblue" d="M38.1898,-155.413C52.0577,-150.391 71.8719,-143.215 90.4451,-136.489"/>
<polygon fill="midnightblue" stroke="midnightblue" points="91.7958,-139.722 100.007,-133.026 89.4123,-133.141 91.7958,-139.722"/>
</g>
<!-- Node29 -->
<g id="node30" class="node"><title>Node29</title>
<g id="a_node30"><a xlink:href="class_f_s_m.html#a22fc8c194ad489ef718067ab60bcebd6" target="_top" xlink:title="This method define the next state from hardware and software flags. ">
<polygon fill="none" stroke="black" points="75.5,-26.5 75.5,-45.5 209.5,-45.5 209.5,-26.5 75.5,-26.5"/>
<text text-anchor="middle" x="142.5" y="-33.5" font-family="Helvetica,sans-Serif" font-size="10.00">FSM::new_State_definition</text>
</a>
</g>
</g>
<!-- Node0&#45;&gt;Node29 -->
<g id="edge38" class="edge"><title>Node0&#45;&gt;Node29</title>
<path fill="none" stroke="midnightblue" d="M22.524,-152.357C28.2572,-132.3 44.1365,-85.812 74,-60 78.7548,-55.8902 84.2625,-52.4678 90.0406,-49.6215"/>
<polygon fill="midnightblue" stroke="midnightblue" points="91.4985,-52.8042 99.2736,-45.607 88.7073,-46.3847 91.4985,-52.8042"/>
</g>
<!-- Node2 -->
<g id="node3" class="node"><title>Node2</title>
<g id="a_node3"><a xlink:href="class_config.html#a3f8d043789557191686ae632ebe6a571" target="_top" xlink:title="add c to the end of request ">
<polygon fill="none" stroke="black" points="381,-380.5 381,-399.5 496,-399.5 496,-380.5 381,-380.5"/>
<text text-anchor="middle" x="438.5" y="-387.5" font-family="Helvetica,sans-Serif" font-size="10.00">Config::addToRequest</text>
</a>
</g>
</g>
<!-- Node1&#45;&gt;Node2 -->
<g id="edge2" class="edge"><title>Node1&#45;&gt;Node2</title>
<path fill="none" stroke="midnightblue" d="M169.087,-342.607C189.818,-350.036 219.926,-360.031 247,-366 287.616,-374.954 333.892,-380.881 370.664,-384.605"/>
<polygon fill="midnightblue" stroke="midnightblue" points="370.476,-388.103 380.771,-385.597 371.16,-381.136 370.476,-388.103"/>
</g>
<!-- Node3 -->
<g id="node4" class="node"><title>Node3</title>
<g id="a_node4"><a xlink:href="class_usart.html#a86c9264f48dabbc3d97fa32d2d02d22d" target="_top" xlink:title="USART char sender function. ">
<polygon fill="none" stroke="black" points="266,-304.5 266,-323.5 326,-323.5 326,-304.5 266,-304.5"/>
<text text-anchor="middle" x="296" y="-311.5" font-family="Helvetica,sans-Serif" font-size="10.00">Usart::set</text>
</a>
</g>
</g>
<!-- Node1&#45;&gt;Node3 -->
<g id="edge3" class="edge"><title>Node1&#45;&gt;Node3</title>
<path fill="none" stroke="midnightblue" d="M211.274,-324.5C226.593,-322.579 242.351,-320.603 256.006,-318.89"/>
<polygon fill="midnightblue" stroke="midnightblue" points="256.51,-322.355 265.997,-317.637 255.639,-315.409 256.51,-322.355"/>
</g>
<!-- Node4 -->
<g id="node5" class="node"><title>Node4</title>
<g id="a_node5"><a xlink:href="class_config.html#aad107d2aa88bbf57a728ec0c650a6f84" target="_top" xlink:title="Config::backspace">
<polygon fill="none" stroke="black" points="247,-266.5 247,-285.5 345,-285.5 345,-266.5 247,-266.5"/>
<text text-anchor="middle" x="296" y="-273.5" font-family="Helvetica,sans-Serif" font-size="10.00">Config::backspace</text>
</a>
</g>
</g>
<!-- Node1&#45;&gt;Node4 -->
<g id="edge4" class="edge"><title>Node1&#45;&gt;Node4</title>
<path fill="none" stroke="midnightblue" d="M168.858,-323.459C193.874,-314.047 232.31,-299.586 260.181,-289.1"/>
<polygon fill="midnightblue" stroke="midnightblue" points="261.433,-292.369 269.56,-285.572 258.968,-285.817 261.433,-292.369"/>
</g>
<!-- Node1&#45;&gt;Node5 -->
<g id="edge5" class="edge"><title>Node1&#45;&gt;Node5</title>
<path fill="none" stroke="midnightblue" d="M211.314,-335.567C326.928,-340.388 557.315,-352.054 636,-371 658.19,-376.343 681.947,-386.426 699.621,-394.864"/>
<polygon fill="midnightblue" stroke="midnightblue" points="698.245,-398.087 708.765,-399.341 701.323,-391.8 698.245,-398.087"/>
</g>
<!-- Node6 -->
<g id="node7" class="node"><title>Node6</title>
<g id="a_node7"><a xlink:href="class_config.html#a5ae6c4f7255e895e7384fc2a4baab160" target="_top" xlink:title="Config::endString">
<polygon fill="none" stroke="black" points="250,-456.5 250,-475.5 342,-475.5 342,-456.5 250,-456.5"/>
<text text-anchor="middle" x="296" y="-463.5" font-family="Helvetica,sans-Serif" font-size="10.00">Config::endString</text>
</a>
</g>
</g>
<!-- Node1&#45;&gt;Node6 -->
<g id="edge6" class="edge"><title>Node1&#45;&gt;Node6</title>
<path fill="none" stroke="midnightblue" d="M154.396,-342.565C179.931,-364.982 243.902,-421.141 276.002,-449.322"/>
<polygon fill="midnightblue" stroke="midnightblue" points="273.97,-452.196 283.794,-456.163 278.589,-446.935 273.97,-452.196"/>
</g>
<!-- Node6&#45;&gt;Node2 -->
<g id="edge17" class="edge"><title>Node6&#45;&gt;Node2</title>
<path fill="none" stroke="midnightblue" d="M308.878,-456.395C324.594,-444.059 353.526,-422.622 381,-409 385.294,-406.871 389.883,-404.89 394.521,-403.074"/>
<polygon fill="midnightblue" stroke="midnightblue" points="395.848,-406.316 404.028,-399.583 393.435,-399.745 395.848,-406.316"/>
</g>
<!-- Node7 -->
<g id="node8" class="node"><title>Node7</title>
<g id="a_node8"><a xlink:href="class_config.html#a975933ecde91dc436d4ca39464cfd25f" target="_top" xlink:title="display all config on USART0 ">
<polygon fill="none" stroke="black" points="397.5,-456.5 397.5,-475.5 479.5,-475.5 479.5,-456.5 397.5,-456.5"/>
<text text-anchor="middle" x="438.5" y="-463.5" font-family="Helvetica,sans-Serif" font-size="10.00">Config::display</text>
</a>
</g>
</g>
<!-- Node6&#45;&gt;Node7 -->
<g id="edge7" class="edge"><title>Node6&#45;&gt;Node7</title>
<path fill="none" stroke="midnightblue" d="M342.228,-466C356.43,-466 372.201,-466 386.758,-466"/>
<polygon fill="midnightblue" stroke="midnightblue" points="387.103,-469.5 397.103,-466 387.103,-462.5 387.103,-469.5"/>
</g>
<!-- Node13 -->
<g id="node14" class="node"><title>Node13</title>
<g id="a_node14"><a xlink:href="class_config.html#a890e1d585e9ae670a6cccaf196250870" target="_top" xlink:title="Config::atoc">
<polygon fill="none" stroke="black" points="403.5,-418.5 403.5,-437.5 473.5,-437.5 473.5,-418.5 403.5,-418.5"/>
<text text-anchor="middle" x="438.5" y="-425.5" font-family="Helvetica,sans-Serif" font-size="10.00">Config::atoc</text>
</a>
</g>
</g>
<!-- Node6&#45;&gt;Node13 -->
<g id="edge18" class="edge"><title>Node6&#45;&gt;Node13</title>
<path fill="none" stroke="midnightblue" d="M332.454,-456.411C350.868,-451.431 373.55,-445.296 393.118,-440.004"/>
<polygon fill="midnightblue" stroke="midnightblue" points="394.289,-443.313 403.029,-437.323 392.462,-436.555 394.289,-443.313"/>
</g>
<!-- Node14 -->
<g id="node15" class="node"><title>Node14</title>
<g id="a_node15"><a xlink:href="class_config.html#ab2f7c3fc31f5a2c4e115860474dd8f55" target="_top" xlink:title="Load saved config data from the eeprom. ">
<polygon fill="none" stroke="black" points="388,-500.5 388,-519.5 489,-519.5 489,-500.5 388,-500.5"/>
<text text-anchor="middle" x="438.5" y="-507.5" font-family="Helvetica,sans-Serif" font-size="10.00">Config::load_logger</text>
</a>
</g>
</g>
<!-- Node6&#45;&gt;Node14 -->
<g id="edge19" class="edge"><title>Node6&#45;&gt;Node14</title>
<path fill="none" stroke="midnightblue" d="M327.486,-475.547C347.923,-481.947 375.054,-490.444 397.259,-497.398"/>
<polygon fill="midnightblue" stroke="midnightblue" points="396.484,-500.823 407.073,-500.471 398.576,-494.143 396.484,-500.823"/>
</g>
<!-- Node15 -->
<g id="node16" class="node"><title>Node15</title>
<g id="a_node16"><a xlink:href="class_config.html#ad634dbd3d1afb02eac176fd4f0150614" target="_top" xlink:title="Initialize the eeprom memory. ">
<polygon fill="none" stroke="black" points="541,-533 541,-563 627,-563 627,-533 541,-533"/>
<text text-anchor="start" x="549" y="-551" font-family="Helvetica,sans-Serif" font-size="10.00">Config::initialize</text>
<text text-anchor="middle" x="584" y="-540" font-family="Helvetica,sans-Serif" font-size="10.00">_logger</text>
</a>
</g>
</g>
<!-- Node6&#45;&gt;Node15 -->
<g id="edge24" class="edge"><title>Node6&#45;&gt;Node15</title>
<path fill="none" stroke="midnightblue" d="M306.241,-475.752C320.652,-490.246 350.052,-517.045 381,-529 429.314,-547.664 488.768,-551.156 530.626,-550.747"/>
<polygon fill="midnightblue" stroke="midnightblue" points="530.935,-554.242 540.871,-550.566 530.811,-547.244 530.935,-554.242"/>
</g>
<!-- Node16 -->
<g id="node17" class="node"><title>Node16</title>
<g id="a_node17"><a xlink:href="class_config.html#a4cda6b3fcf08b798afe3bf1311450b0c" target="_top" xlink:title="Update saved config data in the eeprom. ">
<polygon fill="none" stroke="black" points="672,-560.5 672,-579.5 784,-579.5 784,-560.5 672,-560.5"/>
<text text-anchor="middle" x="728" y="-567.5" font-family="Helvetica,sans-Serif" font-size="10.00">Config::update_logger</text>
</a>
</g>
</g>
<!-- Node6&#45;&gt;Node16 -->
<g id="edge23" class="edge"><title>Node6&#45;&gt;Node16</title>
<path fill="none" stroke="midnightblue" d="M302.946,-475.76C315.009,-494.588 344.352,-535.676 381,-554 472.891,-599.945 596.235,-591.691 668.123,-581.117"/>
<polygon fill="midnightblue" stroke="midnightblue" points="668.993,-584.525 678.346,-579.546 667.93,-577.606 668.993,-584.525"/>
</g>
<!-- Node7&#45;&gt;Node5 -->
<g id="edge8" class="edge"><title>Node7&#45;&gt;Node5</title>
<path fill="none" stroke="midnightblue" d="M479.549,-457.682C495.818,-454.326 514.799,-450.442 532,-447 584.778,-436.437 645.672,-424.632 685.175,-417.024"/>
<polygon fill="midnightblue" stroke="midnightblue" points="686.073,-420.415 695.232,-415.088 684.75,-413.541 686.073,-420.415"/>
</g>
<!-- Node8 -->
<g id="node9" class="node"><title>Node8</title>
<g id="a_node9"><a xlink:href="class_sensor.html#aa14d1a074d1079cff037fd01ed74897c" target="_top" xlink:title="This method print the sensor configuration for the sensor. It&#39;s a good idea to overload this function...">
<polygon fill="none" stroke="black" points="532,-494.5 532,-513.5 636,-513.5 636,-494.5 532,-494.5"/>
<text text-anchor="middle" x="584" y="-501.5" font-family="Helvetica,sans-Serif" font-size="10.00">Sensor::print_config</text>
</a>
</g>
</g>
<!-- Node7&#45;&gt;Node8 -->
<g id="edge9" class="edge"><title>Node7&#45;&gt;Node8</title>
<path fill="none" stroke="midnightblue" d="M475.711,-475.589C494.321,-480.517 517.197,-486.575 537.039,-491.829"/>
<polygon fill="midnightblue" stroke="midnightblue" points="536.238,-495.238 546.8,-494.414 538.03,-488.471 536.238,-495.238"/>
</g>
<!-- Node10 -->
<g id="node11" class="node"><title>Node10</title>
<g id="a_node11"><a xlink:href="class_power.html#afd1c8cab1d4549eb45be61bdd34ae97d" target="_top" xlink:title="This method print the configuration for the power measurement. It&#39;s a good idea to overload this func...">
<polygon fill="none" stroke="black" points="533.5,-456.5 533.5,-475.5 634.5,-475.5 634.5,-456.5 533.5,-456.5"/>
<text text-anchor="middle" x="584" y="-463.5" font-family="Helvetica,sans-Serif" font-size="10.00">Power::print_config</text>
</a>
</g>
</g>
<!-- Node7&#45;&gt;Node10 -->
<g id="edge12" class="edge"><title>Node7&#45;&gt;Node10</title>
<path fill="none" stroke="midnightblue" d="M479.855,-466C493.196,-466 508.341,-466 522.838,-466"/>
<polygon fill="midnightblue" stroke="midnightblue" points="523.245,-469.5 533.245,-466 523.245,-462.5 523.245,-469.5"/>
</g>
<!-- Node12 -->
<g id="node13" class="node"><title>Node12</title>
<g id="a_node13"><a xlink:href="class_r_t_c.html#a59f014e14e774bf372dcf0d5d64e6717" target="_top" xlink:title="RTC::print_config">
<polygon fill="none" stroke="black" points="537,-380.5 537,-399.5 631,-399.5 631,-380.5 537,-380.5"/>
<text text-anchor="middle" x="584" y="-387.5" font-family="Helvetica,sans-Serif" font-size="10.00">RTC::print_config</text>
</a>
</g>
</g>
<!-- Node7&#45;&gt;Node12 -->
<g id="edge15" class="edge"><title>Node7&#45;&gt;Node12</title>
<path fill="none" stroke="midnightblue" d="M475.459,-456.425C482.508,-453.859 489.672,-450.735 496,-447 514.692,-435.968 513.975,-426.092 532,-414 537.44,-410.351 543.521,-406.969 549.538,-403.965"/>
<polygon fill="midnightblue" stroke="midnightblue" points="551.291,-407.007 558.836,-399.569 548.299,-400.679 551.291,-407.007"/>
</g>
<!-- Node8&#45;&gt;Node5 -->
<g id="edge10" class="edge"><title>Node8&#45;&gt;Node5</title>
<path fill="none" stroke="midnightblue" d="M617.374,-494.481C623.81,-491.899 630.326,-488.754 636,-485 655.402,-472.163 654.335,-462.138 672,-447 681.581,-438.79 692.944,-430.699 702.847,-424.108"/>
<polygon fill="midnightblue" stroke="midnightblue" points="704.967,-426.904 711.439,-418.515 701.148,-421.038 704.967,-426.904"/>
</g>
<!-- Node9 -->
<g id="node10" class="node"><title>Node9</title>
<g id="a_node10"><a xlink:href="class_sensor.html#a9478b09a17b24105c0fe5b32e988224a" target="_top" xlink:title="Sensor::print">
<polygon fill="none" stroke="black" points="692,-494.5 692,-513.5 764,-513.5 764,-494.5 692,-494.5"/>
<text text-anchor="middle" x="728" y="-501.5" font-family="Helvetica,sans-Serif" font-size="10.00">Sensor::print</text>
</a>
</g>
</g>
<!-- Node8&#45;&gt;Node9 -->
<g id="edge11" class="edge"><title>Node8&#45;&gt;Node9</title>
<path fill="none" stroke="midnightblue" d="M636.265,-504C651.096,-504 667.175,-504 681.62,-504"/>
<polygon fill="midnightblue" stroke="midnightblue" points="681.808,-507.5 691.808,-504 681.808,-500.5 681.808,-507.5"/>
</g>
<!-- Node10&#45;&gt;Node5 -->
<g id="edge13" class="edge"><title>Node10&#45;&gt;Node5</title>
<path fill="none" stroke="midnightblue" d="M608.768,-456.459C632.011,-447.13 667.613,-432.838 693.678,-422.376"/>
<polygon fill="midnightblue" stroke="midnightblue" points="695.178,-425.545 703.155,-418.572 692.571,-419.049 695.178,-425.545"/>
</g>
<!-- Node11 -->
<g id="node12" class="node"><title>Node11</title>
<g id="a_node12"><a xlink:href="class_power.html#a3a915a3ea9b9017cae450959ef8af3de" target="_top" xlink:title="Power::print">
<polygon fill="none" stroke="black" points="693.5,-456.5 693.5,-475.5 762.5,-475.5 762.5,-456.5 693.5,-456.5"/>
<text text-anchor="middle" x="728" y="-463.5" font-family="Helvetica,sans-Serif" font-size="10.00">Power::print</text>
</a>
</g>
</g>
<!-- Node10&#45;&gt;Node11 -->
<g id="edge14" class="edge"><title>Node10&#45;&gt;Node11</title>
<path fill="none" stroke="midnightblue" d="M634.665,-466C650.39,-466 667.655,-466 682.958,-466"/>
<polygon fill="midnightblue" stroke="midnightblue" points="683.196,-469.5 693.196,-466 683.196,-462.5 683.196,-469.5"/>
</g>
<!-- Node12&#45;&gt;Node5 -->
<g id="edge16" class="edge"><title>Node12&#45;&gt;Node5</title>
<path fill="none" stroke="midnightblue" d="M631.103,-396.169C648.54,-398.502 668.27,-401.142 685.282,-403.418"/>
<polygon fill="midnightblue" stroke="midnightblue" points="685.101,-406.925 695.477,-404.782 686.03,-399.987 685.101,-406.925"/>
</g>
<!-- Node14&#45;&gt;Node15 -->
<g id="edge20" class="edge"><title>Node14&#45;&gt;Node15</title>
<path fill="none" stroke="midnightblue" d="M489.287,-516.723C505.224,-520.511 522.76,-525.207 538.311,-529.862"/>
<polygon fill="midnightblue" stroke="midnightblue" points="537.618,-533.311 548.205,-532.905 539.676,-526.62 537.618,-533.311"/>
</g>
<!-- Node15&#45;&gt;Node14 -->
<g id="edge22" class="edge"><title>Node15&#45;&gt;Node14</title>
<path fill="none" stroke="midnightblue" d="M540.811,-543.041C517.176,-537.691 488.355,-529.815 467.504,-522.896"/>
<polygon fill="midnightblue" stroke="midnightblue" points="468.561,-519.559 457.966,-519.592 466.27,-526.173 468.561,-519.559"/>
</g>
<!-- Node15&#45;&gt;Node16 -->
<g id="edge21" class="edge"><title>Node15&#45;&gt;Node16</title>
<path fill="none" stroke="midnightblue" d="M627.22,-554.541C638.033,-556.216 649.917,-558.058 661.598,-559.867"/>
<polygon fill="midnightblue" stroke="midnightblue" points="661.361,-563.372 671.779,-561.445 662.433,-556.455 661.361,-563.372"/>
</g>
<!-- Node18 -->
<g id="node19" class="node"><title>Node18</title>
<g id="a_node19"><a xlink:href="class_state.html#aa272f704a5f33920524fb57c80339b2f" target="_top" xlink:title="State::execute">
<polygon fill="none" stroke="black" points="256,-190.5 256,-209.5 336,-209.5 336,-190.5 256,-190.5"/>
<text text-anchor="middle" x="296" y="-197.5" font-family="Helvetica,sans-Serif" font-size="10.00">State::execute</text>
</a>
</g>
</g>
<!-- Node17&#45;&gt;Node18 -->
<g id="edge26" class="edge"><title>Node17&#45;&gt;Node18</title>
<path fill="none" stroke="midnightblue" d="M181.73,-200C201.152,-200 224.976,-200 245.756,-200"/>
<polygon fill="midnightblue" stroke="midnightblue" points="245.991,-203.5 255.991,-200 245.991,-196.5 245.991,-203.5"/>
</g>
<!-- Node20 -->
<g id="node21" class="node"><title>Node20</title>
<g id="a_node21"><a xlink:href="class_t_w_i.html#a3e375d4c03edae3f0c8263a330eddd8d" target="_top" xlink:title="TWI::receive">
<polygon fill="none" stroke="black" points="259.5,-114.5 259.5,-133.5 332.5,-133.5 332.5,-114.5 259.5,-114.5"/>
<text text-anchor="middle" x="296" y="-121.5" font-family="Helvetica,sans-Serif" font-size="10.00">TWI::receive</text>
</a>
</g>
</g>
<!-- Node19&#45;&gt;Node20 -->
<g id="edge28" class="edge"><title>Node19&#45;&gt;Node20</title>
<path fill="none" stroke="midnightblue" d="M181.73,-152.411C202.313,-147.248 227.841,-140.845 249.448,-135.426"/>
<polygon fill="midnightblue" stroke="midnightblue" points="250.536,-138.761 259.384,-132.933 248.833,-131.971 250.536,-138.761"/>
</g>
<!-- Node21 -->
<g id="node22" class="node"><title>Node21</title>
<g id="a_node22"><a xlink:href="class_t_w_i.html#a130b2bf159b768c28ae0d4129c556711" target="_top" xlink:title="TWI::start">
<polygon fill="none" stroke="black" points="408,-190.5 408,-209.5 469,-209.5 469,-190.5 408,-190.5"/>
<text text-anchor="middle" x="438.5" y="-197.5" font-family="Helvetica,sans-Serif" font-size="10.00">TWI::start</text>
</a>
</g>
</g>
<!-- Node20&#45;&gt;Node21 -->
<g id="edge29" class="edge"><title>Node20&#45;&gt;Node21</title>
<path fill="none" stroke="midnightblue" d="M308.878,-133.605C324.594,-145.941 353.526,-167.378 381,-181 386.405,-183.68 392.278,-186.125 398.126,-188.302"/>
<polygon fill="midnightblue" stroke="midnightblue" points="397.262,-191.708 407.857,-191.709 399.576,-185.101 397.262,-191.708"/>
</g>
<!-- Node22 -->
<g id="node23" class="node"><title>Node22</title>
<g id="a_node23"><a xlink:href="class_t_w_i.html#a6bde06891e3037d407b28a4ecbc3386f" target="_top" xlink:title="TWI::get_status">
<polygon fill="none" stroke="black" points="395,-152.5 395,-171.5 482,-171.5 482,-152.5 395,-152.5"/>
<text text-anchor="middle" x="438.5" y="-159.5" font-family="Helvetica,sans-Serif" font-size="10.00">TWI::get_status</text>
</a>
</g>
</g>
<!-- Node20&#45;&gt;Node22 -->
<g id="edge30" class="edge"><title>Node20&#45;&gt;Node22</title>
<path fill="none" stroke="midnightblue" d="M332.454,-133.589C350.591,-138.494 372.868,-144.52 392.233,-149.757"/>
<polygon fill="midnightblue" stroke="midnightblue" points="391.49,-153.182 402.057,-152.414 393.318,-146.425 391.49,-153.182"/>
</g>
<!-- Node23 -->
<g id="node24" class="node"><title>Node23</title>
<g id="a_node24"><a xlink:href="class_t_w_i.html#a29a1270e7b1ee2b573c1a32e3214ac57" target="_top" xlink:title="TWI::restart">
<polygon fill="none" stroke="black" points="404,-114.5 404,-133.5 473,-133.5 473,-114.5 404,-114.5"/>
<text text-anchor="middle" x="438.5" y="-121.5" font-family="Helvetica,sans-Serif" font-size="10.00">TWI::restart</text>
</a>
</g>
</g>
<!-- Node20&#45;&gt;Node23 -->
<g id="edge31" class="edge"><title>Node20&#45;&gt;Node23</title>
<path fill="none" stroke="midnightblue" d="M332.818,-124C351.287,-124 373.975,-124 393.503,-124"/>
<polygon fill="midnightblue" stroke="midnightblue" points="393.682,-127.5 403.682,-124 393.682,-120.5 393.682,-127.5"/>
</g>
<!-- Node24 -->
<g id="node25" class="node"><title>Node24</title>
<g id="a_node25"><a xlink:href="class_t_w_i.html#ab5cefdcf75964a3ce2ed54303de56614" target="_top" xlink:title="TWI::get_ack">
<polygon fill="none" stroke="black" points="400.5,-76.5 400.5,-95.5 476.5,-95.5 476.5,-76.5 400.5,-76.5"/>
<text text-anchor="middle" x="438.5" y="-83.5" font-family="Helvetica,sans-Serif" font-size="10.00">TWI::get_ack</text>
</a>
</g>
</g>
<!-- Node20&#45;&gt;Node24 -->
<g id="edge32" class="edge"><title>Node20&#45;&gt;Node24</title>
<path fill="none" stroke="midnightblue" d="M332.454,-114.411C350.591,-109.506 372.868,-103.48 392.233,-98.2429"/>
<polygon fill="midnightblue" stroke="midnightblue" points="393.318,-101.575 402.057,-95.5859 391.49,-94.8182 393.318,-101.575"/>
</g>
<!-- Node25 -->
<g id="node26" class="node"><title>Node25</title>
<g id="a_node26"><a xlink:href="class_t_w_i.html#a8fb1629575f81558db83b54955470136" target="_top" xlink:title="TWI::get_nack">
<polygon fill="none" stroke="black" points="398,-38.5 398,-57.5 479,-57.5 479,-38.5 398,-38.5"/>
<text text-anchor="middle" x="438.5" y="-45.5" font-family="Helvetica,sans-Serif" font-size="10.00">TWI::get_nack</text>
</a>
</g>
</g>
<!-- Node20&#45;&gt;Node25 -->
<g id="edge33" class="edge"><title>Node20&#45;&gt;Node25</title>
<path fill="none" stroke="midnightblue" d="M318.201,-114.368C326.796,-110.107 336.644,-104.758 345,-99 362.627,-86.8524 362.481,-77.7393 381,-67 384.626,-64.8974 388.518,-62.9845 392.503,-61.254"/>
<polygon fill="midnightblue" stroke="midnightblue" points="393.872,-64.4764 401.883,-57.5435 391.297,-57.9671 393.872,-64.4764"/>
</g>
<!-- Node26 -->
<g id="node27" class="node"><title>Node26</title>
<g id="a_node27"><a xlink:href="class_t_w_i.html#a3ed950888f040e24dc9dcb0ba65d17f1" target="_top" xlink:title="TWI::stop">
<polygon fill="none" stroke="black" points="408.5,-0.5 408.5,-19.5 468.5,-19.5 468.5,-0.5 408.5,-0.5"/>
<text text-anchor="middle" x="438.5" y="-7.5" font-family="Helvetica,sans-Serif" font-size="10.00">TWI::stop</text>
</a>
</g>
</g>
<!-- Node20&#45;&gt;Node26 -->
<g id="edge34" class="edge"><title>Node20&#45;&gt;Node26</title>
<path fill="none" stroke="midnightblue" d="M322.357,-114.404C330.298,-110.509 338.638,-105.395 345,-99 369.674,-74.1986 354.471,-51.8065 381,-29 386.167,-24.5579 392.414,-21.1439 398.843,-18.5231"/>
<polygon fill="midnightblue" stroke="midnightblue" points="400.002,-21.8255 408.289,-15.2233 397.694,-15.2172 400.002,-21.8255"/>
</g>
<!-- Node28&#45;&gt;Node27 -->
<g id="edge37" class="edge"><title>Node28&#45;&gt;Node27</title>
<path fill="none" stroke="midnightblue" d="M203.377,-102.981C217.886,-99.3422 233.208,-95.499 247.083,-92.0187"/>
<polygon fill="midnightblue" stroke="midnightblue" points="248.051,-95.3846 256.899,-89.5568 246.347,-88.5949 248.051,-95.3846"/>
</g>
</g>
</svg>
