<?xml version="1.0" encoding="UTF-8" standalone="no"?>
<!DOCTYPE svg PUBLIC "-//W3C//DTD SVG 1.1//EN"
 "http://www.w3.org/Graphics/SVG/1.1/DTD/svg11.dtd">
<!-- Generated by graphviz version 2.38.0 (20140413.2041)
 -->
<!-- Title: powerDC.cpp Pages: 1 -->
<svg width="96pt" height="196pt"
 viewBox="0.00 0.00 96.00 196.00" xmlns="http://www.w3.org/2000/svg" xmlns:xlink="http://www.w3.org/1999/xlink">
<g id="graph0" class="graph" transform="scale(1 1) rotate(0) translate(4 192)">
<title>powerDC.cpp</title>
<!-- Node0 -->
<g id="node1" class="node"><title>Node0</title>
<polygon fill="#bfbfbf" stroke="black" points="5.5,-168.5 5.5,-187.5 82.5,-187.5 82.5,-168.5 5.5,-168.5"/>
<text text-anchor="middle" x="44" y="-175.5" font-family="Helvetica,sans-Serif" font-size="10.00">powerDC.cpp</text>
</g>
<!-- Node1 -->
<g id="node2" class="node"><title>Node1</title>
<g id="a_node2"><a xlink:href="power_d_c_8h.html" target="_top" xlink:title="Brief description of file. ">
<polygon fill="none" stroke="black" points="-7.10543e-15,-112.5 -7.10543e-15,-131.5 88,-131.5 88,-112.5 -7.10543e-15,-112.5"/>
<text text-anchor="middle" x="44" y="-119.5" font-family="Helvetica,sans-Serif" font-size="10.00">../lib/powerDC.h</text>
</a>
</g>
</g>
<!-- Node0&#45;&gt;Node1 -->
<g id="edge1" class="edge"><title>Node0&#45;&gt;Node1</title>
<path fill="none" stroke="midnightblue" d="M44,-168.083C44,-161.006 44,-150.861 44,-141.986"/>
<polygon fill="midnightblue" stroke="midnightblue" points="47.5001,-141.751 44,-131.751 40.5001,-141.751 47.5001,-141.751"/>
</g>
<!-- Node2 -->
<g id="node3" class="node"><title>Node2</title>
<g id="a_node3"><a xlink:href="_power_8h.html" target="_top" xlink:title="../lib/Power.h">
<polygon fill="none" stroke="black" points="7,-56.5 7,-75.5 81,-75.5 81,-56.5 7,-56.5"/>
<text text-anchor="middle" x="44" y="-63.5" font-family="Helvetica,sans-Serif" font-size="10.00">../lib/Power.h</text>
</a>
</g>
</g>
<!-- Node1&#45;&gt;Node2 -->
<g id="edge2" class="edge"><title>Node1&#45;&gt;Node2</title>
<path fill="none" stroke="midnightblue" d="M44,-112.083C44,-105.006 44,-94.8611 44,-85.9865"/>
<polygon fill="midnightblue" stroke="midnightblue" points="47.5001,-85.751 44,-75.7511 40.5001,-85.7511 47.5001,-85.751"/>
</g>
<!-- Node3 -->
<g id="node4" class="node"><title>Node3</title>
<g id="a_node4"><a xlink:href="main_8h.html" target="_top" xlink:title="The main.h file regroup global constant declaration. ">
<polygon fill="none" stroke="black" points="10,-0.5 10,-19.5 78,-19.5 78,-0.5 10,-0.5"/>
<text text-anchor="middle" x="44" y="-7.5" font-family="Helvetica,sans-Serif" font-size="10.00">../lib/main.h</text>
</a>
</g>
</g>
<!-- Node2&#45;&gt;Node3 -->
<g id="edge3" class="edge"><title>Node2&#45;&gt;Node3</title>
<path fill="none" stroke="midnightblue" d="M44,-56.083C44,-49.0059 44,-38.8611 44,-29.9865"/>
<polygon fill="midnightblue" stroke="midnightblue" points="47.5001,-29.751 44,-19.7511 40.5001,-29.7511 47.5001,-29.751"/>
</g>
</g>
</svg>
