<?xml version="1.0" encoding="UTF-8" standalone="no"?>
<!DOCTYPE svg PUBLIC "-//W3C//DTD SVG 1.1//EN"
 "http://www.w3.org/Graphics/SVG/1.1/DTD/svg11.dtd">
<!-- Generated by graphviz version 2.38.0 (20140413.2041)
 -->
<!-- Title: st_Sleep.cpp Pages: 1 -->
<!--zoomable 252 -->
<svg id="main" version="1.1" xmlns="http://www.w3.org/2000/svg" xmlns:xlink="http://www.w3.org/1999/xlink" xml:space="preserve" onload="init(evt)">
<style type="text/css"><![CDATA[
.edge:hover path { stroke: red; }
.edge:hover polygon { stroke: red; fill: red; }
]]></style>
<script type="text/javascript"><![CDATA[
var edges = document.getElementsByTagName('g');
if (edges && edges.length) {
  for (var i=0;i<edges.length;i++) {
    if (edges[i].id.substr(0,4)=='edge') {
      edges[i].setAttribute('class','edge');
    }
  }
}
]]></script>
        <defs>
                <circle id="rim" cx="0" cy="0" r="7"/>
                <circle id="rim2" cx="0" cy="0" r="3.5"/>
                <g id="zoomPlus">
                        <use xlink:href="#rim" fill="#404040">
                                <set attributeName="fill" to="#808080" begin="zoomplus.mouseover" end="zoomplus.mouseout"/>
                        </use>
                        <path d="M-4,0h8M0,-4v8" fill="none" stroke="white" stroke-width="1.5" pointer-events="none"/>
                </g>
                <g id="zoomMin">
                        <use xlink:href="#rim" fill="#404040">
                                <set attributeName="fill" to="#808080" begin="zoomminus.mouseover" end="zoomminus.mouseout"/>
                        </use>
                        <path d="M-4,0h8" fill="none" stroke="white" stroke-width="1.5" pointer-events="none"/>
                </g>
                <g id="dirArrow">
                        <path fill="none" stroke="white" stroke-width="1.5" d="M0,-3.0v7 M-2.5,-0.5L0,-3.0L2.5,-0.5"/>
                </g>
               <g id="resetDef">
                       <use xlink:href="#rim2" fill="#404040">
                               <set attributeName="fill" to="#808080" begin="reset.mouseover" end="reset.mouseout"/>
                       </use>
               </g>
        </defs>

<script type="text/javascript">
var viewWidth = 1005;
var viewHeight = 252;
var sectionId = 'dynsection-0';
</script>
<script xlink:href="svgpan.js"/>
<svg id="graph" class="graph">
<g id="viewport">
<title>st_Sleep.cpp</title>
<!-- Node0 -->
<g id="node1" class="node"><title>Node0</title>
<polygon fill="#bfbfbf" stroke="black" points="413.5,-224.5 413.5,-243.5 487.5,-243.5 487.5,-224.5 413.5,-224.5"/>
<text text-anchor="middle" x="450.5" y="-231.5" font-family="Helvetica,sans-Serif" font-size="10.00">st_Sleep.cpp</text>
</g>
<!-- Node1 -->
<g id="node2" class="node"><title>Node1</title>
<polygon fill="none" stroke="#bfbfbf" points="223,-168.5 223,-187.5 272,-187.5 272,-168.5 223,-168.5"/>
<text text-anchor="middle" x="247.5" y="-175.5" font-family="Helvetica,sans-Serif" font-size="10.00">avr/io.h</text>
</g>
<!-- Node0&#45;&gt;Node1 -->
<g id="edge1" class="edge"><title>Node0&#45;&gt;Node1</title>
<path fill="none" stroke="midnightblue" d="M418.334,-224.444C381.239,-214.576 320.477,-198.413 282.302,-188.258"/>
<polygon fill="midnightblue" stroke="midnightblue" points="282.736,-184.751 272.172,-185.563 280.936,-191.516 282.736,-184.751"/>
</g>
<!-- Node2 -->
<g id="node3" class="node"><title>Node2</title>
<polygon fill="none" stroke="#bfbfbf" points="290.5,-168.5 290.5,-187.5 354.5,-187.5 354.5,-168.5 290.5,-168.5"/>
<text text-anchor="middle" x="322.5" y="-175.5" font-family="Helvetica,sans-Serif" font-size="10.00">util/delay.h</text>
</g>
<!-- Node0&#45;&gt;Node2 -->
<g id="edge2" class="edge"><title>Node0&#45;&gt;Node2</title>
<path fill="none" stroke="midnightblue" d="M430.218,-224.444C409.153,-215.557 375.983,-201.563 352.014,-191.451"/>
<polygon fill="midnightblue" stroke="midnightblue" points="353.261,-188.179 342.687,-187.516 350.54,-194.628 353.261,-188.179"/>
</g>
<!-- Node3 -->
<g id="node4" class="node"><title>Node3</title>
<polygon fill="none" stroke="#bfbfbf" points="373,-168.5 373,-187.5 422,-187.5 422,-168.5 373,-168.5"/>
<text text-anchor="middle" x="397.5" y="-175.5" font-family="Helvetica,sans-Serif" font-size="10.00">string.h</text>
</g>
<!-- Node0&#45;&gt;Node3 -->
<g id="edge3" class="edge"><title>Node0&#45;&gt;Node3</title>
<path fill="none" stroke="midnightblue" d="M441.748,-224.083C434.03,-216.22 422.595,-204.569 413.283,-195.081"/>
<polygon fill="midnightblue" stroke="midnightblue" points="415.592,-192.436 406.089,-187.751 410.596,-197.34 415.592,-192.436"/>
</g>
<!-- Node4 -->
<g id="node5" class="node"><title>Node4</title>
<g id="a_node5"><a xlink:href="_f_s_m_8h.html" target="_top" xlink:title="The FSM is the finish state machine mechanism. ">
<polygon fill="none" stroke="black" points="478.5,-168.5 478.5,-187.5 546.5,-187.5 546.5,-168.5 478.5,-168.5"/>
<text text-anchor="middle" x="512.5" y="-175.5" font-family="Helvetica,sans-Serif" font-size="10.00">../lib/FSM.h</text>
</a>
</g>
</g>
<!-- Node0&#45;&gt;Node4 -->
<g id="edge4" class="edge"><title>Node0&#45;&gt;Node4</title>
<path fill="none" stroke="midnightblue" d="M460.461,-224.324C469.627,-216.341 483.437,-204.313 494.528,-194.653"/>
<polygon fill="midnightblue" stroke="midnightblue" points="497.115,-197.041 502.357,-187.834 492.518,-191.762 497.115,-197.041"/>
</g>
<!-- Node5 -->
<g id="node6" class="node"><title>Node5</title>
<g id="a_node6"><a xlink:href="_usart_8h.html" target="_top" xlink:title="This is the uart library for the atmega1284p. ">
<polygon fill="none" stroke="black" points="0,-112.5 0,-131.5 71,-131.5 71,-112.5 0,-112.5"/>
<text text-anchor="middle" x="35.5" y="-119.5" font-family="Helvetica,sans-Serif" font-size="10.00">../lib/Usart.h</text>
</a>
</g>
</g>
<!-- Node0&#45;&gt;Node5 -->
<g id="edge26" class="edge"><title>Node0&#45;&gt;Node5</title>
<path fill="none" stroke="midnightblue" d="M450.625,-224.221C450.305,-209.976 447.409,-182.012 430.5,-168 375.231,-122.199 180.795,-140.333 109.5,-132 100.343,-130.93 90.5527,-129.758 81.1901,-128.625"/>
<polygon fill="midnightblue" stroke="midnightblue" points="81.5982,-125.149 71.2489,-127.416 80.7534,-132.097 81.5982,-125.149"/>
</g>
<!-- Node10 -->
<g id="node11" class="node"><title>Node10</title>
<g id="a_node11"><a xlink:href="main_8h.html" target="_top" xlink:title="The main.h file regroup global constant declaration. ">
<polygon fill="none" stroke="black" points="297.5,-0.5 297.5,-19.5 365.5,-19.5 365.5,-0.5 297.5,-0.5"/>
<text text-anchor="middle" x="331.5" y="-7.5" font-family="Helvetica,sans-Serif" font-size="10.00">../lib/main.h</text>
</a>
</g>
</g>
<!-- Node0&#45;&gt;Node10 -->
<g id="edge25" class="edge"><title>Node0&#45;&gt;Node10</title>
<path fill="none" stroke="midnightblue" d="M487.557,-231.01C619.857,-223.221 1057.5,-191.237 989.5,-112 909.712,-19.0302 510.791,-10.7774 376.045,-10.6864"/>
<polygon fill="midnightblue" stroke="midnightblue" points="375.688,-7.18657 365.691,-10.6954 375.694,-14.1866 375.688,-7.18657"/>
</g>
<!-- Node17 -->
<g id="node18" class="node"><title>Node17</title>
<g id="a_node18"><a xlink:href="st___sleep_8h.html" target="_top" xlink:title="../lib/st_Sleep.h">
<polygon fill="none" stroke="black" points="895,-112.5 895,-131.5 980,-131.5 980,-112.5 895,-112.5"/>
<text text-anchor="middle" x="937.5" y="-119.5" font-family="Helvetica,sans-Serif" font-size="10.00">../lib/st_Sleep.h</text>
</a>
</g>
</g>
<!-- Node0&#45;&gt;Node17 -->
<g id="edge27" class="edge"><title>Node0&#45;&gt;Node17</title>
<path fill="none" stroke="midnightblue" d="M487.504,-224.642C574.651,-204.958 792.743,-155.697 889.719,-133.792"/>
<polygon fill="midnightblue" stroke="midnightblue" points="890.565,-137.19 899.549,-131.572 889.023,-130.362 890.565,-137.19"/>
</g>
<!-- Node4&#45;&gt;Node5 -->
<g id="edge5" class="edge"><title>Node4&#45;&gt;Node5</title>
<path fill="none" stroke="midnightblue" d="M478.474,-170.226C473.79,-169.409 469.034,-168.639 464.5,-168 296.953,-144.385 253.131,-155.007 85.5,-132 84.0527,-131.801 82.5835,-131.591 81.1011,-131.371"/>
<polygon fill="midnightblue" stroke="midnightblue" points="81.6467,-127.913 71.2218,-129.803 80.5499,-134.827 81.6467,-127.913"/>
</g>
<!-- Node6 -->
<g id="node7" class="node"><title>Node6</title>
<g id="a_node7"><a xlink:href="_t_w_i_8h.html" target="_top" xlink:title="Brief description of file. ">
<polygon fill="none" stroke="black" points="618,-112.5 618,-131.5 683,-131.5 683,-112.5 618,-112.5"/>
<text text-anchor="middle" x="650.5" y="-119.5" font-family="Helvetica,sans-Serif" font-size="10.00">../lib/TWI.h</text>
</a>
</g>
</g>
<!-- Node4&#45;&gt;Node6 -->
<g id="edge6" class="edge"><title>Node4&#45;&gt;Node6</title>
<path fill="none" stroke="midnightblue" d="M534.367,-168.444C557.279,-159.478 593.475,-145.314 619.366,-135.183"/>
<polygon fill="midnightblue" stroke="midnightblue" points="620.699,-138.42 628.736,-131.516 618.148,-131.901 620.699,-138.42"/>
</g>
<!-- Node7 -->
<g id="node8" class="node"><title>Node7</title>
<g id="a_node8"><a xlink:href="_r_t_c_8h.html" target="_top" xlink:title="The RTC class regroup methods and parameters to use the Real Time Clock : pcf8563. ">
<polygon fill="none" stroke="black" points="701.5,-112.5 701.5,-131.5 769.5,-131.5 769.5,-112.5 701.5,-112.5"/>
<text text-anchor="middle" x="735.5" y="-119.5" font-family="Helvetica,sans-Serif" font-size="10.00">../lib/RTC.h</text>
</a>
</g>
</g>
<!-- Node4&#45;&gt;Node7 -->
<g id="edge7" class="edge"><title>Node4&#45;&gt;Node7</title>
<path fill="none" stroke="midnightblue" d="M546.855,-168.681C585.764,-159.259 649.255,-143.884 691.694,-133.608"/>
<polygon fill="midnightblue" stroke="midnightblue" points="692.577,-136.995 701.472,-131.24 690.929,-130.192 692.577,-136.995"/>
</g>
<!-- Node8 -->
<g id="node9" class="node"><title>Node8</title>
<g id="a_node9"><a xlink:href="_windvane_8h.html" target="_top" xlink:title="Brief description of file. ">
<polygon fill="none" stroke="black" points="127.5,-112.5 127.5,-131.5 217.5,-131.5 217.5,-112.5 127.5,-112.5"/>
<text text-anchor="middle" x="172.5" y="-119.5" font-family="Helvetica,sans-Serif" font-size="10.00">../lib/Windvane.h</text>
</a>
</g>
</g>
<!-- Node4&#45;&gt;Node8 -->
<g id="edge8" class="edge"><title>Node4&#45;&gt;Node8</title>
<path fill="none" stroke="midnightblue" d="M478.438,-170.46C473.76,-169.607 469.014,-168.764 464.5,-168 362.214,-150.68 333.853,-148.891 227.743,-132.174"/>
<polygon fill="midnightblue" stroke="midnightblue" points="227.997,-128.671 217.573,-130.564 226.903,-135.585 227.997,-128.671"/>
</g>
<!-- Node11 -->
<g id="node12" class="node"><title>Node11</title>
<g id="a_node12"><a xlink:href="_anemometer_8h.html" target="_top" xlink:title="Brief description of file. ">
<polygon fill="none" stroke="black" points="235.5,-112.5 235.5,-131.5 337.5,-131.5 337.5,-112.5 235.5,-112.5"/>
<text text-anchor="middle" x="286.5" y="-119.5" font-family="Helvetica,sans-Serif" font-size="10.00">../lib/Anemometer.h</text>
</a>
</g>
</g>
<!-- Node4&#45;&gt;Node11 -->
<g id="edge11" class="edge"><title>Node4&#45;&gt;Node11</title>
<path fill="none" stroke="midnightblue" d="M478.175,-168.799C439.193,-159.484 375.412,-144.244 332.234,-133.927"/>
<polygon fill="midnightblue" stroke="midnightblue" points="332.809,-130.467 322.269,-131.547 331.182,-137.275 332.809,-130.467"/>
</g>
<!-- Node12 -->
<g id="node13" class="node"><title>Node12</title>
<g id="a_node13"><a xlink:href="_power_8h.html" target="_top" xlink:title="../lib/Power.h">
<polygon fill="none" stroke="black" points="109.5,-56.5 109.5,-75.5 183.5,-75.5 183.5,-56.5 109.5,-56.5"/>
<text text-anchor="middle" x="146.5" y="-63.5" font-family="Helvetica,sans-Serif" font-size="10.00">../lib/Power.h</text>
</a>
</g>
</g>
<!-- Node4&#45;&gt;Node12 -->
<g id="edge13" class="edge"><title>Node4&#45;&gt;Node12</title>
<path fill="none" stroke="midnightblue" d="M478.469,-170.264C473.786,-169.441 469.031,-168.659 464.5,-168 388.002,-156.868 170.256,-189.421 118.5,-132 105.847,-117.962 118.506,-97.3279 130.629,-83.0919"/>
<polygon fill="midnightblue" stroke="midnightblue" points="133.357,-85.2948 137.509,-75.5475 128.185,-80.5779 133.357,-85.2948"/>
</g>
<!-- Node13 -->
<g id="node14" class="node"><title>Node13</title>
<g id="a_node14"><a xlink:href="_state_8h.html" target="_top" xlink:title="Brief description of file. ">
<polygon fill="none" stroke="black" points="515.5,-56.5 515.5,-75.5 585.5,-75.5 585.5,-56.5 515.5,-56.5"/>
<text text-anchor="middle" x="550.5" y="-63.5" font-family="Helvetica,sans-Serif" font-size="10.00">../lib/State.h</text>
</a>
</g>
</g>
<!-- Node4&#45;&gt;Node13 -->
<g id="edge15" class="edge"><title>Node4&#45;&gt;Node13</title>
<path fill="none" stroke="midnightblue" d="M505.787,-168.262C496.837,-155.467 483.151,-131.086 492.5,-112 499.023,-98.6839 511.596,-88.177 523.373,-80.6761"/>
<polygon fill="midnightblue" stroke="midnightblue" points="525.271,-83.6205 532.111,-75.5294 521.718,-77.5891 525.271,-83.6205"/>
</g>
<!-- Node14 -->
<g id="node15" class="node"><title>Node14</title>
<g id="a_node15"><a xlink:href="st___config_8h.html" target="_top" xlink:title="../lib/st_Config.h">
<polygon fill="none" stroke="black" points="356,-112.5 356,-131.5 445,-131.5 445,-112.5 356,-112.5"/>
<text text-anchor="middle" x="400.5" y="-119.5" font-family="Helvetica,sans-Serif" font-size="10.00">../lib/st_Config.h</text>
</a>
</g>
</g>
<!-- Node4&#45;&gt;Node14 -->
<g id="edge16" class="edge"><title>Node4&#45;&gt;Node14</title>
<path fill="none" stroke="midnightblue" d="M494.505,-168.324C476.462,-159.625 448.453,-146.12 427.697,-136.113"/>
<polygon fill="midnightblue" stroke="midnightblue" points="428.978,-132.845 418.45,-131.655 425.938,-139.15 428.978,-132.845"/>
</g>
<!-- Node15 -->
<g id="node16" class="node"><title>Node15</title>
<g id="a_node16"><a xlink:href="st___measure_8h.html" target="_top" xlink:title="../lib/st_Measure.h">
<polygon fill="none" stroke="black" points="501.5,-112.5 501.5,-131.5 599.5,-131.5 599.5,-112.5 501.5,-112.5"/>
<text text-anchor="middle" x="550.5" y="-119.5" font-family="Helvetica,sans-Serif" font-size="10.00">../lib/st_Measure.h</text>
</a>
</g>
</g>
<!-- Node4&#45;&gt;Node15 -->
<g id="edge19" class="edge"><title>Node4&#45;&gt;Node15</title>
<path fill="none" stroke="midnightblue" d="M518.775,-168.083C524.142,-160.455 532.018,-149.264 538.579,-139.941"/>
<polygon fill="midnightblue" stroke="midnightblue" points="541.449,-141.943 544.342,-131.751 535.725,-137.915 541.449,-141.943"/>
</g>
<!-- Node16 -->
<g id="node17" class="node"><title>Node16</title>
<g id="a_node17"><a xlink:href="st___output_8h.html" target="_top" xlink:title="../lib/st_Output.h">
<polygon fill="none" stroke="black" points="788,-112.5 788,-131.5 877,-131.5 877,-112.5 788,-112.5"/>
<text text-anchor="middle" x="832.5" y="-119.5" font-family="Helvetica,sans-Serif" font-size="10.00">../lib/st_Output.h</text>
</a>
</g>
</g>
<!-- Node4&#45;&gt;Node16 -->
<g id="edge21" class="edge"><title>Node4&#45;&gt;Node16</title>
<path fill="none" stroke="midnightblue" d="M546.746,-171.221C601.995,-161.898 711.288,-143.455 777.536,-132.275"/>
<polygon fill="midnightblue" stroke="midnightblue" points="778.506,-135.661 787.784,-130.546 777.341,-128.759 778.506,-135.661"/>
</g>
<!-- Node4&#45;&gt;Node17 -->
<g id="edge23" class="edge"><title>Node4&#45;&gt;Node17</title>
<path fill="none" stroke="midnightblue" d="M546.618,-173.529C610.804,-166.863 754.124,-151.329 884.768,-132.192"/>
<polygon fill="midnightblue" stroke="midnightblue" points="885.57,-135.611 894.952,-130.689 884.548,-128.686 885.57,-135.611"/>
</g>
<!-- Node9 -->
<g id="node10" class="node"><title>Node9</title>
<g id="a_node10"><a xlink:href="_sensor_8h.html" target="_top" xlink:title="This class is the base class of sensor. ">
<polygon fill="none" stroke="black" points="248,-56.5 248,-75.5 325,-75.5 325,-56.5 248,-56.5"/>
<text text-anchor="middle" x="286.5" y="-63.5" font-family="Helvetica,sans-Serif" font-size="10.00">../lib/Sensor.h</text>
</a>
</g>
</g>
<!-- Node8&#45;&gt;Node9 -->
<g id="edge9" class="edge"><title>Node8&#45;&gt;Node9</title>
<path fill="none" stroke="midnightblue" d="M190.564,-112.444C209.075,-103.675 238.081,-89.9355 259.355,-79.8579"/>
<polygon fill="midnightblue" stroke="midnightblue" points="260.982,-82.9604 268.521,-75.5164 257.985,-76.6343 260.982,-82.9604"/>
</g>
<!-- Node9&#45;&gt;Node10 -->
<g id="edge10" class="edge"><title>Node9&#45;&gt;Node10</title>
<path fill="none" stroke="midnightblue" d="M293.931,-56.083C300.353,-48.3768 309.806,-37.0333 317.622,-27.6531"/>
<polygon fill="midnightblue" stroke="midnightblue" points="320.494,-29.674 324.207,-19.7511 315.117,-25.1927 320.494,-29.674"/>
</g>
<!-- Node11&#45;&gt;Node9 -->
<g id="edge12" class="edge"><title>Node11&#45;&gt;Node9</title>
<path fill="none" stroke="midnightblue" d="M286.5,-112.083C286.5,-105.006 286.5,-94.8611 286.5,-85.9865"/>
<polygon fill="midnightblue" stroke="midnightblue" points="290,-85.751 286.5,-75.7511 283,-85.7511 290,-85.751"/>
</g>
<!-- Node12&#45;&gt;Node10 -->
<g id="edge14" class="edge"><title>Node12&#45;&gt;Node10</title>
<path fill="none" stroke="midnightblue" d="M175.814,-56.4435C207.342,-47.2406 257.631,-32.5617 292.486,-22.3879"/>
<polygon fill="midnightblue" stroke="midnightblue" points="293.705,-25.6783 302.323,-19.5164 291.743,-18.9587 293.705,-25.6783"/>
</g>
<!-- Node14&#45;&gt;Node10 -->
<g id="edge17" class="edge"><title>Node14&#45;&gt;Node10</title>
<path fill="none" stroke="midnightblue" d="M395.086,-112.368C383.749,-94.2957 357.329,-52.1764 342.356,-28.3074"/>
<polygon fill="midnightblue" stroke="midnightblue" points="345.168,-26.2029 336.889,-19.5914 339.238,-29.9226 345.168,-26.2029"/>
</g>
<!-- Node14&#45;&gt;Node13 -->
<g id="edge18" class="edge"><title>Node14&#45;&gt;Node13</title>
<path fill="none" stroke="midnightblue" d="M424.268,-112.444C449.393,-103.399 489.211,-89.064 517.4,-78.9158"/>
<polygon fill="midnightblue" stroke="midnightblue" points="518.62,-82.1968 526.843,-75.5164 516.249,-75.6106 518.62,-82.1968"/>
</g>
<!-- Node15&#45;&gt;Node13 -->
<g id="edge20" class="edge"><title>Node15&#45;&gt;Node13</title>
<path fill="none" stroke="midnightblue" d="M550.5,-112.083C550.5,-105.006 550.5,-94.8611 550.5,-85.9865"/>
<polygon fill="midnightblue" stroke="midnightblue" points="554,-85.751 550.5,-75.7511 547,-85.7511 554,-85.751"/>
</g>
<!-- Node16&#45;&gt;Node13 -->
<g id="edge22" class="edge"><title>Node16&#45;&gt;Node13</title>
<path fill="none" stroke="midnightblue" d="M787.816,-112.444C735.255,-102.379 648.489,-85.7639 595.704,-75.656"/>
<polygon fill="midnightblue" stroke="midnightblue" points="596.1,-72.1683 585.62,-73.7251 594.783,-79.0434 596.1,-72.1683"/>
</g>
<!-- Node17&#45;&gt;Node13 -->
<g id="edge24" class="edge"><title>Node17&#45;&gt;Node13</title>
<path fill="none" stroke="midnightblue" d="M894.945,-113.354C892.089,-112.883 889.254,-112.427 886.5,-112 782.928,-95.9327 660.856,-80.4431 596.144,-72.5028"/>
<polygon fill="midnightblue" stroke="midnightblue" points="596.234,-68.9878 585.883,-71.2481 595.384,-75.9361 596.234,-68.9878"/>
</g>
</g>
</svg>
        <g id="navigator" transform="translate(0 0)" fill="#404254">
                <rect fill="#f2f5e9" fill-opacity="0.5" stroke="#606060" stroke-width=".5" x="0" y="0" width="60" height="60"/>
                <use id="zoomplus" xlink:href="#zoomPlus" x="17" y="9" onmousedown="handleZoom(evt,'in')"/>
                <use id="zoomminus" xlink:href="#zoomMin" x="42" y="9" onmousedown="handleZoom(evt,'out')"/>
                <use id="reset" xlink:href="#resetDef" x="30" y="36" onmousedown="handleReset()"/>
                <g id="arrowUp" xlink:href="#dirArrow" transform="translate(30 24)" onmousedown="handlePan(0,-1)">
                  <use xlink:href="#rim" fill="#404040">
                        <set attributeName="fill" to="#808080" begin="arrowUp.mouseover" end="arrowUp.mouseout"/>
                  </use>
                  <path fill="none" stroke="white" stroke-width="1.5" d="M0,-3.0v7 M-2.5,-0.5L0,-3.0L2.5,-0.5"/>
                </g>
                <g id="arrowRight" xlink:href="#dirArrow" transform="rotate(90) translate(36 -43)" onmousedown="handlePan(1,0)">
                  <use xlink:href="#rim" fill="#404040">
                        <set attributeName="fill" to="#808080" begin="arrowRight.mouseover" end="arrowRight.mouseout"/>
                  </use>
                  <path fill="none" stroke="white" stroke-width="1.5" d="M0,-3.0v7 M-2.5,-0.5L0,-3.0L2.5,-0.5"/>
                </g>
                <g id="arrowDown" xlink:href="#dirArrow" transform="rotate(180) translate(-30 -48)" onmousedown="handlePan(0,1)">
                  <use xlink:href="#rim" fill="#404040">
                        <set attributeName="fill" to="#808080" begin="arrowDown.mouseover" end="arrowDown.mouseout"/>
                  </use>
                  <path fill="none" stroke="white" stroke-width="1.5" d="M0,-3.0v7 M-2.5,-0.5L0,-3.0L2.5,-0.5"/>
                </g>
                <g id="arrowLeft" xlink:href="#dirArrow" transform="rotate(270) translate(-36 17)" onmousedown="handlePan(-1,0)">
                  <use xlink:href="#rim" fill="#404040">
                        <set attributeName="fill" to="#808080" begin="arrowLeft.mouseover" end="arrowLeft.mouseout"/>
                  </use>
                  <path fill="none" stroke="white" stroke-width="1.5" d="M0,-3.0v7 M-2.5,-0.5L0,-3.0L2.5,-0.5"/>
                </g>
        </g>
        <svg viewBox="0 0 15 15" width="100%" height="30px" preserveAspectRatio="xMaxYMin meet">
         <g id="arrow_out" transform="scale(0.3 0.3)">
          <a xlink:href="st___sleep_8cpp__incl_org.svg" target="_base">
           <rect id="button" ry="5" rx="5" y="6" x="6" height="38" width="38"
                fill="#f2f5e9" fill-opacity="0.5" stroke="#606060" stroke-width="1.0"/>
           <path id="arrow"
             d="M 11.500037,31.436501 C 11.940474,20.09759 22.043105,11.32322 32.158766,21.979434 L 37.068811,17.246167 C 37.068811,17.246167 37.088388,32 37.088388,32 L 22.160133,31.978069 C 22.160133,31.978069 26.997745,27.140456 26.997745,27.140456 C 18.528582,18.264221 13.291696,25.230495 11.500037,31.436501 z"
             style="fill:#404040;"/>
          </a>
         </g>
        </svg>
</svg>
