<?xml version="1.0" encoding="UTF-8" standalone="no"?>
<!DOCTYPE svg PUBLIC "-//W3C//DTD SVG 1.1//EN"
 "http://www.w3.org/Graphics/SVG/1.1/DTD/svg11.dtd">
<!-- Generated by graphviz version 2.38.0 (20140413.2041)
 -->
<!-- Title: st_Sleep.cpp Pages: 1 -->
<!--zoomable 252 -->
<svg id="main" version="1.1" xmlns="http://www.w3.org/2000/svg" xmlns:xlink="http://www.w3.org/1999/xlink" xml:space="preserve" onload="init(evt)">
<style type="text/css"><![CDATA[
.edge:hover path { stroke: red; }
.edge:hover polygon { stroke: red; fill: red; }
]]></style>
<script type="text/javascript"><![CDATA[
var edges = document.getElementsByTagName('g');
if (edges && edges.length) {
  for (var i=0;i<edges.length;i++) {
    if (edges[i].id.substr(0,4)=='edge') {
      edges[i].setAttribute('class','edge');
    }
  }
}
]]></script>
        <defs>
                <circle id="rim" cx="0" cy="0" r="7"/>
                <circle id="rim2" cx="0" cy="0" r="3.5"/>
                <g id="zoomPlus">
                        <use xlink:href="#rim" fill="#404040">
                                <set attributeName="fill" to="#808080" begin="zoomplus.mouseover" end="zoomplus.mouseout"/>
                        </use>
                        <path d="M-4,0h8M0,-4v8" fill="none" stroke="white" stroke-width="1.5" pointer-events="none"/>
                </g>
                <g id="zoomMin">
                        <use xlink:href="#rim" fill="#404040">
                                <set attributeName="fill" to="#808080" begin="zoomminus.mouseover" end="zoomminus.mouseout"/>
                        </use>
                        <path d="M-4,0h8" fill="none" stroke="white" stroke-width="1.5" pointer-events="none"/>
                </g>
                <g id="dirArrow">
                        <path fill="none" stroke="white" stroke-width="1.5" d="M0,-3.0v7 M-2.5,-0.5L0,-3.0L2.5,-0.5"/>
                </g>
               <g id="resetDef">
                       <use xlink:href="#rim2" fill="#404040">
                               <set attributeName="fill" to="#808080" begin="reset.mouseover" end="reset.mouseout"/>
                       </use>
               </g>
        </defs>

<script type="text/javascript">
var viewWidth = 1050;
var viewHeight = 252;
var sectionId = 'dynsection-0';
</script>
<script xlink:href="svgpan.js"/>
<svg id="graph" class="graph">
<g id="viewport">
<title>st_Sleep.cpp</title>
<!-- Node0 -->
<g id="node1" class="node"><title>Node0</title>
<polygon fill="#bfbfbf" stroke="black" points="190.5,-224.5 190.5,-243.5 264.5,-243.5 264.5,-224.5 190.5,-224.5"/>
<text text-anchor="middle" x="227.5" y="-231.5" font-family="Helvetica,sans-Serif" font-size="10.00">st_Sleep.cpp</text>
</g>
<!-- Node1 -->
<g id="node2" class="node"><title>Node1</title>
<polygon fill="none" stroke="#bfbfbf" points="0,-168.5 0,-187.5 49,-187.5 49,-168.5 0,-168.5"/>
<text text-anchor="middle" x="24.5" y="-175.5" font-family="Helvetica,sans-Serif" font-size="10.00">avr/io.h</text>
</g>
<!-- Node0&#45;&gt;Node1 -->
<g id="edge1" class="edge"><title>Node0&#45;&gt;Node1</title>
<path fill="none" stroke="midnightblue" d="M195.334,-224.444C158.239,-214.576 97.477,-198.413 59.3021,-188.258"/>
<polygon fill="midnightblue" stroke="midnightblue" points="59.7359,-184.751 49.1722,-185.563 57.9364,-191.516 59.7359,-184.751"/>
</g>
<!-- Node2 -->
<g id="node3" class="node"><title>Node2</title>
<polygon fill="none" stroke="#bfbfbf" points="67.5,-168.5 67.5,-187.5 131.5,-187.5 131.5,-168.5 67.5,-168.5"/>
<text text-anchor="middle" x="99.5" y="-175.5" font-family="Helvetica,sans-Serif" font-size="10.00">util/delay.h</text>
</g>
<!-- Node0&#45;&gt;Node2 -->
<g id="edge2" class="edge"><title>Node0&#45;&gt;Node2</title>
<path fill="none" stroke="midnightblue" d="M207.218,-224.444C186.153,-215.557 152.983,-201.563 129.014,-191.451"/>
<polygon fill="midnightblue" stroke="midnightblue" points="130.261,-188.179 119.687,-187.516 127.54,-194.628 130.261,-188.179"/>
</g>
<!-- Node3 -->
<g id="node4" class="node"><title>Node3</title>
<polygon fill="none" stroke="#bfbfbf" points="150,-168.5 150,-187.5 199,-187.5 199,-168.5 150,-168.5"/>
<text text-anchor="middle" x="174.5" y="-175.5" font-family="Helvetica,sans-Serif" font-size="10.00">string.h</text>
</g>
<!-- Node0&#45;&gt;Node3 -->
<g id="edge3" class="edge"><title>Node0&#45;&gt;Node3</title>
<path fill="none" stroke="midnightblue" d="M218.748,-224.083C211.03,-216.22 199.595,-204.569 190.283,-195.081"/>
<polygon fill="midnightblue" stroke="midnightblue" points="192.592,-192.436 183.089,-187.751 187.596,-197.34 192.592,-192.436"/>
</g>
<!-- Node4 -->
<g id="node5" class="node"><title>Node4</title>
<g id="a_node5"><a xlink:href="_f_s_m_8h.html" target="_top" xlink:title="The FSM is the finish state machine mechanism. ">
<polygon fill="none" stroke="black" points="420.5,-168.5 420.5,-187.5 488.5,-187.5 488.5,-168.5 420.5,-168.5"/>
<text text-anchor="middle" x="454.5" y="-175.5" font-family="Helvetica,sans-Serif" font-size="10.00">../lib/FSM.h</text>
</a>
</g>
</g>
<!-- Node0&#45;&gt;Node4 -->
<g id="edge4" class="edge"><title>Node0&#45;&gt;Node4</title>
<path fill="none" stroke="midnightblue" d="M263.469,-224.444C303.282,-214.972 367.476,-199.702 410.317,-189.51"/>
<polygon fill="midnightblue" stroke="midnightblue" points="411.267,-192.882 420.185,-187.163 409.647,-186.072 411.267,-192.882"/>
</g>
<!-- Node5 -->
<g id="node6" class="node"><title>Node5</title>
<g id="a_node6"><a xlink:href="_usart_8h.html" target="_top" xlink:title="This is the uart library for the atmega1284p. ">
<polygon fill="none" stroke="black" points="44,-112.5 44,-131.5 115,-131.5 115,-112.5 44,-112.5"/>
<text text-anchor="middle" x="79.5" y="-119.5" font-family="Helvetica,sans-Serif" font-size="10.00">../lib/Usart.h</text>
</a>
</g>
</g>
<!-- Node0&#45;&gt;Node5 -->
<g id="edge27" class="edge"><title>Node0&#45;&gt;Node5</title>
<path fill="none" stroke="midnightblue" d="M227.216,-224.184C226.3,-210.389 222.555,-183.662 207.5,-168 195.665,-155.688 156.173,-142.886 124.15,-134.1"/>
<polygon fill="midnightblue" stroke="midnightblue" points="125.056,-130.719 114.491,-131.507 123.241,-137.48 125.056,-130.719"/>
</g>
<!-- Node10 -->
<g id="node11" class="node"><title>Node10</title>
<g id="a_node11"><a xlink:href="main_8h.html" target="_top" xlink:title="The main.h file regroup global constant declaration. ">
<polygon fill="none" stroke="black" points="829.5,-0.5 829.5,-19.5 897.5,-19.5 897.5,-0.5 829.5,-0.5"/>
<text text-anchor="middle" x="863.5" y="-7.5" font-family="Helvetica,sans-Serif" font-size="10.00">../lib/main.h</text>
</a>
</g>
</g>
<!-- Node0&#45;&gt;Node10 -->
<g id="edge26" class="edge"><title>Node0&#45;&gt;Node10</title>
<path fill="none" stroke="midnightblue" d="M264.562,-231.174C415.71,-223.357 979.962,-190.417 1031.5,-132 1075.4,-82.2369 968.604,-41.3177 905.636,-22.3683"/>
<polygon fill="midnightblue" stroke="midnightblue" points="906.518,-18.9793 895.937,-19.5176 904.544,-25.6953 906.518,-18.9793"/>
</g>
<!-- Node18 -->
<g id="node19" class="node"><title>Node18</title>
<g id="a_node19"><a xlink:href="st___sleep_8h.html" target="_top" xlink:title="../lib/st_Sleep.h">
<polygon fill="none" stroke="black" points="133,-112.5 133,-131.5 218,-131.5 218,-112.5 133,-112.5"/>
<text text-anchor="middle" x="175.5" y="-119.5" font-family="Helvetica,sans-Serif" font-size="10.00">../lib/st_Sleep.h</text>
</a>
</g>
</g>
<!-- Node0&#45;&gt;Node18 -->
<g id="edge28" class="edge"><title>Node0&#45;&gt;Node18</title>
<path fill="none" stroke="midnightblue" d="M233.036,-224.072C240.343,-211.043 251.209,-186.371 241.5,-168 234.076,-153.953 220.079,-143.467 206.879,-136.167"/>
<polygon fill="midnightblue" stroke="midnightblue" points="208.457,-133.043 197.959,-131.618 205.277,-139.279 208.457,-133.043"/>
</g>
<!-- Node4&#45;&gt;Node5 -->
<g id="edge5" class="edge"><title>Node4&#45;&gt;Node5</title>
<path fill="none" stroke="midnightblue" d="M420.077,-173.087C361.501,-166.262 238.496,-151.211 124.909,-132.15"/>
<polygon fill="midnightblue" stroke="midnightblue" points="125.447,-128.692 115.003,-130.474 124.279,-135.593 125.447,-128.692"/>
</g>
<!-- Node6 -->
<g id="node7" class="node"><title>Node6</title>
<g id="a_node7"><a xlink:href="_t_w_i_8h.html" target="_top" xlink:title="Brief description of file. ">
<polygon fill="none" stroke="black" points="236,-112.5 236,-131.5 301,-131.5 301,-112.5 236,-112.5"/>
<text text-anchor="middle" x="268.5" y="-119.5" font-family="Helvetica,sans-Serif" font-size="10.00">../lib/TWI.h</text>
</a>
</g>
</g>
<!-- Node4&#45;&gt;Node6 -->
<g id="edge6" class="edge"><title>Node4&#45;&gt;Node6</title>
<path fill="none" stroke="midnightblue" d="M425.028,-168.444C393.329,-159.241 342.768,-144.562 307.725,-134.388"/>
<polygon fill="midnightblue" stroke="midnightblue" points="308.414,-130.943 297.834,-131.516 306.462,-137.666 308.414,-130.943"/>
</g>
<!-- Node7 -->
<g id="node8" class="node"><title>Node7</title>
<g id="a_node8"><a xlink:href="_r_t_c_8h.html" target="_top" xlink:title="The RTC class regroup methods and parameters to use the Real Time Clock : pcf8563. ">
<polygon fill="none" stroke="black" points="319.5,-112.5 319.5,-131.5 387.5,-131.5 387.5,-112.5 319.5,-112.5"/>
<text text-anchor="middle" x="353.5" y="-119.5" font-family="Helvetica,sans-Serif" font-size="10.00">../lib/RTC.h</text>
</a>
</g>
</g>
<!-- Node4&#45;&gt;Node7 -->
<g id="edge7" class="edge"><title>Node4&#45;&gt;Node7</title>
<path fill="none" stroke="midnightblue" d="M438.273,-168.324C422.149,-159.703 397.2,-146.364 378.536,-136.386"/>
<polygon fill="midnightblue" stroke="midnightblue" points="380.156,-133.283 369.687,-131.655 376.856,-139.456 380.156,-133.283"/>
</g>
<!-- Node8 -->
<g id="node9" class="node"><title>Node8</title>
<g id="a_node9"><a xlink:href="_windvane_8h.html" target="_top" xlink:title="Brief description of file. ">
<polygon fill="none" stroke="black" points="812.5,-112.5 812.5,-131.5 902.5,-131.5 902.5,-112.5 812.5,-112.5"/>
<text text-anchor="middle" x="857.5" y="-119.5" font-family="Helvetica,sans-Serif" font-size="10.00">../lib/Windvane.h</text>
</a>
</g>
</g>
<!-- Node4&#45;&gt;Node8 -->
<g id="edge8" class="edge"><title>Node4&#45;&gt;Node8</title>
<path fill="none" stroke="midnightblue" d="M488.711,-172.77C550.586,-165.064 685.192,-148.051 798.5,-132 799.77,-131.82 801.054,-131.637 802.35,-131.45"/>
<polygon fill="midnightblue" stroke="midnightblue" points="803.028,-134.888 812.417,-129.978 802.015,-127.962 803.028,-134.888"/>
</g>
<!-- Node11 -->
<g id="node12" class="node"><title>Node11</title>
<g id="a_node12"><a xlink:href="_anemometer_8h.html" target="_top" xlink:title="Brief description of file. ">
<polygon fill="none" stroke="black" points="920.5,-112.5 920.5,-131.5 1022.5,-131.5 1022.5,-112.5 920.5,-112.5"/>
<text text-anchor="middle" x="971.5" y="-119.5" font-family="Helvetica,sans-Serif" font-size="10.00">../lib/Anemometer.h</text>
</a>
</g>
</g>
<!-- Node4&#45;&gt;Node11 -->
<g id="edge11" class="edge"><title>Node4&#45;&gt;Node11</title>
<path fill="none" stroke="midnightblue" d="M488.676,-174.232C563.206,-168.066 746.152,-152.238 910.184,-132.106"/>
<polygon fill="midnightblue" stroke="midnightblue" points="910.966,-135.536 920.461,-130.836 910.107,-128.589 910.966,-135.536"/>
</g>
<!-- Node12 -->
<g id="node13" class="node"><title>Node12</title>
<g id="a_node13"><a xlink:href="_power_8h.html" target="_top" xlink:title="../lib/Power.h">
<polygon fill="none" stroke="black" points="779.5,-56.5 779.5,-75.5 853.5,-75.5 853.5,-56.5 779.5,-56.5"/>
<text text-anchor="middle" x="816.5" y="-63.5" font-family="Helvetica,sans-Serif" font-size="10.00">../lib/Power.h</text>
</a>
</g>
</g>
<!-- Node4&#45;&gt;Node12 -->
<g id="edge13" class="edge"><title>Node4&#45;&gt;Node12</title>
<path fill="none" stroke="midnightblue" d="M488.632,-175.189C559.096,-170.95 717.957,-158.655 764.5,-132 783.634,-121.042 798.432,-100.056 807.265,-84.8888"/>
<polygon fill="midnightblue" stroke="midnightblue" points="810.442,-86.3746 812.194,-75.9256 804.309,-83.0015 810.442,-86.3746"/>
</g>
<!-- Node13 -->
<g id="node14" class="node"><title>Node13</title>
<g id="a_node14"><a xlink:href="_state_8h.html" target="_top" xlink:title="Brief description of file. ">
<polygon fill="none" stroke="black" points="457.5,-56.5 457.5,-75.5 527.5,-75.5 527.5,-56.5 457.5,-56.5"/>
<text text-anchor="middle" x="492.5" y="-63.5" font-family="Helvetica,sans-Serif" font-size="10.00">../lib/State.h</text>
</a>
</g>
</g>
<!-- Node4&#45;&gt;Node13 -->
<g id="edge15" class="edge"><title>Node4&#45;&gt;Node13</title>
<path fill="none" stroke="midnightblue" d="M447.787,-168.262C438.837,-155.467 425.151,-131.086 434.5,-112 441.023,-98.6839 453.596,-88.177 465.373,-80.6761"/>
<polygon fill="midnightblue" stroke="midnightblue" points="467.271,-83.6205 474.111,-75.5294 463.718,-77.5891 467.271,-83.6205"/>
</g>
<!-- Node14 -->
<g id="node15" class="node"><title>Node14</title>
<g id="a_node15"><a xlink:href="st___config_8h.html" target="_top" xlink:title="../lib/st_Config.h">
<polygon fill="none" stroke="black" points="667,-112.5 667,-131.5 756,-131.5 756,-112.5 667,-112.5"/>
<text text-anchor="middle" x="711.5" y="-119.5" font-family="Helvetica,sans-Serif" font-size="10.00">../lib/st_Config.h</text>
</a>
</g>
</g>
<!-- Node4&#45;&gt;Node14 -->
<g id="edge16" class="edge"><title>Node4&#45;&gt;Node14</title>
<path fill="none" stroke="midnightblue" d="M488.628,-169.829C532.79,-160.55 610.096,-144.307 661.048,-133.601"/>
<polygon fill="midnightblue" stroke="midnightblue" points="661.803,-137.019 670.87,-131.537 660.364,-130.168 661.803,-137.019"/>
</g>
<!-- Node16 -->
<g id="node17" class="node"><title>Node16</title>
<g id="a_node17"><a xlink:href="st___measure_8h.html" target="_top" xlink:title="../lib/st_Measure.h">
<polygon fill="none" stroke="black" points="443.5,-112.5 443.5,-131.5 541.5,-131.5 541.5,-112.5 443.5,-112.5"/>
<text text-anchor="middle" x="492.5" y="-119.5" font-family="Helvetica,sans-Serif" font-size="10.00">../lib/st_Measure.h</text>
</a>
</g>
</g>
<!-- Node4&#45;&gt;Node16 -->
<g id="edge20" class="edge"><title>Node4&#45;&gt;Node16</title>
<path fill="none" stroke="midnightblue" d="M460.775,-168.083C466.142,-160.455 474.018,-149.264 480.579,-139.941"/>
<polygon fill="midnightblue" stroke="midnightblue" points="483.449,-141.943 486.342,-131.751 477.725,-137.915 483.449,-141.943"/>
</g>
<!-- Node17 -->
<g id="node18" class="node"><title>Node17</title>
<g id="a_node18"><a xlink:href="st___output_8h.html" target="_top" xlink:title="../lib/st_Output.h">
<polygon fill="none" stroke="black" points="560,-112.5 560,-131.5 649,-131.5 649,-112.5 560,-112.5"/>
<text text-anchor="middle" x="604.5" y="-119.5" font-family="Helvetica,sans-Serif" font-size="10.00">../lib/st_Output.h</text>
</a>
</g>
</g>
<!-- Node4&#45;&gt;Node17 -->
<g id="edge22" class="edge"><title>Node4&#45;&gt;Node17</title>
<path fill="none" stroke="midnightblue" d="M478.268,-168.444C503.393,-159.399 543.211,-145.064 571.4,-134.916"/>
<polygon fill="midnightblue" stroke="midnightblue" points="572.62,-138.197 580.843,-131.516 570.249,-131.611 572.62,-138.197"/>
</g>
<!-- Node4&#45;&gt;Node18 -->
<g id="edge24" class="edge"><title>Node4&#45;&gt;Node18</title>
<path fill="none" stroke="midnightblue" d="M420.289,-170.379C372.345,-161.099 284.731,-144.141 228.361,-133.231"/>
<polygon fill="midnightblue" stroke="midnightblue" points="228.699,-129.732 218.216,-131.268 227.369,-136.604 228.699,-129.732"/>
</g>
<!-- Node9 -->
<g id="node10" class="node"><title>Node9</title>
<g id="a_node10"><a xlink:href="_sensor_8h.html" target="_top" xlink:title="This class is the base class of sensor. ">
<polygon fill="none" stroke="black" points="872,-56.5 872,-75.5 949,-75.5 949,-56.5 872,-56.5"/>
<text text-anchor="middle" x="910.5" y="-63.5" font-family="Helvetica,sans-Serif" font-size="10.00">../lib/Sensor.h</text>
</a>
</g>
</g>
<!-- Node8&#45;&gt;Node9 -->
<g id="edge9" class="edge"><title>Node8&#45;&gt;Node9</title>
<path fill="none" stroke="midnightblue" d="M866.252,-112.083C873.97,-104.22 885.405,-92.5688 894.717,-83.0813"/>
<polygon fill="midnightblue" stroke="midnightblue" points="897.404,-85.3396 901.911,-75.7511 892.408,-80.4363 897.404,-85.3396"/>
</g>
<!-- Node9&#45;&gt;Node10 -->
<g id="edge10" class="edge"><title>Node9&#45;&gt;Node10</title>
<path fill="none" stroke="midnightblue" d="M902.739,-56.083C895.963,-48.2982 885.957,-36.8015 877.745,-27.3665"/>
<polygon fill="midnightblue" stroke="midnightblue" points="880.322,-24.9963 871.117,-19.7511 875.042,-29.592 880.322,-24.9963"/>
</g>
<!-- Node11&#45;&gt;Node9 -->
<g id="edge12" class="edge"><title>Node11&#45;&gt;Node9</title>
<path fill="none" stroke="midnightblue" d="M961.699,-112.324C952.682,-104.341 939.094,-92.3128 928.182,-82.6529"/>
<polygon fill="midnightblue" stroke="midnightblue" points="930.287,-79.8416 920.479,-75.8339 925.647,-85.083 930.287,-79.8416"/>
</g>
<!-- Node12&#45;&gt;Node10 -->
<g id="edge14" class="edge"><title>Node12&#45;&gt;Node10</title>
<path fill="none" stroke="midnightblue" d="M824.261,-56.083C831.037,-48.2982 841.043,-36.8015 849.255,-27.3665"/>
<polygon fill="midnightblue" stroke="midnightblue" points="851.958,-29.592 855.883,-19.7511 846.678,-24.9963 851.958,-29.592"/>
</g>
<!-- Node14&#45;&gt;Node10 -->
<g id="edge17" class="edge"><title>Node14&#45;&gt;Node10</title>
<path fill="none" stroke="midnightblue" d="M717.547,-112.453C727.389,-99.0269 748.045,-72.7961 770.5,-56 788.641,-42.431 811.519,-31.2976 830.043,-23.4993"/>
<polygon fill="midnightblue" stroke="midnightblue" points="831.617,-26.6377 839.557,-19.6231 828.975,-20.1551 831.617,-26.6377"/>
</g>
<!-- Node14&#45;&gt;Node13 -->
<g id="edge19" class="edge"><title>Node14&#45;&gt;Node13</title>
<path fill="none" stroke="midnightblue" d="M676.799,-112.444C638.915,-103.102 578.151,-88.1194 536.838,-77.9326"/>
<polygon fill="midnightblue" stroke="midnightblue" points="537.586,-74.5123 527.039,-75.5164 535.91,-81.3088 537.586,-74.5123"/>
</g>
<!-- Node15 -->
<g id="node16" class="node"><title>Node15</title>
<g id="a_node16"><a xlink:href="_date_time_8h.html" target="_top" xlink:title="This file declare the DateTime class. ">
<polygon fill="none" stroke="black" points="634,-56.5 634,-75.5 723,-75.5 723,-56.5 634,-56.5"/>
<text text-anchor="middle" x="678.5" y="-63.5" font-family="Helvetica,sans-Serif" font-size="10.00">../lib/DateTime.h</text>
</a>
</g>
</g>
<!-- Node14&#45;&gt;Node15 -->
<g id="edge18" class="edge"><title>Node14&#45;&gt;Node15</title>
<path fill="none" stroke="midnightblue" d="M706.051,-112.083C701.486,-104.613 694.832,-93.7244 689.207,-84.5199"/>
<polygon fill="midnightblue" stroke="midnightblue" points="692.049,-82.4588 683.848,-75.7511 686.076,-86.109 692.049,-82.4588"/>
</g>
<!-- Node16&#45;&gt;Node13 -->
<g id="edge21" class="edge"><title>Node16&#45;&gt;Node13</title>
<path fill="none" stroke="midnightblue" d="M492.5,-112.083C492.5,-105.006 492.5,-94.8611 492.5,-85.9865"/>
<polygon fill="midnightblue" stroke="midnightblue" points="496,-85.751 492.5,-75.7511 489,-85.7511 496,-85.751"/>
</g>
<!-- Node17&#45;&gt;Node13 -->
<g id="edge23" class="edge"><title>Node17&#45;&gt;Node13</title>
<path fill="none" stroke="midnightblue" d="M586.505,-112.324C568.462,-103.625 540.453,-90.1202 519.697,-80.113"/>
<polygon fill="midnightblue" stroke="midnightblue" points="520.978,-76.8449 510.45,-75.6545 517.938,-83.1502 520.978,-76.8449"/>
</g>
<!-- Node18&#45;&gt;Node13 -->
<g id="edge25" class="edge"><title>Node18&#45;&gt;Node13</title>
<path fill="none" stroke="midnightblue" d="M218.073,-113.464C220.924,-112.966 223.754,-112.475 226.5,-112 303.95,-98.6152 394.161,-83.4417 447.123,-74.576"/>
<polygon fill="midnightblue" stroke="midnightblue" points="447.919,-77.9917 457.204,-72.8894 446.763,-71.0876 447.919,-77.9917"/>
</g>
</g>
</svg>
        <g id="navigator" transform="translate(0 0)" fill="#404254">
                <rect fill="#f2f5e9" fill-opacity="0.5" stroke="#606060" stroke-width=".5" x="0" y="0" width="60" height="60"/>
                <use id="zoomplus" xlink:href="#zoomPlus" x="17" y="9" onmousedown="handleZoom(evt,'in')"/>
                <use id="zoomminus" xlink:href="#zoomMin" x="42" y="9" onmousedown="handleZoom(evt,'out')"/>
                <use id="reset" xlink:href="#resetDef" x="30" y="36" onmousedown="handleReset()"/>
                <g id="arrowUp" xlink:href="#dirArrow" transform="translate(30 24)" onmousedown="handlePan(0,-1)">
                  <use xlink:href="#rim" fill="#404040">
                        <set attributeName="fill" to="#808080" begin="arrowUp.mouseover" end="arrowUp.mouseout"/>
                  </use>
                  <path fill="none" stroke="white" stroke-width="1.5" d="M0,-3.0v7 M-2.5,-0.5L0,-3.0L2.5,-0.5"/>
                </g>
                <g id="arrowRight" xlink:href="#dirArrow" transform="rotate(90) translate(36 -43)" onmousedown="handlePan(1,0)">
                  <use xlink:href="#rim" fill="#404040">
                        <set attributeName="fill" to="#808080" begin="arrowRight.mouseover" end="arrowRight.mouseout"/>
                  </use>
                  <path fill="none" stroke="white" stroke-width="1.5" d="M0,-3.0v7 M-2.5,-0.5L0,-3.0L2.5,-0.5"/>
                </g>
                <g id="arrowDown" xlink:href="#dirArrow" transform="rotate(180) translate(-30 -48)" onmousedown="handlePan(0,1)">
                  <use xlink:href="#rim" fill="#404040">
                        <set attributeName="fill" to="#808080" begin="arrowDown.mouseover" end="arrowDown.mouseout"/>
                  </use>
                  <path fill="none" stroke="white" stroke-width="1.5" d="M0,-3.0v7 M-2.5,-0.5L0,-3.0L2.5,-0.5"/>
                </g>
                <g id="arrowLeft" xlink:href="#dirArrow" transform="rotate(270) translate(-36 17)" onmousedown="handlePan(-1,0)">
                  <use xlink:href="#rim" fill="#404040">
                        <set attributeName="fill" to="#808080" begin="arrowLeft.mouseover" end="arrowLeft.mouseout"/>
                  </use>
                  <path fill="none" stroke="white" stroke-width="1.5" d="M0,-3.0v7 M-2.5,-0.5L0,-3.0L2.5,-0.5"/>
                </g>
        </g>
        <svg viewBox="0 0 15 15" width="100%" height="30px" preserveAspectRatio="xMaxYMin meet">
         <g id="arrow_out" transform="scale(0.3 0.3)">
          <a xlink:href="st___sleep_8cpp__incl_org.svg" target="_base">
           <rect id="button" ry="5" rx="5" y="6" x="6" height="38" width="38"
                fill="#f2f5e9" fill-opacity="0.5" stroke="#606060" stroke-width="1.0"/>
           <path id="arrow"
             d="M 11.500037,31.436501 C 11.940474,20.09759 22.043105,11.32322 32.158766,21.979434 L 37.068811,17.246167 C 37.068811,17.246167 37.088388,32 37.088388,32 L 22.160133,31.978069 C 22.160133,31.978069 26.997745,27.140456 26.997745,27.140456 C 18.528582,18.264221 13.291696,25.230495 11.500037,31.436501 z"
             style="fill:#404040;"/>
          </a>
         </g>
        </svg>
</svg>
