<?xml version="1.0" encoding="UTF-8" standalone="no"?>
<!DOCTYPE svg PUBLIC "-//W3C//DTD SVG 1.1//EN"
 "http://www.w3.org/Graphics/SVG/1.1/DTD/svg11.dtd">
<!-- Generated by graphviz version 2.38.0 (20140413.2041)
 -->
<!-- Title: st_Config.h Pages: 1 -->
<svg width="1029pt" height="140pt"
 viewBox="0.00 0.00 1029.00 140.00" xmlns="http://www.w3.org/2000/svg" xmlns:xlink="http://www.w3.org/1999/xlink">
<g id="graph0" class="graph" transform="scale(1 1) rotate(0) translate(4 136)">
<title>st_Config.h</title>
<!-- Node4 -->
<g id="node1" class="node"><title>Node4</title>
<polygon fill="#bfbfbf" stroke="black" points="630,-112.5 630,-131.5 697,-131.5 697,-112.5 630,-112.5"/>
<text text-anchor="middle" x="663.5" y="-119.5" font-family="Helvetica,sans-Serif" font-size="10.00">st_Config.h</text>
</g>
<!-- Node5 -->
<g id="node2" class="node"><title>Node5</title>
<g id="a_node2"><a xlink:href="_f_s_m_8h.html" target="_top" xlink:title="The FSM is the finish state machine mechanism. ">
<polygon fill="none" stroke="black" points="517.5,-56.5 517.5,-75.5 563.5,-75.5 563.5,-56.5 517.5,-56.5"/>
<text text-anchor="middle" x="540.5" y="-63.5" font-family="Helvetica,sans-Serif" font-size="10.00">FSM.h</text>
</a>
</g>
</g>
<!-- Node4&#45;&gt;Node5 -->
<g id="edge1" class="edge"><title>Node4&#45;&gt;Node5</title>
<path fill="none" stroke="midnightblue" d="M634.727,-108.368C611.693,-98.2553 580.016,-84.3486 559.899,-75.5164"/>
<polygon fill="midnightblue" stroke="midnightblue" points="633.447,-111.628 644.01,-112.444 636.261,-105.219 633.447,-111.628"/>
</g>
<!-- Node12 -->
<g id="node9" class="node"><title>Node12</title>
<g id="a_node9"><a xlink:href="st___config_8cpp.html" target="_top" xlink:title="st_Config.cpp">
<polygon fill="none" stroke="black" points="944,-0.5 944,-19.5 1021,-19.5 1021,-0.5 944,-0.5"/>
<text text-anchor="middle" x="982.5" y="-7.5" font-family="Helvetica,sans-Serif" font-size="10.00">st_Config.cpp</text>
</a>
</g>
</g>
<!-- Node4&#45;&gt;Node12 -->
<g id="edge14" class="edge"><title>Node4&#45;&gt;Node12</title>
<path fill="none" stroke="midnightblue" d="M697.999,-109.104C762.719,-86.7864 900.918,-39.1318 957.53,-19.6104"/>
<polygon fill="midnightblue" stroke="midnightblue" points="696.579,-105.891 688.266,-112.46 698.861,-112.509 696.579,-105.891"/>
</g>
<!-- Node6 -->
<g id="node3" class="node"><title>Node6</title>
<g id="a_node3"><a xlink:href="_anemometer_8cpp.html" target="_top" xlink:title="Brief description of file. ">
<polygon fill="none" stroke="black" points="0,-0.5 0,-19.5 91,-19.5 91,-0.5 0,-0.5"/>
<text text-anchor="middle" x="45.5" y="-7.5" font-family="Helvetica,sans-Serif" font-size="10.00">Anemometer.cpp</text>
</a>
</g>
</g>
<!-- Node5&#45;&gt;Node6 -->
<g id="edge2" class="edge"><title>Node5&#45;&gt;Node6</title>
<path fill="none" stroke="midnightblue" d="M506.999,-62.2679C433.33,-56.1079 251.768,-40.0932 100.5,-20 97.4308,-19.5923 94.2695,-19.1459 91.0871,-18.6769"/>
<polygon fill="midnightblue" stroke="midnightblue" points="506.813,-65.7644 517.069,-63.1045 507.393,-58.7884 506.813,-65.7644"/>
</g>
<!-- Node7 -->
<g id="node4" class="node"><title>Node7</title>
<g id="a_node4"><a xlink:href="_f_s_m_8cpp.html" target="_top" xlink:title="Brief description of file. ">
<polygon fill="none" stroke="black" points="109.5,-0.5 109.5,-19.5 165.5,-19.5 165.5,-0.5 109.5,-0.5"/>
<text text-anchor="middle" x="137.5" y="-7.5" font-family="Helvetica,sans-Serif" font-size="10.00">FSM.cpp</text>
</a>
</g>
</g>
<!-- Node5&#45;&gt;Node7 -->
<g id="edge3" class="edge"><title>Node5&#45;&gt;Node7</title>
<path fill="none" stroke="midnightblue" d="M507.24,-62.2164C442.719,-56.5286 296.205,-42.206 174.5,-20 171.638,-19.4779 168.668,-18.8694 165.709,-18.2196"/>
<polygon fill="midnightblue" stroke="midnightblue" points="506.969,-65.7059 517.235,-63.0859 507.576,-58.7323 506.969,-65.7059"/>
</g>
<!-- Node8 -->
<g id="node5" class="node"><title>Node8</title>
<g id="a_node5"><a xlink:href="main_8cpp.html" target="_top" xlink:title="This is the main file, is the firmware&#39;s body. ">
<polygon fill="none" stroke="black" points="183.5,-0.5 183.5,-19.5 239.5,-19.5 239.5,-0.5 183.5,-0.5"/>
<text text-anchor="middle" x="211.5" y="-7.5" font-family="Helvetica,sans-Serif" font-size="10.00">main.cpp</text>
</a>
</g>
</g>
<!-- Node5&#45;&gt;Node8 -->
<g id="edge4" class="edge"><title>Node5&#45;&gt;Node8</title>
<path fill="none" stroke="midnightblue" d="M507.194,-60.8129C452.809,-53.7644 341.658,-38.473 248.5,-20 245.647,-19.4342 242.681,-18.797 239.726,-18.1297"/>
<polygon fill="midnightblue" stroke="midnightblue" points="506.927,-64.3073 517.292,-62.1112 507.82,-57.3645 506.927,-64.3073"/>
</g>
<!-- Node9 -->
<g id="node6" class="node"><title>Node9</title>
<g id="a_node6"><a xlink:href="_power_8cpp.html" target="_top" xlink:title="Power.cpp">
<polygon fill="none" stroke="black" points="258,-0.5 258,-19.5 321,-19.5 321,-0.5 258,-0.5"/>
<text text-anchor="middle" x="289.5" y="-7.5" font-family="Helvetica,sans-Serif" font-size="10.00">Power.cpp</text>
</a>
</g>
</g>
<!-- Node5&#45;&gt;Node9 -->
<g id="edge5" class="edge"><title>Node5&#45;&gt;Node9</title>
<path fill="none" stroke="midnightblue" d="M507.701,-58.0246C466.368,-49.222 393.149,-33.5884 330.5,-20 327.509,-19.3512 324.395,-18.6731 321.281,-17.9926"/>
<polygon fill="midnightblue" stroke="midnightblue" points="506.987,-61.451 517.497,-60.11 508.445,-54.6044 506.987,-61.451"/>
</g>
<!-- Node10 -->
<g id="node7" class="node"><title>Node10</title>
<g id="a_node7"><a xlink:href="_r_t_c_8cpp.html" target="_top" xlink:title="Brief description of file. ">
<polygon fill="none" stroke="black" points="339.5,-0.5 339.5,-19.5 395.5,-19.5 395.5,-0.5 339.5,-0.5"/>
<text text-anchor="middle" x="367.5" y="-7.5" font-family="Helvetica,sans-Serif" font-size="10.00">RTC.cpp</text>
</a>
</g>
</g>
<!-- Node5&#45;&gt;Node10 -->
<g id="edge6" class="edge"><title>Node5&#45;&gt;Node10</title>
<path fill="none" stroke="midnightblue" d="M507.205,-54.6073C474.594,-44.4282 425.488,-29.1001 395.02,-19.59"/>
<polygon fill="midnightblue" stroke="midnightblue" points="506.58,-58.0787 517.168,-57.7173 508.666,-51.3966 506.58,-58.0787"/>
</g>
<!-- Node11 -->
<g id="node8" class="node"><title>Node11</title>
<g id="a_node8"><a xlink:href="_sensor_8cpp.html" target="_top" xlink:title="Brief description of file. ">
<polygon fill="none" stroke="black" points="413.5,-0.5 413.5,-19.5 479.5,-19.5 479.5,-0.5 413.5,-0.5"/>
<text text-anchor="middle" x="446.5" y="-7.5" font-family="Helvetica,sans-Serif" font-size="10.00">Sensor.cpp</text>
</a>
</g>
</g>
<!-- Node5&#45;&gt;Node11 -->
<g id="edge7" class="edge"><title>Node5&#45;&gt;Node11</title>
<path fill="none" stroke="midnightblue" d="M516.438,-51.1774C499.141,-41.2407 476.352,-28.1492 461.565,-19.6545"/>
<polygon fill="midnightblue" stroke="midnightblue" points="514.983,-54.3775 525.397,-56.324 518.47,-48.3078 514.983,-54.3775"/>
</g>
<!-- Node5&#45;&gt;Node12 -->
<g id="edge8" class="edge"><title>Node5&#45;&gt;Node12</title>
<path fill="none" stroke="midnightblue" d="M573.865,-62.0598C642.025,-55.8638 802.081,-40.3441 935.5,-20 938.21,-19.5867 941.003,-19.1304 943.811,-18.6491"/>
<polygon fill="midnightblue" stroke="midnightblue" points="573.378,-58.5894 563.733,-62.9735 574.007,-65.5611 573.378,-58.5894"/>
</g>
<!-- Node13 -->
<g id="node10" class="node"><title>Node13</title>
<g id="a_node10"><a xlink:href="st___measure_8cpp.html" target="_top" xlink:title="st_Measure.cpp">
<polygon fill="none" stroke="black" points="497.5,-0.5 497.5,-19.5 583.5,-19.5 583.5,-0.5 497.5,-0.5"/>
<text text-anchor="middle" x="540.5" y="-7.5" font-family="Helvetica,sans-Serif" font-size="10.00">st_Measure.cpp</text>
</a>
</g>
</g>
<!-- Node5&#45;&gt;Node13 -->
<g id="edge9" class="edge"><title>Node5&#45;&gt;Node13</title>
<path fill="none" stroke="midnightblue" d="M540.5,-45.8045C540.5,-36.9102 540.5,-26.7798 540.5,-19.7511"/>
<polygon fill="midnightblue" stroke="midnightblue" points="537,-46.083 540.5,-56.083 544,-46.083 537,-46.083"/>
</g>
<!-- Node14 -->
<g id="node11" class="node"><title>Node14</title>
<g id="a_node11"><a xlink:href="st___output_8cpp.html" target="_top" xlink:title="st_Output.cpp">
<polygon fill="none" stroke="black" points="601.5,-0.5 601.5,-19.5 679.5,-19.5 679.5,-0.5 601.5,-0.5"/>
<text text-anchor="middle" x="640.5" y="-7.5" font-family="Helvetica,sans-Serif" font-size="10.00">st_Output.cpp</text>
</a>
</g>
</g>
<!-- Node5&#45;&gt;Node14 -->
<g id="edge10" class="edge"><title>Node5&#45;&gt;Node14</title>
<path fill="none" stroke="midnightblue" d="M565.588,-51.4526C584.049,-41.4835 608.597,-28.2279 624.473,-19.6545"/>
<polygon fill="midnightblue" stroke="midnightblue" points="563.703,-48.4928 556.567,-56.324 567.029,-54.6521 563.703,-48.4928"/>
</g>
<!-- Node15 -->
<g id="node12" class="node"><title>Node15</title>
<g id="a_node12"><a xlink:href="st___sleep_8cpp.html" target="_top" xlink:title="st_Sleep.cpp">
<polygon fill="none" stroke="black" points="697.5,-0.5 697.5,-19.5 771.5,-19.5 771.5,-0.5 697.5,-0.5"/>
<text text-anchor="middle" x="734.5" y="-7.5" font-family="Helvetica,sans-Serif" font-size="10.00">st_Sleep.cpp</text>
</a>
</g>
</g>
<!-- Node5&#45;&gt;Node15 -->
<g id="edge11" class="edge"><title>Node5&#45;&gt;Node15</title>
<path fill="none" stroke="midnightblue" d="M573.182,-55.903C609.661,-45.7491 668.232,-29.4457 703.86,-19.5285"/>
<polygon fill="midnightblue" stroke="midnightblue" points="572.211,-52.54 563.516,-58.5934 574.089,-59.2836 572.211,-52.54"/>
</g>
<!-- Node16 -->
<g id="node13" class="node"><title>Node16</title>
<g id="a_node13"><a xlink:href="_state_8cpp.html" target="_top" xlink:title="Brief description of file. ">
<polygon fill="none" stroke="black" points="790,-0.5 790,-19.5 849,-19.5 849,-0.5 790,-0.5"/>
<text text-anchor="middle" x="819.5" y="-7.5" font-family="Helvetica,sans-Serif" font-size="10.00">State.cpp</text>
</a>
</g>
</g>
<!-- Node5&#45;&gt;Node16 -->
<g id="edge12" class="edge"><title>Node5&#45;&gt;Node16</title>
<path fill="none" stroke="midnightblue" d="M573.821,-59.2025C620.246,-51.0228 706.971,-35.3707 780.5,-20 783.493,-19.3744 786.609,-18.698 789.718,-18.0067"/>
<polygon fill="midnightblue" stroke="midnightblue" points="572.975,-55.7974 563.731,-60.9743 574.186,-62.6919 572.975,-55.7974"/>
</g>
<!-- Node17 -->
<g id="node14" class="node"><title>Node17</title>
<g id="a_node14"><a xlink:href="_usart_8cpp.html" target="_top" xlink:title="This is the uart library for the atmega1284p. ">
<polygon fill="none" stroke="black" points="867,-0.5 867,-19.5 926,-19.5 926,-0.5 867,-0.5"/>
<text text-anchor="middle" x="896.5" y="-7.5" font-family="Helvetica,sans-Serif" font-size="10.00">Usart.cpp</text>
</a>
</g>
</g>
<!-- Node5&#45;&gt;Node17 -->
<g id="edge13" class="edge"><title>Node5&#45;&gt;Node17</title>
<path fill="none" stroke="midnightblue" d="M573.827,-61.3072C631.909,-54.6436 755.339,-39.4728 858.5,-20 861.165,-19.497 863.925,-18.9314 866.685,-18.3352"/>
<polygon fill="midnightblue" stroke="midnightblue" points="573.303,-57.8442 563.762,-62.4515 574.093,-64.7994 573.303,-57.8442"/>
</g>
</g>
</svg>
