<?xml version="1.0" encoding="UTF-8" standalone="no"?>
<!DOCTYPE svg PUBLIC "-//W3C//DTD SVG 1.1//EN"
 "http://www.w3.org/Graphics/SVG/1.1/DTD/svg11.dtd">
<!-- Generated by graphviz version 2.38.0 (20140413.2041)
 -->
<!-- Title: st_Config.cpp Pages: 1 -->
<!--zoomable 252 -->
<svg id="main" version="1.1" xmlns="http://www.w3.org/2000/svg" xmlns:xlink="http://www.w3.org/1999/xlink" xml:space="preserve" onload="init(evt)">
<style type="text/css"><![CDATA[
.edge:hover path { stroke: red; }
.edge:hover polygon { stroke: red; fill: red; }
]]></style>
<script type="text/javascript"><![CDATA[
var edges = document.getElementsByTagName('g');
if (edges && edges.length) {
  for (var i=0;i<edges.length;i++) {
    if (edges[i].id.substr(0,4)=='edge') {
      edges[i].setAttribute('class','edge');
    }
  }
}
]]></script>
        <defs>
                <circle id="rim" cx="0" cy="0" r="7"/>
                <circle id="rim2" cx="0" cy="0" r="3.5"/>
                <g id="zoomPlus">
                        <use xlink:href="#rim" fill="#404040">
                                <set attributeName="fill" to="#808080" begin="zoomplus.mouseover" end="zoomplus.mouseout"/>
                        </use>
                        <path d="M-4,0h8M0,-4v8" fill="none" stroke="white" stroke-width="1.5" pointer-events="none"/>
                </g>
                <g id="zoomMin">
                        <use xlink:href="#rim" fill="#404040">
                                <set attributeName="fill" to="#808080" begin="zoomminus.mouseover" end="zoomminus.mouseout"/>
                        </use>
                        <path d="M-4,0h8" fill="none" stroke="white" stroke-width="1.5" pointer-events="none"/>
                </g>
                <g id="dirArrow">
                        <path fill="none" stroke="white" stroke-width="1.5" d="M0,-3.0v7 M-2.5,-0.5L0,-3.0L2.5,-0.5"/>
                </g>
               <g id="resetDef">
                       <use xlink:href="#rim2" fill="#404040">
                               <set attributeName="fill" to="#808080" begin="reset.mouseover" end="reset.mouseout"/>
                       </use>
               </g>
        </defs>

<script type="text/javascript">
var viewWidth = 1029;
var viewHeight = 252;
var sectionId = 'dynsection-0';
</script>
<script xlink:href="svgpan.js"/>
<svg id="graph" class="graph">
<g id="viewport">
<title>st_Config.cpp</title>
<!-- Node0 -->
<g id="node1" class="node"><title>Node0</title>
<polygon fill="#bfbfbf" stroke="black" points="486,-224.5 486,-243.5 563,-243.5 563,-224.5 486,-224.5"/>
<text text-anchor="middle" x="524.5" y="-231.5" font-family="Helvetica,sans-Serif" font-size="10.00">st_Config.cpp</text>
</g>
<!-- Node1 -->
<g id="node2" class="node"><title>Node1</title>
<polygon fill="none" stroke="#bfbfbf" points="258,-168.5 258,-187.5 307,-187.5 307,-168.5 258,-168.5"/>
<text text-anchor="middle" x="282.5" y="-175.5" font-family="Helvetica,sans-Serif" font-size="10.00">string.h</text>
</g>
<!-- Node0&#45;&gt;Node1 -->
<g id="edge1" class="edge"><title>Node0&#45;&gt;Node1</title>
<path fill="none" stroke="midnightblue" d="M485.661,-225.151C445.833,-216.979 381.865,-203.516 317.295,-188.106"/>
<polygon fill="midnightblue" stroke="midnightblue" points="317.89,-184.649 307.349,-185.718 316.256,-191.456 317.89,-184.649"/>
</g>
<!-- Node2 -->
<g id="node3" class="node"><title>Node2</title>
<polygon fill="none" stroke="#bfbfbf" points="325.5,-168.5 325.5,-187.5 373.5,-187.5 373.5,-168.5 325.5,-168.5"/>
<text text-anchor="middle" x="349.5" y="-175.5" font-family="Helvetica,sans-Serif" font-size="10.00">stdlib.h</text>
</g>
<!-- Node0&#45;&gt;Node2 -->
<g id="edge2" class="edge"><title>Node0&#45;&gt;Node2</title>
<path fill="none" stroke="midnightblue" d="M496.771,-224.444C466.026,-214.957 416.424,-199.651 383.397,-189.46"/>
<polygon fill="midnightblue" stroke="midnightblue" points="384.306,-186.077 373.718,-186.473 382.242,-192.766 384.306,-186.077"/>
</g>
<!-- Node3 -->
<g id="node4" class="node"><title>Node3</title>
<polygon fill="none" stroke="#bfbfbf" points="391.5,-168.5 391.5,-187.5 465.5,-187.5 465.5,-168.5 391.5,-168.5"/>
<text text-anchor="middle" x="428.5" y="-175.5" font-family="Helvetica,sans-Serif" font-size="10.00">avr/eeprom.h</text>
</g>
<!-- Node0&#45;&gt;Node3 -->
<g id="edge3" class="edge"><title>Node0&#45;&gt;Node3</title>
<path fill="none" stroke="midnightblue" d="M509.076,-224.324C493.96,-215.822 470.685,-202.729 453.029,-192.797"/>
<polygon fill="midnightblue" stroke="midnightblue" points="454.317,-189.507 443.886,-187.655 450.886,-195.608 454.317,-189.507"/>
</g>
<!-- Node4 -->
<g id="node5" class="node"><title>Node4</title>
<g id="a_node5"><a xlink:href="main_8h.html" target="_top" xlink:title="The main.h file regroup global constant declaration. ">
<polygon fill="none" stroke="black" points="635.5,-0.5 635.5,-19.5 703.5,-19.5 703.5,-0.5 635.5,-0.5"/>
<text text-anchor="middle" x="669.5" y="-7.5" font-family="Helvetica,sans-Serif" font-size="10.00">../lib/main.h</text>
</a>
</g>
</g>
<!-- Node0&#45;&gt;Node4 -->
<g id="edge4" class="edge"><title>Node0&#45;&gt;Node4</title>
<path fill="none" stroke="midnightblue" d="M563.298,-230.766C648.993,-225.475 851.931,-210.878 916.5,-188 960.197,-172.518 981.112,-172.027 1004.5,-132 1021.55,-102.813 1029.77,-81.4315 1007.5,-56 988.411,-34.2006 800.814,-19.424 713.627,-13.6792"/>
<polygon fill="midnightblue" stroke="midnightblue" points="713.716,-10.1777 703.51,-13.0235 713.263,-17.163 713.716,-10.1777"/>
</g>
<!-- Node5 -->
<g id="node6" class="node"><title>Node5</title>
<g id="a_node6"><a xlink:href="_usart_8h.html" target="_top" xlink:title="This is the uart library for the atmega1284p. ">
<polygon fill="none" stroke="black" points="0,-112.5 0,-131.5 71,-131.5 71,-112.5 0,-112.5"/>
<text text-anchor="middle" x="35.5" y="-119.5" font-family="Helvetica,sans-Serif" font-size="10.00">../lib/Usart.h</text>
</a>
</g>
</g>
<!-- Node0&#45;&gt;Node5 -->
<g id="edge5" class="edge"><title>Node0&#45;&gt;Node5</title>
<path fill="none" stroke="midnightblue" d="M520.754,-224.41C513.923,-209.911 497.949,-180.905 474.5,-168 400.032,-127.017 182.61,-143.443 81.3167,-131.818"/>
<polygon fill="midnightblue" stroke="midnightblue" points="81.6694,-128.334 71.3019,-130.517 80.7679,-135.276 81.6694,-128.334"/>
</g>
<!-- Node6 -->
<g id="node7" class="node"><title>Node6</title>
<g id="a_node7"><a xlink:href="_date_time_8h.html" target="_top" xlink:title="This file declare the DateTime class. ">
<polygon fill="none" stroke="black" points="909,-56.5 909,-75.5 998,-75.5 998,-56.5 909,-56.5"/>
<text text-anchor="middle" x="953.5" y="-63.5" font-family="Helvetica,sans-Serif" font-size="10.00">../lib/DateTime.h</text>
</a>
</g>
</g>
<!-- Node0&#45;&gt;Node6 -->
<g id="edge6" class="edge"><title>Node0&#45;&gt;Node6</title>
<path fill="none" stroke="midnightblue" d="M563.147,-230.651C664.775,-223.586 935.339,-198.744 988.5,-132 1000.76,-116.605 985.719,-96.2908 971.717,-82.4987"/>
<polygon fill="midnightblue" stroke="midnightblue" points="973.947,-79.7932 964.226,-75.58 969.198,-84.9358 973.947,-79.7932"/>
</g>
<!-- Node7 -->
<g id="node8" class="node"><title>Node7</title>
<g id="a_node8"><a xlink:href="_f_s_m_8h.html" target="_top" xlink:title="The FSM is the finish state machine mechanism. ">
<polygon fill="none" stroke="black" points="521.5,-168.5 521.5,-187.5 589.5,-187.5 589.5,-168.5 521.5,-168.5"/>
<text text-anchor="middle" x="555.5" y="-175.5" font-family="Helvetica,sans-Serif" font-size="10.00">../lib/FSM.h</text>
</a>
</g>
</g>
<!-- Node0&#45;&gt;Node7 -->
<g id="edge7" class="edge"><title>Node0&#45;&gt;Node7</title>
<path fill="none" stroke="midnightblue" d="M529.619,-224.083C533.908,-216.613 540.158,-205.724 545.442,-196.52"/>
<polygon fill="midnightblue" stroke="midnightblue" points="548.533,-198.166 550.476,-187.751 542.462,-194.681 548.533,-198.166"/>
</g>
<!-- Node15 -->
<g id="node16" class="node"><title>Node15</title>
<g id="a_node16"><a xlink:href="st___config_8h.html" target="_top" xlink:title="../lib/st_Config.h">
<polygon fill="none" stroke="black" points="890,-112.5 890,-131.5 979,-131.5 979,-112.5 890,-112.5"/>
<text text-anchor="middle" x="934.5" y="-119.5" font-family="Helvetica,sans-Serif" font-size="10.00">../lib/st_Config.h</text>
</a>
</g>
</g>
<!-- Node0&#45;&gt;Node15 -->
<g id="edge29" class="edge"><title>Node0&#45;&gt;Node15</title>
<path fill="none" stroke="midnightblue" d="M556.331,-224.46C629.75,-204.762 810.927,-156.154 892.958,-134.146"/>
<polygon fill="midnightblue" stroke="midnightblue" points="893.938,-137.506 902.689,-131.535 892.124,-130.745 893.938,-137.506"/>
</g>
<!-- Node7&#45;&gt;Node5 -->
<g id="edge8" class="edge"><title>Node7&#45;&gt;Node5</title>
<path fill="none" stroke="midnightblue" d="M521.481,-170.181C516.796,-169.371 512.037,-168.615 507.5,-168 322,-142.855 270.807,-158.173 81.3098,-131.946"/>
<polygon fill="midnightblue" stroke="midnightblue" points="81.6882,-128.465 71.2986,-130.54 80.7145,-135.397 81.6882,-128.465"/>
</g>
<!-- Node8 -->
<g id="node9" class="node"><title>Node8</title>
<g id="a_node9"><a xlink:href="_t_w_i_8h.html" target="_top" xlink:title="Brief description of file. ">
<polygon fill="none" stroke="black" points="807,-112.5 807,-131.5 872,-131.5 872,-112.5 807,-112.5"/>
<text text-anchor="middle" x="839.5" y="-119.5" font-family="Helvetica,sans-Serif" font-size="10.00">../lib/TWI.h</text>
</a>
</g>
</g>
<!-- Node7&#45;&gt;Node8 -->
<g id="edge9" class="edge"><title>Node7&#45;&gt;Node8</title>
<path fill="none" stroke="midnightblue" d="M589.622,-170.957C634.606,-162.925 716.47,-148.08 796.679,-132.118"/>
<polygon fill="midnightblue" stroke="midnightblue" points="797.838,-135.456 806.959,-130.065 796.467,-128.592 797.838,-135.456"/>
</g>
<!-- Node9 -->
<g id="node10" class="node"><title>Node9</title>
<g id="a_node10"><a xlink:href="_r_t_c_8h.html" target="_top" xlink:title="The RTC class regroup methods and parameters to use the Real Time Clock : pcf8563. ">
<polygon fill="none" stroke="black" points="317.5,-112.5 317.5,-131.5 385.5,-131.5 385.5,-112.5 317.5,-112.5"/>
<text text-anchor="middle" x="351.5" y="-119.5" font-family="Helvetica,sans-Serif" font-size="10.00">../lib/RTC.h</text>
</a>
</g>
</g>
<!-- Node7&#45;&gt;Node9 -->
<g id="edge10" class="edge"><title>Node7&#45;&gt;Node9</title>
<path fill="none" stroke="midnightblue" d="M523.176,-168.444C488.111,-159.162 432.002,-144.309 393.535,-134.127"/>
<polygon fill="midnightblue" stroke="midnightblue" points="394.236,-130.692 383.673,-131.516 392.445,-137.459 394.236,-130.692"/>
</g>
<!-- Node10 -->
<g id="node11" class="node"><title>Node10</title>
<g id="a_node11"><a xlink:href="_windvane_8h.html" target="_top" xlink:title="Brief description of file. ">
<polygon fill="none" stroke="black" points="209.5,-112.5 209.5,-131.5 299.5,-131.5 299.5,-112.5 209.5,-112.5"/>
<text text-anchor="middle" x="254.5" y="-119.5" font-family="Helvetica,sans-Serif" font-size="10.00">../lib/Windvane.h</text>
</a>
</g>
</g>
<!-- Node7&#45;&gt;Node10 -->
<g id="edge11" class="edge"><title>Node7&#45;&gt;Node10</title>
<path fill="none" stroke="midnightblue" d="M521.419,-170.569C516.743,-169.699 512.004,-168.823 507.5,-168 439.407,-155.561 360.919,-141.67 309.648,-132.656"/>
<polygon fill="midnightblue" stroke="midnightblue" points="310.223,-129.204 299.768,-130.921 309.012,-136.098 310.223,-129.204"/>
</g>
<!-- Node12 -->
<g id="node13" class="node"><title>Node12</title>
<g id="a_node13"><a xlink:href="_anemometer_8h.html" target="_top" xlink:title="Brief description of file. ">
<polygon fill="none" stroke="black" points="89.5,-112.5 89.5,-131.5 191.5,-131.5 191.5,-112.5 89.5,-112.5"/>
<text text-anchor="middle" x="140.5" y="-119.5" font-family="Helvetica,sans-Serif" font-size="10.00">../lib/Anemometer.h</text>
</a>
</g>
</g>
<!-- Node7&#45;&gt;Node12 -->
<g id="edge14" class="edge"><title>Node7&#45;&gt;Node12</title>
<path fill="none" stroke="midnightblue" d="M521.461,-170.319C516.779,-169.488 512.026,-168.689 507.5,-168 374.868,-147.814 338.366,-150.071 201.572,-132.101"/>
<polygon fill="midnightblue" stroke="midnightblue" points="201.921,-128.616 191.547,-130.771 201,-135.555 201.921,-128.616"/>
</g>
<!-- Node13 -->
<g id="node14" class="node"><title>Node13</title>
<g id="a_node14"><a xlink:href="_power_8h.html" target="_top" xlink:title="../lib/Power.h">
<polygon fill="none" stroke="black" points="440.5,-56.5 440.5,-75.5 514.5,-75.5 514.5,-56.5 440.5,-56.5"/>
<text text-anchor="middle" x="477.5" y="-63.5" font-family="Helvetica,sans-Serif" font-size="10.00">../lib/Power.h</text>
</a>
</g>
</g>
<!-- Node7&#45;&gt;Node13 -->
<g id="edge16" class="edge"><title>Node7&#45;&gt;Node13</title>
<path fill="none" stroke="midnightblue" d="M521.284,-169.129C488.647,-160.847 442.954,-146.956 432.5,-132 420.514,-114.852 438.756,-95.0803 455.478,-81.8886"/>
<polygon fill="midnightblue" stroke="midnightblue" points="457.963,-84.4034 463.916,-75.6388 453.797,-78.7783 457.963,-84.4034"/>
</g>
<!-- Node14 -->
<g id="node15" class="node"><title>Node14</title>
<g id="a_node15"><a xlink:href="_state_8h.html" target="_top" xlink:title="Brief description of file. ">
<polygon fill="none" stroke="black" points="597.5,-56.5 597.5,-75.5 667.5,-75.5 667.5,-56.5 597.5,-56.5"/>
<text text-anchor="middle" x="632.5" y="-63.5" font-family="Helvetica,sans-Serif" font-size="10.00">../lib/State.h</text>
</a>
</g>
</g>
<!-- Node7&#45;&gt;Node14 -->
<g id="edge18" class="edge"><title>Node7&#45;&gt;Node14</title>
<path fill="none" stroke="midnightblue" d="M556.327,-168.28C557.936,-155.079 562.459,-129.688 574.5,-112 583.072,-99.4068 596.284,-88.763 607.934,-80.9937"/>
<polygon fill="midnightblue" stroke="midnightblue" points="609.847,-83.9251 616.436,-75.6281 606.111,-78.0055 609.847,-83.9251"/>
</g>
<!-- Node7&#45;&gt;Node15 -->
<g id="edge19" class="edge"><title>Node7&#45;&gt;Node15</title>
<path fill="none" stroke="midnightblue" d="M589.814,-172.62C647.545,-165.173 768.009,-149.302 879.88,-132.213"/>
<polygon fill="midnightblue" stroke="midnightblue" points="880.63,-135.639 889.983,-130.662 879.568,-128.72 880.63,-135.639"/>
</g>
<!-- Node16 -->
<g id="node17" class="node"><title>Node16</title>
<g id="a_node17"><a xlink:href="st___measure_8h.html" target="_top" xlink:title="../lib/st_Measure.h">
<polygon fill="none" stroke="black" points="583.5,-112.5 583.5,-131.5 681.5,-131.5 681.5,-112.5 583.5,-112.5"/>
<text text-anchor="middle" x="632.5" y="-119.5" font-family="Helvetica,sans-Serif" font-size="10.00">../lib/st_Measure.h</text>
</a>
</g>
</g>
<!-- Node7&#45;&gt;Node16 -->
<g id="edge23" class="edge"><title>Node7&#45;&gt;Node16</title>
<path fill="none" stroke="midnightblue" d="M567.871,-168.324C579.658,-160.058 597.632,-147.453 611.636,-137.632"/>
<polygon fill="midnightblue" stroke="midnightblue" points="613.982,-140.262 620.159,-131.655 609.962,-134.531 613.982,-140.262"/>
</g>
<!-- Node17 -->
<g id="node18" class="node"><title>Node17</title>
<g id="a_node18"><a xlink:href="st___output_8h.html" target="_top" xlink:title="../lib/st_Output.h">
<polygon fill="none" stroke="black" points="700,-112.5 700,-131.5 789,-131.5 789,-112.5 700,-112.5"/>
<text text-anchor="middle" x="744.5" y="-119.5" font-family="Helvetica,sans-Serif" font-size="10.00">../lib/st_Output.h</text>
</a>
</g>
</g>
<!-- Node7&#45;&gt;Node17 -->
<g id="edge25" class="edge"><title>Node7&#45;&gt;Node17</title>
<path fill="none" stroke="midnightblue" d="M585.448,-168.444C617.658,-159.241 669.034,-144.562 704.642,-134.388"/>
<polygon fill="midnightblue" stroke="midnightblue" points="706.039,-137.629 714.692,-131.516 704.116,-130.898 706.039,-137.629"/>
</g>
<!-- Node18 -->
<g id="node19" class="node"><title>Node18</title>
<g id="a_node19"><a xlink:href="st___sleep_8h.html" target="_top" xlink:title="../lib/st_Sleep.h">
<polygon fill="none" stroke="black" points="442,-112.5 442,-131.5 527,-131.5 527,-112.5 442,-112.5"/>
<text text-anchor="middle" x="484.5" y="-119.5" font-family="Helvetica,sans-Serif" font-size="10.00">../lib/st_Sleep.h</text>
</a>
</g>
</g>
<!-- Node7&#45;&gt;Node18 -->
<g id="edge27" class="edge"><title>Node7&#45;&gt;Node18</title>
<path fill="none" stroke="midnightblue" d="M544.093,-168.324C533.391,-160.185 517.159,-147.839 504.337,-138.087"/>
<polygon fill="midnightblue" stroke="midnightblue" points="506.193,-135.102 496.115,-131.834 501.956,-140.673 506.193,-135.102"/>
</g>
<!-- Node11 -->
<g id="node12" class="node"><title>Node11</title>
<g id="a_node12"><a xlink:href="_sensor_8h.html" target="_top" xlink:title="This class is the base class of sensor. ">
<polygon fill="none" stroke="black" points="216,-56.5 216,-75.5 293,-75.5 293,-56.5 216,-56.5"/>
<text text-anchor="middle" x="254.5" y="-63.5" font-family="Helvetica,sans-Serif" font-size="10.00">../lib/Sensor.h</text>
</a>
</g>
</g>
<!-- Node10&#45;&gt;Node11 -->
<g id="edge12" class="edge"><title>Node10&#45;&gt;Node11</title>
<path fill="none" stroke="midnightblue" d="M254.5,-112.083C254.5,-105.006 254.5,-94.8611 254.5,-85.9865"/>
<polygon fill="midnightblue" stroke="midnightblue" points="258,-85.751 254.5,-75.7511 251,-85.7511 258,-85.751"/>
</g>
<!-- Node11&#45;&gt;Node4 -->
<g id="edge13" class="edge"><title>Node11&#45;&gt;Node4</title>
<path fill="none" stroke="midnightblue" d="M293.17,-59.9683C370.549,-49.8997 543.988,-27.3317 625.538,-16.7203"/>
<polygon fill="midnightblue" stroke="midnightblue" points="626.018,-20.1875 635.483,-15.4263 625.115,-13.246 626.018,-20.1875"/>
</g>
<!-- Node12&#45;&gt;Node11 -->
<g id="edge15" class="edge"><title>Node12&#45;&gt;Node11</title>
<path fill="none" stroke="midnightblue" d="M158.564,-112.444C177.075,-103.675 206.081,-89.9355 227.355,-79.8579"/>
<polygon fill="midnightblue" stroke="midnightblue" points="228.982,-82.9604 236.521,-75.5164 225.985,-76.6343 228.982,-82.9604"/>
</g>
<!-- Node13&#45;&gt;Node4 -->
<g id="edge17" class="edge"><title>Node13&#45;&gt;Node4</title>
<path fill="none" stroke="midnightblue" d="M507.923,-56.4435C540.785,-47.2011 593.285,-32.4356 629.474,-22.2572"/>
<polygon fill="midnightblue" stroke="midnightblue" points="630.54,-25.5932 639.219,-19.5164 628.645,-18.8547 630.54,-25.5932"/>
</g>
<!-- Node15&#45;&gt;Node4 -->
<g id="edge20" class="edge"><title>Node15&#45;&gt;Node4</title>
<path fill="none" stroke="midnightblue" d="M913.706,-112.368C867.071,-93.0105 753.974,-46.0645 699.631,-23.5074"/>
<polygon fill="midnightblue" stroke="midnightblue" points="700.775,-20.1927 690.198,-19.5914 698.092,-26.6578 700.775,-20.1927"/>
</g>
<!-- Node15&#45;&gt;Node6 -->
<g id="edge21" class="edge"><title>Node15&#45;&gt;Node6</title>
<path fill="none" stroke="midnightblue" d="M937.637,-112.083C940.183,-104.849 943.856,-94.4087 947.027,-85.3968"/>
<polygon fill="midnightblue" stroke="midnightblue" points="950.403,-86.3459 950.421,-75.7511 943.8,-84.0225 950.403,-86.3459"/>
</g>
<!-- Node15&#45;&gt;Node14 -->
<g id="edge22" class="edge"><title>Node15&#45;&gt;Node14</title>
<path fill="none" stroke="midnightblue" d="M889.939,-113.032C832.979,-102.847 734.907,-85.3112 677.661,-75.0751"/>
<polygon fill="midnightblue" stroke="midnightblue" points="678.268,-71.6283 667.808,-73.3134 677.036,-78.519 678.268,-71.6283"/>
</g>
<!-- Node16&#45;&gt;Node14 -->
<g id="edge24" class="edge"><title>Node16&#45;&gt;Node14</title>
<path fill="none" stroke="midnightblue" d="M632.5,-112.083C632.5,-105.006 632.5,-94.8611 632.5,-85.9865"/>
<polygon fill="midnightblue" stroke="midnightblue" points="636,-85.751 632.5,-75.7511 629,-85.7511 636,-85.751"/>
</g>
<!-- Node17&#45;&gt;Node14 -->
<g id="edge26" class="edge"><title>Node17&#45;&gt;Node14</title>
<path fill="none" stroke="midnightblue" d="M726.505,-112.324C708.462,-103.625 680.453,-90.1202 659.697,-80.113"/>
<polygon fill="midnightblue" stroke="midnightblue" points="660.978,-76.8449 650.45,-75.6545 657.938,-83.1502 660.978,-76.8449"/>
</g>
<!-- Node18&#45;&gt;Node14 -->
<g id="edge28" class="edge"><title>Node18&#45;&gt;Node14</title>
<path fill="none" stroke="midnightblue" d="M507.951,-112.444C532.633,-103.438 571.685,-89.1891 599.477,-79.049"/>
<polygon fill="midnightblue" stroke="midnightblue" points="600.964,-82.2321 609.159,-75.5164 598.565,-75.6561 600.964,-82.2321"/>
</g>
</g>
</svg>
        <g id="navigator" transform="translate(0 0)" fill="#404254">
                <rect fill="#f2f5e9" fill-opacity="0.5" stroke="#606060" stroke-width=".5" x="0" y="0" width="60" height="60"/>
                <use id="zoomplus" xlink:href="#zoomPlus" x="17" y="9" onmousedown="handleZoom(evt,'in')"/>
                <use id="zoomminus" xlink:href="#zoomMin" x="42" y="9" onmousedown="handleZoom(evt,'out')"/>
                <use id="reset" xlink:href="#resetDef" x="30" y="36" onmousedown="handleReset()"/>
                <g id="arrowUp" xlink:href="#dirArrow" transform="translate(30 24)" onmousedown="handlePan(0,-1)">
                  <use xlink:href="#rim" fill="#404040">
                        <set attributeName="fill" to="#808080" begin="arrowUp.mouseover" end="arrowUp.mouseout"/>
                  </use>
                  <path fill="none" stroke="white" stroke-width="1.5" d="M0,-3.0v7 M-2.5,-0.5L0,-3.0L2.5,-0.5"/>
                </g>
                <g id="arrowRight" xlink:href="#dirArrow" transform="rotate(90) translate(36 -43)" onmousedown="handlePan(1,0)">
                  <use xlink:href="#rim" fill="#404040">
                        <set attributeName="fill" to="#808080" begin="arrowRight.mouseover" end="arrowRight.mouseout"/>
                  </use>
                  <path fill="none" stroke="white" stroke-width="1.5" d="M0,-3.0v7 M-2.5,-0.5L0,-3.0L2.5,-0.5"/>
                </g>
                <g id="arrowDown" xlink:href="#dirArrow" transform="rotate(180) translate(-30 -48)" onmousedown="handlePan(0,1)">
                  <use xlink:href="#rim" fill="#404040">
                        <set attributeName="fill" to="#808080" begin="arrowDown.mouseover" end="arrowDown.mouseout"/>
                  </use>
                  <path fill="none" stroke="white" stroke-width="1.5" d="M0,-3.0v7 M-2.5,-0.5L0,-3.0L2.5,-0.5"/>
                </g>
                <g id="arrowLeft" xlink:href="#dirArrow" transform="rotate(270) translate(-36 17)" onmousedown="handlePan(-1,0)">
                  <use xlink:href="#rim" fill="#404040">
                        <set attributeName="fill" to="#808080" begin="arrowLeft.mouseover" end="arrowLeft.mouseout"/>
                  </use>
                  <path fill="none" stroke="white" stroke-width="1.5" d="M0,-3.0v7 M-2.5,-0.5L0,-3.0L2.5,-0.5"/>
                </g>
        </g>
        <svg viewBox="0 0 15 15" width="100%" height="30px" preserveAspectRatio="xMaxYMin meet">
         <g id="arrow_out" transform="scale(0.3 0.3)">
          <a xlink:href="st___config_8cpp__incl_org.svg" target="_base">
           <rect id="button" ry="5" rx="5" y="6" x="6" height="38" width="38"
                fill="#f2f5e9" fill-opacity="0.5" stroke="#606060" stroke-width="1.0"/>
           <path id="arrow"
             d="M 11.500037,31.436501 C 11.940474,20.09759 22.043105,11.32322 32.158766,21.979434 L 37.068811,17.246167 C 37.068811,17.246167 37.088388,32 37.088388,32 L 22.160133,31.978069 C 22.160133,31.978069 26.997745,27.140456 26.997745,27.140456 C 18.528582,18.264221 13.291696,25.230495 11.500037,31.436501 z"
             style="fill:#404040;"/>
          </a>
         </g>
        </svg>
</svg>
