<?xml version="1.0" encoding="UTF-8" standalone="no"?>
<!DOCTYPE svg PUBLIC "-//W3C//DTD SVG 1.1//EN"
 "http://www.w3.org/Graphics/SVG/1.1/DTD/svg11.dtd">
<!-- Generated by graphviz version 2.38.0 (20140413.2041)
 -->
<!-- Title: st_Measure.cpp Pages: 1 -->
<!--zoomable 252 -->
<svg id="main" version="1.1" xmlns="http://www.w3.org/2000/svg" xmlns:xlink="http://www.w3.org/1999/xlink" xml:space="preserve" onload="init(evt)">
<style type="text/css"><![CDATA[
.edge:hover path { stroke: red; }
.edge:hover polygon { stroke: red; fill: red; }
]]></style>
<script type="text/javascript"><![CDATA[
var edges = document.getElementsByTagName('g');
if (edges && edges.length) {
  for (var i=0;i<edges.length;i++) {
    if (edges[i].id.substr(0,4)=='edge') {
      edges[i].setAttribute('class','edge');
    }
  }
}
]]></script>
        <defs>
                <circle id="rim" cx="0" cy="0" r="7"/>
                <circle id="rim2" cx="0" cy="0" r="3.5"/>
                <g id="zoomPlus">
                        <use xlink:href="#rim" fill="#404040">
                                <set attributeName="fill" to="#808080" begin="zoomplus.mouseover" end="zoomplus.mouseout"/>
                        </use>
                        <path d="M-4,0h8M0,-4v8" fill="none" stroke="white" stroke-width="1.5" pointer-events="none"/>
                </g>
                <g id="zoomMin">
                        <use xlink:href="#rim" fill="#404040">
                                <set attributeName="fill" to="#808080" begin="zoomminus.mouseover" end="zoomminus.mouseout"/>
                        </use>
                        <path d="M-4,0h8" fill="none" stroke="white" stroke-width="1.5" pointer-events="none"/>
                </g>
                <g id="dirArrow">
                        <path fill="none" stroke="white" stroke-width="1.5" d="M0,-3.0v7 M-2.5,-0.5L0,-3.0L2.5,-0.5"/>
                </g>
               <g id="resetDef">
                       <use xlink:href="#rim2" fill="#404040">
                               <set attributeName="fill" to="#808080" begin="reset.mouseover" end="reset.mouseout"/>
                       </use>
               </g>
        </defs>

<script type="text/javascript">
var viewWidth = 1226;
var viewHeight = 252;
var sectionId = 'dynsection-0';
</script>
<script xlink:href="svgpan.js"/>
<svg id="graph" class="graph">
<g id="viewport">
<title>st_Measure.cpp</title>
<!-- Node0 -->
<g id="node1" class="node"><title>Node0</title>
<polygon fill="#bfbfbf" stroke="black" points="141.5,-224.5 141.5,-243.5 227.5,-243.5 227.5,-224.5 141.5,-224.5"/>
<text text-anchor="middle" x="184.5" y="-231.5" font-family="Helvetica,sans-Serif" font-size="10.00">st_Measure.cpp</text>
</g>
<!-- Node1 -->
<g id="node2" class="node"><title>Node1</title>
<polygon fill="none" stroke="#bfbfbf" points="0,-168.5 0,-187.5 49,-187.5 49,-168.5 0,-168.5"/>
<text text-anchor="middle" x="24.5" y="-175.5" font-family="Helvetica,sans-Serif" font-size="10.00">avr/io.h</text>
</g>
<!-- Node0&#45;&gt;Node1 -->
<g id="edge1" class="edge"><title>Node0&#45;&gt;Node1</title>
<path fill="none" stroke="midnightblue" d="M159.148,-224.444C132.072,-215.306 89.0005,-200.769 58.8833,-190.604"/>
<polygon fill="midnightblue" stroke="midnightblue" points="59.8023,-187.221 49.2081,-187.339 57.5638,-193.853 59.8023,-187.221"/>
</g>
<!-- Node2 -->
<g id="node3" class="node"><title>Node2</title>
<polygon fill="none" stroke="#bfbfbf" points="67,-168.5 67,-187.5 116,-187.5 116,-168.5 67,-168.5"/>
<text text-anchor="middle" x="91.5" y="-175.5" font-family="Helvetica,sans-Serif" font-size="10.00">string.h</text>
</g>
<!-- Node0&#45;&gt;Node2 -->
<g id="edge2" class="edge"><title>Node0&#45;&gt;Node2</title>
<path fill="none" stroke="midnightblue" d="M169.558,-224.324C154.915,-215.822 132.366,-202.729 115.262,-192.797"/>
<polygon fill="midnightblue" stroke="midnightblue" points="116.81,-189.649 106.405,-187.655 113.295,-195.703 116.81,-189.649"/>
</g>
<!-- Node3 -->
<g id="node4" class="node"><title>Node3</title>
<polygon fill="none" stroke="#bfbfbf" points="134.5,-168.5 134.5,-187.5 182.5,-187.5 182.5,-168.5 134.5,-168.5"/>
<text text-anchor="middle" x="158.5" y="-175.5" font-family="Helvetica,sans-Serif" font-size="10.00">stdlib.h</text>
</g>
<!-- Node0&#45;&gt;Node3 -->
<g id="edge3" class="edge"><title>Node0&#45;&gt;Node3</title>
<path fill="none" stroke="midnightblue" d="M180.207,-224.083C176.648,-216.691 171.478,-205.953 167.076,-196.811"/>
<polygon fill="midnightblue" stroke="midnightblue" points="170.205,-195.243 162.713,-187.751 163.898,-198.279 170.205,-195.243"/>
</g>
<!-- Node4 -->
<g id="node5" class="node"><title>Node4</title>
<g id="a_node5"><a xlink:href="main_8h.html" target="_top" xlink:title="The main.h file regroup global constant declaration. ">
<polygon fill="none" stroke="black" points="362.5,-0.5 362.5,-19.5 430.5,-19.5 430.5,-0.5 362.5,-0.5"/>
<text text-anchor="middle" x="396.5" y="-7.5" font-family="Helvetica,sans-Serif" font-size="10.00">../lib/main.h</text>
</a>
</g>
</g>
<!-- Node0&#45;&gt;Node4 -->
<g id="edge4" class="edge"><title>Node0&#45;&gt;Node4</title>
<path fill="none" stroke="midnightblue" d="M186.027,-224.306C190.061,-203.275 202.589,-148.685 229.5,-112 262.523,-66.9827 322.222,-38.0732 360.575,-23.186"/>
<polygon fill="midnightblue" stroke="midnightblue" points="362.181,-26.3219 370.312,-19.5294 359.72,-19.7688 362.181,-26.3219"/>
</g>
<!-- Node5 -->
<g id="node6" class="node"><title>Node5</title>
<g id="a_node6"><a xlink:href="_f_s_m_8h.html" target="_top" xlink:title="The FSM is the finish state machine mechanism. ">
<polygon fill="none" stroke="black" points="656.5,-168.5 656.5,-187.5 724.5,-187.5 724.5,-168.5 656.5,-168.5"/>
<text text-anchor="middle" x="690.5" y="-175.5" font-family="Helvetica,sans-Serif" font-size="10.00">../lib/FSM.h</text>
</a>
</g>
</g>
<!-- Node0&#45;&gt;Node5 -->
<g id="edge5" class="edge"><title>Node0&#45;&gt;Node5</title>
<path fill="none" stroke="midnightblue" d="M227.641,-228.396C322.876,-218.233 550.236,-193.969 646.374,-183.709"/>
<polygon fill="midnightblue" stroke="midnightblue" points="646.775,-187.186 656.347,-182.645 646.032,-180.226 646.775,-187.186"/>
</g>
<!-- Node16 -->
<g id="node17" class="node"><title>Node16</title>
<g id="a_node17"><a xlink:href="st___measure_8h.html" target="_top" xlink:title="../lib/st_Measure.h">
<polygon fill="none" stroke="black" points="1119.5,-112.5 1119.5,-131.5 1217.5,-131.5 1217.5,-112.5 1119.5,-112.5"/>
<text text-anchor="middle" x="1168.5" y="-119.5" font-family="Helvetica,sans-Serif" font-size="10.00">../lib/st_Measure.h</text>
</a>
</g>
</g>
<!-- Node0&#45;&gt;Node16 -->
<g id="edge27" class="edge"><title>Node0&#45;&gt;Node16</title>
<path fill="none" stroke="midnightblue" d="M227.657,-230.436C320.42,-224.711 545.633,-209.666 733.5,-188 898.146,-169.012 940.822,-157.623 1109.29,-132.033"/>
<polygon fill="midnightblue" stroke="midnightblue" points="1109.88,-135.483 1119.25,-130.527 1108.84,-128.562 1109.88,-135.483"/>
</g>
<!-- Node6 -->
<g id="node7" class="node"><title>Node6</title>
<g id="a_node7"><a xlink:href="_usart_8h.html" target="_top" xlink:title="This is the uart library for the atmega1284p. ">
<polygon fill="none" stroke="black" points="612,-112.5 612,-131.5 683,-131.5 683,-112.5 612,-112.5"/>
<text text-anchor="middle" x="647.5" y="-119.5" font-family="Helvetica,sans-Serif" font-size="10.00">../lib/Usart.h</text>
</a>
</g>
</g>
<!-- Node5&#45;&gt;Node6 -->
<g id="edge6" class="edge"><title>Node5&#45;&gt;Node6</title>
<path fill="none" stroke="midnightblue" d="M683.399,-168.083C677.263,-160.377 668.23,-149.033 660.761,-139.653"/>
<polygon fill="midnightblue" stroke="midnightblue" points="663.436,-137.394 654.468,-131.751 657.96,-141.754 663.436,-137.394"/>
</g>
<!-- Node7 -->
<g id="node8" class="node"><title>Node7</title>
<g id="a_node8"><a xlink:href="_t_w_i_8h.html" target="_top" xlink:title="Brief description of file. ">
<polygon fill="none" stroke="black" points="701,-112.5 701,-131.5 766,-131.5 766,-112.5 701,-112.5"/>
<text text-anchor="middle" x="733.5" y="-119.5" font-family="Helvetica,sans-Serif" font-size="10.00">../lib/TWI.h</text>
</a>
</g>
</g>
<!-- Node5&#45;&gt;Node7 -->
<g id="edge7" class="edge"><title>Node5&#45;&gt;Node7</title>
<path fill="none" stroke="midnightblue" d="M697.601,-168.083C703.737,-160.377 712.77,-149.033 720.239,-139.653"/>
<polygon fill="midnightblue" stroke="midnightblue" points="723.04,-141.754 726.532,-131.751 717.564,-137.394 723.04,-141.754"/>
</g>
<!-- Node8 -->
<g id="node9" class="node"><title>Node8</title>
<g id="a_node9"><a xlink:href="_r_t_c_8h.html" target="_top" xlink:title="The RTC class regroup methods and parameters to use the Real Time Clock : pcf8563. ">
<polygon fill="none" stroke="black" points="784.5,-112.5 784.5,-131.5 852.5,-131.5 852.5,-112.5 784.5,-112.5"/>
<text text-anchor="middle" x="818.5" y="-119.5" font-family="Helvetica,sans-Serif" font-size="10.00">../lib/RTC.h</text>
</a>
</g>
</g>
<!-- Node5&#45;&gt;Node8 -->
<g id="edge8" class="edge"><title>Node5&#45;&gt;Node8</title>
<path fill="none" stroke="midnightblue" d="M710.782,-168.444C731.847,-159.557 765.017,-145.563 788.986,-135.451"/>
<polygon fill="midnightblue" stroke="midnightblue" points="790.46,-138.628 798.313,-131.516 787.739,-132.179 790.46,-138.628"/>
</g>
<!-- Node9 -->
<g id="node10" class="node"><title>Node9</title>
<g id="a_node10"><a xlink:href="_windvane_8h.html" target="_top" xlink:title="Brief description of file. ">
<polygon fill="none" stroke="black" points="238.5,-112.5 238.5,-131.5 328.5,-131.5 328.5,-112.5 238.5,-112.5"/>
<text text-anchor="middle" x="283.5" y="-119.5" font-family="Helvetica,sans-Serif" font-size="10.00">../lib/Windvane.h</text>
</a>
</g>
</g>
<!-- Node5&#45;&gt;Node9 -->
<g id="edge9" class="edge"><title>Node5&#45;&gt;Node9</title>
<path fill="none" stroke="midnightblue" d="M656.364,-173.09C594.948,-165.959 461.525,-150.033 338.529,-132.104"/>
<polygon fill="midnightblue" stroke="midnightblue" points="338.963,-128.63 328.561,-130.643 337.948,-135.556 338.963,-128.63"/>
</g>
<!-- Node11 -->
<g id="node12" class="node"><title>Node11</title>
<g id="a_node12"><a xlink:href="_anemometer_8h.html" target="_top" xlink:title="Brief description of file. ">
<polygon fill="none" stroke="black" points="346.5,-112.5 346.5,-131.5 448.5,-131.5 448.5,-112.5 346.5,-112.5"/>
<text text-anchor="middle" x="397.5" y="-119.5" font-family="Helvetica,sans-Serif" font-size="10.00">../lib/Anemometer.h</text>
</a>
</g>
</g>
<!-- Node5&#45;&gt;Node11 -->
<g id="edge12" class="edge"><title>Node5&#45;&gt;Node11</title>
<path fill="none" stroke="midnightblue" d="M656.316,-170.7C606.584,-161.534 513.697,-144.415 453.781,-133.373"/>
<polygon fill="midnightblue" stroke="midnightblue" points="454.197,-129.89 443.728,-131.52 452.928,-136.774 454.197,-129.89"/>
</g>
<!-- Node12 -->
<g id="node13" class="node"><title>Node12</title>
<g id="a_node13"><a xlink:href="_power_8h.html" target="_top" xlink:title="../lib/Power.h">
<polygon fill="none" stroke="black" points="406.5,-56.5 406.5,-75.5 480.5,-75.5 480.5,-56.5 406.5,-56.5"/>
<text text-anchor="middle" x="443.5" y="-63.5" font-family="Helvetica,sans-Serif" font-size="10.00">../lib/Power.h</text>
</a>
</g>
</g>
<!-- Node5&#45;&gt;Node12 -->
<g id="edge14" class="edge"><title>Node5&#45;&gt;Node12</title>
<path fill="none" stroke="midnightblue" d="M656.193,-175.823C615.083,-172.972 545.498,-163.446 495.5,-132 476.835,-120.261 461.947,-99.4252 452.964,-84.5064"/>
<polygon fill="midnightblue" stroke="midnightblue" points="455.937,-82.6544 447.934,-75.7121 449.861,-86.1301 455.937,-82.6544"/>
</g>
<!-- Node13 -->
<g id="node14" class="node"><title>Node13</title>
<g id="a_node14"><a xlink:href="_state_8h.html" target="_top" xlink:title="Brief description of file. ">
<polygon fill="none" stroke="black" points="918.5,-56.5 918.5,-75.5 988.5,-75.5 988.5,-56.5 918.5,-56.5"/>
<text text-anchor="middle" x="953.5" y="-63.5" font-family="Helvetica,sans-Serif" font-size="10.00">../lib/State.h</text>
</a>
</g>
</g>
<!-- Node5&#45;&gt;Node13 -->
<g id="edge16" class="edge"><title>Node5&#45;&gt;Node13</title>
<path fill="none" stroke="midnightblue" d="M724.503,-171.753C759.921,-165.451 816.426,-153.012 861.5,-132 889.68,-118.864 918.342,-96.9742 936.018,-82.27"/>
<polygon fill="midnightblue" stroke="midnightblue" points="938.402,-84.8373 943.762,-75.6986 933.873,-79.4997 938.402,-84.8373"/>
</g>
<!-- Node14 -->
<g id="node15" class="node"><title>Node14</title>
<g id="a_node15"><a xlink:href="st___config_8h.html" target="_top" xlink:title="../lib/st_Config.h">
<polygon fill="none" stroke="black" points="505,-112.5 505,-131.5 594,-131.5 594,-112.5 505,-112.5"/>
<text text-anchor="middle" x="549.5" y="-119.5" font-family="Helvetica,sans-Serif" font-size="10.00">../lib/st_Config.h</text>
</a>
</g>
</g>
<!-- Node5&#45;&gt;Node14 -->
<g id="edge17" class="edge"><title>Node5&#45;&gt;Node14</title>
<path fill="none" stroke="midnightblue" d="M668.158,-168.444C644.747,-159.478 607.764,-145.314 581.31,-135.183"/>
<polygon fill="midnightblue" stroke="midnightblue" points="582.328,-131.824 571.737,-131.516 579.824,-138.361 582.328,-131.824"/>
</g>
<!-- Node5&#45;&gt;Node16 -->
<g id="edge21" class="edge"><title>Node5&#45;&gt;Node16</title>
<path fill="none" stroke="midnightblue" d="M724.505,-173.864C794.327,-167.315 959.131,-151.285 1108.96,-132.011"/>
<polygon fill="midnightblue" stroke="midnightblue" points="1109.8,-135.432 1119.27,-130.677 1108.9,-128.49 1109.8,-135.432"/>
</g>
<!-- Node17 -->
<g id="node18" class="node"><title>Node17</title>
<g id="a_node18"><a xlink:href="st___output_8h.html" target="_top" xlink:title="../lib/st_Output.h">
<polygon fill="none" stroke="black" points="909,-112.5 909,-131.5 998,-131.5 998,-112.5 909,-112.5"/>
<text text-anchor="middle" x="953.5" y="-119.5" font-family="Helvetica,sans-Serif" font-size="10.00">../lib/st_Output.h</text>
</a>
</g>
</g>
<!-- Node5&#45;&gt;Node17 -->
<g id="edge23" class="edge"><title>Node5&#45;&gt;Node17</title>
<path fill="none" stroke="midnightblue" d="M724.613,-169.996C769.697,-160.739 849.526,-144.348 901.979,-133.578"/>
<polygon fill="midnightblue" stroke="midnightblue" points="902.995,-136.943 912.086,-131.503 901.587,-130.086 902.995,-136.943"/>
</g>
<!-- Node18 -->
<g id="node19" class="node"><title>Node18</title>
<g id="a_node19"><a xlink:href="st___sleep_8h.html" target="_top" xlink:title="../lib/st_Sleep.h">
<polygon fill="none" stroke="black" points="1016,-112.5 1016,-131.5 1101,-131.5 1101,-112.5 1016,-112.5"/>
<text text-anchor="middle" x="1058.5" y="-119.5" font-family="Helvetica,sans-Serif" font-size="10.00">../lib/st_Sleep.h</text>
</a>
</g>
</g>
<!-- Node5&#45;&gt;Node18 -->
<g id="edge25" class="edge"><title>Node5&#45;&gt;Node18</title>
<path fill="none" stroke="midnightblue" d="M724.686,-172.473C780.952,-164.948 896.846,-149.138 1005.77,-132.073"/>
<polygon fill="midnightblue" stroke="midnightblue" points="1006.62,-135.483 1015.95,-130.471 1005.53,-128.568 1006.62,-135.483"/>
</g>
<!-- Node10 -->
<g id="node11" class="node"><title>Node10</title>
<g id="a_node11"><a xlink:href="_sensor_8h.html" target="_top" xlink:title="This class is the base class of sensor. ">
<polygon fill="none" stroke="black" points="311,-56.5 311,-75.5 388,-75.5 388,-56.5 311,-56.5"/>
<text text-anchor="middle" x="349.5" y="-63.5" font-family="Helvetica,sans-Serif" font-size="10.00">../lib/Sensor.h</text>
</a>
</g>
</g>
<!-- Node9&#45;&gt;Node10 -->
<g id="edge10" class="edge"><title>Node9&#45;&gt;Node10</title>
<path fill="none" stroke="midnightblue" d="M294.104,-112.324C303.956,-104.263 318.851,-92.0765 330.715,-82.3695"/>
<polygon fill="midnightblue" stroke="midnightblue" points="333.18,-84.8752 338.703,-75.8339 328.747,-79.4575 333.18,-84.8752"/>
</g>
<!-- Node10&#45;&gt;Node4 -->
<g id="edge11" class="edge"><title>Node10&#45;&gt;Node4</title>
<path fill="none" stroke="midnightblue" d="M357.261,-56.083C364.037,-48.2982 374.043,-36.8015 382.255,-27.3665"/>
<polygon fill="midnightblue" stroke="midnightblue" points="384.958,-29.592 388.883,-19.7511 379.678,-24.9963 384.958,-29.592"/>
</g>
<!-- Node11&#45;&gt;Node10 -->
<g id="edge13" class="edge"><title>Node11&#45;&gt;Node10</title>
<path fill="none" stroke="midnightblue" d="M389.574,-112.083C382.654,-104.298 372.435,-92.8015 364.048,-83.3665"/>
<polygon fill="midnightblue" stroke="midnightblue" points="366.538,-80.8999 357.279,-75.7511 361.306,-85.5505 366.538,-80.8999"/>
</g>
<!-- Node12&#45;&gt;Node4 -->
<g id="edge15" class="edge"><title>Node12&#45;&gt;Node4</title>
<path fill="none" stroke="midnightblue" d="M435.739,-56.083C428.963,-48.2982 418.957,-36.8015 410.745,-27.3665"/>
<polygon fill="midnightblue" stroke="midnightblue" points="413.322,-24.9963 404.117,-19.7511 408.042,-29.592 413.322,-24.9963"/>
</g>
<!-- Node14&#45;&gt;Node4 -->
<g id="edge18" class="edge"><title>Node14&#45;&gt;Node4</title>
<path fill="none" stroke="midnightblue" d="M543.318,-112.461C533.264,-99.0462 512.199,-72.8305 489.5,-56 471.096,-42.3539 447.904,-31.1223 429.284,-23.293"/>
<polygon fill="midnightblue" stroke="midnightblue" points="430.595,-20.0477 420.014,-19.5141 427.953,-26.5299 430.595,-20.0477"/>
</g>
<!-- Node14&#45;&gt;Node13 -->
<g id="edge20" class="edge"><title>Node14&#45;&gt;Node13</title>
<path fill="none" stroke="midnightblue" d="M594.012,-113.306C596.882,-112.852 599.731,-112.412 602.5,-112 711.948,-95.6982 841.137,-80.0598 908.11,-72.2209"/>
<polygon fill="midnightblue" stroke="midnightblue" points="908.785,-75.666 918.312,-71.0309 907.973,-68.7131 908.785,-75.666"/>
</g>
<!-- Node15 -->
<g id="node16" class="node"><title>Node15</title>
<g id="a_node16"><a xlink:href="_date_time_8h.html" target="_top" xlink:title="This file declare the DateTime class. ">
<polygon fill="none" stroke="black" points="537,-56.5 537,-75.5 626,-75.5 626,-56.5 537,-56.5"/>
<text text-anchor="middle" x="581.5" y="-63.5" font-family="Helvetica,sans-Serif" font-size="10.00">../lib/DateTime.h</text>
</a>
</g>
</g>
<!-- Node14&#45;&gt;Node15 -->
<g id="edge19" class="edge"><title>Node14&#45;&gt;Node15</title>
<path fill="none" stroke="midnightblue" d="M554.784,-112.083C559.211,-104.613 565.663,-93.7244 571.118,-84.5199"/>
<polygon fill="midnightblue" stroke="midnightblue" points="574.227,-86.1383 576.314,-75.7511 568.205,-82.5697 574.227,-86.1383"/>
</g>
<!-- Node16&#45;&gt;Node13 -->
<g id="edge22" class="edge"><title>Node16&#45;&gt;Node13</title>
<path fill="none" stroke="midnightblue" d="M1134.43,-112.444C1097.32,-103.122 1037.84,-88.1828 997.285,-77.9972"/>
<polygon fill="midnightblue" stroke="midnightblue" points="997.959,-74.5579 987.408,-75.5164 996.254,-81.347 997.959,-74.5579"/>
</g>
<!-- Node17&#45;&gt;Node13 -->
<g id="edge24" class="edge"><title>Node17&#45;&gt;Node13</title>
<path fill="none" stroke="midnightblue" d="M953.5,-112.083C953.5,-105.006 953.5,-94.8611 953.5,-85.9865"/>
<polygon fill="midnightblue" stroke="midnightblue" points="957,-85.751 953.5,-75.7511 950,-85.7511 957,-85.751"/>
</g>
<!-- Node18&#45;&gt;Node13 -->
<g id="edge26" class="edge"><title>Node18&#45;&gt;Node13</title>
<path fill="none" stroke="midnightblue" d="M1041.63,-112.324C1024.79,-103.664 998.693,-90.2424 979.262,-80.249"/>
<polygon fill="midnightblue" stroke="midnightblue" points="980.822,-77.1155 970.328,-75.6545 977.62,-83.3405 980.822,-77.1155"/>
</g>
</g>
</svg>
        <g id="navigator" transform="translate(0 0)" fill="#404254">
                <rect fill="#f2f5e9" fill-opacity="0.5" stroke="#606060" stroke-width=".5" x="0" y="0" width="60" height="60"/>
                <use id="zoomplus" xlink:href="#zoomPlus" x="17" y="9" onmousedown="handleZoom(evt,'in')"/>
                <use id="zoomminus" xlink:href="#zoomMin" x="42" y="9" onmousedown="handleZoom(evt,'out')"/>
                <use id="reset" xlink:href="#resetDef" x="30" y="36" onmousedown="handleReset()"/>
                <g id="arrowUp" xlink:href="#dirArrow" transform="translate(30 24)" onmousedown="handlePan(0,-1)">
                  <use xlink:href="#rim" fill="#404040">
                        <set attributeName="fill" to="#808080" begin="arrowUp.mouseover" end="arrowUp.mouseout"/>
                  </use>
                  <path fill="none" stroke="white" stroke-width="1.5" d="M0,-3.0v7 M-2.5,-0.5L0,-3.0L2.5,-0.5"/>
                </g>
                <g id="arrowRight" xlink:href="#dirArrow" transform="rotate(90) translate(36 -43)" onmousedown="handlePan(1,0)">
                  <use xlink:href="#rim" fill="#404040">
                        <set attributeName="fill" to="#808080" begin="arrowRight.mouseover" end="arrowRight.mouseout"/>
                  </use>
                  <path fill="none" stroke="white" stroke-width="1.5" d="M0,-3.0v7 M-2.5,-0.5L0,-3.0L2.5,-0.5"/>
                </g>
                <g id="arrowDown" xlink:href="#dirArrow" transform="rotate(180) translate(-30 -48)" onmousedown="handlePan(0,1)">
                  <use xlink:href="#rim" fill="#404040">
                        <set attributeName="fill" to="#808080" begin="arrowDown.mouseover" end="arrowDown.mouseout"/>
                  </use>
                  <path fill="none" stroke="white" stroke-width="1.5" d="M0,-3.0v7 M-2.5,-0.5L0,-3.0L2.5,-0.5"/>
                </g>
                <g id="arrowLeft" xlink:href="#dirArrow" transform="rotate(270) translate(-36 17)" onmousedown="handlePan(-1,0)">
                  <use xlink:href="#rim" fill="#404040">
                        <set attributeName="fill" to="#808080" begin="arrowLeft.mouseover" end="arrowLeft.mouseout"/>
                  </use>
                  <path fill="none" stroke="white" stroke-width="1.5" d="M0,-3.0v7 M-2.5,-0.5L0,-3.0L2.5,-0.5"/>
                </g>
        </g>
        <svg viewBox="0 0 15 15" width="100%" height="30px" preserveAspectRatio="xMaxYMin meet">
         <g id="arrow_out" transform="scale(0.3 0.3)">
          <a xlink:href="st___measure_8cpp__incl_org.svg" target="_base">
           <rect id="button" ry="5" rx="5" y="6" x="6" height="38" width="38"
                fill="#f2f5e9" fill-opacity="0.5" stroke="#606060" stroke-width="1.0"/>
           <path id="arrow"
             d="M 11.500037,31.436501 C 11.940474,20.09759 22.043105,11.32322 32.158766,21.979434 L 37.068811,17.246167 C 37.068811,17.246167 37.088388,32 37.088388,32 L 22.160133,31.978069 C 22.160133,31.978069 26.997745,27.140456 26.997745,27.140456 C 18.528582,18.264221 13.291696,25.230495 11.500037,31.436501 z"
             style="fill:#404040;"/>
          </a>
         </g>
        </svg>
</svg>
