<?xml version="1.0" encoding="UTF-8" standalone="no"?>
<!DOCTYPE svg PUBLIC "-//W3C//DTD SVG 1.1//EN"
 "http://www.w3.org/Graphics/SVG/1.1/DTD/svg11.dtd">
<!-- Generated by graphviz version 2.38.0 (20140413.2041)
 -->
<!-- Title: st_Config.cpp Pages: 1 -->
<!--zoomable 252 -->
<svg id="main" version="1.1" xmlns="http://www.w3.org/2000/svg" xmlns:xlink="http://www.w3.org/1999/xlink" xml:space="preserve" onload="init(evt)">
<style type="text/css"><![CDATA[
.edge:hover path { stroke: red; }
.edge:hover polygon { stroke: red; fill: red; }
]]></style>
<script type="text/javascript"><![CDATA[
var edges = document.getElementsByTagName('g');
if (edges && edges.length) {
  for (var i=0;i<edges.length;i++) {
    if (edges[i].id.substr(0,4)=='edge') {
      edges[i].setAttribute('class','edge');
    }
  }
}
]]></script>
        <defs>
                <circle id="rim" cx="0" cy="0" r="7"/>
                <circle id="rim2" cx="0" cy="0" r="3.5"/>
                <g id="zoomPlus">
                        <use xlink:href="#rim" fill="#404040">
                                <set attributeName="fill" to="#808080" begin="zoomplus.mouseover" end="zoomplus.mouseout"/>
                        </use>
                        <path d="M-4,0h8M0,-4v8" fill="none" stroke="white" stroke-width="1.5" pointer-events="none"/>
                </g>
                <g id="zoomMin">
                        <use xlink:href="#rim" fill="#404040">
                                <set attributeName="fill" to="#808080" begin="zoomminus.mouseover" end="zoomminus.mouseout"/>
                        </use>
                        <path d="M-4,0h8" fill="none" stroke="white" stroke-width="1.5" pointer-events="none"/>
                </g>
                <g id="dirArrow">
                        <path fill="none" stroke="white" stroke-width="1.5" d="M0,-3.0v7 M-2.5,-0.5L0,-3.0L2.5,-0.5"/>
                </g>
               <g id="resetDef">
                       <use xlink:href="#rim2" fill="#404040">
                               <set attributeName="fill" to="#808080" begin="reset.mouseover" end="reset.mouseout"/>
                       </use>
               </g>
        </defs>

<script type="text/javascript">
var viewWidth = 1250;
var viewHeight = 252;
var sectionId = 'dynsection-0';
</script>
<script xlink:href="svgpan.js"/>
<svg id="graph" class="graph">
<g id="viewport">
<title>st_Config.cpp</title>
<!-- Node0 -->
<g id="node1" class="node"><title>Node0</title>
<polygon fill="#bfbfbf" stroke="black" points="197,-224.5 197,-243.5 274,-243.5 274,-224.5 197,-224.5"/>
<text text-anchor="middle" x="235.5" y="-231.5" font-family="Helvetica,sans-Serif" font-size="10.00">st_Config.cpp</text>
</g>
<!-- Node1 -->
<g id="node2" class="node"><title>Node1</title>
<polygon fill="none" stroke="#bfbfbf" points="0,-168.5 0,-187.5 49,-187.5 49,-168.5 0,-168.5"/>
<text text-anchor="middle" x="24.5" y="-175.5" font-family="Helvetica,sans-Serif" font-size="10.00">string.h</text>
</g>
<!-- Node0&#45;&gt;Node1 -->
<g id="edge1" class="edge"><title>Node0&#45;&gt;Node1</title>
<path fill="none" stroke="midnightblue" d="M201.543,-224.472C167.842,-215.985 114.461,-202.48 58.7038,-188.034"/>
<polygon fill="midnightblue" stroke="midnightblue" points="59.565,-184.641 49.0065,-185.518 57.8071,-191.417 59.565,-184.641"/>
</g>
<!-- Node2 -->
<g id="node3" class="node"><title>Node2</title>
<polygon fill="none" stroke="#bfbfbf" points="67.5,-168.5 67.5,-187.5 115.5,-187.5 115.5,-168.5 67.5,-168.5"/>
<text text-anchor="middle" x="91.5" y="-175.5" font-family="Helvetica,sans-Serif" font-size="10.00">stdlib.h</text>
</g>
<!-- Node0&#45;&gt;Node2 -->
<g id="edge2" class="edge"><title>Node0&#45;&gt;Node2</title>
<path fill="none" stroke="midnightblue" d="M212.683,-224.444C188.668,-215.438 150.671,-201.189 123.631,-191.049"/>
<polygon fill="midnightblue" stroke="midnightblue" points="124.803,-187.751 114.21,-187.516 122.345,-194.305 124.803,-187.751"/>
</g>
<!-- Node3 -->
<g id="node4" class="node"><title>Node3</title>
<polygon fill="none" stroke="#bfbfbf" points="133.5,-168.5 133.5,-187.5 207.5,-187.5 207.5,-168.5 133.5,-168.5"/>
<text text-anchor="middle" x="170.5" y="-175.5" font-family="Helvetica,sans-Serif" font-size="10.00">avr/eeprom.h</text>
</g>
<!-- Node0&#45;&gt;Node3 -->
<g id="edge3" class="edge"><title>Node0&#45;&gt;Node3</title>
<path fill="none" stroke="midnightblue" d="M225.057,-224.324C215.354,-216.263 200.685,-204.077 189,-194.369"/>
<polygon fill="midnightblue" stroke="midnightblue" points="191.062,-191.532 181.133,-187.834 186.589,-196.916 191.062,-191.532"/>
</g>
<!-- Node4 -->
<g id="node5" class="node"><title>Node4</title>
<g id="a_node5"><a xlink:href="main_8h.html" target="_top" xlink:title="The main.h file regroup global constant declaration. ">
<polygon fill="none" stroke="black" points="679.5,-0.5 679.5,-19.5 747.5,-19.5 747.5,-0.5 679.5,-0.5"/>
<text text-anchor="middle" x="713.5" y="-7.5" font-family="Helvetica,sans-Serif" font-size="10.00">../lib/main.h</text>
</a>
</g>
</g>
<!-- Node0&#45;&gt;Node4 -->
<g id="edge4" class="edge"><title>Node0&#45;&gt;Node4</title>
<path fill="none" stroke="midnightblue" d="M233.905,-224.287C230.414,-202.241 224.628,-143.747 254.5,-112 311.125,-51.8204 565.472,-23.6438 669.224,-14.5005"/>
<polygon fill="midnightblue" stroke="midnightblue" points="669.705,-17.9721 679.367,-13.6253 669.103,-10.998 669.705,-17.9721"/>
</g>
<!-- Node5 -->
<g id="node6" class="node"><title>Node5</title>
<g id="a_node6"><a xlink:href="_usart_8h.html" target="_top" xlink:title="This is the uart library for the atmega1284p. ">
<polygon fill="none" stroke="black" points="264,-112.5 264,-131.5 335,-131.5 335,-112.5 264,-112.5"/>
<text text-anchor="middle" x="299.5" y="-119.5" font-family="Helvetica,sans-Serif" font-size="10.00">../lib/Usart.h</text>
</a>
</g>
</g>
<!-- Node0&#45;&gt;Node5 -->
<g id="edge5" class="edge"><title>Node0&#45;&gt;Node5</title>
<path fill="none" stroke="midnightblue" d="M240.522,-224.368C251.037,-206.296 275.543,-164.176 289.43,-140.307"/>
<polygon fill="midnightblue" stroke="midnightblue" points="292.498,-141.995 294.501,-131.591 286.447,-138.475 292.498,-141.995"/>
</g>
<!-- Node6 -->
<g id="node7" class="node"><title>Node6</title>
<g id="a_node7"><a xlink:href="_f_s_m_8h.html" target="_top" xlink:title="The FSM is the finish state machine mechanism. ">
<polygon fill="none" stroke="black" points="687.5,-168.5 687.5,-187.5 755.5,-187.5 755.5,-168.5 687.5,-168.5"/>
<text text-anchor="middle" x="721.5" y="-175.5" font-family="Helvetica,sans-Serif" font-size="10.00">../lib/FSM.h</text>
</a>
</g>
</g>
<!-- Node0&#45;&gt;Node6 -->
<g id="edge6" class="edge"><title>Node0&#45;&gt;Node6</title>
<path fill="none" stroke="midnightblue" d="M274.042,-228.718C363.09,-218.823 582.698,-194.422 677.145,-183.928"/>
<polygon fill="midnightblue" stroke="midnightblue" points="677.674,-187.391 687.226,-182.808 676.901,-180.434 677.674,-187.391"/>
</g>
<!-- Node14 -->
<g id="node15" class="node"><title>Node14</title>
<g id="a_node15"><a xlink:href="st___config_8h.html" target="_top" xlink:title="../lib/st_Config.h">
<polygon fill="none" stroke="black" points="1153,-112.5 1153,-131.5 1242,-131.5 1242,-112.5 1153,-112.5"/>
<text text-anchor="middle" x="1197.5" y="-119.5" font-family="Helvetica,sans-Serif" font-size="10.00">../lib/st_Config.h</text>
</a>
</g>
</g>
<!-- Node0&#45;&gt;Node14 -->
<g id="edge27" class="edge"><title>Node0&#45;&gt;Node14</title>
<path fill="none" stroke="midnightblue" d="M274.08,-230.539C361.513,-224.783 581.39,-209.295 764.5,-188 930.413,-168.705 973.66,-158.822 1142.73,-132.104"/>
<polygon fill="midnightblue" stroke="midnightblue" points="1143.39,-135.543 1152.72,-130.528 1142.3,-128.629 1143.39,-135.543"/>
</g>
<!-- Node6&#45;&gt;Node5 -->
<g id="edge7" class="edge"><title>Node6&#45;&gt;Node5</title>
<path fill="none" stroke="midnightblue" d="M687.484,-173.909C622.789,-167.824 477.376,-153.16 345.733,-132.259"/>
<polygon fill="midnightblue" stroke="midnightblue" points="345.902,-128.741 335.474,-130.612 344.793,-135.653 345.902,-128.741"/>
</g>
<!-- Node7 -->
<g id="node8" class="node"><title>Node7</title>
<g id="a_node8"><a xlink:href="_t_w_i_8h.html" target="_top" xlink:title="Brief description of file. ">
<polygon fill="none" stroke="black" points="353,-112.5 353,-131.5 418,-131.5 418,-112.5 353,-112.5"/>
<text text-anchor="middle" x="385.5" y="-119.5" font-family="Helvetica,sans-Serif" font-size="10.00">../lib/TWI.h</text>
</a>
</g>
</g>
<!-- Node6&#45;&gt;Node7 -->
<g id="edge8" class="edge"><title>Node6&#45;&gt;Node7</title>
<path fill="none" stroke="midnightblue" d="M687.437,-172.454C634.319,-165.22 528.322,-150.204 428.02,-131.997"/>
<polygon fill="midnightblue" stroke="midnightblue" points="428.488,-128.525 418.021,-130.168 427.228,-135.41 428.488,-128.525"/>
</g>
<!-- Node8 -->
<g id="node9" class="node"><title>Node8</title>
<g id="a_node9"><a xlink:href="_r_t_c_8h.html" target="_top" xlink:title="The RTC class regroup methods and parameters to use the Real Time Clock : pcf8563. ">
<polygon fill="none" stroke="black" points="436.5,-112.5 436.5,-131.5 504.5,-131.5 504.5,-112.5 436.5,-112.5"/>
<text text-anchor="middle" x="470.5" y="-119.5" font-family="Helvetica,sans-Serif" font-size="10.00">../lib/RTC.h</text>
</a>
</g>
</g>
<!-- Node6&#45;&gt;Node8 -->
<g id="edge9" class="edge"><title>Node6&#45;&gt;Node8</title>
<path fill="none" stroke="midnightblue" d="M687.388,-169.661C642.588,-160.023 563.855,-143.084 514.582,-132.484"/>
<polygon fill="midnightblue" stroke="midnightblue" points="515.05,-129.004 504.538,-130.323 513.578,-135.848 515.05,-129.004"/>
</g>
<!-- Node9 -->
<g id="node10" class="node"><title>Node9</title>
<g id="a_node10"><a xlink:href="_windvane_8h.html" target="_top" xlink:title="Brief description of file. ">
<polygon fill="none" stroke="black" points="522.5,-112.5 522.5,-131.5 612.5,-131.5 612.5,-112.5 522.5,-112.5"/>
<text text-anchor="middle" x="567.5" y="-119.5" font-family="Helvetica,sans-Serif" font-size="10.00">../lib/Windvane.h</text>
</a>
</g>
</g>
<!-- Node6&#45;&gt;Node9 -->
<g id="edge10" class="edge"><title>Node6&#45;&gt;Node9</title>
<path fill="none" stroke="midnightblue" d="M697.098,-168.444C671.303,-159.399 630.423,-145.064 601.482,-134.916"/>
<polygon fill="midnightblue" stroke="midnightblue" points="602.382,-131.523 591.788,-131.516 600.066,-138.128 602.382,-131.523"/>
</g>
<!-- Node11 -->
<g id="node12" class="node"><title>Node11</title>
<g id="a_node12"><a xlink:href="_anemometer_8h.html" target="_top" xlink:title="Brief description of file. ">
<polygon fill="none" stroke="black" points="630.5,-112.5 630.5,-131.5 732.5,-131.5 732.5,-112.5 630.5,-112.5"/>
<text text-anchor="middle" x="681.5" y="-119.5" font-family="Helvetica,sans-Serif" font-size="10.00">../lib/Anemometer.h</text>
</a>
</g>
</g>
<!-- Node6&#45;&gt;Node11 -->
<g id="edge13" class="edge"><title>Node6&#45;&gt;Node11</title>
<path fill="none" stroke="midnightblue" d="M714.895,-168.083C709.245,-160.455 700.955,-149.264 694.049,-139.941"/>
<polygon fill="midnightblue" stroke="midnightblue" points="696.747,-137.703 687.982,-131.751 691.122,-141.87 696.747,-137.703"/>
</g>
<!-- Node12 -->
<g id="node13" class="node"><title>Node12</title>
<g id="a_node13"><a xlink:href="_power_8h.html" target="_top" xlink:title="../lib/Power.h">
<polygon fill="none" stroke="black" points="723.5,-56.5 723.5,-75.5 797.5,-75.5 797.5,-56.5 723.5,-56.5"/>
<text text-anchor="middle" x="760.5" y="-63.5" font-family="Helvetica,sans-Serif" font-size="10.00">../lib/Power.h</text>
</a>
</g>
</g>
<!-- Node6&#45;&gt;Node12 -->
<g id="edge15" class="edge"><title>Node6&#45;&gt;Node12</title>
<path fill="none" stroke="midnightblue" d="M725.842,-168.18C730.157,-159.211 736.793,-144.844 741.5,-132 747.189,-116.477 752.362,-98.394 755.868,-85.2481"/>
<polygon fill="midnightblue" stroke="midnightblue" points="759.265,-86.0902 758.396,-75.5311 752.491,-84.3275 759.265,-86.0902"/>
</g>
<!-- Node13 -->
<g id="node14" class="node"><title>Node13</title>
<g id="a_node14"><a xlink:href="_state_8h.html" target="_top" xlink:title="Brief description of file. ">
<polygon fill="none" stroke="black" points="952.5,-56.5 952.5,-75.5 1022.5,-75.5 1022.5,-56.5 952.5,-56.5"/>
<text text-anchor="middle" x="987.5" y="-63.5" font-family="Helvetica,sans-Serif" font-size="10.00">../lib/State.h</text>
</a>
</g>
</g>
<!-- Node6&#45;&gt;Node13 -->
<g id="edge17" class="edge"><title>Node6&#45;&gt;Node13</title>
<path fill="none" stroke="midnightblue" d="M731.736,-168.332C748.566,-154.498 783.607,-127.42 817.5,-112 857.968,-93.5883 907.406,-81.5621 942.513,-74.6144"/>
<polygon fill="midnightblue" stroke="midnightblue" points="943.308,-78.0259 952.469,-72.7041 941.988,-71.1513 943.308,-78.0259"/>
</g>
<!-- Node6&#45;&gt;Node14 -->
<g id="edge18" class="edge"><title>Node6&#45;&gt;Node14</title>
<path fill="none" stroke="midnightblue" d="M755.77,-174.036C826.132,-167.801 992.187,-152.326 1142.41,-132.072"/>
<polygon fill="midnightblue" stroke="midnightblue" points="1143.3,-135.483 1152.74,-130.668 1142.36,-128.547 1143.3,-135.483"/>
</g>
<!-- Node15 -->
<g id="node16" class="node"><title>Node15</title>
<g id="a_node16"><a xlink:href="st___measure_8h.html" target="_top" xlink:title="../lib/st_Measure.h">
<polygon fill="none" stroke="black" points="826.5,-112.5 826.5,-131.5 924.5,-131.5 924.5,-112.5 826.5,-112.5"/>
<text text-anchor="middle" x="875.5" y="-119.5" font-family="Helvetica,sans-Serif" font-size="10.00">../lib/st_Measure.h</text>
</a>
</g>
</g>
<!-- Node6&#45;&gt;Node15 -->
<g id="edge21" class="edge"><title>Node6&#45;&gt;Node15</title>
<path fill="none" stroke="midnightblue" d="M745.902,-168.444C771.697,-159.399 812.577,-145.064 841.518,-134.916"/>
<polygon fill="midnightblue" stroke="midnightblue" points="842.934,-138.128 851.212,-131.516 840.618,-131.523 842.934,-138.128"/>
</g>
<!-- Node16 -->
<g id="node17" class="node"><title>Node16</title>
<g id="a_node17"><a xlink:href="st___output_8h.html" target="_top" xlink:title="../lib/st_Output.h">
<polygon fill="none" stroke="black" points="943,-112.5 943,-131.5 1032,-131.5 1032,-112.5 943,-112.5"/>
<text text-anchor="middle" x="987.5" y="-119.5" font-family="Helvetica,sans-Serif" font-size="10.00">../lib/st_Output.h</text>
</a>
</g>
</g>
<!-- Node6&#45;&gt;Node16 -->
<g id="edge23" class="edge"><title>Node6&#45;&gt;Node16</title>
<path fill="none" stroke="midnightblue" d="M755.73,-170.051C801.34,-160.792 882.454,-144.325 935.607,-133.535"/>
<polygon fill="midnightblue" stroke="midnightblue" points="936.415,-136.942 945.519,-131.522 935.022,-130.082 936.415,-136.942"/>
</g>
<!-- Node17 -->
<g id="node18" class="node"><title>Node17</title>
<g id="a_node18"><a xlink:href="st___sleep_8h.html" target="_top" xlink:title="../lib/st_Sleep.h">
<polygon fill="none" stroke="black" points="1050,-112.5 1050,-131.5 1135,-131.5 1135,-112.5 1050,-112.5"/>
<text text-anchor="middle" x="1092.5" y="-119.5" font-family="Helvetica,sans-Serif" font-size="10.00">../lib/st_Sleep.h</text>
</a>
</g>
</g>
<!-- Node6&#45;&gt;Node17 -->
<g id="edge25" class="edge"><title>Node6&#45;&gt;Node17</title>
<path fill="none" stroke="midnightblue" d="M755.544,-172.553C812.222,-165.072 929.751,-149.232 1039.99,-132.036"/>
<polygon fill="midnightblue" stroke="midnightblue" points="1040.61,-135.482 1049.95,-130.476 1039.53,-128.566 1040.61,-135.482"/>
</g>
<!-- Node10 -->
<g id="node11" class="node"><title>Node10</title>
<g id="a_node11"><a xlink:href="_sensor_8h.html" target="_top" xlink:title="This class is the base class of sensor. ">
<polygon fill="none" stroke="black" points="628,-56.5 628,-75.5 705,-75.5 705,-56.5 628,-56.5"/>
<text text-anchor="middle" x="666.5" y="-63.5" font-family="Helvetica,sans-Serif" font-size="10.00">../lib/Sensor.h</text>
</a>
</g>
</g>
<!-- Node9&#45;&gt;Node10 -->
<g id="edge11" class="edge"><title>Node9&#45;&gt;Node10</title>
<path fill="none" stroke="midnightblue" d="M583.406,-112.324C599.138,-103.743 623.442,-90.486 641.709,-80.5224"/>
<polygon fill="midnightblue" stroke="midnightblue" points="643.53,-83.5157 650.633,-75.6545 640.178,-77.3704 643.53,-83.5157"/>
</g>
<!-- Node10&#45;&gt;Node4 -->
<g id="edge12" class="edge"><title>Node10&#45;&gt;Node4</title>
<path fill="none" stroke="midnightblue" d="M674.261,-56.083C681.037,-48.2982 691.043,-36.8015 699.255,-27.3665"/>
<polygon fill="midnightblue" stroke="midnightblue" points="701.958,-29.592 705.883,-19.7511 696.678,-24.9963 701.958,-29.592"/>
</g>
<!-- Node11&#45;&gt;Node10 -->
<g id="edge14" class="edge"><title>Node11&#45;&gt;Node10</title>
<path fill="none" stroke="midnightblue" d="M679.023,-112.083C677.014,-104.849 674.114,-94.4087 671.61,-85.3968"/>
<polygon fill="midnightblue" stroke="midnightblue" points="674.98,-84.4495 668.931,-75.7511 668.235,-86.323 674.98,-84.4495"/>
</g>
<!-- Node12&#45;&gt;Node4 -->
<g id="edge16" class="edge"><title>Node12&#45;&gt;Node4</title>
<path fill="none" stroke="midnightblue" d="M752.739,-56.083C745.963,-48.2982 735.957,-36.8015 727.745,-27.3665"/>
<polygon fill="midnightblue" stroke="midnightblue" points="730.322,-24.9963 721.117,-19.7511 725.042,-29.592 730.322,-24.9963"/>
</g>
<!-- Node14&#45;&gt;Node4 -->
<g id="edge19" class="edge"><title>Node14&#45;&gt;Node4</title>
<path fill="none" stroke="midnightblue" d="M1179.54,-112.359C1149.58,-98.312 1087.18,-70.6266 1031.5,-56 935.914,-30.8895 820.249,-18.9786 758.13,-14.0267"/>
<polygon fill="midnightblue" stroke="midnightblue" points="758.141,-10.5172 747.901,-13.2359 757.601,-17.4963 758.141,-10.5172"/>
</g>
<!-- Node14&#45;&gt;Node13 -->
<g id="edge20" class="edge"><title>Node14&#45;&gt;Node13</title>
<path fill="none" stroke="midnightblue" d="M1164.22,-112.444C1128.05,-103.142 1070.12,-88.246 1030.52,-78.062"/>
<polygon fill="midnightblue" stroke="midnightblue" points="1031.18,-74.6172 1020.62,-75.5164 1029.43,-81.3966 1031.18,-74.6172"/>
</g>
<!-- Node15&#45;&gt;Node13 -->
<g id="edge22" class="edge"><title>Node15&#45;&gt;Node13</title>
<path fill="none" stroke="midnightblue" d="M893.495,-112.324C911.538,-103.625 939.547,-90.1202 960.303,-80.113"/>
<polygon fill="midnightblue" stroke="midnightblue" points="962.062,-83.1502 969.55,-75.6545 959.022,-76.8449 962.062,-83.1502"/>
</g>
<!-- Node16&#45;&gt;Node13 -->
<g id="edge24" class="edge"><title>Node16&#45;&gt;Node13</title>
<path fill="none" stroke="midnightblue" d="M987.5,-112.083C987.5,-105.006 987.5,-94.8611 987.5,-85.9865"/>
<polygon fill="midnightblue" stroke="midnightblue" points="991,-85.751 987.5,-75.7511 984,-85.7511 991,-85.751"/>
</g>
<!-- Node17&#45;&gt;Node13 -->
<g id="edge26" class="edge"><title>Node17&#45;&gt;Node13</title>
<path fill="none" stroke="midnightblue" d="M1075.63,-112.324C1058.79,-103.664 1032.69,-90.2424 1013.26,-80.249"/>
<polygon fill="midnightblue" stroke="midnightblue" points="1014.82,-77.1155 1004.33,-75.6545 1011.62,-83.3405 1014.82,-77.1155"/>
</g>
</g>
</svg>
        <g id="navigator" transform="translate(0 0)" fill="#404254">
                <rect fill="#f2f5e9" fill-opacity="0.5" stroke="#606060" stroke-width=".5" x="0" y="0" width="60" height="60"/>
                <use id="zoomplus" xlink:href="#zoomPlus" x="17" y="9" onmousedown="handleZoom(evt,'in')"/>
                <use id="zoomminus" xlink:href="#zoomMin" x="42" y="9" onmousedown="handleZoom(evt,'out')"/>
                <use id="reset" xlink:href="#resetDef" x="30" y="36" onmousedown="handleReset()"/>
                <g id="arrowUp" xlink:href="#dirArrow" transform="translate(30 24)" onmousedown="handlePan(0,-1)">
                  <use xlink:href="#rim" fill="#404040">
                        <set attributeName="fill" to="#808080" begin="arrowUp.mouseover" end="arrowUp.mouseout"/>
                  </use>
                  <path fill="none" stroke="white" stroke-width="1.5" d="M0,-3.0v7 M-2.5,-0.5L0,-3.0L2.5,-0.5"/>
                </g>
                <g id="arrowRight" xlink:href="#dirArrow" transform="rotate(90) translate(36 -43)" onmousedown="handlePan(1,0)">
                  <use xlink:href="#rim" fill="#404040">
                        <set attributeName="fill" to="#808080" begin="arrowRight.mouseover" end="arrowRight.mouseout"/>
                  </use>
                  <path fill="none" stroke="white" stroke-width="1.5" d="M0,-3.0v7 M-2.5,-0.5L0,-3.0L2.5,-0.5"/>
                </g>
                <g id="arrowDown" xlink:href="#dirArrow" transform="rotate(180) translate(-30 -48)" onmousedown="handlePan(0,1)">
                  <use xlink:href="#rim" fill="#404040">
                        <set attributeName="fill" to="#808080" begin="arrowDown.mouseover" end="arrowDown.mouseout"/>
                  </use>
                  <path fill="none" stroke="white" stroke-width="1.5" d="M0,-3.0v7 M-2.5,-0.5L0,-3.0L2.5,-0.5"/>
                </g>
                <g id="arrowLeft" xlink:href="#dirArrow" transform="rotate(270) translate(-36 17)" onmousedown="handlePan(-1,0)">
                  <use xlink:href="#rim" fill="#404040">
                        <set attributeName="fill" to="#808080" begin="arrowLeft.mouseover" end="arrowLeft.mouseout"/>
                  </use>
                  <path fill="none" stroke="white" stroke-width="1.5" d="M0,-3.0v7 M-2.5,-0.5L0,-3.0L2.5,-0.5"/>
                </g>
        </g>
        <svg viewBox="0 0 15 15" width="100%" height="30px" preserveAspectRatio="xMaxYMin meet">
         <g id="arrow_out" transform="scale(0.3 0.3)">
          <a xlink:href="st___config_8cpp__incl_org.svg" target="_base">
           <rect id="button" ry="5" rx="5" y="6" x="6" height="38" width="38"
                fill="#f2f5e9" fill-opacity="0.5" stroke="#606060" stroke-width="1.0"/>
           <path id="arrow"
             d="M 11.500037,31.436501 C 11.940474,20.09759 22.043105,11.32322 32.158766,21.979434 L 37.068811,17.246167 C 37.068811,17.246167 37.088388,32 37.088388,32 L 22.160133,31.978069 C 22.160133,31.978069 26.997745,27.140456 26.997745,27.140456 C 18.528582,18.264221 13.291696,25.230495 11.500037,31.436501 z"
             style="fill:#404040;"/>
          </a>
         </g>
        </svg>
</svg>
