<?xml version="1.0" encoding="UTF-8" standalone="no"?>
<!DOCTYPE svg PUBLIC "-//W3C//DTD SVG 1.1//EN"
 "http://www.w3.org/Graphics/SVG/1.1/DTD/svg11.dtd">
<!-- Generated by graphviz version 2.38.0 (20140413.2041)
 -->
<!-- Title: st_Output.cpp Pages: 1 -->
<!--zoomable 252 -->
<svg id="main" version="1.1" xmlns="http://www.w3.org/2000/svg" xmlns:xlink="http://www.w3.org/1999/xlink" xml:space="preserve" onload="init(evt)">
<style type="text/css"><![CDATA[
.edge:hover path { stroke: red; }
.edge:hover polygon { stroke: red; fill: red; }
]]></style>
<script type="text/javascript"><![CDATA[
var edges = document.getElementsByTagName('g');
if (edges && edges.length) {
  for (var i=0;i<edges.length;i++) {
    if (edges[i].id.substr(0,4)=='edge') {
      edges[i].setAttribute('class','edge');
    }
  }
}
]]></script>
        <defs>
                <circle id="rim" cx="0" cy="0" r="7"/>
                <circle id="rim2" cx="0" cy="0" r="3.5"/>
                <g id="zoomPlus">
                        <use xlink:href="#rim" fill="#404040">
                                <set attributeName="fill" to="#808080" begin="zoomplus.mouseover" end="zoomplus.mouseout"/>
                        </use>
                        <path d="M-4,0h8M0,-4v8" fill="none" stroke="white" stroke-width="1.5" pointer-events="none"/>
                </g>
                <g id="zoomMin">
                        <use xlink:href="#rim" fill="#404040">
                                <set attributeName="fill" to="#808080" begin="zoomminus.mouseover" end="zoomminus.mouseout"/>
                        </use>
                        <path d="M-4,0h8" fill="none" stroke="white" stroke-width="1.5" pointer-events="none"/>
                </g>
                <g id="dirArrow">
                        <path fill="none" stroke="white" stroke-width="1.5" d="M0,-3.0v7 M-2.5,-0.5L0,-3.0L2.5,-0.5"/>
                </g>
               <g id="resetDef">
                       <use xlink:href="#rim2" fill="#404040">
                               <set attributeName="fill" to="#808080" begin="reset.mouseover" end="reset.mouseout"/>
                       </use>
               </g>
        </defs>

<script type="text/javascript">
var viewWidth = 1159;
var viewHeight = 252;
var sectionId = 'dynsection-0';
</script>
<script xlink:href="svgpan.js"/>
<svg id="graph" class="graph">
<g id="viewport">
<title>st_Output.cpp</title>
<!-- Node0 -->
<g id="node1" class="node"><title>Node0</title>
<polygon fill="#bfbfbf" stroke="black" points="136.5,-224.5 136.5,-243.5 214.5,-243.5 214.5,-224.5 136.5,-224.5"/>
<text text-anchor="middle" x="175.5" y="-231.5" font-family="Helvetica,sans-Serif" font-size="10.00">st_Output.cpp</text>
</g>
<!-- Node1 -->
<g id="node2" class="node"><title>Node1</title>
<polygon fill="none" stroke="#bfbfbf" points="0,-168.5 0,-187.5 49,-187.5 49,-168.5 0,-168.5"/>
<text text-anchor="middle" x="24.5" y="-175.5" font-family="Helvetica,sans-Serif" font-size="10.00">string.h</text>
</g>
<!-- Node0&#45;&gt;Node1 -->
<g id="edge1" class="edge"><title>Node0&#45;&gt;Node1</title>
<path fill="none" stroke="midnightblue" d="M151.574,-224.444C126.281,-215.399 86.1976,-201.064 57.8202,-190.916"/>
<polygon fill="midnightblue" stroke="midnightblue" points="58.9091,-187.588 48.3145,-187.516 56.5519,-194.179 58.9091,-187.588"/>
</g>
<!-- Node2 -->
<g id="node3" class="node"><title>Node2</title>
<polygon fill="none" stroke="#bfbfbf" points="67.5,-168.5 67.5,-187.5 115.5,-187.5 115.5,-168.5 67.5,-168.5"/>
<text text-anchor="middle" x="91.5" y="-175.5" font-family="Helvetica,sans-Serif" font-size="10.00">stdlib.h</text>
</g>
<!-- Node0&#45;&gt;Node2 -->
<g id="edge2" class="edge"><title>Node0&#45;&gt;Node2</title>
<path fill="none" stroke="midnightblue" d="M162.004,-224.324C148.9,-215.9 128.788,-202.971 113.393,-193.074"/>
<polygon fill="midnightblue" stroke="midnightblue" points="115.267,-190.118 104.963,-187.655 111.482,-196.006 115.267,-190.118"/>
</g>
<!-- Node3 -->
<g id="node4" class="node"><title>Node3</title>
<g id="a_node4"><a xlink:href="main_8h.html" target="_top" xlink:title="The main.h file regroup global constant declaration. ">
<polygon fill="none" stroke="black" points="385.5,-0.5 385.5,-19.5 453.5,-19.5 453.5,-0.5 385.5,-0.5"/>
<text text-anchor="middle" x="419.5" y="-7.5" font-family="Helvetica,sans-Serif" font-size="10.00">../lib/main.h</text>
</a>
</g>
</g>
<!-- Node0&#45;&gt;Node3 -->
<g id="edge3" class="edge"><title>Node0&#45;&gt;Node3</title>
<path fill="none" stroke="midnightblue" d="M171.104,-224.46C160.895,-203.306 138.229,-147.617 162.5,-112 210.379,-41.7405 315.264,-20.3554 375.191,-13.8469"/>
<polygon fill="midnightblue" stroke="midnightblue" points="375.871,-17.2968 385.477,-12.8281 375.181,-10.3309 375.871,-17.2968"/>
</g>
<!-- Node4 -->
<g id="node5" class="node"><title>Node4</title>
<g id="a_node5"><a xlink:href="_f_s_m_8h.html" target="_top" xlink:title="The FSM is the finish state machine mechanism. ">
<polygon fill="none" stroke="black" points="586.5,-168.5 586.5,-187.5 654.5,-187.5 654.5,-168.5 586.5,-168.5"/>
<text text-anchor="middle" x="620.5" y="-175.5" font-family="Helvetica,sans-Serif" font-size="10.00">../lib/FSM.h</text>
</a>
</g>
</g>
<!-- Node0&#45;&gt;Node4 -->
<g id="edge4" class="edge"><title>Node0&#45;&gt;Node4</title>
<path fill="none" stroke="midnightblue" d="M214.601,-228.255C297.242,-218.227 489.193,-194.934 576.206,-184.375"/>
<polygon fill="midnightblue" stroke="midnightblue" points="576.777,-187.831 586.283,-183.152 575.934,-180.882 576.777,-187.831"/>
</g>
<!-- Node5 -->
<g id="node6" class="node"><title>Node5</title>
<g id="a_node6"><a xlink:href="_usart_8h.html" target="_top" xlink:title="This is the uart library for the atmega1284p. ">
<polygon fill="none" stroke="black" points="172,-112.5 172,-131.5 243,-131.5 243,-112.5 172,-112.5"/>
<text text-anchor="middle" x="207.5" y="-119.5" font-family="Helvetica,sans-Serif" font-size="10.00">../lib/Usart.h</text>
</a>
</g>
</g>
<!-- Node0&#45;&gt;Node5 -->
<g id="edge26" class="edge"><title>Node0&#45;&gt;Node5</title>
<path fill="none" stroke="midnightblue" d="M178.011,-224.368C183.198,-206.537 195.196,-165.295 202.185,-141.272"/>
<polygon fill="midnightblue" stroke="midnightblue" points="205.568,-142.171 205.001,-131.591 198.847,-140.216 205.568,-142.171"/>
</g>
<!-- Node16 -->
<g id="node17" class="node"><title>Node16</title>
<g id="a_node17"><a xlink:href="st___output_8h.html" target="_top" xlink:title="../lib/st_Output.h">
<polygon fill="none" stroke="black" points="1062,-112.5 1062,-131.5 1151,-131.5 1151,-112.5 1062,-112.5"/>
<text text-anchor="middle" x="1106.5" y="-119.5" font-family="Helvetica,sans-Serif" font-size="10.00">../lib/st_Output.h</text>
</a>
</g>
</g>
<!-- Node0&#45;&gt;Node16 -->
<g id="edge27" class="edge"><title>Node0&#45;&gt;Node16</title>
<path fill="none" stroke="midnightblue" d="M214.79,-230.061C297.791,-223.702 497.044,-207.643 663.5,-188 833.749,-167.909 878.26,-159.132 1051.74,-132.095"/>
<polygon fill="midnightblue" stroke="midnightblue" points="1052.38,-135.538 1061.72,-130.541 1051.3,-128.621 1052.38,-135.538"/>
</g>
<!-- Node4&#45;&gt;Node5 -->
<g id="edge5" class="edge"><title>Node4&#45;&gt;Node5</title>
<path fill="none" stroke="midnightblue" d="M586.386,-173.701C522.92,-167.374 382.213,-152.466 253.362,-132.026"/>
<polygon fill="midnightblue" stroke="midnightblue" points="253.745,-128.543 243.317,-130.418 252.638,-135.455 253.745,-128.543"/>
</g>
<!-- Node6 -->
<g id="node7" class="node"><title>Node6</title>
<g id="a_node7"><a xlink:href="_t_w_i_8h.html" target="_top" xlink:title="Brief description of file. ">
<polygon fill="none" stroke="black" points="635,-112.5 635,-131.5 700,-131.5 700,-112.5 635,-112.5"/>
<text text-anchor="middle" x="667.5" y="-119.5" font-family="Helvetica,sans-Serif" font-size="10.00">../lib/TWI.h</text>
</a>
</g>
</g>
<!-- Node4&#45;&gt;Node6 -->
<g id="edge6" class="edge"><title>Node4&#45;&gt;Node6</title>
<path fill="none" stroke="midnightblue" d="M628.261,-168.083C635.037,-160.298 645.043,-148.801 653.255,-139.367"/>
<polygon fill="midnightblue" stroke="midnightblue" points="655.958,-141.592 659.883,-131.751 650.678,-136.996 655.958,-141.592"/>
</g>
<!-- Node7 -->
<g id="node8" class="node"><title>Node7</title>
<g id="a_node8"><a xlink:href="_r_t_c_8h.html" target="_top" xlink:title="The RTC class regroup methods and parameters to use the Real Time Clock : pcf8563. ">
<polygon fill="none" stroke="black" points="718.5,-112.5 718.5,-131.5 786.5,-131.5 786.5,-112.5 718.5,-112.5"/>
<text text-anchor="middle" x="752.5" y="-119.5" font-family="Helvetica,sans-Serif" font-size="10.00">../lib/RTC.h</text>
</a>
</g>
</g>
<!-- Node4&#45;&gt;Node7 -->
<g id="edge7" class="edge"><title>Node4&#45;&gt;Node7</title>
<path fill="none" stroke="midnightblue" d="M641.416,-168.444C663.236,-159.517 697.65,-145.439 722.392,-135.317"/>
<polygon fill="midnightblue" stroke="midnightblue" points="723.752,-138.542 731.682,-131.516 721.101,-132.063 723.752,-138.542"/>
</g>
<!-- Node8 -->
<g id="node9" class="node"><title>Node8</title>
<g id="a_node9"><a xlink:href="_windvane_8h.html" target="_top" xlink:title="Brief description of file. ">
<polygon fill="none" stroke="black" points="261.5,-112.5 261.5,-131.5 351.5,-131.5 351.5,-112.5 261.5,-112.5"/>
<text text-anchor="middle" x="306.5" y="-119.5" font-family="Helvetica,sans-Serif" font-size="10.00">../lib/Windvane.h</text>
</a>
</g>
</g>
<!-- Node4&#45;&gt;Node8 -->
<g id="edge8" class="edge"><title>Node4&#45;&gt;Node8</title>
<path fill="none" stroke="midnightblue" d="M586.299,-171.118C532.209,-161.816 426.42,-143.623 361.548,-132.467"/>
<polygon fill="midnightblue" stroke="midnightblue" points="361.951,-128.985 351.502,-130.739 360.764,-135.884 361.951,-128.985"/>
</g>
<!-- Node10 -->
<g id="node11" class="node"><title>Node10</title>
<g id="a_node11"><a xlink:href="_anemometer_8h.html" target="_top" xlink:title="Brief description of file. ">
<polygon fill="none" stroke="black" points="369.5,-112.5 369.5,-131.5 471.5,-131.5 471.5,-112.5 369.5,-112.5"/>
<text text-anchor="middle" x="420.5" y="-119.5" font-family="Helvetica,sans-Serif" font-size="10.00">../lib/Anemometer.h</text>
</a>
</g>
</g>
<!-- Node4&#45;&gt;Node10 -->
<g id="edge11" class="edge"><title>Node4&#45;&gt;Node10</title>
<path fill="none" stroke="midnightblue" d="M588.809,-168.444C554.432,-159.162 499.423,-144.309 461.711,-134.127"/>
<polygon fill="midnightblue" stroke="midnightblue" points="462.609,-130.744 452.042,-131.516 460.784,-137.502 462.609,-130.744"/>
</g>
<!-- Node11 -->
<g id="node12" class="node"><title>Node11</title>
<g id="a_node12"><a xlink:href="_power_8h.html" target="_top" xlink:title="../lib/Power.h">
<polygon fill="none" stroke="black" points="429.5,-56.5 429.5,-75.5 503.5,-75.5 503.5,-56.5 429.5,-56.5"/>
<text text-anchor="middle" x="466.5" y="-63.5" font-family="Helvetica,sans-Serif" font-size="10.00">../lib/Power.h</text>
</a>
</g>
</g>
<!-- Node4&#45;&gt;Node11 -->
<g id="edge13" class="edge"><title>Node4&#45;&gt;Node11</title>
<path fill="none" stroke="midnightblue" d="M591.697,-168.456C570.102,-161.109 540.59,-148.995 518.5,-132 501.376,-118.826 486.519,-98.8713 477.12,-84.5484"/>
<polygon fill="midnightblue" stroke="midnightblue" points="479.823,-82.2727 471.525,-75.6849 473.903,-86.0093 479.823,-82.2727"/>
</g>
<!-- Node12 -->
<g id="node13" class="node"><title>Node12</title>
<g id="a_node13"><a xlink:href="_state_8h.html" target="_top" xlink:title="Brief description of file. ">
<polygon fill="none" stroke="black" points="856.5,-56.5 856.5,-75.5 926.5,-75.5 926.5,-56.5 856.5,-56.5"/>
<text text-anchor="middle" x="891.5" y="-63.5" font-family="Helvetica,sans-Serif" font-size="10.00">../lib/State.h</text>
</a>
</g>
</g>
<!-- Node4&#45;&gt;Node12 -->
<g id="edge15" class="edge"><title>Node4&#45;&gt;Node12</title>
<path fill="none" stroke="midnightblue" d="M654.549,-171.817C690.682,-165.509 748.882,-153.011 795.5,-132 824.806,-118.792 854.91,-96.7658 873.41,-82.0648"/>
<polygon fill="midnightblue" stroke="midnightblue" points="875.707,-84.708 881.277,-75.6954 871.302,-79.2675 875.707,-84.708"/>
</g>
<!-- Node13 -->
<g id="node14" class="node"><title>Node13</title>
<g id="a_node14"><a xlink:href="st___config_8h.html" target="_top" xlink:title="../lib/st_Config.h">
<polygon fill="none" stroke="black" points="528,-112.5 528,-131.5 617,-131.5 617,-112.5 528,-112.5"/>
<text text-anchor="middle" x="572.5" y="-119.5" font-family="Helvetica,sans-Serif" font-size="10.00">../lib/st_Config.h</text>
</a>
</g>
</g>
<!-- Node4&#45;&gt;Node13 -->
<g id="edge16" class="edge"><title>Node4&#45;&gt;Node13</title>
<path fill="none" stroke="midnightblue" d="M612.574,-168.083C605.654,-160.298 595.435,-148.801 587.048,-139.367"/>
<polygon fill="midnightblue" stroke="midnightblue" points="589.538,-136.9 580.279,-131.751 584.306,-141.55 589.538,-136.9"/>
</g>
<!-- Node15 -->
<g id="node16" class="node"><title>Node15</title>
<g id="a_node16"><a xlink:href="st___measure_8h.html" target="_top" xlink:title="../lib/st_Measure.h">
<polygon fill="none" stroke="black" points="842.5,-112.5 842.5,-131.5 940.5,-131.5 940.5,-112.5 842.5,-112.5"/>
<text text-anchor="middle" x="891.5" y="-119.5" font-family="Helvetica,sans-Serif" font-size="10.00">../lib/st_Measure.h</text>
</a>
</g>
</g>
<!-- Node4&#45;&gt;Node15 -->
<g id="edge20" class="edge"><title>Node4&#45;&gt;Node15</title>
<path fill="none" stroke="midnightblue" d="M654.548,-170.216C700.853,-160.989 784.142,-144.392 838.618,-133.537"/>
<polygon fill="midnightblue" stroke="midnightblue" points="839.316,-136.967 848.439,-131.58 837.948,-130.102 839.316,-136.967"/>
</g>
<!-- Node4&#45;&gt;Node16 -->
<g id="edge22" class="edge"><title>Node4&#45;&gt;Node16</title>
<path fill="none" stroke="midnightblue" d="M654.746,-174.152C726.357,-168.043 897.361,-152.646 1051.61,-132.041"/>
<polygon fill="midnightblue" stroke="midnightblue" points="1052.3,-135.48 1061.74,-130.677 1051.37,-128.543 1052.3,-135.48"/>
</g>
<!-- Node17 -->
<g id="node18" class="node"><title>Node17</title>
<g id="a_node18"><a xlink:href="st___sleep_8h.html" target="_top" xlink:title="../lib/st_Sleep.h">
<polygon fill="none" stroke="black" points="959,-112.5 959,-131.5 1044,-131.5 1044,-112.5 959,-112.5"/>
<text text-anchor="middle" x="1001.5" y="-119.5" font-family="Helvetica,sans-Serif" font-size="10.00">../lib/st_Sleep.h</text>
</a>
</g>
</g>
<!-- Node4&#45;&gt;Node17 -->
<g id="edge24" class="edge"><title>Node4&#45;&gt;Node17</title>
<path fill="none" stroke="midnightblue" d="M654.659,-172.733C712.797,-165.383 834.936,-149.562 949.002,-132.028"/>
<polygon fill="midnightblue" stroke="midnightblue" points="949.605,-135.476 958.953,-130.49 948.536,-128.558 949.605,-135.476"/>
</g>
<!-- Node9 -->
<g id="node10" class="node"><title>Node9</title>
<g id="a_node10"><a xlink:href="_sensor_8h.html" target="_top" xlink:title="This class is the base class of sensor. ">
<polygon fill="none" stroke="black" points="334,-56.5 334,-75.5 411,-75.5 411,-56.5 334,-56.5"/>
<text text-anchor="middle" x="372.5" y="-63.5" font-family="Helvetica,sans-Serif" font-size="10.00">../lib/Sensor.h</text>
</a>
</g>
</g>
<!-- Node8&#45;&gt;Node9 -->
<g id="edge9" class="edge"><title>Node8&#45;&gt;Node9</title>
<path fill="none" stroke="midnightblue" d="M317.104,-112.324C326.956,-104.263 341.851,-92.0765 353.715,-82.3695"/>
<polygon fill="midnightblue" stroke="midnightblue" points="356.18,-84.8752 361.703,-75.8339 351.747,-79.4575 356.18,-84.8752"/>
</g>
<!-- Node9&#45;&gt;Node3 -->
<g id="edge10" class="edge"><title>Node9&#45;&gt;Node3</title>
<path fill="none" stroke="midnightblue" d="M380.261,-56.083C387.037,-48.2982 397.043,-36.8015 405.255,-27.3665"/>
<polygon fill="midnightblue" stroke="midnightblue" points="407.958,-29.592 411.883,-19.7511 402.678,-24.9963 407.958,-29.592"/>
</g>
<!-- Node10&#45;&gt;Node9 -->
<g id="edge12" class="edge"><title>Node10&#45;&gt;Node9</title>
<path fill="none" stroke="midnightblue" d="M412.574,-112.083C405.654,-104.298 395.435,-92.8015 387.048,-83.3665"/>
<polygon fill="midnightblue" stroke="midnightblue" points="389.538,-80.8999 380.279,-75.7511 384.306,-85.5505 389.538,-80.8999"/>
</g>
<!-- Node11&#45;&gt;Node3 -->
<g id="edge14" class="edge"><title>Node11&#45;&gt;Node3</title>
<path fill="none" stroke="midnightblue" d="M458.739,-56.083C451.963,-48.2982 441.957,-36.8015 433.745,-27.3665"/>
<polygon fill="midnightblue" stroke="midnightblue" points="436.322,-24.9963 427.117,-19.7511 431.042,-29.592 436.322,-24.9963"/>
</g>
<!-- Node13&#45;&gt;Node3 -->
<g id="edge17" class="edge"><title>Node13&#45;&gt;Node3</title>
<path fill="none" stroke="midnightblue" d="M566.318,-112.461C556.264,-99.0462 535.199,-72.8305 512.5,-56 494.096,-42.3539 470.904,-31.1223 452.284,-23.293"/>
<polygon fill="midnightblue" stroke="midnightblue" points="453.595,-20.0477 443.014,-19.5141 450.953,-26.5299 453.595,-20.0477"/>
</g>
<!-- Node13&#45;&gt;Node12 -->
<g id="edge19" class="edge"><title>Node13&#45;&gt;Node12</title>
<path fill="none" stroke="midnightblue" d="M617.033,-113.436C619.898,-112.95 622.739,-112.468 625.5,-112 702.993,-98.8656 793.191,-83.6142 846.138,-74.6652"/>
<polygon fill="midnightblue" stroke="midnightblue" points="846.939,-78.0795 856.216,-72.9619 845.773,-71.1774 846.939,-78.0795"/>
</g>
<!-- Node14 -->
<g id="node15" class="node"><title>Node14</title>
<g id="a_node15"><a xlink:href="_date_time_8h.html" target="_top" xlink:title="This file declare the DateTime class. ">
<polygon fill="none" stroke="black" points="560,-56.5 560,-75.5 649,-75.5 649,-56.5 560,-56.5"/>
<text text-anchor="middle" x="604.5" y="-63.5" font-family="Helvetica,sans-Serif" font-size="10.00">../lib/DateTime.h</text>
</a>
</g>
</g>
<!-- Node13&#45;&gt;Node14 -->
<g id="edge18" class="edge"><title>Node13&#45;&gt;Node14</title>
<path fill="none" stroke="midnightblue" d="M577.784,-112.083C582.211,-104.613 588.663,-93.7244 594.118,-84.5199"/>
<polygon fill="midnightblue" stroke="midnightblue" points="597.227,-86.1383 599.314,-75.7511 591.205,-82.5697 597.227,-86.1383"/>
</g>
<!-- Node15&#45;&gt;Node12 -->
<g id="edge21" class="edge"><title>Node15&#45;&gt;Node12</title>
<path fill="none" stroke="midnightblue" d="M891.5,-112.083C891.5,-105.006 891.5,-94.8611 891.5,-85.9865"/>
<polygon fill="midnightblue" stroke="midnightblue" points="895,-85.751 891.5,-75.7511 888,-85.7511 895,-85.751"/>
</g>
<!-- Node16&#45;&gt;Node12 -->
<g id="edge23" class="edge"><title>Node16&#45;&gt;Node12</title>
<path fill="none" stroke="midnightblue" d="M1072.43,-112.444C1035.32,-103.122 975.839,-88.1828 935.285,-77.9972"/>
<polygon fill="midnightblue" stroke="midnightblue" points="935.959,-74.5579 925.408,-75.5164 934.254,-81.347 935.959,-74.5579"/>
</g>
<!-- Node17&#45;&gt;Node12 -->
<g id="edge25" class="edge"><title>Node17&#45;&gt;Node12</title>
<path fill="none" stroke="midnightblue" d="M983.827,-112.324C966.106,-103.625 938.597,-90.1202 918.212,-80.113"/>
<polygon fill="midnightblue" stroke="midnightblue" points="919.649,-76.9195 909.13,-75.6545 916.564,-83.2031 919.649,-76.9195"/>
</g>
</g>
</svg>
        <g id="navigator" transform="translate(0 0)" fill="#404254">
                <rect fill="#f2f5e9" fill-opacity="0.5" stroke="#606060" stroke-width=".5" x="0" y="0" width="60" height="60"/>
                <use id="zoomplus" xlink:href="#zoomPlus" x="17" y="9" onmousedown="handleZoom(evt,'in')"/>
                <use id="zoomminus" xlink:href="#zoomMin" x="42" y="9" onmousedown="handleZoom(evt,'out')"/>
                <use id="reset" xlink:href="#resetDef" x="30" y="36" onmousedown="handleReset()"/>
                <g id="arrowUp" xlink:href="#dirArrow" transform="translate(30 24)" onmousedown="handlePan(0,-1)">
                  <use xlink:href="#rim" fill="#404040">
                        <set attributeName="fill" to="#808080" begin="arrowUp.mouseover" end="arrowUp.mouseout"/>
                  </use>
                  <path fill="none" stroke="white" stroke-width="1.5" d="M0,-3.0v7 M-2.5,-0.5L0,-3.0L2.5,-0.5"/>
                </g>
                <g id="arrowRight" xlink:href="#dirArrow" transform="rotate(90) translate(36 -43)" onmousedown="handlePan(1,0)">
                  <use xlink:href="#rim" fill="#404040">
                        <set attributeName="fill" to="#808080" begin="arrowRight.mouseover" end="arrowRight.mouseout"/>
                  </use>
                  <path fill="none" stroke="white" stroke-width="1.5" d="M0,-3.0v7 M-2.5,-0.5L0,-3.0L2.5,-0.5"/>
                </g>
                <g id="arrowDown" xlink:href="#dirArrow" transform="rotate(180) translate(-30 -48)" onmousedown="handlePan(0,1)">
                  <use xlink:href="#rim" fill="#404040">
                        <set attributeName="fill" to="#808080" begin="arrowDown.mouseover" end="arrowDown.mouseout"/>
                  </use>
                  <path fill="none" stroke="white" stroke-width="1.5" d="M0,-3.0v7 M-2.5,-0.5L0,-3.0L2.5,-0.5"/>
                </g>
                <g id="arrowLeft" xlink:href="#dirArrow" transform="rotate(270) translate(-36 17)" onmousedown="handlePan(-1,0)">
                  <use xlink:href="#rim" fill="#404040">
                        <set attributeName="fill" to="#808080" begin="arrowLeft.mouseover" end="arrowLeft.mouseout"/>
                  </use>
                  <path fill="none" stroke="white" stroke-width="1.5" d="M0,-3.0v7 M-2.5,-0.5L0,-3.0L2.5,-0.5"/>
                </g>
        </g>
        <svg viewBox="0 0 15 15" width="100%" height="30px" preserveAspectRatio="xMaxYMin meet">
         <g id="arrow_out" transform="scale(0.3 0.3)">
          <a xlink:href="st___output_8cpp__incl_org.svg" target="_base">
           <rect id="button" ry="5" rx="5" y="6" x="6" height="38" width="38"
                fill="#f2f5e9" fill-opacity="0.5" stroke="#606060" stroke-width="1.0"/>
           <path id="arrow"
             d="M 11.500037,31.436501 C 11.940474,20.09759 22.043105,11.32322 32.158766,21.979434 L 37.068811,17.246167 C 37.068811,17.246167 37.088388,32 37.088388,32 L 22.160133,31.978069 C 22.160133,31.978069 26.997745,27.140456 26.997745,27.140456 C 18.528582,18.264221 13.291696,25.230495 11.500037,31.436501 z"
             style="fill:#404040;"/>
          </a>
         </g>
        </svg>
</svg>
